ply
format ascii 1.0
comment Created in Blender version 4.4.1
element vertex 24
property float x
property float y
property float z
property float nx
property float ny
property float nz
property float s
property float t
element face 12
property list uchar uint vertex_indices
end_header
-10.934533 -0.10000008 -3.245935 0 -1 0 0.375 0.5
-12.934533 -0.10000008 -0.70682013 0 -1 0 0.125 0.75
-12.934533 -0.10000008 -3.245935 0 -1 0 0.125 0.5
-12.934533 3.6999996 -0.70682013 -1 0 0 0.625 0
-12.934533 -0.10000008 -3.245935 -1 0 0 0.375 0.25
-12.934533 -0.10000008 -0.70682013 -1 0 0 0.375 0
-10.934533 3.6999996 -0.70682013 0 0 1 0.625 0.75
-12.934533 -0.10000008 -0.70682013 0 0 1 0.375 1
-10.934533 -0.10000008 -0.70682013 0 0 1 0.375 0.75
-10.934533 3.6999996 -3.245935 1 0 0 0.625 0.5
-10.934533 -0.10000008 -0.70682013 1 0 0 0.375 0.75
-10.934533 -0.10000008 -3.245935 1 0 0 0.375 0.5
-12.934533 3.6999996 -3.245935 0 1 0 0.875 0.5
-10.934533 3.6999996 -0.70682013 0 1 0 0.625 0.75
-10.934533 3.6999996 -3.245935 0 1 0 0.625 0.5
-12.934533 3.6999996 -3.245935 0 0 -1 0.625 0.25
-10.934533 -0.10000008 -3.245935 0 0 -1 0.375 0.5
-12.934533 -0.10000008 -3.245935 0 0 -1 0.375 0.25
-10.934533 -0.10000008 -0.70682013 0 -1 0 0.375 0.75
-12.934533 3.6999996 -3.245935 -1 0 0 0.625 0.25
-12.934533 3.6999996 -0.70682013 0 0 1 0.625 1
-10.934533 3.6999996 -0.70682013 1 0 0 0.625 0.75
-12.934533 3.6999996 -0.70682013 0 1 0 0.875 0.75
-10.934533 3.6999996 -3.245935 0 0 -1 0.625 0.5
3 0 1 2
3 3 4 5
3 6 7 8
3 9 10 11
3 12 13 14
3 15 16 17
3 0 18 1
3 3 19 4
3 6 20 7
3 9 21 10
3 12 22 13
3 15 23 16
