ply
format ascii 1.0
comment Created in Blender version 4.4.1
element vertex 72
property float x
property float y
property float z
property float nx
property float ny
property float nz
property float s
property float t
element face 36
property list uchar uint vertex_indices
end_header
2.8586574 0.56104445 -7.1165338 -0.57734233 0.57735425 0.57735425 0.21910414 0.93189514
2.8586574 0.23052216 -8.830083 -0.57734233 -0.57735425 -0.57735425 0.03245285 0.9678979
2.8586574 0.23052216 -7.1165338 -0.5773524 -0.5773399 0.57735854 0.21910414 0.9678979
2.8586574 0.56104445 -8.830083 -0.5773524 0.5773399 -0.5773586 0.37967482 0.8947103
6.0458703 0.23052216 -8.830083 0.5773524 -0.5773398 -0.57735854 0.032502025 0.93071306
2.8586574 0.23052216 -8.830083 -0.57734233 -0.57735425 -0.57735425 0.37967482 0.93071306
6.0458703 0.56104445 -8.830083 0.57734233 0.57735425 -0.57735425 0.220067 0.93189526
6.0458703 0.23052216 -7.1165338 0.57734233 -0.57735425 0.57735425 0.40671834 0.9678979
6.0458703 0.23052216 -8.830083 0.5773524 -0.5773398 -0.57735854 0.220067 0.9678979
6.0458703 0.56104445 -7.1165338 0.57735234 0.5773399 0.57735854 0.44390306 0.5463555
2.8586574 0.23052216 -7.1165338 -0.5773524 -0.5773399 0.57735854 0.40790036 0.89352834
6.0458703 0.23052216 -7.1165338 0.57734233 -0.57735425 0.57735425 0.40790036 0.5463555
6.0458703 0.23052216 -8.830083 0.5773524 -0.5773398 -0.57735854 0.21910414 0.5463556
2.8586574 0.23052216 -7.1165338 -0.5773524 -0.5773399 0.57735854 0.032452792 0.89352834
2.8586574 0.23052216 -8.830083 -0.57734233 -0.57735425 -0.57735425 0.21910414 0.89352834
2.8586574 0.56104445 -8.830083 -0.5773524 0.5773399 -0.5773586 0.40671834 0.89352834
6.0458703 0.56104445 -7.1165338 0.57735234 0.5773399 0.57735854 0.220067 0.5463556
6.0458703 0.56104445 -8.830083 0.57734233 0.57735425 -0.57735425 0.40671834 0.5463556
2.8586574 0.56104445 -8.830083 -0.5773524 0.5773399 -0.5773586 0.03245285 0.93189526
6.0458703 0.56104445 -8.830083 0.57734233 0.57735425 -0.57735425 0.032502025 0.8947104
6.0458703 0.56104445 -7.1165338 0.57735234 0.5773399 0.57735854 0.40671834 0.93189526
2.8586574 0.56104445 -7.1165338 -0.57734233 0.57735425 0.57735425 0.44390306 0.89352834
6.0458703 0.23052216 -7.1165338 0.57734233 -0.57735425 0.57735425 0.032452762 0.5463556
2.8586574 0.56104445 -7.1165338 -0.57734233 0.57735425 0.57735425 0.22006702 0.89352834
2.8586574 0.23052216 -7.1165338 -0.57734233 0.57735425 0.57735425 0.9759727 0.029904425
2.8586574 -0.10000014 -8.830083 -0.57734233 -0.57735425 -0.57735425 0.81623596 0.09922975
2.8586574 -0.10000014 -7.1165338 -0.57735217 -0.57735807 0.5773407 0.9759727 0.09922973
2.8586574 0.23052216 -8.830083 -0.57735217 0.57735807 -0.5773407 0.87532663 0.19166338
3.0386014 -0.10000014 -8.830083 0.57735217 -0.57735807 -0.57734066 0.92564964 0.09922966
2.8586574 -0.10000014 -8.830083 -0.57734233 -0.57735425 -0.57735425 0.87532663 0.09922966
3.0386014 0.23052216 -8.830083 0.57734233 0.57735425 -0.57735425 0.65649927 0.029904485
3.0386014 -0.10000014 -7.1165338 0.57734233 -0.57735425 0.57735425 0.81623596 0.09922975
3.0386014 -0.10000014 -8.830083 0.57735217 -0.57735807 -0.57734066 0.65649927 0.09922978
3.0386014 0.23052216 -7.1165338 0.57735217 0.57735807 0.57734066 0.9759727 0.19166341
2.8586574 -0.10000014 -7.1165338 -0.57735217 -0.57735807 0.5773407 0.92564964 0.09922973
3.0386014 -0.10000014 -7.1165338 0.57734233 -0.57735425 0.57735425 0.9759727 0.09922973
3.0386014 -0.10000014 -8.830083 0.57735217 -0.57735807 -0.57734066 0.87532663 0.3603381
2.8586574 -0.10000014 -7.1165338 -0.57735217 -0.57735807 0.5773407 0.63736564 0.41656297
2.8586574 -0.10000014 -8.830083 -0.57734233 -0.57735425 -0.57735425 0.87532663 0.41656297
2.8586574 0.23052216 -8.830083 -0.57735217 0.57735807 -0.5773407 0.87532663 0.3603381
3.0386014 0.23052216 -7.1165338 0.57735217 0.57735807 0.57734066 0.6373657 0.30411318
3.0386014 0.23052216 -8.830083 0.57734233 0.57735425 -0.57735425 0.87532663 0.30411318
5.8659263 0.23052216 -7.1165338 -0.57734233 0.57735425 0.57735425 0.63572156 0.1916634
5.8659263 -0.10000014 -8.830083 -0.57734233 -0.57735425 -0.57735425 0.87532663 0.14544654
5.8659263 -0.10000014 -7.1165338 -0.57735217 -0.57735807 0.57734066 0.63572156 0.14544654
5.8659263 0.23052216 -8.830083 -0.57735217 0.57735807 -0.57734066 0.87532663 0.28409714
6.0458703 -0.10000014 -8.830083 0.57735217 -0.57735807 -0.5773407 0.9256497 0.1916634
5.8659263 -0.10000014 -8.830083 -0.57734233 -0.57735425 -0.57735425 0.87532663 0.1916634
6.0458703 0.23052216 -8.830083 0.57734233 0.57735425 -0.57735425 0.87532663 0.14544654
6.0458703 -0.10000014 -7.1165338 0.57734233 -0.57735425 0.57735425 0.6357215 0.09922966
6.0458703 -0.10000014 -8.830083 0.57735217 -0.57735807 -0.5773407 0.87532663 0.09922966
6.0458703 0.23052216 -7.1165338 0.57735217 0.57735807 0.5773407 0.9759727 0.28409714
5.8659263 -0.10000014 -7.1165338 -0.57735217 -0.57735807 0.57734066 0.92564964 0.19166341
6.0458703 -0.10000014 -7.1165338 0.57734233 -0.57735425 0.57735425 0.9759727 0.19166341
6.0458703 -0.10000014 -8.830083 0.57735217 -0.57735807 -0.5773407 0.87532663 0.19166338
5.8659263 -0.10000014 -7.1165338 -0.57735217 -0.57735807 0.57734066 0.6373657 0.24788839
5.8659263 -0.10000014 -8.830083 -0.57734233 -0.57735425 -0.57735425 0.87532663 0.24788839
5.8659263 0.23052216 -8.830083 -0.57735217 0.57735807 -0.57734066 0.87532663 0.30411318
6.0458703 0.23052216 -7.1165338 0.57735217 0.57735807 0.5773407 0.6373657 0.24788839
6.0458703 0.23052216 -8.830083 0.57734233 0.57735425 -0.57735425 0.87532663 0.24788839
2.8586574 0.23052216 -8.830083 -0.57735217 0.57735807 -0.5773407 0.81623596 0.029904455
3.0386014 0.23052216 -8.830083 0.57734233 0.57735425 -0.57735425 0.92564964 0.19166338
3.0386014 0.23052216 -7.1165338 0.57735217 0.57735807 0.57734066 0.81623596 0.029904455
2.8586574 0.23052216 -7.1165338 -0.57734233 0.57735425 0.57735425 0.92564964 0.19166341
3.0386014 -0.10000014 -7.1165338 0.57734233 -0.57735425 0.57735425 0.63736564 0.3603381
2.8586574 0.23052216 -7.1165338 -0.57734233 0.57735425 0.57735425 0.6373657 0.3603381
5.8659263 0.23052216 -8.830083 -0.57735217 0.57735807 -0.57734066 0.87532663 0.1916634
6.0458703 0.23052216 -8.830083 0.57734233 0.57735425 -0.57735425 0.9256497 0.28409714
6.0458703 0.23052216 -7.1165338 0.57735217 0.57735807 0.5773407 0.6357215 0.14544654
5.8659263 0.23052216 -7.1165338 -0.57734233 0.57735425 0.57735425 0.92564964 0.28409714
6.0458703 -0.10000014 -7.1165338 0.57734233 -0.57735425 0.57735425 0.6373657 0.19166338
5.8659263 0.23052216 -7.1165338 -0.57734233 0.57735425 0.57735425 0.6373657 0.30411318
3 0 1 2
3 3 4 5
3 6 7 8
3 9 10 11
3 12 13 14
3 15 16 17
3 0 18 1
3 3 19 4
3 6 20 7
3 9 21 10
3 12 22 13
3 15 23 16
3 24 25 26
3 27 28 29
3 30 31 32
3 33 34 35
3 36 37 38
3 39 40 41
3 42 43 44
3 45 46 47
3 48 49 50
3 51 52 53
3 54 55 56
3 57 58 59
3 24 60 25
3 27 61 28
3 30 62 31
3 33 63 34
3 36 64 37
3 39 65 40
3 42 66 43
3 45 67 46
3 48 68 49
3 51 69 52
3 54 70 55
3 57 71 58
