ply
format ascii 1.0
comment Created in Blender version 4.4.1
element vertex 219
property float x
property float y
property float z
property float nx
property float ny
property float nz
property float s
property float t
element face 352
property list uchar uint vertex_indices
end_header
-1.9691093e-08 0.38676494 -0.42496392 1.1050795e-06 0.057360154 -0.99835366 0.25 0.5
-1.9691093e-08 0.49675375 -0.41048363 -1.1404898e-06 0.25485635 -0.96697897 0.25 0.41666666
0.15708528 0.49675375 -0.3792374 0.37004608 0.25485605 -0.8933725 0.3125 0.41666663
0.16262665 0.38676494 -0.39261547 0.38205433 0.05735998 -0.92235804 0.3125 0.5
1.702826e-07 0.68725985 -0.3004948 -1.2734353e-06 0.69906765 -0.7150555 0.25000012 0.25
-1.9691093e-08 0.75479454 -0.21248195 -2.2863176e-06 0.85897195 -0.51202285 0.25000003 0.16666675
0.08131332 0.75479454 -0.19630772 0.19594021 0.858972 -0.47304812 0.31249997 0.16666675
0.11499439 0.68725985 -0.27762103 0.2736384 0.6990678 -0.66062576 0.3125 0.25
-1.9691093e-08 -0.83119255 -0.21248195 2.8621396e-06 -0.8589719 -0.51202273 0.25000003 0.8333334
1.702826e-07 -0.76365787 -0.3004948 1.67062e-06 -0.6990677 -0.7150555 0.25000012 0.7500001
0.11499439 -0.76365787 -0.27762103 0.27364126 -0.6990676 -0.6606247 0.3125 0.75
0.08131332 -0.83119255 -0.19630772 0.19594482 -0.85897213 -0.47304627 0.31250003 0.8333334
-1.9691093e-08 -0.57315177 -0.41048363 -1.4139215e-06 -0.19801012 -0.98020005 0.25 0.5833333
0.15708528 -0.57315177 -0.3792374 0.37510547 -0.19801016 -0.90558714 0.3125 0.5833333
-1.9691093e-08 0.5992469 -0.36802953 -1.0758131e-06 0.49309915 -0.86997324 0.25 0.33333337
0.1408388 0.5992469 -0.34001496 0.33292365 0.49309894 -0.8037509 0.3125 0.33333337
-1.9691093e-08 -0.87364656 -0.10998874 5.197519e-07 -0.96175665 -0.27390558 0.25000003 0.91666675
0.042090863 -0.87364656 -0.10161633 0.10481893 -0.96175677 -0.2530555 0.31250003 0.91666675
-1.9691093e-08 0.79724854 -0.10998874 -1.09484795e-07 0.96175665 -0.27390558 0.25000003 0.083333254
-1.9691093e-08 0.8117289 3.0168106e-08 0.025954759 0.99111086 -0.13048275 0.28124994 0
0.042090863 0.79724854 -0.10161633 0.10481918 0.9617566 -0.2530559 0.31249997 0.083333254
-1.9691093e-08 -0.67564493 -0.36802953 5.6744824e-07 -0.49309903 -0.8699732 0.25 0.6666667
0.1408388 -0.67564493 -0.34001496 0.33292505 -0.49309888 -0.8037502 0.3125 0.6666667
-1.9691093e-08 -0.8881269 3.0168106e-08 0.02595356 -0.99111086 -0.13048275 0.28125006 1
0.15024742 -0.83119255 -0.15024741 0.36205655 -0.85897213 -0.36205265 0.37500003 0.8333333
0.07777379 -0.87364656 -0.07777376 0.19368117 -0.9617565 -0.19368006 0.37500003 0.9166667
-1.9691093e-08 0.8117289 3.0168106e-08 0.07391173 0.99111086 -0.11061793 0.34374994 0
0.07777379 0.79724854 -0.07777376 0.19368044 0.9617566 -0.19368078 0.37499997 0.083333254
0.29025576 -0.57315177 -0.2902557 0.6931054 -0.19801009 -0.6931068 0.375 0.5833333
0.2602362 -0.67564493 -0.26023617 0.6151647 -0.4930989 -0.6151633 0.375 0.6666667
0.2602362 0.5992469 -0.26023617 0.6151636 0.49309886 -0.61516446 0.375 0.33333337
0.29025576 0.49675375 -0.2902557 0.6837569 0.25485602 -0.68375796 0.375 0.41666663
-1.9691093e-08 -0.8881269 3.0168106e-08 0.07391252 -0.99111086 -0.11061793 0.34375006 1
0.15024742 0.75479454 -0.15024741 0.36205247 0.8589722 -0.36205664 0.37499997 0.16666669
0.21248195 -0.76365787 -0.21248193 0.5056218 -0.69906765 -0.50561947 0.37500003 0.75
0.30049488 0.38676494 -0.30049485 0.7059433 0.057360116 -0.70594186 0.375 0.5
0.21248195 0.68725985 -0.21248193 0.5056193 0.69906783 -0.5056217 0.37500003 0.24999994
0.19630773 0.75479454 -0.081313275 0.4730464 0.85897195 -0.19594505 0.43749997 0.16666669
0.27762103 0.68725985 -0.114994355 0.66062474 0.69906765 -0.27364105 0.43749997 0.24999994
0.27762103 -0.76365787 -0.114994355 0.66062576 -0.69906765 -0.27363852 0.43750003 0.75
0.19630773 -0.83119255 -0.081313275 0.47304836 -0.85897195 -0.19593997 0.43750003 0.8333333
0.3926155 0.38676494 -0.16262658 0.9223589 0.057360094 -0.38205236 0.4375 0.5
0.3792374 -0.57315177 -0.15708521 0.9055864 -0.19801013 -0.37510714 0.4375 0.5833333
0.34001496 0.5992469 -0.14083876 0.8037504 0.4930988 -0.33292487 0.4375 0.33333325
0.10161635 -0.87364656 -0.04209083 0.2530559 -0.96175665 -0.10481869 0.43750003 0.9166667
-1.9691093e-08 0.8117289 3.0168106e-08 0.11061715 0.99111086 -0.073912516 0.40624994 0
0.10161635 0.79724854 -0.04209083 0.25305563 0.9617566 -0.10481941 0.43749997 0.083333254
0.34001496 -0.67564493 -0.14083876 0.80375093 -0.4930988 -0.33292338 0.4375 0.6666667
0.3792374 0.49675375 -0.15708521 0.8933719 0.25485608 -0.37004754 0.4375 0.41666663
-1.9691093e-08 -0.8881269 3.0168106e-08 0.11061952 -0.9911106 -0.0739125 0.40625006 1
-1.9691093e-08 -0.8881269 3.0168106e-08 0.13048202 -0.9911109 -0.025954613 0.46875003 1
0.10998874 -0.87364656 4.5999247e-08 0.27390483 -0.9617568 4.6019701e-07 0.50000006 0.9166667
0.10998874 0.79724854 4.5999247e-08 0.27390605 0.9617565 -3.8259523e-07 0.49999997 0.083333254
0.21248195 0.75479454 6.1830384e-08 0.5120227 0.858972 -2.778494e-06 0.5 0.16666669
0.36802953 -0.67564493 8.082775e-08 0.86997324 -0.493099 9.625696e-07 0.50000006 0.6666667
0.30049485 -0.76365787 6.816284e-08 0.7150555 -0.6990677 1.5276336e-06 0.50000006 0.75
0.41048357 0.49675375 9.3492666e-08 0.966979 0.2548561 -6.036431e-07 0.5 0.41666663
0.42496392 0.38676494 9.3492666e-08 0.99835366 0.05736021 1.1350457e-06 0.5 0.5
0.30049485 0.68725985 6.816284e-08 0.7150556 0.69906765 -1.2819901e-06 0.5 0.24999994
0.21248195 -0.83119255 6.1830384e-08 0.51202255 -0.85897213 2.9057815e-06 0.50000006 0.8333333
0.41048357 -0.57315177 9.3492666e-08 0.98020005 -0.19801012 -7.7992104e-07 0.50000006 0.5833334
0.36802953 0.5992469 8.082775e-08 0.86997336 0.49309874 -5.2190467e-07 0.5 0.33333325
-1.9691093e-08 0.8117289 3.0168106e-08 0.13048267 0.99111086 -0.025954613 0.46874994 0
0.277621 0.68725985 0.11499448 0.6606257 0.6990676 0.27363887 0.5625 0.24999994
0.3400149 0.5992469 0.14083889 0.8037508 0.4930989 0.3329239 0.5625 0.33333325
0.1963077 -0.83119255 0.0813134 0.47304606 -0.85897213 0.19594523 0.56250006 0.8333333
0.10161634 -0.87364656 0.04209093 0.25305536 -0.96175665 0.10481957 0.56250006 0.9166667
-1.9691093e-08 0.8117289 3.0168106e-08 0.13048354 0.9911107 0.02595465 0.53125 0
0.10161634 0.79724854 0.04209093 0.25305602 0.9617566 0.10481877 0.5625 0.083333254
0.37923732 -0.57315177 0.15708537 0.9055871 -0.19801018 0.3751056 0.56250006 0.5833334
0.3400149 -0.67564493 0.14083889 0.80375016 -0.49309894 0.33292544 0.56250006 0.6666667
0.37923732 0.49675375 0.15708537 0.89337236 0.2548562 0.37004626 0.5625 0.41666663
-1.9691093e-08 -0.8881269 3.0168106e-08 0.13048199 -0.9911109 0.025954653 0.53125006 1
0.1963077 0.75479454 0.0813134 0.47304815 0.858972 0.1959402 0.5625 0.16666669
0.277621 -0.76365787 0.11499448 0.6606248 -0.69906753 0.27364138 0.56250006 0.75
0.39261544 0.38676494 0.16262676 0.9223581 0.05736025 0.38205442 0.5625 0.5
0.15024738 0.75479454 0.1502475 0.36205664 0.85897195 0.36205277 0.625 0.16666669
0.21248187 0.68725985 0.21248202 0.50562155 0.69906765 0.50561976 0.62500006 0.24999994
0.21248187 -0.76365787 0.21248202 0.50561947 -0.6990677 0.5056217 0.62500006 0.75
0.15024738 -0.83119255 0.1502475 0.36205247 -0.8589721 0.36205676 0.6250001 0.8333333
0.3004948 0.38676494 0.300495 0.7059417 0.057360325 0.7059435 0.62500006 0.5
0.29025564 -0.57315177 0.2902558 0.69310665 -0.19801012 0.69310546 0.625 0.5833334
0.26023608 0.5992469 0.26023626 0.6151645 0.49309894 0.61516356 0.62500006 0.33333325
0.07777376 -0.87364656 0.07777385 0.19368061 -0.9617565 0.19368082 0.6250001 0.9166667
-1.9691093e-08 0.8117289 3.0168106e-08 0.11061717 0.99111086 0.073912576 0.59375 0
0.07777376 0.79724854 0.07777385 0.19368096 0.9617565 0.19368027 0.625 0.083333254
0.26023608 -0.67564493 0.26023626 0.6151634 -0.4930988 0.6151647 0.62500006 0.6666667
0.29025564 0.49675375 0.2902558 0.68375784 0.25485635 0.6837569 0.625 0.41666663
-1.9691093e-08 -0.8881269 3.0168106e-08 0.11061717 -0.99111086 0.073912576 0.59375006 1
0.1408387 0.5992469 0.34001502 0.33292478 0.49309865 0.80375046 0.6875 0.33333325
0.15708515 0.49675375 0.3792374 0.37004733 0.25485617 0.89337194 0.6875 0.41666663
-1.9691093e-08 -0.8881269 3.0168106e-08 0.073914915 -0.9911107 0.11061793 0.65625006 1
0.04209083 -0.87364656 0.101616405 0.104818806 -0.9617566 0.25305593 0.68750006 0.9166666
0.04209083 0.79724854 0.101616405 0.10481905 0.96175665 0.25305563 0.6875 0.083333254
0.081313245 0.75479454 0.1963078 0.19594498 0.858972 0.4730462 0.6875 0.16666663
0.1408387 -0.67564493 0.34001502 0.33292353 -0.49309868 0.803751 0.68750006 0.6666667
0.114994295 -0.76365787 0.2776211 0.27363843 -0.6990676 0.6606259 0.68750006 0.75
0.1626265 0.38676494 0.39261556 0.3820521 0.057360366 0.922359 0.68750006 0.49999997
0.114994295 0.68725985 0.2776211 0.27364096 0.69906765 0.66062474 0.6875 0.24999988
0.081313245 -0.83119255 0.1963078 0.19594009 -0.85897183 0.4730484 0.6875001 0.83333325
0.15708515 -0.57315177 0.3792374 0.37510717 -0.19800998 0.9055865 0.6875 0.5833334
-1.9691093e-08 0.8117289 3.0168106e-08 0.073914915 0.9911107 0.11061793 0.65625 0
-1.1467794e-07 0.68725985 0.30049485 1.1194497e-06 0.6990675 0.7150557 0.75 0.24999988
-1.2101039e-07 0.5992469 0.36802953 3.8404306e-07 0.4930988 0.86997336 0.75 0.33333325
-9.568057e-08 -0.83119255 0.212482 -2.5554386e-06 -0.8589719 0.51202273 0.7500001 0.83333325
-4.8187147e-08 -0.87364656 0.10998878 -1.0515352e-06 -0.96175665 0.27390552 0.7500001 0.9166666
-1.9691093e-08 0.8117289 3.0168106e-08 0.02595157 0.9911109 0.13048276 0.71875 0
-4.8187147e-08 0.79724854 0.10998878 5.630645e-07 0.9617566 0.27390555 0.75 0.083333254
-1.0834548e-07 -0.57315177 0.41048357 8.503655e-07 -0.19801013 0.98020005 0.75 0.5833334
-1.2101039e-07 -0.67564493 0.36802953 -9.94573e-07 -0.493099 0.86997324 0.75 0.6666667
-1.0834548e-07 0.49675375 0.41048357 7.3971006e-07 0.2548566 0.96697885 0.75 0.4166666
-1.9691093e-08 -0.8881269 3.0168106e-08 0.025954757 -0.99111086 0.13048275 0.71875006 1
-9.568057e-08 0.75479454 0.212482 1.9978002e-06 0.858972 0.5120227 0.75 0.16666663
-1.1467794e-07 -0.76365787 0.30049485 -1.4970806e-06 -0.69906753 0.71505564 0.7500001 0.75
-1.7167004e-07 0.38676494 0.424964 -1.3062811e-06 0.057360552 0.99835354 0.75000006 0.49999997
-0.15708537 0.49675375 0.37923732 -0.37004626 0.25485647 0.8933723 0.8125 0.4166666
-0.16262683 0.38676494 0.39261547 -0.38205484 0.05736035 0.9223579 0.8125 0.49999997
-0.081313424 0.75479454 0.19630775 -0.19594078 0.85897183 0.4730482 0.8125 0.16666663
-0.11499452 0.68725985 0.277621 -0.2736389 0.69906765 0.66062564 0.8125 0.24999988
-0.11499452 -0.76365787 0.277621 -0.27364156 -0.6990675 0.6606247 0.8125001 0.75
-0.081313424 -0.83119255 0.19630775 -0.19594489 -0.858972 0.47304618 0.8125001 0.83333325
-0.15708537 -0.57315177 0.37923732 -0.3751056 -0.19801013 0.9055871 0.8125 0.5833334
-0.14083892 0.5992469 0.3400149 -0.33292395 0.4930989 0.8037507 0.8125 0.33333322
-0.04209092 -0.87364656 0.10161637 -0.10481948 -0.9617567 0.25305545 0.8125001 0.9166666
-1.9691093e-08 0.8117289 3.0168106e-08 -0.025951575 0.99111086 0.13048275 0.78125 0
-0.04209092 0.79724854 0.10161637 -0.10481882 0.9617566 0.2530559 0.8125 0.083333254
-0.14083892 -0.67564493 0.3400149 -0.33292526 -0.49309906 0.80375016 0.8125 0.6666666
-1.9691093e-08 -0.8881269 3.0168106e-08 -0.025956754 -0.99111074 0.13048272 0.7812501 1
-0.26023626 0.5992469 0.2602361 -0.61516356 0.49309883 0.6151646 0.875 0.33333322
-0.2902558 0.49675375 0.29025564 -0.683757 0.25485623 0.68375784 0.875 0.4166666
-1.9691093e-08 -0.8881269 3.0168106e-08 -0.07391254 -0.99111086 0.110617936 0.8437501 1
-0.07777383 -0.87364656 0.077773795 -0.19368042 -0.96175677 0.19368012 0.8750001 0.9166666
-0.07777383 0.79724854 0.077773795 -0.19367994 0.96175665 0.1936807 0.875 0.083333254
-0.15024753 0.75479454 0.15024741 -0.36205283 0.858972 0.3620565 0.875 0.16666663
-0.26023626 -0.67564493 0.2602361 -0.6151647 -0.49309877 0.61516345 0.875 0.6666666
-0.21248205 -0.76365787 0.21248187 -0.5056219 -0.69906753 0.50561947 0.8750001 0.75
-0.30049503 0.38676494 0.3004948 -0.7059436 0.057360254 0.70594156 0.87500006 0.49999997
-0.21248205 0.68725985 0.21248187 -0.5056196 0.6990677 0.5056216 0.875 0.24999988
-0.15024753 -0.83119255 0.15024741 -0.36205652 -0.8589721 0.36205256 0.8750001 0.83333325
-0.2902558 -0.57315177 0.29025564 -0.6931056 -0.19801003 0.69310665 0.875 0.5833334
-1.9691093e-08 0.8117289 3.0168106e-08 -0.07391491 0.9911106 0.1106179 0.84375 0
-0.3926156 0.38676494 0.16262649 -0.922359 0.057360366 0.3820521 0.93750006 0.49999997
-0.3792374 -0.57315177 0.15708515 -0.9055865 -0.19801007 0.3751068 0.93750006 0.5833333
-0.2776211 0.68725985 0.114994295 -0.66062504 0.6990674 0.2736408 0.9375 0.24999988
-0.340015 0.5992469 0.14083871 -0.80375063 0.49309856 0.33292463 0.93750006 0.3333332
-0.19630781 -0.83119255 0.08131327 -0.4730484 -0.85897195 0.19593987 0.9375001 0.83333325
-0.101616375 -0.87364656 0.042090867 -0.25305584 -0.9617567 0.10481857 0.9375001 0.9166666
-1.9691093e-08 0.8117289 3.0168106e-08 -0.110615656 0.99111104 0.0739125 0.90625 0
-0.101616375 0.79724854 0.042090867 -0.25305545 0.9617567 0.1048195 0.9375 0.083333254
-0.340015 -0.67564493 0.14083871 -0.8037511 -0.4930988 0.33292338 0.93750006 0.6666666
-0.3792374 0.49675375 0.15708515 -0.8933719 0.25485623 0.3700474 0.93750006 0.4166666
-1.9691093e-08 -0.8881269 3.0168106e-08 -0.110618025 -0.99111086 0.07391249 0.9062501 1
-0.19630781 0.75479454 0.08131327 -0.47304648 0.8589719 0.19594477 0.9375 0.16666663
-0.2776211 -0.76365787 0.114994295 -0.660626 -0.6990676 0.27363834 0.9375001 0.74999994
-0.41048354 0.49675375 -1.0914593e-07 -0.94957376 0.2502673 0.18888134 1 0.41666657
-0.42496395 0.38676494 -1.851354e-07 -0.97923195 0.05626183 0.1947806 1 0.49999997
-0.21248198 0.75479454 -7.7483655e-08 -0.5093874 0.85455143 0.101323105 1 0.16666663
-0.30049485 0.68725985 -1.0914593e-07 -0.70793194 0.6921005 0.14081627 1 0.24999988
-0.30049485 -0.76365787 -1.0914593e-07 -0.7079291 -0.6921036 0.14081551 1 0.75
-0.21248198 -0.83119255 -7.7483655e-08 -0.5093874 -0.85455155 0.10132318 1 0.83333325
-0.41048354 -0.57315177 -1.0914593e-07 -0.962084 -0.19435047 0.19136986 1 0.5833333
-0.36802953 0.5992469 -8.381611e-08 -0.85723394 0.48587564 0.17051415 1 0.3333332
-0.109988764 -0.87364656 -1.0992861e-08 -0.27349895 -0.96033263 0.05440223 1 0.9166666
-1.9691093e-08 0.8117289 3.0168106e-08 -0.13048343 0.9911107 0.025954613 0.96875 0
-0.109988764 0.79724854 -1.0992861e-08 -0.27350125 0.960332 0.054402545 1 0.083333254
-0.36802953 -0.67564493 -8.381611e-08 -0.85723186 -0.48587927 0.1705136 1 0.6666666
-1.9691093e-08 -0.8881269 3.0168106e-08 -0.13048361 -0.9911107 0.025954613 0.9687501 1
-0.36802953 -0.67564493 -8.381611e-08 -0.857234 -0.48587522 -0.17051472 0 0.66666675
-0.41048354 -0.57315177 -1.0914593e-07 -0.9620839 -0.19435035 -0.19137053 0 0.58333343
-0.3792373 -0.57315177 -0.15708536 -0.90558714 -0.19801016 -0.37510547 0.06250006 0.58333343
-0.34001487 -0.67564493 -0.14083888 -0.80375016 -0.49309897 -0.33292538 0.06250006 0.66666675
-0.41048354 0.49675375 -1.0914593e-07 -0.9495727 0.25027025 -0.18888208 0 0.4166667
-0.36802953 0.5992469 -8.381611e-08 -0.85723156 0.48587963 -0.17051458 0 0.3333333
-0.34001487 0.5992469 -0.14083888 -0.80375075 0.49309877 -0.33292407 0.06250006 0.3333333
-0.3792373 0.49675375 -0.15708536 -0.8933723 0.25485626 -0.37004635 0.06250006 0.41666666
-1.9691093e-08 -0.8881269 3.0168106e-08 -0.13048205 -0.9911109 -0.025954718 0.03125012 1
-0.109988764 -0.87364656 -1.0992861e-08 -0.27349985 -0.96033233 -0.054402687 0 0.91666675
-0.101616345 -0.87364656 -0.042090878 -0.25305495 -0.9617568 -0.104819566 0.06250012 0.91666675
-0.21248198 0.75479454 -7.7483655e-08 -0.50938773 0.8545512 -0.101323515 0 0.16666675
-0.109988764 0.79724854 -1.0992861e-08 -0.27349886 0.96033263 -0.054402485 0 0.083333254
-0.101616345 0.79724854 -0.042090878 -0.25305545 0.9617567 -0.10481889 0.0625 0.083333254
-0.19630772 0.75479454 -0.0813134 -0.4730482 0.858972 -0.19594029 0.06250012 0.16666675
-0.30049485 -0.76365787 -1.0914593e-07 -0.70793253 -0.69209987 -0.14081687 0 0.7500001
-0.27762097 -0.76365787 -0.114994496 -0.66062456 -0.6990676 -0.27364168 0.06250012 0.7500001
-0.42496395 0.38676494 -1.851354e-07 -0.9792318 0.056261647 -0.19478184 0 0.50000006
-0.3926154 0.38676494 -0.16262683 -0.9223579 0.05736031 -0.38205487 0.06250012 0.50000006
-0.30049485 0.68725985 -1.0914593e-07 -0.70792884 0.6921038 -0.14081626 0 0.25
-0.27762097 0.68725985 -0.114994496 -0.6606257 0.6990675 -0.27363917 0.06250012 0.25
-0.21248198 -0.83119255 -7.7483655e-08 -0.50938743 -0.85455143 -0.10132375 0 0.8333334
-0.19630772 -0.83119255 -0.0813134 -0.47304615 -0.858972 -0.19594534 0.06250012 0.8333334
-1.9691093e-08 0.8117289 3.0168106e-08 -0.13048206 0.99111086 -0.02595472 0.03125012 0
-0.30049473 0.38676494 -0.300495 -0.7059415 0.057360463 -0.70594364 0.12500012 0.50000006
-0.29025558 -0.57315177 -0.29025576 -0.69310653 -0.19801001 -0.6931057 0.12500012 0.5833334
-0.21248183 0.68725985 -0.212482 -0.5056215 0.6990675 -0.50562 0.12500012 0.25
-0.26023605 0.5992469 -0.26023623 -0.6151643 0.4930988 -0.6151638 0.12500012 0.33333328
-0.15024738 -0.83119255 -0.1502475 -0.36205247 -0.858972 -0.3620569 0.12500012 0.8333334
-0.077773765 -0.87364656 -0.07777378 -0.1936798 -0.96175665 -0.19368085 0.12500012 0.91666675
-1.9691093e-08 0.8117289 3.0168106e-08 -0.11061723 0.9911109 -0.07391261 0.09375 0
-0.077773765 0.79724854 -0.07777378 -0.19368057 0.96175665 -0.19368017 0.12500012 0.083333254
-0.26023605 -0.67564493 -0.26023623 -0.61516327 -0.49309865 -0.6151649 0.12500012 0.66666675
-0.29025558 0.49675375 -0.29025576 -0.6837577 0.25485617 -0.68375707 0.12500012 0.41666666
-1.9691093e-08 -0.8881269 3.0168106e-08 -0.11061643 -0.99111104 -0.07391261 0.09375012 1
-0.15024738 0.75479454 -0.1502475 -0.36205634 0.858972 -0.36205298 0.12500012 0.16666675
-0.21248183 -0.76365787 -0.212482 -0.50561947 -0.6990675 -0.50562197 0.12500012 0.7500001
-0.14083867 -0.67564493 -0.34001493 -0.33292377 -0.49309886 -0.8037508 0.18750006 0.66666675
-0.11499424 -0.76365787 -0.27762103 -0.27363837 -0.69906765 -0.6606258 0.18750012 0.7500001
-0.1570851 0.49675375 -0.37923732 -0.37004775 0.25485638 -0.8933717 0.18750006 0.41666666
-0.16262646 0.38676494 -0.39261556 -0.38205218 0.05736054 -0.922359 0.18750012 0.5
-0.08131324 0.75479454 -0.19630776 -0.1959449 0.85897195 -0.47304642 0.18750012 0.16666675
-0.11499424 0.68725985 -0.27762103 -0.27364084 0.6990676 -0.6606249 0.18750012 0.25
-0.08131324 -0.83119255 -0.19630776 -0.19593988 -0.85897195 -0.4730484 0.18750012 0.8333334
-0.1570851 -0.57315177 -0.37923732 -0.37510744 -0.19800998 -0.9055863 0.18750006 0.5833334
-0.14083867 0.5992469 -0.34001493 -0.33292496 0.49309874 -0.8037504 0.18750006 0.33333328
-0.04209084 -0.87364656 -0.10161632 -0.10481853 -0.9617567 -0.25305587 0.18750012 0.91666675
-1.9691093e-08 0.8117289 3.0168106e-08 -0.073911764 0.99111086 -0.11061798 0.15625 0
-0.04209084 0.79724854 -0.10161632 -0.104819804 0.9617567 -0.25305545 0.1875 0.083333254
-1.9691093e-08 -0.8881269 3.0168106e-08 -0.07391415 -0.9911107 -0.110617965 0.15625012 1
-1.9691093e-08 0.8117289 3.0168106e-08 -0.025954789 0.99111086 -0.1304827 0.21875 0
-1.9691093e-08 -0.8881269 3.0168106e-08 -0.02595399 -0.99111086 -0.1304827 0.21875012 1
3 0 1 2
3 0 2 3
3 4 5 6
3 4 6 7
3 8 9 10
3 8 10 11
3 12 0 3
3 12 3 13
3 14 4 7
3 14 7 15
3 16 8 11
3 16 11 17
3 18 19 20
3 21 12 13
3 21 13 22
3 1 14 15
3 1 15 2
3 23 16 17
3 5 18 20
3 5 20 6
3 9 21 22
3 9 22 10
3 17 11 24
3 17 24 25
3 20 26 27
3 22 13 28
3 22 28 29
3 2 15 30
3 2 30 31
3 32 17 25
3 6 20 27
3 6 27 33
3 10 22 29
3 10 29 34
3 3 2 31
3 3 31 35
3 7 6 33
3 7 33 36
3 11 10 34
3 11 34 24
3 13 3 35
3 13 35 28
3 15 7 36
3 15 36 30
3 36 33 37
3 36 37 38
3 24 34 39
3 24 39 40
3 28 35 41
3 28 41 42
3 30 36 38
3 30 38 43
3 25 24 40
3 25 40 44
3 27 45 46
3 29 28 42
3 29 42 47
3 31 30 43
3 31 43 48
3 49 25 44
3 33 27 46
3 33 46 37
3 34 29 47
3 34 47 39
3 35 31 48
3 35 48 41
3 50 44 51
3 37 46 52
3 37 52 53
3 39 47 54
3 39 54 55
3 41 48 56
3 41 56 57
3 38 37 53
3 38 53 58
3 40 39 55
3 40 55 59
3 42 41 57
3 42 57 60
3 43 38 58
3 43 58 61
3 44 40 59
3 44 59 51
3 46 62 52
3 47 42 60
3 47 60 54
3 48 43 61
3 48 61 56
3 61 58 63
3 61 63 64
3 51 59 65
3 51 65 66
3 52 67 68
3 54 60 69
3 54 69 70
3 56 61 64
3 56 64 71
3 72 51 66
3 53 52 68
3 53 68 73
3 55 54 70
3 55 70 74
3 57 56 71
3 57 71 75
3 58 53 73
3 58 73 63
3 59 55 74
3 59 74 65
3 60 57 75
3 60 75 69
3 63 73 76
3 63 76 77
3 65 74 78
3 65 78 79
3 69 75 80
3 69 80 81
3 64 63 77
3 64 77 82
3 66 65 79
3 66 79 83
3 68 84 85
3 70 69 81
3 70 81 86
3 71 64 82
3 71 82 87
3 88 66 83
3 73 68 85
3 73 85 76
3 74 70 86
3 74 86 78
3 75 71 87
3 75 87 80
3 87 82 89
3 87 89 90
3 91 83 92
3 76 85 93
3 76 93 94
3 78 86 95
3 78 95 96
3 80 87 90
3 80 90 97
3 77 76 94
3 77 94 98
3 79 78 96
3 79 96 99
3 81 80 97
3 81 97 100
3 82 77 98
3 82 98 89
3 83 79 99
3 83 99 92
3 85 101 93
3 86 81 100
3 86 100 95
3 89 98 102
3 89 102 103
3 92 99 104
3 92 104 105
3 93 106 107
3 95 100 108
3 95 108 109
3 90 89 103
3 90 103 110
3 111 92 105
3 94 93 107
3 94 107 112
3 96 95 109
3 96 109 113
3 97 90 110
3 97 110 114
3 98 94 112
3 98 112 102
3 99 96 113
3 99 113 104
3 100 97 114
3 100 114 108
3 114 110 115
3 114 115 116
3 102 112 117
3 102 117 118
3 104 113 119
3 104 119 120
3 108 114 116
3 108 116 121
3 103 102 118
3 103 118 122
3 105 104 120
3 105 120 123
3 107 124 125
3 109 108 121
3 109 121 126
3 110 103 122
3 110 122 115
3 127 105 123
3 112 107 125
3 112 125 117
3 113 109 126
3 113 126 119
3 115 122 128
3 115 128 129
3 130 123 131
3 117 125 132
3 117 132 133
3 119 126 134
3 119 134 135
3 116 115 129
3 116 129 136
3 118 117 133
3 118 133 137
3 120 119 135
3 120 135 138
3 121 116 136
3 121 136 139
3 122 118 137
3 122 137 128
3 123 120 138
3 123 138 131
3 125 140 132
3 126 121 139
3 126 139 134
3 139 136 141
3 139 141 142
3 128 137 143
3 128 143 144
3 131 138 145
3 131 145 146
3 132 147 148
3 134 139 142
3 134 142 149
3 129 128 144
3 129 144 150
3 151 131 146
3 133 132 148
3 133 148 152
3 135 134 149
3 135 149 153
3 136 129 150
3 136 150 141
3 137 133 152
3 137 152 143
3 138 135 153
3 138 153 145
3 141 150 154
3 141 154 155
3 143 152 156
3 143 156 157
3 145 153 158
3 145 158 159
3 142 141 155
3 142 155 160
3 144 143 157
3 144 157 161
3 146 145 159
3 146 159 162
3 148 163 164
3 149 142 160
3 149 160 165
3 150 144 161
3 150 161 154
3 166 146 162
3 152 148 164
3 152 164 156
3 153 149 165
3 153 165 158
3 167 168 169
3 167 169 170
3 171 172 173
3 171 173 174
3 175 176 177
3 178 179 180
3 178 180 181
3 182 167 170
3 182 170 183
3 184 171 174
3 184 174 185
3 186 178 181
3 186 181 187
3 188 182 183
3 188 183 189
3 168 184 185
3 168 185 169
3 172 186 187
3 172 187 173
3 176 188 189
3 176 189 177
3 179 190 180
3 169 185 191
3 169 191 192
3 173 187 193
3 173 193 194
3 177 189 195
3 177 195 196
3 180 197 198
3 170 169 192
3 170 192 199
3 174 173 194
3 174 194 200
3 201 177 196
3 181 180 198
3 181 198 202
3 183 170 199
3 183 199 203
3 185 174 200
3 185 200 191
3 187 181 202
3 187 202 193
3 189 183 203
3 189 203 195
3 203 199 204
3 203 204 205
3 191 200 206
3 191 206 207
3 193 202 208
3 193 208 209
3 195 203 205
3 195 205 210
3 192 191 207
3 192 207 211
3 194 193 209
3 194 209 212
3 196 195 210
3 196 210 213
3 198 214 215
3 199 192 211
3 199 211 204
3 200 194 212
3 200 212 206
3 216 196 213
3 202 198 215
3 202 215 208
3 215 217 18
3 204 211 12
3 204 12 21
3 206 212 14
3 206 14 1
3 218 213 16
3 208 215 18
3 208 18 5
3 205 204 21
3 205 21 9
3 207 206 1
3 207 1 0
3 209 208 5
3 209 5 4
3 210 205 9
3 210 9 8
3 211 207 0
3 211 0 12
3 212 209 4
3 212 4 14
3 213 210 8
3 213 8 16
