ply
format ascii 1.0
comment Created in Blender version 4.4.1
element vertex 24
property float x
property float y
property float z
property float nx
property float ny
property float nz
property float s
property float t
element face 12
property list uchar uint vertex_indices
end_header
-10 -0.3 -10 0 1 0 2.6426935 0.49999967
10 -0.3 10 0 1 0 -2.2301502 -4.372844
10 -0.3 -10 0 1 0 2.6426935 -4.372844
10 -0.3 10 0 0 -1 2.6426935 -4.372844
-10 -0.09999998 10 0 0 -1 2.691422 0.49999967
10 -0.09999998 10 0 0 -1 2.691422 -4.372844
-10 -0.3 10 1 0 0 2.6426935 0.49999967
-10 -0.09999998 -10 1 0 0 2.691422 -4.372844
-10 -0.09999998 10 1 0 0 2.691422 0.49999967
10 -0.09999998 -10 0 -1 0 2.6426935 0.49999967
-10 -0.09999998 10 0 -1 0 -2.2301502 5.372844
-10 -0.09999998 -10 0 -1 0 2.6426935 5.372844
10 -0.3 -10 -1 0 0 2.691422 -4.372844
10 -0.09999998 10 -1 0 0 2.7401505 0.49999967
10 -0.09999998 -10 -1 0 0 2.7401505 -4.372844
-10 -0.3 -10 0 0 1 2.691422 0.49999967
10 -0.09999998 -10 0 0 1 2.7401505 -4.372844
-10 -0.09999998 -10 0 0 1 2.7401505 0.49999967
-10 -0.3 10 0 1 0 -2.2301502 0.5
-10 -0.3 10 0 0 -1 2.6426935 0.49999967
-10 -0.3 -10 1 0 0 2.6426935 -4.372844
10 -0.09999998 10 0 -1 0 -2.2301502 0.5
10 -0.3 10 -1 0 0 2.691422 0.49999967
10 -0.3 -10 0 0 1 2.691422 -4.372844
3 0 1 2
3 3 4 5
3 6 7 8
3 9 10 11
3 12 13 14
3 15 16 17
3 0 18 1
3 3 19 4
3 6 20 7
3 9 21 10
3 12 22 13
3 15 23 16
