ply
format ascii 1.0
comment Created in Blender version 4.4.1
element vertex 308
property float x
property float y
property float z
property float nx
property float ny
property float nz
property float s
property float t
element face 156
property list uchar uint vertex_indices
end_header
-1.1123033 3.7506654 6.8633456 -1 0 0 0.25608858 0.7015037
-1.1123033 0.9854502 4.0981326 -1 0 0 0.1318122 0.5772272
-1.1123033 0.9854502 6.8633456 -1 0 0 0.25608858 0.5772272
-1.1123033 3.7506654 4.0981326 0 0 -1 0.25608858 0.5772272
-1.0195414 0.9854502 4.0981326 0 0 -1 0.2519196 0.45295072
-1.1123033 0.9854502 4.0981326 0 0 -1 0.25608853 0.45295072
-1.0195414 3.7506654 4.0981326 1 0 0 0.007535843 0.5772272
-1.0195414 0.9854502 6.8633456 1 0 0 0.1318122 0.7015037
-1.0195414 0.9854502 4.0981326 1 0 0 0.007535858 0.7015037
-1.0195414 3.7506654 6.8633456 0 0 1 0.2519196 0.5772272
-1.1123033 0.9854502 6.8633456 0 0 1 0.2477506 0.45295072
-1.0195414 0.9854502 6.8633456 0 0 1 0.2519196 0.45295072
-1.0195414 0.9854502 4.0981326 0 -1 0 0.2477506 0.45295084
-1.1123033 0.9854502 6.8633456 0 -1 0 0.24358161 0.5772272
-1.1123033 0.9854502 4.0981326 0 -1 0 0.24358161 0.45295084
-1.1123033 3.7506654 4.0981326 0 1 0 0.24358161 0.45295084
-1.0195414 3.7506654 6.8633456 0 1 0 0.23941262 0.5772272
-1.0195414 3.7506654 4.0981326 0 1 0 0.23941262 0.45295084
-1.1123033 3.7506654 4.0981326 -1 0 0 0.1318122 0.7015037
-1.0195414 3.7506654 4.0981326 0 0 -1 0.2519196 0.5772272
-1.0195414 3.7506654 6.8633456 1 0 0 0.1318122 0.5772272
-1.1123033 3.7506654 6.8633456 0 0 1 0.2477506 0.5772272
-1.0195414 0.9854502 6.8633456 0 -1 0 0.2477506 0.5772272
-1.1123033 3.7506654 6.8633456 0 1 0 0.24358161 0.5772272
2.8586574 0.56104445 -7.1165338 -0.57734233 0.57735425 0.57735425 0.41002208 0.76823664
2.8586574 0.23052216 -8.830083 -0.57734233 -0.57735425 -0.57735425 0.5033477 0.75023526
2.8586574 0.23052216 -7.1165338 -0.5773524 -0.5773399 0.57735854 0.41002208 0.75023526
2.8586574 0.56104445 -8.830083 -0.5773524 0.5773399 -0.5773586 0.3297367 0.78682905
6.0458703 0.23052216 -8.830083 0.5773524 -0.5773398 -0.57735854 0.50332314 0.7688277
2.8586574 0.23052216 -8.830083 -0.57734233 -0.57735425 -0.57735425 0.3297367 0.7688277
6.0458703 0.56104445 -8.830083 0.57734233 0.57735425 -0.57735425 0.40954065 0.7682366
6.0458703 0.23052216 -7.1165338 0.57734233 -0.57735425 0.57735425 0.31621498 0.75023526
6.0458703 0.23052216 -8.830083 0.5773524 -0.5773398 -0.57735854 0.40954065 0.75023526
6.0458703 0.56104445 -7.1165338 0.57735234 0.5773399 0.57735854 0.29762262 0.96100646
2.8586574 0.23052216 -7.1165338 -0.5773524 -0.5773399 0.57735854 0.31562394 0.78742003
6.0458703 0.23052216 -7.1165338 0.57734233 -0.57735425 0.57735425 0.315624 0.96100646
6.0458703 0.23052216 -8.830083 0.5773524 -0.5773398 -0.57735854 0.41002208 0.9610064
2.8586574 0.23052216 -7.1165338 -0.5773524 -0.5773399 0.57735854 0.50334775 0.78742003
2.8586574 0.23052216 -8.830083 -0.57734233 -0.57735425 -0.57735425 0.41002208 0.78742003
2.8586574 0.56104445 -8.830083 -0.5773524 0.5773399 -0.5773586 0.31621498 0.78742003
6.0458703 0.56104445 -7.1165338 0.57735234 0.5773399 0.57735854 0.40954065 0.9610064
6.0458703 0.56104445 -8.830083 0.57734233 0.57735425 -0.57735425 0.31621498 0.9610064
2.8586574 0.23052216 -7.1165338 -0.57734233 0.57735425 0.57735425 0.026183806 0.98608
2.8586574 -0.10000014 -8.830083 -0.57734233 -0.57735425 -0.57735425 0.10605218 0.9514174
2.8586574 -0.10000014 -7.1165338 -0.57735217 -0.57735807 0.5773407 0.026183806 0.9514174
2.8586574 0.23052216 -8.830083 -0.57735217 0.57735807 -0.5773407 0.076506816 0.90520054
3.0386014 -0.10000014 -8.830083 0.57735217 -0.57735807 -0.57734066 0.05134531 0.9514174
2.8586574 -0.10000014 -8.830083 -0.57734233 -0.57735425 -0.57735425 0.076506816 0.9514174
3.0386014 0.23052216 -8.830083 0.57734233 0.57735425 -0.57735425 0.18592057 0.98608
3.0386014 -0.10000014 -7.1165338 0.57734233 -0.57735425 0.57735425 0.10605218 0.9514174
3.0386014 -0.10000014 -8.830083 0.57735217 -0.57735807 -0.57734066 0.18592057 0.9514174
3.0386014 0.23052216 -7.1165338 0.57735217 0.57735807 0.57734066 0.026183806 0.90520054
2.8586574 -0.10000014 -7.1165338 -0.57735217 -0.57735807 0.5773407 0.05134531 0.9514174
3.0386014 -0.10000014 -7.1165338 0.57734233 -0.57735425 0.57735425 0.026183806 0.9514174
3.0386014 -0.10000014 -8.830083 0.57735217 -0.57735807 -0.57734066 0.076506816 0.8208632
2.8586574 -0.10000014 -7.1165338 -0.57735217 -0.57735807 0.5773407 0.19548735 0.7927508
2.8586574 -0.10000014 -8.830083 -0.57734233 -0.57735425 -0.57735425 0.076506816 0.7927508
2.8586574 0.23052216 -8.830083 -0.57735217 0.57735807 -0.5773407 0.076506816 0.8208632
3.0386014 0.23052216 -7.1165338 0.57735217 0.57735807 0.57734066 0.19548735 0.8489756
3.0386014 0.23052216 -8.830083 0.57734233 0.57735425 -0.57735425 0.076506816 0.8489756
5.8659263 0.23052216 -7.1165338 -0.57734233 0.57735425 0.57735425 0.19630942 0.90520054
5.8659263 -0.10000014 -8.830083 -0.57734233 -0.57735425 -0.57735425 0.076506816 0.9283089
5.8659263 -0.10000014 -7.1165338 -0.57735217 -0.57735807 0.57734066 0.19630942 0.9283089
5.8659263 0.23052216 -8.830083 -0.57735217 0.57735807 -0.57734066 0.076506816 0.8589837
6.0458703 -0.10000014 -8.830083 0.57735217 -0.57735807 -0.5773407 0.05134531 0.90520054
5.8659263 -0.10000014 -8.830083 -0.57734233 -0.57735425 -0.57735425 0.076506816 0.90520054
6.0458703 0.23052216 -8.830083 0.57734233 0.57735425 -0.57735425 0.076506816 0.9283089
6.0458703 -0.10000014 -7.1165338 0.57734233 -0.57735425 0.57735425 0.19630942 0.9514174
6.0458703 -0.10000014 -8.830083 0.57735217 -0.57735807 -0.5773407 0.076506816 0.9514174
6.0458703 0.23052216 -7.1165338 0.57735217 0.57735807 0.5773407 0.026183806 0.8589837
5.8659263 -0.10000014 -7.1165338 -0.57735217 -0.57735807 0.57734066 0.05134531 0.90520054
6.0458703 -0.10000014 -7.1165338 0.57734233 -0.57735425 0.57735425 0.026183806 0.90520054
6.0458703 -0.10000014 -8.830083 0.57735217 -0.57735807 -0.5773407 0.076506816 0.90520054
5.8659263 -0.10000014 -7.1165338 -0.57735217 -0.57735807 0.57734066 0.19548735 0.877088
5.8659263 -0.10000014 -8.830083 -0.57734233 -0.57735425 -0.57735425 0.076506816 0.877088
5.8659263 0.23052216 -8.830083 -0.57735217 0.57735807 -0.57734066 0.076506816 0.8489756
6.0458703 0.23052216 -7.1165338 0.57735217 0.57735807 0.5773407 0.19548735 0.877088
6.0458703 0.23052216 -8.830083 0.57734233 0.57735425 -0.57735425 0.076506816 0.877088
2.8586574 0.56104445 -8.830083 -0.5773524 0.5773399 -0.5773586 0.5033477 0.7682366
6.0458703 0.56104445 -8.830083 0.57734233 0.57735425 -0.57735425 0.50332314 0.786829
6.0458703 0.56104445 -7.1165338 0.57735234 0.5773399 0.57735854 0.31621498 0.7682366
2.8586574 0.56104445 -7.1165338 -0.57734233 0.57735425 0.57735425 0.29762262 0.78742003
6.0458703 0.23052216 -7.1165338 0.57734233 -0.57735425 0.57735425 0.50334775 0.9610064
2.8586574 0.56104445 -7.1165338 -0.57734233 0.57735425 0.57735425 0.40954065 0.78742003
2.8586574 0.23052216 -8.830083 -0.57735217 0.57735807 -0.5773407 0.10605218 0.98608
3.0386014 0.23052216 -8.830083 0.57734233 0.57735425 -0.57735425 0.05134531 0.90520054
3.0386014 0.23052216 -7.1165338 0.57735217 0.57735807 0.57734066 0.10605218 0.98608
2.8586574 0.23052216 -7.1165338 -0.57734233 0.57735425 0.57735425 0.05134531 0.90520054
3.0386014 -0.10000014 -7.1165338 0.57734233 -0.57735425 0.57735425 0.19548735 0.8208632
2.8586574 0.23052216 -7.1165338 -0.57734233 0.57735425 0.57735425 0.19548735 0.8208632
5.8659263 0.23052216 -8.830083 -0.57735217 0.57735807 -0.57734066 0.076506816 0.90520054
6.0458703 0.23052216 -8.830083 0.57734233 0.57735425 -0.57735425 0.05134531 0.8589837
6.0458703 0.23052216 -7.1165338 0.57735217 0.57735807 0.5773407 0.19630942 0.9283089
5.8659263 0.23052216 -7.1165338 -0.57734233 0.57735425 0.57735425 0.05134531 0.8589837
6.0458703 -0.10000014 -7.1165338 0.57734233 -0.57735425 0.57735425 0.19548735 0.90520054
5.8659263 0.23052216 -7.1165338 -0.57734233 0.57735425 0.57735425 0.19548735 0.8489756
2.8586574 0.56104445 8.877516 -0.57734233 0.57735425 0.57735425 0.41002208 0.76823664
2.8586574 0.23052216 7.163966 -0.57734233 -0.57735425 -0.57735425 0.5033477 0.75023526
2.8586574 0.23052216 8.877516 -0.5773524 -0.5773398 0.57735854 0.41002208 0.75023526
2.8586574 0.56104445 7.163966 -0.5773524 0.5773398 -0.57735854 0.3297367 0.78682905
6.0458703 0.23052216 7.163966 0.5773524 -0.5773398 -0.57735854 0.50332314 0.7688277
2.8586574 0.23052216 7.163966 -0.57734233 -0.57735425 -0.57735425 0.3297367 0.7688277
6.0458703 0.56104445 7.163966 0.57734233 0.57735425 -0.57735425 0.40954065 0.7682366
6.0458703 0.23052216 8.877516 0.57734233 -0.57735425 0.57735425 0.31621498 0.75023526
6.0458703 0.23052216 7.163966 0.5773524 -0.5773398 -0.57735854 0.40954065 0.75023526
6.0458703 0.56104445 8.877516 0.5773524 0.5773398 0.57735854 0.29762262 0.96100646
2.8586574 0.23052216 8.877516 -0.5773524 -0.5773398 0.57735854 0.31562394 0.78742003
6.0458703 0.23052216 8.877516 0.57734233 -0.57735425 0.57735425 0.315624 0.96100646
6.0458703 0.23052216 7.163966 0.5773524 -0.5773398 -0.57735854 0.41002208 0.9610064
2.8586574 0.23052216 8.877516 -0.5773524 -0.5773398 0.57735854 0.50334775 0.78742003
2.8586574 0.23052216 7.163966 -0.57734233 -0.57735425 -0.57735425 0.41002208 0.78742003
2.8586574 0.56104445 7.163966 -0.5773524 0.5773398 -0.57735854 0.31621498 0.78742003
6.0458703 0.56104445 8.877516 0.5773524 0.5773398 0.57735854 0.40954065 0.9610064
6.0458703 0.56104445 7.163966 0.57734233 0.57735425 -0.57735425 0.31621498 0.9610064
2.8586574 0.23052216 8.877516 -0.57734233 0.57735425 0.57735425 0.026183806 0.98608
2.8586574 -0.10000014 7.163966 -0.57734233 -0.57735425 -0.57735425 0.10605218 0.9514174
2.8586574 -0.10000014 8.877516 -0.57735217 -0.577358 0.57734066 0.026183806 0.9514174
2.8586574 0.23052216 7.163966 -0.57735217 0.577358 -0.57734066 0.076506816 0.90520054
3.0386014 -0.10000014 7.163966 0.5773522 -0.57735807 -0.57734066 0.05134531 0.9514174
2.8586574 -0.10000014 7.163966 -0.57734233 -0.57735425 -0.57735425 0.076506816 0.9514174
3.0386014 0.23052216 7.163966 0.57734233 0.57735425 -0.57735425 0.18592057 0.98608
3.0386014 -0.10000014 8.877516 0.57734233 -0.57735425 0.57735425 0.10605218 0.9514174
3.0386014 -0.10000014 7.163966 0.5773522 -0.57735807 -0.57734066 0.18592057 0.9514174
3.0386014 0.23052216 8.877516 0.5773522 0.57735807 0.57734066 0.026183806 0.90520054
2.8586574 -0.10000014 8.877516 -0.57735217 -0.577358 0.57734066 0.05134531 0.9514174
3.0386014 -0.10000014 8.877516 0.57734233 -0.57735425 0.57735425 0.026183806 0.9514174
3.0386014 -0.10000014 7.163966 0.5773522 -0.57735807 -0.57734066 0.076506816 0.8208632
2.8586574 -0.10000014 8.877516 -0.57735217 -0.577358 0.57734066 0.19548735 0.7927508
2.8586574 -0.10000014 7.163966 -0.57734233 -0.57735425 -0.57735425 0.076506816 0.7927508
2.8586574 0.23052216 7.163966 -0.57735217 0.577358 -0.57734066 0.076506816 0.8208632
3.0386014 0.23052216 8.877516 0.5773522 0.57735807 0.57734066 0.19548735 0.8489756
3.0386014 0.23052216 7.163966 0.57734233 0.57735425 -0.57735425 0.076506816 0.8489756
5.8659263 0.23052216 8.877516 -0.57734233 0.57735425 0.57735425 0.19630942 0.90520054
5.8659263 -0.10000014 7.163966 -0.57734233 -0.57735425 -0.57735425 0.076506816 0.9283089
5.8659263 -0.10000014 8.877516 -0.5773522 -0.57735807 0.57734066 0.19630942 0.9283089
5.8659263 0.23052216 7.163966 -0.5773522 0.57735807 -0.57734066 0.076506816 0.8589837
6.0458703 -0.10000014 7.163966 0.57735217 -0.577358 -0.57734066 0.05134531 0.90520054
5.8659263 -0.10000014 7.163966 -0.57734233 -0.57735425 -0.57735425 0.076506816 0.90520054
6.0458703 0.23052216 7.163966 0.57734233 0.57735425 -0.57735425 0.076506816 0.9283089
6.0458703 -0.10000014 8.877516 0.57734233 -0.57735425 0.57735425 0.19630942 0.9514174
6.0458703 -0.10000014 7.163966 0.57735217 -0.577358 -0.57734066 0.076506816 0.9514174
6.0458703 0.23052216 8.877516 0.57735217 0.577358 0.57734066 0.026183806 0.8589837
5.8659263 -0.10000014 8.877516 -0.5773522 -0.57735807 0.57734066 0.05134531 0.90520054
6.0458703 -0.10000014 8.877516 0.57734233 -0.57735425 0.57735425 0.026183806 0.90520054
6.0458703 -0.10000014 7.163966 0.57735217 -0.577358 -0.57734066 0.076506816 0.90520054
5.8659263 -0.10000014 8.877516 -0.5773522 -0.57735807 0.57734066 0.19548735 0.877088
5.8659263 -0.10000014 7.163966 -0.57734233 -0.57735425 -0.57735425 0.076506816 0.877088
5.8659263 0.23052216 7.163966 -0.5773522 0.57735807 -0.57734066 0.076506816 0.8489756
6.0458703 0.23052216 8.877516 0.57735217 0.577358 0.57734066 0.19548735 0.877088
6.0458703 0.23052216 7.163966 0.57734233 0.57735425 -0.57735425 0.076506816 0.877088
2.8586574 0.56104445 7.163966 -0.5773524 0.5773398 -0.57735854 0.5033477 0.7682366
6.0458703 0.56104445 7.163966 0.57734233 0.57735425 -0.57735425 0.50332314 0.786829
6.0458703 0.56104445 8.877516 0.5773524 0.5773398 0.57735854 0.31621498 0.7682366
2.8586574 0.56104445 8.877516 -0.57734233 0.57735425 0.57735425 0.29762262 0.78742003
6.0458703 0.23052216 8.877516 0.57734233 -0.57735425 0.57735425 0.50334775 0.9610064
2.8586574 0.56104445 8.877516 -0.57734233 0.57735425 0.57735425 0.40954065 0.78742003
2.8586574 0.23052216 7.163966 -0.57735217 0.577358 -0.57734066 0.10605218 0.98608
3.0386014 0.23052216 7.163966 0.57734233 0.57735425 -0.57735425 0.05134531 0.90520054
3.0386014 0.23052216 8.877516 0.5773522 0.57735807 0.57734066 0.10605218 0.98608
2.8586574 0.23052216 8.877516 -0.57734233 0.57735425 0.57735425 0.05134531 0.90520054
3.0386014 -0.10000014 8.877516 0.57734233 -0.57735425 0.57735425 0.19548735 0.8208632
2.8586574 0.23052216 8.877516 -0.57734233 0.57735425 0.57735425 0.19548735 0.8208632
5.8659263 0.23052216 7.163966 -0.5773522 0.57735807 -0.57734066 0.076506816 0.90520054
6.0458703 0.23052216 7.163966 0.57734233 0.57735425 -0.57735425 0.05134531 0.8589837
6.0458703 0.23052216 8.877516 0.57735217 0.577358 0.57734066 0.19630942 0.9283089
5.8659263 0.23052216 8.877516 -0.57734233 0.57735425 0.57735425 0.05134531 0.8589837
6.0458703 -0.10000014 8.877516 0.57734233 -0.57735425 0.57735425 0.19548735 0.90520054
5.8659263 0.23052216 8.877516 -0.57734233 0.57735425 0.57735425 0.19548735 0.8489756
8.5638485 1.3969965 0.5475137 -0.5773721 0.5773394 0.5773394 0.7344843 0.73745143
8.5638485 0.30196923 -0.5475137 -0.5773721 -0.5773394 -0.5773394 0.7813517 0.78431886
8.5638485 0.30196923 0.5475137 -0.57732844 -0.57736117 0.57736117 0.7813517 0.73745143
8.5638485 1.3969965 -0.5475137 -0.57732844 0.57736117 -0.57736117 0.6263813 0.73745143
9.658876 0.30196923 -0.5475137 0.57732844 -0.57736117 -0.57736117 0.6804328 0.791503
8.5638485 0.30196923 -0.5475137 -0.5773721 -0.5773394 -0.5773394 0.6804328 0.73745143
9.658876 1.3969965 -0.5475137 0.5773721 0.5773394 -0.5773394 0.6804328 0.84555453
9.658876 0.30196923 0.5475137 0.5773721 -0.5773394 0.5773394 0.7344844 0.791503
9.658876 0.30196923 -0.5475137 0.57732844 -0.57736117 -0.57736117 0.73448443 0.84555453
9.658876 1.3969965 0.5475137 0.57732844 0.57736117 0.57736117 0.6804328 0.791503
8.5638485 0.30196923 0.5475137 -0.57732844 -0.57736117 0.57736117 0.7344843 0.73745143
9.658876 0.30196923 -0.5475137 0.57732844 -0.57736117 -0.57736117 0.66873384 0.94652313
8.5638485 0.30196923 0.5475137 -0.57732844 -0.57736117 0.57736117 0.71560127 0.89965576
8.5638485 0.30196923 -0.5475137 -0.5773721 -0.5773394 -0.5773394 0.66873384 0.89965576
8.5638485 1.3969965 -0.5475137 -0.57732844 0.57736117 -0.57736117 0.6146822 0.8924715
9.658876 1.3969965 0.5475137 0.57732844 0.57736117 0.57736117 0.66873384 0.94652313
9.658876 1.3969965 -0.5475137 0.5773721 0.5773394 -0.5773394 0.6146822 0.94652313
8.422724 0.30196923 0.6886383 -0.57733196 0.5773595 0.5773595 0.5832879 0.8821344
8.422724 -0.09999998 -0.6886383 -0.57733196 -0.5773595 -0.5773595 0.5634463 0.8141507
8.422724 -0.09999998 0.6886383 -0.5773486 -0.5773813 0.57732105 0.5634463 0.8821344
8.422724 0.30196923 -0.6886383 -0.5773486 0.5773813 -0.57732105 0.5634463 0.746167
9.800001 -0.09999998 -0.6886383 0.5773486 -0.5773813 -0.57732105 0.5832879 0.8141507
8.422724 -0.09999998 -0.6886383 -0.57733196 -0.5773595 -0.5773595 0.5832879 0.746167
9.800001 0.30196923 -0.6886383 0.57733196 0.5773595 -0.5773595 0.8199144 0.74146086
9.800001 -0.09999998 0.6886383 0.57733196 -0.5773595 0.5773595 0.80648357 0.7874795
9.800001 -0.09999998 -0.6886383 0.5773486 -0.5773813 -0.57732105 0.80648357 0.74146086
9.800001 0.30196923 0.6886383 0.5773486 0.5773813 0.57732105 0.5832879 0.8821344
8.422724 -0.09999998 0.6886383 -0.5773486 -0.5773813 0.57732105 0.5634463 0.9501181
9.800001 -0.09999998 0.6886383 0.57733196 -0.5773595 0.5773595 0.5634463 0.8821344
9.800001 -0.09999998 -0.6886383 0.5773486 -0.5773813 -0.57732105 0.71560127 0.9193987
8.422724 -0.09999998 0.6886383 -0.5773486 -0.5773813 0.57732105 0.73534423 0.89965576
8.422724 -0.09999998 -0.6886383 -0.57733196 -0.5773595 -0.5773595 0.71560127 0.89965576
8.422724 0.30196923 -0.6886383 -0.5773486 0.5773813 -0.57732105 0.5634463 0.9501181
9.800001 0.30196923 0.6886383 0.5773486 0.5773813 0.57732105 0.5827779 0.9694498
9.800001 0.30196923 -0.6886383 0.57733196 0.5773595 -0.5773595 0.5634463 0.9694498
8.422724 1.7989659 0.6886383 -0.577341 0.5773686 0.5773412 0.80386794 0.94538635
8.422724 1.3969965 -0.6886383 -0.57733184 -0.5773595 -0.5773595 0.8168367 0.9898215
8.422724 1.3969965 0.6886383 -0.5773394 -0.5773721 0.5773394 0.8168367 0.94538635
9.800001 1.7989659 -0.6886383 0.57733184 0.5773595 -0.5773595 0.80386794 0.94538635
9.800001 1.3969965 0.6886383 0.577341 -0.5773686 0.5773412 0.8168367 0.90095127
9.800001 1.3969965 -0.6886383 0.57734853 -0.5773812 -0.57732105 0.8168367 0.94538635
9.800001 1.3969965 -0.6886383 0.57734853 -0.5773812 -0.57732105 0.66194385 0.98963565
8.422724 1.3969965 0.6886383 -0.5773394 -0.5773721 0.5773394 0.67144305 0.9801363
8.422724 1.3969965 -0.6886383 -0.57733184 -0.5773595 -0.5773595 0.66194385 0.9801363
8.422724 1.7989659 -0.6886383 -0.57734853 0.5773812 -0.57732105 0.6524445 0.9801363
9.800001 1.7989659 0.6886383 0.5773394 0.5773721 0.5773394 0.66194385 0.98963565
9.800001 1.7989659 -0.6886383 0.57733184 0.5773595 -0.5773595 0.6524445 0.98963565
8.422724 1.7989659 -0.6886383 -0.57734853 0.5773812 -0.57732105 0.81757295 0.856516
9.800001 1.3969965 -0.6886383 0.57734853 -0.5773812 -0.57732105 0.80386794 0.80955845
8.422724 1.3969965 -0.6886383 -0.57733184 -0.5773595 -0.5773595 0.80386794 0.856516
8.422724 1.7989659 0.6886383 -0.577341 0.5773686 0.5773412 0.80386794 0.856516
8.422724 1.3969965 0.6886383 -0.5773394 -0.5773721 0.5773394 0.8168367 0.856516
8.5638485 1.3969965 -0.5475137 -0.57732844 0.57736117 -0.57736117 0.7344844 0.78431886
9.658876 1.3969965 -0.5475137 0.5773721 0.5773394 -0.5773394 0.6263813 0.791503
8.5638485 1.3969965 0.5475137 -0.5773721 0.5773394 0.5773394 0.6804328 0.73745143
9.658876 0.30196923 0.5475137 0.5773721 -0.5773394 0.5773394 0.71560127 0.94652313
8.5638485 1.3969965 0.5475137 -0.5773721 0.5773394 0.5773394 0.66873384 0.8924715
8.422724 0.30196923 -0.6886383 -0.5773486 0.5773813 -0.57732105 0.5832878 0.8141507
9.800001 0.30196923 -0.6886383 0.57733196 0.5773595 -0.5773595 0.5634463 0.8141507
9.800001 0.30196923 0.6886383 0.5773486 0.5773813 0.57732105 0.8199144 0.7874795
8.422724 0.30196923 0.6886383 -0.57733196 0.5773595 0.5773595 0.5832879 0.9501181
9.800001 -0.09999998 0.6886383 0.57733196 -0.5773595 0.5773595 0.73534423 0.9193987
8.422724 0.30196923 0.6886383 -0.57733196 0.5773595 0.5773595 0.5827779 0.9501181
8.422724 1.7989659 -0.6886383 -0.57734853 0.5773812 -0.57732105 0.80386794 0.9898215
9.800001 1.7989659 0.6886383 0.5773394 0.5773721 0.5773394 0.80386794 0.90095127
9.800001 1.3969965 0.6886383 0.577341 -0.5773686 0.5773412 0.67144305 0.98963565
8.422724 1.7989659 0.6886383 -0.577341 0.5773686 0.5773412 0.66194385 0.9801363
9.800001 1.7989659 -0.6886383 0.57733184 0.5773595 -0.5773595 0.81757283 0.80955845
-1.1123033 3.7506654 -4.1002116 -1 0 0 0.51689005 0.7015037
-1.1123033 0.9854502 -6.8654246 -1 0 0 0.39261365 0.5772272
-1.1123033 0.9854502 -4.1002116 -1 0 0 0.51689005 0.5772272
-1.1123033 3.7506654 -6.8654246 0 0 -1 0.51689005 0.5772272
-1.0195414 0.9854502 -6.8654246 0 0 -1 0.51272106 0.45295072
-1.1123033 0.9854502 -6.8654246 0 0 -1 0.51689 0.45295072
-1.0195414 3.7506654 -6.8654246 1 0 0 0.2683373 0.5772272
-1.0195414 0.9854502 -4.1002116 1 0 0 0.39261365 0.7015037
-1.0195414 0.9854502 -6.8654246 1 0 0 0.2683373 0.7015037
-1.0195414 3.7506654 -4.1002116 0 0 1 0.51272106 0.5772272
-1.1123033 0.9854502 -4.1002116 0 0 1 0.5085521 0.45295072
-1.0195414 0.9854502 -4.1002116 0 0 1 0.51272106 0.45295072
-1.0195414 0.9854502 -6.8654246 0 -1 0 0.5085521 0.45295084
-1.1123033 0.9854502 -4.1002116 0 -1 0 0.5043831 0.5772272
-1.1123033 0.9854502 -6.8654246 0 -1 0 0.5043831 0.45295084
-1.1123033 3.7506654 -6.8654246 0 1 0 0.5043831 0.45295084
-1.0195414 3.7506654 -4.1002116 0 1 0 0.5002141 0.5772272
-1.0195414 3.7506654 -6.8654246 0 1 0 0.5002141 0.45295084
-1.1123033 3.7506654 -6.8654246 -1 0 0 0.39261365 0.7015037
-1.0195414 3.7506654 -6.8654246 0 0 -1 0.51272106 0.5772272
-1.0195414 3.7506654 -4.1002116 1 0 0 0.39261365 0.5772272
-1.1123033 3.7506654 -4.1002116 0 0 1 0.5085521 0.5772272
-1.0195414 0.9854502 -4.1002116 0 -1 0 0.5085521 0.5772272
-1.1123033 3.7506654 -4.1002116 0 1 0 0.5043831 0.5772272
9.800003 3.7506654 -6.8654246 1 0 0 0.77448004 0.7015037
9.800003 0.98545027 -4.1002116 1 0 0 0.65020365 0.5772272
9.800003 0.98545027 -6.8654246 1 0 0 0.77448004 0.5772272
9.800003 3.7506654 -4.1002116 0 0 1 0.77448004 0.5772272
9.707241 0.98545027 -4.1002116 0 0 1 0.77031106 0.45295072
9.800003 0.98545027 -4.1002116 0 0 1 0.7744799 0.45295072
9.707241 3.7506654 -4.1002116 -1 0 0 0.52592725 0.5772272
9.707241 0.98545027 -6.8654246 -1 0 0 0.65020365 0.7015037
9.707241 0.98545027 -4.1002116 -1 0 0 0.52592725 0.7015037
9.707241 3.7506654 -6.8654246 0 0 -1 0.77031106 0.5772272
9.800003 0.98545027 -6.8654246 0 0 -1 0.7661421 0.45295072
9.707241 0.98545027 -6.8654246 0 0 -1 0.77031106 0.45295072
9.707241 0.98545027 -4.1002116 0 -1 0 0.7661421 0.45295084
9.800003 0.98545027 -6.8654246 0 -1 0 0.7619731 0.5772272
9.800003 0.98545027 -4.1002116 0 -1 0 0.7619731 0.45295084
9.800003 3.7506654 -4.1002116 0 1 0 0.7619731 0.45295084
9.707241 3.7506654 -6.8654246 0 1 0 0.7578041 0.5772272
9.707241 3.7506654 -4.1002116 0 1 0 0.7578041 0.45295084
9.800003 3.7506654 -4.1002116 1 0 0 0.65020365 0.7015037
9.707241 3.7506654 -4.1002116 0 0 1 0.77031106 0.5772272
9.707241 3.7506654 -6.8654246 -1 0 0 0.65020365 0.5772272
9.800003 3.7506654 -6.8654246 0 0 -1 0.7661421 0.5772272
9.707241 0.98545027 -6.8654246 0 -1 0 0.7661421 0.5772272
9.800003 3.7506654 -6.8654246 0 1 0 0.7619731 0.5772272
9.800003 3.7506654 4.098132 1 0 0 0.2557184 0.44486395
9.800003 0.98545027 6.863345 1 0 0 0.131442 0.32058743
9.800003 0.98545027 4.098132 1 0 0 0.2557184 0.32058743
9.800003 3.7506654 6.863345 0 0 1 0.2557184 0.32058743
9.707241 0.98545027 6.863345 0 0 1 0.25154942 0.19631097
9.800003 0.98545027 6.863345 0 0 1 0.2557183 0.19631097
9.707241 3.7506654 6.863345 -1 0 0 0.007165596 0.32058743
9.707241 0.98545027 4.098132 -1 0 0 0.131442 0.44486395
9.707241 0.98545027 6.863345 -1 0 0 0.007165596 0.44486395
9.707241 3.7506654 4.098132 0 0 -1 0.25154942 0.32058743
9.800003 0.98545027 4.098132 0 0 -1 0.24738042 0.19631097
9.707241 0.98545027 4.098132 0 0 -1 0.25154942 0.19631097
9.707241 0.98545027 6.863345 0 -1 0 0.24738042 0.19631109
9.800003 0.98545027 4.098132 0 -1 0 0.24321143 0.32058743
9.800003 0.98545027 6.863345 0 -1 0 0.24321143 0.19631109
9.800003 3.7506654 6.863345 0 1 0 0.24321143 0.19631109
9.707241 3.7506654 4.098132 0 1 0 0.23904245 0.32058743
9.707241 3.7506654 6.863345 0 1 0 0.23904245 0.19631109
9.800003 3.7506654 6.863345 1 0 0 0.131442 0.44486395
9.707241 3.7506654 6.863345 0 0 1 0.25154942 0.32058743
9.707241 3.7506654 4.098132 -1 0 0 0.131442 0.32058743
9.800003 3.7506654 4.098132 0 0 -1 0.24738042 0.32058743
9.707241 0.98545027 4.098132 0 -1 0 0.24738042 0.32058743
9.800003 3.7506654 4.098132 0 1 0 0.24321143 0.32058743
3 0 1 2
3 3 4 5
3 6 7 8
3 9 10 11
3 12 13 14
3 15 16 17
3 0 18 1
3 3 19 4
3 6 20 7
3 9 21 10
3 12 22 13
3 15 23 16
3 24 25 26
3 27 28 29
3 30 31 32
3 33 34 35
3 36 37 38
3 39 40 41
3 42 43 44
3 45 46 47
3 48 49 50
3 51 52 53
3 54 55 56
3 57 58 59
3 60 61 62
3 63 64 65
3 66 67 68
3 69 70 71
3 72 73 74
3 75 76 77
3 24 78 25
3 27 79 28
3 30 80 31
3 33 81 34
3 36 82 37
3 39 83 40
3 42 84 43
3 45 85 46
3 48 86 49
3 51 87 52
3 54 88 55
3 57 89 58
3 60 90 61
3 63 91 64
3 66 92 67
3 69 93 70
3 72 94 73
3 75 95 76
3 96 97 98
3 99 100 101
3 102 103 104
3 105 106 107
3 108 109 110
3 111 112 113
3 114 115 116
3 117 118 119
3 120 121 122
3 123 124 125
3 126 127 128
3 129 130 131
3 132 133 134
3 135 136 137
3 138 139 140
3 141 142 143
3 144 145 146
3 147 148 149
3 96 150 97
3 99 151 100
3 102 152 103
3 105 153 106
3 108 154 109
3 111 155 112
3 114 156 115
3 117 157 118
3 120 158 121
3 123 159 124
3 126 160 127
3 129 161 130
3 132 162 133
3 135 163 136
3 138 164 139
3 141 165 142
3 144 166 145
3 147 167 148
3 168 169 170
3 171 172 173
3 174 175 176
3 177 178 175
3 179 180 181
3 182 183 184
3 185 186 187
3 188 189 190
3 191 192 193
3 194 195 196
3 197 198 199
3 200 201 202
3 203 204 205
3 206 207 208
3 209 210 211
3 212 213 214
3 215 216 217
3 207 218 219
3 168 220 169
3 171 221 172
3 174 177 175
3 177 222 178
3 179 223 180
3 182 224 183
3 185 225 186
3 188 226 189
3 191 227 192
3 194 228 195
3 197 229 198
3 200 230 201
3 203 231 204
3 206 232 207
3 209 233 210
3 212 234 213
3 215 235 216
3 207 232 218
3 236 237 238
3 239 240 241
3 242 243 244
3 245 246 247
3 248 249 250
3 251 252 253
3 236 254 237
3 239 255 240
3 242 256 243
3 245 257 246
3 248 258 249
3 251 259 252
3 260 261 262
3 263 264 265
3 266 267 268
3 269 270 271
3 272 273 274
3 275 276 277
3 260 278 261
3 263 279 264
3 266 280 267
3 269 281 270
3 272 282 273
3 275 283 276
3 284 285 286
3 287 288 289
3 290 291 292
3 293 294 295
3 296 297 298
3 299 300 301
3 284 302 285
3 287 303 288
3 290 304 291
3 293 305 294
3 296 306 297
3 299 307 300
