ply
format ascii 1.0
comment Created in Blender version 4.4.1
element vertex 508
property float x
property float y
property float z
property float nx
property float ny
property float nz
property float s
property float t
element face 448
property list uchar uint vertex_indices
end_header
1.5157726 4.9 10 0 8.4303093e-07 -1 0.6231373 0.526939
-1.3123031 5.100001 10 0.7071037 2.6670659e-08 -0.7071099 0.64312994 0.52773255
1.5157728 5.100001 10 0 6.6129275e-07 -1 0.6231373 0.52773255
-1.3123031 4.9 -6 1 0 0 0.6762688 0.533153
-1.3123031 5.100001 -10 0.707112 0 0.70710164 0.70454615 0.5339467
-1.3123031 5.100001 -6 1 0 0 0.6762688 0.5339467
1.5157726 5.4814816 10 0 -0.09801653 -0.9951848 0.6231373 0.5292463
10 4.9 6 -1 0 0 0.6762689 0.53936714
10 5.100001 10 -0.707112 0 -0.7071016 0.7045462 0.5401607
10 5.100001 6 -1 0 0 0.6762689 0.5401607
7.1719246 4.9 -10 0 1.6860597e-06 1 0.6231373 0.52072483
10 5.100001 -10 -0.7071037 5.334131e-08 0.70710987 0.64312994 0.5215184
7.171924 5.100001 -10 0 1.2848676e-06 1 0.6231373 0.5215184
7.1719246 5.4814816 -10 -7.665994e-08 -0.09801677 0.9951848 0.6231373 0.5230321
10 5.4814816 6 -0.99518466 -0.098017916 -0 0.6762689 0.54167444
8.644364 6.8371177 5.186619 -0.09801705 -0.9951848 -0 0.659225 0.41770408
6.4941063 6.8371177 8.644364 0 -0.9951849 -0.0980157 0.6677755 0.3932601
6.4941063 6.8371177 5.186619 0 -1 0 0.6677755 0.41770408
0.043332815 6.8371177 8.644364 0.07374569 -0.99454665 -0.07374619 0.693427 0.3932601
-0.47544634 6.7339263 5.4978857 0.38268334 -0.9238796 0 0.69548994 0.4155036
0.043332815 6.8371177 5.186619 0.09801698 -0.9951848 0 0.693427 0.41770408
-0.47544634 6.7339263 9.163143 0.24844767 -0.9362411 -0.24844813 0.69548994 0.38959268
-0.915246 6.4400616 5.761766 0.70710564 -0.7071079 0 0.6972388 0.41363814
-0.915246 6.4400616 9.602943 0.45207778 -0.7689311 -0.45207393 0.5659663 0.53936714
-1.2091111 6.0002613 5.938085 0.9238808 -0.3826804 0 0.5918745 0.5375456
-0.915246 6.4400616 5.761766 0.70710564 -0.7071079 0 0.59312093 0.53936714
-1.2091111 6.0002613 9.896809 0.63097 -0.45138016 -0.6309777 0.5638889 0.5375456
-1.3123031 5.4814816 6 0.9951848 -0.09801746 0 0.59143674 0.5354604
0.043332815 6.8371177 -8.644364 0.07374573 -0.99454665 0.0737466 0.693427 0.51547986
1.9342012 6.7339263 -9.163143 0 -0.92388 0.3826824 0.685908 0.51914734
2.1935906 6.8371177 -8.644364 0 -0.99518496 0.098015696 0.6848765 0.51547986
-0.47544628 6.7339263 -9.163143 0.24844715 -0.93624115 0.24844816 0.69548994 0.51914734
1.7143011 6.4400616 -9.602943 0 -0.7071073 0.7071063 0.6867824 0.52225643
-0.91524595 6.4400616 -9.602943 0.45207796 -0.7689303 0.45207512 0.56596637 0.526939
1.5673687 6.0002613 -9.896809 0 -0.38267785 0.9238818 0.5835168 0.52511746
1.7143011 6.4400616 -9.602943 0 -0.7071073 0.7071063 0.58455545 0.526939
-1.209111 6.0002613 -9.896809 0.6309699 -0.45137945 0.6309784 0.5638889 0.52511746
1.5157728 5.4814816 -10 0 -0.09801655 0.9951848 0.583152 0.5230321
8.644364 6.8371177 8.644364 -0.07374577 -0.99454665 -0.07374639 0.659225 0.3932601
6.7534957 6.7339263 9.163143 0 -0.92387974 -0.382683 0.666744 0.38959268
9.163143 6.7339263 9.163143 -0.24844776 -0.93624085 -0.24844919 0.6571621 0.38959268
6.9733953 6.4400616 9.602942 0 -0.70710665 -0.70710695 0.6658696 0.38648358
9.602942 6.4400616 9.602942 -0.45207784 -0.76893085 -0.45207432 0.56596637 0.533153
7.120328 6.0002613 9.896808 0 -0.3826788 -0.9238815 0.5835168 0.5313316
6.9733953 6.4400616 9.602942 0 -0.70710665 -0.70710695 0.5845555 0.533153
9.896808 6.0002613 9.896808 -0.63097006 -0.45137978 -0.6309779 0.5638889 0.5313316
7.171924 5.4814816 10 0 -0.09801763 -0.9951847 0.583152 0.5292463
8.644364 6.8371177 -8.644364 -0.07374573 -0.99454665 0.07374635 0.659225 0.51547986
9.163143 6.7339263 -5.4978857 -0.3826831 -0.9238798 -0 0.6571621 0.49323645
8.644364 6.8371177 -5.186619 -0.09801704 -0.9951848 -0 0.659225 0.49103603
9.163143 6.7339263 -9.163143 -0.24844779 -0.936241 0.24844871 0.6571621 0.51914734
9.602942 6.4400616 -5.7617655 -0.70710564 -0.70710796 -0 0.6554132 0.4951019
9.602942 6.4400616 -9.602942 -0.45207793 -0.768931 0.45207408 0.56596637 0.5455813
9.896808 6.0002613 -5.9380846 -0.9238807 -0.3826806 -0 0.5918745 0.54375976
9.602942 6.4400616 -5.7617655 -0.70710564 -0.70710796 -0 0.59312093 0.5455813
9.896808 6.0002613 -9.896808 -0.63097 -0.45138043 0.6309776 0.5638889 0.54375976
10 5.4814816 -6 -0.99518466 -0.098017916 -0 0.59143674 0.54167444
-1.3123031 5.4814816 -6 0.9951847 -0.09801761 0 0.6762688 0.5354604
-1.2091111 6.0002613 9.896809 0.63097 -0.45138016 -0.6309777 0.6424004 0.5313316
-1.3123031 5.4814816 10 0.70119953 -0.12901722 -0.7011946 0.64312994 0.5292463
1.5673685 6.0002613 9.896809 -4.4087866e-08 -0.3826775 -0.923882 0.6227726 0.5313316
4.343848 5.4814816 10 -7.1790865e-08 -0.09801536 -0.99518496 0.6031447 0.5292463
4.343848 6.0002613 9.896808 -2.0249796e-07 -0.3826808 -0.92388064 0.6031447 0.5313316
-0.915246 6.4400616 9.602943 0.45207778 -0.7689311 -0.45207393 0.640323 0.533153
1.7143011 6.4400616 9.602943 -7.545779e-08 -0.70710635 -0.70710725 0.6217338 0.533153
4.343848 6.4400616 9.602942 -1.3396387e-07 -0.7071049 -0.7071086 0.6031447 0.533153
1.7143011 6.4400616 9.602943 -7.545779e-08 -0.70710635 -0.70710725 0.6867824 0.38648358
-0.915246 6.4400616 9.602943 0.45207778 -0.7689311 -0.45207393 0.6972388 0.38648358
1.934201 6.7339263 9.163143 -2.3324889e-08 -0.9238796 -0.38268325 0.685908 0.38959268
4.343848 6.4400616 9.602942 -1.3396387e-07 -0.7071049 -0.7071086 0.67632604 0.38648358
4.343848 6.7339263 9.163143 0 -0.9238784 -0.3826864 0.67632604 0.38959268
2.1935906 6.8371177 8.644364 0 -0.99518496 -0.098015785 0.6848765 0.3932601
4.3438487 6.8371177 8.644364 0 -0.9951848 -0.09801721 0.67632604 0.3932601
9.896808 6.0002613 -9.896808 -0.63097 -0.45138043 0.6309776 0.6424004 0.52511746
10 5.4814816 -10 -0.70119935 -0.12901737 0.7011947 0.64312994 0.5230321
7.120328 6.0002613 -9.896809 -1.7946957e-07 -0.38267797 0.9238819 0.6227726 0.52511746
4.3438487 5.4814816 -10 0 -0.09801529 0.99518496 0.6031447 0.5230321
4.343848 6.0002613 -9.896809 0 -0.38268083 0.92388064 0.60314465 0.52511746
9.602942 6.4400616 -9.602942 -0.45207793 -0.768931 0.45207408 0.640323 0.526939
6.9733953 6.4400616 -9.602943 -7.5475114e-08 -0.7071068 0.70710677 0.6217338 0.526939
4.343848 6.4400616 -9.602943 0 -0.70710474 0.70710886 0.60314465 0.526939
6.9733953 6.4400616 -9.602943 -7.5475114e-08 -0.7071068 0.70710677 0.6658696 0.52225643
9.602942 6.4400616 -9.602942 -0.45207793 -0.768931 0.45207408 0.65541327 0.52225643
6.753496 6.7339263 -9.163143 0 -0.9238798 0.3826828 0.666744 0.51914734
4.343848 6.4400616 -9.602943 0 -0.70710474 0.70710886 0.67632604 0.52225643
4.3438487 6.7339263 -9.163143 0 -0.9238782 0.3826869 0.67632604 0.51914734
6.4941063 6.8371177 -8.644364 0 -0.99518496 0.0980158 0.6677755 0.51547986
4.343848 6.8371177 -8.644364 0 -0.9951848 0.09801723 0.67632604 0.51547986
2.1935906 6.8371177 5.186619 0 -1 0 0.6848765 0.41770408
4.343848 6.8371177 5.186619 0 -1 0 0.67632604 0.41770408
1.5157726 5.100001 -10 0 6.235747e-07 1 0.583152 0.5215184
-1.3123031 5.4814816 -10 0.7011969 -0.1290177 0.7011971 0.5631594 0.5230321
-1.3123031 5.100001 -10 0.707112 0 0.70710164 0.5631594 0.5215184
4.343848 5.100001 -10 0 1.2660088e-06 1 0.6031447 0.5215184
-1.3123031 4.9 -10 0.7071009 5.357273e-08 0.70711267 0.5631594 0.52072483
1.5157728 4.9 -10 0 9.1879406e-07 1 0.583152 0.52072483
4.3438487 4.9 -10 0 1.7618237e-06 1 0.6031447 0.52072483
7.1719246 5.100001 10 0 1.2471502e-06 -1 0.583152 0.52773255
10 5.4814816 10 -0.70119673 -0.12901694 -0.7011974 0.5631594 0.5292463
10 5.100001 10 -0.707112 0 -0.7071016 0.5631594 0.52773255
4.3438487 5.100001 10 0 1.284868e-06 -1 0.6031447 0.52773255
10 4.9 10 -0.7071009 1.0714551e-07 -0.70711267 0.5631594 0.526939
7.171924 4.9 10 0 1.7618244e-06 -1 0.583152 0.526939
4.343848 4.9 10 0 1.7239421e-06 -1 0.6031447 0.526939
4.343848 6.8371177 -5.186619 0 -1 0 0.67632604 0.49103603
2.1935906 6.8371177 -5.186619 0 -1 0 0.6848765 0.49103603
0.043332815 6.8371177 -5.186619 0.098017015 -0.9951848 5.981068e-10 0.693427 0.49103603
0.043332815 6.8371177 -1.728873 0.09801572 -0.99518496 4.9691523e-10 0.693427 0.46659198
2.1935906 6.8371177 -1.728873 1.8342668e-07 -1 0 0.6848765 0.46659198
0.043332815 6.8371177 1.728873 0.09801643 -0.9951849 0 0.693427 0.442148
2.1935906 6.8371177 1.728873 2.4456983e-07 -1 0 0.6848765 0.442148
-1.3123031 5.100001 6 1 0 0 0.59143674 0.5339467
-1.3123031 5.4814816 10 0.70119953 -0.12901722 -0.7011946 0.5631594 0.5354604
-1.3123031 5.100001 10 0.7071037 2.6670659e-08 -0.7071099 0.5631594 0.5339467
-1.3123031 5.100001 2 1 0 0 0.61971414 0.5339467
-1.3123031 5.100001 -2 1 0 0 0.6479915 0.5339467
-1.3123031 5.4814816 2 0.99518466 -0.09801779 0 0.61971414 0.5354604
-1.3123031 5.4814816 -2 0.9951848 -0.09801706 2.6882674e-08 0.6479915 0.5354604
9.896808 6.0002613 9.896808 -0.63097006 -0.45137978 -0.6309779 0.7038167 0.54375976
10 5.4814816 10 -0.70119673 -0.12901694 -0.7011974 0.7045462 0.54167444
9.896808 6.0002613 5.9380846 -0.9238807 -0.3826806 -0 0.67583114 0.54375976
10 5.4814816 2 -0.9951848 -0.09801747 -0 0.6479915 0.54167444
9.896808 6.0002613 -1.9793615 -0.92388064 -0.38268074 -0 0.61986005 0.54375976
9.896808 6.0002613 1.9793615 -0.9238789 -0.382685 -0 0.64784557 0.54375976
10 5.4814816 -2 -0.9951847 -0.0980182 -0 0.61971414 0.54167444
9.602942 6.4400616 9.602942 -0.45207784 -0.76893085 -0.45207432 0.70173925 0.5455813
9.602942 6.4400616 5.7617655 -0.7071057 -0.7071079 -0 0.6745847 0.5455813
9.602942 6.4400616 1.9205885 -0.70711017 -0.70710343 -0 0.64743006 0.5455813
9.602942 6.4400616 -1.9205885 -0.70710754 -0.707106 -0 0.6202755 0.5455813
9.602942 6.4400616 5.7617655 -0.7071057 -0.7071079 -0 0.6554132 0.41363814
9.602942 6.4400616 9.602942 -0.45207784 -0.76893085 -0.45207432 0.6554132 0.38648358
9.163143 6.7339263 5.4978857 -0.3826831 -0.9238798 -0 0.6571621 0.4155036
9.602942 6.4400616 1.9205885 -0.70711017 -0.70710343 -0 0.6554132 0.4407927
9.163143 6.7339263 -1.8326285 -0.38268343 -0.92387956 -0 0.6571621 0.46732548
9.163143 6.7339263 1.8326287 -0.38268697 -0.9238782 -0 0.6571621 0.4414145
9.602942 6.4400616 -1.9205885 -0.70710754 -0.707106 -0 0.6554132 0.46794733
8.644364 6.8371177 -1.728873 -0.09801573 -0.99518496 -0 0.659225 0.46659198
8.644364 6.8371177 1.728873 -0.09801646 -0.9951848 -0 0.659225 0.442148
-1.209111 6.0002613 -9.896809 0.6309699 -0.45137945 0.6309784 0.7038167 0.53754574
-1.3123031 5.4814816 -10 0.7011969 -0.1290177 0.7011971 0.70454615 0.5354604
-1.209111 6.0002613 -5.9380856 0.9238809 -0.3826802 1.4005081e-08 0.67583114 0.5375456
-1.2091111 6.0002613 1.9793615 0.92387956 -0.38268343 0 0.61986005 0.5375456
-1.2091111 6.0002613 -1.979362 0.92388016 -0.38268217 2.9586628e-08 0.64784557 0.5375456
-0.91524595 6.4400616 -9.602943 0.45207796 -0.7689303 0.45207512 0.70173925 0.53936714
-0.915246 6.4400616 -5.7617664 0.70710576 -0.70710784 1.62006e-08 0.6745847 0.53936714
-0.915246 6.4400616 1.9205885 0.70710814 -0.70710546 0 0.6202755 0.53936714
-0.915246 6.4400616 -1.920589 0.7071092 -0.7071043 3.963256e-09 0.64743006 0.53936714
-0.915246 6.4400616 -5.7617664 0.70710576 -0.70710784 1.62006e-08 0.6972388 0.4951019
-0.91524595 6.4400616 -9.602943 0.45207796 -0.7689303 0.45207512 0.6972388 0.52225643
-0.47544628 6.7339263 -5.4978857 0.38268304 -0.9238798 6.900413e-10 0.69548994 0.49323645
-0.915246 6.4400616 -1.920589 0.7071092 -0.7071043 3.963256e-09 0.6972388 0.46794733
-0.47544634 6.7339263 1.8326285 0.3826858 -0.9238786 4.596391e-11 0.69548994 0.4414145
-0.4754463 6.7339263 -1.8326287 0.3826845 -0.9238792 3.985545e-09 0.69548994 0.46732548
-0.915246 6.4400616 1.9205885 0.70710814 -0.70710546 0 0.6972388 0.4407927
6.4941063 6.8371177 -5.186619 0 -1 0 0.6677755 0.49103603
6.4941063 6.8371177 -1.728873 -7.042666e-07 -1 -0 0.6677755 0.46659198
6.4941063 6.8371177 1.728873 -5.542319e-08 -1 -0 0.6677755 0.442148
10 5.100001 -6 -1 0 0 0.59143674 0.5401607
10 5.4814816 -10 -0.70119935 -0.12901737 0.7011947 0.5631594 0.54167444
10 5.100001 -10 -0.7071037 5.334131e-08 0.70710987 0.5631594 0.5401607
10 5.100001 -2 -1 0 0 0.61971414 0.5401607
10 5.100001 2 -1 0 0 0.6479915 0.5401607
10 4.9 -10 -0.70711267 0 0.70710087 0.5631594 0.53936714
10 4.9 -6 -1 0 0 0.59143674 0.53936714
10 4.9 -2 -1 0 0 0.61971414 0.53936714
10 4.9 2 -1 0 0 0.6479915 0.53936714
-1.3123031 4.9 10 0.70711267 0 -0.7071009 0.5631594 0.533153
-1.3123031 4.9 6 1 0 0 0.59143674 0.533153
-1.3123031 4.9 2 1 0 0 0.61971414 0.533153
-1.3123031 4.9 -2 1 0 0 0.6479915 0.533153
2.4935906 6.8371177 -4.8866186 4.4708223e-08 -1 0 0.6836836 0.48891518
4.043848 6.8371177 -4.8866186 -4.470812e-08 -1 -0 0.67751896 0.48891518
4.343848 6.8371177 -1.728873 -1.2800213e-07 -1 -0 0.67632604 0.46659198
4.043848 6.8371177 -2.028873 -1.112386e-06 -1 -0 0.67751896 0.46871278
2.4935906 6.8371177 -2.028873 1.1123855e-06 -1 0 0.6836836 0.46871278
4.6438484 6.8371177 -4.8866186 4.4708184e-08 -1 0 0.67513305 0.48891518
6.194106 6.8371177 -4.8866186 -4.470812e-08 -1 -0 0.66896844 0.48891518
6.194106 6.8371177 -2.028873 -1.112386e-06 -1 -0 0.66896844 0.46871278
4.6438484 6.8371177 -2.028873 1.1123843e-06 -1 0 0.67513305 0.46871278
4.6438484 6.8371177 1.4288731 1.7201066e-06 -1 0 0.67513305 0.4442688
4.6438484 6.8371177 -1.4288731 -1.1123859e-06 -1 -0 0.67513305 0.46447125
6.194106 6.8371177 -1.4288731 -1.7201066e-06 -1 -0 0.66896844 0.46447125
6.194106 6.8371177 1.4288731 1.1123859e-06 -1 0 0.66896844 0.4442688
4.343848 6.8371177 1.728873 4.5968824e-07 -1 0 0.67632604 0.442148
2.4935906 6.8371177 1.428873 -1.1177041e-08 -1 -0 0.6836836 0.4442688
2.4935906 6.8371177 -1.428873 -2.780968e-07 -1 -0 0.6836836 0.46447125
4.043848 6.8371177 1.428873 1.1177048e-08 -1 0 0.67751896 0.4442688
4.043848 6.8371177 -1.428873 2.7809614e-07 -1 0 0.67751896 0.46447125
2.4935906 6.8371177 4.8866186 4.4708163e-08 -1 0 0.6836836 0.41982487
2.4935906 6.8371177 2.028873 1.1123855e-06 -1 0 0.6836836 0.4400272
4.043848 6.8371177 4.8866186 -4.4708184e-08 -1 -0 0.67751896 0.41982487
4.043848 6.8371177 2.028873 -1.1123859e-06 -1 -0 0.67751896 0.4400272
4.6438484 6.8371177 4.8866186 4.470812e-08 -1 0 0.67513305 0.41982487
4.6438484 6.8371177 2.028873 1.112386e-06 -1 0 0.67513305 0.4400272
6.194106 6.8371177 4.8866186 -4.4708184e-08 -1 -0 0.66896844 0.41982487
6.194106 6.8371177 2.028873 -1.1123843e-06 -1 -0 0.66896844 0.4400272
-1.3123031 4.9 10 0.70711267 0 -0.7071009 0.64312994 0.526939
-1.3123031 4.9 -10 0.7071009 5.357273e-08 0.70711267 0.70454615 0.533153
10 4.9 10 -0.7071009 1.0714551e-07 -0.70711267 0.7045462 0.53936714
10 4.9 -10 -0.70711267 0 0.70710087 0.64312994 0.52072483
-1.1123033 3.7506654 6.8633456 -1 0 0 0.25608858 0.7015037
-1.1123033 0.9854502 4.0981326 -1 0 0 0.1318122 0.5772272
-1.1123033 0.9854502 6.8633456 -1 0 0 0.25608858 0.5772272
-1.1123033 3.7506654 4.0981326 0 0 -1 0.25608858 0.5772272
-1.0195414 0.9854502 4.0981326 0 0 -1 0.2519196 0.45295072
-1.1123033 0.9854502 4.0981326 0 0 -1 0.25608853 0.45295072
-1.0195414 3.7506654 4.0981326 1 0 0 0.007535843 0.5772272
-1.0195414 0.9854502 6.8633456 1 0 0 0.1318122 0.7015037
-1.0195414 0.9854502 4.0981326 1 0 0 0.007535858 0.7015037
-1.0195414 3.7506654 6.8633456 0 0 1 0.2519196 0.5772272
-1.1123033 0.9854502 6.8633456 0 0 1 0.2477506 0.45295072
-1.0195414 0.9854502 6.8633456 0 0 1 0.2519196 0.45295072
-1.0195414 0.9854502 4.0981326 0 -1 0 0.2477506 0.45295084
-1.1123033 0.9854502 6.8633456 0 -1 0 0.24358161 0.5772272
-1.1123033 0.9854502 4.0981326 0 -1 0 0.24358161 0.45295084
-1.1123033 3.7506654 4.0981326 0 1 0 0.24358161 0.45295084
-1.0195414 3.7506654 6.8633456 0 1 0 0.23941262 0.5772272
-1.0195414 3.7506654 4.0981326 0 1 0 0.23941262 0.45295084
-1.1123033 3.7506654 4.0981326 -1 0 0 0.1318122 0.7015037
-1.0195414 3.7506654 4.0981326 0 0 -1 0.2519196 0.5772272
-1.0195414 3.7506654 6.8633456 1 0 0 0.1318122 0.5772272
-1.1123033 3.7506654 6.8633456 0 0 1 0.2477506 0.5772272
-1.0195414 0.9854502 6.8633456 0 -1 0 0.2477506 0.5772272
-1.1123033 3.7506654 6.8633456 0 1 0 0.24358161 0.5772272
2.8586574 0.56104445 -7.1165338 -0.57734233 0.57735425 0.57735425 0.41002208 0.76823664
2.8586574 0.23052216 -8.830083 -0.57734233 -0.57735425 -0.57735425 0.5033477 0.75023526
2.8586574 0.23052216 -7.1165338 -0.5773524 -0.5773399 0.57735854 0.41002208 0.75023526
2.8586574 0.56104445 -8.830083 -0.5773524 0.5773399 -0.5773586 0.3297367 0.78682905
6.0458703 0.23052216 -8.830083 0.5773524 -0.5773398 -0.57735854 0.50332314 0.7688277
2.8586574 0.23052216 -8.830083 -0.57734233 -0.57735425 -0.57735425 0.3297367 0.7688277
6.0458703 0.56104445 -8.830083 0.57734233 0.57735425 -0.57735425 0.40954065 0.7682366
6.0458703 0.23052216 -7.1165338 0.57734233 -0.57735425 0.57735425 0.31621498 0.75023526
6.0458703 0.23052216 -8.830083 0.5773524 -0.5773398 -0.57735854 0.40954065 0.75023526
6.0458703 0.56104445 -7.1165338 0.57735234 0.5773399 0.57735854 0.29762262 0.96100646
2.8586574 0.23052216 -7.1165338 -0.5773524 -0.5773399 0.57735854 0.31562394 0.78742003
6.0458703 0.23052216 -7.1165338 0.57734233 -0.57735425 0.57735425 0.315624 0.96100646
6.0458703 0.23052216 -8.830083 0.5773524 -0.5773398 -0.57735854 0.41002208 0.9610064
2.8586574 0.23052216 -7.1165338 -0.5773524 -0.5773399 0.57735854 0.50334775 0.78742003
2.8586574 0.23052216 -8.830083 -0.57734233 -0.57735425 -0.57735425 0.41002208 0.78742003
2.8586574 0.56104445 -8.830083 -0.5773524 0.5773399 -0.5773586 0.31621498 0.78742003
6.0458703 0.56104445 -7.1165338 0.57735234 0.5773399 0.57735854 0.40954065 0.9610064
6.0458703 0.56104445 -8.830083 0.57734233 0.57735425 -0.57735425 0.31621498 0.9610064
2.8586574 0.23052216 -7.1165338 -0.57734233 0.57735425 0.57735425 0.026183806 0.98608
2.8586574 -0.10000014 -8.830083 -0.57734233 -0.57735425 -0.57735425 0.10605218 0.9514174
2.8586574 -0.10000014 -7.1165338 -0.57735217 -0.57735807 0.5773407 0.026183806 0.9514174
2.8586574 0.23052216 -8.830083 -0.57735217 0.57735807 -0.5773407 0.076506816 0.90520054
3.0386014 -0.10000014 -8.830083 0.57735217 -0.57735807 -0.57734066 0.05134531 0.9514174
2.8586574 -0.10000014 -8.830083 -0.57734233 -0.57735425 -0.57735425 0.076506816 0.9514174
3.0386014 0.23052216 -8.830083 0.57734233 0.57735425 -0.57735425 0.18592057 0.98608
3.0386014 -0.10000014 -7.1165338 0.57734233 -0.57735425 0.57735425 0.10605218 0.9514174
3.0386014 -0.10000014 -8.830083 0.57735217 -0.57735807 -0.57734066 0.18592057 0.9514174
3.0386014 0.23052216 -7.1165338 0.57735217 0.57735807 0.57734066 0.026183806 0.90520054
2.8586574 -0.10000014 -7.1165338 -0.57735217 -0.57735807 0.5773407 0.05134531 0.9514174
3.0386014 -0.10000014 -7.1165338 0.57734233 -0.57735425 0.57735425 0.026183806 0.9514174
3.0386014 -0.10000014 -8.830083 0.57735217 -0.57735807 -0.57734066 0.076506816 0.8208632
2.8586574 -0.10000014 -7.1165338 -0.57735217 -0.57735807 0.5773407 0.19548735 0.7927508
2.8586574 -0.10000014 -8.830083 -0.57734233 -0.57735425 -0.57735425 0.076506816 0.7927508
2.8586574 0.23052216 -8.830083 -0.57735217 0.57735807 -0.5773407 0.076506816 0.8208632
3.0386014 0.23052216 -7.1165338 0.57735217 0.57735807 0.57734066 0.19548735 0.8489756
3.0386014 0.23052216 -8.830083 0.57734233 0.57735425 -0.57735425 0.076506816 0.8489756
5.8659263 0.23052216 -7.1165338 -0.57734233 0.57735425 0.57735425 0.19630942 0.90520054
5.8659263 -0.10000014 -8.830083 -0.57734233 -0.57735425 -0.57735425 0.076506816 0.9283089
5.8659263 -0.10000014 -7.1165338 -0.57735217 -0.57735807 0.57734066 0.19630942 0.9283089
5.8659263 0.23052216 -8.830083 -0.57735217 0.57735807 -0.57734066 0.076506816 0.8589837
6.0458703 -0.10000014 -8.830083 0.57735217 -0.57735807 -0.5773407 0.05134531 0.90520054
5.8659263 -0.10000014 -8.830083 -0.57734233 -0.57735425 -0.57735425 0.076506816 0.90520054
6.0458703 0.23052216 -8.830083 0.57734233 0.57735425 -0.57735425 0.076506816 0.9283089
6.0458703 -0.10000014 -7.1165338 0.57734233 -0.57735425 0.57735425 0.19630942 0.9514174
6.0458703 -0.10000014 -8.830083 0.57735217 -0.57735807 -0.5773407 0.076506816 0.9514174
6.0458703 0.23052216 -7.1165338 0.57735217 0.57735807 0.5773407 0.026183806 0.8589837
5.8659263 -0.10000014 -7.1165338 -0.57735217 -0.57735807 0.57734066 0.05134531 0.90520054
6.0458703 -0.10000014 -7.1165338 0.57734233 -0.57735425 0.57735425 0.026183806 0.90520054
6.0458703 -0.10000014 -8.830083 0.57735217 -0.57735807 -0.5773407 0.076506816 0.90520054
5.8659263 -0.10000014 -7.1165338 -0.57735217 -0.57735807 0.57734066 0.19548735 0.877088
5.8659263 -0.10000014 -8.830083 -0.57734233 -0.57735425 -0.57735425 0.076506816 0.877088
5.8659263 0.23052216 -8.830083 -0.57735217 0.57735807 -0.57734066 0.076506816 0.8489756
6.0458703 0.23052216 -7.1165338 0.57735217 0.57735807 0.5773407 0.19548735 0.877088
6.0458703 0.23052216 -8.830083 0.57734233 0.57735425 -0.57735425 0.076506816 0.877088
2.8586574 0.56104445 -8.830083 -0.5773524 0.5773399 -0.5773586 0.5033477 0.7682366
6.0458703 0.56104445 -8.830083 0.57734233 0.57735425 -0.57735425 0.50332314 0.786829
6.0458703 0.56104445 -7.1165338 0.57735234 0.5773399 0.57735854 0.31621498 0.7682366
2.8586574 0.56104445 -7.1165338 -0.57734233 0.57735425 0.57735425 0.29762262 0.78742003
6.0458703 0.23052216 -7.1165338 0.57734233 -0.57735425 0.57735425 0.50334775 0.9610064
2.8586574 0.56104445 -7.1165338 -0.57734233 0.57735425 0.57735425 0.40954065 0.78742003
2.8586574 0.23052216 -8.830083 -0.57735217 0.57735807 -0.5773407 0.10605218 0.98608
3.0386014 0.23052216 -8.830083 0.57734233 0.57735425 -0.57735425 0.05134531 0.90520054
3.0386014 0.23052216 -7.1165338 0.57735217 0.57735807 0.57734066 0.10605218 0.98608
2.8586574 0.23052216 -7.1165338 -0.57734233 0.57735425 0.57735425 0.05134531 0.90520054
3.0386014 -0.10000014 -7.1165338 0.57734233 -0.57735425 0.57735425 0.19548735 0.8208632
2.8586574 0.23052216 -7.1165338 -0.57734233 0.57735425 0.57735425 0.19548735 0.8208632
5.8659263 0.23052216 -8.830083 -0.57735217 0.57735807 -0.57734066 0.076506816 0.90520054
6.0458703 0.23052216 -8.830083 0.57734233 0.57735425 -0.57735425 0.05134531 0.8589837
6.0458703 0.23052216 -7.1165338 0.57735217 0.57735807 0.5773407 0.19630942 0.9283089
5.8659263 0.23052216 -7.1165338 -0.57734233 0.57735425 0.57735425 0.05134531 0.8589837
6.0458703 -0.10000014 -7.1165338 0.57734233 -0.57735425 0.57735425 0.19548735 0.90520054
5.8659263 0.23052216 -7.1165338 -0.57734233 0.57735425 0.57735425 0.19548735 0.8489756
2.8586574 0.56104445 8.877516 -0.57734233 0.57735425 0.57735425 0.41002208 0.76823664
2.8586574 0.23052216 7.163966 -0.57734233 -0.57735425 -0.57735425 0.5033477 0.75023526
2.8586574 0.23052216 8.877516 -0.5773524 -0.5773398 0.57735854 0.41002208 0.75023526
2.8586574 0.56104445 7.163966 -0.5773524 0.5773398 -0.57735854 0.3297367 0.78682905
6.0458703 0.23052216 7.163966 0.5773524 -0.5773398 -0.57735854 0.50332314 0.7688277
2.8586574 0.23052216 7.163966 -0.57734233 -0.57735425 -0.57735425 0.3297367 0.7688277
6.0458703 0.56104445 7.163966 0.57734233 0.57735425 -0.57735425 0.40954065 0.7682366
6.0458703 0.23052216 8.877516 0.57734233 -0.57735425 0.57735425 0.31621498 0.75023526
6.0458703 0.23052216 7.163966 0.5773524 -0.5773398 -0.57735854 0.40954065 0.75023526
6.0458703 0.56104445 8.877516 0.5773524 0.5773398 0.57735854 0.29762262 0.96100646
2.8586574 0.23052216 8.877516 -0.5773524 -0.5773398 0.57735854 0.31562394 0.78742003
6.0458703 0.23052216 8.877516 0.57734233 -0.57735425 0.57735425 0.315624 0.96100646
6.0458703 0.23052216 7.163966 0.5773524 -0.5773398 -0.57735854 0.41002208 0.9610064
2.8586574 0.23052216 8.877516 -0.5773524 -0.5773398 0.57735854 0.50334775 0.78742003
2.8586574 0.23052216 7.163966 -0.57734233 -0.57735425 -0.57735425 0.41002208 0.78742003
2.8586574 0.56104445 7.163966 -0.5773524 0.5773398 -0.57735854 0.31621498 0.78742003
6.0458703 0.56104445 8.877516 0.5773524 0.5773398 0.57735854 0.40954065 0.9610064
6.0458703 0.56104445 7.163966 0.57734233 0.57735425 -0.57735425 0.31621498 0.9610064
2.8586574 0.23052216 8.877516 -0.57734233 0.57735425 0.57735425 0.026183806 0.98608
2.8586574 -0.10000014 7.163966 -0.57734233 -0.57735425 -0.57735425 0.10605218 0.9514174
2.8586574 -0.10000014 8.877516 -0.57735217 -0.577358 0.57734066 0.026183806 0.9514174
2.8586574 0.23052216 7.163966 -0.57735217 0.577358 -0.57734066 0.076506816 0.90520054
3.0386014 -0.10000014 7.163966 0.5773522 -0.57735807 -0.57734066 0.05134531 0.9514174
2.8586574 -0.10000014 7.163966 -0.57734233 -0.57735425 -0.57735425 0.076506816 0.9514174
3.0386014 0.23052216 7.163966 0.57734233 0.57735425 -0.57735425 0.18592057 0.98608
3.0386014 -0.10000014 8.877516 0.57734233 -0.57735425 0.57735425 0.10605218 0.9514174
3.0386014 -0.10000014 7.163966 0.5773522 -0.57735807 -0.57734066 0.18592057 0.9514174
3.0386014 0.23052216 8.877516 0.5773522 0.57735807 0.57734066 0.026183806 0.90520054
2.8586574 -0.10000014 8.877516 -0.57735217 -0.577358 0.57734066 0.05134531 0.9514174
3.0386014 -0.10000014 8.877516 0.57734233 -0.57735425 0.57735425 0.026183806 0.9514174
3.0386014 -0.10000014 7.163966 0.5773522 -0.57735807 -0.57734066 0.076506816 0.8208632
2.8586574 -0.10000014 8.877516 -0.57735217 -0.577358 0.57734066 0.19548735 0.7927508
2.8586574 -0.10000014 7.163966 -0.57734233 -0.57735425 -0.57735425 0.076506816 0.7927508
2.8586574 0.23052216 7.163966 -0.57735217 0.577358 -0.57734066 0.076506816 0.8208632
3.0386014 0.23052216 8.877516 0.5773522 0.57735807 0.57734066 0.19548735 0.8489756
3.0386014 0.23052216 7.163966 0.57734233 0.57735425 -0.57735425 0.076506816 0.8489756
5.8659263 0.23052216 8.877516 -0.57734233 0.57735425 0.57735425 0.19630942 0.90520054
5.8659263 -0.10000014 7.163966 -0.57734233 -0.57735425 -0.57735425 0.076506816 0.9283089
5.8659263 -0.10000014 8.877516 -0.5773522 -0.57735807 0.57734066 0.19630942 0.9283089
5.8659263 0.23052216 7.163966 -0.5773522 0.57735807 -0.57734066 0.076506816 0.8589837
6.0458703 -0.10000014 7.163966 0.57735217 -0.577358 -0.57734066 0.05134531 0.90520054
5.8659263 -0.10000014 7.163966 -0.57734233 -0.57735425 -0.57735425 0.076506816 0.90520054
6.0458703 0.23052216 7.163966 0.57734233 0.57735425 -0.57735425 0.076506816 0.9283089
6.0458703 -0.10000014 8.877516 0.57734233 -0.57735425 0.57735425 0.19630942 0.9514174
6.0458703 -0.10000014 7.163966 0.57735217 -0.577358 -0.57734066 0.076506816 0.9514174
6.0458703 0.23052216 8.877516 0.57735217 0.577358 0.57734066 0.026183806 0.8589837
5.8659263 -0.10000014 8.877516 -0.5773522 -0.57735807 0.57734066 0.05134531 0.90520054
6.0458703 -0.10000014 8.877516 0.57734233 -0.57735425 0.57735425 0.026183806 0.90520054
6.0458703 -0.10000014 7.163966 0.57735217 -0.577358 -0.57734066 0.076506816 0.90520054
5.8659263 -0.10000014 8.877516 -0.5773522 -0.57735807 0.57734066 0.19548735 0.877088
5.8659263 -0.10000014 7.163966 -0.57734233 -0.57735425 -0.57735425 0.076506816 0.877088
5.8659263 0.23052216 7.163966 -0.5773522 0.57735807 -0.57734066 0.076506816 0.8489756
6.0458703 0.23052216 8.877516 0.57735217 0.577358 0.57734066 0.19548735 0.877088
6.0458703 0.23052216 7.163966 0.57734233 0.57735425 -0.57735425 0.076506816 0.877088
2.8586574 0.56104445 7.163966 -0.5773524 0.5773398 -0.57735854 0.5033477 0.7682366
6.0458703 0.56104445 7.163966 0.57734233 0.57735425 -0.57735425 0.50332314 0.786829
6.0458703 0.56104445 8.877516 0.5773524 0.5773398 0.57735854 0.31621498 0.7682366
2.8586574 0.56104445 8.877516 -0.57734233 0.57735425 0.57735425 0.29762262 0.78742003
6.0458703 0.23052216 8.877516 0.57734233 -0.57735425 0.57735425 0.50334775 0.9610064
2.8586574 0.56104445 8.877516 -0.57734233 0.57735425 0.57735425 0.40954065 0.78742003
2.8586574 0.23052216 7.163966 -0.57735217 0.577358 -0.57734066 0.10605218 0.98608
3.0386014 0.23052216 7.163966 0.57734233 0.57735425 -0.57735425 0.05134531 0.90520054
3.0386014 0.23052216 8.877516 0.5773522 0.57735807 0.57734066 0.10605218 0.98608
2.8586574 0.23052216 8.877516 -0.57734233 0.57735425 0.57735425 0.05134531 0.90520054
3.0386014 -0.10000014 8.877516 0.57734233 -0.57735425 0.57735425 0.19548735 0.8208632
2.8586574 0.23052216 8.877516 -0.57734233 0.57735425 0.57735425 0.19548735 0.8208632
5.8659263 0.23052216 7.163966 -0.5773522 0.57735807 -0.57734066 0.076506816 0.90520054
6.0458703 0.23052216 7.163966 0.57734233 0.57735425 -0.57735425 0.05134531 0.8589837
6.0458703 0.23052216 8.877516 0.57735217 0.577358 0.57734066 0.19630942 0.9283089
5.8659263 0.23052216 8.877516 -0.57734233 0.57735425 0.57735425 0.05134531 0.8589837
6.0458703 -0.10000014 8.877516 0.57734233 -0.57735425 0.57735425 0.19548735 0.90520054
5.8659263 0.23052216 8.877516 -0.57734233 0.57735425 0.57735425 0.19548735 0.8489756
8.5638485 1.3969965 0.5475137 -0.5773721 0.5773394 0.5773394 0.7344843 0.73745143
8.5638485 0.30196923 -0.5475137 -0.5773721 -0.5773394 -0.5773394 0.7813517 0.78431886
8.5638485 0.30196923 0.5475137 -0.57732844 -0.57736117 0.57736117 0.7813517 0.73745143
8.5638485 1.3969965 -0.5475137 -0.57732844 0.57736117 -0.57736117 0.6263813 0.73745143
9.658876 0.30196923 -0.5475137 0.57732844 -0.57736117 -0.57736117 0.6804328 0.791503
8.5638485 0.30196923 -0.5475137 -0.5773721 -0.5773394 -0.5773394 0.6804328 0.73745143
9.658876 1.3969965 -0.5475137 0.5773721 0.5773394 -0.5773394 0.6804328 0.84555453
9.658876 0.30196923 0.5475137 0.5773721 -0.5773394 0.5773394 0.7344844 0.791503
9.658876 0.30196923 -0.5475137 0.57732844 -0.57736117 -0.57736117 0.73448443 0.84555453
9.658876 1.3969965 0.5475137 0.57732844 0.57736117 0.57736117 0.6804328 0.791503
8.5638485 0.30196923 0.5475137 -0.57732844 -0.57736117 0.57736117 0.7344843 0.73745143
9.658876 0.30196923 -0.5475137 0.57732844 -0.57736117 -0.57736117 0.66873384 0.94652313
8.5638485 0.30196923 0.5475137 -0.57732844 -0.57736117 0.57736117 0.71560127 0.89965576
8.5638485 0.30196923 -0.5475137 -0.5773721 -0.5773394 -0.5773394 0.66873384 0.89965576
8.5638485 1.3969965 -0.5475137 -0.57732844 0.57736117 -0.57736117 0.6146822 0.8924715
9.658876 1.3969965 0.5475137 0.57732844 0.57736117 0.57736117 0.66873384 0.94652313
9.658876 1.3969965 -0.5475137 0.5773721 0.5773394 -0.5773394 0.6146822 0.94652313
8.422724 0.30196923 0.6886383 -0.57733196 0.5773595 0.5773595 0.5832879 0.8821344
8.422724 -0.09999998 -0.6886383 -0.57733196 -0.5773595 -0.5773595 0.5634463 0.8141507
8.422724 -0.09999998 0.6886383 -0.5773486 -0.5773813 0.57732105 0.5634463 0.8821344
8.422724 0.30196923 -0.6886383 -0.5773486 0.5773813 -0.57732105 0.5634463 0.746167
9.800001 -0.09999998 -0.6886383 0.5773486 -0.5773813 -0.57732105 0.5832879 0.8141507
8.422724 -0.09999998 -0.6886383 -0.57733196 -0.5773595 -0.5773595 0.5832879 0.746167
9.800001 0.30196923 -0.6886383 0.57733196 0.5773595 -0.5773595 0.8199144 0.74146086
9.800001 -0.09999998 0.6886383 0.57733196 -0.5773595 0.5773595 0.80648357 0.7874795
9.800001 -0.09999998 -0.6886383 0.5773486 -0.5773813 -0.57732105 0.80648357 0.74146086
9.800001 0.30196923 0.6886383 0.5773486 0.5773813 0.57732105 0.5832879 0.8821344
8.422724 -0.09999998 0.6886383 -0.5773486 -0.5773813 0.57732105 0.5634463 0.9501181
9.800001 -0.09999998 0.6886383 0.57733196 -0.5773595 0.5773595 0.5634463 0.8821344
9.800001 -0.09999998 -0.6886383 0.5773486 -0.5773813 -0.57732105 0.71560127 0.9193987
8.422724 -0.09999998 0.6886383 -0.5773486 -0.5773813 0.57732105 0.73534423 0.89965576
8.422724 -0.09999998 -0.6886383 -0.57733196 -0.5773595 -0.5773595 0.71560127 0.89965576
8.422724 0.30196923 -0.6886383 -0.5773486 0.5773813 -0.57732105 0.5634463 0.9501181
9.800001 0.30196923 0.6886383 0.5773486 0.5773813 0.57732105 0.5827779 0.9694498
9.800001 0.30196923 -0.6886383 0.57733196 0.5773595 -0.5773595 0.5634463 0.9694498
8.422724 1.7989659 0.6886383 -0.577341 0.5773686 0.5773412 0.80386794 0.94538635
8.422724 1.3969965 -0.6886383 -0.57733184 -0.5773595 -0.5773595 0.8168367 0.9898215
8.422724 1.3969965 0.6886383 -0.5773394 -0.5773721 0.5773394 0.8168367 0.94538635
9.800001 1.7989659 -0.6886383 0.57733184 0.5773595 -0.5773595 0.80386794 0.94538635
9.800001 1.3969965 0.6886383 0.577341 -0.5773686 0.5773412 0.8168367 0.90095127
9.800001 1.3969965 -0.6886383 0.57734853 -0.5773812 -0.57732105 0.8168367 0.94538635
9.800001 1.3969965 -0.6886383 0.57734853 -0.5773812 -0.57732105 0.66194385 0.98963565
8.422724 1.3969965 0.6886383 -0.5773394 -0.5773721 0.5773394 0.67144305 0.9801363
8.422724 1.3969965 -0.6886383 -0.57733184 -0.5773595 -0.5773595 0.66194385 0.9801363
8.422724 1.7989659 -0.6886383 -0.57734853 0.5773812 -0.57732105 0.6524445 0.9801363
9.800001 1.7989659 0.6886383 0.5773394 0.5773721 0.5773394 0.66194385 0.98963565
9.800001 1.7989659 -0.6886383 0.57733184 0.5773595 -0.5773595 0.6524445 0.98963565
8.422724 1.7989659 -0.6886383 -0.57734853 0.5773812 -0.57732105 0.81757295 0.856516
9.800001 1.3969965 -0.6886383 0.57734853 -0.5773812 -0.57732105 0.80386794 0.80955845
8.422724 1.3969965 -0.6886383 -0.57733184 -0.5773595 -0.5773595 0.80386794 0.856516
8.422724 1.7989659 0.6886383 -0.577341 0.5773686 0.5773412 0.80386794 0.856516
8.422724 1.3969965 0.6886383 -0.5773394 -0.5773721 0.5773394 0.8168367 0.856516
8.5638485 1.3969965 -0.5475137 -0.57732844 0.57736117 -0.57736117 0.7344844 0.78431886
9.658876 1.3969965 -0.5475137 0.5773721 0.5773394 -0.5773394 0.6263813 0.791503
8.5638485 1.3969965 0.5475137 -0.5773721 0.5773394 0.5773394 0.6804328 0.73745143
9.658876 0.30196923 0.5475137 0.5773721 -0.5773394 0.5773394 0.71560127 0.94652313
8.5638485 1.3969965 0.5475137 -0.5773721 0.5773394 0.5773394 0.66873384 0.8924715
8.422724 0.30196923 -0.6886383 -0.5773486 0.5773813 -0.57732105 0.5832878 0.8141507
9.800001 0.30196923 -0.6886383 0.57733196 0.5773595 -0.5773595 0.5634463 0.8141507
9.800001 0.30196923 0.6886383 0.5773486 0.5773813 0.57732105 0.8199144 0.7874795
8.422724 0.30196923 0.6886383 -0.57733196 0.5773595 0.5773595 0.5832879 0.9501181
9.800001 -0.09999998 0.6886383 0.57733196 -0.5773595 0.5773595 0.73534423 0.9193987
8.422724 0.30196923 0.6886383 -0.57733196 0.5773595 0.5773595 0.5827779 0.9501181
8.422724 1.7989659 -0.6886383 -0.57734853 0.5773812 -0.57732105 0.80386794 0.9898215
9.800001 1.7989659 0.6886383 0.5773394 0.5773721 0.5773394 0.80386794 0.90095127
9.800001 1.3969965 0.6886383 0.577341 -0.5773686 0.5773412 0.67144305 0.98963565
8.422724 1.7989659 0.6886383 -0.577341 0.5773686 0.5773412 0.66194385 0.9801363
9.800001 1.7989659 -0.6886383 0.57733184 0.5773595 -0.5773595 0.81757283 0.80955845
-1.1123033 3.7506654 -4.1002116 -1 0 0 0.51689005 0.7015037
-1.1123033 0.9854502 -6.8654246 -1 0 0 0.39261365 0.5772272
-1.1123033 0.9854502 -4.1002116 -1 0 0 0.51689005 0.5772272
-1.1123033 3.7506654 -6.8654246 0 0 -1 0.51689005 0.5772272
-1.0195414 0.9854502 -6.8654246 0 0 -1 0.51272106 0.45295072
-1.1123033 0.9854502 -6.8654246 0 0 -1 0.51689 0.45295072
-1.0195414 3.7506654 -6.8654246 1 0 0 0.2683373 0.5772272
-1.0195414 0.9854502 -4.1002116 1 0 0 0.39261365 0.7015037
-1.0195414 0.9854502 -6.8654246 1 0 0 0.2683373 0.7015037
-1.0195414 3.7506654 -4.1002116 0 0 1 0.51272106 0.5772272
-1.1123033 0.9854502 -4.1002116 0 0 1 0.5085521 0.45295072
-1.0195414 0.9854502 -4.1002116 0 0 1 0.51272106 0.45295072
-1.0195414 0.9854502 -6.8654246 0 -1 0 0.5085521 0.45295084
-1.1123033 0.9854502 -4.1002116 0 -1 0 0.5043831 0.5772272
-1.1123033 0.9854502 -6.8654246 0 -1 0 0.5043831 0.45295084
-1.1123033 3.7506654 -6.8654246 0 1 0 0.5043831 0.45295084
-1.0195414 3.7506654 -4.1002116 0 1 0 0.5002141 0.5772272
-1.0195414 3.7506654 -6.8654246 0 1 0 0.5002141 0.45295084
-1.1123033 3.7506654 -6.8654246 -1 0 0 0.39261365 0.7015037
-1.0195414 3.7506654 -6.8654246 0 0 -1 0.51272106 0.5772272
-1.0195414 3.7506654 -4.1002116 1 0 0 0.39261365 0.5772272
-1.1123033 3.7506654 -4.1002116 0 0 1 0.5085521 0.5772272
-1.0195414 0.9854502 -4.1002116 0 -1 0 0.5085521 0.5772272
-1.1123033 3.7506654 -4.1002116 0 1 0 0.5043831 0.5772272
9.800003 3.7506654 -6.8654246 1 0 0 0.77448004 0.7015037
9.800003 0.98545027 -4.1002116 1 0 0 0.65020365 0.5772272
9.800003 0.98545027 -6.8654246 1 0 0 0.77448004 0.5772272
9.800003 3.7506654 -4.1002116 0 0 1 0.77448004 0.5772272
9.707241 0.98545027 -4.1002116 0 0 1 0.77031106 0.45295072
9.800003 0.98545027 -4.1002116 0 0 1 0.7744799 0.45295072
9.707241 3.7506654 -4.1002116 -1 0 0 0.52592725 0.5772272
9.707241 0.98545027 -6.8654246 -1 0 0 0.65020365 0.7015037
9.707241 0.98545027 -4.1002116 -1 0 0 0.52592725 0.7015037
9.707241 3.7506654 -6.8654246 0 0 -1 0.77031106 0.5772272
9.800003 0.98545027 -6.8654246 0 0 -1 0.7661421 0.45295072
9.707241 0.98545027 -6.8654246 0 0 -1 0.77031106 0.45295072
9.707241 0.98545027 -4.1002116 0 -1 0 0.7661421 0.45295084
9.800003 0.98545027 -6.8654246 0 -1 0 0.7619731 0.5772272
9.800003 0.98545027 -4.1002116 0 -1 0 0.7619731 0.45295084
9.800003 3.7506654 -4.1002116 0 1 0 0.7619731 0.45295084
9.707241 3.7506654 -6.8654246 0 1 0 0.7578041 0.5772272
9.707241 3.7506654 -4.1002116 0 1 0 0.7578041 0.45295084
9.800003 3.7506654 -4.1002116 1 0 0 0.65020365 0.7015037
9.707241 3.7506654 -4.1002116 0 0 1 0.77031106 0.5772272
9.707241 3.7506654 -6.8654246 -1 0 0 0.65020365 0.5772272
9.800003 3.7506654 -6.8654246 0 0 -1 0.7661421 0.5772272
9.707241 0.98545027 -6.8654246 0 -1 0 0.7661421 0.5772272
9.800003 3.7506654 -6.8654246 0 1 0 0.7619731 0.5772272
9.800003 3.7506654 4.098132 1 0 0 0.2557184 0.44486395
9.800003 0.98545027 6.863345 1 0 0 0.131442 0.32058743
9.800003 0.98545027 4.098132 1 0 0 0.2557184 0.32058743
9.800003 3.7506654 6.863345 0 0 1 0.2557184 0.32058743
9.707241 0.98545027 6.863345 0 0 1 0.25154942 0.19631097
9.800003 0.98545027 6.863345 0 0 1 0.2557183 0.19631097
9.707241 3.7506654 6.863345 -1 0 0 0.007165596 0.32058743
9.707241 0.98545027 4.098132 -1 0 0 0.131442 0.44486395
9.707241 0.98545027 6.863345 -1 0 0 0.007165596 0.44486395
9.707241 3.7506654 4.098132 0 0 -1 0.25154942 0.32058743
9.800003 0.98545027 4.098132 0 0 -1 0.24738042 0.19631097
9.707241 0.98545027 4.098132 0 0 -1 0.25154942 0.19631097
9.707241 0.98545027 6.863345 0 -1 0 0.24738042 0.19631109
9.800003 0.98545027 4.098132 0 -1 0 0.24321143 0.32058743
9.800003 0.98545027 6.863345 0 -1 0 0.24321143 0.19631109
9.800003 3.7506654 6.863345 0 1 0 0.24321143 0.19631109
9.707241 3.7506654 4.098132 0 1 0 0.23904245 0.32058743
9.707241 3.7506654 6.863345 0 1 0 0.23904245 0.19631109
9.800003 3.7506654 6.863345 1 0 0 0.131442 0.44486395
9.707241 3.7506654 6.863345 0 0 1 0.25154942 0.32058743
9.707241 3.7506654 4.098132 -1 0 0 0.131442 0.32058743
9.800003 3.7506654 4.098132 0 0 -1 0.24738042 0.32058743
9.707241 0.98545027 4.098132 0 -1 0 0.24738042 0.32058743
9.800003 3.7506654 4.098132 0 1 0 0.24321143 0.32058743
3 0 1 2
3 3 4 5
3 1 6 2
3 7 8 9
3 10 11 12
3 11 13 12
3 8 14 9
3 15 16 17
3 18 19 20
3 21 22 19
3 23 24 25
3 26 27 24
3 28 29 30
3 31 32 29
3 33 34 35
3 36 37 34
3 38 39 16
3 40 41 39
3 42 43 44
3 45 46 43
3 47 48 49
3 50 51 48
3 52 53 54
3 55 56 53
3 4 57 5
3 58 6 59
3 60 61 6
3 43 61 62
3 63 60 58
3 64 62 60
3 44 62 65
3 21 66 67
3 68 69 66
3 39 69 70
3 18 68 21
3 71 70 68
3 16 70 72
3 73 13 74
3 75 76 13
3 34 76 77
3 78 75 73
3 79 77 75
3 35 77 80
3 50 81 82
3 83 84 81
3 29 84 85
3 47 83 50
3 86 85 83
3 30 85 87
3 88 18 20
3 89 71 88
3 17 72 89
3 90 91 92
3 93 37 90
3 12 76 93
3 94 90 92
3 95 93 90
3 96 12 93
3 97 98 99
3 100 46 97
3 2 61 100
3 101 97 99
3 102 100 97
3 103 2 100
3 86 104 87
3 87 105 30
3 30 106 28
3 105 107 106
3 108 109 107
3 110 20 109
3 111 112 113
3 114 27 111
3 115 116 114
3 5 117 115
3 118 14 119
3 120 121 14
3 122 121 123
3 53 124 122
3 125 120 118
3 126 123 120
3 127 122 123
3 54 122 128
3 40 129 130
3 131 132 129
3 133 132 134
3 48 135 133
3 38 131 40
3 15 134 131
3 136 134 137
3 49 133 136
3 138 57 139
3 140 117 57
3 141 117 142
3 24 116 141
3 143 140 138
3 144 142 140
3 145 142 146
3 25 141 145
3 31 147 148
3 149 150 147
3 151 150 152
3 19 153 151
3 28 149 31
3 106 152 149
3 107 151 152
3 20 151 109
3 47 154 86
3 49 155 154
3 136 156 155
3 137 17 156
3 157 158 159
3 160 56 157
3 161 124 160
3 9 121 161
3 162 157 159
3 163 160 157
3 164 161 160
3 165 9 161
3 166 111 113
3 167 114 111
3 168 115 114
3 169 5 115
3 170 108 105
3 171 172 173
3 170 104 171
3 173 108 174
3 175 172 104
3 176 155 177
3 175 154 176
3 177 172 178
3 179 172 180
3 181 156 182
3 180 155 181
3 182 183 179
3 184 108 185
3 186 172 183
3 185 172 187
3 186 110 184
3 188 110 189
3 190 183 89
3 191 110 183
3 190 88 188
3 192 183 193
3 194 156 17
3 193 156 195
3 194 89 192
3 0 196 1
3 3 197 4
3 1 59 6
3 7 198 8
3 10 199 11
3 11 74 13
3 8 119 14
3 15 38 16
3 18 21 19
3 21 67 22
3 23 26 24
3 26 112 27
3 28 31 29
3 31 148 32
3 33 36 34
3 36 91 37
3 38 40 39
3 40 130 41
3 42 45 43
3 45 98 46
3 47 50 48
3 50 82 51
3 52 55 53
3 55 158 56
3 4 139 57
3 58 60 6
3 60 62 61
3 43 46 61
3 63 64 60
3 64 65 62
3 44 43 62
3 21 68 66
3 68 70 69
3 39 41 69
3 18 71 68
3 71 72 70
3 16 39 70
3 73 75 13
3 75 77 76
3 34 37 76
3 78 79 75
3 79 80 77
3 35 34 77
3 50 83 81
3 83 85 84
3 29 32 84
3 47 86 83
3 86 87 85
3 30 29 85
3 88 71 18
3 89 72 71
3 17 16 72
3 90 37 91
3 93 76 37
3 12 13 76
3 94 95 90
3 95 96 93
3 96 10 12
3 97 46 98
3 100 61 46
3 2 6 61
3 101 102 97
3 102 103 100
3 103 0 2
3 86 154 104
3 87 104 105
3 30 105 106
3 105 108 107
3 108 110 109
3 110 88 20
3 111 27 112
3 114 116 27
3 115 117 116
3 5 57 117
3 118 120 14
3 120 123 121
3 122 124 121
3 53 56 124
3 125 126 120
3 126 127 123
3 127 128 122
3 54 53 122
3 40 131 129
3 131 134 132
3 133 135 132
3 48 51 135
3 38 15 131
3 15 137 134
3 136 133 134
3 49 48 133
3 138 140 57
3 140 142 117
3 141 116 117
3 24 27 116
3 143 144 140
3 144 146 142
3 145 141 142
3 25 24 141
3 31 149 147
3 149 152 150
3 151 153 150
3 19 22 153
3 28 106 149
3 106 107 152
3 107 109 151
3 20 19 151
3 47 49 154
3 49 136 155
3 136 137 156
3 137 15 17
3 157 56 158
3 160 124 56
3 161 121 124
3 9 14 121
3 162 163 157
3 163 164 160
3 164 165 161
3 165 7 9
3 166 167 111
3 167 168 114
3 168 169 115
3 169 3 5
3 170 174 108
3 171 104 172
3 170 105 104
3 173 172 108
3 175 178 172
3 176 154 155
3 175 104 154
3 177 155 172
3 179 183 172
3 181 155 156
3 180 172 155
3 182 156 183
3 184 110 108
3 186 187 172
3 185 108 172
3 186 183 110
3 188 88 110
3 190 191 183
3 191 189 110
3 190 89 88
3 192 89 183
3 194 195 156
3 193 183 156
3 194 17 89
3 200 201 202
3 203 204 205
3 206 207 208
3 209 210 211
3 212 213 214
3 215 216 217
3 200 218 201
3 203 219 204
3 206 220 207
3 209 221 210
3 212 222 213
3 215 223 216
3 224 225 226
3 227 228 229
3 230 231 232
3 233 234 235
3 236 237 238
3 239 240 241
3 242 243 244
3 245 246 247
3 248 249 250
3 251 252 253
3 254 255 256
3 257 258 259
3 260 261 262
3 263 264 265
3 266 267 268
3 269 270 271
3 272 273 274
3 275 276 277
3 224 278 225
3 227 279 228
3 230 280 231
3 233 281 234
3 236 282 237
3 239 283 240
3 242 284 243
3 245 285 246
3 248 286 249
3 251 287 252
3 254 288 255
3 257 289 258
3 260 290 261
3 263 291 264
3 266 292 267
3 269 293 270
3 272 294 273
3 275 295 276
3 296 297 298
3 299 300 301
3 302 303 304
3 305 306 307
3 308 309 310
3 311 312 313
3 314 315 316
3 317 318 319
3 320 321 322
3 323 324 325
3 326 327 328
3 329 330 331
3 332 333 334
3 335 336 337
3 338 339 340
3 341 342 343
3 344 345 346
3 347 348 349
3 296 350 297
3 299 351 300
3 302 352 303
3 305 353 306
3 308 354 309
3 311 355 312
3 314 356 315
3 317 357 318
3 320 358 321
3 323 359 324
3 326 360 327
3 329 361 330
3 332 362 333
3 335 363 336
3 338 364 339
3 341 365 342
3 344 366 345
3 347 367 348
3 368 369 370
3 371 372 373
3 374 375 376
3 377 378 375
3 379 380 381
3 382 383 384
3 385 386 387
3 388 389 390
3 391 392 393
3 394 395 396
3 397 398 399
3 400 401 402
3 403 404 405
3 406 407 408
3 409 410 411
3 412 413 414
3 415 416 417
3 407 418 419
3 368 420 369
3 371 421 372
3 374 377 375
3 377 422 378
3 379 423 380
3 382 424 383
3 385 425 386
3 388 426 389
3 391 427 392
3 394 428 395
3 397 429 398
3 400 430 401
3 403 431 404
3 406 432 407
3 409 433 410
3 412 434 413
3 415 435 416
3 407 432 418
3 436 437 438
3 439 440 441
3 442 443 444
3 445 446 447
3 448 449 450
3 451 452 453
3 436 454 437
3 439 455 440
3 442 456 443
3 445 457 446
3 448 458 449
3 451 459 452
3 460 461 462
3 463 464 465
3 466 467 468
3 469 470 471
3 472 473 474
3 475 476 477
3 460 478 461
3 463 479 464
3 466 480 467
3 469 481 470
3 472 482 473
3 475 483 476
3 484 485 486
3 487 488 489
3 490 491 492
3 493 494 495
3 496 497 498
3 499 500 501
3 484 502 485
3 487 503 488
3 490 504 491
3 493 505 494
3 496 506 497
3 499 507 500
