ply
format ascii 1.0
comment Created in Blender version 4.4.1
element vertex 212
property float x
property float y
property float z
property float nx
property float ny
property float nz
property float s
property float t
element face 108
property list uchar uint vertex_indices
end_header
2.8586574 0.56104445 -7.1165338 -0.57734233 0.57735425 0.57735425 0.41002208 0.76823664
2.8586574 0.23052216 -8.830083 -0.57734233 -0.57735425 -0.57735425 0.5033477 0.75023526
2.8586574 0.23052216 -7.1165338 -0.5773524 -0.5773399 0.57735854 0.41002208 0.75023526
2.8586574 0.56104445 -8.830083 -0.5773524 0.5773399 -0.5773586 0.3297367 0.78682905
6.0458703 0.23052216 -8.830083 0.5773524 -0.5773398 -0.57735854 0.50332314 0.7688277
2.8586574 0.23052216 -8.830083 -0.57734233 -0.57735425 -0.57735425 0.3297367 0.7688277
6.0458703 0.56104445 -8.830083 0.57734233 0.57735425 -0.57735425 0.40954065 0.7682366
6.0458703 0.23052216 -7.1165338 0.57734233 -0.57735425 0.57735425 0.31621498 0.75023526
6.0458703 0.23052216 -8.830083 0.5773524 -0.5773398 -0.57735854 0.40954065 0.75023526
6.0458703 0.56104445 -7.1165338 0.57735234 0.5773399 0.57735854 0.29762262 0.96100646
2.8586574 0.23052216 -7.1165338 -0.5773524 -0.5773399 0.57735854 0.31562394 0.78742003
6.0458703 0.23052216 -7.1165338 0.57734233 -0.57735425 0.57735425 0.315624 0.96100646
6.0458703 0.23052216 -8.830083 0.5773524 -0.5773398 -0.57735854 0.41002208 0.9610064
2.8586574 0.23052216 -7.1165338 -0.5773524 -0.5773399 0.57735854 0.50334775 0.78742003
2.8586574 0.23052216 -8.830083 -0.57734233 -0.57735425 -0.57735425 0.41002208 0.78742003
2.8586574 0.56104445 -8.830083 -0.5773524 0.5773399 -0.5773586 0.31621498 0.78742003
6.0458703 0.56104445 -7.1165338 0.57735234 0.5773399 0.57735854 0.40954065 0.9610064
6.0458703 0.56104445 -8.830083 0.57734233 0.57735425 -0.57735425 0.31621498 0.9610064
2.8586574 0.23052216 -7.1165338 -0.57734233 0.57735425 0.57735425 0.026183806 0.98608
2.8586574 -0.10000014 -8.830083 -0.57734233 -0.57735425 -0.57735425 0.10605218 0.9514174
2.8586574 -0.10000014 -7.1165338 -0.57735217 -0.57735807 0.5773407 0.026183806 0.9514174
2.8586574 0.23052216 -8.830083 -0.57735217 0.57735807 -0.5773407 0.076506816 0.90520054
3.0386014 -0.10000014 -8.830083 0.57735217 -0.57735807 -0.57734066 0.05134531 0.9514174
2.8586574 -0.10000014 -8.830083 -0.57734233 -0.57735425 -0.57735425 0.076506816 0.9514174
3.0386014 0.23052216 -8.830083 0.57734233 0.57735425 -0.57735425 0.18592057 0.98608
3.0386014 -0.10000014 -7.1165338 0.57734233 -0.57735425 0.57735425 0.10605218 0.9514174
3.0386014 -0.10000014 -8.830083 0.57735217 -0.57735807 -0.57734066 0.18592057 0.9514174
3.0386014 0.23052216 -7.1165338 0.57735217 0.57735807 0.57734066 0.026183806 0.90520054
2.8586574 -0.10000014 -7.1165338 -0.57735217 -0.57735807 0.5773407 0.05134531 0.9514174
3.0386014 -0.10000014 -7.1165338 0.57734233 -0.57735425 0.57735425 0.026183806 0.9514174
3.0386014 -0.10000014 -8.830083 0.57735217 -0.57735807 -0.57734066 0.076506816 0.8208632
2.8586574 -0.10000014 -7.1165338 -0.57735217 -0.57735807 0.5773407 0.19548735 0.7927508
2.8586574 -0.10000014 -8.830083 -0.57734233 -0.57735425 -0.57735425 0.076506816 0.7927508
2.8586574 0.23052216 -8.830083 -0.57735217 0.57735807 -0.5773407 0.076506816 0.8208632
3.0386014 0.23052216 -7.1165338 0.57735217 0.57735807 0.57734066 0.19548735 0.8489756
3.0386014 0.23052216 -8.830083 0.57734233 0.57735425 -0.57735425 0.076506816 0.8489756
5.8659263 0.23052216 -7.1165338 -0.57734233 0.57735425 0.57735425 0.19630942 0.90520054
5.8659263 -0.10000014 -8.830083 -0.57734233 -0.57735425 -0.57735425 0.076506816 0.9283089
5.8659263 -0.10000014 -7.1165338 -0.57735217 -0.57735807 0.57734066 0.19630942 0.9283089
5.8659263 0.23052216 -8.830083 -0.57735217 0.57735807 -0.57734066 0.076506816 0.8589837
6.0458703 -0.10000014 -8.830083 0.57735217 -0.57735807 -0.5773407 0.05134531 0.90520054
5.8659263 -0.10000014 -8.830083 -0.57734233 -0.57735425 -0.57735425 0.076506816 0.90520054
6.0458703 0.23052216 -8.830083 0.57734233 0.57735425 -0.57735425 0.076506816 0.9283089
6.0458703 -0.10000014 -7.1165338 0.57734233 -0.57735425 0.57735425 0.19630942 0.9514174
6.0458703 -0.10000014 -8.830083 0.57735217 -0.57735807 -0.5773407 0.076506816 0.9514174
6.0458703 0.23052216 -7.1165338 0.57735217 0.57735807 0.5773407 0.026183806 0.8589837
5.8659263 -0.10000014 -7.1165338 -0.57735217 -0.57735807 0.57734066 0.05134531 0.90520054
6.0458703 -0.10000014 -7.1165338 0.57734233 -0.57735425 0.57735425 0.026183806 0.90520054
6.0458703 -0.10000014 -8.830083 0.57735217 -0.57735807 -0.5773407 0.076506816 0.90520054
5.8659263 -0.10000014 -7.1165338 -0.57735217 -0.57735807 0.57734066 0.19548735 0.877088
5.8659263 -0.10000014 -8.830083 -0.57734233 -0.57735425 -0.57735425 0.076506816 0.877088
5.8659263 0.23052216 -8.830083 -0.57735217 0.57735807 -0.57734066 0.076506816 0.8489756
6.0458703 0.23052216 -7.1165338 0.57735217 0.57735807 0.5773407 0.19548735 0.877088
6.0458703 0.23052216 -8.830083 0.57734233 0.57735425 -0.57735425 0.076506816 0.877088
2.8586574 0.56104445 -8.830083 -0.5773524 0.5773399 -0.5773586 0.5033477 0.7682366
6.0458703 0.56104445 -8.830083 0.57734233 0.57735425 -0.57735425 0.50332314 0.786829
6.0458703 0.56104445 -7.1165338 0.57735234 0.5773399 0.57735854 0.31621498 0.7682366
2.8586574 0.56104445 -7.1165338 -0.57734233 0.57735425 0.57735425 0.29762262 0.78742003
6.0458703 0.23052216 -7.1165338 0.57734233 -0.57735425 0.57735425 0.50334775 0.9610064
2.8586574 0.56104445 -7.1165338 -0.57734233 0.57735425 0.57735425 0.40954065 0.78742003
2.8586574 0.23052216 -8.830083 -0.57735217 0.57735807 -0.5773407 0.10605218 0.98608
3.0386014 0.23052216 -8.830083 0.57734233 0.57735425 -0.57735425 0.05134531 0.90520054
3.0386014 0.23052216 -7.1165338 0.57735217 0.57735807 0.57734066 0.10605218 0.98608
2.8586574 0.23052216 -7.1165338 -0.57734233 0.57735425 0.57735425 0.05134531 0.90520054
3.0386014 -0.10000014 -7.1165338 0.57734233 -0.57735425 0.57735425 0.19548735 0.8208632
2.8586574 0.23052216 -7.1165338 -0.57734233 0.57735425 0.57735425 0.19548735 0.8208632
5.8659263 0.23052216 -8.830083 -0.57735217 0.57735807 -0.57734066 0.076506816 0.90520054
6.0458703 0.23052216 -8.830083 0.57734233 0.57735425 -0.57735425 0.05134531 0.8589837
6.0458703 0.23052216 -7.1165338 0.57735217 0.57735807 0.5773407 0.19630942 0.9283089
5.8659263 0.23052216 -7.1165338 -0.57734233 0.57735425 0.57735425 0.05134531 0.8589837
6.0458703 -0.10000014 -7.1165338 0.57734233 -0.57735425 0.57735425 0.19548735 0.90520054
5.8659263 0.23052216 -7.1165338 -0.57734233 0.57735425 0.57735425 0.19548735 0.8489756
2.8586574 0.56104445 8.877516 -0.57734233 0.57735425 0.57735425 0.41002208 0.76823664
2.8586574 0.23052216 7.163966 -0.57734233 -0.57735425 -0.57735425 0.5033477 0.75023526
2.8586574 0.23052216 8.877516 -0.5773524 -0.5773398 0.57735854 0.41002208 0.75023526
2.8586574 0.56104445 7.163966 -0.5773524 0.5773398 -0.57735854 0.3297367 0.78682905
6.0458703 0.23052216 7.163966 0.5773524 -0.5773398 -0.57735854 0.50332314 0.7688277
2.8586574 0.23052216 7.163966 -0.57734233 -0.57735425 -0.57735425 0.3297367 0.7688277
6.0458703 0.56104445 7.163966 0.57734233 0.57735425 -0.57735425 0.40954065 0.7682366
6.0458703 0.23052216 8.877516 0.57734233 -0.57735425 0.57735425 0.31621498 0.75023526
6.0458703 0.23052216 7.163966 0.5773524 -0.5773398 -0.57735854 0.40954065 0.75023526
6.0458703 0.56104445 8.877516 0.5773524 0.5773398 0.57735854 0.29762262 0.96100646
2.8586574 0.23052216 8.877516 -0.5773524 -0.5773398 0.57735854 0.31562394 0.78742003
6.0458703 0.23052216 8.877516 0.57734233 -0.57735425 0.57735425 0.315624 0.96100646
6.0458703 0.23052216 7.163966 0.5773524 -0.5773398 -0.57735854 0.41002208 0.9610064
2.8586574 0.23052216 8.877516 -0.5773524 -0.5773398 0.57735854 0.50334775 0.78742003
2.8586574 0.23052216 7.163966 -0.57734233 -0.57735425 -0.57735425 0.41002208 0.78742003
2.8586574 0.56104445 7.163966 -0.5773524 0.5773398 -0.57735854 0.31621498 0.78742003
6.0458703 0.56104445 8.877516 0.5773524 0.5773398 0.57735854 0.40954065 0.9610064
6.0458703 0.56104445 7.163966 0.57734233 0.57735425 -0.57735425 0.31621498 0.9610064
2.8586574 0.23052216 8.877516 -0.57734233 0.57735425 0.57735425 0.026183806 0.98608
2.8586574 -0.10000014 7.163966 -0.57734233 -0.57735425 -0.57735425 0.10605218 0.9514174
2.8586574 -0.10000014 8.877516 -0.57735217 -0.577358 0.57734066 0.026183806 0.9514174
2.8586574 0.23052216 7.163966 -0.57735217 0.577358 -0.57734066 0.076506816 0.90520054
3.0386014 -0.10000014 7.163966 0.5773522 -0.57735807 -0.57734066 0.05134531 0.9514174
2.8586574 -0.10000014 7.163966 -0.57734233 -0.57735425 -0.57735425 0.076506816 0.9514174
3.0386014 0.23052216 7.163966 0.57734233 0.57735425 -0.57735425 0.18592057 0.98608
3.0386014 -0.10000014 8.877516 0.57734233 -0.57735425 0.57735425 0.10605218 0.9514174
3.0386014 -0.10000014 7.163966 0.5773522 -0.57735807 -0.57734066 0.18592057 0.9514174
3.0386014 0.23052216 8.877516 0.5773522 0.57735807 0.57734066 0.026183806 0.90520054
2.8586574 -0.10000014 8.877516 -0.57735217 -0.577358 0.57734066 0.05134531 0.9514174
3.0386014 -0.10000014 8.877516 0.57734233 -0.57735425 0.57735425 0.026183806 0.9514174
3.0386014 -0.10000014 7.163966 0.5773522 -0.57735807 -0.57734066 0.076506816 0.8208632
2.8586574 -0.10000014 8.877516 -0.57735217 -0.577358 0.57734066 0.19548735 0.7927508
2.8586574 -0.10000014 7.163966 -0.57734233 -0.57735425 -0.57735425 0.076506816 0.7927508
2.8586574 0.23052216 7.163966 -0.57735217 0.577358 -0.57734066 0.076506816 0.8208632
3.0386014 0.23052216 8.877516 0.5773522 0.57735807 0.57734066 0.19548735 0.8489756
3.0386014 0.23052216 7.163966 0.57734233 0.57735425 -0.57735425 0.076506816 0.8489756
5.8659263 0.23052216 8.877516 -0.57734233 0.57735425 0.57735425 0.19630942 0.90520054
5.8659263 -0.10000014 7.163966 -0.57734233 -0.57735425 -0.57735425 0.076506816 0.9283089
5.8659263 -0.10000014 8.877516 -0.5773522 -0.57735807 0.57734066 0.19630942 0.9283089
5.8659263 0.23052216 7.163966 -0.5773522 0.57735807 -0.57734066 0.076506816 0.8589837
6.0458703 -0.10000014 7.163966 0.57735217 -0.577358 -0.57734066 0.05134531 0.90520054
5.8659263 -0.10000014 7.163966 -0.57734233 -0.57735425 -0.57735425 0.076506816 0.90520054
6.0458703 0.23052216 7.163966 0.57734233 0.57735425 -0.57735425 0.076506816 0.9283089
6.0458703 -0.10000014 8.877516 0.57734233 -0.57735425 0.57735425 0.19630942 0.9514174
6.0458703 -0.10000014 7.163966 0.57735217 -0.577358 -0.57734066 0.076506816 0.9514174
6.0458703 0.23052216 8.877516 0.57735217 0.577358 0.57734066 0.026183806 0.8589837
5.8659263 -0.10000014 8.877516 -0.5773522 -0.57735807 0.57734066 0.05134531 0.90520054
6.0458703 -0.10000014 8.877516 0.57734233 -0.57735425 0.57735425 0.026183806 0.90520054
6.0458703 -0.10000014 7.163966 0.57735217 -0.577358 -0.57734066 0.076506816 0.90520054
5.8659263 -0.10000014 8.877516 -0.5773522 -0.57735807 0.57734066 0.19548735 0.877088
5.8659263 -0.10000014 7.163966 -0.57734233 -0.57735425 -0.57735425 0.076506816 0.877088
5.8659263 0.23052216 7.163966 -0.5773522 0.57735807 -0.57734066 0.076506816 0.8489756
6.0458703 0.23052216 8.877516 0.57735217 0.577358 0.57734066 0.19548735 0.877088
6.0458703 0.23052216 7.163966 0.57734233 0.57735425 -0.57735425 0.076506816 0.877088
2.8586574 0.56104445 7.163966 -0.5773524 0.5773398 -0.57735854 0.5033477 0.7682366
6.0458703 0.56104445 7.163966 0.57734233 0.57735425 -0.57735425 0.50332314 0.786829
6.0458703 0.56104445 8.877516 0.5773524 0.5773398 0.57735854 0.31621498 0.7682366
2.8586574 0.56104445 8.877516 -0.57734233 0.57735425 0.57735425 0.29762262 0.78742003
6.0458703 0.23052216 8.877516 0.57734233 -0.57735425 0.57735425 0.50334775 0.9610064
2.8586574 0.56104445 8.877516 -0.57734233 0.57735425 0.57735425 0.40954065 0.78742003
2.8586574 0.23052216 7.163966 -0.57735217 0.577358 -0.57734066 0.10605218 0.98608
3.0386014 0.23052216 7.163966 0.57734233 0.57735425 -0.57735425 0.05134531 0.90520054
3.0386014 0.23052216 8.877516 0.5773522 0.57735807 0.57734066 0.10605218 0.98608
2.8586574 0.23052216 8.877516 -0.57734233 0.57735425 0.57735425 0.05134531 0.90520054
3.0386014 -0.10000014 8.877516 0.57734233 -0.57735425 0.57735425 0.19548735 0.8208632
2.8586574 0.23052216 8.877516 -0.57734233 0.57735425 0.57735425 0.19548735 0.8208632
5.8659263 0.23052216 7.163966 -0.5773522 0.57735807 -0.57734066 0.076506816 0.90520054
6.0458703 0.23052216 7.163966 0.57734233 0.57735425 -0.57735425 0.05134531 0.8589837
6.0458703 0.23052216 8.877516 0.57735217 0.577358 0.57734066 0.19630942 0.9283089
5.8659263 0.23052216 8.877516 -0.57734233 0.57735425 0.57735425 0.05134531 0.8589837
6.0458703 -0.10000014 8.877516 0.57734233 -0.57735425 0.57735425 0.19548735 0.90520054
5.8659263 0.23052216 8.877516 -0.57734233 0.57735425 0.57735425 0.19548735 0.8489756
8.5638485 1.3969965 0.5475137 -0.5773721 0.5773394 0.5773394 0.7344843 0.73745143
8.5638485 0.30196923 -0.5475137 -0.5773721 -0.5773394 -0.5773394 0.7813517 0.78431886
8.5638485 0.30196923 0.5475137 -0.57732844 -0.57736117 0.57736117 0.7813517 0.73745143
8.5638485 1.3969965 -0.5475137 -0.57732844 0.57736117 -0.57736117 0.6263813 0.73745143
9.658876 0.30196923 -0.5475137 0.57732844 -0.57736117 -0.57736117 0.6804328 0.791503
8.5638485 0.30196923 -0.5475137 -0.5773721 -0.5773394 -0.5773394 0.6804328 0.73745143
9.658876 1.3969965 -0.5475137 0.5773721 0.5773394 -0.5773394 0.6804328 0.84555453
9.658876 0.30196923 0.5475137 0.5773721 -0.5773394 0.5773394 0.7344844 0.791503
9.658876 0.30196923 -0.5475137 0.57732844 -0.57736117 -0.57736117 0.73448443 0.84555453
9.658876 1.3969965 0.5475137 0.57732844 0.57736117 0.57736117 0.6804328 0.791503
8.5638485 0.30196923 0.5475137 -0.57732844 -0.57736117 0.57736117 0.7344843 0.73745143
9.658876 0.30196923 -0.5475137 0.57732844 -0.57736117 -0.57736117 0.66873384 0.94652313
8.5638485 0.30196923 0.5475137 -0.57732844 -0.57736117 0.57736117 0.71560127 0.89965576
8.5638485 0.30196923 -0.5475137 -0.5773721 -0.5773394 -0.5773394 0.66873384 0.89965576
8.5638485 1.3969965 -0.5475137 -0.57732844 0.57736117 -0.57736117 0.6146822 0.8924715
9.658876 1.3969965 0.5475137 0.57732844 0.57736117 0.57736117 0.66873384 0.94652313
9.658876 1.3969965 -0.5475137 0.5773721 0.5773394 -0.5773394 0.6146822 0.94652313
8.422724 0.30196923 0.6886383 -0.57733196 0.5773595 0.5773595 0.5832879 0.8821344
8.422724 -0.09999998 -0.6886383 -0.57733196 -0.5773595 -0.5773595 0.5634463 0.8141507
8.422724 -0.09999998 0.6886383 -0.5773486 -0.5773813 0.57732105 0.5634463 0.8821344
8.422724 0.30196923 -0.6886383 -0.5773486 0.5773813 -0.57732105 0.5634463 0.746167
9.800001 -0.09999998 -0.6886383 0.5773486 -0.5773813 -0.57732105 0.5832879 0.8141507
8.422724 -0.09999998 -0.6886383 -0.57733196 -0.5773595 -0.5773595 0.5832879 0.746167
9.800001 0.30196923 -0.6886383 0.57733196 0.5773595 -0.5773595 0.8199144 0.74146086
9.800001 -0.09999998 0.6886383 0.57733196 -0.5773595 0.5773595 0.80648357 0.7874795
9.800001 -0.09999998 -0.6886383 0.5773486 -0.5773813 -0.57732105 0.80648357 0.74146086
9.800001 0.30196923 0.6886383 0.5773486 0.5773813 0.57732105 0.5832879 0.8821344
8.422724 -0.09999998 0.6886383 -0.5773486 -0.5773813 0.57732105 0.5634463 0.9501181
9.800001 -0.09999998 0.6886383 0.57733196 -0.5773595 0.5773595 0.5634463 0.8821344
9.800001 -0.09999998 -0.6886383 0.5773486 -0.5773813 -0.57732105 0.71560127 0.9193987
8.422724 -0.09999998 0.6886383 -0.5773486 -0.5773813 0.57732105 0.73534423 0.89965576
8.422724 -0.09999998 -0.6886383 -0.57733196 -0.5773595 -0.5773595 0.71560127 0.89965576
8.422724 0.30196923 -0.6886383 -0.5773486 0.5773813 -0.57732105 0.5634463 0.9501181
9.800001 0.30196923 0.6886383 0.5773486 0.5773813 0.57732105 0.5827779 0.9694498
9.800001 0.30196923 -0.6886383 0.57733196 0.5773595 -0.5773595 0.5634463 0.9694498
8.422724 1.7989659 0.6886383 -0.577341 0.5773686 0.5773412 0.80386794 0.94538635
8.422724 1.3969965 -0.6886383 -0.57733184 -0.5773595 -0.5773595 0.8168367 0.9898215
8.422724 1.3969965 0.6886383 -0.5773394 -0.5773721 0.5773394 0.8168367 0.94538635
9.800001 1.7989659 -0.6886383 0.57733184 0.5773595 -0.5773595 0.80386794 0.94538635
9.800001 1.3969965 0.6886383 0.577341 -0.5773686 0.5773412 0.8168367 0.90095127
9.800001 1.3969965 -0.6886383 0.57734853 -0.5773812 -0.57732105 0.8168367 0.94538635
9.800001 1.3969965 -0.6886383 0.57734853 -0.5773812 -0.57732105 0.66194385 0.98963565
8.422724 1.3969965 0.6886383 -0.5773394 -0.5773721 0.5773394 0.67144305 0.9801363
8.422724 1.3969965 -0.6886383 -0.57733184 -0.5773595 -0.5773595 0.66194385 0.9801363
8.422724 1.7989659 -0.6886383 -0.57734853 0.5773812 -0.57732105 0.6524445 0.9801363
9.800001 1.7989659 0.6886383 0.5773394 0.5773721 0.5773394 0.66194385 0.98963565
9.800001 1.7989659 -0.6886383 0.57733184 0.5773595 -0.5773595 0.6524445 0.98963565
8.422724 1.7989659 -0.6886383 -0.57734853 0.5773812 -0.57732105 0.81757295 0.856516
9.800001 1.3969965 -0.6886383 0.57734853 -0.5773812 -0.57732105 0.80386794 0.80955845
8.422724 1.3969965 -0.6886383 -0.57733184 -0.5773595 -0.5773595 0.80386794 0.856516
8.422724 1.7989659 0.6886383 -0.577341 0.5773686 0.5773412 0.80386794 0.856516
8.422724 1.3969965 0.6886383 -0.5773394 -0.5773721 0.5773394 0.8168367 0.856516
8.5638485 1.3969965 -0.5475137 -0.57732844 0.57736117 -0.57736117 0.7344844 0.78431886
9.658876 1.3969965 -0.5475137 0.5773721 0.5773394 -0.5773394 0.6263813 0.791503
8.5638485 1.3969965 0.5475137 -0.5773721 0.5773394 0.5773394 0.6804328 0.73745143
9.658876 0.30196923 0.5475137 0.5773721 -0.5773394 0.5773394 0.71560127 0.94652313
8.5638485 1.3969965 0.5475137 -0.5773721 0.5773394 0.5773394 0.66873384 0.8924715
8.422724 0.30196923 -0.6886383 -0.5773486 0.5773813 -0.57732105 0.5832878 0.8141507
9.800001 0.30196923 -0.6886383 0.57733196 0.5773595 -0.5773595 0.5634463 0.8141507
9.800001 0.30196923 0.6886383 0.5773486 0.5773813 0.57732105 0.8199144 0.7874795
8.422724 0.30196923 0.6886383 -0.57733196 0.5773595 0.5773595 0.5832879 0.9501181
9.800001 -0.09999998 0.6886383 0.57733196 -0.5773595 0.5773595 0.73534423 0.9193987
8.422724 0.30196923 0.6886383 -0.57733196 0.5773595 0.5773595 0.5827779 0.9501181
8.422724 1.7989659 -0.6886383 -0.57734853 0.5773812 -0.57732105 0.80386794 0.9898215
9.800001 1.7989659 0.6886383 0.5773394 0.5773721 0.5773394 0.80386794 0.90095127
9.800001 1.3969965 0.6886383 0.577341 -0.5773686 0.5773412 0.67144305 0.98963565
8.422724 1.7989659 0.6886383 -0.577341 0.5773686 0.5773412 0.66194385 0.9801363
9.800001 1.7989659 -0.6886383 0.57733184 0.5773595 -0.5773595 0.81757283 0.80955845
3 0 1 2
3 3 4 5
3 6 7 8
3 9 10 11
3 12 13 14
3 15 16 17
3 18 19 20
3 21 22 23
3 24 25 26
3 27 28 29
3 30 31 32
3 33 34 35
3 36 37 38
3 39 40 41
3 42 43 44
3 45 46 47
3 48 49 50
3 51 52 53
3 0 54 1
3 3 55 4
3 6 56 7
3 9 57 10
3 12 58 13
3 15 59 16
3 18 60 19
3 21 61 22
3 24 62 25
3 27 63 28
3 30 64 31
3 33 65 34
3 36 66 37
3 39 67 40
3 42 68 43
3 45 69 46
3 48 70 49
3 51 71 52
3 72 73 74
3 75 76 77
3 78 79 80
3 81 82 83
3 84 85 86
3 87 88 89
3 90 91 92
3 93 94 95
3 96 97 98
3 99 100 101
3 102 103 104
3 105 106 107
3 108 109 110
3 111 112 113
3 114 115 116
3 117 118 119
3 120 121 122
3 123 124 125
3 72 126 73
3 75 127 76
3 78 128 79
3 81 129 82
3 84 130 85
3 87 131 88
3 90 132 91
3 93 133 94
3 96 134 97
3 99 135 100
3 102 136 103
3 105 137 106
3 108 138 109
3 111 139 112
3 114 140 115
3 117 141 118
3 120 142 121
3 123 143 124
3 144 145 146
3 147 148 149
3 150 151 152
3 153 154 151
3 155 156 157
3 158 159 160
3 161 162 163
3 164 165 166
3 167 168 169
3 170 171 172
3 173 174 175
3 176 177 178
3 179 180 181
3 182 183 184
3 185 186 187
3 188 189 190
3 191 192 193
3 183 194 195
3 144 196 145
3 147 197 148
3 150 153 151
3 153 198 154
3 155 199 156
3 158 200 159
3 161 201 162
3 164 202 165
3 167 203 168
3 170 204 171
3 173 205 174
3 176 206 177
3 179 207 180
3 182 208 183
3 185 209 186
3 188 210 189
3 191 211 192
3 183 208 194
