ply
format ascii 1.0
comment Created in Blender version 4.4.1
element vertex 212
property float x
property float y
property float z
property float nx
property float ny
property float nz
property float s
property float t
element face 108
property list uchar uint vertex_indices
end_header
2.8586574 0.23052216 8.877516 -0.57734233 0.57735425 0.57735425 0.99671334 0.0063349605
2.8586574 -0.10000014 7.163966 -0.57734233 -0.57735425 -0.57735425 0.8175025 0.08411199
2.8586574 -0.10000014 8.877516 -0.57735217 -0.577358 0.57734066 0.99671334 0.08411196
2.8586574 0.23052216 7.163966 -0.57735217 0.577358 -0.57734066 0.8837971 0.18781453
3.0386014 -0.10000014 7.163966 0.5773522 -0.57735807 -0.57734066 0.94025517 0.084111884
2.8586574 -0.10000014 7.163966 -0.57734233 -0.57735425 -0.57735425 0.8837971 0.084111884
3.0386014 0.23052216 7.163966 0.57734233 0.57735425 -0.57735425 0.6382917 0.00633502
3.0386014 -0.10000014 8.877516 0.57734233 -0.57735425 0.57735425 0.8175025 0.08411199
3.0386014 -0.10000014 7.163966 0.5773522 -0.57735807 -0.57734066 0.6382917 0.08411202
3.0386014 0.23052216 8.877516 0.5773522 0.57735807 0.57734066 0.99671334 0.18781456
2.8586574 -0.10000014 8.877516 -0.57735217 -0.577358 0.57734066 0.94025517 0.08411196
3.0386014 -0.10000014 8.877516 0.57734233 -0.57735425 0.57735425 0.99671334 0.08411196
3.0386014 -0.10000014 7.163966 0.5773522 -0.57735807 -0.57734066 0.8837971 0.37705296
2.8586574 -0.10000014 8.877516 -0.57735217 -0.577358 0.57734066 0.61682546 0.44013244
2.8586574 -0.10000014 7.163966 -0.57734233 -0.57735425 -0.57735425 0.8837971 0.44013244
2.8586574 0.23052216 7.163966 -0.57735217 0.577358 -0.57734066 0.8837971 0.37705296
3.0386014 0.23052216 8.877516 0.5773522 0.57735807 0.57734066 0.6168255 0.3139735
3.0386014 0.23052216 7.163966 0.57734233 0.57735425 -0.57735425 0.8837971 0.3139735
5.8659263 0.23052216 8.877516 -0.57734233 0.57735425 0.57735425 0.61498094 0.18781455
5.8659263 -0.10000014 7.163966 -0.57734233 -0.57735425 -0.57735425 0.8837971 0.13596322
5.8659263 -0.10000014 8.877516 -0.5773522 -0.57735807 0.57734066 0.61498094 0.13596322
5.8659263 0.23052216 7.163966 -0.5773522 0.57735807 -0.57734066 0.8837971 0.2915172
6.0458703 -0.10000014 7.163966 0.57735217 -0.577358 -0.57734066 0.9402553 0.18781455
5.8659263 -0.10000014 7.163966 -0.57734233 -0.57735425 -0.57735425 0.8837971 0.18781455
6.0458703 0.23052216 7.163966 0.57734233 0.57735425 -0.57735425 0.8837971 0.13596322
6.0458703 -0.10000014 8.877516 0.57734233 -0.57735425 0.57735425 0.6149809 0.084111884
6.0458703 -0.10000014 7.163966 0.57735217 -0.577358 -0.57734066 0.8837971 0.084111884
6.0458703 0.23052216 8.877516 0.57735217 0.577358 0.57734066 0.99671334 0.2915172
5.8659263 -0.10000014 8.877516 -0.5773522 -0.57735807 0.57734066 0.94025517 0.18781456
6.0458703 -0.10000014 8.877516 0.57734233 -0.57735425 0.57735425 0.99671334 0.18781456
6.0458703 -0.10000014 7.163966 0.57735217 -0.577358 -0.57734066 0.8837971 0.18781453
5.8659263 -0.10000014 8.877516 -0.5773522 -0.57735807 0.57734066 0.6168255 0.25089413
5.8659263 -0.10000014 7.163966 -0.57734233 -0.57735425 -0.57735425 0.8837971 0.25089413
5.8659263 0.23052216 7.163966 -0.5773522 0.57735807 -0.57734066 0.8837971 0.3139735
6.0458703 0.23052216 8.877516 0.57735217 0.577358 0.57734066 0.6168255 0.25089413
6.0458703 0.23052216 7.163966 0.57734233 0.57735425 -0.57735425 0.8837971 0.25089413
2.8586574 0.56104445 8.877516 -0.57734233 0.57735425 0.57735425 0.30470163 0.4592225
2.8586574 0.23052216 7.163966 -0.57734233 -0.57735425 -0.57735425 0.08339837 0.5019092
2.8586574 0.23052216 8.877516 -0.5773524 -0.5773398 0.57735854 0.3047017 0.5019092
2.8586574 0.56104445 7.163966 -0.5773524 0.5773398 -0.57735854 0.49508244 0.4151343
6.0458703 0.23052216 7.163966 0.5773524 -0.5773398 -0.57735854 0.083456695 0.457821
2.8586574 0.23052216 7.163966 -0.57734233 -0.57735425 -0.57735425 0.49508244 0.45782095
6.0458703 0.56104445 7.163966 0.57734233 0.57735425 -0.57735425 0.3058433 0.45922256
6.0458703 0.23052216 8.877516 0.57734233 -0.57735425 0.57735425 0.5271466 0.5019092
6.0458703 0.23052216 7.163966 0.5773524 -0.5773398 -0.57735854 0.3058433 0.5019092
6.0458703 0.56104445 8.877516 0.5773524 0.5773398 0.57735854 0.5712347 0.0021070838
2.8586574 0.23052216 8.877516 -0.5773524 -0.5773398 0.57735854 0.52854806 0.41373283
6.0458703 0.23052216 8.877516 0.57734233 -0.57735425 0.57735425 0.52854806 0.0021070838
6.0458703 0.23052216 7.163966 0.5773524 -0.5773398 -0.57735854 0.30470163 0.0021071434
2.8586574 0.23052216 8.877516 -0.5773524 -0.5773398 0.57735854 0.08339831 0.4137329
2.8586574 0.23052216 7.163966 -0.57734233 -0.57735425 -0.57735425 0.3047017 0.41373283
2.8586574 0.56104445 7.163966 -0.5773524 0.5773398 -0.57735854 0.52714664 0.41373283
6.0458703 0.56104445 8.877516 0.5773524 0.5773398 0.57735854 0.3058433 0.0021071434
6.0458703 0.56104445 7.163966 0.57734233 0.57735425 -0.57735425 0.5271466 0.0021071434
8.5638485 1.3969965 0.54751396 -0.5773721 0.5773394 0.5773394 0.16132088 0.98726857
8.5638485 0.30196923 -0.54751396 -0.5773721 -0.5773394 -0.5773394 0.066164225 0.8921119
8.5638485 0.30196923 0.54751396 -0.57732844 -0.5773612 0.5773612 0.066164225 0.98726857
8.5638485 1.3969965 -0.54751396 -0.57732844 0.5773612 -0.5773612 0.3808068 0.98726857
9.658876 0.30196923 -0.54751396 0.57732844 -0.5773612 -0.5773612 0.2710638 0.8775254
8.5638485 0.30196923 -0.54751396 -0.5773721 -0.5773394 -0.5773394 0.2710638 0.98726857
9.658876 1.3969965 -0.54751396 0.5773721 0.5773394 -0.5773394 0.27106375 0.76778245
9.658876 0.30196923 0.54751396 0.5773721 -0.5773394 0.5773394 0.16132082 0.8775254
9.658876 0.30196923 -0.54751396 0.57732844 -0.5773612 -0.5773612 0.16132082 0.76778245
9.658876 1.3969965 0.54751396 0.57732844 0.5773612 0.5773612 0.2710638 0.8775254
8.5638485 0.30196923 0.54751396 -0.57732844 -0.5773612 0.5773612 0.16132088 0.98726857
9.658876 0.30196923 -0.54751396 0.57732844 -0.5773612 -0.5773612 0.28922772 0.5884905
8.5638485 0.30196923 0.54751396 -0.57732844 -0.5773612 0.5773612 0.19407116 0.6836472
8.5638485 0.30196923 -0.54751396 -0.5773721 -0.5773394 -0.5773394 0.28922772 0.6836472
8.5638485 1.3969965 -0.54751396 -0.57732844 0.5773612 -0.5773612 0.39897078 0.6982336
9.658876 1.3969965 0.54751396 0.57732844 0.5773612 0.5773612 0.28922772 0.5884905
9.658876 1.3969965 -0.54751396 0.5773721 0.5773394 -0.5773394 0.39897078 0.5884905
8.422724 0.30196923 0.6886387 -0.57733196 0.5773595 0.5773595 0.449299 0.71475047
8.422724 -0.09999998 -0.6886387 -0.57733196 -0.5773595 -0.5773595 0.48958415 0.8527803
8.422724 -0.09999998 0.6886387 -0.57734853 -0.5773813 0.577321 0.48958415 0.71475047
8.422724 0.30196923 -0.6886387 -0.57734853 0.5773813 -0.577321 0.48958415 0.9908102
9.800001 -0.09999998 -0.6886387 0.57734853 -0.5773813 -0.577321 0.449299 0.8527803
8.422724 -0.09999998 -0.6886387 -0.57733196 -0.5773595 -0.5773595 0.449299 0.9908103
9.800001 0.30196923 -0.6886387 0.57733196 0.5773595 -0.5773595 0.007988349 0.99142313
9.800001 -0.09999998 0.6886387 0.57733196 -0.5773595 0.5773595 0.035257638 0.8979898
9.800001 -0.09999998 -0.6886387 0.57734853 -0.5773813 -0.577321 0.035257638 0.99142313
9.800001 0.30196923 0.6886387 0.57734853 0.5773813 0.577321 0.449299 0.71475047
8.422724 -0.09999998 0.6886387 -0.57734853 -0.5773813 0.577321 0.4895841 0.5767205
9.800001 -0.09999998 0.6886387 0.57733196 -0.5773595 0.5773595 0.48958415 0.71475047
9.800001 -0.09999998 -0.6886387 0.57734853 -0.5773813 -0.577321 0.19407116 0.6435623
8.422724 -0.09999998 0.6886387 -0.57734853 -0.5773813 0.577321 0.15398622 0.6836472
8.422724 -0.09999998 -0.6886387 -0.57733196 -0.5773595 -0.5773595 0.19407116 0.6836472
8.422724 0.30196923 -0.6886387 -0.57734853 0.5773813 -0.577321 0.4895841 0.5767205
9.800001 0.30196923 0.6886387 0.57734853 0.5773813 0.577321 0.4503343 0.5374707
9.800001 0.30196923 -0.6886387 0.57733196 0.5773595 -0.5773595 0.4895841 0.5374707
8.422724 1.7989659 0.6886387 -0.57734114 0.5773686 0.57734114 0.033861652 0.5986229
8.422724 1.3969965 -0.6886387 -0.57733196 -0.57735944 -0.57735944 0.0075306892 0.5084046
8.422724 1.3969965 0.6886387 -0.57733935 -0.5773721 0.57733935 0.0075306892 0.5986229
9.800001 1.7989659 -0.6886387 0.57733196 0.57735944 -0.57735944 0.033861652 0.5986229
9.800001 1.3969965 0.6886387 0.57734114 -0.5773686 0.57734114 0.007530719 0.6888412
9.800001 1.3969965 -0.6886387 0.57734853 -0.57738125 -0.57732105 0.0075306892 0.5986229
9.800001 1.3969965 -0.6886387 0.57734853 -0.57738125 -0.57732105 0.30189618 0.5121351
8.422724 1.3969965 0.6886387 -0.57733935 -0.5773721 0.57733935 0.28260943 0.53142184
8.422724 1.3969965 -0.6886387 -0.57733196 -0.57735944 -0.57735944 0.30189618 0.53142184
8.422724 1.7989659 -0.6886387 -0.57734853 0.57738125 -0.57732105 0.321183 0.53142184
9.800001 1.7989659 0.6886387 0.57733935 0.5773721 0.57733935 0.30189618 0.5121351
9.800001 1.7989659 -0.6886387 0.57733196 0.57735944 -0.57735944 0.321183 0.5121351
8.422724 1.7989659 -0.6886387 -0.57734853 0.57738125 -0.57732105 0.006035909 0.7790596
9.800001 1.3969965 -0.6886387 0.57734853 -0.57738125 -0.57732105 0.033861652 0.87439954
8.422724 1.3969965 -0.6886387 -0.57733196 -0.57735944 -0.57735944 0.033861652 0.7790596
8.422724 1.7989659 0.6886387 -0.57734114 0.5773686 0.57734114 0.033861652 0.7790596
8.422724 1.3969965 0.6886387 -0.57733935 -0.5773721 0.57733935 0.007530749 0.7790596
2.8586574 0.23052216 -7.1165333 -0.57734233 0.57735425 0.57735425 0.99671334 0.0063349605
2.8586574 -0.10000014 -8.830082 -0.57734233 -0.57735425 -0.57735425 0.8175025 0.08411199
2.8586574 -0.10000014 -7.1165333 -0.57735217 -0.577358 0.57734066 0.99671334 0.08411196
2.8586574 0.23052216 -8.830082 -0.57735217 0.577358 -0.57734066 0.8837971 0.18781453
3.0386014 -0.10000014 -8.830082 0.5773522 -0.57735807 -0.57734066 0.94025517 0.084111884
2.8586574 -0.10000014 -8.830082 -0.57734233 -0.57735425 -0.57735425 0.8837971 0.084111884
3.0386014 0.23052216 -8.830082 0.57734233 0.57735425 -0.57735425 0.6382917 0.00633502
3.0386014 -0.10000014 -7.1165333 0.57734233 -0.57735425 0.57735425 0.8175025 0.08411199
3.0386014 -0.10000014 -8.830082 0.5773522 -0.57735807 -0.57734066 0.6382917 0.08411202
3.0386014 0.23052216 -7.1165333 0.5773522 0.57735807 0.57734066 0.99671334 0.18781456
2.8586574 -0.10000014 -7.1165333 -0.57735217 -0.577358 0.57734066 0.94025517 0.08411196
3.0386014 -0.10000014 -7.1165333 0.57734233 -0.57735425 0.57735425 0.99671334 0.08411196
3.0386014 -0.10000014 -8.830082 0.5773522 -0.57735807 -0.57734066 0.8837971 0.37705296
2.8586574 -0.10000014 -7.1165333 -0.57735217 -0.577358 0.57734066 0.61682546 0.44013244
2.8586574 -0.10000014 -8.830082 -0.57734233 -0.57735425 -0.57735425 0.8837971 0.44013244
2.8586574 0.23052216 -8.830082 -0.57735217 0.577358 -0.57734066 0.8837971 0.37705296
3.0386014 0.23052216 -7.1165333 0.5773522 0.57735807 0.57734066 0.6168255 0.3139735
3.0386014 0.23052216 -8.830082 0.57734233 0.57735425 -0.57735425 0.8837971 0.3139735
5.8659263 0.23052216 -7.1165333 -0.57734233 0.57735425 0.57735425 0.61498094 0.18781455
5.8659263 -0.10000014 -8.830082 -0.57734233 -0.57735425 -0.57735425 0.8837971 0.13596322
5.8659263 -0.10000014 -7.1165333 -0.5773522 -0.57735807 0.57734066 0.61498094 0.13596322
5.8659263 0.23052216 -8.830082 -0.5773522 0.57735807 -0.57734066 0.8837971 0.2915172
6.0458703 -0.10000014 -8.830082 0.57735217 -0.577358 -0.57734066 0.9402553 0.18781455
5.8659263 -0.10000014 -8.830082 -0.57734233 -0.57735425 -0.57735425 0.8837971 0.18781455
6.0458703 0.23052216 -8.830082 0.57734233 0.57735425 -0.57735425 0.8837971 0.13596322
6.0458703 -0.10000014 -7.1165333 0.57734233 -0.57735425 0.57735425 0.6149809 0.084111884
6.0458703 -0.10000014 -8.830082 0.57735217 -0.577358 -0.57734066 0.8837971 0.084111884
6.0458703 0.23052216 -7.1165333 0.57735217 0.577358 0.57734066 0.99671334 0.2915172
5.8659263 -0.10000014 -7.1165333 -0.5773522 -0.57735807 0.57734066 0.94025517 0.18781456
6.0458703 -0.10000014 -7.1165333 0.57734233 -0.57735425 0.57735425 0.99671334 0.18781456
6.0458703 -0.10000014 -8.830082 0.57735217 -0.577358 -0.57734066 0.8837971 0.18781453
5.8659263 -0.10000014 -7.1165333 -0.5773522 -0.57735807 0.57734066 0.6168255 0.25089413
5.8659263 -0.10000014 -8.830082 -0.57734233 -0.57735425 -0.57735425 0.8837971 0.25089413
5.8659263 0.23052216 -8.830082 -0.5773522 0.57735807 -0.57734066 0.8837971 0.3139735
6.0458703 0.23052216 -7.1165333 0.57735217 0.577358 0.57734066 0.6168255 0.25089413
6.0458703 0.23052216 -8.830082 0.57734233 0.57735425 -0.57735425 0.8837971 0.25089413
2.8586574 0.56104445 -7.1165333 -0.57734233 0.57735425 0.57735425 0.30470163 0.4592225
2.8586574 0.23052216 -8.830082 -0.57734233 -0.57735425 -0.57735425 0.08339837 0.5019092
2.8586574 0.23052216 -7.1165333 -0.5773524 -0.5773399 0.57735854 0.3047017 0.5019092
2.8586574 0.56104445 -8.830082 -0.5773524 0.5773399 -0.57735854 0.49508244 0.4151343
6.0458703 0.23052216 -8.830082 0.5773524 -0.5773399 -0.57735854 0.083456695 0.457821
2.8586574 0.23052216 -8.830082 -0.57734233 -0.57735425 -0.57735425 0.49508244 0.45782095
6.0458703 0.56104445 -8.830082 0.57734233 0.57735425 -0.57735425 0.3058433 0.45922256
6.0458703 0.23052216 -7.1165333 0.57734233 -0.57735425 0.57735425 0.5271466 0.5019092
6.0458703 0.23052216 -8.830082 0.5773524 -0.5773399 -0.57735854 0.3058433 0.5019092
6.0458703 0.56104445 -7.1165333 0.5773524 0.5773399 0.57735854 0.5712347 0.0021070838
2.8586574 0.23052216 -7.1165333 -0.5773524 -0.5773399 0.57735854 0.52854806 0.41373283
6.0458703 0.23052216 -7.1165333 0.57734233 -0.57735425 0.57735425 0.52854806 0.0021070838
6.0458703 0.23052216 -8.830082 0.5773524 -0.5773399 -0.57735854 0.30470163 0.0021071434
2.8586574 0.23052216 -7.1165333 -0.5773524 -0.5773399 0.57735854 0.08339831 0.4137329
2.8586574 0.23052216 -8.830082 -0.57734233 -0.57735425 -0.57735425 0.3047017 0.41373283
2.8586574 0.56104445 -8.830082 -0.5773524 0.5773399 -0.57735854 0.52714664 0.41373283
6.0458703 0.56104445 -7.1165333 0.5773524 0.5773399 0.57735854 0.3058433 0.0021071434
6.0458703 0.56104445 -8.830082 0.57734233 0.57735425 -0.57735425 0.5271466 0.0021071434
2.8586574 0.23052216 7.163966 -0.57735217 0.577358 -0.57734066 0.8175025 0.0063349903
3.0386014 0.23052216 7.163966 0.57734233 0.57735425 -0.57735425 0.94025517 0.18781453
3.0386014 0.23052216 8.877516 0.5773522 0.57735807 0.57734066 0.8175025 0.0063349903
2.8586574 0.23052216 8.877516 -0.57734233 0.57735425 0.57735425 0.94025517 0.18781456
3.0386014 -0.10000014 8.877516 0.57734233 -0.57735425 0.57735425 0.61682546 0.37705296
2.8586574 0.23052216 8.877516 -0.57734233 0.57735425 0.57735425 0.6168255 0.37705296
5.8659263 0.23052216 7.163966 -0.5773522 0.57735807 -0.57734066 0.8837971 0.18781455
6.0458703 0.23052216 7.163966 0.57734233 0.57735425 -0.57735425 0.9402553 0.2915172
6.0458703 0.23052216 8.877516 0.57735217 0.577358 0.57734066 0.6149809 0.13596322
5.8659263 0.23052216 8.877516 -0.57734233 0.57735425 0.57735425 0.94025517 0.2915172
6.0458703 -0.10000014 8.877516 0.57734233 -0.57735425 0.57735425 0.6168255 0.18781453
5.8659263 0.23052216 8.877516 -0.57734233 0.57735425 0.57735425 0.6168255 0.3139735
2.8586574 0.56104445 7.163966 -0.5773524 0.5773398 -0.57735854 0.08339837 0.45922256
6.0458703 0.56104445 7.163966 0.57734233 0.57735425 -0.57735425 0.083456695 0.41513437
6.0458703 0.56104445 8.877516 0.5773524 0.5773398 0.57735854 0.5271466 0.45922256
2.8586574 0.56104445 8.877516 -0.57734233 0.57735425 0.57735425 0.57123476 0.41373283
6.0458703 0.23052216 8.877516 0.57734233 -0.57735425 0.57735425 0.08339828 0.0021071434
2.8586574 0.56104445 8.877516 -0.57734233 0.57735425 0.57735425 0.3058433 0.41373283
8.5638485 1.3969965 -0.54751396 -0.57732844 0.5773612 -0.5773612 0.16132082 0.8921119
9.658876 1.3969965 -0.54751396 0.5773721 0.5773394 -0.5773394 0.3808068 0.8775254
8.5638485 1.3969965 0.54751396 -0.5773721 0.5773394 0.5773394 0.2710638 0.98726857
9.658876 0.30196923 0.54751396 0.5773721 -0.5773394 0.5773394 0.19407116 0.5884905
8.5638485 1.3969965 0.54751396 -0.5773721 0.5773394 0.5773394 0.28922772 0.6982336
8.422724 0.30196923 -0.6886387 -0.57734853 0.5773813 -0.577321 0.44929904 0.8527803
9.800001 0.30196923 -0.6886387 0.57733196 0.5773595 -0.5773595 0.48958415 0.8527803
9.800001 0.30196923 0.6886387 0.57734853 0.5773813 0.577321 0.007988349 0.8979898
8.422724 0.30196923 0.6886387 -0.57733196 0.5773595 0.5773595 0.44929895 0.5767205
9.800001 -0.09999998 0.6886387 0.57733196 -0.5773595 0.5773595 0.15398622 0.6435623
8.422724 0.30196923 0.6886387 -0.57733196 0.5773595 0.5773595 0.4503343 0.5767205
8.422724 1.7989659 -0.6886387 -0.57734853 0.57738125 -0.57732105 0.033861652 0.5084046
9.800001 1.7989659 0.6886387 0.57733935 0.5773721 0.57733935 0.033861652 0.6888412
9.800001 1.3969965 0.6886387 0.57734114 -0.5773686 0.57734114 0.28260943 0.5121351
8.422724 1.7989659 0.6886387 -0.57734114 0.5773686 0.57734114 0.30189618 0.53142184
9.800001 1.7989659 -0.6886387 0.57733196 0.57735944 -0.57735944 0.006035939 0.87439954
2.8586574 0.23052216 -8.830082 -0.57735217 0.577358 -0.57734066 0.8175025 0.0063349903
3.0386014 0.23052216 -8.830082 0.57734233 0.57735425 -0.57735425 0.94025517 0.18781453
3.0386014 0.23052216 -7.1165333 0.5773522 0.57735807 0.57734066 0.8175025 0.0063349903
2.8586574 0.23052216 -7.1165333 -0.57734233 0.57735425 0.57735425 0.94025517 0.18781456
3.0386014 -0.10000014 -7.1165333 0.57734233 -0.57735425 0.57735425 0.61682546 0.37705296
2.8586574 0.23052216 -7.1165333 -0.57734233 0.57735425 0.57735425 0.6168255 0.37705296
5.8659263 0.23052216 -8.830082 -0.5773522 0.57735807 -0.57734066 0.8837971 0.18781455
6.0458703 0.23052216 -8.830082 0.57734233 0.57735425 -0.57735425 0.9402553 0.2915172
6.0458703 0.23052216 -7.1165333 0.57735217 0.577358 0.57734066 0.6149809 0.13596322
5.8659263 0.23052216 -7.1165333 -0.57734233 0.57735425 0.57735425 0.94025517 0.2915172
6.0458703 -0.10000014 -7.1165333 0.57734233 -0.57735425 0.57735425 0.6168255 0.18781453
5.8659263 0.23052216 -7.1165333 -0.57734233 0.57735425 0.57735425 0.6168255 0.3139735
2.8586574 0.56104445 -8.830082 -0.5773524 0.5773399 -0.57735854 0.08339837 0.45922256
6.0458703 0.56104445 -8.830082 0.57734233 0.57735425 -0.57735425 0.083456695 0.41513437
6.0458703 0.56104445 -7.1165333 0.5773524 0.5773399 0.57735854 0.5271466 0.45922256
2.8586574 0.56104445 -7.1165333 -0.57734233 0.57735425 0.57735425 0.57123476 0.41373283
6.0458703 0.23052216 -7.1165333 0.57734233 -0.57735425 0.57735425 0.08339828 0.0021071434
2.8586574 0.56104445 -7.1165333 -0.57734233 0.57735425 0.57735425 0.3058433 0.41373283
3 0 1 2
3 3 4 5
3 6 7 8
3 9 10 11
3 12 13 14
3 15 16 17
3 18 19 20
3 21 22 23
3 24 25 26
3 27 28 29
3 30 31 32
3 33 34 35
3 36 37 38
3 39 40 41
3 42 43 44
3 45 46 47
3 48 49 50
3 51 52 53
3 54 55 56
3 57 58 59
3 60 61 62
3 63 64 61
3 65 66 67
3 68 69 70
3 71 72 73
3 74 75 76
3 77 78 79
3 80 81 82
3 83 84 85
3 86 87 88
3 89 90 91
3 92 93 94
3 95 96 97
3 98 99 100
3 101 102 103
3 93 104 105
3 106 107 108
3 109 110 111
3 112 113 114
3 115 116 117
3 118 119 120
3 121 122 123
3 124 125 126
3 127 128 129
3 130 131 132
3 133 134 135
3 136 137 138
3 139 140 141
3 142 143 144
3 145 146 147
3 148 149 150
3 151 152 153
3 154 155 156
3 157 158 159
3 0 160 1
3 3 161 4
3 6 162 7
3 9 163 10
3 12 164 13
3 15 165 16
3 18 166 19
3 21 167 22
3 24 168 25
3 27 169 28
3 30 170 31
3 33 171 34
3 36 172 37
3 39 173 40
3 42 174 43
3 45 175 46
3 48 176 49
3 51 177 52
3 54 178 55
3 57 179 58
3 60 63 61
3 63 180 64
3 65 181 66
3 68 182 69
3 71 183 72
3 74 184 75
3 77 185 78
3 80 186 81
3 83 187 84
3 86 188 87
3 89 189 90
3 92 190 93
3 95 191 96
3 98 192 99
3 101 193 102
3 93 190 104
3 106 194 107
3 109 195 110
3 112 196 113
3 115 197 116
3 118 198 119
3 121 199 122
3 124 200 125
3 127 201 128
3 130 202 131
3 133 203 134
3 136 204 137
3 139 205 140
3 142 206 143
3 145 207 146
3 148 208 149
3 151 209 152
3 154 210 155
3 157 211 158
