ply
format ascii 1.0
comment Created in Blender version 4.4.1
element vertex 212
property float x
property float y
property float z
property float nx
property float ny
property float nz
property float s
property float t
element face 108
property list uchar uint vertex_indices
end_header
2.8586574 0.23052216 8.877516 -0.57734233 0.57735425 0.57735425 0.9779885 0.018082524
2.8586574 -0.10000014 7.163966 -0.57734233 -0.57735425 -0.57735425 0.89513105 0.054042414
2.8586574 -0.10000014 8.877516 -0.57735217 -0.577358 0.57734066 0.9779885 0.054042414
2.8586574 0.23052216 7.163966 -0.57735217 0.577358 -0.57734066 0.9257821 0.10198887
3.0386014 -0.10000014 7.163966 0.5773522 -0.57735807 -0.57734066 0.9518852 0.05404237
2.8586574 -0.10000014 7.163966 -0.57734233 -0.57735425 -0.57735425 0.9257821 0.05404237
3.0386014 0.23052216 7.163966 0.57734233 0.57735425 -0.57735425 0.8122736 0.018082554
3.0386014 -0.10000014 8.877516 0.57734233 -0.57735425 0.57735425 0.89513105 0.054042414
3.0386014 -0.10000014 7.163966 0.5773522 -0.57735807 -0.57734066 0.8122736 0.05404243
3.0386014 0.23052216 8.877516 0.5773522 0.57735807 0.57734066 0.9779885 0.10198888
2.8586574 -0.10000014 8.877516 -0.57735217 -0.577358 0.57734066 0.9518852 0.054042414
3.0386014 -0.10000014 8.877516 0.57734233 -0.57735425 0.57735425 0.9779885 0.054042414
3.0386014 -0.10000014 7.163966 0.5773522 -0.57735807 -0.57734066 0.9257821 0.18948251
2.8586574 -0.10000014 8.877516 -0.57735217 -0.577358 0.57734066 0.8023488 0.21864703
2.8586574 -0.10000014 7.163966 -0.57734233 -0.57735425 -0.57735425 0.9257821 0.21864703
2.8586574 0.23052216 7.163966 -0.57735217 0.577358 -0.57734066 0.9257821 0.18948251
3.0386014 0.23052216 8.877516 0.5773522 0.57735807 0.57734066 0.8023489 0.16031796
3.0386014 0.23052216 7.163966 0.57734233 0.57735425 -0.57735425 0.9257821 0.16031796
5.8659263 0.23052216 8.877516 -0.57734233 0.57735425 0.57735425 0.801496 0.10198888
5.8659263 -0.10000014 7.163966 -0.57734233 -0.57735425 -0.57735425 0.9257821 0.078015625
5.8659263 -0.10000014 8.877516 -0.5773522 -0.57735807 0.57734066 0.801496 0.078015625
5.8659263 0.23052216 7.163966 -0.5773522 0.57735807 -0.57734066 0.9257821 0.14993538
6.0458703 -0.10000014 7.163966 0.57735217 -0.577358 -0.57734066 0.95188534 0.10198888
5.8659263 -0.10000014 7.163966 -0.57734233 -0.57735425 -0.57735425 0.9257821 0.10198888
6.0458703 0.23052216 7.163966 0.57734233 0.57735425 -0.57735425 0.9257821 0.078015625
6.0458703 -0.10000014 8.877516 0.57734233 -0.57735425 0.57735425 0.801496 0.05404237
6.0458703 -0.10000014 7.163966 0.57735217 -0.577358 -0.57734066 0.9257821 0.05404237
6.0458703 0.23052216 8.877516 0.57735217 0.577358 0.57734066 0.9779885 0.14993538
5.8659263 -0.10000014 8.877516 -0.5773522 -0.57735807 0.57734066 0.9518852 0.10198888
6.0458703 -0.10000014 8.877516 0.57734233 -0.57735425 0.57735425 0.9779885 0.10198888
6.0458703 -0.10000014 7.163966 0.57735217 -0.577358 -0.57734066 0.9257821 0.10198887
5.8659263 -0.10000014 8.877516 -0.5773522 -0.57735807 0.57734066 0.8023489 0.13115346
5.8659263 -0.10000014 7.163966 -0.57734233 -0.57735425 -0.57735425 0.9257821 0.13115346
5.8659263 0.23052216 7.163966 -0.5773522 0.57735807 -0.57734066 0.9257821 0.16031796
6.0458703 0.23052216 8.877516 0.57735217 0.577358 0.57734066 0.8023489 0.13115346
6.0458703 0.23052216 7.163966 0.57734233 0.57735425 -0.57735425 0.9257821 0.13115346
2.8586574 0.56104445 8.877516 -0.57734233 0.57735425 0.57735425 0.5858635 0.2538821
2.8586574 0.23052216 7.163966 -0.57734233 -0.57735425 -0.57735425 0.477052 0.27487054
2.8586574 0.23052216 8.877516 -0.5773524 -0.5773398 0.57735854 0.5858635 0.27487054
2.8586574 0.56104445 7.163966 -0.5773524 0.5773398 -0.57735854 0.6794708 0.23220463
6.0458703 0.23052216 7.163966 0.5773524 -0.5773398 -0.57735854 0.47708067 0.253193
2.8586574 0.23052216 7.163966 -0.57734233 -0.57735425 -0.57735425 0.6794708 0.253193
6.0458703 0.56104445 7.163966 0.57734233 0.57735425 -0.57735425 0.58642477 0.2538821
6.0458703 0.23052216 8.877516 0.57734233 -0.57735425 0.57735425 0.6952362 0.27487054
6.0458703 0.23052216 7.163966 0.5773524 -0.5773398 -0.57735854 0.58642477 0.27487054
6.0458703 0.56104445 8.877516 0.5773524 0.5773398 0.57735854 0.71691376 0.0291254
2.8586574 0.23052216 8.877516 -0.5773524 -0.5773398 0.57735854 0.69592535 0.23151551
6.0458703 0.23052216 8.877516 0.57734233 -0.57735425 0.57735425 0.69592535 0.0291254
6.0458703 0.23052216 7.163966 0.5773524 -0.5773398 -0.57735854 0.5858635 0.02912543
2.8586574 0.23052216 8.877516 -0.5773524 -0.5773398 0.57735854 0.477052 0.23151556
2.8586574 0.23052216 7.163966 -0.57734233 -0.57735425 -0.57735425 0.5858635 0.23151551
2.8586574 0.56104445 7.163966 -0.5773524 0.5773398 -0.57735854 0.6952363 0.23151551
6.0458703 0.56104445 8.877516 0.5773524 0.5773398 0.57735854 0.58642477 0.02912543
6.0458703 0.56104445 7.163966 0.57734233 0.57735425 -0.57735425 0.6952362 0.02912543
8.5638485 1.3969965 0.54751396 -0.5773721 0.5773394 0.5773394 0.2664332 0.26185387
8.5638485 0.30196923 -0.54751396 -0.5773721 -0.5773394 -0.5773394 0.22097376 0.21639436
8.5638485 0.30196923 0.54751396 -0.57732844 -0.5773612 0.5773612 0.22097376 0.26185387
8.5638485 1.3969965 -0.54751396 -0.57732844 0.5773612 -0.5773612 0.37128893 0.26185387
9.658876 0.30196923 -0.54751396 0.57732844 -0.5773612 -0.5773612 0.31886104 0.2094259
8.5638485 0.30196923 -0.54751396 -0.5773721 -0.5773394 -0.5773394 0.31886104 0.26185387
9.658876 1.3969965 -0.54751396 0.5773721 0.5773394 -0.5773394 0.318861 0.1569981
9.658876 0.30196923 0.54751396 0.5773721 -0.5773394 0.5773394 0.26643318 0.2094259
9.658876 0.30196923 -0.54751396 0.57732844 -0.5773612 -0.5773612 0.26643318 0.1569981
9.658876 1.3969965 0.54751396 0.57732844 0.5773612 0.5773612 0.31886104 0.2094259
8.5638485 0.30196923 0.54751396 -0.57732844 -0.5773612 0.5773612 0.2664332 0.26185387
9.658876 0.30196923 -0.54751396 0.57732844 -0.5773612 -0.5773612 0.33100665 0.05539111
8.5638485 0.30196923 0.54751396 -0.57732844 -0.5773612 0.5773612 0.2855472 0.100850604
8.5638485 0.30196923 -0.54751396 -0.5773721 -0.5773394 -0.5773394 0.33100665 0.100850604
8.5638485 1.3969965 -0.54751396 -0.57732844 0.5773612 -0.5773612 0.38343456 0.10781903
9.658876 1.3969965 0.54751396 0.57732844 0.5773612 0.5773612 0.33100665 0.05539111
9.658876 1.3969965 -0.54751396 0.5773721 0.5773394 -0.5773394 0.38343456 0.05539111
8.422724 0.30196923 0.6886387 -0.57733196 0.5773595 0.5773595 0.41876101 0.12580761
8.422724 -0.09999998 -0.6886387 -0.57733196 -0.5773595 -0.5773595 0.43486193 0.18097448
8.422724 -0.09999998 0.6886387 -0.57734853 -0.5773813 0.577321 0.43486193 0.12580761
8.422724 0.30196923 -0.6886387 -0.57734853 0.5773813 -0.577321 0.43486193 0.25764367
9.800001 -0.09999998 -0.6886387 0.57734853 -0.5773813 -0.577321 0.41876101 0.20247674
8.422724 -0.09999998 -0.6886387 -0.57733196 -0.5773595 -0.5773595 0.41876101 0.2576437
9.800001 0.30196923 -0.6886387 0.57733196 0.5773595 -0.5773595 0.18293457 0.051846243
9.800001 -0.09999998 0.6886387 0.57733196 -0.5773595 0.5773595 0.19287218 0.017796775
9.800001 -0.09999998 -0.6886387 0.57734853 -0.5773813 -0.577321 0.19287218 0.051846243
9.800001 0.30196923 0.6886387 0.57734853 0.5773813 0.577321 0.41876101 0.10638623
8.422724 -0.09999998 0.6886387 -0.57734853 -0.5773813 0.577321 0.4348619 0.051219262
9.800001 -0.09999998 0.6886387 0.57733196 -0.5773595 0.5773595 0.43486193 0.10638623
9.800001 -0.09999998 -0.6886387 0.57734853 -0.5773813 -0.577321 0.2855472 0.081700765
8.422724 -0.09999998 0.6886387 -0.57734853 -0.5773813 0.577321 0.2663973 0.100850604
8.422724 -0.09999998 -0.6886387 -0.57733196 -0.5773595 -0.5773595 0.2855472 0.100850604
8.422724 0.30196923 -0.6886387 -0.57734853 0.5773813 -0.577321 0.4348619 0.051219262
9.800001 0.30196923 0.6886387 0.57734853 0.5773813 0.577321 0.4191748 0.035532176
9.800001 0.30196923 -0.6886387 0.57733196 0.5773595 -0.5773595 0.4348619 0.035532176
8.422724 1.7989659 0.6886387 -0.57734114 0.5773686 0.57734114 0.1941562 0.09498361
8.422724 1.3969965 -0.6886387 -0.57733196 -0.57735944 -0.57735944 0.18474676 0.06274387
8.422724 1.3969965 0.6886387 -0.57733935 -0.5773721 0.57733935 0.18474676 0.09498361
9.800001 1.7989659 -0.6886387 0.57733196 0.57735944 -0.57735944 0.1941562 0.09498361
9.800001 1.3969965 0.6886387 0.57734114 -0.5773686 0.57734114 0.18474677 0.12722337
9.800001 1.3969965 -0.6886387 0.57734853 -0.57738125 -0.57732105 0.18474676 0.09498361
9.800001 1.3969965 -0.6886387 0.57734853 -0.57738125 -0.57732105 0.33844605 0.0119247725
8.422724 1.3969965 0.6886387 -0.57733935 -0.5773721 0.57733935 0.3305141 0.019856691
8.422724 1.3969965 -0.6886387 -0.57733196 -0.57735944 -0.57735944 0.33844605 0.019856691
8.422724 1.7989659 -0.6886387 -0.57734853 0.57738125 -0.57732105 0.346378 0.019856691
9.800001 1.7989659 0.6886387 0.57733935 0.5773721 0.57733935 0.33844605 0.0119247725
9.800001 1.7989659 -0.6886387 0.57733196 0.57735944 -0.57735944 0.346378 0.0119247725
8.422724 1.7989659 -0.6886387 -0.57734853 0.57738125 -0.57732105 0.1842126 0.15946312
9.800001 1.3969965 -0.6886387 0.57734853 -0.57738125 -0.57732105 0.1941562 0.19353311
8.422724 1.3969965 -0.6886387 -0.57733196 -0.57735944 -0.57735944 0.1941562 0.15946312
8.422724 1.7989659 0.6886387 -0.57734114 0.5773686 0.57734114 0.1941562 0.15946312
8.422724 1.3969965 0.6886387 -0.57733935 -0.5773721 0.57733935 0.18474677 0.15946312
2.8586574 0.23052216 -7.1165333 -0.57734233 0.57735425 0.57735425 0.9779885 0.018082524
2.8586574 -0.10000014 -8.830082 -0.57734233 -0.57735425 -0.57735425 0.89513105 0.054042414
2.8586574 -0.10000014 -7.1165333 -0.57735217 -0.577358 0.57734066 0.9779885 0.054042414
2.8586574 0.23052216 -8.830082 -0.57735217 0.577358 -0.57734066 0.9257821 0.10198887
3.0386014 -0.10000014 -8.830082 0.5773522 -0.57735807 -0.57734066 0.9518852 0.05404237
2.8586574 -0.10000014 -8.830082 -0.57734233 -0.57735425 -0.57735425 0.9257821 0.05404237
3.0386014 0.23052216 -8.830082 0.57734233 0.57735425 -0.57735425 0.8122736 0.018082554
3.0386014 -0.10000014 -7.1165333 0.57734233 -0.57735425 0.57735425 0.89513105 0.054042414
3.0386014 -0.10000014 -8.830082 0.5773522 -0.57735807 -0.57734066 0.8122736 0.05404243
3.0386014 0.23052216 -7.1165333 0.5773522 0.57735807 0.57734066 0.9779885 0.10198888
2.8586574 -0.10000014 -7.1165333 -0.57735217 -0.577358 0.57734066 0.9518852 0.054042414
3.0386014 -0.10000014 -7.1165333 0.57734233 -0.57735425 0.57735425 0.9779885 0.054042414
3.0386014 -0.10000014 -8.830082 0.5773522 -0.57735807 -0.57734066 0.9257821 0.18948251
2.8586574 -0.10000014 -7.1165333 -0.57735217 -0.577358 0.57734066 0.8023488 0.21864703
2.8586574 -0.10000014 -8.830082 -0.57734233 -0.57735425 -0.57735425 0.9257821 0.21864703
2.8586574 0.23052216 -8.830082 -0.57735217 0.577358 -0.57734066 0.9257821 0.18948251
3.0386014 0.23052216 -7.1165333 0.5773522 0.57735807 0.57734066 0.8023489 0.16031796
3.0386014 0.23052216 -8.830082 0.57734233 0.57735425 -0.57735425 0.9257821 0.16031796
5.8659263 0.23052216 -7.1165333 -0.57734233 0.57735425 0.57735425 0.801496 0.10198888
5.8659263 -0.10000014 -8.830082 -0.57734233 -0.57735425 -0.57735425 0.9257821 0.078015625
5.8659263 -0.10000014 -7.1165333 -0.5773522 -0.57735807 0.57734066 0.801496 0.078015625
5.8659263 0.23052216 -8.830082 -0.5773522 0.57735807 -0.57734066 0.9257821 0.14993538
6.0458703 -0.10000014 -8.830082 0.57735217 -0.577358 -0.57734066 0.95188534 0.10198888
5.8659263 -0.10000014 -8.830082 -0.57734233 -0.57735425 -0.57735425 0.9257821 0.10198888
6.0458703 0.23052216 -8.830082 0.57734233 0.57735425 -0.57735425 0.9257821 0.078015625
6.0458703 -0.10000014 -7.1165333 0.57734233 -0.57735425 0.57735425 0.801496 0.05404237
6.0458703 -0.10000014 -8.830082 0.57735217 -0.577358 -0.57734066 0.9257821 0.05404237
6.0458703 0.23052216 -7.1165333 0.57735217 0.577358 0.57734066 0.9779885 0.14993538
5.8659263 -0.10000014 -7.1165333 -0.5773522 -0.57735807 0.57734066 0.9518852 0.10198888
6.0458703 -0.10000014 -7.1165333 0.57734233 -0.57735425 0.57735425 0.9779885 0.10198888
6.0458703 -0.10000014 -8.830082 0.57735217 -0.577358 -0.57734066 0.9257821 0.10198887
5.8659263 -0.10000014 -7.1165333 -0.5773522 -0.57735807 0.57734066 0.8023489 0.13115346
5.8659263 -0.10000014 -8.830082 -0.57734233 -0.57735425 -0.57735425 0.9257821 0.13115346
5.8659263 0.23052216 -8.830082 -0.5773522 0.57735807 -0.57734066 0.9257821 0.16031796
6.0458703 0.23052216 -7.1165333 0.57735217 0.577358 0.57734066 0.8023489 0.13115346
6.0458703 0.23052216 -8.830082 0.57734233 0.57735425 -0.57735425 0.9257821 0.13115346
2.8586574 0.56104445 -7.1165333 -0.57734233 0.57735425 0.57735425 0.5858635 0.2538821
2.8586574 0.23052216 -8.830082 -0.57734233 -0.57735425 -0.57735425 0.477052 0.27487054
2.8586574 0.23052216 -7.1165333 -0.5773524 -0.5773399 0.57735854 0.5858635 0.27487054
2.8586574 0.56104445 -8.830082 -0.5773524 0.5773399 -0.57735854 0.6794708 0.23220463
6.0458703 0.23052216 -8.830082 0.5773524 -0.5773399 -0.57735854 0.47708067 0.253193
2.8586574 0.23052216 -8.830082 -0.57734233 -0.57735425 -0.57735425 0.6794708 0.253193
6.0458703 0.56104445 -8.830082 0.57734233 0.57735425 -0.57735425 0.58642477 0.2538821
6.0458703 0.23052216 -7.1165333 0.57734233 -0.57735425 0.57735425 0.6952362 0.27487054
6.0458703 0.23052216 -8.830082 0.5773524 -0.5773399 -0.57735854 0.58642477 0.27487054
6.0458703 0.56104445 -7.1165333 0.5773524 0.5773399 0.57735854 0.71691376 0.0291254
2.8586574 0.23052216 -7.1165333 -0.5773524 -0.5773399 0.57735854 0.69592535 0.23151551
6.0458703 0.23052216 -7.1165333 0.57734233 -0.57735425 0.57735425 0.69592535 0.0291254
6.0458703 0.23052216 -8.830082 0.5773524 -0.5773399 -0.57735854 0.5858635 0.02912543
2.8586574 0.23052216 -7.1165333 -0.5773524 -0.5773399 0.57735854 0.477052 0.23151556
2.8586574 0.23052216 -8.830082 -0.57734233 -0.57735425 -0.57735425 0.5858635 0.23151551
2.8586574 0.56104445 -8.830082 -0.5773524 0.5773399 -0.57735854 0.6952363 0.23151551
6.0458703 0.56104445 -7.1165333 0.5773524 0.5773399 0.57735854 0.58642477 0.02912543
6.0458703 0.56104445 -8.830082 0.57734233 0.57735425 -0.57735425 0.6952362 0.02912543
2.8586574 0.23052216 7.163966 -0.57735217 0.577358 -0.57734066 0.89513105 0.018082539
3.0386014 0.23052216 7.163966 0.57734233 0.57735425 -0.57735425 0.9518852 0.10198887
3.0386014 0.23052216 8.877516 0.5773522 0.57735807 0.57734066 0.89513105 0.018082539
2.8586574 0.23052216 8.877516 -0.57734233 0.57735425 0.57735425 0.9518852 0.10198888
3.0386014 -0.10000014 8.877516 0.57734233 -0.57735425 0.57735425 0.8023488 0.18948251
2.8586574 0.23052216 8.877516 -0.57734233 0.57735425 0.57735425 0.8023489 0.18948251
5.8659263 0.23052216 7.163966 -0.5773522 0.57735807 -0.57734066 0.9257821 0.10198888
6.0458703 0.23052216 7.163966 0.57734233 0.57735425 -0.57735425 0.95188534 0.14993538
6.0458703 0.23052216 8.877516 0.57735217 0.577358 0.57734066 0.801496 0.078015625
5.8659263 0.23052216 8.877516 -0.57734233 0.57735425 0.57735425 0.9518852 0.14993538
6.0458703 -0.10000014 8.877516 0.57734233 -0.57735425 0.57735425 0.8023489 0.10198887
5.8659263 0.23052216 8.877516 -0.57734233 0.57735425 0.57735425 0.8023489 0.16031796
2.8586574 0.56104445 7.163966 -0.5773524 0.5773398 -0.57735854 0.477052 0.2538821
6.0458703 0.56104445 7.163966 0.57734233 0.57735425 -0.57735425 0.47708067 0.23220466
6.0458703 0.56104445 8.877516 0.5773524 0.5773398 0.57735854 0.6952362 0.2538821
2.8586574 0.56104445 8.877516 -0.57734233 0.57735425 0.57735425 0.71691376 0.23151551
6.0458703 0.23052216 8.877516 0.57734233 -0.57735425 0.57735425 0.477052 0.02912543
2.8586574 0.56104445 8.877516 -0.57734233 0.57735425 0.57735425 0.58642477 0.23151551
8.5638485 1.3969965 -0.54751396 -0.57732844 0.5773612 -0.5773612 0.26643318 0.21639436
9.658876 1.3969965 -0.54751396 0.5773721 0.5773394 -0.5773394 0.37128893 0.2094259
8.5638485 1.3969965 0.54751396 -0.5773721 0.5773394 0.5773394 0.31886104 0.26185387
9.658876 0.30196923 0.54751396 0.5773721 -0.5773394 0.5773394 0.2855472 0.05539111
8.5638485 1.3969965 0.54751396 -0.5773721 0.5773394 0.5773394 0.33100665 0.10781903
8.422724 0.30196923 -0.6886387 -0.57734853 0.5773813 -0.577321 0.41876101 0.18097448
9.800001 0.30196923 -0.6886387 0.57733196 0.5773595 -0.5773595 0.43486193 0.20247674
9.800001 0.30196923 0.6886387 0.57734853 0.5773813 0.577321 0.18293457 0.017796775
8.422724 0.30196923 0.6886387 -0.57733196 0.5773595 0.5773595 0.418761 0.051219262
9.800001 -0.09999998 0.6886387 0.57733196 -0.5773595 0.5773595 0.2663973 0.081700765
8.422724 0.30196923 0.6886387 -0.57733196 0.5773595 0.5773595 0.4191748 0.051219262
8.422724 1.7989659 -0.6886387 -0.57734853 0.57738125 -0.57732105 0.1941562 0.06274387
9.800001 1.7989659 0.6886387 0.57733935 0.5773721 0.57733935 0.1941562 0.12722337
9.800001 1.3969965 0.6886387 0.57734114 -0.5773686 0.57734114 0.3305141 0.0119247725
8.422724 1.7989659 0.6886387 -0.57734114 0.5773686 0.57734114 0.33844605 0.019856691
9.800001 1.7989659 -0.6886387 0.57733196 0.57735944 -0.57735944 0.1842126 0.19353311
2.8586574 0.23052216 -8.830082 -0.57735217 0.577358 -0.57734066 0.89513105 0.018082539
3.0386014 0.23052216 -8.830082 0.57734233 0.57735425 -0.57735425 0.9518852 0.10198887
3.0386014 0.23052216 -7.1165333 0.5773522 0.57735807 0.57734066 0.89513105 0.018082539
2.8586574 0.23052216 -7.1165333 -0.57734233 0.57735425 0.57735425 0.9518852 0.10198888
3.0386014 -0.10000014 -7.1165333 0.57734233 -0.57735425 0.57735425 0.8023488 0.18948251
2.8586574 0.23052216 -7.1165333 -0.57734233 0.57735425 0.57735425 0.8023489 0.18948251
5.8659263 0.23052216 -8.830082 -0.5773522 0.57735807 -0.57734066 0.9257821 0.10198888
6.0458703 0.23052216 -8.830082 0.57734233 0.57735425 -0.57735425 0.95188534 0.14993538
6.0458703 0.23052216 -7.1165333 0.57735217 0.577358 0.57734066 0.801496 0.078015625
5.8659263 0.23052216 -7.1165333 -0.57734233 0.57735425 0.57735425 0.9518852 0.14993538
6.0458703 -0.10000014 -7.1165333 0.57734233 -0.57735425 0.57735425 0.8023489 0.10198887
5.8659263 0.23052216 -7.1165333 -0.57734233 0.57735425 0.57735425 0.8023489 0.16031796
2.8586574 0.56104445 -8.830082 -0.5773524 0.5773399 -0.57735854 0.477052 0.2538821
6.0458703 0.56104445 -8.830082 0.57734233 0.57735425 -0.57735425 0.47708067 0.23220466
6.0458703 0.56104445 -7.1165333 0.5773524 0.5773399 0.57735854 0.6952362 0.2538821
2.8586574 0.56104445 -7.1165333 -0.57734233 0.57735425 0.57735425 0.71691376 0.23151551
6.0458703 0.23052216 -7.1165333 0.57734233 -0.57735425 0.57735425 0.477052 0.02912543
2.8586574 0.56104445 -7.1165333 -0.57734233 0.57735425 0.57735425 0.58642477 0.23151551
3 0 1 2
3 3 4 5
3 6 7 8
3 9 10 11
3 12 13 14
3 15 16 17
3 18 19 20
3 21 22 23
3 24 25 26
3 27 28 29
3 30 31 32
3 33 34 35
3 36 37 38
3 39 40 41
3 42 43 44
3 45 46 47
3 48 49 50
3 51 52 53
3 54 55 56
3 57 58 59
3 60 61 62
3 63 64 61
3 65 66 67
3 68 69 70
3 71 72 73
3 74 75 76
3 77 78 79
3 80 81 82
3 83 84 85
3 86 87 88
3 89 90 91
3 92 93 94
3 95 96 97
3 98 99 100
3 101 102 103
3 93 104 105
3 106 107 108
3 109 110 111
3 112 113 114
3 115 116 117
3 118 119 120
3 121 122 123
3 124 125 126
3 127 128 129
3 130 131 132
3 133 134 135
3 136 137 138
3 139 140 141
3 142 143 144
3 145 146 147
3 148 149 150
3 151 152 153
3 154 155 156
3 157 158 159
3 0 160 1
3 3 161 4
3 6 162 7
3 9 163 10
3 12 164 13
3 15 165 16
3 18 166 19
3 21 167 22
3 24 168 25
3 27 169 28
3 30 170 31
3 33 171 34
3 36 172 37
3 39 173 40
3 42 174 43
3 45 175 46
3 48 176 49
3 51 177 52
3 54 178 55
3 57 179 58
3 60 63 61
3 63 180 64
3 65 181 66
3 68 182 69
3 71 183 72
3 74 184 75
3 77 185 78
3 80 186 81
3 83 187 84
3 86 188 87
3 89 189 90
3 92 190 93
3 95 191 96
3 98 192 99
3 101 193 102
3 93 190 104
3 106 194 107
3 109 195 110
3 112 196 113
3 115 197 116
3 118 198 119
3 121 199 122
3 124 200 125
3 127 201 128
3 130 202 131
3 133 203 134
3 136 204 137
3 139 205 140
3 142 206 143
3 145 207 146
3 148 208 149
3 151 209 152
3 154 210 155
3 157 211 158
