ply
format ascii 1.0
comment Created in Blender version 4.4.1
element vertex 150
property float x
property float y
property float z
property float nx
property float ny
property float nz
property float s
property float t
element face 124
property list uchar uint vertex_indices
end_header
-10 -0.3 -10 0.5773388 0.57737154 0.5773404 0.875 0.5
10 -0.3 10 -0.5773388 0.57737154 -0.5773404 0.625 0.75
10 -0.3 -10 -0.5773514 0.5773498 0.5773498 0.625 0.5
-10 -0.09999998 10 0.5773388 -0.57737154 -0.5773404 0.375 1
10 -0.09999998 10 -0.5773514 -0.5773498 -0.5773498 0.375 0.75
-10 -0.3 10 0.5773514 0.5773498 -0.5773498 0.625 0
-10 -0.09999998 -10 0.5773514 -0.5773498 0.5773498 0.375 0.25
-10 -0.09999998 10 0.5773388 -0.57737154 -0.5773404 0.375 0
10 -0.09999998 -10 -0.5773388 -0.57737154 0.5773404 0.375 0.5
-10 -0.09999998 10 0.5773388 -0.57737154 -0.5773404 0.125 0.75
-10 -0.09999998 -10 0.5773514 -0.5773498 0.5773498 0.125 0.5
-10 -0.3 -10 0.5773388 0.57737154 0.5773404 0.625 0.25
-10 -0.3 10 0.5773514 0.5773498 -0.5773498 0.875 0.75
-10 -0.3 10 0.5773514 0.5773498 -0.5773498 0.625 1
-9.8 -0.1000001 9.8 0.5773572 0.5773598 0.5773339 0.875 0.5
9.800001 -0.1000001 10 -0.5773572 0.5773598 -0.5773339 0.625 0.75
9.800001 -0.1000001 9.8 -0.5773561 0.5773474 0.57734734 0.625 0.5
-9.8 4.9 10 0.5773572 -0.5773598 -0.5773339 0.375 1
9.800001 4.9 10 -0.5773561 -0.5773474 -0.57734734 0.375 0.75
-9.8 -0.1000001 10 0.5773561 0.5773474 -0.57734734 0.625 0
-9.8 4.9 9.8 0.5773561 -0.5773474 0.57734734 0.375 0.25
-9.8 4.9 10 0.5773572 -0.5773598 -0.5773339 0.375 0
9.800001 4.9 9.8 -0.5773572 -0.5773598 0.5773339 0.375 0.5
-9.8 4.9 10 0.5773572 -0.5773598 -0.5773339 0.125 0.75
-9.8 4.9 9.8 0.5773561 -0.5773474 0.57734734 0.125 0.5
-9.8 -0.1000001 9.8 0.5773572 0.5773598 0.5773339 0.625 0.25
-9.8 -0.1000001 10 0.5773561 0.5773474 -0.57734734 0.875 0.75
-9.8 -0.1000001 10 0.5773561 0.5773474 -0.57734734 0.625 1
-9.8 -0.1000001 -10 0.5773572 0.5773598 0.5773339 0.875 0.5
9.800001 -0.1000001 -9.8 -0.5773572 0.5773598 -0.5773339 0.625 0.75
9.800001 -0.1000001 -10 -0.5773561 0.5773474 0.57734734 0.625 0.5
-9.8 4.9 -9.8 0.5773572 -0.5773598 -0.5773339 0.375 1
9.800001 4.9 -9.8 -0.5773561 -0.5773474 -0.57734734 0.375 0.75
-9.8 -0.1000001 -9.8 0.5773561 0.5773474 -0.57734734 0.625 0
-9.8 4.9 -10 0.5773561 -0.5773474 0.57734734 0.375 0.25
-9.8 4.9 -9.8 0.5773572 -0.5773598 -0.5773339 0.375 0
9.800001 4.9 -10 -0.5773572 -0.5773598 0.5773339 0.375 0.5
-9.8 4.9 -9.8 0.5773572 -0.5773598 -0.5773339 0.125 0.75
-9.8 4.9 -10 0.5773561 -0.5773474 0.57734734 0.125 0.5
-9.8 -0.1000001 -10 0.5773572 0.5773598 0.5773339 0.625 0.25
-9.8 -0.1000001 -9.8 0.5773561 0.5773474 -0.57734734 0.875 0.75
-9.8 -0.1000001 -9.8 0.5773561 0.5773474 -0.57734734 0.625 1
9.800001 -0.09999998 10 0.57733476 0.5773589 -0.57735723 0.875 0.5
10 -0.09999998 -10 -0.57733476 0.5773589 0.57735723 0.625 0.75
9.800001 -0.09999998 -10 0.57734734 0.57734734 0.57735616 0.625 0.5
10 4.9 10 -0.57733476 -0.5773589 -0.57735723 0.375 1
10 4.9 -10 -0.57734734 -0.57734734 0.57735616 0.375 0.75
10 -0.09999998 10 -0.57734734 0.57734734 -0.57735616 0.625 0
9.800001 4.9 10 0.57734734 -0.57734734 -0.57735616 0.375 0.25
10 4.9 10 -0.57733476 -0.5773589 -0.57735723 0.375 0
9.800001 4.9 -10 0.57733476 -0.5773589 0.57735723 0.375 0.5
10 4.9 10 -0.57733476 -0.5773589 -0.57735723 0.125 0.75
9.800001 4.9 10 0.57734734 -0.57734734 -0.57735616 0.125 0.5
9.800001 -0.09999998 10 0.57733476 0.5773589 -0.57735723 0.625 0.25
10 -0.09999998 10 -0.57734734 0.57734734 -0.57735616 0.875 0.75
10 -0.09999998 10 -0.57734734 0.57734734 -0.57735616 0.625 1
-10 -0.09999998 10 0.57733476 0.57735884 -0.57735723 0.875 0.5
-9.8 -0.09999998 -10 -0.57733476 0.57735884 0.57735723 0.625 0.75
-10 -0.09999998 -10 0.5773474 0.5773474 0.5773561 0.625 0.5
-9.8 4.9 10 -0.57733476 -0.57735884 -0.57735723 0.375 1
-9.8 4.9 -10 -0.5773474 -0.5773474 0.5773561 0.375 0.75
-9.8 -0.09999998 10 -0.5773474 0.5773474 -0.5773561 0.625 0
-10 4.9 10 0.5773474 -0.5773474 -0.5773561 0.375 0.25
-9.8 4.9 10 -0.57733476 -0.57735884 -0.57735723 0.375 0
-10 4.9 -10 0.57733476 -0.57735884 0.57735723 0.375 0.5
-9.8 4.9 10 -0.57733476 -0.57735884 -0.57735723 0.125 0.75
-10 4.9 10 0.5773474 -0.5773474 -0.5773561 0.125 0.5
-10 -0.09999998 10 0.57733476 0.57735884 -0.57735723 0.625 0.25
-9.8 -0.09999998 10 -0.5773474 0.5773474 -0.5773561 0.875 0.75
-9.8 -0.09999998 10 -0.5773474 0.5773474 -0.5773561 0.625 1
-1.3123031 -0.09999998 -9.8 -0.57734495 -0.5773522 -0.5773537 0.625 0.5
-1.1123033 -0.09999998 -1 0.5773479 -0.5773551 0.5773478 0.7239584 0.75
-1.3123031 -0.09999998 -1 -0.5773419 -0.5773496 0.5773594 0.7239583 0.5
-1.1123033 -0.09999998 9.8 0.57734495 -0.5773522 0.5773537 0.875 0.75
-1.3123031 -0.09999998 1 -0.5773446 -0.57735187 -0.57735443 0.7760417 0.5
-1.1123033 -0.09999998 1 0.5773452 -0.5773529 -0.5773528 0.7760416 0.75
-1.1123033 4.9 -9.8 0.5773475 0.5773473 -0.57735604 0.375 0.75
-1.1123033 4.9 9.8 0.5773282 0.5773626 0.57736 0.375 1
-1.1123033 3.6999998 -1 0.904531 -0.3015152 0.30151677 0.435 0.8489584
-1.3123031 4.9 9.8 -0.5773475 0.5773473 0.57735604 0.375 0.25
-1.1123033 -0.09999998 9.8 0.57734495 -0.5773522 0.5773537 0.625 0
-1.1123033 4.9 9.8 0.5773282 0.5773626 0.57736 0.375 0
-1.1123033 4.9 9.8 0.5773282 0.5773626 0.57736 0.125 0.75
-1.3123031 4.9 -9.8 -0.5773282 0.5773626 -0.57736 0.375 0.5
-1.3123031 4.9 9.8 -0.5773475 0.5773473 0.57735604 0.125 0.5
-1.3123031 3.6999998 1 -0.90453243 -0.30151567 -0.3015121 0.435 0.34895834
-1.1123033 3.6999998 1 0.9045326 -0.3015109 -0.30151606 0.625 0.8424753
-1.3123031 -0.09999998 1 -0.5773446 -0.57735187 -0.57735443 0.375 0.8674753
-1.3123031 3.6999998 1 -0.90453243 -0.30151567 -0.3015121 0.625 0.8674753
-1.1123033 3.6999998 -1 0.904531 -0.3015152 0.30151677 0.7174753 0.5
-1.3123031 3.6999998 1 -0.90453243 -0.30151567 -0.3015121 0.7424753 0.75
-1.3123031 3.6999998 -1 -0.90453404 -0.30151138 0.30151138 0.7424753 0.5
-1.1123033 3.6999998 -1 0.904531 -0.3015152 0.30151677 0.625 0.4075247
-1.3123031 -0.09999998 -1 -0.5773419 -0.5773496 0.5773594 0.375 0.38252473
-1.1123033 -0.09999998 -1 0.5773479 -0.5773551 0.5773478 0.375 0.4075247
-1.1123033 -0.09999998 -9.8 0.5773326 -0.57735914 -0.57735914 0.625 0.75
-1.3123031 -0.09999998 9.8 -0.5773326 -0.57735914 0.57735914 0.875 0.5
-1.1123033 -0.09999998 -1 0.5773479 -0.5773551 0.5773478 0.625 0.8489583
-1.1123033 -0.09999998 9.8 0.57734495 -0.5773522 0.5773537 0.625 1
-1.1123033 -0.09999998 1 0.5773452 -0.5773529 -0.5773528 0.625 0.9010417
-1.1123033 3.6999998 1 0.9045326 -0.3015109 -0.30151606 0.435 0.9010416
-1.3123031 -0.09999998 9.8 -0.5773326 -0.57735914 0.57735914 0.625 0.25
-1.3123031 -0.09999998 1 -0.5773446 -0.57735187 -0.57735443 0.625 0.3489583
-1.3123031 -0.09999998 -1 -0.5773419 -0.5773496 0.5773594 0.625 0.4010417
-1.3123031 3.6999998 -1 -0.90453404 -0.30151138 0.30151138 0.435 0.4010417
-1.1123033 -0.09999998 1 0.5773452 -0.5773529 -0.5773528 0.375 0.8424753
-1.1123033 3.6999998 1 0.9045326 -0.3015109 -0.30151606 0.7174753 0.75
-1.3123031 3.6999998 -1 -0.90453404 -0.30151138 0.30151138 0.625 0.38252473
-1.1123033 3.7506654 6.8633456 -0.5773721 0.5773394 0.5773394 0.625 0
-1.1123033 0.9854502 4.0981326 -0.5773721 -0.5773394 -0.5773394 0.375 0.25
-1.1123033 0.9854502 6.8633456 -0.5773447 -0.57735306 0.57735306 0.375 0
-1.1123033 3.7506654 4.0981326 -0.57734466 0.57735306 -0.57735306 0.625 0.25
-1.0195414 0.9854502 4.0981326 0.5773447 -0.57735306 -0.57735306 0.375 0.5
-1.0195414 3.7506654 4.0981326 0.5773721 0.5773394 -0.5773394 0.625 0.5
-1.0195414 0.9854502 6.8633456 0.5773721 -0.5773394 0.5773394 0.375 0.75
-1.0195414 3.7506654 6.8633456 0.57734466 0.57735306 0.57735306 0.625 0.75
-1.1123033 0.9854502 6.8633456 -0.5773447 -0.57735306 0.57735306 0.375 1
-1.1123033 0.9854502 6.8633456 -0.5773447 -0.57735306 0.57735306 0.125 0.75
-1.1123033 0.9854502 4.0981326 -0.5773721 -0.5773394 -0.5773394 0.125 0.5
-1.1123033 3.7506654 4.0981326 -0.57734466 0.57735306 -0.57735306 0.875 0.5
-1.1123033 3.7506654 6.8633456 -0.5773721 0.5773394 0.5773394 0.625 1
-1.1123033 3.7506654 6.8633456 -0.5773721 0.5773394 0.5773394 0.875 0.75
-1.1123033 3.7506654 6.8633456 -0.5773721 0.5773394 0.5773394 0.625 0
-1.1123033 0.9854502 4.0981326 -0.5773721 -0.5773394 -0.5773394 0.375 0.25
-1.1123033 0.9854502 6.8633456 -0.5773447 -0.57735306 0.57735306 0.375 0
-1.1123033 3.7506654 4.0981326 -0.57734466 0.57735306 -0.57735306 0.625 0.25
-1.0195414 0.9854502 4.0981326 0.5773447 -0.57735306 -0.57735306 0.375 0.5
-1.0195414 3.7506654 4.0981326 0.5773721 0.5773394 -0.5773394 0.625 0.5
-1.0195414 0.9854502 6.8633456 0.5773721 -0.5773394 0.5773394 0.375 0.75
-1.0195414 3.7506654 6.8633456 0.57734466 0.57735306 0.57735306 0.625 0.75
-1.1123033 0.9854502 6.8633456 -0.5773447 -0.57735306 0.57735306 0.375 1
-1.1123033 0.9854502 6.8633456 -0.5773447 -0.57735306 0.57735306 0.125 0.75
-1.1123033 0.9854502 4.0981326 -0.5773721 -0.5773394 -0.5773394 0.125 0.5
-1.1123033 3.7506654 4.0981326 -0.57734466 0.57735306 -0.57735306 0.875 0.5
-1.1123033 3.7506654 6.8633456 -0.5773721 0.5773394 0.5773394 0.625 1
-1.1123033 3.7506654 6.8633456 -0.5773721 0.5773394 0.5773394 0.875 0.75
-1.1123033 3.7506654 -4.1002116 -0.5773721 0.5773394 0.5773394 0.625 0
-1.1123033 0.9854502 -6.8654246 -0.5773721 -0.5773394 -0.5773394 0.375 0.25
-1.1123033 0.9854502 -4.1002116 -0.5773447 -0.57735306 0.57735306 0.375 0
-1.1123033 3.7506654 -6.8654246 -0.57734466 0.57735306 -0.57735306 0.625 0.25
-1.0195414 0.9854502 -6.8654246 0.5773447 -0.57735306 -0.57735306 0.375 0.5
-1.0195414 3.7506654 -6.8654246 0.5773721 0.5773394 -0.5773394 0.625 0.5
-1.0195414 0.9854502 -4.1002116 0.5773721 -0.5773394 0.5773394 0.375 0.75
-1.0195414 3.7506654 -4.1002116 0.57734466 0.57735306 0.57735306 0.625 0.75
-1.1123033 0.9854502 -4.1002116 -0.5773447 -0.57735306 0.57735306 0.375 1
-1.1123033 0.9854502 -4.1002116 -0.5773447 -0.57735306 0.57735306 0.125 0.75
-1.1123033 0.9854502 -6.8654246 -0.5773721 -0.5773394 -0.5773394 0.125 0.5
-1.1123033 3.7506654 -6.8654246 -0.57734466 0.57735306 -0.57735306 0.875 0.5
-1.1123033 3.7506654 -4.1002116 -0.5773721 0.5773394 0.5773394 0.625 1
-1.1123033 3.7506654 -4.1002116 -0.5773721 0.5773394 0.5773394 0.875 0.75
3 0 1 2
3 1 3 4
3 5 6 7
3 8 9 10
3 2 4 8
3 11 8 6
3 0 12 1
3 1 13 3
3 5 11 6
3 8 4 9
3 2 1 4
3 11 2 8
3 14 15 16
3 15 17 18
3 19 20 21
3 22 23 24
3 16 18 22
3 25 22 20
3 14 26 15
3 15 27 17
3 19 25 20
3 22 18 23
3 16 15 18
3 25 16 22
3 28 29 30
3 29 31 32
3 33 34 35
3 36 37 38
3 30 32 36
3 39 36 34
3 28 40 29
3 29 41 31
3 33 39 34
3 36 32 37
3 30 29 32
3 39 30 36
3 42 43 44
3 43 45 46
3 47 48 49
3 50 51 52
3 44 46 50
3 53 50 48
3 42 54 43
3 43 55 45
3 47 53 48
3 50 46 51
3 44 43 46
3 53 44 50
3 56 57 58
3 57 59 60
3 61 62 63
3 64 65 66
3 58 60 64
3 67 64 62
3 56 68 57
3 57 69 59
3 61 67 62
3 64 60 65
3 58 57 60
3 67 58 64
3 70 71 72
3 73 74 75
3 76 77 78
3 79 80 81
3 82 83 84
3 76 70 83
3 79 83 85
3 86 87 88
3 89 90 91
3 92 93 94
3 70 95 71
3 73 96 74
3 78 97 95
3 77 98 99
3 77 99 100
3 78 95 76
3 77 100 78
3 79 101 80
3 82 76 83
3 76 95 70
3 85 102 101
3 83 70 103
3 83 103 104
3 85 101 79
3 83 104 85
3 86 105 87
3 89 106 90
3 92 107 93
3 108 109 110
3 111 112 109
3 113 114 112
3 115 116 114
3 112 117 118
3 119 115 113
3 108 111 109
3 111 113 112
3 113 115 114
3 115 120 116
3 112 114 117
3 119 121 115
3 122 123 124
3 125 126 123
3 127 128 126
3 129 130 128
3 126 131 132
3 133 129 127
3 122 125 123
3 125 127 126
3 127 129 128
3 129 134 130
3 126 128 131
3 133 135 129
3 136 137 138
3 139 140 137
3 141 142 140
3 143 144 142
3 140 145 146
3 147 143 141
3 136 139 137
3 139 141 140
3 141 143 142
3 143 148 144
3 140 142 145
3 147 149 143
