ply
format ascii 1.0
comment Created in Blender version 4.4.1
element vertex 108
property float x
property float y
property float z
property float nx
property float ny
property float nz
property float s
property float t
element face 88
property list uchar uint vertex_indices
end_header
-5 -0.3 -5 0.5773372 0.5773699 0.57734376 0.875 0.5
5 -0.3 5 -0.5773372 0.5773699 -0.57734376 0.625 0.75
5 -0.3 -5 -0.57735467 0.5773481 0.5773481 0.625 0.5
-5 -0.09999998 5 0.5773372 -0.5773699 -0.57734376 0.375 1
5 -0.09999998 5 -0.57735467 -0.5773481 -0.5773481 0.375 0.75
-5 -0.3 5 0.57735467 0.5773481 -0.5773481 0.625 0
-5 -0.09999998 -5 0.57735467 -0.5773481 0.5773481 0.375 0.25
-5 -0.09999998 5 0.5773372 -0.5773699 -0.57734376 0.375 0
5 -0.09999998 -5 -0.5773372 -0.5773699 0.57734376 0.375 0.5
-5 -0.09999998 5 0.5773372 -0.5773699 -0.57734376 0.125 0.75
-5 -0.09999998 -5 0.57735467 -0.5773481 0.5773481 0.125 0.5
-5 -0.3 -5 0.5773372 0.5773699 0.57734376 0.625 0.25
-5 -0.3 5 0.57735467 0.5773481 -0.5773481 0.875 0.75
-5 -0.3 5 0.57735467 0.5773481 -0.5773481 0.625 1
-5 -0.1000001 4.8 0.5773542 0.57736075 0.577336 0.875 0.5
5 -0.1000001 5 -0.5773542 0.57736075 -0.577336 0.625 0.75
5 -0.1000001 4.8 -0.5773561 0.5773474 0.5773474 0.625 0.5
-5 4.9 5 0.5773542 -0.57736075 -0.577336 0.375 1
5 4.9 5 -0.5773561 -0.5773474 -0.5773474 0.375 0.75
-5 -0.1000001 5 0.5773561 0.5773474 -0.5773474 0.625 0
-5 4.9 4.8 0.5773561 -0.5773474 0.5773474 0.375 0.25
-5 4.9 5 0.5773542 -0.57736075 -0.577336 0.375 0
5 4.9 4.8 -0.5773542 -0.57736075 0.577336 0.375 0.5
-5 4.9 5 0.5773542 -0.57736075 -0.577336 0.125 0.75
-5 4.9 4.8 0.5773561 -0.5773474 0.5773474 0.125 0.5
-5 -0.1000001 4.8 0.5773542 0.57736075 0.577336 0.625 0.25
-5 -0.1000001 5 0.5773561 0.5773474 -0.5773474 0.875 0.75
-5 -0.1000001 5 0.5773561 0.5773474 -0.5773474 0.625 1
-5 -0.1000001 -5 0.5773542 0.57736075 0.577336 0.875 0.5
5 -0.1000001 -4.8 -0.5773542 0.57736075 -0.577336 0.625 0.75
5 -0.1000001 -5 -0.5773561 0.5773474 0.5773474 0.625 0.5
-5 4.9 -4.8 0.5773542 -0.57736075 -0.577336 0.375 1
5 4.9 -4.8 -0.5773561 -0.5773474 -0.5773474 0.375 0.75
-5 -0.1000001 -4.8 0.5773561 0.5773474 -0.5773474 0.625 0
-5 4.9 -5 0.5773561 -0.5773474 0.5773474 0.375 0.25
-5 4.9 -4.8 0.5773542 -0.57736075 -0.577336 0.375 0
5 4.9 -5 -0.5773542 -0.57736075 0.577336 0.375 0.5
-5 4.9 -4.8 0.5773542 -0.57736075 -0.577336 0.125 0.75
-5 4.9 -5 0.5773561 -0.5773474 0.5773474 0.125 0.5
-5 -0.1000001 -5 0.5773542 0.57736075 0.577336 0.625 0.25
-5 -0.1000001 -4.8 0.5773561 0.5773474 -0.5773474 0.875 0.75
-5 -0.1000001 -4.8 0.5773561 0.5773474 -0.5773474 0.625 1
4.8 -0.09999998 4.8 0.57733834 0.57735896 -0.57735354 0.875 0.5
5 -0.09999998 -4.8 -0.57733834 0.57735896 0.57735354 0.625 0.75
4.8 -0.09999998 -4.8 0.5773474 0.5773474 0.5773561 0.625 0.5
5 4.9 4.8 -0.57733834 -0.57735896 -0.57735354 0.375 1
5 4.9 -4.8 -0.5773474 -0.5773474 0.5773561 0.375 0.75
5 -0.09999998 4.8 -0.5773474 0.5773474 -0.5773561 0.625 0
4.8 4.9 4.8 0.5773474 -0.5773474 -0.5773561 0.375 0.25
5 4.9 4.8 -0.57733834 -0.57735896 -0.57735354 0.375 0
4.8 4.9 -4.8 0.57733834 -0.57735896 0.57735354 0.375 0.5
5 4.9 4.8 -0.57733834 -0.57735896 -0.57735354 0.125 0.75
4.8 4.9 4.8 0.5773474 -0.5773474 -0.5773561 0.125 0.5
4.8 -0.09999998 4.8 0.57733834 0.57735896 -0.57735354 0.625 0.25
5 -0.09999998 4.8 -0.5773474 0.5773474 -0.5773561 0.875 0.75
5 -0.09999998 4.8 -0.5773474 0.5773474 -0.5773561 0.625 1
-5 -0.09999998 4.8 0.57733834 0.57735896 -0.57735354 0.875 0.5
-4.8 -0.09999998 -4.8 -0.57733834 0.57735896 0.57735354 0.625 0.75
-5 -0.09999998 -4.8 0.5773474 0.5773474 0.5773561 0.625 0.5
-4.8 4.9 4.8 -0.57733834 -0.57735896 -0.57735354 0.375 1
-4.8 4.9 -4.8 -0.5773474 -0.5773474 0.5773561 0.375 0.75
-4.8 -0.09999998 4.8 -0.5773474 0.5773474 -0.5773561 0.625 0
-5 4.9 4.8 0.5773474 -0.5773474 -0.5773561 0.375 0.25
-4.8 4.9 4.8 -0.57733834 -0.57735896 -0.57735354 0.375 0
-5 4.9 -4.8 0.57733834 -0.57735896 0.57735354 0.375 0.5
-4.8 4.9 4.8 -0.57733834 -0.57735896 -0.57735354 0.125 0.75
-5 4.9 4.8 0.5773474 -0.5773474 -0.5773561 0.125 0.5
-5 -0.09999998 4.8 0.57733834 0.57735896 -0.57735354 0.625 0.25
-4.8 -0.09999998 4.8 -0.5773474 0.5773474 -0.5773561 0.875 0.75
-4.8 -0.09999998 4.8 -0.5773474 0.5773474 -0.5773561 0.625 1
-1.3123031 -0.09999998 -4.8 -0.57734406 -0.57735395 -0.5773528 0.625 0.5
-1.1123033 -0.09999998 -1 0.577347 -0.5773569 0.5773469 0.7239584 0.75
-1.3123031 -0.09999998 -1 -0.57736045 -0.5773403 0.57735014 0.7239583 0.5
-1.1123033 -0.09999998 4.8 0.57734406 -0.57735395 0.5773528 0.875 0.75
-1.3123031 -0.09999998 1 -0.57734376 -0.5773536 -0.5773536 0.7760417 0.5
-1.1123033 -0.09999998 1 0.5773637 -0.5773436 -0.5773436 0.7760416 0.75
-1.1123033 4.9 -4.8 0.5773278 0.57735723 -0.5773659 0.375 0.75
-1.1123033 4.9 4.8 0.57734627 0.577355 0.57734954 0.375 1
-1.1123033 3.6999998 -1 0.90453076 -0.30151543 0.301517 0.435 0.8489584
-1.3123031 4.9 4.8 -0.5773278 0.57735723 0.5773659 0.375 0.25
-1.1123033 -0.09999998 4.8 0.57734406 -0.57735395 0.5773528 0.625 0
-1.1123033 4.9 4.8 0.57734627 0.577355 0.57734954 0.375 0
-1.1123033 4.9 4.8 0.57734627 0.577355 0.57734954 0.125 0.75
-1.3123031 4.9 -4.8 -0.57734627 0.577355 -0.57734954 0.375 0.5
-1.3123031 4.9 4.8 -0.5773278 0.57735723 0.5773659 0.125 0.5
-1.3123031 3.6999998 1 -0.9045323 -0.3015159 -0.30151236 0.435 0.34895834
-1.1123033 3.6999998 1 0.9045354 -0.3015067 -0.30151182 0.625 0.8424753
-1.3123031 -0.09999998 1 -0.57734376 -0.5773536 -0.5773536 0.375 0.8674753
-1.3123031 3.6999998 1 -0.9045323 -0.3015159 -0.30151236 0.625 0.8674753
-1.1123033 3.6999998 -1 0.90453076 -0.30151543 0.301517 0.7174753 0.5
-1.3123031 3.6999998 1 -0.9045323 -0.3015159 -0.30151236 0.7424753 0.75
-1.3123031 3.6999998 -1 -0.90453684 -0.30150715 0.30150717 0.7424753 0.5
-1.1123033 3.6999998 -1 0.90453076 -0.30151543 0.301517 0.625 0.4075247
-1.3123031 -0.09999998 -1 -0.57736045 -0.5773403 0.57735014 0.375 0.38252473
-1.1123033 -0.09999998 -1 0.577347 -0.5773569 0.5773469 0.375 0.4075247
-1.1123033 -0.09999998 -4.8 0.5773721 -0.57733935 -0.57733935 0.625 0.75
-1.3123031 -0.09999998 4.8 -0.5773721 -0.57733935 0.57733935 0.875 0.5
-1.1123033 -0.09999998 -1 0.577347 -0.5773569 0.5773469 0.625 0.8489583
-1.1123033 -0.09999998 4.8 0.57734406 -0.57735395 0.5773528 0.625 1
-1.1123033 -0.09999998 1 0.5773637 -0.5773436 -0.5773436 0.625 0.9010417
-1.1123033 3.6999998 1 0.9045354 -0.3015067 -0.30151182 0.435 0.9010416
-1.3123031 -0.09999998 4.8 -0.5773721 -0.57733935 0.57733935 0.625 0.25
-1.3123031 -0.09999998 1 -0.57734376 -0.5773536 -0.5773536 0.625 0.3489583
-1.3123031 -0.09999998 -1 -0.57736045 -0.5773403 0.57735014 0.625 0.4010417
-1.3123031 3.6999998 -1 -0.90453684 -0.30150715 0.30150717 0.435 0.4010417
-1.1123033 -0.09999998 1 0.5773637 -0.5773436 -0.5773436 0.375 0.8424753
-1.1123033 3.6999998 1 0.9045354 -0.3015067 -0.30151182 0.7174753 0.75
-1.3123031 3.6999998 -1 -0.90453684 -0.30150715 0.30150717 0.625 0.38252473
3 0 1 2
3 1 3 4
3 5 6 7
3 8 9 10
3 2 4 8
3 11 8 6
3 0 12 1
3 1 13 3
3 5 11 6
3 8 4 9
3 2 1 4
3 11 2 8
3 14 15 16
3 15 17 18
3 19 20 21
3 22 23 24
3 16 18 22
3 25 22 20
3 14 26 15
3 15 27 17
3 19 25 20
3 22 18 23
3 16 15 18
3 25 16 22
3 28 29 30
3 29 31 32
3 33 34 35
3 36 37 38
3 30 32 36
3 39 36 34
3 28 40 29
3 29 41 31
3 33 39 34
3 36 32 37
3 30 29 32
3 39 30 36
3 42 43 44
3 43 45 46
3 47 48 49
3 50 51 52
3 44 46 50
3 53 50 48
3 42 54 43
3 43 55 45
3 47 53 48
3 50 46 51
3 44 43 46
3 53 44 50
3 56 57 58
3 57 59 60
3 61 62 63
3 64 65 66
3 58 60 64
3 67 64 62
3 56 68 57
3 57 69 59
3 61 67 62
3 64 60 65
3 58 57 60
3 67 58 64
3 70 71 72
3 73 74 75
3 76 77 78
3 79 80 81
3 82 83 84
3 76 70 83
3 79 83 85
3 86 87 88
3 89 90 91
3 92 93 94
3 70 95 71
3 73 96 74
3 78 97 95
3 77 98 99
3 77 99 100
3 78 95 76
3 77 100 78
3 79 101 80
3 82 76 83
3 76 95 70
3 85 102 101
3 83 70 103
3 83 103 104
3 85 101 79
3 83 104 85
3 86 105 87
3 89 106 90
3 92 107 93
