ply
format ascii 1.0
comment Created in Blender version 4.4.1
element vertex 240
property float x
property float y
property float z
property float nx
property float ny
property float nz
property float s
property float t
element face 124
property list uchar uint vertex_indices
end_header
-10 -0.3 -10 0 1 0 0.875 0.5
10 -0.3 10 0 1 0 0.625 0.75
10 -0.3 -10 0 1 0 0.625 0.5
10 -0.3 10 0 0 -1 0.625 0.75
-10 -0.09999998 10 0 0 -1 0.375 1
10 -0.09999998 10 0 0 -1 0.375 0.75
-10 -0.3 10 1 0 0 0.625 0
-10 -0.09999998 -10 1 0 0 0.375 0.25
-10 -0.09999998 10 1 0 0 0.375 0
10 -0.09999998 -10 0 -1 0 0.375 0.5
-10 -0.09999998 10 0 -1 0 0.125 0.75
-10 -0.09999998 -10 0 -1 0 0.125 0.5
10 -0.3 -10 -1 0 0 0.625 0.5
10 -0.09999998 10 -1 0 0 0.375 0.75
10 -0.09999998 -10 -1 0 0 0.375 0.5
-10 -0.3 -10 0 0 1 0.625 0.25
10 -0.09999998 -10 0 0 1 0.375 0.5
-10 -0.09999998 -10 0 0 1 0.375 0.25
-10 -0.3 10 0 1 0 0.875 0.75
-10 -0.3 10 0 0 -1 0.625 1
-10 -0.3 -10 1 0 0 0.625 0.25
10 -0.09999998 10 0 -1 0 0.375 0.75
10 -0.3 10 -1 0 0 0.625 0.75
10 -0.3 -10 0 0 1 0.625 0.5
-9.8 -0.1000001 9.8 0 1 0 0.875 0.5
9.800001 -0.1000001 10 0 1 0 0.625 0.75
9.800001 -0.1000001 9.8 0 1 0 0.625 0.5
9.800001 -0.1000001 10 0 0 -1 0.625 0.75
-9.8 4.9 10 0 0 -1 0.375 1
9.800001 4.9 10 0 0 -1 0.375 0.75
-9.8 -0.1000001 10 1 0 0 0.625 0
-9.8 4.9 9.8 1 0 0 0.375 0.25
-9.8 4.9 10 1 0 0 0.375 0
9.800001 4.9 9.8 0 -1 0 0.375 0.5
-9.8 4.9 10 0 -1 0 0.125 0.75
-9.8 4.9 9.8 0 -1 0 0.125 0.5
9.800001 -0.1000001 9.8 -1 0 0 0.625 0.5
9.800001 4.9 10 -1 0 0 0.375 0.75
9.800001 4.9 9.8 -1 0 0 0.375 0.5
-9.8 -0.1000001 9.8 0 0 1 0.625 0.25
9.800001 4.9 9.8 0 0 1 0.375 0.5
-9.8 4.9 9.8 0 0 1 0.375 0.25
-9.8 -0.1000001 10 0 1 0 0.875 0.75
-9.8 -0.1000001 10 0 0 -1 0.625 1
-9.8 -0.1000001 9.8 1 0 0 0.625 0.25
9.800001 4.9 10 0 -1 0 0.375 0.75
9.800001 -0.1000001 10 -1 0 0 0.625 0.75
9.800001 -0.1000001 9.8 0 0 1 0.625 0.5
-9.8 -0.1000001 -10 0 1 0 0.875 0.5
9.800001 -0.1000001 -9.8 0 1 0 0.625 0.75
9.800001 -0.1000001 -10 0 1 0 0.625 0.5
9.800001 -0.1000001 -9.8 0 0 -1 0.625 0.75
-9.8 4.9 -9.8 0 0 -1 0.375 1
9.800001 4.9 -9.8 0 0 -1 0.375 0.75
-9.8 -0.1000001 -9.8 1 0 0 0.625 0
-9.8 4.9 -10 1 0 0 0.375 0.25
-9.8 4.9 -9.8 1 0 0 0.375 0
9.800001 4.9 -10 0 -1 0 0.375 0.5
-9.8 4.9 -9.8 0 -1 0 0.125 0.75
-9.8 4.9 -10 0 -1 0 0.125 0.5
9.800001 -0.1000001 -10 -1 0 0 0.625 0.5
9.800001 4.9 -9.8 -1 0 0 0.375 0.75
9.800001 4.9 -10 -1 0 0 0.375 0.5
-9.8 -0.1000001 -10 0 0 1 0.625 0.25
9.800001 4.9 -10 0 0 1 0.375 0.5
-9.8 4.9 -10 0 0 1 0.375 0.25
-9.8 -0.1000001 -9.8 0 1 0 0.875 0.75
-9.8 -0.1000001 -9.8 0 0 -1 0.625 1
-9.8 -0.1000001 -10 1 0 0 0.625 0.25
9.800001 4.9 -9.8 0 -1 0 0.375 0.75
9.800001 -0.1000001 -9.8 -1 0 0 0.625 0.75
9.800001 -0.1000001 -10 0 0 1 0.625 0.5
9.800001 -0.09999998 10 0 1 0 0.875 0.5
10 -0.09999998 -10 0 1 0 0.625 0.75
9.800001 -0.09999998 -10 0 1 0 0.625 0.5
10 -0.09999998 -10 -1 0 0 0.625 0.75
10 4.9 10 -1 0 0 0.375 1
10 4.9 -10 -1 0 0 0.375 0.75
10 -0.09999998 10 0 0 -1 0.625 0
9.800001 4.9 10 0 0 -1 0.375 0.25
10 4.9 10 0 0 -1 0.375 0
9.800001 4.9 -10 0 -1 0 0.375 0.5
10 4.9 10 0 -1 0 0.125 0.75
9.800001 4.9 10 0 -1 0 0.125 0.5
9.800001 -0.09999998 -10 0 0 1 0.625 0.5
10 4.9 -10 0 0 1 0.375 0.75
9.800001 4.9 -10 0 0 1 0.375 0.5
9.800001 -0.09999998 10 1 0 0 0.625 0.25
9.800001 4.9 -10 1 0 0 0.375 0.5
9.800001 4.9 10 1 0 0 0.375 0.25
10 -0.09999998 10 0 1 0 0.875 0.75
10 -0.09999998 10 -1 0 0 0.625 1
9.800001 -0.09999998 10 0 0 -1 0.625 0.25
10 4.9 -10 0 -1 0 0.375 0.75
10 -0.09999998 -10 0 0 1 0.625 0.75
9.800001 -0.09999998 -10 1 0 0 0.625 0.5
-10 -0.09999998 10 0 1 0 0.875 0.5
-9.8 -0.09999998 -10 0 1 0 0.625 0.75
-10 -0.09999998 -10 0 1 0 0.625 0.5
-9.8 -0.09999998 -10 -1 0 0 0.625 0.75
-9.8 4.9 10 -1 0 0 0.375 1
-9.8 4.9 -10 -1 0 0 0.375 0.75
-9.8 -0.09999998 10 0 0 -1 0.625 0
-10 4.9 10 0 0 -1 0.375 0.25
-9.8 4.9 10 0 0 -1 0.375 0
-10 4.9 -10 0 -1 0 0.375 0.5
-9.8 4.9 10 0 -1 0 0.125 0.75
-10 4.9 10 0 -1 0 0.125 0.5
-10 -0.09999998 -10 0 0 1 0.625 0.5
-9.8 4.9 -10 0 0 1 0.375 0.75
-10 4.9 -10 0 0 1 0.375 0.5
-10 -0.09999998 10 1 0 0 0.625 0.25
-10 4.9 -10 1 0 0 0.375 0.5
-10 4.9 10 1 0 0 0.375 0.25
-9.8 -0.09999998 10 0 1 0 0.875 0.75
-9.8 -0.09999998 10 -1 0 0 0.625 1
-10 -0.09999998 10 0 0 -1 0.625 0.25
-9.8 4.9 -10 0 -1 0 0.375 0.75
-9.8 -0.09999998 -10 0 0 1 0.625 0.75
-10 -0.09999998 -10 1 0 0 0.625 0.5
-1.3123031 -0.09999998 -9.8 0 -1 0 0.625 0.5
-1.1123033 -0.09999998 -1 0 -1 0 0.7239584 0.75
-1.3123031 -0.09999998 -1 0 -1 0 0.7239583 0.5
-1.1123033 -0.09999998 9.8 0 -1 0 0.875 0.75
-1.3123031 -0.09999998 1 0 -1 0 0.7760417 0.5
-1.1123033 -0.09999998 1 0 -1 0 0.7760416 0.75
-1.1123033 4.9 -9.8 1 0 1.9804798e-08 0.375 0.75
-1.1123033 4.9 9.8 1 0 0 0.375 1
-1.1123033 3.6999998 -1 1 0 2.4982765e-09 0.435 0.8489584
-1.3123031 4.9 9.8 0 0 1 0.375 0.25
-1.1123033 -0.09999998 9.8 0 0 1 0.625 0
-1.1123033 4.9 9.8 0 0 1 0.375 0
-1.1123033 4.9 9.8 0 1 0 0.125 0.75
-1.3123031 4.9 -9.8 0 1 0 0.375 0.5
-1.3123031 4.9 9.8 0 1 0 0.125 0.5
-1.1123033 4.9 -9.8 0 0 -1 0.375 0.75
-1.3123031 -0.09999998 -9.8 0 0 -1 0.625 0.5
-1.3123031 4.9 -9.8 0 0 -1 0.375 0.5
-1.3123031 4.9 9.8 -1 0 -1.9804798e-08 0.375 0.25
-1.3123031 4.9 -9.8 -1 0 6.920144e-09 0.375 0.5
-1.3123031 3.6999998 1 -1 0 -2.4982765e-09 0.435 0.34895834
-1.1123033 3.6999998 1 0 0 -1 0.625 0.8424753
-1.3123031 -0.09999998 1 0 0 -1 0.375 0.8674753
-1.3123031 3.6999998 1 0 0 -1 0.625 0.8674753
-1.1123033 3.6999998 -1 0 -1 0 0.7174753 0.5
-1.3123031 3.6999998 1 0 -1 0 0.7424753 0.75
-1.3123031 3.6999998 -1 0 -1 0 0.7424753 0.5
-1.1123033 3.6999998 -1 0 0 1 0.625 0.4075247
-1.3123031 -0.09999998 -1 0 0 1 0.375 0.38252473
-1.1123033 -0.09999998 -1 0 0 1 0.375 0.4075247
-1.1123033 -0.09999998 -9.8 0 -1 0 0.625 0.75
-1.3123031 -0.09999998 9.8 0 -1 0 0.875 0.5
-1.1123033 -0.09999998 -1 1 0 0 0.625 0.8489583
-1.1123033 -0.09999998 -9.8 1 0 1.6049905e-08 0.625 0.75
-1.1123033 -0.09999998 9.8 1 0 0 0.625 1
-1.1123033 -0.09999998 1 1 0 0 0.625 0.9010417
-1.1123033 3.6999998 1 1 0 0 0.435 0.9010416
-1.3123031 -0.09999998 9.8 0 0 1 0.625 0.25
-1.1123033 4.9 -9.8 0 1 0 0.375 0.75
-1.1123033 -0.09999998 -9.8 0 0 -1 0.625 0.75
-1.3123031 -0.09999998 1 -1 0 0 0.625 0.3489583
-1.3123031 -0.09999998 9.8 -1 0 -1.6049905e-08 0.625 0.25
-1.3123031 -0.09999998 -9.8 -1 0 0 0.625 0.5
-1.3123031 -0.09999998 -1 -1 0 1.9137875e-08 0.625 0.4010417
-1.3123031 3.6999998 -1 -1 0 1.0326326e-08 0.435 0.4010417
-1.1123033 -0.09999998 1 0 0 -1 0.375 0.8424753
-1.1123033 3.6999998 1 0 -1 0 0.7174753 0.75
-1.3123031 3.6999998 -1 0 0 1 0.625 0.38252473
-1.1123033 3.7506654 6.8633456 -1 0 0 0.625 0
-1.1123033 0.9854502 4.0981326 -1 0 0 0.375 0.25
-1.1123033 0.9854502 6.8633456 -1 0 0 0.375 0
-1.1123033 3.7506654 4.0981326 0 0 -1 0.625 0.25
-1.0195414 0.9854502 4.0981326 0 0 -1 0.375 0.5
-1.1123033 0.9854502 4.0981326 0 0 -1 0.375 0.25
-1.0195414 3.7506654 4.0981326 1 0 0 0.625 0.5
-1.0195414 0.9854502 6.8633456 1 0 0 0.375 0.75
-1.0195414 0.9854502 4.0981326 1 0 0 0.375 0.5
-1.0195414 3.7506654 6.8633456 0 0 1 0.625 0.75
-1.1123033 0.9854502 6.8633456 0 0 1 0.375 1
-1.0195414 0.9854502 6.8633456 0 0 1 0.375 0.75
-1.0195414 0.9854502 4.0981326 0 -1 0 0.375 0.5
-1.1123033 0.9854502 6.8633456 0 -1 0 0.125 0.75
-1.1123033 0.9854502 4.0981326 0 -1 0 0.125 0.5
-1.1123033 3.7506654 4.0981326 0 1 0 0.875 0.5
-1.0195414 3.7506654 6.8633456 0 1 0 0.625 0.75
-1.0195414 3.7506654 4.0981326 0 1 0 0.625 0.5
-1.1123033 3.7506654 4.0981326 -1 0 0 0.625 0.25
-1.0195414 3.7506654 4.0981326 0 0 -1 0.625 0.5
-1.0195414 3.7506654 6.8633456 1 0 0 0.625 0.75
-1.1123033 3.7506654 6.8633456 0 0 1 0.625 1
-1.0195414 0.9854502 6.8633456 0 -1 0 0.375 0.75
-1.1123033 3.7506654 6.8633456 0 1 0 0.875 0.75
-1.1123033 3.7506654 6.8633456 -1 0 0 0.625 0
-1.1123033 0.9854502 4.0981326 -1 0 0 0.375 0.25
-1.1123033 0.9854502 6.8633456 -1 0 0 0.375 0
-1.1123033 3.7506654 4.0981326 0 0 -1 0.625 0.25
-1.0195414 0.9854502 4.0981326 0 0 -1 0.375 0.5
-1.1123033 0.9854502 4.0981326 0 0 -1 0.375 0.25
-1.0195414 3.7506654 4.0981326 1 0 0 0.625 0.5
-1.0195414 0.9854502 6.8633456 1 0 0 0.375 0.75
-1.0195414 0.9854502 4.0981326 1 0 0 0.375 0.5
-1.0195414 3.7506654 6.8633456 0 0 1 0.625 0.75
-1.1123033 0.9854502 6.8633456 0 0 1 0.375 1
-1.0195414 0.9854502 6.8633456 0 0 1 0.375 0.75
-1.0195414 0.9854502 4.0981326 0 -1 0 0.375 0.5
-1.1123033 0.9854502 6.8633456 0 -1 0 0.125 0.75
-1.1123033 0.9854502 4.0981326 0 -1 0 0.125 0.5
-1.1123033 3.7506654 4.0981326 0 1 0 0.875 0.5
-1.0195414 3.7506654 6.8633456 0 1 0 0.625 0.75
-1.0195414 3.7506654 4.0981326 0 1 0 0.625 0.5
-1.1123033 3.7506654 4.0981326 -1 0 0 0.625 0.25
-1.0195414 3.7506654 4.0981326 0 0 -1 0.625 0.5
-1.0195414 3.7506654 6.8633456 1 0 0 0.625 0.75
-1.1123033 3.7506654 6.8633456 0 0 1 0.625 1
-1.0195414 0.9854502 6.8633456 0 -1 0 0.375 0.75
-1.1123033 3.7506654 6.8633456 0 1 0 0.875 0.75
-1.1123033 3.7506654 -4.1002116 -1 0 0 0.625 0
-1.1123033 0.9854502 -6.8654246 -1 0 0 0.375 0.25
-1.1123033 0.9854502 -4.1002116 -1 0 0 0.375 0
-1.1123033 3.7506654 -6.8654246 0 0 -1 0.625 0.25
-1.0195414 0.9854502 -6.8654246 0 0 -1 0.375 0.5
-1.1123033 0.9854502 -6.8654246 0 0 -1 0.375 0.25
-1.0195414 3.7506654 -6.8654246 1 0 0 0.625 0.5
-1.0195414 0.9854502 -4.1002116 1 0 0 0.375 0.75
-1.0195414 0.9854502 -6.8654246 1 0 0 0.375 0.5
-1.0195414 3.7506654 -4.1002116 0 0 1 0.625 0.75
-1.1123033 0.9854502 -4.1002116 0 0 1 0.375 1
-1.0195414 0.9854502 -4.1002116 0 0 1 0.375 0.75
-1.0195414 0.9854502 -6.8654246 0 -1 0 0.375 0.5
-1.1123033 0.9854502 -4.1002116 0 -1 0 0.125 0.75
-1.1123033 0.9854502 -6.8654246 0 -1 0 0.125 0.5
-1.1123033 3.7506654 -6.8654246 0 1 0 0.875 0.5
-1.0195414 3.7506654 -4.1002116 0 1 0 0.625 0.75
-1.0195414 3.7506654 -6.8654246 0 1 0 0.625 0.5
-1.1123033 3.7506654 -6.8654246 -1 0 0 0.625 0.25
-1.0195414 3.7506654 -6.8654246 0 0 -1 0.625 0.5
-1.0195414 3.7506654 -4.1002116 1 0 0 0.625 0.75
-1.1123033 3.7506654 -4.1002116 0 0 1 0.625 1
-1.0195414 0.9854502 -4.1002116 0 -1 0 0.375 0.75
-1.1123033 3.7506654 -4.1002116 0 1 0 0.875 0.75
3 0 1 2
3 3 4 5
3 6 7 8
3 9 10 11
3 12 13 14
3 15 16 17
3 0 18 1
3 3 19 4
3 6 20 7
3 9 21 10
3 12 22 13
3 15 23 16
3 24 25 26
3 27 28 29
3 30 31 32
3 33 34 35
3 36 37 38
3 39 40 41
3 24 42 25
3 27 43 28
3 30 44 31
3 33 45 34
3 36 46 37
3 39 47 40
3 48 49 50
3 51 52 53
3 54 55 56
3 57 58 59
3 60 61 62
3 63 64 65
3 48 66 49
3 51 67 52
3 54 68 55
3 57 69 58
3 60 70 61
3 63 71 64
3 72 73 74
3 75 76 77
3 78 79 80
3 81 82 83
3 84 85 86
3 87 88 89
3 72 90 73
3 75 91 76
3 78 92 79
3 81 93 82
3 84 94 85
3 87 95 88
3 96 97 98
3 99 100 101
3 102 103 104
3 105 106 107
3 108 109 110
3 111 112 113
3 96 114 97
3 99 115 100
3 102 116 103
3 105 117 106
3 108 118 109
3 111 119 112
3 120 121 122
3 123 124 125
3 126 127 128
3 129 130 131
3 132 133 134
3 135 136 137
3 138 139 140
3 141 142 143
3 144 145 146
3 147 148 149
3 120 150 121
3 123 151 124
3 128 152 153
3 127 154 155
3 127 155 156
3 128 153 126
3 127 156 128
3 129 157 130
3 132 158 133
3 135 159 136
3 140 160 161
3 139 162 163
3 139 163 164
3 140 161 138
3 139 164 140
3 141 165 142
3 144 166 145
3 147 167 148
3 168 169 170
3 171 172 173
3 174 175 176
3 177 178 179
3 180 181 182
3 183 184 185
3 168 186 169
3 171 187 172
3 174 188 175
3 177 189 178
3 180 190 181
3 183 191 184
3 192 193 194
3 195 196 197
3 198 199 200
3 201 202 203
3 204 205 206
3 207 208 209
3 192 210 193
3 195 211 196
3 198 212 199
3 201 213 202
3 204 214 205
3 207 215 208
3 216 217 218
3 219 220 221
3 222 223 224
3 225 226 227
3 228 229 230
3 231 232 233
3 216 234 217
3 219 235 220
3 222 236 223
3 225 237 226
3 228 238 229
3 231 239 232
