ply
format ascii 1.0
comment Created in Blender version 4.4.1
element vertex 72
property float x
property float y
property float z
property float nx
property float ny
property float nz
property float s
property float t
element face 36
property list uchar uint vertex_indices
end_header
2.8586574 0.56104445 -7.1165338 -0.57734233 0.57735425 0.57735425 0.41002208 0.76823664
2.8586574 0.23052216 -8.830083 -0.57734233 -0.57735425 -0.57735425 0.5033477 0.75023526
2.8586574 0.23052216 -7.1165338 -0.5773524 -0.5773399 0.57735854 0.41002208 0.75023526
2.8586574 0.56104445 -8.830083 -0.5773524 0.5773399 -0.5773586 0.3297367 0.78682905
6.0458703 0.23052216 -8.830083 0.5773524 -0.5773398 -0.57735854 0.50332314 0.7688277
2.8586574 0.23052216 -8.830083 -0.57734233 -0.57735425 -0.57735425 0.3297367 0.7688277
6.0458703 0.56104445 -8.830083 0.57734233 0.57735425 -0.57735425 0.40954065 0.7682366
6.0458703 0.23052216 -7.1165338 0.57734233 -0.57735425 0.57735425 0.31621498 0.75023526
6.0458703 0.23052216 -8.830083 0.5773524 -0.5773398 -0.57735854 0.40954065 0.75023526
6.0458703 0.56104445 -7.1165338 0.57735234 0.5773399 0.57735854 0.29762262 0.96100646
2.8586574 0.23052216 -7.1165338 -0.5773524 -0.5773399 0.57735854 0.31562394 0.78742003
6.0458703 0.23052216 -7.1165338 0.57734233 -0.57735425 0.57735425 0.315624 0.96100646
6.0458703 0.23052216 -8.830083 0.5773524 -0.5773398 -0.57735854 0.41002208 0.9610064
2.8586574 0.23052216 -7.1165338 -0.5773524 -0.5773399 0.57735854 0.50334775 0.78742003
2.8586574 0.23052216 -8.830083 -0.57734233 -0.57735425 -0.57735425 0.41002208 0.78742003
2.8586574 0.56104445 -8.830083 -0.5773524 0.5773399 -0.5773586 0.31621498 0.78742003
6.0458703 0.56104445 -7.1165338 0.57735234 0.5773399 0.57735854 0.40954065 0.9610064
6.0458703 0.56104445 -8.830083 0.57734233 0.57735425 -0.57735425 0.31621498 0.9610064
2.8586574 0.23052216 -7.1165338 -0.57734233 0.57735425 0.57735425 0.026183806 0.98608
2.8586574 -0.10000014 -8.830083 -0.57734233 -0.57735425 -0.57735425 0.10605218 0.9514174
2.8586574 -0.10000014 -7.1165338 -0.57735217 -0.57735807 0.5773407 0.026183806 0.9514174
2.8586574 0.23052216 -8.830083 -0.57735217 0.57735807 -0.5773407 0.076506816 0.90520054
3.0386014 -0.10000014 -8.830083 0.57735217 -0.57735807 -0.57734066 0.05134531 0.9514174
2.8586574 -0.10000014 -8.830083 -0.57734233 -0.57735425 -0.57735425 0.076506816 0.9514174
3.0386014 0.23052216 -8.830083 0.57734233 0.57735425 -0.57735425 0.18592057 0.98608
3.0386014 -0.10000014 -7.1165338 0.57734233 -0.57735425 0.57735425 0.10605218 0.9514174
3.0386014 -0.10000014 -8.830083 0.57735217 -0.57735807 -0.57734066 0.18592057 0.9514174
3.0386014 0.23052216 -7.1165338 0.57735217 0.57735807 0.57734066 0.026183806 0.90520054
2.8586574 -0.10000014 -7.1165338 -0.57735217 -0.57735807 0.5773407 0.05134531 0.9514174
3.0386014 -0.10000014 -7.1165338 0.57734233 -0.57735425 0.57735425 0.026183806 0.9514174
3.0386014 -0.10000014 -8.830083 0.57735217 -0.57735807 -0.57734066 0.076506816 0.8208632
2.8586574 -0.10000014 -7.1165338 -0.57735217 -0.57735807 0.5773407 0.19548735 0.7927508
2.8586574 -0.10000014 -8.830083 -0.57734233 -0.57735425 -0.57735425 0.076506816 0.7927508
2.8586574 0.23052216 -8.830083 -0.57735217 0.57735807 -0.5773407 0.076506816 0.8208632
3.0386014 0.23052216 -7.1165338 0.57735217 0.57735807 0.57734066 0.19548735 0.8489756
3.0386014 0.23052216 -8.830083 0.57734233 0.57735425 -0.57735425 0.076506816 0.8489756
5.8659263 0.23052216 -7.1165338 -0.57734233 0.57735425 0.57735425 0.19630942 0.90520054
5.8659263 -0.10000014 -8.830083 -0.57734233 -0.57735425 -0.57735425 0.076506816 0.9283089
5.8659263 -0.10000014 -7.1165338 -0.57735217 -0.57735807 0.57734066 0.19630942 0.9283089
5.8659263 0.23052216 -8.830083 -0.57735217 0.57735807 -0.57734066 0.076506816 0.8589837
6.0458703 -0.10000014 -8.830083 0.57735217 -0.57735807 -0.5773407 0.05134531 0.90520054
5.8659263 -0.10000014 -8.830083 -0.57734233 -0.57735425 -0.57735425 0.076506816 0.90520054
6.0458703 0.23052216 -8.830083 0.57734233 0.57735425 -0.57735425 0.076506816 0.9283089
6.0458703 -0.10000014 -7.1165338 0.57734233 -0.57735425 0.57735425 0.19630942 0.9514174
6.0458703 -0.10000014 -8.830083 0.57735217 -0.57735807 -0.5773407 0.076506816 0.9514174
6.0458703 0.23052216 -7.1165338 0.57735217 0.57735807 0.5773407 0.026183806 0.8589837
5.8659263 -0.10000014 -7.1165338 -0.57735217 -0.57735807 0.57734066 0.05134531 0.90520054
6.0458703 -0.10000014 -7.1165338 0.57734233 -0.57735425 0.57735425 0.026183806 0.90520054
6.0458703 -0.10000014 -8.830083 0.57735217 -0.57735807 -0.5773407 0.076506816 0.90520054
5.8659263 -0.10000014 -7.1165338 -0.57735217 -0.57735807 0.57734066 0.19548735 0.877088
5.8659263 -0.10000014 -8.830083 -0.57734233 -0.57735425 -0.57735425 0.076506816 0.877088
5.8659263 0.23052216 -8.830083 -0.57735217 0.57735807 -0.57734066 0.076506816 0.8489756
6.0458703 0.23052216 -7.1165338 0.57735217 0.57735807 0.5773407 0.19548735 0.877088
6.0458703 0.23052216 -8.830083 0.57734233 0.57735425 -0.57735425 0.076506816 0.877088
2.8586574 0.56104445 -8.830083 -0.5773524 0.5773399 -0.5773586 0.5033477 0.7682366
6.0458703 0.56104445 -8.830083 0.57734233 0.57735425 -0.57735425 0.50332314 0.786829
6.0458703 0.56104445 -7.1165338 0.57735234 0.5773399 0.57735854 0.31621498 0.7682366
2.8586574 0.56104445 -7.1165338 -0.57734233 0.57735425 0.57735425 0.29762262 0.78742003
6.0458703 0.23052216 -7.1165338 0.57734233 -0.57735425 0.57735425 0.50334775 0.9610064
2.8586574 0.56104445 -7.1165338 -0.57734233 0.57735425 0.57735425 0.40954065 0.78742003
2.8586574 0.23052216 -8.830083 -0.57735217 0.57735807 -0.5773407 0.10605218 0.98608
3.0386014 0.23052216 -8.830083 0.57734233 0.57735425 -0.57735425 0.05134531 0.90520054
3.0386014 0.23052216 -7.1165338 0.57735217 0.57735807 0.57734066 0.10605218 0.98608
2.8586574 0.23052216 -7.1165338 -0.57734233 0.57735425 0.57735425 0.05134531 0.90520054
3.0386014 -0.10000014 -7.1165338 0.57734233 -0.57735425 0.57735425 0.19548735 0.8208632
2.8586574 0.23052216 -7.1165338 -0.57734233 0.57735425 0.57735425 0.19548735 0.8208632
5.8659263 0.23052216 -8.830083 -0.57735217 0.57735807 -0.57734066 0.076506816 0.90520054
6.0458703 0.23052216 -8.830083 0.57734233 0.57735425 -0.57735425 0.05134531 0.8589837
6.0458703 0.23052216 -7.1165338 0.57735217 0.57735807 0.5773407 0.19630942 0.9283089
5.8659263 0.23052216 -7.1165338 -0.57734233 0.57735425 0.57735425 0.05134531 0.8589837
6.0458703 -0.10000014 -7.1165338 0.57734233 -0.57735425 0.57735425 0.19548735 0.90520054
5.8659263 0.23052216 -7.1165338 -0.57734233 0.57735425 0.57735425 0.19548735 0.8489756
3 0 1 2
3 3 4 5
3 6 7 8
3 9 10 11
3 12 13 14
3 15 16 17
3 18 19 20
3 21 22 23
3 24 25 26
3 27 28 29
3 30 31 32
3 33 34 35
3 36 37 38
3 39 40 41
3 42 43 44
3 45 46 47
3 48 49 50
3 51 52 53
3 0 54 1
3 3 55 4
3 6 56 7
3 9 57 10
3 12 58 13
3 15 59 16
3 18 60 19
3 21 61 22
3 24 62 25
3 27 63 28
3 30 64 31
3 33 65 34
3 36 66 37
3 39 67 40
3 42 68 43
3 45 69 46
3 48 70 49
3 51 71 52
