ply
format ascii 1.0
comment Created in Blender version 4.4.1
element vertex 24
property float x
property float y
property float z
property float nx
property float ny
property float nz
property float s
property float t
element face 12
property list uchar uint vertex_indices
end_header
-9.8 4.4255395 3.0603764 -0.5773502 0.5773503 0.5773503 0.95966655 0.9937948
-9.8 0.6613974 -3.0603764 -0.5773502 -0.5773503 -0.5773503 0.99986666 0.9284266
-9.8 0.6613974 3.0603764 -0.57734704 -0.57734996 0.5773539 0.99986666 0.9937948
-9.8 4.4255395 -3.0603764 -0.57734704 0.57734996 -0.5773539 0.0017370917 0.9867025
-9.710552 0.6613974 -3.0603764 0.57734704 -0.57734996 -0.5773539 0.5 0.97486216
-9.8 0.6613974 -3.0603764 -0.5773502 -0.5773503 -0.5773503 0.5 0.98670244
-9.710552 4.4255395 -3.0603764 0.5773502 0.5773503 -0.5773503 0.13925076 0.9381554
-9.710552 0.6613974 3.0603764 0.5773502 -0.5773503 0.5773503 0.010391355 0.72862136
-9.710552 0.6613974 -3.0603764 0.57734704 -0.57734996 -0.5773539 0.010391414 0.9381554
-9.710552 4.4255395 3.0603764 0.57734704 0.57734996 0.5773539 0.001737123 1.0003211
-9.8 0.6613974 3.0603764 -0.57734704 -0.57734996 0.5773539 0.50000006 0.98848087
-9.710552 0.6613974 3.0603764 0.5773502 -0.5773503 0.5773503 0.50000006 1.0003211
-9.710552 0.6613974 -3.0603764 0.57734704 -0.57734996 -0.5773539 0.811284 0.95946515
-9.8 0.6613974 3.0603764 -0.57734704 -0.57734996 0.5773539 0.0010744219 0.9476249
-9.8 0.6613974 -3.0603764 -0.5773502 -0.5773503 -0.5773503 0.811284 0.94762486
-9.8 4.4255395 -3.0603764 -0.57734704 0.57734996 -0.5773539 0.811284 0.97308373
-9.710552 4.4255395 3.0603764 0.57734704 0.57734996 0.5773539 0.0010744226 0.96124345
-9.710552 4.4255395 -3.0603764 0.5773502 0.5773503 -0.5773503 0.811284 0.96124345
-9.8 4.4255395 -3.0603764 -0.57734704 0.57734996 -0.5773539 0.95966655 0.9284266
-9.710552 4.4255395 -3.0603764 0.5773502 0.5773503 -0.5773503 0.0017370911 0.97486216
-9.710552 4.4255395 3.0603764 0.57734704 0.57734996 0.5773539 0.1392507 0.72862136
-9.8 4.4255395 3.0603764 -0.5773502 0.5773503 0.5773503 0.0017371225 0.98848087
-9.710552 0.6613974 3.0603764 0.5773502 -0.5773503 0.5773503 0.0010744225 0.9594652
-9.8 4.4255395 3.0603764 -0.5773502 0.5773503 0.5773503 0.0010744231 0.9730838
3 0 1 2
3 3 4 5
3 6 7 8
3 9 10 11
3 12 13 14
3 15 16 17
3 0 18 1
3 3 19 4
3 6 20 7
3 9 21 10
3 12 22 13
3 15 23 16
