ply
format ascii 1.0
comment Created in Blender version 4.4.1
element vertex 4
property float x
property float y
property float z
property float nx
property float ny
property float nz
property float s
property float t
element face 2
property list uchar uint vertex_indices
end_header
-9.710552 4.4255395 -3.0603764 1 0 0 0.13925076 0.9381554
-9.710552 0.6613974 3.0603764 1 0 0 0.010391355 0.72862136
-9.710552 0.6613974 -3.0603764 1 0 0 0.010391414 0.9381554
-9.710552 4.4255395 3.0603764 1 0 0 0.1392507 0.72862136
3 0 1 2
3 0 3 1
