ply
format ascii 1.0
comment Created in Blender version 4.4.1
element vertex 340
property float x
property float y
property float z
property float nx
property float ny
property float nz
property float s
property float t
element face 220
property list uchar uint vertex_indices
end_header
-9.8 -0.1000001 9.8 0 1 0 0 2.9802322e-08
9.800001 -0.1000001 10 0 1 0 1 1
9.800001 -0.1000001 9.8 0 1 0 2.9802322e-08 1
9.800001 -0.1000001 10 0 0 -1 0 2.9802322e-08
-9.8 4.9 10 0 0 -1 1 1
9.800001 4.9 10 0 0 -1 2.9802322e-08 1
-9.8 -0.1000001 10 1 0 0 0 2.9802322e-08
-9.8 4.9 9.8 1 0 0 1 1
-9.8 4.9 10 1 0 0 2.9802322e-08 1
9.800001 4.9 9.8 0 -1 0 0 2.9802322e-08
-9.8 4.9 10 0 -1 0 1 1
-9.8 4.9 9.8 0 -1 0 2.9802322e-08 1
9.800001 -0.1000001 9.8 -1 0 0 0 2.9802322e-08
9.800001 4.9 10 -1 0 0 1 1
9.800001 4.9 9.8 -1 0 0 2.9802322e-08 1
-9.8 -0.1000001 9.8 0 0 1 0 2.9802322e-08
9.800001 4.9 9.8 0 0 1 1 1
-9.8 4.9 9.8 0 0 1 2.9802322e-08 1
-9.8 -0.1000001 10 0 1 0 1 0
-9.8 -0.1000001 10 0 0 -1 1 0
-9.8 -0.1000001 9.8 1 0 0 1 0
9.800001 4.9 10 0 -1 0 1 0
9.800001 -0.1000001 10 -1 0 0 1 0
9.800001 -0.1000001 9.8 0 0 1 1 0
-9.8 -0.1000001 -10 0 1 0 0 2.9802322e-08
9.800001 -0.1000001 -9.8 0 1 0 1 1
9.800001 -0.1000001 -10 0 1 0 2.9802322e-08 1
9.800001 -0.1000001 -9.8 0 0 -1 0 2.9802322e-08
-9.8 4.9 -9.8 0 0 -1 1 1
9.800001 4.9 -9.8 0 0 -1 2.9802322e-08 1
-9.8 -0.1000001 -9.8 1 0 0 0 2.9802322e-08
-9.8 4.9 -10 1 0 0 1 1
-9.8 4.9 -9.8 1 0 0 2.9802322e-08 1
9.800001 4.9 -10 0 -1 0 0 2.9802322e-08
-9.8 4.9 -9.8 0 -1 0 1 1
-9.8 4.9 -10 0 -1 0 2.9802322e-08 1
9.800001 -0.1000001 -10 -1 0 0 0 2.9802322e-08
9.800001 4.9 -9.8 -1 0 0 1 1
9.800001 4.9 -10 -1 0 0 2.9802322e-08 1
-9.8 -0.1000001 -10 0 0 1 0 2.9802322e-08
9.800001 4.9 -10 0 0 1 1 1
-9.8 4.9 -10 0 0 1 2.9802322e-08 1
-9.8 -0.1000001 -9.8 0 1 0 1 0
-9.8 -0.1000001 -9.8 0 0 -1 1 0
-9.8 -0.1000001 -10 1 0 0 1 0
9.800001 4.9 -9.8 0 -1 0 1 0
9.800001 -0.1000001 -9.8 -1 0 0 1 0
9.800001 -0.1000001 -10 0 0 1 1 0
9.800001 -0.09999998 10 0 1 0 0 2.9802322e-08
10 -0.09999998 -10 0 1 0 1 1
9.800001 -0.09999998 -10 0 1 0 2.9802322e-08 1
10 -0.09999998 -10 -1 0 0 0 2.9802322e-08
10 4.9 10 -1 0 0 1 1
10 4.9 -10 -1 0 0 2.9802322e-08 1
10 -0.09999998 10 0 0 -1 0 2.9802322e-08
9.800001 4.9 10 0 0 -1 1 1
10 4.9 10 0 0 -1 2.9802322e-08 1
9.800001 4.9 -10 0 -1 0 0 2.9802322e-08
10 4.9 10 0 -1 0 1 1
9.800001 4.9 10 0 -1 0 2.9802322e-08 1
9.800001 -0.09999998 -10 0 0 1 0 2.9802322e-08
10 4.9 -10 0 0 1 1 1
9.800001 4.9 -10 0 0 1 2.9802322e-08 1
9.800001 -0.09999998 10 1 0 0 0 2.9802322e-08
9.800001 4.9 -10 1 0 0 1 1
9.800001 4.9 10 1 0 0 2.9802322e-08 1
10 -0.09999998 10 0 1 0 1 0
10 -0.09999998 10 -1 0 0 1 0
9.800001 -0.09999998 10 0 0 -1 1 0
10 4.9 -10 0 -1 0 1 0
10 -0.09999998 -10 0 0 1 1 0
9.800001 -0.09999998 -10 1 0 0 1 0
-10 -0.09999998 10 0 1 0 0 2.9802322e-08
-9.8 -0.09999998 -10 0 1 0 1 1
-10 -0.09999998 -10 0 1 0 2.9802322e-08 1
-9.8 -0.09999998 -10 -1 0 0 0 2.9802322e-08
-9.8 4.9 10 -1 0 0 1 1
-9.8 4.9 -10 -1 0 0 2.9802322e-08 1
-9.8 -0.09999998 10 0 0 -1 0 2.9802322e-08
-10 4.9 10 0 0 -1 1 1
-9.8 4.9 10 0 0 -1 2.9802322e-08 1
-10 4.9 -10 0 -1 0 0 2.9802322e-08
-9.8 4.9 10 0 -1 0 1 1
-10 4.9 10 0 -1 0 2.9802322e-08 1
-10 -0.09999998 -10 0 0 1 0 2.9802322e-08
-9.8 4.9 -10 0 0 1 1 1
-10 4.9 -10 0 0 1 2.9802322e-08 1
-10 -0.09999998 10 1 0 0 0 2.9802322e-08
-10 4.9 -10 1 0 0 1 1
-10 4.9 10 1 0 0 2.9802322e-08 1
-9.8 -0.09999998 10 0 1 0 1 0
-9.8 -0.09999998 10 -1 0 0 1 0
-10 -0.09999998 10 0 0 -1 1 0
-9.8 4.9 -10 0 -1 0 1 0
-9.8 -0.09999998 -10 0 0 1 1 0
-10 -0.09999998 -10 1 0 0 1 0
-1.3123031 -0.09999998 -9.8 0 -1 0 1 0.78413737
-1.1123033 -0.09999998 -1 0 -1 0 0.5510204 0.7739333
-1.3123031 -0.09999998 -1 0 -1 0 0.5510204 0.78413737
-1.1123033 -0.09999998 9.8 0 -1 0 0 0.7739333
-1.3123031 -0.09999998 1 0 -1 0 0.4489796 0.78413737
-1.1123033 -0.09999998 1 0 -1 0 0.4489796 0.7739333
-1.1123033 4.9 -9.8 1 0 1.9804798e-08 2.480334 0.9935864
-1.1123033 4.9 9.8 1 0 0 -1.4152257 0.9935864
-1.1123033 3.6999998 -1 1 0 2.4982765e-09 0.7313071 0.7550826
-1.3123031 4.9 9.8 0 0 1 0.64285713 0.78413737
-1.1123033 -0.09999998 9.8 0 0 1 0.3877551 0.7739333
-1.1123033 4.9 9.8 0 0 1 0.64285713 0.7739333
-1.1123033 4.9 9.8 0 1 0 -0.0077509815 0.3259266
-1.3123031 4.9 -9.8 0 1 0 0.992249 0.33613062
-1.3123031 4.9 9.8 0 1 0 -0.0077509815 0.33613062
-1.1123033 4.9 -9.8 0 0 -1 0.50510204 0.64285713
-1.3123031 -0.09999998 -9.8 0 0 -1 0.49489796 0.3877551
-1.3123031 4.9 -9.8 0 0 -1 0.49489796 0.64285713
-1.3123031 4.9 9.8 -1 0 -1.9804798e-08 -1.468848 0.99896085
-1.3123031 4.9 -9.8 -1 0 6.920144e-09 2.4688482 0.99896085
-1.3123031 3.6999998 1 -1 0 -2.4982765e-09 0.29909712 0.75787735
-1.1123033 3.6999998 1 0 0 -1 0.50683707 0.8471277
-1.3123031 -0.09999998 1 0 0 -1 0.462159 -0.0017557144
-1.3123031 3.6999998 1 0 0 -1 0.462159 0.8471277
-1.1123033 3.6999998 -1 0 -1 0 0.50510204 0.5510204
-1.3123031 3.6999998 1 0 -1 0 0.49489796 0.4489796
-1.3123031 3.6999998 -1 0 -1 0 0.49489796 0.5510204
-1.1123033 3.6999998 -1 0 0 1 0.50683707 0.8471277
-1.3123031 -0.09999998 -1 0 0 1 0.462159 -0.0017557144
-1.1123033 -0.09999998 -1 0 0 1 0.50683707 -0.0017557144
-1.1123033 -0.09999998 -9.8 0 -1 0 1 0.7739333
-1.3123031 -0.09999998 9.8 0 -1 0 0 0.78413737
-1.1123033 -0.09999998 -1 1 0 0 0.7313071 -0.00017887354
-1.1123033 -0.09999998 -9.8 1 0 1.6049905e-08 2.480334 -0.00017887354
-1.1123033 -0.09999998 9.8 1 0 0 -1.4152257 -0.00017887354
-1.1123033 -0.09999998 1 1 0 0 0.33380106 -0.00017887354
-1.1123033 3.6999998 1 1 0 0 0.33380106 0.7550826
-1.3123031 -0.09999998 9.8 0 0 1 0.3877551 0.78413737
-1.1123033 4.9 -9.8 0 1 0 0.992249 0.32592654
-1.1123033 -0.09999998 -9.8 0 0 -1 0.50510204 0.3877551
-1.3123031 -0.09999998 1 -1 0 0 0.29909712 -0.0055534244
-1.3123031 -0.09999998 9.8 -1 0 -1.6049905e-08 -1.468848 -0.0055534244
-1.3123031 -0.09999998 -9.8 -1 0 0 2.4688482 -0.0055534244
-1.3123031 -0.09999998 -1 -1 0 1.9137875e-08 0.70090276 -0.0055534244
-1.3123031 3.6999998 -1 -1 0 1.0326326e-08 0.70090276 0.75787735
-1.1123033 -0.09999998 1 0 0 -1 0.50683707 -0.0017557144
-1.1123033 3.6999998 1 0 -1 0 0.50510204 0.4489796
-1.3123031 3.6999998 -1 0 0 1 0.462159 0.8471277
-1.1123033 3.7506654 6.8633456 -1 0 0 0.625 0
-1.1123033 0.9854502 4.0981326 -1 0 0 0.375 0.25
-1.1123033 0.9854502 6.8633456 -1 0 0 0.375 0
-1.1123033 3.7506654 4.0981326 0 0 -1 0.625 0.25
-1.0195414 0.9854502 4.0981326 0 0 -1 0.375 0.5
-1.1123033 0.9854502 4.0981326 0 0 -1 0.375 0.25
-1.0195414 3.7506654 4.0981326 1 0 0 0.625 0.5
-1.0195414 0.9854502 6.8633456 1 0 0 0.375 0.75
-1.0195414 0.9854502 4.0981326 1 0 0 0.375 0.5
-1.0195414 3.7506654 6.8633456 0 0 1 0.625 0.75
-1.1123033 0.9854502 6.8633456 0 0 1 0.375 1
-1.0195414 0.9854502 6.8633456 0 0 1 0.375 0.75
-1.0195414 0.9854502 4.0981326 0 -1 0 0.375 0.5
-1.1123033 0.9854502 6.8633456 0 -1 0 0.125 0.75
-1.1123033 0.9854502 4.0981326 0 -1 0 0.125 0.5
-1.1123033 3.7506654 4.0981326 0 1 0 0.875 0.5
-1.0195414 3.7506654 6.8633456 0 1 0 0.625 0.75
-1.0195414 3.7506654 4.0981326 0 1 0 0.625 0.5
-1.1123033 3.7506654 4.0981326 -1 0 0 0.625 0.25
-1.0195414 3.7506654 4.0981326 0 0 -1 0.625 0.5
-1.0195414 3.7506654 6.8633456 1 0 0 0.625 0.75
-1.1123033 3.7506654 6.8633456 0 0 1 0.625 1
-1.0195414 0.9854502 6.8633456 0 -1 0 0.375 0.75
-1.1123033 3.7506654 6.8633456 0 1 0 0.875 0.75
-1.1123033 3.7506654 6.8633456 -1 0 0 0.625 0
-1.1123033 0.9854502 4.0981326 -1 0 0 0.375 0.25
-1.1123033 0.9854502 6.8633456 -1 0 0 0.375 0
-1.1123033 3.7506654 4.0981326 0 0 -1 0.625 0.25
-1.0195414 0.9854502 4.0981326 0 0 -1 0.375 0.5
-1.1123033 0.9854502 4.0981326 0 0 -1 0.375 0.25
-1.0195414 3.7506654 4.0981326 1 0 0 0.625 0.5
-1.0195414 0.9854502 6.8633456 1 0 0 0.375 0.75
-1.0195414 0.9854502 4.0981326 1 0 0 0.375 0.5
-1.0195414 3.7506654 6.8633456 0 0 1 0.625 0.75
-1.1123033 0.9854502 6.8633456 0 0 1 0.375 1
-1.0195414 0.9854502 6.8633456 0 0 1 0.375 0.75
-1.0195414 0.9854502 4.0981326 0 -1 0 0.375 0.5
-1.1123033 0.9854502 6.8633456 0 -1 0 0.125 0.75
-1.1123033 0.9854502 4.0981326 0 -1 0 0.125 0.5
-1.1123033 3.7506654 4.0981326 0 1 0 0.875 0.5
-1.0195414 3.7506654 6.8633456 0 1 0 0.625 0.75
-1.0195414 3.7506654 4.0981326 0 1 0 0.625 0.5
-1.1123033 3.7506654 4.0981326 -1 0 0 0.625 0.25
-1.0195414 3.7506654 4.0981326 0 0 -1 0.625 0.5
-1.0195414 3.7506654 6.8633456 1 0 0 0.625 0.75
-1.1123033 3.7506654 6.8633456 0 0 1 0.625 1
-1.0195414 0.9854502 6.8633456 0 -1 0 0.375 0.75
-1.1123033 3.7506654 6.8633456 0 1 0 0.875 0.75
-1.1123033 3.7506654 -4.1002116 -1 0 0 0.625 0
-1.1123033 0.9854502 -6.8654246 -1 0 0 0.375 0.25
-1.1123033 0.9854502 -4.1002116 -1 0 0 0.375 0
-1.1123033 3.7506654 -6.8654246 0 0 -1 0.625 0.25
-1.0195414 0.9854502 -6.8654246 0 0 -1 0.375 0.5
-1.1123033 0.9854502 -6.8654246 0 0 -1 0.375 0.25
-1.0195414 3.7506654 -6.8654246 1 0 0 0.625 0.5
-1.0195414 0.9854502 -4.1002116 1 0 0 0.375 0.75
-1.0195414 0.9854502 -6.8654246 1 0 0 0.375 0.5
-1.0195414 3.7506654 -4.1002116 0 0 1 0.625 0.75
-1.1123033 0.9854502 -4.1002116 0 0 1 0.375 1
-1.0195414 0.9854502 -4.1002116 0 0 1 0.375 0.75
-1.0195414 0.9854502 -6.8654246 0 -1 0 0.375 0.5
-1.1123033 0.9854502 -4.1002116 0 -1 0 0.125 0.75
-1.1123033 0.9854502 -6.8654246 0 -1 0 0.125 0.5
-1.1123033 3.7506654 -6.8654246 0 1 0 0.875 0.5
-1.0195414 3.7506654 -4.1002116 0 1 0 0.625 0.75
-1.0195414 3.7506654 -6.8654246 0 1 0 0.625 0.5
-1.1123033 3.7506654 -6.8654246 -1 0 0 0.625 0.25
-1.0195414 3.7506654 -6.8654246 0 0 -1 0.625 0.5
-1.0195414 3.7506654 -4.1002116 1 0 0 0.625 0.75
-1.1123033 3.7506654 -4.1002116 0 0 1 0.625 1
-1.0195414 0.9854502 -4.1002116 0 -1 0 0.375 0.75
-1.1123033 3.7506654 -4.1002116 0 1 0 0.875 0.75
2.8586574 0.23052216 -7.1165338 -0.57734233 0.57735425 0.57735425 0.625 0
2.8586574 -0.10000014 -8.830083 -0.57734233 -0.57735425 -0.57735425 0.375 0.25
2.8586574 -0.10000014 -7.1165338 -0.57735217 -0.57735807 0.5773407 0.375 0
2.8586574 0.23052216 -8.830083 -0.57735217 0.57735807 -0.5773407 0.625 0.25
3.0386014 -0.10000014 -8.830083 0.57735217 -0.57735807 -0.57734066 0.375 0.5
3.0386014 0.23052216 -8.830083 0.57734233 0.57735425 -0.57735425 0.625 0.5
3.0386014 -0.10000014 -7.1165338 0.57734233 -0.57735425 0.57735425 0.375 0.75
3.0386014 0.23052216 -7.1165338 0.57735217 0.57735807 0.57734066 0.625 0.75
2.8586574 -0.10000014 -7.1165338 -0.57735217 -0.57735807 0.5773407 0.375 1
2.8586574 -0.10000014 -7.1165338 -0.57735217 -0.57735807 0.5773407 0.125 0.75
2.8586574 -0.10000014 -8.830083 -0.57734233 -0.57735425 -0.57735425 0.125 0.5
2.8586574 0.23052216 -8.830083 -0.57735217 0.57735807 -0.5773407 0.875 0.5
5.8659263 0.23052216 -7.1165338 -0.57734233 0.57735425 0.57735425 0.625 0
5.8659263 -0.10000014 -8.830083 -0.57734233 -0.57735425 -0.57735425 0.375 0.25
5.8659263 -0.10000014 -7.1165338 -0.57735217 -0.57735807 0.57734066 0.375 0
5.8659263 0.23052216 -8.830083 -0.57735217 0.57735807 -0.57734066 0.625 0.25
6.0458703 -0.10000014 -8.830083 0.57735217 -0.57735807 -0.5773407 0.375 0.5
6.0458703 0.23052216 -8.830083 0.57734233 0.57735425 -0.57735425 0.625 0.5
6.0458703 -0.10000014 -7.1165338 0.57734233 -0.57735425 0.57735425 0.375 0.75
6.0458703 0.23052216 -7.1165338 0.57735217 0.57735807 0.5773407 0.625 0.75
5.8659263 -0.10000014 -7.1165338 -0.57735217 -0.57735807 0.57734066 0.375 1
5.8659263 -0.10000014 -7.1165338 -0.57735217 -0.57735807 0.57734066 0.125 0.75
5.8659263 -0.10000014 -8.830083 -0.57734233 -0.57735425 -0.57735425 0.125 0.5
5.8659263 0.23052216 -8.830083 -0.57735217 0.57735807 -0.57734066 0.875 0.5
2.8586574 0.56104445 -7.1165338 -0.57734233 0.57735425 0.57735425 0.625 0
2.8586574 0.23052216 -8.830083 -0.57734233 -0.57735425 -0.57735425 0.375 0.25
2.8586574 0.23052216 -7.1165338 -0.5773524 -0.5773399 0.57735854 0.375 0
2.8586574 0.56104445 -8.830083 -0.5773524 0.5773399 -0.5773586 0.625 0.25
6.0458703 0.23052216 -8.830083 0.5773524 -0.5773398 -0.57735854 0.375 0.5
6.0458703 0.56104445 -8.830083 0.57734233 0.57735425 -0.57735425 0.625 0.5
6.0458703 0.23052216 -7.1165338 0.57734233 -0.57735425 0.57735425 0.375 0.75
6.0458703 0.56104445 -7.1165338 0.57735234 0.5773399 0.57735854 0.625 0.75
2.8586574 0.23052216 -7.1165338 -0.5773524 -0.5773399 0.57735854 0.375 1
2.8586574 0.23052216 -7.1165338 -0.5773524 -0.5773399 0.57735854 0.125 0.75
2.8586574 0.23052216 -8.830083 -0.57734233 -0.57735425 -0.57735425 0.125 0.5
2.8586574 0.56104445 -8.830083 -0.5773524 0.5773399 -0.5773586 0.875 0.5
2.8586574 0.23052216 8.877516 -0.57734233 0.57735425 0.57735425 0.625 0
2.8586574 -0.10000014 7.163966 -0.57734233 -0.57735425 -0.57735425 0.375 0.25
2.8586574 -0.10000014 8.877516 -0.57735217 -0.577358 0.57734066 0.375 0
2.8586574 0.23052216 7.163966 -0.57735217 0.577358 -0.57734066 0.625 0.25
3.0386014 -0.10000014 7.163966 0.5773522 -0.57735807 -0.57734066 0.375 0.5
3.0386014 0.23052216 7.163966 0.57734233 0.57735425 -0.57735425 0.625 0.5
3.0386014 -0.10000014 8.877516 0.57734233 -0.57735425 0.57735425 0.375 0.75
3.0386014 0.23052216 8.877516 0.5773522 0.57735807 0.57734066 0.625 0.75
2.8586574 -0.10000014 8.877516 -0.57735217 -0.577358 0.57734066 0.375 1
2.8586574 -0.10000014 8.877516 -0.57735217 -0.577358 0.57734066 0.125 0.75
2.8586574 -0.10000014 7.163966 -0.57734233 -0.57735425 -0.57735425 0.125 0.5
2.8586574 0.23052216 7.163966 -0.57735217 0.577358 -0.57734066 0.875 0.5
5.8659263 0.23052216 8.877516 -0.57734233 0.57735425 0.57735425 0.625 0
5.8659263 -0.10000014 7.163966 -0.57734233 -0.57735425 -0.57735425 0.375 0.25
5.8659263 -0.10000014 8.877516 -0.5773522 -0.57735807 0.57734066 0.375 0
5.8659263 0.23052216 7.163966 -0.5773522 0.57735807 -0.57734066 0.625 0.25
6.0458703 -0.10000014 7.163966 0.57735217 -0.577358 -0.57734066 0.375 0.5
6.0458703 0.23052216 7.163966 0.57734233 0.57735425 -0.57735425 0.625 0.5
6.0458703 -0.10000014 8.877516 0.57734233 -0.57735425 0.57735425 0.375 0.75
6.0458703 0.23052216 8.877516 0.57735217 0.577358 0.57734066 0.625 0.75
5.8659263 -0.10000014 8.877516 -0.5773522 -0.57735807 0.57734066 0.375 1
5.8659263 -0.10000014 8.877516 -0.5773522 -0.57735807 0.57734066 0.125 0.75
5.8659263 -0.10000014 7.163966 -0.57734233 -0.57735425 -0.57735425 0.125 0.5
5.8659263 0.23052216 7.163966 -0.5773522 0.57735807 -0.57734066 0.875 0.5
2.8586574 0.56104445 8.877516 -0.57734233 0.57735425 0.57735425 0.625 0
2.8586574 0.23052216 7.163966 -0.57734233 -0.57735425 -0.57735425 0.375 0.25
2.8586574 0.23052216 8.877516 -0.5773524 -0.5773398 0.57735854 0.375 0
2.8586574 0.56104445 7.163966 -0.5773524 0.5773398 -0.57735854 0.625 0.25
6.0458703 0.23052216 7.163966 0.5773524 -0.5773398 -0.57735854 0.375 0.5
6.0458703 0.56104445 7.163966 0.57734233 0.57735425 -0.57735425 0.625 0.5
6.0458703 0.23052216 8.877516 0.57734233 -0.57735425 0.57735425 0.375 0.75
6.0458703 0.56104445 8.877516 0.5773524 0.5773398 0.57735854 0.625 0.75
2.8586574 0.23052216 8.877516 -0.5773524 -0.5773398 0.57735854 0.375 1
2.8586574 0.23052216 8.877516 -0.5773524 -0.5773398 0.57735854 0.125 0.75
2.8586574 0.23052216 7.163966 -0.57734233 -0.57735425 -0.57735425 0.125 0.5
2.8586574 0.56104445 7.163966 -0.5773524 0.5773398 -0.57735854 0.875 0.5
2.8586574 0.23052216 -7.1165338 -0.57734233 0.57735425 0.57735425 0.625 1
2.8586574 0.23052216 -7.1165338 -0.57734233 0.57735425 0.57735425 0.875 0.75
5.8659263 0.23052216 -7.1165338 -0.57734233 0.57735425 0.57735425 0.625 1
5.8659263 0.23052216 -7.1165338 -0.57734233 0.57735425 0.57735425 0.875 0.75
2.8586574 0.56104445 -7.1165338 -0.57734233 0.57735425 0.57735425 0.625 1
2.8586574 0.56104445 -7.1165338 -0.57734233 0.57735425 0.57735425 0.875 0.75
2.8586574 0.23052216 8.877516 -0.57734233 0.57735425 0.57735425 0.625 1
2.8586574 0.23052216 8.877516 -0.57734233 0.57735425 0.57735425 0.875 0.75
5.8659263 0.23052216 8.877516 -0.57734233 0.57735425 0.57735425 0.625 1
5.8659263 0.23052216 8.877516 -0.57734233 0.57735425 0.57735425 0.875 0.75
2.8586574 0.56104445 8.877516 -0.57734233 0.57735425 0.57735425 0.625 1
2.8586574 0.56104445 8.877516 -0.57734233 0.57735425 0.57735425 0.875 0.75
8.5638485 1.3969965 0.5475137 -0.5773721 0.5773394 0.5773394 0.625 0
8.5638485 0.30196923 -0.5475137 -0.5773721 -0.5773394 -0.5773394 0.375 0.25
8.5638485 0.30196923 0.5475137 -0.57732844 -0.57736117 0.57736117 0.375 0
8.5638485 1.3969965 -0.5475137 -0.57732844 0.57736117 -0.57736117 0.625 0.25
9.658876 0.30196923 -0.5475137 0.57732844 -0.57736117 -0.57736117 0.375 0.5
9.658876 1.3969965 -0.5475137 0.5773721 0.5773394 -0.5773394 0.625 0.5
9.658876 0.30196923 0.5475137 0.5773721 -0.5773394 0.5773394 0.375 0.75
9.658876 1.3969965 0.5475137 0.57732844 0.57736117 0.57736117 0.625 0.75
8.5638485 0.30196923 0.5475137 -0.57732844 -0.57736117 0.57736117 0.375 1
8.5638485 0.30196923 0.5475137 -0.57732844 -0.57736117 0.57736117 0.125 0.75
8.5638485 0.30196923 -0.5475137 -0.5773721 -0.5773394 -0.5773394 0.125 0.5
8.5638485 1.3969965 -0.5475137 -0.57732844 0.57736117 -0.57736117 0.875 0.5
8.422724 0.30196923 0.6886383 -0.57733196 0.5773595 0.5773595 0.625 0
8.422724 -0.09999998 -0.6886383 -0.57733196 -0.5773595 -0.5773595 0.375 0.25
8.422724 -0.09999998 0.6886383 -0.5773486 -0.5773813 0.57732105 0.375 0
8.422724 0.30196923 -0.6886383 -0.5773486 0.5773813 -0.57732105 0.625 0.25
9.800001 -0.09999998 -0.6886383 0.5773486 -0.5773813 -0.57732105 0.375 0.5
9.800001 0.30196923 -0.6886383 0.57733196 0.5773595 -0.5773595 0.625 0.5
9.800001 -0.09999998 0.6886383 0.57733196 -0.5773595 0.5773595 0.375 0.75
9.800001 0.30196923 0.6886383 0.5773486 0.5773813 0.57732105 0.625 0.75
8.422724 -0.09999998 0.6886383 -0.5773486 -0.5773813 0.57732105 0.375 1
8.422724 -0.09999998 0.6886383 -0.5773486 -0.5773813 0.57732105 0.125 0.75
8.422724 -0.09999998 -0.6886383 -0.57733196 -0.5773595 -0.5773595 0.125 0.5
8.422724 0.30196923 -0.6886383 -0.5773486 0.5773813 -0.57732105 0.875 0.5
8.422724 1.7989659 0.6886383 -0.577341 0.5773686 0.5773412 0.625 0
8.422724 1.3969965 -0.6886383 -0.57733184 -0.5773595 -0.5773595 0.375 0.25
8.422724 1.3969965 0.6886383 -0.5773394 -0.5773721 0.5773394 0.375 0
9.800001 1.7989659 -0.6886383 0.57733184 0.5773595 -0.5773595 0.625 0.5
9.800001 1.3969965 0.6886383 0.577341 -0.5773686 0.5773412 0.375 0.75
9.800001 1.3969965 -0.6886383 0.57734853 -0.5773812 -0.57732105 0.375 0.5
8.422724 1.3969965 0.6886383 -0.5773394 -0.5773721 0.5773394 0.125 0.75
8.422724 1.3969965 -0.6886383 -0.57733184 -0.5773595 -0.5773595 0.125 0.5
8.422724 1.7989659 -0.6886383 -0.57734853 0.5773812 -0.57732105 0.875 0.5
9.800001 1.7989659 0.6886383 0.5773394 0.5773721 0.5773394 0.625 0.75
8.422724 1.7989659 0.6886383 -0.577341 0.5773686 0.5773412 0.875 0.75
8.5638485 1.3969965 0.5475137 -0.5773721 0.5773394 0.5773394 0.625 1
8.5638485 1.3969965 0.5475137 -0.5773721 0.5773394 0.5773394 0.875 0.75
8.422724 0.30196923 0.6886383 -0.57733196 0.5773595 0.5773595 0.625 1
8.422724 0.30196923 0.6886383 -0.57733196 0.5773595 0.5773595 0.875 0.75
8.422724 1.7989659 -0.6886383 -0.57734853 0.5773812 -0.57732105 0.625 0.25
3 0 1 2
3 3 4 5
3 6 7 8
3 9 10 11
3 12 13 14
3 15 16 17
3 0 18 1
3 3 19 4
3 6 20 7
3 9 21 10
3 12 22 13
3 15 23 16
3 24 25 26
3 27 28 29
3 30 31 32
3 33 34 35
3 36 37 38
3 39 40 41
3 24 42 25
3 27 43 28
3 30 44 31
3 33 45 34
3 36 46 37
3 39 47 40
3 48 49 50
3 51 52 53
3 54 55 56
3 57 58 59
3 60 61 62
3 63 64 65
3 48 66 49
3 51 67 52
3 54 68 55
3 57 69 58
3 60 70 61
3 63 71 64
3 72 73 74
3 75 76 77
3 78 79 80
3 81 82 83
3 84 85 86
3 87 88 89
3 72 90 73
3 75 91 76
3 78 92 79
3 81 93 82
3 84 94 85
3 87 95 88
3 96 97 98
3 99 100 101
3 102 103 104
3 105 106 107
3 108 109 110
3 111 112 113
3 114 115 116
3 117 118 119
3 120 121 122
3 123 124 125
3 96 126 97
3 99 127 100
3 104 128 129
3 103 130 131
3 103 131 132
3 104 129 102
3 103 132 104
3 105 133 106
3 108 134 109
3 111 135 112
3 116 136 137
3 115 138 139
3 115 139 140
3 116 137 114
3 115 140 116
3 117 141 118
3 120 142 121
3 123 143 124
3 144 145 146
3 147 148 149
3 150 151 152
3 153 154 155
3 156 157 158
3 159 160 161
3 144 162 145
3 147 163 148
3 150 164 151
3 153 165 154
3 156 166 157
3 159 167 160
3 168 169 170
3 171 172 173
3 174 175 176
3 177 178 179
3 180 181 182
3 183 184 185
3 168 186 169
3 171 187 172
3 174 188 175
3 177 189 178
3 180 190 181
3 183 191 184
3 192 193 194
3 195 196 197
3 198 199 200
3 201 202 203
3 204 205 206
3 207 208 209
3 192 210 193
3 195 211 196
3 198 212 199
3 201 213 202
3 204 214 205
3 207 215 208
3 216 217 218
3 219 220 217
3 221 222 220
3 223 224 222
3 220 225 226
3 227 223 221
3 228 229 230
3 231 232 229
3 233 234 232
3 235 236 234
3 232 237 238
3 239 235 233
3 240 241 242
3 243 244 241
3 245 246 244
3 247 248 246
3 244 249 250
3 251 247 245
3 252 253 254
3 255 256 253
3 257 258 256
3 259 260 258
3 256 261 262
3 263 259 257
3 264 265 266
3 267 268 265
3 269 270 268
3 271 272 270
3 268 273 274
3 275 271 269
3 276 277 278
3 279 280 277
3 281 282 280
3 283 284 282
3 280 285 286
3 287 283 281
3 216 219 217
3 219 221 220
3 221 223 222
3 223 288 224
3 220 222 225
3 227 289 223
3 228 231 229
3 231 233 232
3 233 235 234
3 235 290 236
3 232 234 237
3 239 291 235
3 240 243 241
3 243 245 244
3 245 247 246
3 247 292 248
3 244 246 249
3 251 293 247
3 252 255 253
3 255 257 256
3 257 259 258
3 259 294 260
3 256 258 261
3 263 295 259
3 264 267 265
3 267 269 268
3 269 271 270
3 271 296 272
3 268 270 273
3 275 297 271
3 276 279 277
3 279 281 280
3 281 283 282
3 283 298 284
3 280 282 285
3 287 299 283
3 300 301 302
3 303 304 301
3 305 306 304
3 307 308 306
3 304 309 310
3 311 307 305
3 312 313 314
3 315 316 313
3 317 318 316
3 319 320 318
3 316 321 322
3 323 319 317
3 324 325 326
3 327 328 329
3 329 330 331
3 332 333 327
3 332 329 331
3 328 334 330
3 300 303 301
3 303 305 304
3 305 307 306
3 307 335 308
3 304 306 309
3 311 336 307
3 312 315 313
3 315 317 316
3 317 319 318
3 319 337 320
3 316 318 321
3 323 338 319
3 324 339 325
3 327 333 328
3 329 328 330
3 332 334 333
3 332 327 329
3 328 333 334
