ply
format ascii 1.0
comment Created in Blender version 4.4.1
element vertex 144
property float x
property float y
property float z
property float nx
property float ny
property float nz
property float s
property float t
element face 76
property list uchar uint vertex_indices
end_header
-9.8 -0.1000001 9.8 0 1 0 0 2.9802322e-08
9.800001 -0.1000001 10 0 1 0 1 1
9.800001 -0.1000001 9.8 0 1 0 2.9802322e-08 1
9.800001 -0.1000001 10 0 0 -1 0 2.9802322e-08
-9.8 4.9 10 0 0 -1 1 1
9.800001 4.9 10 0 0 -1 2.9802322e-08 1
-9.8 -0.1000001 10 1 0 0 0 2.9802322e-08
-9.8 4.9 9.8 1 0 0 1 1
-9.8 4.9 10 1 0 0 2.9802322e-08 1
9.800001 4.9 9.8 0 -1 0 0 2.9802322e-08
-9.8 4.9 10 0 -1 0 1 1
-9.8 4.9 9.8 0 -1 0 2.9802322e-08 1
9.800001 -0.1000001 9.8 -1 0 0 0 2.9802322e-08
9.800001 4.9 10 -1 0 0 1 1
9.800001 4.9 9.8 -1 0 0 2.9802322e-08 1
-9.8 -0.1000001 9.8 0 0 1 0 2.9802322e-08
9.800001 4.9 9.8 0 0 1 1 1
-9.8 4.9 9.8 0 0 1 2.9802322e-08 1
-9.8 -0.1000001 10 0 1 0 1 0
-9.8 -0.1000001 10 0 0 -1 1 0
-9.8 -0.1000001 9.8 1 0 0 1 0
9.800001 4.9 10 0 -1 0 1 0
9.800001 -0.1000001 10 -1 0 0 1 0
9.800001 -0.1000001 9.8 0 0 1 1 0
-9.8 -0.1000001 -10 0 1 0 0 2.9802322e-08
9.800001 -0.1000001 -9.8 0 1 0 1 1
9.800001 -0.1000001 -10 0 1 0 2.9802322e-08 1
9.800001 -0.1000001 -9.8 0 0 -1 0 2.9802322e-08
-9.8 4.9 -9.8 0 0 -1 1 1
9.800001 4.9 -9.8 0 0 -1 2.9802322e-08 1
-9.8 -0.1000001 -9.8 1 0 0 0 2.9802322e-08
-9.8 4.9 -10 1 0 0 1 1
-9.8 4.9 -9.8 1 0 0 2.9802322e-08 1
9.800001 4.9 -10 0 -1 0 0 2.9802322e-08
-9.8 4.9 -9.8 0 -1 0 1 1
-9.8 4.9 -10 0 -1 0 2.9802322e-08 1
9.800001 -0.1000001 -10 -1 0 0 0 2.9802322e-08
9.800001 4.9 -9.8 -1 0 0 1 1
9.800001 4.9 -10 -1 0 0 2.9802322e-08 1
-9.8 -0.1000001 -10 0 0 1 0 2.9802322e-08
9.800001 4.9 -10 0 0 1 1 1
-9.8 4.9 -10 0 0 1 2.9802322e-08 1
-9.8 -0.1000001 -9.8 0 1 0 1 0
-9.8 -0.1000001 -9.8 0 0 -1 1 0
-9.8 -0.1000001 -10 1 0 0 1 0
9.800001 4.9 -9.8 0 -1 0 1 0
9.800001 -0.1000001 -9.8 -1 0 0 1 0
9.800001 -0.1000001 -10 0 0 1 1 0
9.800001 -0.09999998 10 0 1 0 0 2.9802322e-08
10 -0.09999998 -10 0 1 0 1 1
9.800001 -0.09999998 -10 0 1 0 2.9802322e-08 1
10 -0.09999998 -10 -1 0 0 0 2.9802322e-08
10 4.9 10 -1 0 0 1 1
10 4.9 -10 -1 0 0 2.9802322e-08 1
10 -0.09999998 10 0 0 -1 0 2.9802322e-08
9.800001 4.9 10 0 0 -1 1 1
10 4.9 10 0 0 -1 2.9802322e-08 1
9.800001 4.9 -10 0 -1 0 0 2.9802322e-08
10 4.9 10 0 -1 0 1 1
9.800001 4.9 10 0 -1 0 2.9802322e-08 1
9.800001 -0.09999998 -10 0 0 1 0 2.9802322e-08
10 4.9 -10 0 0 1 1 1
9.800001 4.9 -10 0 0 1 2.9802322e-08 1
9.800001 -0.09999998 10 1 0 0 0 2.9802322e-08
9.800001 4.9 -10 1 0 0 1 1
9.800001 4.9 10 1 0 0 2.9802322e-08 1
10 -0.09999998 10 0 1 0 1 0
10 -0.09999998 10 -1 0 0 1 0
9.800001 -0.09999998 10 0 0 -1 1 0
10 4.9 -10 0 -1 0 1 0
10 -0.09999998 -10 0 0 1 1 0
9.800001 -0.09999998 -10 1 0 0 1 0
-10 -0.09999998 10 0 1 0 0 2.9802322e-08
-9.8 -0.09999998 -10 0 1 0 1 1
-10 -0.09999998 -10 0 1 0 2.9802322e-08 1
-9.8 -0.09999998 -10 -1 0 0 0 2.9802322e-08
-9.8 4.9 10 -1 0 0 1 1
-9.8 4.9 -10 -1 0 0 2.9802322e-08 1
-9.8 -0.09999998 10 0 0 -1 0 2.9802322e-08
-10 4.9 10 0 0 -1 1 1
-9.8 4.9 10 0 0 -1 2.9802322e-08 1
-10 4.9 -10 0 -1 0 0 2.9802322e-08
-9.8 4.9 10 0 -1 0 1 1
-10 4.9 10 0 -1 0 2.9802322e-08 1
-10 -0.09999998 -10 0 0 1 0 2.9802322e-08
-9.8 4.9 -10 0 0 1 1 1
-10 4.9 -10 0 0 1 2.9802322e-08 1
-10 -0.09999998 10 1 0 0 0 2.9802322e-08
-10 4.9 -10 1 0 0 1 1
-10 4.9 10 1 0 0 2.9802322e-08 1
-9.8 -0.09999998 10 0 1 0 1 0
-9.8 -0.09999998 10 -1 0 0 1 0
-10 -0.09999998 10 0 0 -1 1 0
-9.8 4.9 -10 0 -1 0 1 0
-9.8 -0.09999998 -10 0 0 1 1 0
-10 -0.09999998 -10 1 0 0 1 0
-1.3123031 -0.09999998 -9.8 0 -1 0 1 0.78413737
-1.1123033 -0.09999998 -1 0 -1 0 0.5510204 0.7739333
-1.3123031 -0.09999998 -1 0 -1 0 0.5510204 0.78413737
-1.1123033 -0.09999998 9.8 0 -1 0 0 0.7739333
-1.3123031 -0.09999998 1 0 -1 0 0.4489796 0.78413737
-1.1123033 -0.09999998 1 0 -1 0 0.4489796 0.7739333
-1.1123033 4.9 -9.8 1 0 1.9804798e-08 2.480334 0.9935864
-1.1123033 4.9 9.8 1 0 0 -1.4152257 0.9935864
-1.1123033 3.6999998 -1 1 0 2.4982765e-09 0.7313071 0.7550826
-1.3123031 4.9 9.8 0 0 1 0.64285713 0.78413737
-1.1123033 -0.09999998 9.8 0 0 1 0.3877551 0.7739333
-1.1123033 4.9 9.8 0 0 1 0.64285713 0.7739333
-1.1123033 4.9 9.8 0 1 0 -0.0077509815 0.3259266
-1.3123031 4.9 -9.8 0 1 0 0.992249 0.33613062
-1.3123031 4.9 9.8 0 1 0 -0.0077509815 0.33613062
-1.1123033 4.9 -9.8 0 0 -1 0.50510204 0.64285713
-1.3123031 -0.09999998 -9.8 0 0 -1 0.49489796 0.3877551
-1.3123031 4.9 -9.8 0 0 -1 0.49489796 0.64285713
-1.3123031 4.9 9.8 -1 0 -1.9804798e-08 -1.468848 0.99896085
-1.3123031 4.9 -9.8 -1 0 6.920144e-09 2.4688482 0.99896085
-1.3123031 3.6999998 1 -1 0 -2.4982765e-09 0.29909712 0.75787735
-1.1123033 3.6999998 1 0 0 -1 0.50683707 0.8471277
-1.3123031 -0.09999998 1 0 0 -1 0.462159 -0.0017557144
-1.3123031 3.6999998 1 0 0 -1 0.462159 0.8471277
-1.1123033 3.6999998 -1 0 -1 0 0.50510204 0.5510204
-1.3123031 3.6999998 1 0 -1 0 0.49489796 0.4489796
-1.3123031 3.6999998 -1 0 -1 0 0.49489796 0.5510204
-1.1123033 3.6999998 -1 0 0 1 0.50683707 0.8471277
-1.3123031 -0.09999998 -1 0 0 1 0.462159 -0.0017557144
-1.1123033 -0.09999998 -1 0 0 1 0.50683707 -0.0017557144
-1.1123033 -0.09999998 -9.8 0 -1 0 1 0.7739333
-1.3123031 -0.09999998 9.8 0 -1 0 0 0.78413737
-1.1123033 -0.09999998 -1 1 0 0 0.7313071 -0.00017887354
-1.1123033 -0.09999998 -9.8 1 0 1.6049905e-08 2.480334 -0.00017887354
-1.1123033 -0.09999998 9.8 1 0 0 -1.4152257 -0.00017887354
-1.1123033 -0.09999998 1 1 0 0 0.33380106 -0.00017887354
-1.1123033 3.6999998 1 1 0 0 0.33380106 0.7550826
-1.3123031 -0.09999998 9.8 0 0 1 0.3877551 0.78413737
-1.1123033 4.9 -9.8 0 1 0 0.992249 0.32592654
-1.1123033 -0.09999998 -9.8 0 0 -1 0.50510204 0.3877551
-1.3123031 -0.09999998 1 -1 0 0 0.29909712 -0.0055534244
-1.3123031 -0.09999998 9.8 -1 0 -1.6049905e-08 -1.468848 -0.0055534244
-1.3123031 -0.09999998 -9.8 -1 0 0 2.4688482 -0.0055534244
-1.3123031 -0.09999998 -1 -1 0 1.9137875e-08 0.70090276 -0.0055534244
-1.3123031 3.6999998 -1 -1 0 1.0326326e-08 0.70090276 0.75787735
-1.1123033 -0.09999998 1 0 0 -1 0.50683707 -0.0017557144
-1.1123033 3.6999998 1 0 -1 0 0.50510204 0.4489796
-1.3123031 3.6999998 -1 0 0 1 0.462159 0.8471277
3 0 1 2
3 3 4 5
3 6 7 8
3 9 10 11
3 12 13 14
3 15 16 17
3 0 18 1
3 3 19 4
3 6 20 7
3 9 21 10
3 12 22 13
3 15 23 16
3 24 25 26
3 27 28 29
3 30 31 32
3 33 34 35
3 36 37 38
3 39 40 41
3 24 42 25
3 27 43 28
3 30 44 31
3 33 45 34
3 36 46 37
3 39 47 40
3 48 49 50
3 51 52 53
3 54 55 56
3 57 58 59
3 60 61 62
3 63 64 65
3 48 66 49
3 51 67 52
3 54 68 55
3 57 69 58
3 60 70 61
3 63 71 64
3 72 73 74
3 75 76 77
3 78 79 80
3 81 82 83
3 84 85 86
3 87 88 89
3 72 90 73
3 75 91 76
3 78 92 79
3 81 93 82
3 84 94 85
3 87 95 88
3 96 97 98
3 99 100 101
3 102 103 104
3 105 106 107
3 108 109 110
3 111 112 113
3 114 115 116
3 117 118 119
3 120 121 122
3 123 124 125
3 96 126 97
3 99 127 100
3 104 128 129
3 103 130 131
3 103 131 132
3 104 129 102
3 103 132 104
3 105 133 106
3 108 134 109
3 111 135 112
3 116 136 137
3 115 138 139
3 115 139 140
3 116 137 114
3 115 140 116
3 117 141 118
3 120 142 121
3 123 143 124
