ply
format ascii 1.0
comment Created in Blender version 4.4.1
element vertex 24
property float x
property float y
property float z
property float nx
property float ny
property float nz
property float s
property float t
element face 12
property list uchar uint vertex_indices
end_header
-1.4881384 1.7128398 8.3 -0.6920344 0.4333105 0.5773478 0.87144053 0.19584878
-1.4371438 1.4910324 8.154004 -0.43331385 -0.6920315 -0.57734877 0.8734453 0.19894478
-1.4371438 1.4910324 8.3 -0.43330473 -0.6920331 0.5773536 0.87144053 0.19894478
-1.4881384 1.7128398 8.154004 -0.6920277 0.43331543 -0.57735205 0.73360825 0.90246266
1.1388834 2.0832741 8.154004 0.69202834 -0.43331373 -0.57735264 0.73673344 0.86616725
-1.4371438 1.4910324 8.154004 -0.43331385 -0.6920315 -0.57734877 0.73673344 0.90246266
1.0878887 2.3050814 8.154004 0.43331316 0.6920324 -0.5773481 0.5846859 0.6647788
1.1388834 2.0832741 8.3 0.6920342 -0.43331113 0.57734764 0.5866907 0.6678749
1.1388834 2.0832741 8.154004 0.69202834 -0.43331373 -0.57735264 0.5846859 0.6678749
1.0878887 2.3050814 8.3 0.43330482 0.6920329 0.57735384 0.18365668 0.85456574
-1.4371438 1.4910324 8.3 -0.43330473 -0.6920331 0.5773536 0.18053146 0.8908612
1.1388834 2.0832741 8.3 0.6920342 -0.43331113 0.57734764 0.18053146 0.85456574
1.1388834 2.0832741 8.154004 0.69202834 -0.43331373 -0.57735264 0.90615714 0.6044299
-1.4371438 1.4910324 8.3 -0.43330473 -0.6920331 0.5773536 0.9081619 0.6403226
-1.4371438 1.4910324 8.154004 -0.43331385 -0.6920315 -0.57734877 0.90615714 0.6403226
-1.4881384 1.7128398 8.154004 -0.6920277 0.43331543 -0.57735205 0.9089144 0.7033578
1.0878887 2.3050814 8.3 0.43330482 0.6920329 0.57735384 0.90690964 0.6674651
1.0878887 2.3050814 8.154004 0.43331316 0.6920324 -0.5773481 0.9089144 0.6674651
-1.4881384 1.7128398 8.154004 -0.6920277 0.43331543 -0.57735205 0.8734453 0.19584878
1.0878887 2.3050814 8.154004 0.43331316 0.6920324 -0.5773481 0.73360825 0.86616725
1.0878887 2.3050814 8.3 0.43330482 0.6920329 0.57735384 0.5866907 0.6647788
-1.4881384 1.7128398 8.3 -0.6920344 0.4333105 0.5773478 0.18365668 0.8908612
1.1388834 2.0832741 8.3 0.6920342 -0.43331113 0.57734764 0.9081619 0.6044299
-1.4881384 1.7128398 8.3 -0.6920344 0.4333105 0.5773478 0.90690964 0.7033578
3 0 1 2
3 3 4 5
3 6 7 8
3 9 10 11
3 12 13 14
3 15 16 17
3 0 18 1
3 3 19 4
3 6 20 7
3 9 21 10
3 12 22 13
3 15 23 16
