ply
format ascii 1.0
comment Created in Blender version 4.4.1
element vertex 24
property float x
property float y
property float z
property float nx
property float ny
property float nz
property float s
property float t
element face 12
property list uchar uint vertex_indices
end_header
1.1322579 2.4006665 8.154004 0.52542454 -0.6249743 -0.5773527 0.92422897 0.66746515
-1.5011326 2.6285264 8.3 -0.6249666 -0.52543366 0.5773529 0.9262337 0.70327836
-1.5011326 2.6285264 8.154004 -0.6249743 -0.525429 -0.57734877 0.92422897 0.70327836
-1.4815128 2.855273 8.3 -0.5254327 0.6249717 0.57734823 0.98893446 0.7785158
-1.5011326 2.6285264 8.154004 -0.6249743 -0.525429 -0.57734877 0.9909392 0.781593
-1.5011326 2.6285264 8.3 -0.6249666 -0.52543366 0.5773529 0.98893446 0.781593
1.1518778 2.6274133 8.3 0.62496704 0.5254325 0.5773533 0.7098522 0.90246266
-1.5011326 2.6285264 8.3 -0.6249666 -0.52543366 0.5773529 0.7129774 0.86616725
1.1322579 2.4006665 8.3 0.525432 -0.62497276 0.5773477 0.7129774 0.90246266
1.1518778 2.6274133 8.154004 0.6249738 0.52543 -0.57734835 0.18053143 0.98723406
1.1322579 2.4006665 8.3 0.525432 -0.62497276 0.5773477 0.18253615 0.99031126
1.1322579 2.4006665 8.154004 0.52542454 -0.6249743 -0.5773527 0.18053143 0.99031126
-1.4815128 2.855273 8.154004 -0.5254241 0.624975 -0.5773524 0.92624027 0.77379996
1.1518778 2.6274133 8.3 0.62496704 0.5254325 0.5773533 0.9242355 0.73798674
1.1518778 2.6274133 8.154004 0.6249738 0.52543 -0.57734835 0.92624027 0.73798674
-1.4815128 2.855273 8.154004 -0.5254241 0.624975 -0.5773524 0.83890265 0.8620479
1.1322579 2.4006665 8.154004 0.52542454 -0.6249743 -0.5773527 0.8357774 0.8983433
-1.5011326 2.6285264 8.154004 -0.6249743 -0.525429 -0.57734877 0.8357774 0.8620479
1.1322579 2.4006665 8.3 0.525432 -0.62497276 0.5773477 0.9262337 0.66746515
-1.4815128 2.855273 8.154004 -0.5254241 0.624975 -0.5773524 0.9909392 0.7785158
-1.4815128 2.855273 8.3 -0.5254327 0.6249717 0.57734823 0.7098522 0.86616725
1.1518778 2.6274133 8.3 0.62496704 0.5254325 0.5773533 0.18253615 0.98723406
-1.4815128 2.855273 8.3 -0.5254327 0.6249717 0.57734823 0.9242355 0.77379996
1.1518778 2.6274133 8.154004 0.6249738 0.52543 -0.57734835 0.83890265 0.8983433
3 0 1 2
3 3 4 5
3 6 7 8
3 9 10 11
3 12 13 14
3 15 16 17
3 0 18 1
3 3 19 4
3 6 20 7
3 9 21 10
3 12 22 13
3 15 23 16
