ply
format ascii 1.0
comment Created in Blender version 4.4.1
element vertex 24
property float x
property float y
property float z
property float nx
property float ny
property float nz
property float s
property float t
element face 12
property list uchar uint vertex_indices
end_header
6.637336 1.7128398 8.3 -0.692032 0.43330562 0.57735443 0.8765677 0.51560307
6.68833 1.4910324 8.154004 -0.43331417 -0.6920313 -0.57734877 0.87857246 0.51869905
6.68833 1.4910324 8.3 -0.43330604 -0.6920383 0.5773464 0.8765677 0.51869905
6.637336 1.7128398 8.154004 -0.6920276 0.43331507 -0.5773524 0.27273053 0.8908613
9.264358 2.0832741 8.154004 0.6920285 -0.43331355 -0.57735246 0.27585575 0.8545658
6.68833 1.4910324 8.154004 -0.43331417 -0.6920313 -0.57734877 0.27585575 0.8908613
9.213363 2.3050814 8.154004 0.43331262 0.6920329 -0.57734805 0.8942655 0.3851331
9.264358 2.0832741 8.3 0.6920322 -0.4333054 0.57735413 0.8962702 0.3882291
9.264358 2.0832741 8.154004 0.6920285 -0.43331355 -0.57735246 0.8942655 0.3882291
9.264358 2.0832741 8.3 0.6920322 -0.4333054 0.57735413 0.11871331 0.85710204
6.637336 1.7128398 8.3 -0.692032 0.43330562 0.57735443 0.12183851 0.8933975
6.68833 1.4910324 8.3 -0.43330604 -0.6920383 0.5773464 0.11871331 0.8933975
9.264358 2.0832741 8.154004 0.6920285 -0.43331355 -0.57735246 0.83502495 0.6142652
6.68833 1.4910324 8.3 -0.43330604 -0.6920383 0.5773464 0.8370297 0.650158
6.68833 1.4910324 8.154004 -0.43331417 -0.6920313 -0.57734877 0.83502495 0.650158
6.637336 1.7128398 8.154004 -0.6920276 0.43331507 -0.5773524 0.908921 0.7738794
9.213363 2.3050814 8.3 0.43330553 0.69203824 0.57734686 0.90691626 0.7379867
9.213363 2.3050814 8.154004 0.43331262 0.6920329 -0.57734805 0.908921 0.7379867
6.637336 1.7128398 8.154004 -0.6920276 0.43331507 -0.5773524 0.87857246 0.51560307
9.213363 2.3050814 8.154004 0.43331262 0.6920329 -0.57734805 0.27273053 0.8545658
9.213363 2.3050814 8.3 0.43330553 0.69203824 0.57734686 0.8962702 0.3851331
9.213363 2.3050814 8.3 0.43330553 0.69203824 0.57734686 0.12183851 0.85710204
9.264358 2.0832741 8.3 0.6920322 -0.4333054 0.57735413 0.8370297 0.6142652
6.637336 1.7128398 8.3 -0.692032 0.43330562 0.57735443 0.90691626 0.7738794
3 0 1 2
3 3 4 5
3 6 7 8
3 9 10 11
3 12 13 14
3 15 16 17
3 0 18 1
3 3 19 4
3 6 20 7
3 9 21 10
3 12 22 13
3 15 23 16
