ply
format ascii 1.0
comment Created in Blender version 4.4.1
element vertex 24
property float x
property float y
property float z
property float nx
property float ny
property float nz
property float s
property float t
element face 12
property list uchar uint vertex_indices
end_header
9.257732 2.4006665 8.154004 0.5254277 -0.62497723 -0.5773467 0.9127051 0.46020815
6.6243415 2.6285264 8.3 -0.6249658 -0.5254348 0.5773527 0.91470987 0.49602142
6.6243415 2.6285264 8.154004 -0.62497085 -0.5254268 -0.5773544 0.9127051 0.49602142
6.643961 2.855273 8.3 -0.52543366 0.6249704 0.57734865 0.98921734 0.007657296
6.6243415 2.6285264 8.154004 -0.62497085 -0.5254268 -0.5773544 0.9912221 0.010734516
6.6243415 2.6285264 8.3 -0.6249658 -0.5254348 0.5773527 0.98921734 0.010734516
9.277351 2.6274133 8.3 0.624965 0.5254356 0.57735276 0.29117027 0.8908612
6.6243415 2.6285264 8.3 -0.6249658 -0.5254348 0.5773527 0.2942955 0.85456574
9.257732 2.4006665 8.3 0.5254345 -0.6249697 0.57734865 0.2942955 0.8908612
9.277351 2.6274133 8.154004 0.62497044 0.52542704 -0.57735467 0.98995894 0.0884443
9.257732 2.4006665 8.3 0.5254345 -0.6249697 0.57734865 0.9919637 0.09152151
9.257732 2.4006665 8.154004 0.5254277 -0.62497723 -0.5773467 0.98995894 0.09152151
6.643961 2.855273 8.154004 -0.5254272 0.6249774 -0.57734704 0.91470987 0.4448935
9.277351 2.6274133 8.3 0.624965 0.5254356 0.57735276 0.9127051 0.40908024
9.277351 2.6274133 8.154004 0.62497044 0.52542704 -0.57735467 0.91470987 0.40908024
6.6243415 2.6285264 8.154004 -0.62497085 -0.5254268 -0.5773544 0.40184736 0.85973656
9.277351 2.6274133 8.154004 0.62497044 0.52542704 -0.57735467 0.40497252 0.89603204
9.257732 2.4006665 8.154004 0.5254277 -0.62497723 -0.5773467 0.40184736 0.89603204
9.257732 2.4006665 8.3 0.5254345 -0.6249697 0.57734865 0.91470987 0.46020815
6.643961 2.855273 8.154004 -0.5254272 0.6249774 -0.57734704 0.9912221 0.007657296
6.643961 2.855273 8.3 -0.52543366 0.6249704 0.57734865 0.29117027 0.85456574
9.277351 2.6274133 8.3 0.624965 0.5254356 0.57735276 0.9919637 0.0884443
6.643961 2.855273 8.3 -0.52543366 0.6249704 0.57734865 0.9127051 0.4448935
6.643961 2.855273 8.154004 -0.5254272 0.6249774 -0.57734704 0.40497252 0.85973656
3 0 1 2
3 3 4 5
3 6 7 8
3 9 10 11
3 12 13 14
3 15 16 17
3 0 18 1
3 3 19 4
3 6 20 7
3 9 21 10
3 12 22 13
3 15 23 16
