ply
format ascii 1.0
comment Created in Blender version 4.4.1
element vertex 24
property float x
property float y
property float z
property float nx
property float ny
property float nz
property float s
property float t
element face 12
property list uchar uint vertex_indices
end_header
8.079433 3.97208 8.5 0.40622753 0.70528924 -0.58098733 0.5846859 0.33192998
8.953199 1.113829 8.645996 0.70965016 -0.40872312 0.57388335 0.5866906 0.37209025
8.953199 1.113829 8.5 0.709644 -0.40873155 -0.5738849 0.5846859 0.37209025
8.731547 1.0621631 8.645996 -0.40621883 -0.7052929 0.5809891 0.79276776 0.98678744
8.953199 1.113829 8.5 0.709644 -0.40873155 -0.5738849 0.7907631 0.98369837
8.953199 1.113829 8.645996 0.70965016 -0.40872312 0.57388335 0.79276776 0.98369837
8.079433 3.97208 8.645996 0.40621862 0.70529294 0.58098906 0.77048075 0.8098117
8.731547 1.0621631 8.645996 -0.40621883 -0.7052929 0.5809891 0.7735988 0.85064137
8.953199 1.113829 8.645996 0.70965016 -0.40872312 0.57388335 0.77048075 0.85085267
7.857782 3.9204142 8.5 -0.7096445 0.40873095 -0.57388484 0.04015478 0.9865344
8.079433 3.97208 8.645996 0.40621862 0.70529294 0.58098906 0.03815005 0.9834453
8.079433 3.97208 8.5 0.40622753 0.70528924 -0.58098733 0.04015478 0.9834453
8.731547 1.0621631 8.5 -0.40622714 -0.7052897 -0.58098716 0.5866906 0.5385147
7.857782 3.9204142 8.645996 -0.7096512 0.4087224 0.5738826 0.58468586 0.49835446
7.857782 3.9204142 8.5 -0.7096445 0.40873095 -0.57388484 0.5866906 0.49835446
8.731547 1.0621631 8.5 -0.40622714 -0.7052897 -0.58098716 0.8530858 0.6443788
8.079433 3.97208 8.5 0.40622753 0.70528924 -0.58098733 0.85620385 0.6035492
8.953199 1.113829 8.5 0.709644 -0.40873155 -0.5738849 0.85620385 0.6445901
8.079433 3.97208 8.645996 0.40621862 0.70529294 0.58098906 0.5866906 0.33192998
8.731547 1.0621631 8.5 -0.40622714 -0.7052897 -0.58098716 0.7907631 0.98678744
7.857782 3.9204142 8.645996 -0.7096512 0.4087224 0.5738826 0.7735988 0.80960035
7.857782 3.9204142 8.645996 -0.7096512 0.4087224 0.5738826 0.03815005 0.9865344
8.731547 1.0621631 8.645996 -0.40621883 -0.7052929 0.5809891 0.58468586 0.5385147
7.857782 3.9204142 8.5 -0.7096445 0.40873095 -0.57388484 0.8530858 0.6033378
3 0 1 2
3 3 4 5
3 6 7 8
3 9 10 11
3 12 13 14
3 15 16 17
3 0 18 1
3 3 19 4
3 6 20 7
3 9 21 10
3 12 22 13
3 15 23 16
