ply
format ascii 1.0
comment Created in Blender version 4.4.1
element vertex 24
property float x
property float y
property float z
property float nx
property float ny
property float nz
property float s
property float t
element face 12
property list uchar uint vertex_indices
end_header
7.715834 3.9859297 8.5 0.996835 -0.07949848 0 0.87694603 0.40354368
7.480445 1.0343947 8.645996 0.996835 -0.07949953 0 0.8789508 0.443624
7.480445 1.0343947 8.5 0.996835 -0.079499565 0 0.87694603 0.443624
7.2532773 1.0483134 8.645996 -0.06115576 -0.99812824 -0 0.30139494 0.98254794
7.480445 1.0343947 8.5 -0.061155885 -0.99812824 -0 0.2993902 0.9794525
7.480445 1.0343947 8.645996 -0.06115604 -0.99812824 -0 0.30139494 0.9794525
7.4886665 3.9998486 8.645996 0 0 1 0.856963 0.73804426
7.480445 1.0343947 8.645996 0 0 1 0.85383826 0.77864444
7.715834 3.9859297 8.645996 0 0 1 0.85383826 0.73798674
7.4886665 3.9998486 8.5 0.061157256 0.9981282 0 0.83252496 0.9826746
7.715834 3.9859297 8.645996 0.061156172 0.9981283 0 0.8305202 0.97957915
7.715834 3.9859297 8.5 0.061154705 0.9981283 0 0.83252496 0.97957915
7.2532773 1.0483134 8.5 -0.996835 0.079498485 0 0.3502994 0.8848241
7.4886665 3.9998486 8.645996 -0.996835 0.079499505 0 0.34829468 0.8447438
7.4886665 3.9998486 8.5 -0.996835 0.07949954 0 0.3502994 0.8447438
7.480445 1.0343947 8.5 0 0 -1 0.87464315 0.58742857
7.4886665 3.9998486 8.5 0 0 -1 0.8715185 0.54682845
7.715834 3.9859297 8.5 0 0 -1 0.87464315 0.546771
7.715834 3.9859297 8.645996 0.99683505 -0.07949845 0 0.8789508 0.40354368
7.2532773 1.0483134 8.5 -0.061155595 -0.99812824 -0 0.2993902 0.98254794
7.2532773 1.0483134 8.645996 0 0 1 0.856963 0.77870184
7.4886665 3.9998486 8.645996 0.061158717 0.99812806 0 0.8305202 0.9826746
7.2532773 1.0483134 8.645996 -0.996835 0.07949845 0 0.34829468 0.8848241
7.2532773 1.0483134 8.5 0 0 -1 0.8715185 0.587486
3 0 1 2
3 3 4 5
3 6 7 8
3 9 10 11
3 12 13 14
3 15 16 17
3 0 18 1
3 3 19 4
3 6 20 7
3 9 21 10
3 12 22 13
3 15 23 16
