ply
format ascii 1.0
comment Created in Blender version 4.4.1
element vertex 24
property float x
property float y
property float z
property float nx
property float ny
property float nz
property float s
property float t
element face 12
property list uchar uint vertex_indices
end_header
14.630678 1.7128398 8.3 -0.9745752 -0.22406092 -0 0.4810433 0.95036227
14.681673 1.4910324 8.154004 -0.97457504 -0.22406137 -0 0.48304805 0.95345825
14.681673 1.4910324 8.3 -0.9745749 -0.224062 -0 0.4810433 0.95345825
14.630678 1.7128398 8.154004 0 1.5707266e-07 -1 0.89426553 0.36822543
17.2577 2.0832741 8.154004 0 2.7162403e-06 -1 0.89739066 0.33192998
14.681673 1.4910324 8.154004 0 0 -1 0.89739066 0.36822543
17.206705 2.3050814 8.154004 0.97457504 0.22406152 0 0.7279132 0.64796245
17.2577 2.0832741 8.3 0.9745751 0.22406116 0 0.72991794 0.65105844
17.2577 2.0832741 8.154004 0.9745752 0.22406067 0 0.7279132 0.65105844
17.206705 2.3050814 8.3 0 -6.4995554e-08 1 0.89739054 0.46020815
14.681673 1.4910324 8.3 0 -1.1239624e-06 1 0.8942654 0.49650356
17.2577 2.0832741 8.3 0 0 1 0.8942654 0.46020812
17.2577 2.0832741 8.154004 0.22406135 -0.97457504 0 0.9084085 0.80548096
14.681673 1.4910324 8.3 0.22405927 -0.9745755 0 0.91041327 0.8413736
14.681673 1.4910324 8.154004 0.22405921 -0.9745755 0 0.9084085 0.8413736
14.630678 1.7128398 8.154004 -0.22406131 0.97457516 0 0.9104133 0.89298373
17.206705 2.3050814 8.3 -0.2240592 0.9745756 0 0.9084086 0.857091
17.206705 2.3050814 8.154004 -0.22405912 0.97457564 0 0.9104133 0.857091
14.630678 1.7128398 8.154004 -0.97457534 -0.2240603 -0 0.48304805 0.95036227
17.206705 2.3050814 8.154004 0 2.873313e-06 -1 0.89426553 0.33192998
17.206705 2.3050814 8.3 0.9745749 0.224062 0 0.72991794 0.64796245
14.630678 1.7128398 8.3 0 -1.1889579e-06 1 0.89739054 0.49650356
17.2577 2.0832741 8.3 0.22406144 -0.9745751 0 0.91041327 0.80548096
14.630678 1.7128398 8.3 -0.22406135 0.9745751 0 0.9084086 0.89298373
3 0 1 2
3 3 4 5
3 6 7 8
3 9 10 11
3 12 13 14
3 15 16 17
3 0 18 1
3 3 19 4
3 6 20 7
3 9 21 10
3 12 22 13
3 15 23 16
