ply
format ascii 1.0
comment Created in Blender version 4.4.1
element vertex 24
property float x
property float y
property float z
property float nx
property float ny
property float nz
property float s
property float t
element face 12
property list uchar uint vertex_indices
end_header
16.072777 3.97208 8.5 0.40622753 0.70528954 -0.58098704 0.54893583 0.81107634
16.946543 1.113829 8.645996 0.7096501 -0.40872368 0.573883 0.5509405 0.8512366
16.946543 1.113829 8.5 0.70964396 -0.40873176 -0.57388484 0.54893583 0.8512366
16.72489 1.0621631 8.645996 -0.4062191 -0.70529294 0.5809887 0.5325078 0.98786074
16.946543 1.113829 8.5 0.70964396 -0.40873176 -0.57388484 0.5305031 0.98477167
16.946543 1.113829 8.645996 0.7096501 -0.40872368 0.573883 0.5325078 0.98477167
16.072777 3.97208 8.645996 0.40621847 0.70529336 0.58098865 0.83577734 0.8056924
16.72489 1.0621631 8.645996 -0.4062191 -0.70529294 0.5809887 0.83889544 0.846522
16.946543 1.113829 8.645996 0.7096501 -0.40872368 0.573883 0.83577734 0.8467333
15.851125 3.9204142 8.5 -0.7096444 0.40873125 -0.5738847 0.98488736 0.93351275
16.072777 3.97208 8.645996 0.40621847 0.70529336 0.58098865 0.9828826 0.9304236
16.072777 3.97208 8.5 0.40622753 0.70528954 -0.58098704 0.98488736 0.9304236
16.72489 1.0621631 8.5 -0.40622777 -0.7052895 -0.58098686 0.5866906 0.59398955
15.851125 3.9204142 8.645996 -0.70965093 0.4087231 0.57388234 0.58468586 0.5538293
15.851125 3.9204142 8.5 -0.7096444 0.40873125 -0.5738847 0.5866906 0.5538293
16.72489 1.0621631 8.5 -0.40622777 -0.7052895 -0.58098686 0.752048 0.8506413
16.072777 3.97208 8.5 0.40622753 0.70528954 -0.58098704 0.755166 0.8098117
16.946543 1.113829 8.5 0.70964396 -0.40873176 -0.57388484 0.75516605 0.8508526
16.072777 3.97208 8.645996 0.40621847 0.70529336 0.58098865 0.5509405 0.81107634
16.72489 1.0621631 8.5 -0.40622777 -0.7052895 -0.58098686 0.5305031 0.98786074
15.851125 3.9204142 8.645996 -0.70965093 0.4087231 0.57388234 0.8388954 0.80548096
15.851125 3.9204142 8.645996 -0.70965093 0.4087231 0.57388234 0.9828826 0.93351275
16.72489 1.0621631 8.645996 -0.4062191 -0.70529294 0.5809887 0.58468586 0.59398955
15.851125 3.9204142 8.5 -0.7096444 0.40873125 -0.5738847 0.752048 0.80960035
3 0 1 2
3 3 4 5
3 6 7 8
3 9 10 11
3 12 13 14
3 15 16 17
3 0 18 1
3 3 19 4
3 6 20 7
3 9 21 10
3 12 22 13
3 15 23 16
