ply
format ascii 1.0
comment Created in Blender version 4.4.1
element vertex 24
property float x
property float y
property float z
property float nx
property float ny
property float nz
property float s
property float t
element face 12
property list uchar uint vertex_indices
end_header
15.709177 3.9859297 8.5 0.61704177 0.53575414 -0.5763913 0.33023375 0.8447438
15.473787 1.0343947 8.645996 0.5348677 -0.616 0.5783257 0.3322385 0.88482404
15.473787 1.0343947 8.5 0.53485924 -0.6160055 -0.57832766 0.33023375 0.88482404
15.24662 1.0483134 8.645996 -0.6170344 -0.535761 0.5763928 0.98111117 0.49124905
15.473787 1.0343947 8.5 0.53485924 -0.6160055 -0.57832766 0.9791064 0.48815358
15.473787 1.0343947 8.645996 0.5348677 -0.616 0.5783257 0.98111117 0.48815358
15.48201 3.9998486 8.645996 -0.5348668 0.61600053 0.5783259 0.5697498 0.82942843
15.473787 1.0343947 8.645996 0.5348677 -0.616 0.5783257 0.56662506 0.87002856
15.709177 3.9859297 8.645996 0.61703444 0.53576076 0.57639307 0.56662506 0.8293709
15.48201 3.9998486 8.5 -0.5348589 0.6160057 -0.5783277 0.86258537 0.9821374
15.709177 3.9859297 8.645996 0.61703444 0.53576076 0.57639307 0.86058056 0.9790419
15.709177 3.9859297 8.5 0.61704177 0.53575414 -0.5763913 0.86258537 0.9790419
15.24662 1.0483134 8.5 -0.6170423 -0.53575414 -0.57639086 0.69453764 0.8820778
15.48201 3.9998486 8.645996 -0.5348668 0.61600053 0.5783259 0.69253296 0.84199756
15.48201 3.9998486 8.5 -0.5348589 0.6160057 -0.5783277 0.69453764 0.84199756
15.473787 1.0343947 8.5 0.53485924 -0.6160055 -0.57832766 0.6066282 0.87002856
15.48201 3.9998486 8.5 -0.5348589 0.6160057 -0.5783277 0.6035035 0.8294284
15.709177 3.9859297 8.5 0.61704177 0.53575414 -0.5763913 0.6066282 0.8293709
15.709177 3.9859297 8.645996 0.61703444 0.53576076 0.57639307 0.3322385 0.8447438
15.24662 1.0483134 8.5 -0.6170423 -0.53575414 -0.57639086 0.9791064 0.49124905
15.24662 1.0483134 8.645996 -0.6170344 -0.535761 0.5763928 0.5697498 0.870086
15.48201 3.9998486 8.645996 -0.5348668 0.61600053 0.5783259 0.86058056 0.9821374
15.24662 1.0483134 8.645996 -0.6170344 -0.535761 0.5763928 0.69253296 0.8820778
15.24662 1.0483134 8.5 -0.6170423 -0.53575414 -0.57639086 0.6035035 0.870086
3 0 1 2
3 3 4 5
3 6 7 8
3 9 10 11
3 12 13 14
3 15 16 17
3 0 18 1
3 3 19 4
3 6 20 7
3 9 21 10
3 12 22 13
3 15 23 16
