ply
format ascii 1.0
comment Created in Blender version 4.4.1
element vertex 24
property float x
property float y
property float z
property float nx
property float ny
property float nz
property float s
property float t
element face 12
property list uchar uint vertex_indices
end_header
17.900002 1.71284 0.65569425 0.5773487 0.43330878 0.6920348 0.80978465 0.96893525
17.754005 1.4910325 0.6046994 -0.5773543 -0.6920277 0.43331245 0.8117894 0.97203124
17.900002 1.4910325 0.6046994 0.5773524 -0.69203323 0.43330637 0.80978465 0.97203124
17.754005 1.4910325 0.6046994 -0.5773543 -0.6920277 0.43331245 0.8930049 0.25055477
17.754005 2.3050814 -1.9203324 -0.5773549 0.692028 -0.4333112 0.8898797 0.21425933
17.754005 2.0832741 -1.9713273 -0.5773458 -0.43331674 -0.69203216 0.8930049 0.21425933
17.754005 2.3050814 -1.9203324 -0.5773549 0.692028 -0.4333112 0.9257279 0.88988763
17.900002 2.0832741 -1.9713273 0.57734823 -0.43330792 -0.6920356 0.92773265 0.8929837
17.754005 2.0832741 -1.9713273 -0.5773458 -0.43331674 -0.69203216 0.9257279 0.8929837
17.900002 2.3050814 -1.9203324 0.5773531 0.6920351 -0.4333022 0.7920385 0.86616725
17.900002 1.4910325 0.6046994 0.5773524 -0.69203323 0.43330637 0.78891337 0.90246266
17.900002 2.0832741 -1.9713273 0.57734823 -0.43330792 -0.6920356 0.78891337 0.86616725
17.754005 2.0832741 -1.9713273 -0.5773458 -0.43331674 -0.69203216 0.5489358 0.86655116
17.900002 1.4910325 0.6046994 0.5773524 -0.69203323 0.43330637 0.55094045 0.9024439
17.754005 1.4910325 0.6046994 -0.5773543 -0.6920277 0.43331245 0.5489358 0.9024439
17.754005 1.71284 0.65569425 -0.57734746 0.43331784 0.6920301 0.91032434 0.16761106
17.900002 2.3050814 -1.9203324 0.5773531 0.6920351 -0.4333022 0.9083196 0.13171834
17.754005 2.3050814 -1.9203324 -0.5773549 0.692028 -0.4333112 0.91032434 0.13171834
17.754005 1.71284 0.65569425 -0.57734746 0.43331784 0.6920301 0.8117894 0.96893525
17.754005 1.71284 0.65569425 -0.57734746 0.43331784 0.6920301 0.8898797 0.25055477
17.900002 2.3050814 -1.9203324 0.5773531 0.6920351 -0.4333022 0.92773265 0.88988763
17.900002 1.71284 0.65569425 0.5773487 0.43330878 0.6920348 0.79203856 0.90246266
17.900002 2.0832741 -1.9713273 0.57734823 -0.43330792 -0.6920356 0.55094045 0.86655116
17.900002 1.71284 0.65569425 0.5773487 0.43330878 0.6920348 0.9083196 0.16761106
3 0 1 2
3 3 4 5
3 6 7 8
3 9 10 11
3 12 13 14
3 15 16 17
3 0 18 1
3 3 19 4
3 6 20 7
3 9 21 10
3 12 22 13
3 15 23 16
