ply
format ascii 1.0
comment Created in Blender version 4.4.1
element vertex 24
property float x
property float y
property float z
property float nx
property float ny
property float nz
property float s
property float t
element face 12
property list uchar uint vertex_indices
end_header
17.754005 2.4006665 -1.9647031 0 -0.9962774 0.08620589 0.92347646 0.60442984
17.900002 2.6285264 0.668689 0 -0.99627763 0.08620361 0.92548126 0.6402431
17.754005 2.6285264 0.668689 0 -0.9962776 0.08620353 0.92347646 0.6402431
17.900002 2.855273 0.6490681 0 0.086209685 0.99627703 0.9898778 0.6265671
17.754005 2.6285264 0.668689 0 0.08620911 0.99627715 0.99188256 0.62964433
17.900002 2.6285264 0.668689 0 0.08620839 0.9962772 0.9898778 0.62964433
17.900002 2.4006665 -1.9647031 1 0 -1.4986111e-06 0.48053667 0.89451855
17.900002 2.855273 0.6490681 1 0 -8.665951e-08 0.47741148 0.8582231
17.900002 2.6285264 0.668689 1 0 0 0.48053667 0.8582231
17.754005 2.6274133 -1.9843221 0 -0.086202405 -0.99627775 0.9871793 0.35423064
17.900002 2.4006665 -1.9647031 0 -0.086202405 -0.99627775 0.989184 0.3573079
17.754005 2.4006665 -1.9647031 0 -0.0862024 -0.9962777 0.9871793 0.3573079
17.754005 2.855273 0.6490681 0 0.99627733 -0.08620596 0.9276436 0.25007254
17.900002 2.6274133 -1.9843221 0 0.99627763 -0.086203694 0.92563885 0.21425933
17.754005 2.6274133 -1.9843221 0 0.9962776 -0.08620359 0.9276436 0.21425933
17.754005 2.855273 0.6490681 -1 0 0 0.89300495 0.26586932
17.754005 2.4006665 -1.9647031 -1 0 0 0.8898797 0.30216476
17.754005 2.6285264 0.668689 -1 0 0 0.88987976 0.26586932
17.900002 2.4006665 -1.9647031 0 -0.99627733 0.08620598 0.92548126 0.60442984
17.754005 2.855273 0.6490681 0 0.08621042 0.99627703 0.99188256 0.6265671
17.900002 2.6274133 -1.9843221 1 0 -1.5852711e-06 0.47741148 0.89451855
17.900002 2.6274133 -1.9843221 0 -0.0862024 -0.9962777 0.989184 0.35423064
17.900002 2.855273 0.6490681 0 0.99627733 -0.08620605 0.92563885 0.25007254
17.754005 2.6274133 -1.9843221 -1 0 0 0.89300495 0.30216476
3 0 1 2
3 3 4 5
3 6 7 8
3 9 10 11
3 12 13 14
3 15 16 17
3 0 18 1
3 3 19 4
3 6 20 7
3 9 21 10
3 12 22 13
3 15 23 16
