ply
format ascii 1.0
comment Created in Blender version 4.4.1
element vertex 24
property float x
property float y
property float z
property float nx
property float ny
property float nz
property float s
property float t
element face 12
property list uchar uint vertex_indices
end_header
18.1 3.97208 -0.7864044 -0.58098525 0.705289 -0.4062309 0.6743603 0.7703839
18.245996 1.1138291 -1.6601703 0.5738831 -0.40872505 -0.7096492 0.676365 0.81054413
18.1 1.1138291 -1.6601703 -0.5738844 -0.40873286 -0.7096437 0.6743603 0.81054413
18.245996 1.0621632 -1.4385173 0.5809885 -0.70529336 0.40621883 0.38653272 0.9859777
18.1 1.1138291 -1.6601703 -0.5738844 -0.40873286 -0.7096437 0.38452798 0.9828885
18.245996 1.1138291 -1.6601703 0.5738831 -0.40872505 -0.7096492 0.38653272 0.9828885
18.245996 3.97208 -0.7864044 0.5809899 0.70529586 -0.4062124 0.8530078 0.2710375
18.245996 1.0621632 -1.4385173 0.5809885 -0.70529336 0.40621883 0.85612583 0.31186712
18.245996 1.1138291 -1.6601703 0.5738831 -0.40872505 -0.7096492 0.8530078 0.31207845
18.1 3.9204142 -0.5647533 -0.57388645 0.40873384 0.7096416 0.36761874 0.98653436
18.245996 3.97208 -0.7864044 0.5809899 0.70529586 -0.4062124 0.36561394 0.9834453
18.1 3.97208 -0.7864044 -0.58098525 0.705289 -0.4062309 0.36761874 0.9834453
18.1 1.0621632 -1.4385173 -0.5809869 -0.70529026 0.40622643 0.8742757 0.70762527
18.245996 3.9204142 -0.5647533 0.5738793 0.40872124 0.7096545 0.87227094 0.6674651
18.1 3.9204142 -0.5647533 -0.57388645 0.40873384 0.7096416 0.8742757 0.6674651
18.1 1.0621632 -1.4385173 -0.5809869 -0.70529026 0.40622643 0.8530078 0.048698235
18.1 3.97208 -0.7864044 -0.58098525 0.705289 -0.4062309 0.85612583 0.007868626
18.1 1.1138291 -1.6601703 -0.5738844 -0.40873286 -0.7096437 0.85612583 0.048909556
18.245996 3.97208 -0.7864044 0.5809899 0.70529586 -0.4062124 0.676365 0.7703839
18.1 1.0621632 -1.4385173 -0.5809869 -0.70529026 0.40622643 0.38452798 0.9859777
18.245996 3.9204142 -0.5647533 0.5738793 0.40872124 0.7096545 0.85612583 0.2708262
18.245996 3.9204142 -0.5647533 0.5738793 0.40872124 0.7096545 0.36561394 0.98653436
18.245996 1.0621632 -1.4385173 0.5809885 -0.70529336 0.40621883 0.87227094 0.70762527
18.1 3.9204142 -0.5647533 -0.57388645 0.40873384 0.7096416 0.8530078 0.0076573035
3 0 1 2
3 3 4 5
3 6 7 8
3 9 10 11
3 12 13 14
3 15 16 17
3 0 18 1
3 3 19 4
3 6 20 7
3 9 21 10
3 12 22 13
3 15 23 16
