ply
format ascii 1.0
comment Created in Blender version 4.4.1
element vertex 24
property float x
property float y
property float z
property float nx
property float ny
property float nz
property float s
property float t
element face 12
property list uchar uint vertex_indices
end_header
12.501692 1.7128398 -2.8000002 0.97457516 -0.22406082 0 0.92422897 0.71867245
12.450697 1.4910324 -2.654004 0.9745753 -0.2240606 0 0.9262337 0.72176844
12.450697 1.4910324 -2.8000002 0.97457534 -0.2240603 0 0.92422897 0.72176844
12.501692 1.7128398 -2.654004 0 -1.6248896e-08 1 0.752048 0.9024626
9.87467 2.0832741 -2.654004 0 -2.8099035e-07 1 0.7551732 0.8661672
12.450697 1.4910324 -2.654004 0 0 1 0.7551732 0.9024626
9.925665 2.3050814 -2.654004 -0.9745753 0.22406076 0 0.96036655 0.8898877
9.87467 2.0832741 -2.8000002 -0.9745751 0.22406109 0 0.9623713 0.8929836
9.87467 2.0832741 -2.654004 -0.9745751 0.22406155 0 0.96036655 0.8929836
9.925665 2.3050814 -2.8000002 0 1.8957007e-08 -1 0.4591553 0.85822314
12.450697 1.4910324 -2.8000002 0 3.2782185e-07 -1 0.45603007 0.8945186
9.87467 2.0832741 -2.8000002 0 0 -1 0.45603007 0.85822314
9.87467 2.0832741 -2.654004 -0.22405979 -0.9745754 -0 0.9079406 0.06305219
12.450697 1.4910324 -2.8000002 -0.22405972 -0.9745754 -0 0.90994537 0.09894492
12.450697 1.4910324 -2.654004 -0.22405973 -0.9745754 -0 0.9079406 0.09894492
12.501692 1.7128398 -2.654004 0.22405972 0.9745754 0 0.50902593 0.90999854
9.925665 2.3050814 -2.8000002 0.22405966 0.97457546 0 0.5070212 0.8741059
9.925665 2.3050814 -2.654004 0.22405969 0.97457546 0 0.50902593 0.8741059
12.501692 1.7128398 -2.654004 0.9745751 -0.2240611 0 0.9262337 0.71867245
9.925665 2.3050814 -2.654004 0 -2.9723924e-07 1 0.752048 0.8661672
9.925665 2.3050814 -2.8000002 -0.97457534 0.2240603 0 0.9623713 0.8898877
12.501692 1.7128398 -2.8000002 0 3.4677885e-07 -1 0.4591553 0.8945186
9.87467 2.0832741 -2.8000002 -0.22405982 -0.9745754 -0 0.90994537 0.06305219
12.501692 1.7128398 -2.8000002 0.22405973 0.9745754 0 0.5070212 0.90999854
3 0 1 2
3 3 4 5
3 6 7 8
3 9 10 11
3 12 13 14
3 15 16 17
3 0 18 1
3 3 19 4
3 6 20 7
3 9 21 10
3 12 22 13
3 15 23 16
