ply
format ascii 1.0
comment Created in Blender version 4.4.1
element vertex 24
property float x
property float y
property float z
property float nx
property float ny
property float nz
property float s
property float t
element face 12
property list uchar uint vertex_indices
end_header
9.881294 2.4006665 -2.654004 0.08620502 -0.99627745 0 0.07889263 0.88292253
12.514687 2.6285264 -2.8000002 0.08620522 -0.9962775 0 0.08089737 0.9187358
12.514687 2.6285264 -2.654004 0.08620522 -0.9962775 0 0.07889263 0.9187358
12.495066 2.855273 -2.8000002 0.996277 0.0862101 0 0.989959 0.10683609
12.514687 2.6285264 -2.654004 0.996277 0.08621003 0 0.99196374 0.1099133
12.514687 2.6285264 -2.8000002 0.99627703 0.08620995 0 0.989959 0.1099133
9.861675 2.6274133 -2.8000002 0 -3.5205815e-08 -1 0.25429064 0.89086133
12.514687 2.6285264 -2.8000002 0 -6.0881183e-07 -1 0.25741586 0.8545658
9.881294 2.4006665 -2.8000002 0 0 -1 0.25741586 0.89086133
9.861675 2.6274133 -2.654004 -0.99627775 -0.08620176 -0 0.99033785 0.13171834
9.881294 2.4006665 -2.8000002 -0.99627775 -0.08620174 -0 0.9923426 0.13479556
9.881294 2.4006665 -2.654004 -0.9962778 -0.08620171 -0 0.99033785 0.13479556
12.495066 2.855273 -2.654004 -0.08620507 0.99627745 0 0.36836025 0.91989315
9.861675 2.6274133 -2.8000002 -0.08620501 0.99627745 0 0.3663555 0.8840799
9.861675 2.6274133 -2.654004 -0.086205 0.9962775 0 0.36836025 0.8840799
12.495066 2.855273 -2.654004 0 -2.9789252e-08 1 0.44071546 0.8582231
9.881294 2.4006665 -2.654004 0 -5.151484e-07 1 0.43759027 0.89451855
12.514687 2.6285264 -2.654004 0 0 1 0.43759027 0.8582231
9.881294 2.4006665 -2.8000002 0.086205 -0.9962775 0 0.08089737 0.88292253
12.495066 2.855273 -2.654004 0.99627703 0.086210184 0 0.99196374 0.10683609
12.495066 2.855273 -2.8000002 0 -6.4401786e-07 -1 0.25429064 0.85456586
9.861675 2.6274133 -2.8000002 -0.9962778 -0.08620178 -0 0.9923426 0.13171834
12.495066 2.855273 -2.8000002 -0.086205065 0.9962775 0 0.3663555 0.91989315
9.861675 2.6274133 -2.654004 0 -5.4493773e-07 1 0.44071546 0.89451855
3 0 1 2
3 3 4 5
3 6 7 8
3 9 10 11
3 12 13 14
3 15 16 17
3 0 18 1
3 3 19 4
3 6 20 7
3 9 21 10
3 12 22 13
3 15 23 16
