ply
format ascii 1.0
comment Created in Blender version 4.4.1
element vertex 24
property float x
property float y
property float z
property float nx
property float ny
property float nz
property float s
property float t
element face 12
property list uchar uint vertex_indices
end_header
11.059593 3.97208 -3 -0.95631325 0.29234427 0 0.3663555 0.82860506
10.185827 1.113829 -3.145996 -0.95631325 0.29234427 0 0.36836025 0.86876523
10.185827 1.113829 -3 -0.95631313 0.29234427 0 0.3663555 0.86876523
10.40748 1.0621631 -3.145996 -0.22700807 -0.97389287 -0 0.15759766 0.98507774
10.185827 1.113829 -3 -0.22700766 -0.973893 -0 0.15559292 0.9819886
10.185827 1.113829 -3.145996 -0.22700705 -0.9738931 -0 0.15759766 0.9819886
11.059593 3.97208 -3.145996 0 -6.4541246e-07 -1 0.7336063 0.80981165
10.40748 1.0621631 -3.145996 0 4.6976336e-07 -1 0.7367243 0.8506413
10.185827 1.113829 -3.145996 0 5.2694537e-07 -1 0.7336063 0.8508526
11.281244 3.9204142 -3 0.22701076 0.9738923 0 0.35029933 0.9865344
11.059593 3.97208 -3.145996 0.22700982 0.97389257 0 0.34829462 0.9834453
11.059593 3.97208 -3 0.2270086 0.97389287 0 0.35029933 0.9834453
10.40748 1.0621631 -3 0.95631343 -0.2923433 0 0.8735232 0.6445901
11.281244 3.9204142 -3.145996 0.95631313 -0.2923443 0 0.8715185 0.6044299
11.281244 3.9204142 -3 0.95631313 -0.29234433 0 0.8735232 0.6044299
10.40748 1.0621631 -3 0 0 1 0.53050315 0.8521173
11.059593 3.97208 -3 0 0 1 0.53362113 0.81128764
10.185827 1.113829 -3 0 0 1 0.5336212 0.8523286
11.059593 3.97208 -3.145996 -0.95631313 0.29234427 0 0.36836025 0.82860506
10.40748 1.0621631 -3 -0.22700869 -0.97389275 -0 0.15559292 0.98507774
11.281244 3.9204142 -3.145996 0 -7.0259455e-07 -1 0.7367243 0.8096003
11.281244 3.9204142 -3.145996 0.227012 0.97389203 0 0.34829462 0.9865344
10.40748 1.0621631 -3.145996 0.95631343 -0.29234323 0 0.8715185 0.6445901
11.281244 3.9204142 -3 0 0 1 0.53050315 0.81107634
3 0 1 2
3 3 4 5
3 6 7 8
3 9 10 11
3 12 13 14
3 15 16 17
3 0 18 1
3 3 19 4
3 6 20 7
3 9 21 10
3 12 22 13
3 15 23 16
