ply
format ascii 1.0
comment Created in Blender version 4.4.1
element vertex 24
property float x
property float y
property float z
property float nx
property float ny
property float nz
property float s
property float t
element face 12
property list uchar uint vertex_indices
end_header
11.423193 3.9859297 -3 -0.99683493 -0.07949899 -0 0.87694615 0.33193
11.658583 1.0343947 -3.145996 -0.996835 -0.079499274 -0 0.8789509 0.37201032
11.658583 1.0343947 -3 -0.996835 -0.07949929 -0 0.87694615 0.37201032
11.88575 1.0483134 -3.145996 0.061155956 -0.99812824 0 0.25530794 0.98254794
11.658583 1.0343947 -3 0.061155897 -0.99812824 0 0.25330317 0.9794525
11.658583 1.0343947 -3.145996 0.06115582 -0.99812824 0 0.25530794 0.9794525
11.65036 3.9998486 -3.145996 0 0 -1 0.51014596 0.81813365
11.658583 1.0343947 -3.145996 0 0 -1 0.50702125 0.8587338
11.423193 3.9859297 -3.145996 0 0 -1 0.50702125 0.8180762
11.65036 3.9998486 -3 -0.06115728 0.9981282 0 0.28407562 0.98254794
11.423193 3.9859297 -3.145996 -0.061156373 0.9981283 0 0.28207085 0.9794525
11.423193 3.9859297 -3 -0.061155144 0.9981283 0 0.28407562 0.9794525
11.88575 1.0483134 -3 0.99683493 0.079499006 0 0.026981317 0.8889435
11.65036 3.9998486 -3.145996 0.99683493 0.07949925 0 0.024976583 0.8488632
11.65036 3.9998486 -3 0.996835 0.07949927 0 0.026981317 0.8488632
11.658583 1.0343947 -3 0 0 1 0.082017265 0.86755055
11.65036 3.9998486 -3 0 0 1 0.07889263 0.82695043
11.423193 3.9859297 -3 0 0 1 0.082017265 0.8268929
11.423193 3.9859297 -3.145996 -0.996835 -0.07949899 -0 0.8789509 0.33193
11.88575 1.0483134 -3 0.06115604 -0.99812824 0 0.25330317 0.98254794
11.88575 1.0483134 -3.145996 0 0 -1 0.51014596 0.8587913
11.65036 3.9998486 -3.145996 -0.061158497 0.99812806 0 0.28207085 0.98254794
11.88575 1.0483134 -3.145996 0.996835 0.079499 0 0.024976583 0.8889435
11.88575 1.0483134 -3 0 0 1 0.07889263 0.867608
3 0 1 2
3 3 4 5
3 6 7 8
3 9 10 11
3 12 13 14
3 15 16 17
3 0 18 1
3 3 19 4
3 6 20 7
3 9 21 10
3 12 22 13
3 15 23 16
