ply
format ascii 1.0
comment Created in Blender version 4.4.1
element vertex 24
property float x
property float y
property float z
property float nx
property float ny
property float nz
property float s
property float t
element face 12
property list uchar uint vertex_indices
end_header
-1.9000013 3.9859297 -5.040598 -0.5763913 0.5357537 -0.6170423 0.88987976 0.007657244
-1.7540052 1.0343949 -4.805208 0.5783259 -0.6160002 -0.53486717 0.8918845 0.047737528
-1.9000013 1.0343949 -4.805208 -0.57832766 -0.61600536 -0.5348594 0.88987976 0.047737528
-1.7540052 1.0483135 -4.578041 0.5763929 -0.53576064 0.6170347 0.9811112 0.47283897
-1.9000013 1.0343949 -4.805208 -0.57832766 -0.61600536 -0.5348594 0.9791064 0.46974352
-1.7540052 1.0343949 -4.805208 0.5783259 -0.6160002 -0.53486717 0.9811112 0.46974352
-1.7540052 3.9998486 -4.813431 0.5783256 0.61600024 0.5348676 0.8745652 0.13177578
-1.7540052 1.0343949 -4.805208 0.5783259 -0.6160002 -0.53486717 0.87144053 0.1723759
-1.7540052 3.9859297 -5.040598 0.5763931 0.53576034 -0.6170348 0.87144053 0.13171831
-1.9000013 3.9998486 -4.813431 -0.5783276 0.6160056 0.5348592 0.9284742 0.98467034
-1.7540052 3.9859297 -5.040598 0.5763931 0.53576034 -0.6170348 0.9264695 0.98157483
-1.9000013 3.9859297 -5.040598 -0.5763913 0.5357537 -0.6170423 0.9284742 0.98157483
-1.9000013 1.0483135 -4.578041 -0.57639104 -0.5357539 0.61704224 0.0465253 0.8848241
-1.7540052 3.9998486 -4.813431 0.5783256 0.61600024 0.5348676 0.04452051 0.8447438
-1.9000013 3.9998486 -4.813431 -0.5783276 0.6160056 0.5348592 0.0465253 0.8447438
-1.9000013 1.0343949 -4.805208 -0.57832766 -0.61600536 -0.5348594 0.8616315 0.4442013
-1.9000013 3.9998486 -4.813431 -0.5783276 0.6160056 0.5348592 0.85850686 0.40360114
-1.9000013 3.9859297 -5.040598 -0.5763913 0.5357537 -0.6170423 0.8616315 0.40354368
-1.7540052 3.9859297 -5.040598 0.5763931 0.53576034 -0.6170348 0.8918845 0.007657244
-1.9000013 1.0483135 -4.578041 -0.57639104 -0.5357539 0.61704224 0.9791064 0.47283897
-1.7540052 1.0483135 -4.578041 0.5763929 -0.53576064 0.6170347 0.8745652 0.17243338
-1.7540052 3.9998486 -4.813431 0.5783256 0.61600024 0.5348676 0.9264695 0.98467034
-1.7540052 1.0483135 -4.578041 0.5763929 -0.53576064 0.6170347 0.04452051 0.8848241
-1.9000013 1.0483135 -4.578041 -0.57639104 -0.5357539 0.61704224 0.8585068 0.44425875
3 0 1 2
3 3 4 5
3 6 7 8
3 9 10 11
3 12 13 14
3 15 16 17
3 0 18 1
3 3 19 4
3 6 20 7
3 9 21 10
3 12 22 13
3 15 23 16
