ply
format ascii 1.0
comment Created in Blender version 4.4.1
element vertex 24
property float x
property float y
property float z
property float nx
property float ny
property float nz
property float s
property float t
element face 12
property list uchar uint vertex_indices
end_header
-7.998581 1.7128398 -13.8 0.9745754 -0.22405979 0 0.94079584 0.644959
-8.049576 1.4910324 -13.654004 0.9745753 -0.22406079 0 0.9428006 0.64805496
-8.049576 1.4910324 -13.8 0.9745749 -0.224062 0 0.94079584 0.64805496
-7.998581 1.7128398 -13.654004 0 -1.8415416e-07 1 0.8899577 0.58306634
-10.625603 2.0832741 -13.654004 0 -3.1845575e-06 1 0.8930829 0.54677093
-8.049576 1.4910324 -13.654004 0 0 1 0.8930829 0.58306634
-10.574608 2.3050814 -13.654004 -0.9745752 0.22406091 0 0.9430472 0.8898877
-10.625603 2.0832741 -13.8 -0.97457534 0.22406006 0 0.94505197 0.8929837
-10.625603 2.0832741 -13.654004 -0.9745756 0.22405899 0 0.9430472 0.8929837
-10.574608 2.3050814 -13.8 0 2.8164698e-07 -1 0.89309394 0.80548096
-8.049576 1.4910324 -13.8 0 4.870496e-06 -1 0.88996875 0.84177643
-10.625603 2.0832741 -13.8 0 0 -1 0.88996875 0.80548096
-10.625603 2.0832741 -13.654004 -0.22405927 -0.9745755 -0 0.90831953 0.21425939
-8.049576 1.4910324 -13.8 -0.22405921 -0.97457564 -0 0.9103243 0.2501521
-8.049576 1.4910324 -13.654004 -0.22405921 -0.9745755 -0 0.90831953 0.2501521
-7.998581 1.7128398 -13.654004 0.22405921 0.9745756 0 0.91032434 0.3017621
-10.574608 2.3050814 -13.8 0.22405912 0.9745756 0 0.9083196 0.26586938
-10.574608 2.3050814 -13.654004 0.22405912 0.97457564 0 0.91032434 0.26586938
-7.998581 1.7128398 -13.654004 0.9745757 -0.22405857 0 0.9428006 0.644959
-10.574608 2.3050814 -13.654004 0 -3.3687115e-06 1 0.8899577 0.54677093
-10.574608 2.3050814 -13.8 -0.9745749 0.224062 0 0.94505197 0.8898877
-7.998581 1.7128398 -13.8 0 5.152143e-06 -1 0.89309394 0.84177643
-10.625603 2.0832741 -13.8 -0.22405927 -0.9745755 -0 0.9103243 0.21425939
-7.998581 1.7128398 -13.8 0.22405921 0.9745755 0 0.9083196 0.3017621
3 0 1 2
3 3 4 5
3 6 7 8
3 9 10 11
3 12 13 14
3 15 16 17
3 0 18 1
3 3 19 4
3 6 20 7
3 9 21 10
3 12 22 13
3 15 23 16
