ply
format ascii 1.0
comment Created in Blender version 4.4.1
element vertex 24
property float x
property float y
property float z
property float nx
property float ny
property float nz
property float s
property float t
element face 12
property list uchar uint vertex_indices
end_header
-9.07708 3.9859297 -14 -0.61704177 0.53575414 0.5763913 0.88959694 0.73798674
-8.84169 1.0343947 -14.145996 -0.5348677 -0.616 -0.5783257 0.8916016 0.778067
-8.84169 1.0343947 -14 -0.53485924 -0.6160055 0.57832766 0.88959694 0.778067
-8.614523 1.0483134 -14.145996 0.6170344 -0.535761 -0.5763928 0.94653505 0.9846703
-8.84169 1.0343947 -14 -0.53485924 -0.6160055 0.57832766 0.9445303 0.98157483
-8.84169 1.0343947 -14.145996 -0.5348677 -0.616 -0.5783257 0.94653505 0.98157483
-8.849913 3.9998486 -14.145996 0.5348668 0.61600053 -0.5783259 0.87456506 0.27034643
-8.84169 1.0343947 -14.145996 -0.5348677 -0.616 -0.5783257 0.8714405 0.31094658
-9.07708 3.9859297 -14.145996 -0.61703444 0.53576076 -0.57639307 0.8714405 0.27028897
-8.849913 3.9998486 -14 0.5348589 0.6160057 0.5783277 0.98488736 0.91139376
-9.07708 3.9859297 -14.145996 -0.61703444 0.53576076 -0.57639307 0.9828826 0.9082983
-9.07708 3.9859297 -14 -0.61704177 0.53575414 0.5763913 0.98488736 0.9082983
-8.614523 1.0483134 -14 0.6170423 -0.53575414 0.57639086 0.8789508 0.5002884
-8.849913 3.9998486 -14.145996 0.5348668 0.61600053 -0.5783259 0.87694603 0.46020812
-8.849913 3.9998486 -14 0.5348589 0.6160057 0.5783277 0.8789508 0.46020812
-8.84169 1.0343947 -14 -0.53485924 -0.6160055 0.57832766 0.588189 0.87002856
-8.849913 3.9998486 -14 0.5348589 0.6160057 0.5783277 0.58506435 0.82942843
-9.07708 3.9859297 -14 -0.61704177 0.53575414 0.5763913 0.588189 0.8293709
-9.07708 3.9859297 -14.145996 -0.61703444 0.53576076 -0.57639307 0.8916016 0.73798674
-8.614523 1.0483134 -14 0.6170423 -0.53575414 0.57639086 0.9445303 0.9846703
-8.614523 1.0483134 -14.145996 0.6170344 -0.535761 -0.5763928 0.87456506 0.31100404
-8.849913 3.9998486 -14.145996 0.5348668 0.61600053 -0.5783259 0.9828826 0.91139376
-8.614523 1.0483134 -14.145996 0.6170344 -0.535761 -0.5763928 0.87694603 0.5002884
-8.614523 1.0483134 -14 0.6170423 -0.53575414 0.57639086 0.58506435 0.870086
3 0 1 2
3 3 4 5
3 6 7 8
3 9 10 11
3 12 13 14
3 15 16 17
3 0 18 1
3 3 19 4
3 6 20 7
3 9 21 10
3 12 22 13
3 15 23 16
