ply
format ascii 1.0
comment Created in Blender version 4.4.1
element vertex 24
property float x
property float y
property float z
property float nx
property float ny
property float nz
property float s
property float t
element face 12
property list uchar uint vertex_indices
end_header
-10.6189785 2.4006665 -13.654004 0.08620437 -0.9962776 0 0.6046235 0.88540053
-7.985586 2.6285264 -13.8 0.08620437 -0.9962776 0 0.60662824 0.9212138
-7.985586 2.6285264 -13.654004 0.08620437 -0.9962776 0 0.6046235 0.9212138
-8.005207 2.855273 -13.8 0.996277 0.08621085 0 0.23598388 0.987234
-7.985586 2.6285264 -13.654004 0.996277 0.08621085 0 0.2379886 0.99031126
-7.985586 2.6285264 -13.8 0.9962769 0.08621083 0 0.23598388 0.99031126
-10.6385975 2.6274133 -13.8 0 -2.112349e-07 -1 0.23585086 0.89086133
-7.985586 2.6285264 -13.8 0 -3.6528713e-06 -1 0.23897606 0.8545658
-10.6189785 2.4006665 -13.8 0 0 -1 0.23897606 0.89086133
-10.6385975 2.6274133 -13.654004 -0.99627775 -0.08620119 -0 0.99033785 0.17373027
-10.6189785 2.4006665 -13.8 -0.9962778 -0.08620075 -0 0.9923426 0.17680748
-10.6189785 2.4006665 -13.654004 -0.99627787 -0.08620016 -0 0.99033785 0.17680748
-8.005207 2.855273 -13.654004 -0.08620429 0.9962776 0 0.5870691 0.92121387
-10.6385975 2.6274133 -13.8 -0.086206 0.99627733 0 0.58506435 0.8854006
-10.6385975 2.6274133 -13.654004 -0.08620606 0.99627733 0 0.5870691 0.8854006
-8.005207 2.855273 -13.654004 0 3.1414146e-07 1 0.89309394 0.85709095
-10.6189785 2.4006665 -13.654004 0 5.432478e-06 1 0.88996875 0.8933864
-7.985586 2.6285264 -13.654004 0 0 1 0.88996875 0.85709095
-10.6189785 2.4006665 -13.8 0.08620437 -0.9962776 0 0.60662824 0.88540053
-8.005207 2.855273 -13.654004 0.9962769 0.08621083 0 0.2379886 0.987234
-8.005207 2.855273 -13.8 0 -3.8641074e-06 -1 0.23585086 0.85456586
-10.6385975 2.6274133 -13.8 -0.9962778 -0.08620178 -0 0.9923426 0.17373027
-8.005207 2.855273 -13.8 -0.08620421 0.9962776 0 0.58506435 0.92121387
-10.6385975 2.6274133 -13.654004 0 5.746621e-06 1 0.89309394 0.8933864
3 0 1 2
3 3 4 5
3 6 7 8
3 9 10 11
3 12 13 14
3 15 16 17
3 0 18 1
3 3 19 4
3 6 20 7
3 9 21 10
3 12 22 13
3 15 23 16
