ply
format ascii 1.0
comment Created in Blender version 4.4.1
element vertex 24
property float x
property float y
property float z
property float nx
property float ny
property float nz
property float s
property float t
element face 12
property list uchar uint vertex_indices
end_header
-12 1.3069533 -3.245935 1.4412923e-08 -1 0 0.15833919 0.96667403
-11.8 1.3069533 -1.9763776 1.3051313e-07 -1 0 0.15559289 0.94924116
-12 1.3069533 -1.9763775 1.4492605e-07 -1 0 0.15833919 0.94924116
-11.8 2.28668 -3.245935 1 0 0 0.6743604 0.31503427
-11.8 1.3069533 -1.9763776 1 0 0 0.68781346 0.29760137
-11.8 1.3069533 -3.245935 1 0 0 0.68781346 0.31503427
-12 2.28668 -3.245935 0 0 -1 0.9596092 0.7079942
-11.8 1.3069533 -3.245935 0 0 -1 0.9623555 0.7214473
-12 1.3069533 -3.245935 0 0 -1 0.9596092 0.7214473
-12 2.28668 -1.9763775 -1 0 0 0.7031281 0.31503427
-12 1.3069533 -3.245935 -1 0 0 0.71658117 0.29760137
-12 1.3069533 -1.9763775 -1 0 0 0.71658117 0.31503427
-11.8 1.3069533 -1.9763776 5.1964946e-07 4.9483894e-08 1 0.13020082 0.9626942
-12 2.28668 -1.9763775 7.639744e-08 -4.948391e-08 1 0.13294712 0.94924116
-12 1.3069533 -1.9763775 5.9604685e-07 6.654165e-08 1 0.13294712 0.9626942
-12 2.28668 -3.245935 0 1 0 0.8097846 0.9352101
-11.8 2.28668 -1.9763775 0 1 0 0.8125309 0.9177772
-11.8 2.28668 -3.245935 0 1 0 0.8125309 0.9352101
-11.8 1.3069533 -3.245935 0 -1 0 0.15559289 0.96667403
-11.8 2.28668 -1.9763775 1 0 0 0.6743604 0.29760137
-11.8 2.28668 -3.245935 0 0 -1 0.9623555 0.7079942
-12 2.28668 -3.245935 -1 0 0 0.7031281 0.29760137
-11.8 2.28668 -1.9763775 0 -6.654167e-08 1 0.13020082 0.94924116
-12 2.28668 -1.9763775 0 1 0 0.8097846 0.9177772
3 0 1 2
3 3 4 5
3 6 7 8
3 9 10 11
3 12 13 14
3 15 16 17
3 0 18 1
3 3 19 4
3 6 20 7
3 9 21 10
3 12 22 13
3 15 23 16
