ply
format ascii 1.0
comment Created in Blender version 4.4.1
element vertex 24
property float x
property float y
property float z
property float nx
property float ny
property float nz
property float s
property float t
element face 12
property list uchar uint vertex_indices
end_header
-12 3.2664065 -1.9763776 -0.5773661 0.5773403 0.57734436 0.25330317 0.9641379
-12 2.28668 -3.245935 -0.577366 -0.5773403 -0.5773446 0.26675627 0.946705
-12 2.28668 -1.9763775 -0.577355 -0.5773551 0.5773407 0.26675627 0.9641379
-12 3.2664065 -3.245935 -0.577355 0.577355 -0.5773407 0.11213997 0.94924116
-11.8 2.28668 -3.245935 0.577355 -0.577355 -0.5773407 0.11488622 0.9626942
-12 2.28668 -3.245935 -0.577366 -0.5773403 -0.5773446 0.11213997 0.9626942
-12 3.2664065 -1.9763776 -0.5773661 0.5773403 0.57734436 0.95919275 0.9488273
-11.8 3.2664065 -3.245935 0.577366 0.57734025 -0.57734454 0.96193904 0.9662602
-12 3.2664065 -3.245935 -0.577355 0.577355 -0.5773407 0.95919275 0.9662602
-11.8 3.2664065 -3.245935 0.577366 0.57734025 -0.57734454 0.7606635 0.3150342
-11.8 2.28668 -1.9763775 0.577366 -0.57734025 0.57734454 0.7741166 0.2976013
-11.8 2.28668 -3.245935 0.577355 -0.577355 -0.5773407 0.7741166 0.3150342
-12 2.28668 -1.9763775 -0.577355 -0.5773551 0.5773407 0.94429463 0.7214473
-11.8 3.2664065 -1.9763775 0.5773549 0.5773551 0.5773409 0.9415483 0.7079942
-12 3.2664065 -1.9763776 -0.5773661 0.5773403 0.57734436 0.94429463 0.7079942
-11.8 2.28668 -1.9763775 0.577366 -0.57734025 0.57734454 0.88301647 0.94923013
-12 2.28668 -3.245935 -0.577366 -0.5773403 -0.5773446 0.88576275 0.966663
-11.8 2.28668 -3.245935 0.577355 -0.577355 -0.5773407 0.88301647 0.966663
-12 3.2664065 -3.245935 -0.577355 0.577355 -0.5773407 0.25330317 0.946705
-11.8 3.2664065 -3.245935 0.577366 0.57734025 -0.57734454 0.11488622 0.94924116
-11.8 3.2664065 -1.9763775 0.5773549 0.5773551 0.5773409 0.96193904 0.9488273
-11.8 3.2664065 -1.9763775 0.5773549 0.5773551 0.5773409 0.7606635 0.2976013
-11.8 2.28668 -1.9763775 0.577366 -0.57734025 0.57734454 0.9415483 0.7214473
-12 2.28668 -1.9763775 -0.577355 -0.5773551 0.5773407 0.88576275 0.94923013
3 0 1 2
3 3 4 5
3 6 7 8
3 9 10 11
3 12 13 14
3 15 16 17
3 0 18 1
3 3 19 4
3 6 20 7
3 9 21 10
3 12 22 13
3 15 23 16
