ply
format ascii 1.0
comment Created in Blender version 4.4.1
element vertex 496
property float x
property float y
property float z
property float nx
property float ny
property float nz
property float s
property float t
element face 252
property list uchar uint vertex_indices
end_header
18.1 -0.09999998 -2.9999995 0 -1 0 0.80864537 0.7534256
-1.9000001 -0.09999998 8.5 0 -1 0 0.61037946 0.40861523
-1.9000001 -0.09999998 -2.9999995 0 -1 0 0.8086454 0.40861523
18.1 -0.3 -2.9999995 -1 0 0 0.860397 0.62068367
18.1 -0.09999998 8.5 -1 0 0 0.85694885 0.81894964
18.1 -0.09999998 -2.9999995 -1 0 0 0.8569489 0.62068367
18.1 -0.3 8.5 0 0 -1 0.8104193 0.006901203
-1.9000001 -0.09999998 8.5 0 0 -1 0.8069712 0.3517116
18.1 -0.09999998 8.5 0 0 -1 0.80697125 0.006901203
-1.9000001 -0.3 -2.9999995 0 1 0 0.596577 0.75342566
18.1 -0.3 8.5 0 1 0 0.39831108 0.40861523
18.1 -0.3 -2.9999995 0 1 0 0.596577 0.40861526
18.1 -0.3 -2.9999995 0 0 1 0.8258959 0.7534256
-1.9000001 -0.09999998 -2.9999995 0 0 1 0.82244784 0.40861523
-1.9000001 -0.3 -2.9999995 0 0 1 0.8258959 0.40861523
-1.9000001 -0.3 8.5 1 0 0 0.8776475 0.62068367
-1.9000001 -0.09999998 -2.9999995 1 0 0 0.8741994 0.81894964
-1.9000001 -0.09999998 8.5 1 0 0 0.87419945 0.62068367
18.1 -0.09999998 8.5 0 -1 0 0.6103794 0.7534256
18.1 -0.3 8.5 -1 0 0 0.860397 0.81894964
-1.9000001 -0.3 8.5 0 0 -1 0.8104193 0.3517116
-1.9000001 -0.3 8.5 0 1 0 0.39831105 0.7534256
18.1 -0.09999998 -2.9999995 0 0 1 0.82244784 0.7534256
-1.9000001 -0.3 -2.9999995 1 0 0 0.8776475 0.81894964
17.900002 4 -3 0 -1 0 0.82766986 0.3482635
-1.9000002 4 -2.8000002 0 -1 0 0.8242218 0.006901203
-1.900001 4 -3 0 -1 0 0.82766986 0.006901203
17.900002 -0.1000001 -3 -1 0 0 0.19657701 0.83791417
17.900002 4 -2.8000002 -1 0 0 0.19312888 0.767228
17.900002 4 -3 -1 0 0 0.19657701 0.767228
-1.9000002 -0.1000001 -3 0 8.176695e-08 1 0.16207588 0.53274703
17.900002 4 -3 0 1.22142465e-08 1 0.09138976 0.8741093
-1.900001 4 -3 0 9.39812e-08 1 0.09138976 0.53274703
17.900002 -0.1000001 -2.8000002 0 1.6947265e-08 -1 0.07758733 0.53274703
-1.9000002 4 -2.8000002 0 1.13451634e-07 -1 0.0069011543 0.8741093
17.900002 4 -2.8000002 0 0 -1 0.0069011543 0.53274703
-1.9000002 -0.1000001 -3 0 1 0 0.84314644 0.7499775
17.900002 -0.1000001 -2.8000002 0 1 0 0.8396984 0.40861526
17.900002 -0.1000001 -3 0 1 0 0.84314644 0.40861526
17.900002 4 -2.8000002 0 -1 0 0.82422173 0.3482635
17.900002 -0.1000001 -2.8000002 -1 0 0 0.19312888 0.83791417
17.900002 -0.1000001 -3 0 0 1 0.16207588 0.8741093
-1.900001 -0.1000001 -2.8000002 0 1.303989e-07 -1 0.07758728 0.8741093
-1.900001 -0.1000001 -2.8000002 0 1 0 0.8396983 0.7499775
17.900002 -0.09999998 8.5 0 1 0 0.8914499 0.62068367
18.1 -0.09999998 -2.9999995 0 1 0 0.894898 0.8189496
17.900002 -0.09999998 -2.9999995 0 1 0 0.8914499 0.8189496
18.1 -0.09999998 -2.9999995 -1 0 0 0.91215837 0.0069012516
18.1 4 8.5 -1 0 0 0.8414722 0.20516717
18.1 4 -2.9999995 -1 0 0 0.8414722 0.006901203
18.1 -0.09999998 8.5 0 0 -1 0.30513227 0.9586078
17.900002 4 8.5 0 0 -1 0.30168417 0.88792163
18.1 4 8.5 0 0 -1 0.30513227 0.88792163
17.900002 4 -2.9999995 0 -1 0 0.17932639 0.731013
18.1 4 8.5 0 -1 0 0.17587826 0.53274703
17.900002 4 8.5 0 -1 0 0.17932639 0.53274703
17.900002 -0.09999998 -2.9999995 0 0 1 0.23976827 0.9586078
18.1 4 -2.9999995 0 0 1 0.2363202 0.88792163
17.900002 4 -2.9999995 0 0 1 0.23976827 0.88792163
17.900002 -0.09999998 8.5 1 0 0 0.92763495 0.40861526
17.900002 4 -2.9999995 1 0 0 0.8569488 0.60688126
17.900002 4 8.5 1 0 0 0.8569488 0.40861526
18.1 -0.09999998 8.5 0 1 0 0.894898 0.62068367
18.1 -0.09999998 8.5 -1 0 0 0.91215837 0.20516717
17.900002 -0.09999998 8.5 0 0 -1 0.30168417 0.9586078
18.1 4 -2.9999995 0 -1 0 0.17587826 0.731013
18.1 -0.09999998 -2.9999995 0 0 1 0.2363202 0.9586078
17.900002 -0.09999998 -2.9999995 1 0 0 0.92763495 0.60688126
-12 -0.09999998 8.5 0 1 0 0.7724703 0.006901203
-11.8 -0.09999998 -14 0 1 0 0.77591836 0.39481285
-12 -0.09999998 -14 0 1 0 0.7724703 0.39481285
-11.8 -0.09999998 -14 -1 0 0 0.65692884 0.0069011785
-11.8 4 8.5 -1 0 0 0.5862427 0.39481285
-11.8 4 -14 -1 0 0 0.5862427 0.0069011785
-11.8 -0.09999998 8.5 0 0 -1 0.736527 0.9224027
-12 4 8.5 0 0 -1 0.7330789 0.8517166
-11.8 4 8.5 0 0 -1 0.736527 0.8517166
-12 4 -14 0 -1 0 0.7931688 0.39481285
-11.8 4 8.5 0 -1 0 0.78972065 0.0069011785
-12 4 8.5 0 -1 0 0.7931688 0.0069011785
-12 -0.09999998 -14 0 0 1 0.9538075 0.07758733
-11.8 4 -14 0 0 1 0.95035934 0.006901203
-12 4 -14 0 0 1 0.9538075 0.006901203
-12 -0.09999998 8.5 1 0 0 0.74141735 0.0069011785
-12 4 -14 1 0 0 0.6707312 0.39481285
-12 4 8.5 1 0 0 0.67073125 0.0069011785
-11.8 -0.09999998 8.5 0 1 0 0.77591836 0.006901203
-11.8 -0.09999998 8.5 -1 0 0 0.6569288 0.39481285
-12 -0.09999998 8.5 0 0 -1 0.7330789 0.9224027
-11.8 4 -14 0 -1 0 0.78972065 0.39481285
-11.8 -0.09999998 -14 0 0 1 0.95035934 0.07758733
-12 -0.09999998 -14 1 0 0 0.7414173 0.39481285
-2.1000001 -0.09999998 -13.8 0 -1 0 0.19657701 0.75342566
-1.9000003 -0.09999998 -1 0 -1 0 0.19312888 0.53274703
-2.1000001 -0.09999998 -1 0 -1 0 0.19657701 0.53274703
-1.9000003 -0.09999998 8.3 0 -1 0 0.17587826 0.7448154
-2.1000001 -0.09999998 1 0 -1 0 0.17932634 0.8706712
-1.9000003 -0.09999998 1 0 -1 0 0.17587826 0.8706712
-1.9000003 4 -13.8 1 0 0 0.21037942 0.7896307
-1.9000003 4 8.3 1 0 0 0.21037944 0.40861526
-1.9000003 3.6999998 -1 1 0 0 0.21555157 0.5689521
-2.1000001 4 8.3 0 0 1 0.9606038 0.62068367
-1.9000003 -0.09999998 8.3 0 0 1 0.9571557 0.6913698
-1.9000003 4 8.3 0 0 1 0.9571557 0.62068367
-1.9000003 4 8.3 0 1 0 0.3828045 0.40861526
-2.1000001 4 -13.8 0 1 0 0.37935644 0.7896307
-2.1000001 4 8.3 0 1 0 0.37935644 0.40861526
-1.9000003 4 -13.8 0 0 -1 0.694878 0.85171664
-2.1000001 -0.09999998 -13.8 0 0 -1 0.69142985 0.9224028
-2.1000001 4 -13.8 0 0 -1 0.69142985 0.85171664
-2.1000001 4 8.3 -1 0 0 0.29486793 0.7896308
-2.1000001 4 -13.8 -1 0 0 0.29486793 0.4086153
-2.1000001 3.6999998 1 -1 0 0 0.3000401 0.66377497
-1.9000003 3.6999998 1 0 0 -1 0.9689423 0.4931038
-2.1000001 -0.09999998 1 0 0 -1 0.96549416 0.5586178
-2.1000001 3.6999998 1 0 0 -1 0.96549416 0.4931038
-1.9000003 3.6999998 -1 0 -1 0 0.9485954 0.9517215
-2.1000001 3.6999998 1 0 -1 0 0.95204353 0.91724044
-2.1000001 3.6999998 -1 0 -1 0 0.95204353 0.9517215
-1.9000003 3.6999998 -1 0 0 1 0.9676099 0.0069011543
-2.1000001 -0.09999998 -1 0 0 1 0.971058 0.07241514
-1.9000003 -0.09999998 -1 0 0 1 0.9676099 0.07241514
-1.9000003 -0.09999998 -13.8 0 -1 0 0.19312888 0.75342566
-2.1000001 -0.09999998 8.3 0 -1 0 0.17932634 0.7448154
-1.9000003 -0.09999998 -1 1 0 0 0.28106555 0.5689521
-1.9000003 -0.09999998 -13.8 1 0 0 0.28106555 0.7896308
-1.9000003 -0.09999998 8.3 1 0 0 0.28106555 0.40861526
-1.9000003 -0.09999998 1 1 0 0 0.28106555 0.53447104
-1.9000003 3.6999998 1 1 0 0 0.21555157 0.53447104
-2.1000001 -0.09999998 8.3 0 0 1 0.9606038 0.6913698
-1.9000003 4 -13.8 0 1 0 0.3828045 0.7896307
-1.9000003 -0.09999998 -13.8 0 0 -1 0.694878 0.9224028
-2.1000001 -0.09999998 1 -1 0 0 0.36555406 0.66377497
-2.1000001 -0.09999998 8.3 -1 0 0 0.36555406 0.7896308
-2.1000001 -0.09999998 -13.8 -1 0 0 0.36555406 0.4086153
-2.1000001 -0.09999998 -1 -1 0 0 0.36555406 0.6292939
-2.1000001 3.6999998 -1 -1 0 0 0.3000401 0.6292939
-1.9000003 -0.09999998 1 0 0 -1 0.9689423 0.5586178
-1.9000003 3.6999998 1 0 -1 0 0.9485954 0.91724044
-2.1000001 3.6999998 -1 0 0 1 0.971058 0.0069011543
-11.8 -0.1000001 8.3 0 1 0 0.19657697 0.5189446
17.900002 -0.1000001 8.5 0 1 0 0.19312894 0.0069011967
17.900002 -0.1000001 8.3 0 1 0 0.19657701 0.0069011967
17.900002 -0.1000001 8.5 0 0 -1 0.07758733 0.0069012186
-11.8 4 8.5 0 0 -1 0.0069011543 0.5189446
17.900002 4 8.5 0 0 -1 0.006901203 0.006901213
-11.8 -0.1000001 8.5 1 0 0 0.9606037 0.7758583
-11.8 4 8.3 1 0 0 0.95715564 0.7051722
-11.8 4 8.5 1 0 0 0.9606037 0.7051722
17.900002 4 8.3 0 -1 0 0.17932647 0.5189446
-11.8 4 8.5 0 -1 0 0.1758784 0.0069012125
-11.8 4 8.3 0 -1 0 0.17932653 0.006901213
17.900002 -0.1000001 8.3 -1 0 0 0.9538075 0.16207586
17.900002 4 8.5 -1 0 0 0.95035934 0.09138973
17.900002 4 8.3 -1 0 0 0.9538075 0.09138973
-11.8 -0.1000001 8.3 0 0 1 0.1620759 0.006901191
17.900002 4 8.3 0 0 1 0.09138973 0.5189446
-11.8 4 8.3 0 0 1 0.09138978 0.0069011855
-11.8 -0.1000001 8.5 0 1 0 0.19312888 0.5189446
-11.8 -0.1000001 8.5 0 0 -1 0.07758728 0.5189446
-11.8 -0.1000001 8.3 1 0 0 0.95715564 0.7758583
17.900002 4 8.5 0 -1 0 0.17587836 0.5189446
17.900002 -0.1000001 8.5 -1 0 0 0.95035934 0.16207586
17.900002 -0.1000001 8.3 0 0 1 0.16207586 0.5189446
-11.8 -0.1000001 -14 0 1 0 0.8794214 0.38965073
-1.900001 -0.1000001 -13.8 0 1 0 0.87597334 0.21896961
-1.9000002 -0.1000001 -14 0 1 0 0.8794215 0.21896958
-1.900001 -0.1000001 -13.8 0 5.6392287e-07 -1 0.46899715 0.7672281
-11.8 4 -13.8 0 1.8792686e-07 -1 0.39831105 0.93790925
-1.9000002 4 -13.8 0 7.5184977e-07 -1 0.39831105 0.7672281
-11.8 -0.1000001 -13.8 1 0 0 0.9576494 0.90343803
-11.8 4 -14 1 0 0 0.9542013 0.83275187
-11.8 4 -13.8 1 0 0 0.9576494 0.83275187
-11.8 -0.1000001 -14 0 1.4388151e-07 1 0.5534857 0.7672281
-1.900001 4 -14 0 4.3175345e-07 1 0.48279956 0.93790925
-11.8 4 -14 0 0 1 0.48279956 0.7672281
-1.900001 4 -14 0 -1 0 0.89667195 0.38965067
-11.8 4 -13.8 0 -1 0 0.8932239 0.21896955
-11.8 4 -14 0 -1 0 0.89667195 0.21896955
-1.9000002 -0.1000001 -14 -1 1.9089974e-07 -3.2725825e-06 0.96237767 0.28965572
-1.9000002 4 -13.8 -1 -1.9090199e-07 3.2725827e-06 0.9589296 0.21896958
-1.900001 4 -14 -1 -2.035296e-07 3.4890559e-06 0.96237767 0.21896958
-11.8 -0.1000001 -13.8 0 1 0 0.87597334 0.38965073
-11.8 -0.1000001 -13.8 0 0 -1 0.46899715 0.93790925
-11.8 -0.1000001 -14 1 0 0 0.9542013 0.90343803
-1.9000002 -0.1000001 -14 0 5.75635e-07 1 0.5534857 0.93790925
-1.9000002 4 -13.8 0 -1 0 0.8932239 0.3896507
-1.900001 -0.1000001 -13.8 -1 2.0352736e-07 -3.4890554e-06 0.9589296 0.28965572
-12 -0.3 -14 0 1 0 0.39831105 0.39481285
-1.9000001 -0.3 8.5 0 1 0 0.57244027 0.0069011906
-1.9000001 -0.3 -14 0 1 0 0.57244027 0.39481285
-1.9000001 -0.3 8.5 0 0 -1 0.8449204 0.21896957
-12 -0.09999998 8.5 0 0 -1 0.84147227 0.3930988
-1.9000001 -0.09999998 8.5 0 0 -1 0.84147227 0.21896957
-1.9000001 -0.09999998 -14 0 -1 0 0.2103794 0.39481285
-12 -0.09999998 8.5 0 -1 0 0.38450864 0.006901203
-12 -0.09999998 -14 0 -1 0 0.38450864 0.39481285
-12 -0.3 8.5 1 0 0 0.7586678 0.006901203
-12 -0.09999998 -14 1 0 0 0.7552197 0.39481285
-12 -0.09999998 8.5 1 0 0 0.7552197 0.006901203
-12 -0.09999998 -14 0 0 1 0.85872287 0.21896958
-1.9000001 -0.3 -14 0 0 1 0.86217093 0.3930988
-1.9000001 -0.09999998 -14 0 0 1 0.8587228 0.3930988
-12 -0.3 8.5 0 1 0 0.39831105 0.0069011906
-12 -0.3 8.5 0 0 -1 0.8449204 0.3930988
-1.9000001 -0.09999998 8.5 0 -1 0 0.2103794 0.006901203
-12 -0.3 -14 1 0 0 0.75866777 0.39481285
-12 -0.3 -14 0 0 1 0.86217093 0.21896958
9.400002 -0.09999998 0.30000037 0 1 0 0.9676099 0.0862176
9.6 -0.09999998 -2.9999995 0 1 0 0.971058 0.14311133
9.400002 -0.09999998 -2.9999995 0 1 0 0.9676099 0.14311133
9.6 -0.09999998 -2.9999995 -1 0 0 0.6241818 0.83791417
9.6 4 0.30000037 -1 0 0 0.5672881 0.76722807
9.6 4 -2.9999995 -1 0 0 0.6241818 0.76722807
9.6 -0.09999998 0.30000037 0 0 -1 0.96237767 0.37414423
9.400002 4 0.30000037 0 0 -1 0.9589296 0.30345812
9.6 4 0.30000037 0 0 -1 0.96237767 0.30345812
9.400002 4 -2.9999995 0 -1 0 0.86754507 0.9741342
9.6 4 0.30000037 0 -1 0 0.864097 0.91724044
9.400002 4 0.30000037 0 -1 0 0.86754507 0.91724044
9.400002 -0.09999998 -2.9999995 0 0 1 0.9689423 0.4793014
9.6 4 -2.9999995 0 0 1 0.9654942 0.4086153
9.400002 4 -2.9999995 0 0 1 0.9689423 0.4086153
9.400002 -0.09999998 0.30000037 1 0 0 0.8362702 0.83791417
9.400002 4 -2.9999995 1 0 0 0.7793765 0.76722807
9.400002 4 0.30000037 1 0 0 0.8362702 0.76722807
9.6 -0.09999998 0.30000037 0 1 0 0.971058 0.0862176
9.6 -0.09999998 0.30000037 -1 0 0 0.5672881 0.83791417
9.400002 -0.09999998 0.30000037 0 0 -1 0.9589296 0.37414423
9.6 4 -2.9999995 0 -1 0 0.864097 0.9741342
9.6 -0.09999998 -2.9999995 0 0 1 0.9654942 0.4793014
9.400002 -0.09999998 -2.9999995 1 0 0 0.7793765 0.83791417
9.400002 -0.09999998 8.3 0 1 0 0.8813474 0.9172405
12.5 -0.09999998 5 0 1 0 0.934793 0.9741342
9.400002 -0.09999998 5 0 1 0 0.8813474 0.9741342
12.5 -0.09999998 5 -1 0 0 0.694878 0.83791417
12.5 4 8.3 -1 0 0 0.6379842 0.76722807
12.5 4 5 -1 0 0 0.694878 0.76722807
12.5 -0.09999998 8.3 0 0 -1 0.26382503 0.8741192
9.400002 4 8.3 0 0 -1 0.21037942 0.8034331
12.5 4 8.3 0 0 -1 0.26382503 0.8034331
9.400002 4 5 0 -1 0 0.62073374 0.99309886
12.5 4 8.3 0 -1 0 0.56728816 0.9362052
9.400002 4 8.3 0 -1 0 0.62073374 0.9362052
9.400002 -0.09999998 5 0 0 1 0.34831354 0.8741192
12.5 4 5 0 0 1 0.29486793 0.8034331
9.400002 4 5 0 0 1 0.34831354 0.8034331
9.400002 -0.09999998 8.3 1 0 0 0.7655741 0.83791417
9.400002 4 5 1 0 0 0.7086804 0.76722807
9.400002 4 8.3 1 0 0 0.7655741 0.76722807
12.5 -0.09999998 8.3 0 1 0 0.934793 0.9172405
12.5 -0.09999998 8.3 -1 0 0 0.6379842 0.83791417
9.400002 -0.09999998 8.3 0 0 -1 0.21037942 0.8741192
12.5 4 5 0 -1 0 0.56728816 0.99309886
12.5 -0.09999998 5 0 0 1 0.29486793 0.8741192
9.400002 -0.09999998 5 1 0 0 0.7086804 0.83791417
1.692696 -0.099999905 -2.4052176 0 1 0 0.9414374 0.60688126
2.3073041 -0.099999905 -2.9999995 0 1 0 0.95169175 0.5962851
1.692696 -0.099999905 -2.9999995 0 1 0 0.95169175 0.60688126
2.3073041 -0.099999905 -2.9999995 -1 0 0 0.041212283 0.95859784
2.3073041 4 -2.4052176 -1 0 0 0.030957934 0.88791174
2.3073041 4 -2.9999995 -1 0 0 0.041212283 0.88791174
2.3073041 -0.099999905 -2.4052176 0 0 -1 0.8919436 0.90343803
1.692696 4 -2.4052176 0 0 -1 0.88134736 0.83275187
2.3073041 4 -2.4052176 0 0 -1 0.8919436 0.83275187
1.692696 4 -2.9999995 0 -1 0 0.9602719 0.17587821
2.3073041 4 -2.4052176 0 -1 0 0.9500176 0.18647437
1.692696 4 -2.4052176 0 -1 0 0.9500176 0.17587821
1.692696 -0.099999905 -2.9999995 0 0 1 0.93655694 0.16207583
2.3073041 4 -2.9999995 0 0 1 0.9259608 0.09138973
1.692696 4 -2.9999995 0 0 1 0.93655694 0.09138973
1.692696 -0.099999905 -2.4052176 1 0 0 0.10164411 0.95859784
1.692696 4 -2.9999995 1 0 0 0.09138976 0.88791174
1.692696 4 -2.4052176 1 0 0 0.10164411 0.88791174
1.692696 -0.099999905 1.5947819 0 1 0 0.90870035 0.80025685
2.3073041 -0.099999905 1 0 1 0 0.91895473 0.78966063
1.692696 -0.099999905 1 0 1 0 0.91895473 0.80025685
2.3073041 -0.099999905 1 -1 0 0 0.12570086 0.95859784
2.3073041 4 1.5947819 -1 0 0 0.115446515 0.88791174
2.3073041 4 1 -1 0 0 0.12570086 0.88791174
2.3073041 -0.099999905 1.5947819 0 0 -1 0.91634214 0.90343803
1.692696 4 1.5947819 0 0 -1 0.9057459 0.83275187
2.3073041 4 1.5947819 0 0 -1 0.91634214 0.83275187
1.692696 4 1 0 -1 0 0.93621516 0.17587832
2.3073041 4 1.5947819 0 -1 0 0.9259608 0.18647446
1.692696 4 1.5947819 0 -1 0 0.9259608 0.17587826
1.692696 -0.099999905 1 0 0 1 0.7655741 0.9224027
2.3073041 4 1 0 0 1 0.75497794 0.8517166
1.692696 4 1 0 0 1 0.7655741 0.8517166
1.692696 -0.099999905 1.5947819 1 0 0 0.1497576 0.95859784
1.692696 4 1 1 0 0 0.13950324 0.88791174
1.692696 4 1.5947819 1 0 0 0.1497576 0.88791174
1.692696 -0.099999905 8.3 0 1 0 0.9327571 0.8002569
2.3073041 -0.099999905 7.7052183 0 1 0 0.94301146 0.7896607
1.692696 -0.099999905 7.7052183 0 1 0 0.94301146 0.8002569
2.3073041 -0.099999905 7.7052183 -1 0 0 0.07758737 0.95859784
2.3073041 4 8.3 -1 0 0 0.06733303 0.88791174
2.3073041 4 7.7052183 -1 0 0 0.07758737 0.88791174
2.3073041 -0.099999905 8.3 0 0 -1 0.92107046 0.28965572
1.692696 4 8.3 0 0 -1 0.9104743 0.21896958
2.3073041 4 8.3 0 0 -1 0.92107046 0.21896958
1.692696 4 7.7052183 0 -1 0 0.4085654 0.95171165
2.3073041 4 8.3 0 -1 0 0.39831105 0.9623078
1.692696 4 8.3 0 -1 0 0.39831105 0.95171165
1.692696 -0.099999905 7.7052183 0 0 1 0.92107046 0.37414423
2.3073041 4 7.7052183 0 0 1 0.9104743 0.30345812
1.692696 4 7.7052183 0 0 1 0.92107046 0.30345812
1.692696 -0.099999905 8.3 1 0 0 0.22063376 0.9586078
1.692696 4 7.7052183 1 0 0 0.21037942 0.88792163
1.692696 4 8.3 1 0 0 0.22063376 0.88792163
2.3073041 -0.099999905 -2.4052176 0 1 0 0.9414374 0.5962851
2.3073041 -0.099999905 -2.4052176 -1 0 0 0.030957934 0.95859784
1.692696 -0.099999905 -2.4052176 0 0 -1 0.88134736 0.90343803
2.3073041 4 -2.9999995 0 -1 0 0.9602719 0.18647437
2.3073041 -0.099999905 -2.9999995 0 0 1 0.9259608 0.16207583
1.692696 -0.099999905 -2.9999995 1 0 0 0.09138976 0.95859784
2.3073041 -0.099999905 1.5947819 0 1 0 0.90870035 0.78966063
2.3073041 -0.099999905 1.5947819 -1 0 0 0.115446515 0.95859784
1.692696 -0.099999905 1.5947819 0 0 -1 0.9057459 0.90343803
2.3073041 4 1 0 -1 0 0.93621516 0.18647446
2.3073041 -0.099999905 1 0 0 1 0.75497794 0.9224027
1.692696 -0.099999905 1 1 0 0 0.13950324 0.95859784
2.3073041 -0.099999905 8.3 0 1 0 0.9327571 0.7896607
2.3073041 -0.099999905 8.3 -1 0 0 0.06733303 0.95859784
1.692696 -0.099999905 8.3 0 0 -1 0.9104743 0.28965572
2.3073041 4 7.7052183 0 -1 0 0.4085654 0.9623078
2.3073041 -0.099999905 7.7052183 0 0 1 0.9104743 0.37414423
1.692696 -0.099999905 7.7052183 1 0 0 0.21037942 0.9586078
5.731609 -0.099999905 -2.4052176 0 1 0 0.42236778 0.9623078
6.346217 -0.099999905 -2.9999995 0 1 0 0.43262213 0.95171165
5.731609 -0.099999905 -2.9999995 0 1 0 0.43262213 0.9623078
6.346217 -0.099999905 -2.9999995 -1 0 0 0.3824627 0.9586077
6.346217 4 -2.4052176 -1 0 0 0.37220836 0.8879216
6.346217 4 -2.9999995 -1 0 0 0.3824627 0.8879216
6.346217 -0.099999905 -2.4052176 0 0 -1 0.9192965 0.7758583
5.731609 4 -2.4052176 0 0 -1 0.90870035 0.7051722
6.346217 4 -2.4052176 0 0 -1 0.9192965 0.7051722
5.731609 4 -2.9999995 0 -1 0 0.4566789 0.95171165
6.346217 4 -2.4052176 0 -1 0 0.44642454 0.9623078
5.731609 4 -2.4052176 0 -1 0 0.44642454 0.95171165
5.731609 -0.099999905 -2.9999995 0 0 1 0.8143712 0.9224027
6.346217 4 -2.9999995 0 0 1 0.8037751 0.8517166
5.731609 4 -2.9999995 0 0 1 0.8143712 0.8517166
5.731609 -0.099999905 -2.4052176 1 0 0 0.35840595 0.9586077
5.731609 4 -2.9999995 1 0 0 0.3481516 0.8879216
5.731609 4 -2.4052176 1 0 0 0.35840595 0.8879216
5.731609 -0.099999905 1.5947819 0 1 0 0.54323137 0.96230775
6.346217 -0.099999905 1 0 1 0 0.5534857 0.9517116
5.731609 -0.099999905 1 0 1 0 0.5534857 0.96230775
6.346217 -0.099999905 1 -1 0 0 0.3343492 0.9586077
6.346217 4 1.5947819 -1 0 0 0.32409483 0.8879216
6.346217 4 1 -1 0 0 0.3343492 0.8879216
6.346217 -0.099999905 1.5947819 0 0 -1 0.8387698 0.92240274
5.731609 4 1.5947819 0 0 -1 0.82817364 0.8517166
6.346217 4 1.5947819 0 0 -1 0.8387698 0.8517166
5.731609 4 1 0 -1 0 0.66884714 0.93620515
6.346217 4 1.5947819 0 -1 0 0.6585928 0.9468013
5.731609 4 1.5947819 0 -1 0 0.6585928 0.93620515
5.731609 -0.099999905 1 0 0 1 0.3828045 0.8741192
6.346217 4 1 0 0 1 0.3722083 0.8034331
5.731609 4 1 0 0 1 0.3828045 0.8034331
5.731609 -0.099999905 1.5947819 1 0 0 0.2878818 0.95860773
5.731609 4 1 1 0 0 0.27762744 0.8879216
5.731609 4 1.5947819 1 0 0 0.2878818 0.8879216
5.731609 -0.099999905 8.3 0 1 0 0.5191746 0.96230775
6.346217 -0.099999905 7.7052183 0 1 0 0.52942896 0.9517116
5.731609 -0.099999905 7.7052183 0 1 0 0.52942896 0.96230775
6.346217 -0.099999905 7.7052183 -1 0 0 0.9403989 0.90343803
6.346217 4 8.3 -1 0 0 0.93014455 0.83275187
6.346217 4 7.7052183 -1 0 0 0.9403989 0.83275187
6.346217 -0.099999905 8.3 0 0 -1 0.93655694 0.07758733
5.731609 4 8.3 0 0 -1 0.9259608 0.006901203
6.346217 4 8.3 0 0 -1 0.93655694 0.006901203
5.731609 4 7.7052183 0 -1 0 0.6447904 0.93620515
6.346217 4 8.3 0 -1 0 0.6345361 0.9468013
5.731609 4 8.3 0 -1 0 0.6345361 0.93620515
5.731609 -0.099999905 7.7052183 0 0 1 0.9192965 0.6913698
6.346217 4 7.7052183 0 0 1 0.9087003 0.62068367
5.731609 4 7.7052183 0 0 1 0.9192965 0.62068367
5.731609 -0.099999905 8.3 1 0 0 0.26382503 0.9586078
5.731609 4 7.7052183 1 0 0 0.25357068 0.88792163
5.731609 4 8.3 1 0 0 0.26382503 0.88792163
6.346217 -0.099999905 -2.4052176 0 1 0 0.42236778 0.95171165
6.346217 -0.099999905 -2.4052176 -1 0 0 0.37220836 0.9586077
5.731609 -0.099999905 -2.4052176 0 0 -1 0.90870035 0.7758583
6.346217 4 -2.9999995 0 -1 0 0.4566789 0.9623078
6.346217 -0.099999905 -2.9999995 0 0 1 0.8037751 0.9224027
5.731609 -0.099999905 -2.9999995 1 0 0 0.3481516 0.9586077
6.346217 -0.099999905 1.5947819 0 1 0 0.54323137 0.9517116
6.346217 -0.099999905 1.5947819 -1 0 0 0.32409483 0.9586077
5.731609 -0.099999905 1.5947819 0 0 -1 0.82817364 0.92240274
6.346217 4 1 0 -1 0 0.66884714 0.9468013
6.346217 -0.099999905 1 0 0 1 0.3722083 0.8741192
5.731609 -0.099999905 1 1 0 0 0.27762744 0.95860773
6.346217 -0.099999905 8.3 0 1 0 0.5191746 0.9517116
6.346217 -0.099999905 8.3 -1 0 0 0.93014455 0.90343803
5.731609 -0.099999905 8.3 0 0 -1 0.9259608 0.07758733
6.346217 4 7.7052183 0 -1 0 0.6447904 0.9468013
6.346217 -0.099999905 7.7052183 0 0 1 0.9087003 0.6913698
5.731609 -0.099999905 7.7052183 1 0 0 0.25357068 0.9586078
-7.307305 -0.099999905 -10.156232 0 1 0 0.68264955 0.9468013
-6.6926966 -0.099999905 -10.751014 0 1 0 0.6929039 0.93620515
-7.307305 -0.099999905 -10.751014 0 1 0 0.6929039 0.9468013
-6.6926966 -0.099999905 -10.751014 -1 0 0 0.9433533 0.6913698
-6.6926966 4 -10.156232 -1 0 0 0.9330989 0.62068367
-6.6926966 4 -10.751014 -1 0 0 0.9433533 0.62068367
-6.6926966 -0.099999905 -10.156232 0 0 -1 0.86754507 0.90343803
-7.307305 4 -10.156232 0 0 -1 0.85694885 0.83275187
-6.6926966 4 -10.156232 0 0 -1 0.86754507 0.83275187
-7.307305 4 -10.751014 0 -1 0 0.7169606 0.93620515
-6.6926966 4 -10.156232 0 -1 0 0.7067063 0.9468013
-7.307305 4 -10.156232 0 -1 0 0.7067063 0.93620515
-7.307305 -0.099999905 -10.751014 0 0 1 0.57788426 0.9224027
-6.6926966 4 -10.751014 0 0 1 0.5672881 0.8517166
-7.307305 4 -10.751014 0 0 1 0.57788426 0.8517166
-7.307305 -0.099999905 -10.156232 1 0 0 0.94335324 0.7758583
-7.307305 4 -10.751014 1 0 0 0.9330989 0.7051722
-7.307305 4 -10.156232 1 0 0 0.94335324 0.7051722
-7.307305 -0.099999905 -3.9705005 0 1 0 0.730763 0.9468013
-6.6926966 -0.099999905 -4.5652823 0 1 0 0.7410174 0.93620515
-7.307305 -0.099999905 -4.5652823 0 1 0 0.7410174 0.9468013
-6.6926966 -0.099999905 -4.5652823 -1 0 0 0.9451272 0.28965572
-6.6926966 4 -3.9705005 -1 0 0 0.93487287 0.21896958
-6.6926966 4 -4.5652823 -1 0 0 0.9451272 0.21896958
-6.6926966 -0.099999905 -3.9705005 0 0 -1 0.6022828 0.9224027
-7.307305 4 -3.9705005 0 0 -1 0.59168667 0.8517166
-6.6926966 4 -3.9705005 0 0 -1 0.6022828 0.8517166
-7.307305 4 -4.5652823 0 -1 0 0.8172256 0.36551398
-6.6926966 4 -3.9705005 0 -1 0 0.8069712 0.37611014
-7.307305 4 -3.9705005 0 -1 0 0.8069712 0.36551398
-7.307305 -0.099999905 -4.5652823 0 0 1 0.6266813 0.9224027
-6.6926966 4 -4.5652823 0 0 1 0.61608523 0.8517166
-7.307305 4 -4.5652823 0 0 1 0.6266813 0.8517166
-7.307305 -0.099999905 -3.9705005 1 0 0 0.9451272 0.37414423
-7.307305 4 -4.5652823 1 0 0 0.93487287 0.30345812
-7.307305 4 -3.9705005 1 0 0 0.9451272 0.30345812
-7.307305 -0.099999905 2.215231 0 1 0 0.7793765 0.9468013
-6.6926966 -0.099999905 1.6204491 0 1 0 0.78963083 0.93620515
-7.307305 -0.099999905 1.6204491 0 1 0 0.78963083 0.9468013
-6.6926966 -0.099999905 1.6204491 -1 0 0 0.95169175 0.4793014
-6.6926966 4 2.215231 -1 0 0 0.9414374 0.40861526
-6.6926966 4 1.6204491 -1 0 0 0.95169175 0.40861526
-6.6926966 -0.099999905 2.215231 0 0 -1 0.6510799 0.9224027
-7.307305 4 2.215231 0 0 -1 0.64048374 0.8517166
-6.6926966 4 2.215231 0 0 -1 0.6510799 0.8517166
-7.307305 4 1.6204491 0 -1 0 0.7655741 0.93620515
-6.6926966 4 2.215231 0 -1 0 0.7553198 0.9468013
-7.307305 4 2.215231 0 -1 0 0.7553198 0.93620515
-7.307305 -0.099999905 1.6204491 0 0 1 0.67547846 0.9224027
-6.6926966 4 1.6204491 0 0 1 0.6648823 0.8517166
-7.307305 4 1.6204491 0 0 1 0.67547846 0.8517166
-7.307305 -0.099999905 2.215231 1 0 0 0.95169175 0.5637899
-7.307305 4 1.6204491 1 0 0 0.9414374 0.4931038
-7.307305 4 2.215231 1 0 0 0.95169175 0.4931038
-7.307305 -0.099999905 8.400962 0 1 0 0.8037751 0.9468013
-6.6926966 -0.099999905 7.80618 0 1 0 0.8140294 0.93620515
-7.307305 -0.099999905 7.80618 0 1 0 0.8140294 0.9468013
-6.6926966 -0.099999905 7.80618 -1 0 0 0.18613268 0.95515966
-6.6926966 4 8.400962 -1 0 0 0.17587833 0.8844735
-6.6926966 4 7.80618 -1 0 0 0.18613268 0.8844735
-6.6926966 -0.099999905 8.400962 0 0 -1 0.71927655 0.9224027
-7.307305 4 8.400962 0 0 -1 0.7086804 0.8517166
-6.6926966 4 8.400962 0 0 -1 0.71927655 0.8517166
-7.307305 4 7.80618 0 -1 0 0.8380862 0.93620515
-6.6926966 4 8.400962 0 -1 0 0.8278318 0.9468013
-7.307305 4 8.400962 0 -1 0 0.8278318 0.93620515
-7.307305 -0.099999905 7.80618 0 0 1 0.78997266 0.9224027
-6.6926966 4 7.80618 0 0 1 0.7793765 0.8517166
-7.307305 4 7.80618 0 0 1 0.78997266 0.8517166
-7.307305 -0.099999905 8.400962 1 0 0 0.017155552 0.95859784
-7.307305 4 7.80618 1 0 0 0.006901203 0.88791174
-7.307305 4 8.400962 1 0 0 0.017155552 0.88791174
-6.6926966 -0.099999905 -10.156232 0 1 0 0.68264955 0.93620515
-6.6926966 -0.099999905 -10.156232 -1 0 0 0.9330989 0.6913698
-7.307305 -0.099999905 -10.156232 0 0 -1 0.85694885 0.90343803
-6.6926966 4 -10.751014 0 -1 0 0.7169606 0.9468013
-6.6926966 -0.099999905 -10.751014 0 0 1 0.5672881 0.9224027
-7.307305 -0.099999905 -10.751014 1 0 0 0.9330989 0.7758583
-6.6926966 -0.099999905 -3.9705005 0 1 0 0.730763 0.93620515
-6.6926966 -0.099999905 -3.9705005 -1 0 0 0.93487287 0.28965572
-7.307305 -0.099999905 -3.9705005 0 0 -1 0.59168667 0.9224027
-6.6926966 4 -4.5652823 0 -1 0 0.8172256 0.3761102
-6.6926966 -0.099999905 -4.5652823 0 0 1 0.61608523 0.9224027
-7.307305 -0.099999905 -4.5652823 1 0 0 0.93487287 0.37414423
-6.6926966 -0.099999905 2.215231 0 1 0 0.7793765 0.93620515
-6.6926966 -0.099999905 2.215231 -1 0 0 0.9414374 0.4793014
-7.307305 -0.099999905 2.215231 0 0 -1 0.64048374 0.9224027
-6.6926966 4 1.6204491 0 -1 0 0.7655741 0.9468013
-6.6926966 -0.099999905 1.6204491 0 0 1 0.6648823 0.9224027
-7.307305 -0.099999905 1.6204491 1 0 0 0.9414374 0.5637899
-6.6926966 -0.099999905 8.400962 0 1 0 0.8037751 0.93620515
-6.6926966 -0.099999905 8.400962 -1 0 0 0.17587833 0.95515966
-7.307305 -0.099999905 8.400962 0 0 -1 0.7086804 0.9224027
-6.6926966 4 7.80618 0 -1 0 0.8380862 0.9468013
-6.6926966 -0.099999905 7.80618 0 0 1 0.7793765 0.9224027
-7.307305 -0.099999905 7.80618 1 0 0 0.006901203 0.95859784
3 0 1 2
3 3 4 5
3 6 7 8
3 9 10 11
3 12 13 14
3 15 16 17
3 0 18 1
3 3 19 4
3 6 20 7
3 9 21 10
3 12 22 13
3 15 23 16
3 24 25 26
3 27 28 29
3 30 31 32
3 33 34 35
3 36 37 38
3 24 39 25
3 27 40 28
3 30 41 31
3 33 42 34
3 36 43 37
3 44 45 46
3 47 48 49
3 50 51 52
3 53 54 55
3 56 57 58
3 59 60 61
3 44 62 45
3 47 63 48
3 50 64 51
3 53 65 54
3 56 66 57
3 59 67 60
3 68 69 70
3 71 72 73
3 74 75 76
3 77 78 79
3 80 81 82
3 83 84 85
3 68 86 69
3 71 87 72
3 74 88 75
3 77 89 78
3 80 90 81
3 83 91 84
3 92 93 94
3 95 96 97
3 98 99 100
3 101 102 103
3 104 105 106
3 107 108 109
3 110 111 112
3 113 114 115
3 116 117 118
3 119 120 121
3 92 122 93
3 95 123 96
3 100 124 125
3 99 126 127
3 99 127 128
3 100 125 98
3 99 128 100
3 101 129 102
3 104 130 105
3 107 131 108
3 112 132 133
3 111 134 135
3 111 135 136
3 112 133 110
3 111 136 112
3 113 137 114
3 116 138 117
3 119 139 120
3 140 141 142
3 143 144 145
3 146 147 148
3 149 150 151
3 152 153 154
3 155 156 157
3 140 158 141
3 143 159 144
3 146 160 147
3 149 161 150
3 152 162 153
3 155 163 156
3 164 165 166
3 167 168 169
3 170 171 172
3 173 174 175
3 176 177 178
3 179 180 181
3 164 182 165
3 167 183 168
3 170 184 171
3 173 185 174
3 176 186 177
3 179 187 180
3 188 189 190
3 191 192 193
3 194 195 196
3 197 198 199
3 200 201 202
3 188 203 189
3 191 204 192
3 194 205 195
3 197 206 198
3 200 207 201
3 208 209 210
3 211 212 213
3 214 215 216
3 217 218 219
3 220 221 222
3 223 224 225
3 208 226 209
3 211 227 212
3 214 228 215
3 217 229 218
3 220 230 221
3 223 231 224
3 232 233 234
3 235 236 237
3 238 239 240
3 241 242 243
3 244 245 246
3 247 248 249
3 232 250 233
3 235 251 236
3 238 252 239
3 241 253 242
3 244 254 245
3 247 255 248
3 256 257 258
3 259 260 261
3 262 263 264
3 265 266 267
3 268 269 270
3 271 272 273
3 274 275 276
3 277 278 279
3 280 281 282
3 283 284 285
3 286 287 288
3 289 290 291
3 292 293 294
3 295 296 297
3 298 299 300
3 301 302 303
3 304 305 306
3 307 308 309
3 256 310 257
3 259 311 260
3 262 312 263
3 265 313 266
3 268 314 269
3 271 315 272
3 274 316 275
3 277 317 278
3 280 318 281
3 283 319 284
3 286 320 287
3 289 321 290
3 292 322 293
3 295 323 296
3 298 324 299
3 301 325 302
3 304 326 305
3 307 327 308
3 328 329 330
3 331 332 333
3 334 335 336
3 337 338 339
3 340 341 342
3 343 344 345
3 346 347 348
3 349 350 351
3 352 353 354
3 355 356 357
3 358 359 360
3 361 362 363
3 364 365 366
3 367 368 369
3 370 371 372
3 373 374 375
3 376 377 378
3 379 380 381
3 328 382 329
3 331 383 332
3 334 384 335
3 337 385 338
3 340 386 341
3 343 387 344
3 346 388 347
3 349 389 350
3 352 390 353
3 355 391 356
3 358 392 359
3 361 393 362
3 364 394 365
3 367 395 368
3 370 396 371
3 373 397 374
3 376 398 377
3 379 399 380
3 400 401 402
3 403 404 405
3 406 407 408
3 409 410 411
3 412 413 414
3 415 416 417
3 418 419 420
3 421 422 423
3 424 425 426
3 427 428 429
3 430 431 432
3 433 434 435
3 436 437 438
3 439 440 441
3 442 443 444
3 445 446 447
3 448 449 450
3 451 452 453
3 454 455 456
3 457 458 459
3 460 461 462
3 463 464 465
3 466 467 468
3 469 470 471
3 400 472 401
3 403 473 404
3 406 474 407
3 409 475 410
3 412 476 413
3 415 477 416
3 418 478 419
3 421 479 422
3 424 480 425
3 427 481 428
3 430 482 431
3 433 483 434
3 436 484 437
3 439 485 440
3 442 486 443
3 445 487 446
3 448 488 449
3 451 489 452
3 454 490 455
3 457 491 458
3 460 492 461
3 463 493 464
3 466 494 467
3 469 495 470
