ply
format ascii 1.0
comment Created in Blender version 4.4.1
element vertex 232
property float x
property float y
property float z
property float nx
property float ny
property float nz
property float s
property float t
element face 120
property list uchar uint vertex_indices
end_header
18.1 -0.09999998 -2.9999995 0 -1 0 0.6309012 0.42918435
-1.9000001 -0.09999998 8.5 0 -1 0 0.4077254 -1.125581e-08
-1.9000001 -0.09999998 -2.9999995 0 -1 0 0.6309012 5.593497e-09
18.1 -0.3 -2.9999995 -1 0 0 0.37982833 0.42918435
18.1 -0.09999998 8.5 -1 0 0 0.3755365 0.6523602
18.1 -0.09999998 -2.9999995 -1 0 0 0.37553653 0.42918435
18.1 -0.3 8.5 0 0 -1 0.63519305 2.9162777e-08
-1.9000001 -0.09999998 8.5 0 0 -1 0.6309012 0.42918438
18.1 -0.09999998 8.5 0 0 -1 0.6309012 2.9162777e-08
-1.9000001 -0.3 -2.9999995 0 1 0 0.4077253 0.42918435
18.1 -0.3 8.5 0 1 0 0.1845495 5.0818802e-09
18.1 -0.3 -2.9999995 0 1 0 0.40772533 2.1931188e-08
18.1 -0.3 -2.9999995 0 0 1 0.6394848 0.42918435
-1.9000001 -0.09999998 -2.9999995 0 0 1 0.635193 2.9162777e-08
-1.9000001 -0.3 -2.9999995 0 0 1 0.6394849 2.9162777e-08
-1.9000001 -0.3 8.5 1 0 0 0.36695287 0.42918435
-1.9000001 -0.09999998 -2.9999995 1 0 0 0.36266097 0.6523602
-1.9000001 -0.09999998 8.5 1 0 0 0.36266103 0.42918435
18.1 -0.09999998 8.5 0 -1 0 0.40772536 0.42918435
18.1 -0.3 8.5 -1 0 0 0.37982833 0.6523602
-1.9000001 -0.3 8.5 0 0 -1 0.63519305 0.42918438
-1.9000001 -0.3 8.5 0 1 0 0.18454947 0.42918435
18.1 -0.09999998 -2.9999995 0 0 1 0.635193 0.42918435
-1.9000001 -0.3 -2.9999995 1 0 0 0.36695287 0.6523602
17.900002 4 -3 0 -1 0 0.82403433 0.42489257
-1.9000002 4 -2.8000002 0 -1 0 0.8197425 2.9162777e-08
-1.900001 4 -3 0 -1 0 0.82403433 2.9162777e-08
17.900002 -0.1000001 -3 -1 0 0 0.6008584 0.51716715
17.900002 4 -2.8000002 -1 0 0 0.5965665 0.42918435
17.900002 4 -3 -1 0 0 0.6008584 0.42918435
-1.9000002 -0.1000001 -3 0 8.176695e-08 1 0.7274678 2.9162777e-08
17.900002 4 -3 0 1.22142465e-08 1 0.6394849 0.42489251
-1.900001 4 -3 0 9.39812e-08 1 0.63948494 0
17.900002 -0.1000001 -2.8000002 0 1.6947265e-08 -1 0.8154506 2.9162777e-08
-1.9000002 4 -2.8000002 0 1.13451634e-07 -1 0.72746783 0.42489251
17.900002 4 -2.8000002 0 0 -1 0.7274679 0
-1.9000002 -0.1000001 -3 0 1 0 0.81974244 0.42489257
17.900002 -0.1000001 -2.8000002 0 1 0 0.8154506 2.9162777e-08
17.900002 -0.1000001 -3 0 1 0 0.8197425 2.9162777e-08
17.900002 4 -2.8000002 0 -1 0 0.8197425 0.42489257
17.900002 -0.1000001 -2.8000002 -1 0 0 0.5965665 0.51716715
17.900002 -0.1000001 -3 0 0 1 0.7274677 0.42489257
-1.900001 -0.1000001 -2.8000002 0 1.303989e-07 -1 0.8154506 0.42489257
-1.900001 -0.1000001 -2.8000002 0 1 0 0.8154506 0.42489257
17.900002 -0.09999998 8.5 0 1 0 0.3991417 0.42918435
18.1 -0.09999998 -2.9999995 0 1 0 0.4034335 0.6523602
17.900002 -0.09999998 -2.9999995 0 1 0 0.3991417 0.6523602
18.1 -0.09999998 -2.9999995 -1 0 0 0.17596568 0.5944204
18.1 4 8.5 -1 0 0 0.08798287 0.8175962
18.1 4 -2.9999995 -1 0 0 0.0879829 0.5944203
18.1 -0.09999998 8.5 0 0 -1 0.609442 0.60515
17.900002 4 8.5 0 0 -1 0.6051502 0.5171672
18.1 4 8.5 0 0 -1 0.609442 0.5171672
17.900002 4 -2.9999995 0 -1 0 0.39914167 0.6523602
18.1 4 8.5 0 -1 0 0.3948499 0.42918435
17.900002 4 8.5 0 -1 0 0.39914167 0.42918435
17.900002 -0.09999998 -2.9999995 0 0 1 0.609442 0.51716715
18.1 4 -2.9999995 0 0 1 0.6051502 0.42918435
17.900002 4 -2.9999995 0 0 1 0.609442 0.42918435
17.900002 -0.09999998 8.5 1 0 0 0.08798282 0.5944203
17.900002 4 -2.9999995 1 0 0 0 0.81759614
17.900002 4 8.5 1 0 0 2.9162777e-08 0.5944203
18.1 -0.09999998 8.5 0 1 0 0.4034335 0.42918435
18.1 -0.09999998 8.5 -1 0 0 0.17596567 0.8175962
17.900002 -0.09999998 8.5 0 0 -1 0.6051502 0.60515
18.1 4 -2.9999995 0 -1 0 0.3948499 0.6523602
18.1 -0.09999998 -2.9999995 0 0 1 0.6051502 0.51716715
17.900002 -0.09999998 -2.9999995 1 0 0 0.08798279 0.8175962
-12 -0.09999998 8.5 0 1 0 0.8197425 0.42489251
-11.8 -0.09999998 -10 0 1 0 0.82403433 0.821888
-12 -0.09999998 -10 0 1 0 0.8197425 0.821888
-11.8 -0.09999998 -10 -1 0 0 0.583691 0.42918435
-11.8 4 8.5 -1 0 0 0.4957082 0.82617986
-11.8 4 -10 -1 0 0 0.4957082 0.42918435
-11.8 -0.09999998 8.5 0 0 -1 0.60085833 0.60515004
-12 4 8.5 0 0 -1 0.59656644 0.5171672
-11.8 4 8.5 0 0 -1 0.60085833 0.5171672
-12 4 -10 0 -1 0 0.40772533 0.82617986
-11.8 4 8.5 0 -1 0 0.4034335 0.42918435
-12 4 8.5 0 -1 0 0.40772533 0.42918435
-12 -0.09999998 -10 0 0 1 0.61802566 0.60515
-11.8 4 -10 0 0 1 0.6137338 0.5171672
-12 4 -10 0 0 1 0.61802566 0.5171672
-12 -0.09999998 8.5 1 0 0 0.49570817 0.42918435
-12 4 -10 1 0 0 0.40772536 0.82617986
-12 4 8.5 1 0 0 0.4077254 0.42918435
-11.8 -0.09999998 8.5 0 1 0 0.82403433 0.42489251
-11.8 -0.09999998 8.5 -1 0 0 0.58369094 0.82617986
-12 -0.09999998 8.5 0 0 -1 0.59656644 0.60515004
-11.8 4 -10 0 -1 0 0.4034335 0.82617986
-11.8 -0.09999998 -10 0 0 1 0.6137338 0.60515
-12 -0.09999998 -10 1 0 0 0.49570814 0.8261799
-2.1000001 -0.09999998 -9.8 0 -1 0 0.38412017 0.6180255
-1.9000003 -0.09999998 -1 0 -1 0 0.37982833 0.42918438
-2.1000001 -0.09999998 -1 0 -1 0 0.38412017 0.42918438
-1.9000003 -0.09999998 8.3 0 -1 0 0.59227467 0.42918435
-2.1000001 -0.09999998 1 0 -1 0 0.5965665 0.58583665
-1.9000003 -0.09999998 1 0 -1 0 0.59227467 0.58583665
-1.9000003 4 -9.8 1 0 0 0.82403433 0.38841188
-1.9000003 4 8.3 1 0 0 0.8240344 2.9162777e-08
-1.9000003 3.6999998 -1 1 0 0 0.8304721 0.19957078
-2.1000001 4 8.3 0 0 1 0.6180258 0.42918435
-1.9000003 -0.09999998 8.3 0 0 1 0.6137339 0.5171671
-1.9000003 4 8.3 0 0 1 0.6137339 0.42918435
-1.9000003 4 8.3 0 1 0 0.36266094 0.42918435
-2.1000001 4 -9.8 0 1 0 0.3583691 0.8175962
-2.1000001 4 8.3 0 1 0 0.3583691 0.42918435
-1.9000003 4 -9.8 0 0 -1 0.6137338 0.42918435
-2.1000001 -0.09999998 -9.8 0 0 -1 0.609442 0.5171671
-2.1000001 4 -9.8 0 0 -1 0.609442 0.42918435
-2.1000001 4 8.3 -1 0 0 0.82403433 0.77682376
-2.1000001 4 -9.8 -1 0 0 0.8240344 0.3884119
-2.1000001 3.6999998 1 -1 0 0 0.8304721 0.6201715
-1.9000003 3.6999998 1 0 0 -1 0.62660944 0.42918444
-2.1000001 -0.09999998 1 0 0 -1 0.62231755 0.5107295
-2.1000001 3.6999998 1 0 0 -1 0.62231755 0.42918444
-1.9000003 3.6999998 -1 0 -1 0 0.59227467 0.62875515
-2.1000001 3.6999998 1 0 -1 0 0.5965665 0.5858367
-2.1000001 3.6999998 -1 0 -1 0 0.5965665 0.62875515
-1.9000003 3.6999998 -1 0 0 1 0.6223175 0.51072943
-2.1000001 -0.09999998 -1 0 0 1 0.6266093 0.5922744
-1.9000003 -0.09999998 -1 0 0 1 0.6223175 0.5922744
-1.9000003 -0.09999998 -9.8 0 -1 0 0.37982833 0.6180255
-2.1000001 -0.09999998 8.3 0 -1 0 0.5965665 0.42918435
-1.9000003 -0.09999998 -1 1 0 0 0.91201717 0.19957078
-1.9000003 -0.09999998 -9.8 1 0 0 0.9120171 0.38841188
-1.9000003 -0.09999998 8.3 1 0 0 0.91201717 2.9162777e-08
-1.9000003 -0.09999998 1 1 0 0 0.91201717 0.15665232
-1.9000003 3.6999998 1 1 0 0 0.8304721 0.15665232
-2.1000001 -0.09999998 8.3 0 0 1 0.6180258 0.5171671
-1.9000003 4 -9.8 0 1 0 0.36266094 0.8175962
-1.9000003 -0.09999998 -9.8 0 0 -1 0.6137338 0.5171671
-2.1000001 -0.09999998 1 -1 0 0 0.9120171 0.6201715
-2.1000001 -0.09999998 8.3 -1 0 0 0.9120171 0.77682376
-2.1000001 -0.09999998 -9.8 -1 0 0 0.91201717 0.38841194
-2.1000001 -0.09999998 -1 -1 0 0 0.91201717 0.57725304
-2.1000001 3.6999998 -1 -1 0 0 0.8304721 0.57725304
-1.9000003 -0.09999998 1 0 0 -1 0.62660944 0.5107295
-1.9000003 3.6999998 1 0 -1 0 0.59227467 0.5858367
-2.1000001 3.6999998 -1 0 0 1 0.6266093 0.51072943
-11.8 -0.1000001 8.3 0 1 0 0.18454947 0.5944203
17.900002 -0.1000001 8.5 0 1 0 0.18025763 -8.306691e-09
17.900002 -0.1000001 8.3 0 1 0 0.18454947 -7.982666e-09
17.900002 -0.1000001 8.5 0 0 -1 0.08798287 -1.527324e-08
-11.8 4 8.5 0 0 -1 0 0.59442025
17.900002 4 8.5 0 0 -1 5.8325554e-08 -2.1915756e-08
-11.8 -0.1000001 8.5 1 0 0 0.6137338 0.60515004
-11.8 4 8.3 1 0 0 0.609442 0.5171672
-11.8 4 8.5 1 0 0 0.6137338 0.5171672
17.900002 4 8.3 0 -1 0 0.18025757 0.5944203
-11.8 4 8.5 0 -1 0 0.17596574 1.183438e-08
-11.8 4 8.3 0 -1 0 0.18025763 1.2158404e-08
17.900002 -0.1000001 8.3 -1 0 0 0.6051502 0.51716715
17.900002 4 8.5 -1 0 0 0.6008584 0.42918435
17.900002 4 8.3 -1 0 0 0.6051502 0.42918435
-11.8 -0.1000001 8.3 0 0 1 0.17596574 2.9229724e-08
17.900002 4 8.3 0 0 1 0.08798287 0.5944203
-11.8 4 8.3 0 0 1 0.08798293 2.2587207e-08
-11.8 -0.1000001 8.5 0 1 0 0.18025763 0.5944203
-11.8 -0.1000001 8.5 0 0 -1 0.08798282 0.5944203
-11.8 -0.1000001 8.3 1 0 0 0.609442 0.60515004
17.900002 4 8.5 0 -1 0 0.17596574 0.5944203
17.900002 -0.1000001 8.5 -1 0 0 0.6008584 0.51716715
17.900002 -0.1000001 8.3 0 0 1 0.17596568 0.5944203
-11.8 -0.1000001 -10 0 1 0 0.58798283 0.59871215
-1.900001 -0.1000001 -9.8 0 1 0 0.583691 0.42918438
-1.9000002 -0.1000001 -10 0 1 0 0.58798283 0.42918435
-1.900001 -0.1000001 -9.8 0 2.8196143e-07 -1 0.91201717 0.77682376
-11.8 4 -9.8 0 9.396343e-08 -1 0.82403433 0.9463515
-1.9000002 4 -9.8 0 3.7592488e-07 -1 0.82403433 0.77682376
-11.8 -0.1000001 -9.8 1 0 0 0.91201717 0.9463515
-11.8 4 -10 1 0 0 0.82403433 0.95064336
-11.8 4 -9.8 1 0 0 0.82403433 0.9463515
-11.8 -0.1000001 -10 0 1.02772496e-07 1 0.08798282 0.8175962
-1.900001 4 -10 0 3.0839533e-07 1 0 0.98712397
-11.8 4 -10 0 0 1 0 0.8175962
-1.900001 4 -10 0 -1 0 0.59227467 0.5987121
-11.8 4 -9.8 0 -1 0 0.58798283 0.42918435
-11.8 4 -10 0 -1 0 0.59227467 0.42918435
-1.9000002 -0.1000001 -10 -1 1.9089974e-07 -3.2725825e-06 0.6223175 0.6051499
-1.9000002 4 -9.8 -1 -1.9090199e-07 3.2725827e-06 0.61802566 0.51716715
-1.900001 4 -10 -1 -2.035296e-07 3.4890559e-06 0.6223175 0.51716715
-11.8 -0.1000001 -9.8 0 1 0 0.583691 0.59871215
-11.8 -0.1000001 -9.8 0 0 -1 0.91201717 0.9463515
-11.8 -0.1000001 -10 1 0 0 0.91201717 0.9506434
-1.9000002 -0.1000001 -10 0 4.1116783e-07 1 0.08798276 0.987124
-1.9000002 4 -9.8 0 -1 0 0.58798283 0.5987121
-1.900001 -0.1000001 -9.8 -1 2.0352736e-07 -3.4890554e-06 0.61802566 0.6051499
-12 -0.3 -10 0 1 0 0.63948494 0.821888
-1.9000001 -0.3 8.5 0 1 0 0.8133046 0.42489254
-1.9000001 -0.3 -10 0 1 0 0.8133046 0.821888
-1.9000001 -0.3 8.5 0 0 -1 0.38841203 0.42918435
-12 -0.09999998 8.5 0 0 -1 0.38412014 0.603004
-1.9000001 -0.09999998 8.5 0 0 -1 0.38412014 0.42918435
-1.9000001 -0.09999998 -10 0 -1 0 0.1845495 0.82617986
-12 -0.09999998 8.5 0 -1 0 0.35836914 0.42918435
-12 -0.09999998 -10 0 -1 0 0.35836914 0.82617986
-12 -0.3 8.5 1 0 0 0.8197425 0.42489251
-12 -0.09999998 -10 1 0 0 0.8154506 0.821888
-12 -0.09999998 8.5 1 0 0 0.8154506 0.42489251
-12 -0.09999998 -10 0 0 1 0.39055806 0.42918435
-1.9000001 -0.3 -10 0 0 1 0.3948499 0.60300404
-1.9000001 -0.09999998 -10 0 0 1 0.39055806 0.60300404
-12 -0.3 8.5 0 1 0 0.63948494 0.42489254
-12 -0.3 8.5 0 0 -1 0.38841203 0.603004
-1.9000001 -0.09999998 8.5 0 -1 0 0.1845495 0.42918435
-12 -0.3 -10 1 0 0 0.81974244 0.821888
-12 -0.3 -10 0 0 1 0.39484996 0.42918435
9.400002 -0.09999998 8.5 0 1 0 0.36695284 0.42918435
9.6 -0.09999998 -2.9999995 0 1 0 0.37124467 0.6523602
9.400002 -0.09999998 -2.9999995 0 1 0 0.36695284 0.6523602
9.6 -0.09999998 -2.9999995 -1 0 0 0.99999994 0.22317591
9.6 4 8.5 -1 0 0 0.91201717 0.4463517
9.6 4 -2.9999995 -1 0 0 0.91201717 0.22317585
9.6 -0.09999998 8.5 0 0 -1 0.6051502 0.60515004
9.400002 4 8.5 0 0 -1 0.6008584 0.5171672
9.6 4 8.5 0 0 -1 0.6051502 0.5171672
9.400002 4 -2.9999995 0 -1 0 0.3755365 0.6523602
9.6 4 8.5 0 -1 0 0.37124467 0.42918435
9.400002 4 8.5 0 -1 0 0.3755365 0.42918435
9.400002 -0.09999998 -2.9999995 0 0 1 0.6223175 0.51716715
9.6 4 -2.9999995 0 0 1 0.61802566 0.4291844
9.400002 4 -2.9999995 0 0 1 0.6223175 0.4291844
9.400002 -0.09999998 8.5 1 0 0 1 0
9.400002 4 -2.9999995 1 0 0 0.91201717 0.22317585
9.400002 4 8.5 1 0 0 0.9120172 0
9.6 -0.09999998 8.5 0 1 0 0.37124467 0.42918435
9.6 -0.09999998 8.5 -1 0 0 0.99999994 0.4463517
9.400002 -0.09999998 8.5 0 0 -1 0.6008584 0.60515004
9.6 4 -2.9999995 0 -1 0 0.37124467 0.6523602
9.6 -0.09999998 -2.9999995 0 0 1 0.61802566 0.51716715
9.400002 -0.09999998 -2.9999995 1 0 0 0.99999994 0.22317585
3 0 1 2
3 3 4 5
3 6 7 8
3 9 10 11
3 12 13 14
3 15 16 17
3 0 18 1
3 3 19 4
3 6 20 7
3 9 21 10
3 12 22 13
3 15 23 16
3 24 25 26
3 27 28 29
3 30 31 32
3 33 34 35
3 36 37 38
3 24 39 25
3 27 40 28
3 30 41 31
3 33 42 34
3 36 43 37
3 44 45 46
3 47 48 49
3 50 51 52
3 53 54 55
3 56 57 58
3 59 60 61
3 44 62 45
3 47 63 48
3 50 64 51
3 53 65 54
3 56 66 57
3 59 67 60
3 68 69 70
3 71 72 73
3 74 75 76
3 77 78 79
3 80 81 82
3 83 84 85
3 68 86 69
3 71 87 72
3 74 88 75
3 77 89 78
3 80 90 81
3 83 91 84
3 92 93 94
3 95 96 97
3 98 99 100
3 101 102 103
3 104 105 106
3 107 108 109
3 110 111 112
3 113 114 115
3 116 117 118
3 119 120 121
3 92 122 93
3 95 123 96
3 100 124 125
3 99 126 127
3 99 127 128
3 100 125 98
3 99 128 100
3 101 129 102
3 104 130 105
3 107 131 108
3 112 132 133
3 111 134 135
3 111 135 136
3 112 133 110
3 111 136 112
3 113 137 114
3 116 138 117
3 119 139 120
3 140 141 142
3 143 144 145
3 146 147 148
3 149 150 151
3 152 153 154
3 155 156 157
3 140 158 141
3 143 159 144
3 146 160 147
3 149 161 150
3 152 162 153
3 155 163 156
3 164 165 166
3 167 168 169
3 170 171 172
3 173 174 175
3 176 177 178
3 179 180 181
3 164 182 165
3 167 183 168
3 170 184 171
3 173 185 174
3 176 186 177
3 179 187 180
3 188 189 190
3 191 192 193
3 194 195 196
3 197 198 199
3 200 201 202
3 188 203 189
3 191 204 192
3 194 205 195
3 197 206 198
3 200 207 201
3 208 209 210
3 211 212 213
3 214 215 216
3 217 218 219
3 220 221 222
3 223 224 225
3 208 226 209
3 211 227 212
3 214 228 215
3 217 229 218
3 220 230 221
3 223 231 224
