ply
format ascii 1.0
comment Created in Blender version 4.4.1
element vertex 120
property float x
property float y
property float z
property float nx
property float ny
property float nz
property float s
property float t
element face 60
property list uchar uint vertex_indices
end_header
-40 0 40 -1 0 0 0.625 0
-40 -0.49999976 -40 -1 0 0 0.375 0.25
-40 -0.49999976 40 -1 0 0 0.375 0
-40 0 -40 0 0 -1 0.625 0.25
40 -0.49999976 -40 0 0 -1 0.375 0.5
-40 -0.49999976 -40 0 0 -1 0.375 0.25
40 0 -40 1 0 0 0.625 0.5
40 -0.49999976 40 1 0 0 0.375 0.75
40 -0.49999976 -40 1 0 0 0.375 0.5
40 0 40 0 0 1 0.625 0.75
-40 -0.49999976 40 0 0 1 0.375 1
40 -0.49999976 40 0 0 1 0.375 0.75
40 -0.49999976 -40 0 -1 0 0.375 0.5
-40 -0.49999976 40 0 -1 0 0.125 0.75
-40 -0.49999976 -40 0 -1 0 0.125 0.5
-40 0 -40 0 1 0 0.875 0.5
40 0 40 0 1 0 0.625 0.75
40 0 -40 0 1 0 0.625 0.5
-40 0 -40 -1 0 0 0.625 0.25
40 0 -40 0 0 -1 0.625 0.5
40 0 40 1 0 0 0.625 0.75
-40 0 40 0 0 1 0.625 1
40 -0.49999976 40 0 -1 0 0.375 0.75
-40 0 40 0 1 0 0.875 0.75
-40 10 -39 -1 0 0 0.625 0
-40 0 -40 -1 0 0 0.375 0.25
-40 0 -39 -1 0 0 0.375 0
-40 10 -40 0 0 -1 0.625 0.25
40 0 -40 0 0 -1 0.375 0.5
-40 0 -40 0 0 -1 0.375 0.25
40 10 -40 1 0 0 0.625 0.5
40 0 -39 1 0 0 0.375 0.75
40 0 -40 1 0 0 0.375 0.5
40 10 -39 0 0 1 0.625 0.75
-40 0 -39 0 0 1 0.375 1
40 0 -39 0 0 1 0.375 0.75
40 0 -40 0 -1 0 0.375 0.5
-40 0 -39 0 -1 0 0.125 0.75
-40 0 -40 0 -1 0 0.125 0.5
-40 10 -40 0 1 0 0.875 0.5
40 10 -39 0 1 0 0.625 0.75
40 10 -40 0 1 0 0.625 0.5
-40 10 40 -1 0 0 0.625 0
-40 0 39 -1 0 0 0.375 0.25
-40 0 40 -1 0 0 0.375 0
-40 10 39 0 0 -1 0.625 0.25
40 0 39 0 0 -1 0.375 0.5
-40 0 39 0 0 -1 0.375 0.25
40 10 39 1 0 0 0.625 0.5
40 0 40 1 0 0 0.375 0.75
40 0 39 1 0 0 0.375 0.5
40 10 40 0 0 1 0.625 0.75
-40 0 40 0 0 1 0.375 1
40 0 40 0 0 1 0.375 0.75
40 0 39 0 -1 0 0.375 0.5
-40 0 40 0 -1 0 0.125 0.75
-40 0 39 0 -1 0 0.125 0.5
-40 10 39 0 1 0 0.875 0.5
40 10 40 0 1 0 0.625 0.75
40 10 39 0 1 0 0.625 0.5
40 10 39 0 0 1 0.625 0
39 4.7683716e-07 39 0 0 1 0.375 0.25
40 4.7683716e-07 39 0 0 1 0.375 0
39 10 39 -1 0 0 0.625 0.25
39 4.7683716e-07 -39 -1 0 0 0.375 0.5
39 4.7683716e-07 39 -1 0 0 0.375 0.25
39 10 -39 0 0 -1 0.625 0.5
40 4.7683716e-07 -39 0 0 -1 0.375 0.75
39 4.7683716e-07 -39 0 0 -1 0.375 0.5
40 10 -39 1 0 0 0.625 0.75
40 4.7683716e-07 39 1 0 0 0.375 1
40 4.7683716e-07 -39 1 0 0 0.375 0.75
39 4.7683716e-07 -39 0 -1 0 0.375 0.5
40 4.7683716e-07 39 0 -1 0 0.125 0.75
39 4.7683716e-07 39 0 -1 0 0.125 0.5
39 10 39 0 1 0 0.875 0.5
40 10 -39 0 1 0 0.625 0.75
39 10 -39 0 1 0 0.625 0.5
-39 10 39 0 0 1 0.625 0
-40 4.7683716e-07 39 0 0 1 0.375 0.25
-39 4.7683716e-07 39 0 0 1 0.375 0
-40 10 39 -1 0 0 0.625 0.25
-40 4.7683716e-07 -39 -1 0 0 0.375 0.5
-40 4.7683716e-07 39 -1 0 0 0.375 0.25
-40 10 -39 0 0 -1 0.625 0.5
-39 4.7683716e-07 -39 0 0 -1 0.375 0.75
-40 4.7683716e-07 -39 0 0 -1 0.375 0.5
-39 10 -39 1 0 0 0.625 0.75
-39 4.7683716e-07 39 1 0 0 0.375 1
-39 4.7683716e-07 -39 1 0 0 0.375 0.75
-40 4.7683716e-07 -39 0 -1 0 0.375 0.5
-39 4.7683716e-07 39 0 -1 0 0.125 0.75
-40 4.7683716e-07 39 0 -1 0 0.125 0.5
-40 10 39 0 1 0 0.875 0.5
-39 10 -39 0 1 0 0.625 0.75
-40 10 -39 0 1 0 0.625 0.5
-40 10 -40 -1 0 0 0.625 0.25
40 10 -40 0 0 -1 0.625 0.5
40 10 -39 1 0 0 0.625 0.75
-40 10 -39 0 0 1 0.625 1
40 0 -39 0 -1 0 0.375 0.75
-40 10 -39 0 1 0 0.875 0.75
-40 10 39 -1 0 0 0.625 0.25
40 10 39 0 0 -1 0.625 0.5
40 10 40 1 0 0 0.625 0.75
-40 10 40 0 0 1 0.625 1
40 0 40 0 -1 0 0.375 0.75
-40 10 40 0 1 0 0.875 0.75
39 10 39 0 0 1 0.625 0.25
39 10 -39 -1 0 0 0.625 0.5
40 10 -39 0 0 -1 0.625 0.75
40 10 39 1 0 0 0.625 1
40 4.7683716e-07 -39 0 -1 0 0.375 0.75
40 10 39 0 1 0 0.875 0.75
-40 10 39 0 0 1 0.625 0.25
-40 10 -39 -1 0 0 0.625 0.5
-39 10 -39 0 0 -1 0.625 0.75
-39 10 39 1 0 0 0.625 1
-39 4.7683716e-07 -39 0 -1 0 0.375 0.75
-39 10 39 0 1 0 0.875 0.75
3 0 1 2
3 3 4 5
3 6 7 8
3 9 10 11
3 12 13 14
3 15 16 17
3 0 18 1
3 3 19 4
3 6 20 7
3 9 21 10
3 12 22 13
3 15 23 16
3 24 25 26
3 27 28 29
3 30 31 32
3 33 34 35
3 36 37 38
3 39 40 41
3 42 43 44
3 45 46 47
3 48 49 50
3 51 52 53
3 54 55 56
3 57 58 59
3 60 61 62
3 63 64 65
3 66 67 68
3 69 70 71
3 72 73 74
3 75 76 77
3 78 79 80
3 81 82 83
3 84 85 86
3 87 88 89
3 90 91 92
3 93 94 95
3 24 96 25
3 27 97 28
3 30 98 31
3 33 99 34
3 36 100 37
3 39 101 40
3 42 102 43
3 45 103 46
3 48 104 49
3 51 105 52
3 54 106 55
3 57 107 58
3 60 108 61
3 63 109 64
3 66 110 67
3 69 111 70
3 72 112 73
3 75 113 76
3 78 114 79
3 81 115 82
3 84 116 85
3 87 117 88
3 90 118 91
3 93 119 94
