ply
format ascii 1.0
comment Created in Blender version 4.4.1
element vertex 24
property float x
property float y
property float z
property float nx
property float ny
property float nz
property float s
property float t
element face 12
property list uchar uint vertex_indices
end_header
48.529495 -0.29999995 -33.127243 0 -1 0 0.4881456 0.60655946
-32.329494 -0.29999995 38.627243 0 -1 0 0.3302337 0.33192998
-32.329494 -0.29999995 -33.127243 0 -1 0 0.48814562 0.33192998
48.529495 -0.50000024 -33.127243 -1 0 0 0.082017265 0.43079653
48.529495 -0.29999995 38.627243 -1 0 0 0.07927097 0.5887085
48.529495 -0.29999995 -33.127243 -1 0 0 0.07927097 0.43079653
48.529495 -0.50000024 38.627243 0 0 -1 0.55131036 0.33192995
-32.329494 -0.29999995 38.627243 0 0 -1 0.54856396 0.6065594
48.529495 -0.29999995 38.627243 0 0 -1 0.548564 0.33192995
-32.329494 -0.50000024 -33.127243 0 1 0 0.79615057 0.28228673
48.529495 -0.50000024 38.627243 0 1 0 0.63823867 0.0076572993
48.529495 -0.50000024 -33.127243 0 1 0 0.79615057 0.0076573114
48.529495 -0.50000024 -33.127243 0 0 1 0.53324944 0.6065594
-32.329494 -0.29999995 -33.127243 0 0 1 0.53050315 0.33192992
-32.329494 -0.50000024 -33.127243 0 0 1 0.53324944 0.33192992
-32.329494 -0.50000024 38.627243 1 0 0 0.71259856 0.33193004
-32.329494 -0.29999995 -33.127243 1 0 0 0.7098523 0.48984194
-32.329494 -0.29999995 38.627243 1 0 0 0.7098523 0.33193004
48.529495 -0.29999995 38.627243 0 -1 0 0.3302337 0.6065594
48.529495 -0.50000024 38.627243 -1 0 0 0.082017265 0.5887085
-32.329494 -0.50000024 38.627243 0 0 -1 0.5513103 0.6065594
-32.329494 -0.50000024 38.627243 0 1 0 0.6382386 0.2822867
48.529495 -0.29999995 -33.127243 0 0 1 0.53050315 0.6065594
-32.329494 -0.50000024 -33.127243 1 0 0 0.71259856 0.48984194
3 0 1 2
3 3 4 5
3 6 7 8
3 9 10 11
3 12 13 14
3 15 16 17
3 0 18 1
3 3 19 4
3 6 20 7
3 9 21 10
3 12 22 13
3 15 23 16
