ply
format ascii 1.0
comment Created in Blender version 4.5.1 LTS
element vertex 788
property float x
property float y
property float z
property float nx
property float ny
property float nz
property float s
property float t
element face 896
property list uchar uint vertex_indices
end_header
0.049540214 0.29029807 0.9919104 0.834647 0.54942995 0.03861615 0.875 0.5
-0.049540214 0.29625568 -0.22977172 -0.8183967 0.5734553 -0.037092965 0.625 0.75
-0.049540214 0.29029807 0.9919104 -0.83464646 0.5494305 0.038616315 0.625 0.5
-0.049540214 0.11506589 -0.22461915 -0.88783556 -0.45940587 0.02634911 0.375 0.75
0.049540214 0.11359373 -0.24964593 0.8825912 -0.46939698 0.026441993 0.125 0.75
0.049540214 0.11506589 -0.22461915 0.887833 -0.45941073 0.02634936 0.125 0.75
0.049540214 0.29625568 -0.22977172 0.8183962 0.57345587 -0.037093326 0.625 0
0.049540214 0.1837511 1.0038159 0.9270925 -0.37149826 0.049887247 0.375 0.25
0.049540214 0.11506589 -0.22461915 0.887833 -0.45941073 0.02634936 0.375 0
-0.049540214 0.1837511 1.0038159 -0.9270882 -0.37150857 0.049887795 0.375 0.5
0.049540214 0.1837511 1.0038159 0.9270925 -0.37149826 0.049887247 0.125 0.5
-0.049540214 0.2059191 1.0308645 -0.99828017 -0.029018389 0.050937906 0.375 0.5
-0.049540214 0.27198157 1.0257064 -0.9974702 0.049157836 0.051348645 0.625 0.5
0.049540214 0.27198157 1.0257064 0.9974703 0.049157783 0.05134762 0.625 0.25
0.049540214 0.2059191 1.0308645 0.9982801 -0.029018473 0.050939146 0.375 0.25
0.049540214 0.29029807 0.9919104 0.834647 0.54942995 0.03861615 0.625 0.25
0.049540214 0.27198157 1.0257064 0.9974703 0.049157783 0.05134762 0.875 0.5
0.049540214 0.2800619 -0.24964593 0.97007054 0.2419578 -0.020486366 0.875 0.75
-0.049540214 0.27491856 -0.57786644 -0.97574884 0.21853836 0.012462597 0.625 0.75
-0.049540214 0.2800619 -0.24964593 -0.9700698 0.24196039 -0.020486556 0.625 0.75
0.049540214 0.29625568 -0.22977172 0.8183962 0.57345587 -0.037093326 0.875 0.75
-0.049540214 0.11359373 -0.24964593 -0.8825945 -0.4693909 0.026441682 0.375 0.75
0.049540214 0.2800619 -0.24964593 0.97007054 0.2419578 -0.020486366 0.625 0
0.049540214 0.27491856 -0.57786644 0.9757483 0.21854046 0.012462563 0.875 0.75
-0.049540214 0.29545924 -0.59847647 -0.82961255 0.5569692 0.039094064 0.625 0.75
0.049540214 0.11359373 -0.24964593 0.8825912 -0.46939698 0.026441993 0.375 0
0.049540214 0.27491856 -0.57786644 0.9757483 0.21854046 0.012462563 0.625 0
0.049540214 0.095937006 -0.5771303 0.9007538 -0.43348348 0.027106056 0.125 0.75
-0.049540214 0.095937006 -0.5771303 -0.9007512 -0.43348897 0.027106367 0.375 0.75
-0.049540214 0.09439521 -0.5984764 -0.93052036 -0.36477107 0.03277185 0.375 0.75
0.049540214 0.076646276 -0.75597185 0.8035224 -0.5947905 0.023999609 0.125 0.75
0.049540214 0.09439521 -0.5984764 0.9305198 -0.36477253 0.032771956 0.125 0.75
0.049540214 0.09439521 -0.5984764 0.9305198 -0.36477253 0.032771956 0.375 0
0.049540214 0.29545924 -0.59847647 0.8296087 0.55697495 0.039093863 0.625 0
0.049540214 0.29545918 -0.75526196 0.8050339 0.59036916 -0.058177143 0.875 0.75
-0.049540214 0.19926019 -0.76033616 -0.99408627 0.050435312 -0.096170045 0.625 0.75
-0.049540214 0.29545918 -0.75526196 -0.8326424 0.5476639 -0.08228551 0.625 0.75
-0.049540214 0.076646276 -0.75597185 -0.8035229 -0.5947898 0.023999667 0.375 0.75
0.049540214 0.29545924 -0.59847647 0.8296087 0.55697495 0.039093863 0.875 0.75
0.049540214 0.29545918 -0.75526196 0.8050339 0.59036916 -0.058177143 0.625 0
0.049540214 0.076646276 -0.7589162 0.8497178 -0.52722913 0.0030352352 0.375 0
0.049540214 0.1622702 -0.79723245 0.9910306 0.13357198 -0.004103388 0.625 0
0.049540214 0.19926019 -0.76033616 0.99961025 0.012966372 -0.02472475 0.625 0
0.049540214 0.076646276 -0.75597185 0.8035224 -0.5947905 0.023999609 0.375 0
0.049540214 0.076646276 -0.7589162 0.8497178 -0.52722913 0.0030352352 0.125 0.75
-0.049540214 0.076646276 -0.7589162 -0.8497161 -0.52723175 0.0030352692 0.375 0.75
0.049540214 0.1622702 -0.79723245 0.9910306 0.13357198 -0.004103388 0.875 0.75
-0.049540214 0.1652886 -0.842259 -0.93529975 0.34866992 0.060362514 0.625 0.75
-0.049540214 0.1622702 -0.79723245 -0.95351297 0.30120975 -0.009252974 0.625 0.75
0.049540214 0.076218985 -0.7958125 0.8459396 -0.5332264 0.0074793664 0.125 0.75
-0.049540214 0.076218985 -0.7958125 -0.8459398 -0.53322583 0.0074793925 0.375 0.75
0.049540214 0.19926019 -0.76033616 0.99961025 0.012966372 -0.02472475 0.875 0.75
-0.049540214 0.07555696 -0.83593184 -0.8795169 -0.4756475 0.014476623 0.375 0.75
0.049540214 0.07462075 -0.856108 0.87979835 -0.4747738 0.02333577 0.125 0.75
0.049540214 0.07555696 -0.83593184 0.8795166 -0.47564784 0.014476571 0.125 0.75
0.049540214 0.07555696 -0.83593184 0.8795166 -0.47564784 0.014476571 0.375 0
0.049540214 0.1652886 -0.842259 0.9927935 0.118081905 0.020443544 0.625 0
0.049540214 0.2618833 -0.8888114 0.99206126 0.11613083 -0.048250258 0.875 0.75
-0.049540214 0.23436774 -0.95625675 -0.9909591 0.12537645 -0.047759447 0.625 0.75
-0.049540214 0.2618833 -0.8888114 -0.9920613 0.11613081 -0.0482502 0.625 0.75
-0.049540214 0.07462075 -0.856108 -0.8797981 -0.47477454 0.023335813 0.375 0.75
-0.049540214 0.28762463 -0.8074702 -0.98965186 0.1176805 0.08210025 0.625 0.75
-0.049540214 0.29036885 -0.8215123 -0.7035167 0.7106597 -0.0051986114 0.625 0.75
0.049540214 0.07462075 -0.856108 0.87979835 -0.4747738 0.02333577 0.375 0
0.049540214 0.2618833 -0.8888114 0.99206126 0.11613083 -0.048250258 0.625 0
0.049540214 0.23436774 -0.95625675 0.990959 0.12537682 -0.04775966 0.875 0.75
-0.049540214 0.21050592 -1.0230707 -0.9900769 0.13201807 -0.04815399 0.625 0.75
0.049540214 0.23436774 -0.95625675 0.990959 0.12537682 -0.04775966 0.625 0
0.049540214 0.07286809 -0.8898162 0.9039463 -0.42679563 0.026953766 0.125 0.75
-0.049540214 0.07286809 -0.8898162 -0.903946 -0.42679638 0.026953878 0.375 0.75
0.049540214 0.28762463 -0.8074702 0.98895675 0.14747487 0.014688208 0.875 0.75
0.049540214 0.29036885 -0.8215123 0.70352346 0.7106531 -0.005197573 0.875 0.75
0.049540214 0.28762463 -0.8074702 0.98895675 0.14747487 0.014688208 0.625 0
0.049540214 0.1652886 -0.842259 0.9927935 0.118081905 0.020443544 0.875 0.75
0.049540214 0.21050592 -1.0230707 0.9900768 0.13201915 -0.048154384 0.875 0.75
-0.049540214 0.19387443 -1.0676967 -0.9899211 0.13333233 -0.047735658 0.625 0.75
0.049540214 0.07286809 -0.8898162 0.9039463 -0.42679563 0.026953766 0.375 0
0.049540214 0.21050592 -1.0230707 0.9900768 0.13201915 -0.048154384 0.625 0
0.049540214 0.066794924 -0.96951157 0.96502143 -0.25991213 0.034340106 0.125 0.75
-0.049540214 0.066794924 -0.96951157 -0.965022 -0.25990987 0.03434014 0.375 0.75
0.049540214 0.05261704 -1.0190448 0.9875762 -0.14997536 0.046910454 0.375 0
0.049540214 0.18004967 -1.1078359 0.9891413 0.13895705 -0.047859564 0.625 0
0.049540214 0.19387443 -1.0676967 0.9899211 0.1333327 -0.04773577 0.625 0
0.049540214 0.066794924 -0.96951157 0.96502143 -0.25991213 0.034340106 0.375 0
0.049540214 0.05261704 -1.0190448 0.9875762 -0.14997536 0.046910454 0.125 0.75
-0.049540214 0.05261704 -1.0190448 -0.9875763 -0.14997506 0.04691047 0.375 0.75
-0.049540214 0.03879228 -1.059184 -0.9932837 -0.10571794 0.047023453 0.375 0.75
0.049540214 0.015028651 -1.09729 0.9964262 -0.06905156 0.048649296 0.125 0.75
0.049540214 0.03879228 -1.059184 0.9932835 -0.10571928 0.047023922 0.125 0.75
-0.049540214 0.18004967 -1.1078359 -0.9891413 0.13895664 -0.04785955 0.625 0.75
0.049540214 0.19387443 -1.0676967 0.9899211 0.1333327 -0.04773577 0.875 0.75
0.049540214 0.16671388 -1.1465554 0.9886786 0.14230661 -0.04757722 0.875 0.75
-0.049540214 0.15117657 -1.1943939 -0.9743342 0.22496939 -0.00784855 0.625 0.75
-0.049540214 0.16671388 -1.1465554 -0.9886786 0.14230643 -0.047577318 0.625 0.75
-0.049540214 0.015028651 -1.09729 -0.9964263 -0.06905043 0.048648626 0.375 0.75
0.049540214 0.18004967 -1.1078359 0.9891413 0.13895705 -0.047859564 0.875 0.75
0.049540214 0.03879228 -1.059184 0.9932835 -0.10571928 0.047023922 0.375 0
0.049540214 0.16671388 -1.1465554 0.9886786 0.14230661 -0.04757722 0.625 0
-0.049540214 -0.020824533 -1.1415952 -0.9975171 -0.050772745 0.04880213 0.375 0.75
0.049540214 -0.052288804 -1.1681969 0.9981101 -0.036894888 0.049141504 0.125 0.75
0.049540214 -0.020824533 -1.1415952 0.9975172 -0.0507722 0.04880191 0.125 0.75
0.049540214 0.015028651 -1.09729 0.9964262 -0.06905156 0.048649296 0.375 0
0.049540214 0.15117657 -1.1943939 0.9743339 0.22497049 -0.007848287 0.625 0
-0.049540214 -0.052288804 -1.1681969 -0.99811006 -0.036895595 0.049141843 0.375 0.75
-0.049540214 0.17523603 -1.267035 -0.99625385 0.07175763 0.048261285 0.625 0.75
-0.049540214 -0.0780286 -1.1850876 -0.9984466 -0.026277483 0.04913331 0.375 0.75
-0.049540214 0.15239437 -1.225412 -0.96818995 0.24878977 0.026681498 0.625 0.75
0.049540214 0.15117657 -1.1943939 0.9743339 0.22497049 -0.007848287 0.875 0.75
0.049540214 -0.020824533 -1.1415952 0.9975172 -0.0507722 0.04880191 0.375 0
0.049540214 0.15239437 -1.225412 0.96819055 0.24878731 0.026681377 0.625 0
0.049540214 0.17523603 -1.267035 0.99625397 0.07175712 0.04826058 0.875 0.75
-0.049540214 0.21075025 -1.3079958 -0.82328326 0.5663614 0.037941277 0.625 0.75
0.049540214 0.15239437 -1.225412 0.96819055 0.24878731 0.026681377 0.875 0.75
0.049540214 -0.052288804 -1.1681969 0.9981101 -0.036894888 0.049141504 0.375 0
0.049540214 0.17523603 -1.267035 0.99625397 0.07175712 0.04826058 0.625 0
0.049540214 -0.0780286 -1.1850876 0.9984465 -0.026277278 0.049133833 0.125 0.75
-0.049540214 -0.099928804 -1.4221406 -0.9929899 -0.11817078 -0.0025792557 0.375 0.75
0.049540214 -0.10488183 -1.4692873 0.9708231 -0.23672515 0.038257655 0.375 1
0.049540214 -0.099928804 -1.4221406 0.99299014 -0.11816954 -0.002579552 0.375 1
0.049540214 -0.099928804 -1.4221406 0.99299014 -0.11816954 -0.002579552 0.375 0
0.049540214 0.21075025 -1.3079958 0.8232798 0.5663662 0.03794247 0.625 0
-0.049540214 -0.11316679 -1.1996176 -0.99860317 -0.018824251 0.049370755 0.375 0.75
0.049540214 -0.11316679 -1.1996176 0.9986031 -0.018824216 0.04937121 0.375 0
0.049540214 -0.13244683 -1.4072154 0.9987789 0.00413668 -0.04922934 0.375 0
0.049540214 -0.11740101 -1.4075217 0.99860907 -0.020750478 -0.04846921 0.375 0
-0.049540214 -0.11740101 -1.4075217 -0.99860907 -0.02075061 -0.048469096 0.375 0.75
0.049540214 -0.11316679 -1.1996176 0.9986031 -0.018824216 0.04937121 0.125 0.75
0.049540214 -0.16796105 -1.2187438 0.998552 -0.020803923 0.04961069 0.375 0
0.049540214 -0.14316517 -1.409235 0.9944673 -0.09058299 -0.053191934 0.375 0
0.049540214 -0.16796105 -1.2187438 0.998552 -0.020803923 0.04961069 0.125 0.75
-0.049540214 -0.13244683 -1.4072154 -0.9987789 0.004136597 -0.049229216 0.375 0.75
-0.049540214 -0.16796105 -1.2187438 -0.99855185 -0.020804282 0.049611803 0.375 0.75
0.049540214 -0.11740101 -1.4075217 0.99860907 -0.020750478 -0.04846921 0.375 1
-0.049540214 -0.19192888 -1.2304797 -0.7012224 -0.7129142 0.0063467952 0.375 0.75
0.049540214 -0.14316517 -1.409235 0.9944673 -0.09058299 -0.053191934 0.125 0.75
0.049540214 -0.19192888 -1.2304797 0.70120645 -0.71293014 0.006336392 0.125 0.75
-0.049540214 -0.14316517 -1.409235 -0.9944668 -0.09058785 -0.053193714 0.375 0.75
0.049540214 -0.13244683 -1.4072154 0.9987789 0.00413668 -0.04922934 0.375 1
0.049540214 0.2102137 -1.5097197 0.83268577 0.5537393 -0.0027112595 0.875 0.75
-0.049540214 0.20379542 -2.4084697 -0.8459678 0.53159827 -0.04173549 0.625 0.75
-0.049540214 0.2102137 -1.5097197 -0.832679 0.55374944 -0.0027113275 0.625 0.75
-0.049540214 -0.10488183 -1.4692873 -0.9708243 -0.23672073 0.03825702 0.375 0.75
0.049540214 0.21075025 -1.3079958 0.8232798 0.5663662 0.03794247 0.875 0.75
0.049540214 0.2102137 -1.5097197 0.83268577 0.5537393 -0.0027112595 0.625 0
0.049540214 -0.3754065 -2.388353 0.7003676 -0.71376556 -0.0049041547 0.375 0
0.049540214 0.17942013 -2.427154 0.99840105 0.02639846 -0.049984876 0.625 0
0.049540214 0.20379542 -2.4084697 0.8459583 0.53161335 -0.041734837 0.625 0
0.049540214 -0.10488183 -1.4692873 0.9708231 -0.23672515 0.038257655 0.375 0
0.049540214 -0.3754065 -2.388353 0.7003676 -0.71376556 -0.0049041547 0.375 1
-0.049540214 -0.3754065 -2.388353 -0.7003594 -0.71377355 -0.004901701 0.375 0.75
-0.049540214 -0.35738346 -2.405271 -0.9983941 -0.02581066 -0.05043036 0.375 0.75
0.049540214 0.06316083 -2.4414182 0.9987679 -0.0020578152 -0.049582887 0.375 1
0.049540214 -0.35738346 -2.405271 0.99839395 -0.025810292 -0.050431825 0.375 1
-0.049540214 0.17942013 -2.427154 -0.99840105 0.026398864 -0.049985945 0.625 0.75
0.049540214 0.20379542 -2.4084697 0.8459583 0.53161335 -0.041734837 0.875 0.75
-0.049540214 0.13093257 -2.4412186 -0.9987319 0.007297094 -0.04981372 0.625 0.75
-0.049540214 0.06316083 -2.4414182 -0.99876773 -0.0020580513 -0.049585246 0.375 0.75
0.049540214 0.17942013 -2.427154 0.99840105 0.02639846 -0.049984876 0.875 0.75
0.049540214 0.06316083 -2.4414182 0.9987679 -0.0020578152 -0.049582887 0.375 0
0.049540214 0.13093257 -2.4412186 0.9987318 0.0072974004 -0.04981607 0.625 0
-0.015141163 0.19926019 -0.76033616 -0.9983705 0.026503656 -0.050536983 0.625 0.75
-0.015141163 0.29545918 -0.75526196 -0.6872515 0.6927882 -0.21847178 0 0
0.049540214 0.28762463 -0.8074702 0.98895675 0.14747487 0.014688208 0 0
-0.015141163 0.28762463 -0.8074702 -0.986887 0.16138434 0.0030469613 0 0
0.049540214 0.29545918 -0.75526196 0.8050339 0.59036916 -0.058177143 0 0
0.049540214 0.1622702 -0.79723245 0.9910306 0.13357198 -0.004103388 0 0
0.049540214 0.1652886 -0.842259 0.9927935 0.118081905 0.020443544 0 0
-0.015141163 0.19926019 -0.76033616 -0.9983705 0.026503656 -0.050536983 0 0
-0.015141163 0.1652886 -0.842259 -0.94862086 0.31177747 0.053976137 0 0
-0.015141163 0.1652886 -0.842259 -0.94862086 0.31177747 0.053976137 0.625 0.75
-0.015141163 0.1622702 -0.79723245 -0.736186 0.67645997 -0.020783398 0.625 0.75
-0.015141163 0.28762463 -0.8074702 -0.986887 0.16138434 0.0030469613 0.625 0.75
0.035814386 0.30762303 -0.26154378 -0.9989652 1.5404997e-06 0.045480635 1 1
0.0351261 0.30024543 2.4428236 -0.9819813 0.18313432 -0.04663272 0.96875 0.5
0.035814267 0.30762303 2.4428236 -0.9989651 3.1995892e-08 -0.04548265 1 0.5
0.033088177 0.29315126 -0.26154378 -0.93089104 0.36188164 0.04983498 0.9375 1
0.03308806 0.29315126 2.4428236 -0.930893 0.36187622 -0.049838122 0.9375 0.5
0.029778574 0.28661332 -0.26154378 -0.8456586 0.5309402 0.054444153 0.90625 1
0.029778456 0.28661332 2.4428236 -0.84565854 0.5309404 -0.05444109 0.90625 0.5
0.025324473 0.28088266 2.4428236 -0.72710276 0.68393284 -0.059645113 0.875 0.5
0.025324592 0.28088266 -0.26154378 -0.7271016 0.6839341 0.05964413 0.875 1
0.019897277 0.2761797 2.4428236 -0.57759035 0.81376266 -0.064649895 0.84375 0.5
0.019897396 0.2761797 -0.26154378 -0.5775869 0.8137651 0.06465109 0.84375 1
0.013705441 0.27268508 2.4428236 -0.40161246 0.9132234 -0.0687778 0.8125 0.5
0.013705561 0.27268508 -0.26154378 -0.4016007 0.913229 0.06877271 0.8125 1
0.006986908 0.27053308 2.4428236 -0.20603466 0.9759304 -0.07148103 0.78125 0.5
0.006987027 0.27053308 -0.26154378 -0.20603198 0.97593075 0.071484834 0.78125 1
-1.3503654e-07 0.26980647 2.4428236 -7.9680984e-07 0.9973737 -0.0724272 0.75 0.5
-1.5722208e-08 0.26980647 -0.26154378 8.153996e-07 0.99737364 0.07242816 0.75 1
-0.006987177 0.27053308 2.4428236 0.20603122 0.9759309 -0.071484365 0.71875 0.5
-0.0137055935 0.27268505 -0.26154378 0.4016041 0.91322756 0.06877148 0.6875 1
-0.013705713 0.27268505 2.4428236 0.4016012 0.91322845 -0.06877702 0.6875 0.5
-0.019897554 0.2761797 2.4428236 0.5775873 0.81376517 -0.06464643 0.65625 0.5
-0.025324624 0.28088263 -0.26154378 0.7271004 0.6839354 0.059643686 0.625 1
-0.025324743 0.28088263 2.4428236 0.727096 0.68393993 -0.059645347 0.625 0.5
-0.029778728 0.28661323 2.4428236 0.84565747 0.530942 -0.05444306 0.59375 0.5
-0.029778609 0.28661323 -0.26154378 0.84565705 0.53094244 0.054444574 0.59375 1
-0.033088338 0.2931512 2.4428236 0.9308915 0.36187997 -0.049838 0.5625 0.5
-0.033088222 0.2931512 -0.26154378 0.93089044 0.3618831 0.049834654 0.5625 1
-0.035126384 0.30024534 2.4428236 0.9819812 0.18313509 -0.046631705 0.53125 0.5
-0.035126265 0.30024534 -0.26154378 0.98198134 0.1831335 0.046634857 0.53125 1
-0.035814542 0.30762297 2.4428236 0.9989652 3.7171992e-07 -0.045482554 0.5 0.5
-0.035814423 0.30762297 -0.26154378 0.9989652 -1.1365883e-06 0.0454807 0.5 1
-0.035126377 0.3150006 2.4428236 0.9819817 -0.18313181 -0.046632946 0.46875 0.5
-0.035126258 0.3150006 -0.26154378 0.98198086 -0.18313566 0.04663495 0.46875 1
-0.033088326 0.32209477 2.4428236 0.93089056 -0.36188242 -0.049837925 0.4375 0.5
-0.033088207 0.32209477 -0.26154378 0.93089026 -0.36188346 0.04983506 0.4375 1
-0.029778715 0.3286327 2.4428236 0.84565735 -0.5309425 -0.05444062 0.40625 0.5
-0.029778598 0.3286327 -0.26154378 0.84565717 -0.53094226 0.05444466 0.40625 1
-0.02532473 0.3343633 2.4428236 0.7271043 -0.68393105 -0.059645236 0.375 0.5
-0.025324613 0.3343633 -0.26154378 0.7271031 -0.6839325 0.059644263 0.375 1
-0.019897534 0.33906633 2.4428236 0.5775923 -0.81376123 -0.06464976 0.34375 0.5
-0.019897416 0.33906633 -0.26154378 0.5775878 -0.8137645 0.06465076 0.34375 1
-0.013705692 0.34256092 2.4428236 0.40160173 -0.9132283 -0.06877656 0.3125 0.5
-0.013705572 0.34256092 -0.26154378 0.40159395 -0.913232 0.06877285 0.3125 1
-0.0069871503 0.34471288 2.4428236 0.20603818 -0.9759297 -0.07148106 0.28125 0.5
-0.0069870306 0.34471288 -0.26154378 0.20602818 -0.9759315 0.07148509 0.28125 1
-1.0345155e-07 0.34543955 2.4428236 4.574151e-06 -0.9973736 -0.07243013 0.25 0.5
1.5862803e-08 0.34543955 -0.26154378 -4.551747e-06 -0.99737364 0.07242809 0.25 1
0.0069869445 0.34471288 2.4428236 -0.2060294 -0.9759313 -0.07148484 0.21875 0.5
0.006987063 0.34471288 -0.26154378 -0.20603874 -0.9759292 0.07148544 0.21875 1
0.013705478 0.34256092 2.4428236 -0.40159315 -0.9132321 -0.06877518 0.1875 0.5
0.013705597 0.34256092 -0.26154378 -0.40160537 -0.9132269 0.068772 0.1875 1
0.019897318 0.33906627 2.4428236 -0.5775919 -0.8137619 -0.06464692 0.15625 0.5
0.019897435 0.33906627 -0.26154378 -0.57759047 -0.8137625 0.0646509 0.15625 1
0.025324503 0.3343633 2.4428236 -0.727102 -0.6839336 -0.059645195 0.125 0.5
0.025324622 0.3343633 -0.26154378 -0.7271014 -0.6839343 0.059644215 0.125 1
0.029778479 0.3286327 2.4428236 -0.84565777 -0.5309415 -0.054443277 0.09375 0.5
0.029778598 0.3286327 -0.26154378 -0.8456573 -0.5309421 0.054444533 0.09375 1
0.033088077 0.32209477 2.4428236 -0.930888 -0.36188912 -0.049837906 0.0625 0.5
-0.033088207 0.32209477 -0.26154378 0.93089026 -0.36188346 0.04983506 0.15815587 0.028268963
-0.0137055935 0.27268505 -0.26154378 0.4016041 0.91322756 0.06877148 0.4717311 0.15815601
0.033088177 0.29315126 -0.26154378 -0.93089104 0.36188164 0.04983498 0.34184402 0.47173107
0.033088196 0.32209477 -0.26154378 -0.9308906 -0.36188293 0.049834535 0.0625 1
0.035126112 0.31500065 2.4428236 -0.98198116 -0.18313526 -0.046631746 0.03125 0.5
0.03512623 0.31500065 -0.26154378 -0.98198134 -0.18313345 0.04663477 0.03125 1
0.035814267 0.30762303 2.4428236 -0.9989651 3.1995892e-08 -0.04548265 0 0.5
-0.035126384 0.30024534 2.4428236 0.9819812 0.18313509 -0.046631705 0.7968216 0.014611527
-0.0069871503 0.34471288 2.4428236 0.20603818 -0.9759297 -0.07148106 0.5146115 0.20317852
0.035126112 0.31500065 2.4428236 -0.98198116 -0.18313526 -0.046631746 0.7031787 0.48538852
0.03581438 0.30762303 -0.7656893 -0.9989652 6.2623116e-08 0.045481507 1 1
0.035126206 0.30024543 -0.583356 -0.9819812 0.1831341 -0.046634268 0.96875 0.5
0.03581437 0.30762303 -0.583356 -0.9989651 2.1370367e-06 -0.045483503 1 0.5
0.03308817 0.29315126 -0.7656893 -0.9308905 0.36188298 0.049835745 0.9375 1
0.033088163 0.29315126 -0.583356 -0.9308907 0.3618819 -0.049838495 0.9375 0.5
0.029778568 0.28661332 -0.7656893 -0.8456575 0.5309417 0.054445166 0.90625 1
0.029778559 0.28661332 -0.583356 -0.8456577 0.5309418 -0.054440867 0.90625 0.5
0.025324587 0.28088266 -0.7656893 -0.72710294 0.6839327 0.059644353 0.875 1
0.025324577 0.28088266 -0.583356 -0.72710174 0.68393373 -0.05964508 0.875 0.5
0.019897388 0.2761797 -0.7656893 -0.57758814 0.8137642 0.06465055 0.84375 1
0.01989738 0.2761797 -0.583356 -0.5775889 0.8137637 -0.06464987 0.84375 0.5
0.013705554 0.27268508 -0.7656893 -0.40160385 0.91322756 0.06877226 0.8125 1
0.013705546 0.27268508 -0.583356 -0.4016027 0.9132278 -0.06877628 0.8125 0.5
0.006987021 0.27053308 -0.7656893 -0.20603763 0.97592956 0.071484506 0.78125 1
0.006987012 0.27053308 -0.583356 -0.2060321 0.97593105 -0.07148038 0.78125 0.5
-2.191278e-08 0.26980647 -0.7656893 -4.04434e-06 0.99737364 0.072427414 0.75 1
-3.0985504e-08 0.26980647 -0.583356 4.0642935e-06 0.9973736 -0.07242835 0.75 0.5
-0.0069870637 0.27053308 -0.7656893 0.20602852 0.97593147 0.071484566 0.71875 1
-0.0069870725 0.27053308 -0.583356 0.20603408 0.9759304 -0.07148395 0.71875 0.5
-0.013705599 0.27268505 -0.7656893 0.4016006 0.91322917 0.0687715 0.6875 1
-0.0137056075 0.27268505 -0.583356 0.40160185 0.91322833 -0.06877566 0.6875 0.5
-0.019897442 0.2761797 -0.7656893 0.5775861 0.8137657 0.06465045 0.65625 1
-0.01989745 0.2761797 -0.583356 0.5775906 0.81376284 -0.06464677 0.65625 0.5
-0.02532463 0.28088263 -0.7656893 0.72710043 0.6839352 0.059644185 0.625 1
-0.025324639 0.28088263 -0.583356 0.7270991 0.6839366 -0.059645362 0.625 0.5
-0.029778615 0.28661323 -0.7656893 0.84565747 0.53094184 0.054444812 0.59375 1
-0.029778624 0.28661323 -0.583356 0.84565717 0.53094256 -0.05444378 0.59375 0.5
-0.033088226 0.2931512 -0.7656893 0.9308909 0.361882 0.04983513 0.5625 1
-0.033088233 0.2931512 -0.583356 0.93089014 0.3618834 -0.049838692 0.5625 0.5
-0.03512627 0.30024534 -0.7656893 0.98198104 0.18313451 0.046636127 0.53125 1
-0.03512628 0.30024534 -0.583356 0.9819812 0.18313447 -0.04663203 0.53125 0.5
-0.035814438 0.30762297 -0.583356 0.99896514 -1.1726179e-06 -0.0454834 0.5 0.5
-0.03581443 0.30762297 -0.7656893 0.99896514 5.917884e-07 0.045481574 0.5 1
-0.035126273 0.3150006 -0.583356 0.9819811 -0.18313499 -0.046633836 0.46875 0.5
-0.035126265 0.3150006 -0.7656893 0.9819812 -0.18313338 0.04663561 0.46875 1
-0.033088222 0.32209477 -0.583356 0.9308907 -0.3618819 -0.049838737 0.4375 0.5
-0.033088215 0.32209477 -0.7656893 0.93089056 -0.36188287 0.049835555 0.4375 1
-0.029778613 0.3286327 -0.583356 0.84565645 -0.5309438 -0.054441188 0.40625 0.5
-0.029778603 0.3286327 -0.7656893 0.84565663 -0.53094316 0.05444489 0.40625 1
-0.025324628 0.3343633 -0.583356 0.7271011 -0.6839345 -0.059645332 0.375 0.5
-0.025324618 0.3343633 -0.7656893 0.7271032 -0.68393254 0.059644204 0.375 1
-0.01989743 0.33906633 -0.583356 0.57759345 -0.8137605 -0.064649805 0.34375 0.5
-0.019897422 0.33906633 -0.7656893 0.57758695 -0.8137651 0.06465015 0.34375 1
-0.013705587 0.34256092 -0.583356 0.40159884 -0.9132296 -0.06877549 0.3125 0.5
-0.013705579 0.34256092 -0.7656893 0.40159574 -0.9132312 0.068772234 0.3125 1
-0.006987046 0.34471288 -0.583356 0.20603617 -0.97593015 -0.07148044 0.28125 0.5
-0.0069870367 0.34471288 -0.7656893 0.20602918 -0.9759314 0.0714843 0.28125 1
5.994994e-10 0.34543955 -0.583356 2.038468e-06 -0.9973737 -0.07242745 0.25 0.5
9.672233e-09 0.34543955 -0.7656893 -2.0185496e-06 -0.99737364 0.072427385 0.25 1
0.0069870483 0.34471288 -0.583356 -0.20603022 -0.97593117 -0.07148396 0.21875 0.5
0.006987057 0.34471288 -0.7656893 -0.20603724 -0.9759296 0.071485035 0.21875 1
0.013705583 0.34256092 -0.583356 -0.40160012 -0.913229 -0.0687755 0.1875 0.5
0.013705592 0.34256092 -0.7656893 -0.40160513 -0.91322714 0.06877159 0.1875 1
0.019897422 0.33906627 -0.583356 -0.5775904 -0.8137629 -0.06464653 0.15625 0.5
0.01989743 0.33906627 -0.7656893 -0.57759076 -0.8137625 0.06465083 0.15625 1
0.025324607 0.3343633 -0.583356 -0.72710127 -0.68393433 -0.05964506 0.125 0.5
0.025324615 0.3343633 -0.7656893 -0.72710174 -0.68393403 0.059644364 0.125 1
0.029778583 0.3286327 -0.583356 -0.84565777 -0.5309414 -0.05444354 0.09375 0.5
0.029778592 0.3286327 -0.7656893 -0.8456551 -0.5309456 0.054445002 0.09375 1
0.03308818 0.32209477 -0.583356 -0.930891 -0.3618813 -0.04983857 0.0625 0.5
-0.033088215 0.32209477 -0.7656893 0.93089056 -0.36188287 0.049835555 0.15815587 0.028268963
-0.013705599 0.27268505 -0.7656893 0.4016006 0.91322917 0.0687715 0.4717311 0.15815601
0.03308817 0.29315126 -0.7656893 -0.9308905 0.36188298 0.049835745 0.34184402 0.47173107
0.033088192 0.32209477 -0.7656893 -0.9308901 -0.36188385 0.04983528 0.0625 1
0.035126217 0.31500065 -0.583356 -0.9819815 -0.18313274 -0.046632435 0.03125 0.5
0.035126228 0.31500065 -0.7656893 -0.981981 -0.1831351 0.04663565 0.03125 1
0.03581437 0.30762303 -0.583356 -0.9989651 2.1370367e-06 -0.045483503 0 0.5
-0.03512628 0.30024534 -0.583356 0.9819812 0.18313447 -0.04663203 0.7968216 0.014611527
-0.006987046 0.34471288 -0.583356 0.20603617 -0.97593015 -0.07148044 0.5146115 0.20317852
0.035126217 0.31500065 -0.583356 -0.9819815 -0.18313274 -0.046632435 0.7031787 0.48538852
0.030668594 0.309117 -0.8119999 -0.9989652 4.2270239e-07 0.045481104 1 1
0.030079281 0.30279937 -0.2410382 -0.9819812 0.18313417 -0.0466336 0.96875 0.5
0.030668572 0.309117 -0.2410382 -0.9989651 8.320972e-07 -0.045483116 1 0.5
0.028334087 0.29672453 -0.8119999 -0.93089044 0.36188316 0.04983557 0.9375 1
0.028334063 0.29672453 -0.2410382 -0.93089056 0.36188248 -0.049838677 0.9375 0.5
0.025500005 0.29112592 -0.8119999 -0.8456592 0.5309389 0.05444518 0.90625 1
0.02549998 0.29112592 -0.2410382 -0.8456586 0.5309403 -0.0544414 0.90625 0.5
0.021685967 0.28621864 -0.8119999 -0.72710407 0.68393135 0.059644863 0.875 1
0.021685943 0.28621864 -0.2410382 -0.72710145 0.68393403 -0.059646264 0.875 0.5
0.017038548 0.28219143 -0.8119999 -0.5775929 0.81376064 0.06465241 0.84375 1
0.017038522 0.28219143 -0.2410382 -0.5775883 0.81376404 -0.0646514 0.84375 0.5
0.011736353 0.27919888 -0.8119999 -0.4016051 0.91322696 0.068774015 0.8125 1
0.011736326 0.27919888 -0.2410382 -0.40160322 0.9132275 -0.06877801 0.8125 0.5
0.005983132 0.2773561 -0.8119999 -0.20603597 0.97592974 0.07148673 0.78125 1
0.005983106 0.2773561 -0.2410382 -0.20603424 0.97593033 -0.07148266 0.78125 0.5
-1.7746137e-08 0.27673388 -0.8119999 1.3699064e-06 0.9973735 0.072430015 0.75 1
-4.364792e-08 0.27673388 -0.2410382 -1.3563115e-06 0.99737346 -0.0724303 0.75 0.5
-0.0059831664 0.2773561 -0.8119999 0.20603275 0.9759304 0.0714863 0.71875 1
-0.005983193 0.2773561 -0.2410382 0.20603591 0.97592974 -0.0714861 0.71875 0.5
-0.011736386 0.27919888 -0.8119999 0.40160304 0.91322786 0.06877369 0.6875 1
-0.0117364125 0.27919888 -0.2410382 0.40160528 0.91322654 -0.068777956 0.6875 0.5
-0.017038591 0.28219143 -0.8119999 0.5775885 0.81376386 0.06465234 0.65625 1
-0.017038615 0.28219143 -0.2410382 0.5775871 0.81376517 -0.06464808 0.65625 0.5
-0.021686006 0.2862186 -0.8119999 0.72709733 0.6839385 0.05964565 0.625 1
-0.021686032 0.2862186 -0.2410382 0.72710013 0.6839356 -0.059645586 0.625 0.5
-0.02550007 0.29112586 -0.2410382 0.84565794 0.530941 -0.054444306 0.59375 0.5
-0.028334133 0.29672447 -0.8119999 0.9308911 0.3618812 0.049835138 0.5625 1
-0.028334158 0.29672447 -0.2410382 0.9308904 0.36188278 -0.049838457 0.5625 0.5
-0.030079352 0.30279934 -0.8119999 0.98198116 0.1831342 0.04663551 0.53125 1
-0.030079376 0.30279934 -0.2410382 0.9819815 0.18313313 -0.04663206 0.53125 0.5
-0.030668663 0.30911696 -0.2410382 0.9989651 4.3835804e-08 -0.04548302 0.5 0.5
-0.030668639 0.30911696 -0.8119999 0.99896526 2.109158e-08 0.04548115 0.5 1
-0.030079372 0.31543455 -0.2410382 0.98198116 -0.18313481 -0.04663343 0.46875 0.5
-0.030079348 0.31543455 -0.8119999 0.98198134 -0.18313311 0.046635404 0.46875 1
-0.028334148 0.32150942 -0.2410382 0.93089 -0.36188382 -0.049838506 0.4375 0.5
-0.028334124 0.32150942 -0.8119999 0.93089086 -0.36188197 0.049835704 0.4375 1
-0.025500061 0.32710803 -0.2410382 0.8456575 -0.530942 -0.054441232 0.40625 0.5
-0.025500037 0.32710803 -0.8119999 0.8456579 -0.53094095 0.054445393 0.40625 1
-0.021686021 0.33201528 -0.2410382 0.7271024 -0.683933 -0.05964614 0.375 0.5
-0.021685995 0.33201528 -0.8119999 0.7271029 -0.6839326 0.059645243 0.375 1
-0.017038599 0.33604255 -0.2410382 0.5775901 -0.8137628 -0.06465118 0.34375 0.5
-0.017038573 0.33604255 -0.8119999 0.5775946 -0.8137595 0.06465245 0.34375 1
-0.011736396 0.33903506 -0.2410382 0.4015989 -0.9132294 -0.06877764 0.3125 0.5
-0.011736369 0.33903506 -0.8119999 0.40160206 -0.9132283 0.06877408 0.3125 1
-0.0059831697 0.34087783 -0.2410382 0.20603146 -0.9759309 -0.07148269 0.28125 0.5
-0.0059831436 0.34087783 -0.8119999 0.2060326 -0.9759305 0.071486406 0.28125 1
-1.6601023e-08 0.34150007 -0.2410382 -1.3490611e-06 -0.9973736 -0.07243018 0.25 0.5
9.300761e-09 0.34150007 -0.8119999 1.3699042e-06 -0.9973735 0.072429895 0.25 1
0.0059831366 0.34087783 -0.2410382 -0.20603417 -0.97593015 -0.07148611 0.21875 0.5
0.0059831627 0.34087783 -0.8119999 -0.20604175 -0.9759285 0.071487114 0.21875 1
0.011736357 0.339035 -0.2410382 -0.4016 -0.9132289 -0.06877834 0.1875 0.5
0.011736384 0.339035 -0.8119999 -0.4016088 -0.91322535 0.06877356 0.1875 1
0.017038558 0.33604252 -0.2410382 -0.5775894 -0.81376356 -0.06464803 0.15625 0.5
0.017038584 0.33604252 -0.8119999 -0.5775877 -0.8137645 0.064652 0.15625 1
0.021685967 0.33201528 -0.2410382 -0.7271046 -0.68393075 -0.05964629 0.125 0.5
0.021685993 0.33201528 -0.8119999 -0.7271009 -0.68393475 0.059645116 0.125 1
0.025500001 0.32710803 -0.2410382 -0.8456585 -0.5309403 -0.054444022 0.09375 0.5
0.025500026 0.32710803 -0.8119999 -0.84566045 -0.53093714 0.05444536 0.09375 1
0.028334081 0.32150942 -0.2410382 -0.93089014 -0.36188352 -0.049838673 0.0625 0.5
-0.028334124 0.32150942 -0.8119999 0.93089086 -0.36188197 0.049835704 0.15815587 0.028268963
-0.011736386 0.27919888 -0.8119999 0.40160304 0.91322786 0.06877369 0.4717311 0.15815601
0.028334087 0.29672453 -0.8119999 -0.93089044 0.36188316 0.04983557 0.34184402 0.47173107
0.028334104 0.32150942 -0.8119999 -0.9308907 -0.36188245 0.049835112 0.0625 1
0.03007929 0.31543463 -0.2410382 -0.9819814 -0.18313378 -0.046632223 0.03125 0.5
0.030079313 0.31543463 -0.8119999 -0.9819814 -0.18313345 0.04663521 0.03125 1
0.030668572 0.309117 -0.2410382 -0.9989651 8.320972e-07 -0.045483116 0 0.5
-0.030079376 0.30279934 -0.2410382 0.9819815 0.18313313 -0.04663206 0.7968216 0.014611527
-0.0059831697 0.34087783 -0.2410382 0.20603146 -0.9759309 -0.07148269 0.5146115 0.20317852
0.03007929 0.31543463 -0.2410382 -0.9819814 -0.18313378 -0.046632223 0.7031787 0.48538852
-0.014906371 0.2806949 -0.7587989 0.23445572 0.96976525 -0.0677189 0.875 0.75
-0.042536076 0.2944579 -0.8099876 -0.6607077 0.7360097 0.14749564 0.875 0.5
-0.042536076 0.2944579 -0.7566726 -0.6553475 0.7400471 -0.15116183 0.875 0.75
-0.014906371 0.2806949 -0.8121138 0.23631193 0.9693136 0.06773274 0.625 0.25
0.026657488 0.3340099 -0.8121138 -0.83611226 -0.5469922 0.041423135 0.375 0.5
-0.014906371 0.3340099 -0.8121138 0.16942842 -0.98305404 0.0699912 0.375 0.25
0.026657488 0.2806949 -0.8121138 -0.8361204 0.5469797 0.04142093 0.625 0.5
0.026657488 0.3340099 -0.7587989 -0.8361204 -0.5469797 -0.04142093 0.375 0.75
0.026657488 0.2806949 -0.7587989 -0.83611226 0.5469922 -0.041423135 0.625 0.75
-0.014906371 0.3340099 -0.7587989 0.16975106 -0.9829977 -0.07000056 0.375 1
-0.014906371 0.3340099 -0.7587989 0.16975106 -0.9829977 -0.07000056 0.125 0.75
-0.014906371 0.3340099 -0.8121138 0.16942842 -0.98305404 0.0699912 0.125 0.5
-0.014906371 0.2806949 -0.8121138 0.23631193 0.9693136 0.06773274 0.875 0.5
-0.042536076 0.2944579 -0.8099876 -0.6607077 0.7360097 0.14749564 0.625 0.25
-0.06103531 0.31218854 -0.8143574 0.85956615 -0.50898135 0.045649685 0.375 0.25
-0.066657394 0.2806949 -0.8121138 0.99002224 -0.13262215 0.047616974 0.625 0.25
-0.03678467 0.3263637 -0.75892216 0.4198754 -0.90499794 -0.06843561 0.125 0.75
-0.03678467 0.3263637 -0.8122371 0.42067605 -0.9046045 0.06872005 0.125 0.5
-0.03678467 0.3263637 -0.8122371 0.42067605 -0.9046045 0.06872005 0.375 0.25
-0.014906371 0.2806949 -0.7587989 0.23445572 0.96976525 -0.0677189 0.625 1
-0.03678467 0.3263637 -0.75892216 0.4198754 -0.90499794 -0.06843561 0.375 1
-0.06103531 0.31218854 -0.7610424 0.8593119 -0.50949717 -0.044673607 0.375 0
-0.042536076 0.2944579 -0.7566726 -0.6553475 0.7400471 -0.15116183 0.625 1
-0.06103531 0.31218854 -0.7610424 0.8593119 -0.50949717 -0.044673607 0.375 1
-0.066657394 0.2806949 -0.7587989 0.9910721 -0.12440491 -0.047954723 0.625 1
-0.053614028 0.19809636 -0.7683421 -0.9528937 0.30242914 -0.023027712 0.625 1
-0.070971064 0.20737198 -0.7704054 0.9658317 -0.22828373 -0.12270191 0.625 1
-0.06103531 0.31218854 -0.7610424 0.8593119 -0.50949717 -0.044673607 0.125 0.75
-0.06103531 0.31218854 -0.8143574 0.85956615 -0.50898135 0.045649685 0.125 0.5
-0.07224957 0.21152635 -0.8287544 0.9831881 -0.17963023 0.03277298 0.625 0.25
-0.0649693 0.17954104 -0.8410157 -0.98136955 0.1386718 0.1329809 0.625 0.25
-0.054892536 0.20225073 -0.8266911 -0.98050344 0.17740405 0.08450301 0.625 0.25
-0.066657394 0.2806949 -0.7587989 0.9910721 -0.12440491 -0.047954723 0.625 0
-0.054892536 0.20225073 -0.8266911 -0.98050344 0.17740405 0.08450301 0.875 0.5
-0.053614028 0.19809636 -0.7683421 -0.9528937 0.30242914 -0.023027712 0.875 0.75
-0.0636908 0.17538667 -0.7826667 -0.99587905 -0.07305263 -0.05374223 0.625 1
-0.081047826 0.18466228 -0.78473 0.85321325 -0.4992947 -0.15077055 0.625 1
-0.070971064 0.20737198 -0.7704054 0.9658317 -0.22828373 -0.12270191 0.625 0
-0.08232634 0.18881667 -0.84307903 0.85446906 -0.518693 0.028987285 0.625 0.25
-0.0636908 0.17538667 -0.7826667 -0.99587905 -0.07305263 -0.05374223 0.875 0.75
-0.061915785 0.16739398 -0.8407069 -0.9533493 -0.28740418 0.09232505 0.875 0.532518
-0.056496862 0.15978731 -0.790257 -0.98638684 0.16426042 -0.0077197547 0.875 0.717482
-0.09205645 0.17855746 -0.842691 0.8999766 -0.43579066 0.01133558 0.875 0.532518
-0.081047826 0.18466228 -0.78473 0.85321325 -0.4992947 -0.15077055 0.875 0.75
-0.08776971 0.17046092 -0.78360784 0.8917984 -0.3752233 -0.2527904 0.875 0.717482
-0.08232634 0.18881667 -0.84307903 0.85446906 -0.518693 0.028987285 0.875 0.5
-0.0649693 0.17954104 -0.8410157 -0.98136955 0.1386718 0.1329809 0.875 0.5
-0.062627204 0.15256785 -0.7952957 -0.5896188 0.8075619 -0.013907907 0.875 0.717482
-0.093021 0.16322182 -0.78689814 0.96969944 0.23856734 -0.052619 0.875 0.717482
-0.07471838 0.15190694 -0.83203745 0.058626305 0.98954767 0.13175151 0.875 0.56566364
-0.09024875 0.15601124 -0.8000056 0.6568618 0.7536446 -0.023504304 0.875 0.6843363
-0.07411148 0.14993487 -0.8043397 -0.051914297 0.9984208 -0.021468913 0.875 0.68433625
-0.065332875 0.15732189 -0.8413491 -0.6129341 0.7609669 0.21269986 0.875 0.532518
-0.09547355 0.16848534 -0.84333324 0.99227995 -0.12328773 0.013438987 0.875 0.532518
-0.090602525 0.15849279 -0.83808506 0.828919 0.5548281 0.07112722 0.87499994 0.5656637
0.039535616 0.049807485 -0.937632 0.9983585 -0.031360146 -0.047925893 0.375 0
0.039535616 0.089712456 -0.8465455 0.8480771 0.5279367 0.045254968 0.625 0.25
0.039535616 0.045542367 -0.9190527 0.9979422 -0.04299336 0.04757108 0.375 0.25
-0.014944243 0.045542367 -0.9190527 -0.99794227 -0.042992346 0.04756976 0.375 0.5
-0.014944243 0.089712456 -0.8465455 -0.8480787 0.52793413 0.04525608 0.625 0.5
-0.014944243 0.049807485 -0.937632 -0.9983584 -0.031361267 -0.047927003 0.375 0.75
-0.014944243 0.089712456 -0.98838705 -0.8452672 0.5324965 -0.04439274 0.625 0.75
0.039535616 0.049807485 -0.937632 0.9983585 -0.031360146 -0.047925893 0.375 1
0.039535616 0.004419558 -0.9261082 0.99879575 0.0046530487 0.048839886 0.375 0.25
0.039535616 0.0018604579 -0.93573076 0.99870634 -0.01001476 -0.04985308 0.375 0
0.039535616 0.089712456 -0.8465455 0.8480771 0.5279367 0.045254968 0.875 0.5
0.039535616 -0.024820393 -0.9155179 0.9982917 0.03232277 0.048672132 0.375 0.25
0.039535616 -0.02737953 -0.9251405 0.9981896 -0.033272643 -0.050102767 0.375 0
-0.014944243 0.0018604579 -0.93573076 -0.9987063 -0.010015006 -0.04985428 0.375 0.75
-0.014944243 0.004419558 -0.9261082 -0.99879587 0.004652584 0.048839543 0.375 0.5
0.039535616 -0.02737953 -0.9251405 0.9981896 -0.033272643 -0.050102767 0.375 1
-0.014944243 -0.04829319 -0.9049235 -0.9964489 -0.06773734 -0.05001349 0.375 0.75
-0.014944243 -0.02737953 -0.9251405 -0.9981896 -0.033272754 -0.050102264 0.375 0.75
-0.014944243 -0.024820393 -0.9155179 -0.9982916 0.03232245 0.048672184 0.375 0.5
0.039535616 0.0018604579 -0.93573076 0.99870634 -0.01001476 -0.04985308 0.375 1
-0.014944243 -0.04573405 -0.89530087 -0.99639064 0.07008815 0.047889274 0.375 0.5
0.039535616 -0.059404768 -0.8684444 0.9868512 0.15562305 0.043659355 0.375 0.25
0.039535616 -0.04573405 -0.89530087 0.9963907 0.07008776 0.04788876 0.375 0.25
0.039535616 -0.04829319 -0.9049235 0.9964489 -0.06773726 -0.050013736 0.375 0
0.039535616 -0.06628329 -0.87354183 0.9633403 -0.26339108 -0.050997004 0.375 0
0.039535616 -0.06441283 -0.84206045 0.95475966 0.29710105 0.012839904 0.375 0.25
0.039535616 -0.06964587 -0.84222144 0.78393024 -0.6205288 -0.019935647 0.375 0
-0.014944243 -0.059404768 -0.8684444 -0.98685086 0.15562503 0.043660052 0.375 0.5
0.039535616 -0.04829319 -0.9049235 0.9964489 -0.06773726 -0.050013736 0.375 1
-0.014944243 -0.06628329 -0.87354183 -0.9633417 -0.26338586 -0.050995924 0.375 0.75
0.039535616 -0.06964587 -0.84222144 0.78393024 -0.6205288 -0.019935647 0.375 1
-0.014944243 -0.068854965 -0.7749437 -0.8441468 -0.5347129 0.038708363 0.375 0.75
-0.014944243 -0.06964587 -0.84222144 -0.78393173 -0.62052685 -0.019936245 0.375 0.75
-0.014944243 -0.06441283 -0.84206045 -0.9547592 0.29710287 0.01283961 0.375 0.5
0.039535616 -0.06628329 -0.87354183 0.9633403 -0.26339108 -0.050997004 0.375 1
0.039535616 -0.06362193 -0.7747827 0.9628939 0.26917592 -0.019485917 0.375 0.25
0.039535616 -0.062025614 -0.7567534 0.99313754 -0.10582618 0.049788255 0.375 0
0.039535616 -0.068854965 -0.7749437 0.84414977 -0.53470814 0.038708925 0.375 0
-0.014944243 -0.06362193 -0.7747827 -0.9628946 0.26917326 -0.01948607 0.375 0.5
0.039535616 -0.056792587 -0.7565924 0.99411833 0.097431876 -0.04728162 0.375 0.25
0.039535616 -0.04781463 -0.73409694 0.9971294 -0.056580685 0.050315354 0.375 0
-0.014944243 -0.062025614 -0.7567534 -0.9931372 -0.105828 0.04978883 0.375 0.75
-0.014944243 -0.056792587 -0.7565924 -0.9941185 0.09743119 -0.04728109 0.375 0.5
0.039535616 -0.068854965 -0.7749437 0.84414977 -0.53470814 0.038708925 0.375 1
0.039535616 -0.04781463 -0.73409694 0.9971294 -0.056580685 0.050315354 0.375 1
-0.014944243 -0.017889977 -0.7144206 -0.9985916 -0.01716487 0.05020129 0.375 0.75
-0.014944243 -0.04781463 -0.73409694 -0.9971293 -0.056581043 0.05031647 0.375 0.75
-0.014944243 -0.043703157 -0.7374025 -0.9976197 0.049288806 -0.04822338 0.375 0.5
0.039535616 -0.062025614 -0.7567534 0.99313754 -0.10582618 0.049788255 0.375 1
0.039535616 -0.043703157 -0.7374025 0.99761957 0.04928918 -0.048224583 0.375 0.25
0.039535616 -0.017889977 -0.7144206 0.99859154 -0.017165704 0.050202716 0.375 0
0.039535616 0.03369 -0.7250801 0.9984928 -0.026308099 -0.048167605 0.375 0.25
0.039535616 0.034288984 -0.7130265 0.99873924 -0.010892581 0.04900303 0.375 0
0.039535616 -0.02044655 -0.72390485 0.9987186 0.013608785 -0.048744325 0.375 0.25
-0.014944243 -0.02044655 -0.72390485 -0.99871844 0.013609206 -0.048746098 0.375 0.5
-0.014944243 0.034288984 -0.7130265 -0.9987392 -0.010892492 0.049003534 0.375 0.75
-0.014944243 0.04834347 -0.7407942 -0.99801826 -0.038079794 -0.05009649 0.375 0.5
-0.014944243 0.03369 -0.7250801 -0.9984927 -0.026308054 -0.048167195 0.375 0.5
0.039535616 -0.017889977 -0.7144206 0.99859154 -0.017165704 0.050202716 0.375 1
0.039535616 0.049676534 -0.70659536 0.99834704 -0.030145144 0.048932113 0.375 1
-0.014944243 0.068894595 -0.69094324 -0.99804926 -0.038089592 0.04946389 0.375 0.75
-0.014944243 0.049676534 -0.70659536 -0.99834704 -0.030145094 0.048932463 0.375 0.75
0.039535616 0.034288984 -0.7130265 0.99873924 -0.010892581 0.04900303 0.375 1
0.039535616 0.04834347 -0.7407942 0.9980182 -0.03807949 -0.05009699 0.375 0.25
0.039535616 0.049676534 -0.70659536 0.99834704 -0.030145144 0.048932113 0.375 0
0.039535616 0.068894595 -0.69094324 0.9980493 -0.03808968 0.049463585 0.375 0
0.039535616 0.08002825 -0.7774427 0.9859026 0.15671119 -0.058632094 0.375 0.25
0.039535616 0.09198122 -0.6741899 0.71940184 0.6943797 0.017257176 0.375 0
0.039535616 0.06854033 -0.7498566 0.99670064 -0.066319466 -0.046790566 0.375 0.25
-0.014944243 0.06854033 -0.7498566 -0.99670064 -0.06631979 -0.04679142 0.375 0.5
-0.014944243 0.08002825 -0.7774427 -0.98590314 0.15670812 -0.058631785 0.375 0.5
0.039535616 0.09198122 -0.6741899 0.71940184 0.6943797 0.017257176 0.125 0.75
0.039535616 0.08002825 -0.7774427 0.9859026 0.15671119 -0.058632094 0.125 0.5
0.039535616 0.068894595 -0.69094324 0.9980493 -0.03808968 0.049463585 0.375 1
-0.014944243 0.09198122 -0.6741899 -0.7193957 0.69438636 0.017251065 0.375 0.75
-0.008011493 0.089761905 -0.7966417 0.8371601 -0.5453599 -0.041779436 0.375 0
-0.008011493 0.06942772 -0.83572876 0.9987735 -0.0063167964 0.049108267 0.625 0.25
-0.008011493 0.089761905 -0.8362636 0.8362963 -0.5467061 0.041482747 0.375 0.25
0.008011493 0.089761905 -0.8362636 -0.836295 -0.54670805 0.04148459 0.375 0.5
0.008011493 0.06942772 -0.83572876 -0.9987735 -0.006316967 0.049107645 0.625 0.5
0.008011493 0.089761905 -0.7966417 -0.83716124 -0.54535836 -0.041777126 0.375 0.75
0.008011493 0.06577152 -0.80029505 -0.98632115 0.15583244 -0.053729597 0.625 0.75
-0.008011493 0.089761905 -0.7966417 0.8371601 -0.5453599 -0.041779436 0.375 1
-0.008011493 0.089761905 -0.7966417 0.8371601 -0.5453599 -0.041779436 0.125 0.75
-0.008011493 0.089761905 -0.8362636 0.8362963 -0.5467061 0.041482747 0.125 0.5
0.008011493 0.064760864 -0.8370523 -0.9958637 -0.07865757 0.045480203 0.625 0.5
0.008011493 0.060431745 -0.83185935 -0.9821614 0.1830477 -0.043040548 0.625 0.75
-0.008011493 0.054543126 -0.8478046 0.9929033 0.109015465 -0.047525775 0.625 1
-0.008011493 0.060431745 -0.83185935 0.982162 0.18304455 -0.04304068 0.625 1
-0.008011493 0.06577152 -0.80029505 0.9863204 0.15583764 -0.053728893 0.625 0
-0.008011493 0.064760864 -0.8370523 0.9958639 -0.07865575 0.04548006 0.625 0.25
-0.008011493 0.06577152 -0.80029505 0.9863204 0.15583764 -0.053728893 0.625 1
0.008011493 0.054543126 -0.8478046 -0.99290305 0.10901782 -0.04752545 0.625 0.75
0.008011493 0.052459702 -0.86693865 -0.9961221 -0.072342455 0.050073557 0.625 0.5
0.008011493 0.047274135 -0.861501 -0.9964309 0.069408655 -0.048041787 0.625 0.75
0.008011493 0.059728697 -0.8532423 -0.99073523 -0.12639667 0.049674485 0.625 0.5
-0.008011493 0.060431745 -0.83185935 0.982162 0.18304455 -0.04304068 0.625 0
-0.008011493 0.059728697 -0.8532423 0.9907353 -0.12639649 0.049673926 0.625 0.25
0.008011493 0.04228195 -0.8772017 -0.99773484 -0.04553303 0.049517695 0.625 0.5
0.008011493 0.037096385 -0.87176406 -0.9979358 0.04156214 -0.0489574 0.625 0.75
-0.008011493 0.054543126 -0.8478046 0.9929033 0.109015465 -0.047525775 0.625 0
-0.008011493 0.052459702 -0.86693865 0.996122 -0.07234319 0.050073568 0.625 0.25
-0.008011493 0.047274135 -0.861501 0.99643105 0.06940633 -0.048041794 0.625 1
-0.008011493 0.026486406 -0.87908226 0.99858135 0.021224992 -0.048833594 0.625 1
-0.008011493 0.037096385 -0.87176406 0.9979357 0.041562013 -0.04895734 0.625 1
-0.008011493 0.047274135 -0.861501 0.99643105 0.06940633 -0.048041794 0.625 0
-0.008011493 0.04228195 -0.8772017 0.9977348 -0.045532897 0.049517684 0.625 0.25
0.008011493 0.026486406 -0.87908226 -0.99858135 0.02122493 -0.04883361 0.625 0.75
0.008011493 0.02093195 -0.8872068 -0.9987548 -0.0059384913 0.049535185 0.625 0.5
0.008011493 0.019710507 -0.88030094 -0.9987573 0.0067888154 -0.049375374 0.625 0.75
0.008011493 0.032200526 -0.885577 -0.998437 -0.024485689 0.050241236 0.625 0.5
-0.008011493 0.037096385 -0.87176406 0.9979357 0.041562013 -0.04895734 0.625 0
-0.008011493 0.032200526 -0.885577 0.9984368 -0.024486551 0.05024142 0.625 0.25
-0.008011493 0.019710507 -0.88030094 0.9987573 0.0067885946 -0.049374044 0.625 0
-0.008011493 0.0050824746 -0.8887147 0.9987631 0.0003606642 0.049722504 0.625 0.25
-0.008011493 0.02093195 -0.8872068 0.99875474 -0.005938657 0.049536407 0.625 0.25
-0.008011493 0.026486406 -0.87908226 0.99858135 0.021224992 -0.048833594 0.625 0
-0.008011493 0.019710507 -0.88030094 0.9987573 0.0067885946 -0.049374044 0.625 1
0.008011493 0.003861031 -0.8818088 -0.99878716 -0.00035712885 -0.049235296 0.625 0.75
-0.008011493 -0.009092574 -0.8803885 0.99872833 -0.011016502 -0.04919704 0.625 1
-0.008011493 0.003861031 -0.8818088 0.9987871 -0.00035717365 -0.049236096 0.625 1
0.008011493 0.0050824746 -0.8887147 -0.99876297 0.0003607093 0.049723312 0.625 0.5
0.008011493 -0.009092574 -0.8803885 -0.9987284 -0.011015815 -0.049196426 0.625 0.75
0.008011493 -0.017854849 -0.8839175 -0.9982892 0.030251265 0.050034735 0.625 0.5
0.008011493 -0.019076295 -0.87701166 -0.9983745 -0.029487262 -0.048772495 0.625 0.75
0.008011493 -0.007871128 -0.88729435 -0.99869996 0.011138224 0.04974055 0.625 0.5
-0.008011493 0.003861031 -0.8818088 0.9987871 -0.00035717365 -0.049236096 0.625 0
-0.008011493 -0.007871128 -0.88729435 0.9987001 0.011137877 0.049739923 0.625 0.25
-0.008011493 -0.033461597 -0.86447555 0.7089404 0.7051523 -0.012795678 0.625 1
-0.008011493 -0.019076295 -0.87701166 0.9983746 -0.029487357 -0.048771486 0.625 1
-0.008011493 -0.009092574 -0.8803885 0.99872833 -0.011016502 -0.04919704 0.625 0
-0.008011493 -0.017854849 -0.8839175 0.99828917 0.030251512 0.05003577 0.625 0.25
-0.008011493 -0.032240156 -0.8713814 0.9847537 0.16586992 0.052412894 0.875 0.5
0.008011493 -0.033461597 -0.86447555 -0.70893353 0.7051592 -0.01279414 0.625 0.75
0.008011493 -0.032240156 -0.8713814 -0.9847542 0.16586734 0.05241228 0.625 0.5
-0.008011493 -0.019076295 -0.87701166 0.9983746 -0.029487357 -0.048771486 0.625 0
-0.008011493 -0.032240156 -0.8713814 0.9847537 0.16586992 0.052412894 0.625 0.25
-0.036921002 0.079209 -0.2588049 0.83611804 0.54698354 -0.041421216 0.625 0
-0.036921002 0.2863245 -0.5847573 0.83611804 -0.54698354 0.041421216 0.375 0.25
-0.036921002 0.2863245 -0.2588049 0.8361239 -0.5469745 -0.04142094 0.375 0
-0.036921002 0.079209 -0.5847573 0.8361239 0.5469745 0.04142094 0.625 0.25
0.036921002 0.2863245 -0.5847573 -0.8361239 -0.5469745 0.04142094 0.375 0.5
0.036921002 0.079209 -0.5847573 -0.83611804 0.54698354 0.041421216 0.625 0.5
0.036921002 0.2863245 -0.2588049 -0.83611804 -0.54698354 -0.041421216 0.375 0.75
0.036921002 0.079209 -0.2588049 -0.8361239 0.5469745 -0.04142094 0.625 0.75
-0.036921002 0.2863245 -0.2588049 0.8361239 -0.5469745 -0.04142094 0.375 1
-0.036921002 0.2863245 -0.2588049 0.8361239 -0.5469745 -0.04142094 0.125 0.75
-0.036921002 0.2863245 -0.5847573 0.83611804 -0.54698354 0.041421216 0.125 0.5
-0.036921002 0.079209 -0.5847573 0.8361239 0.5469745 0.04142094 0.875 0.5
0.049540214 0.2059191 1.0308645 0.9982801 -0.029018473 0.050939146 0.125 0.5
0.049540214 0.095937006 -0.5771303 0.9007538 -0.43348348 0.027106056 0.375 0
0.049540214 0.076218985 -0.7958125 0.8459396 -0.5332264 0.0074793664 0.375 0
0.049540214 0.29036885 -0.8215123 0.70352346 0.7106531 -0.005197573 0.625 0
0.049540214 -0.0780286 -1.1850876 0.9984465 -0.026277278 0.049133833 0.375 0
0.049540214 -0.19192888 -1.2304797 0.70120645 -0.71293014 0.006336392 0.375 0
0.049540214 -0.14316517 -1.409235 0.9944673 -0.09058299 -0.053191934 0.375 1
0.049540214 -0.35738346 -2.405271 0.99839395 -0.025810292 -0.050431825 0.375 0
0.049540214 0.13093257 -2.4412186 0.9987318 0.0072974004 -0.04981607 0.625 1
0.049540214 0.13093257 -2.4412186 0.9987318 0.0072974004 -0.04981607 0.875 0.75
-0.015141163 0.29545918 -0.75526196 -0.6872515 0.6927882 -0.21847178 0.625 0.75
0.049540214 0.19926019 -0.76033616 0.99961025 0.012966372 -0.02472475 0 0
-0.015141163 0.1622702 -0.79723245 -0.736186 0.67645997 -0.020783398 0 0
0.03512622 0.30024543 -0.26154378 -0.98198134 0.18313372 0.04663521 0.96875 1
-0.006987058 0.27053308 -0.26154378 0.20603007 0.97593105 0.07148589 0.71875 1
-0.019897437 0.2761797 -0.26154378 0.5775919 0.8137614 0.064651534 0.65625 1
0.03512622 0.30024543 -0.26154378 -0.98198134 0.18313372 0.04663521 0.29682168 0.48538846
0.035814386 0.30762303 -0.26154378 -0.9989652 1.5404997e-06 0.045480635 0.25 0.49
0.03512623 0.31500065 -0.26154378 -0.98198134 -0.18313345 0.04663477 0.20317869 0.48538852
0.033088196 0.32209477 -0.26154378 -0.9308906 -0.36188293 0.049834535 0.1581563 0.47173122
0.029778598 0.3286327 -0.26154378 -0.8456573 -0.5309421 0.054444533 0.11666341 0.4495529
0.025324622 0.3343633 -0.26154378 -0.7271014 -0.6839343 0.059644215 0.080294594 0.41970584
0.019897435 0.33906627 -0.26154378 -0.57759047 -0.8137625 0.0646509 0.050447464 0.38333708
0.013705597 0.34256092 -0.26154378 -0.40160537 -0.9132269 0.068772 0.028269023 0.34184426
0.006987063 0.34471288 -0.26154378 -0.20603874 -0.9759292 0.07148544 0.014611587 0.29682192
1.5862803e-08 0.34543955 -0.26154378 -4.551747e-06 -0.99737364 0.07242809 0.010000005 0.25000024
-0.0069870306 0.34471288 -0.26154378 0.20602818 -0.9759315 0.07148509 0.0146114975 0.20317852
-0.013705572 0.34256092 -0.26154378 0.40159395 -0.913232 0.06877285 0.028268844 0.15815616
-0.019897416 0.33906633 -0.26154378 0.5775878 -0.8137645 0.06465076 0.050447196 0.11666329
-0.025324613 0.3343633 -0.26154378 0.7271031 -0.6839325 0.059644263 0.08029427 0.080294475
-0.029778598 0.3286327 -0.26154378 0.84565717 -0.53094226 0.05444466 0.116663024 0.050447375
-0.035126258 0.3150006 -0.26154378 0.98198086 -0.18313566 0.04663495 0.20317823 0.014611557
-0.035814423 0.30762297 -0.26154378 0.9989652 -1.1365883e-06 0.0454807 0.24999993 0.010000005
-0.035126265 0.30024534 -0.26154378 0.98198134 0.1831335 0.046634857 0.29682162 0.014611527
-0.033088222 0.2931512 -0.26154378 0.93089044 0.3618831 0.049834654 0.341844 0.028268889
-0.029778609 0.28661323 -0.26154378 0.84565705 0.53094244 0.054444574 0.38333684 0.050447285
-0.025324624 0.28088263 -0.26154378 0.7271004 0.6839354 0.059643686 0.41970563 0.080294386
-0.019897437 0.2761797 -0.26154378 0.5775919 0.8137614 0.064651534 0.4495527 0.11666316
-0.006987058 0.27053308 -0.26154378 0.20603007 0.97593105 0.07148589 0.48538846 0.20317835
-1.5722208e-08 0.26980647 -0.26154378 8.153996e-07 0.99737364 0.07242816 0.49 0.25000003
0.006987027 0.27053308 -0.26154378 -0.20603198 0.97593075 0.071484834 0.48538846 0.29682168
0.013705561 0.27268508 -0.26154378 -0.4016007 0.913229 0.06877271 0.47173107 0.34184402
0.019897396 0.2761797 -0.26154378 -0.5775869 0.8137651 0.06465109 0.4495527 0.38333684
0.025324592 0.28088266 -0.26154378 -0.7271016 0.6839341 0.05964413 0.41970563 0.41970563
0.029778574 0.28661332 -0.26154378 -0.8456586 0.5309402 0.054444153 0.38333684 0.4495527
0.035814386 0.30762303 -0.26154378 -0.9989652 1.5404997e-06 0.045480635 0 1
0.035814267 0.30762303 2.4428236 -0.9989651 3.1995892e-08 -0.04548265 0.75 0.49
0.0351261 0.30024543 2.4428236 -0.9819813 0.18313432 -0.04663272 0.79682165 0.48538846
0.03308806 0.29315126 2.4428236 -0.930893 0.36187622 -0.049838122 0.841844 0.47173107
0.029778456 0.28661332 2.4428236 -0.84565854 0.5309404 -0.05444109 0.88333684 0.4495527
0.025324473 0.28088266 2.4428236 -0.72710276 0.68393284 -0.059645113 0.9197056 0.41970563
0.019897277 0.2761797 2.4428236 -0.57759035 0.81376266 -0.064649895 0.9495527 0.38333684
0.013705441 0.27268508 2.4428236 -0.40161246 0.9132234 -0.0687778 0.97173107 0.34184402
0.006986908 0.27053308 2.4428236 -0.20603466 0.9759304 -0.07148103 0.98538846 0.29682168
-1.3503654e-07 0.26980647 2.4428236 -7.9680984e-07 0.9973737 -0.0724272 0.99 0.25000003
-0.006987177 0.27053308 2.4428236 0.20603122 0.9759309 -0.071484365 0.98538846 0.20317835
-0.013705713 0.27268505 2.4428236 0.4016012 0.91322845 -0.06877702 0.97173107 0.15815601
-0.019897554 0.2761797 2.4428236 0.5775873 0.81376517 -0.06464643 0.9495527 0.11666316
-0.025324743 0.28088263 2.4428236 0.727096 0.68393993 -0.059645347 0.9197056 0.080294386
-0.029778728 0.28661323 2.4428236 0.84565747 0.530942 -0.05444306 0.88333684 0.050447285
-0.033088338 0.2931512 2.4428236 0.9308915 0.36187997 -0.049838 0.84184396 0.028268889
-0.035814542 0.30762297 2.4428236 0.9989652 3.7171992e-07 -0.045482554 0.74999994 0.010000005
-0.035126377 0.3150006 2.4428236 0.9819817 -0.18313181 -0.046632946 0.7031782 0.014611557
-0.033088326 0.32209477 2.4428236 0.93089056 -0.36188242 -0.049837925 0.65815586 0.028268963
-0.029778715 0.3286327 2.4428236 0.84565735 -0.5309425 -0.05444062 0.61666304 0.050447375
-0.02532473 0.3343633 2.4428236 0.7271043 -0.68393105 -0.059645236 0.58029425 0.080294475
-0.019897534 0.33906633 2.4428236 0.5775923 -0.81376123 -0.06464976 0.5504472 0.11666329
-0.013705692 0.34256092 2.4428236 0.40160173 -0.9132283 -0.06877656 0.5282688 0.15815616
-1.0345155e-07 0.34543955 2.4428236 4.574151e-06 -0.9973736 -0.07243013 0.51 0.25000024
0.0069869445 0.34471288 2.4428236 -0.2060294 -0.9759313 -0.07148484 0.5146116 0.29682192
0.013705478 0.34256092 2.4428236 -0.40159315 -0.9132321 -0.06877518 0.52826905 0.34184426
0.019897318 0.33906627 2.4428236 -0.5775919 -0.8137619 -0.06464692 0.55044746 0.38333708
0.025324503 0.3343633 2.4428236 -0.727102 -0.6839336 -0.059645195 0.5802946 0.41970584
0.029778479 0.3286327 2.4428236 -0.84565777 -0.5309415 -0.054443277 0.6166634 0.4495529
0.033088077 0.32209477 2.4428236 -0.930888 -0.36188912 -0.049837906 0.6581563 0.47173122
0.035126213 0.30024543 -0.7656893 -0.981981 0.18313561 0.046635218 0.96875 1
0.035126213 0.30024543 -0.7656893 -0.981981 0.18313561 0.046635218 0.29682168 0.48538846
0.03581438 0.30762303 -0.7656893 -0.9989652 6.2623116e-08 0.045481507 0.25 0.49
0.035126228 0.31500065 -0.7656893 -0.981981 -0.1831351 0.04663565 0.20317869 0.48538852
0.033088192 0.32209477 -0.7656893 -0.9308901 -0.36188385 0.04983528 0.1581563 0.47173122
0.029778592 0.3286327 -0.7656893 -0.8456551 -0.5309456 0.054445002 0.11666341 0.4495529
0.025324615 0.3343633 -0.7656893 -0.72710174 -0.68393403 0.059644364 0.080294594 0.41970584
0.01989743 0.33906627 -0.7656893 -0.57759076 -0.8137625 0.06465083 0.050447464 0.38333708
0.013705592 0.34256092 -0.7656893 -0.40160513 -0.91322714 0.06877159 0.028269023 0.34184426
0.006987057 0.34471288 -0.7656893 -0.20603724 -0.9759296 0.071485035 0.014611587 0.29682192
9.672233e-09 0.34543955 -0.7656893 -2.0185496e-06 -0.99737364 0.072427385 0.010000005 0.25000024
-0.0069870367 0.34471288 -0.7656893 0.20602918 -0.9759314 0.0714843 0.0146114975 0.20317852
-0.013705579 0.34256092 -0.7656893 0.40159574 -0.9132312 0.068772234 0.028268844 0.15815616
-0.019897422 0.33906633 -0.7656893 0.57758695 -0.8137651 0.06465015 0.050447196 0.11666329
-0.025324618 0.3343633 -0.7656893 0.7271032 -0.68393254 0.059644204 0.08029427 0.080294475
-0.029778603 0.3286327 -0.7656893 0.84565663 -0.53094316 0.05444489 0.116663024 0.050447375
-0.035126265 0.3150006 -0.7656893 0.9819812 -0.18313338 0.04663561 0.20317823 0.014611557
-0.03581443 0.30762297 -0.7656893 0.99896514 5.917884e-07 0.045481574 0.24999993 0.010000005
-0.03512627 0.30024534 -0.7656893 0.98198104 0.18313451 0.046636127 0.29682162 0.014611527
-0.033088226 0.2931512 -0.7656893 0.9308909 0.361882 0.04983513 0.341844 0.028268889
-0.029778615 0.28661323 -0.7656893 0.84565747 0.53094184 0.054444812 0.38333684 0.050447285
-0.02532463 0.28088263 -0.7656893 0.72710043 0.6839352 0.059644185 0.41970563 0.080294386
-0.019897442 0.2761797 -0.7656893 0.5775861 0.8137657 0.06465045 0.4495527 0.11666316
-0.0069870637 0.27053308 -0.7656893 0.20602852 0.97593147 0.071484566 0.48538846 0.20317835
-2.191278e-08 0.26980647 -0.7656893 -4.04434e-06 0.99737364 0.072427414 0.49 0.25000003
0.006987021 0.27053308 -0.7656893 -0.20603763 0.97592956 0.071484506 0.48538846 0.29682168
0.013705554 0.27268508 -0.7656893 -0.40160385 0.91322756 0.06877226 0.47173107 0.34184402
0.019897388 0.2761797 -0.7656893 -0.57758814 0.8137642 0.06465055 0.4495527 0.38333684
0.025324587 0.28088266 -0.7656893 -0.72710294 0.6839327 0.059644353 0.41970563 0.41970563
0.029778568 0.28661332 -0.7656893 -0.8456575 0.5309417 0.054445166 0.38333684 0.4495527
0.03581438 0.30762303 -0.7656893 -0.9989652 6.2623116e-08 0.045481507 0 1
0.03581437 0.30762303 -0.583356 -0.9989651 2.1370367e-06 -0.045483503 0.75 0.49
0.035126206 0.30024543 -0.583356 -0.9819812 0.1831341 -0.046634268 0.79682165 0.48538846
0.033088163 0.29315126 -0.583356 -0.9308907 0.3618819 -0.049838495 0.841844 0.47173107
0.029778559 0.28661332 -0.583356 -0.8456577 0.5309418 -0.054440867 0.88333684 0.4495527
0.025324577 0.28088266 -0.583356 -0.72710174 0.68393373 -0.05964508 0.9197056 0.41970563
0.01989738 0.2761797 -0.583356 -0.5775889 0.8137637 -0.06464987 0.9495527 0.38333684
0.013705546 0.27268508 -0.583356 -0.4016027 0.9132278 -0.06877628 0.97173107 0.34184402
0.006987012 0.27053308 -0.583356 -0.2060321 0.97593105 -0.07148038 0.98538846 0.29682168
-3.0985504e-08 0.26980647 -0.583356 4.0642935e-06 0.9973736 -0.07242835 0.99 0.25000003
-0.0069870725 0.27053308 -0.583356 0.20603408 0.9759304 -0.07148395 0.98538846 0.20317835
-0.0137056075 0.27268505 -0.583356 0.40160185 0.91322833 -0.06877566 0.97173107 0.15815601
-0.01989745 0.2761797 -0.583356 0.5775906 0.81376284 -0.06464677 0.9495527 0.11666316
-0.025324639 0.28088263 -0.583356 0.7270991 0.6839366 -0.059645362 0.9197056 0.080294386
-0.029778624 0.28661323 -0.583356 0.84565717 0.53094256 -0.05444378 0.88333684 0.050447285
-0.033088233 0.2931512 -0.583356 0.93089014 0.3618834 -0.049838692 0.84184396 0.028268889
-0.035814438 0.30762297 -0.583356 0.99896514 -1.1726179e-06 -0.0454834 0.74999994 0.010000005
-0.035126273 0.3150006 -0.583356 0.9819811 -0.18313499 -0.046633836 0.7031782 0.014611557
-0.033088222 0.32209477 -0.583356 0.9308907 -0.3618819 -0.049838737 0.65815586 0.028268963
-0.029778613 0.3286327 -0.583356 0.84565645 -0.5309438 -0.054441188 0.61666304 0.050447375
-0.025324628 0.3343633 -0.583356 0.7271011 -0.6839345 -0.059645332 0.58029425 0.080294475
-0.01989743 0.33906633 -0.583356 0.57759345 -0.8137605 -0.064649805 0.5504472 0.11666329
-0.013705587 0.34256092 -0.583356 0.40159884 -0.9132296 -0.06877549 0.5282688 0.15815616
5.994994e-10 0.34543955 -0.583356 2.038468e-06 -0.9973737 -0.07242745 0.51 0.25000024
0.0069870483 0.34471288 -0.583356 -0.20603022 -0.97593117 -0.07148396 0.5146116 0.29682192
0.013705583 0.34256092 -0.583356 -0.40160012 -0.913229 -0.0687755 0.52826905 0.34184426
0.019897422 0.33906627 -0.583356 -0.5775904 -0.8137629 -0.06464653 0.55044746 0.38333708
0.025324607 0.3343633 -0.583356 -0.72710127 -0.68393433 -0.05964506 0.5802946 0.41970584
0.029778583 0.3286327 -0.583356 -0.84565777 -0.5309414 -0.05444354 0.6166634 0.4495529
0.03308818 0.32209477 -0.583356 -0.930891 -0.3618813 -0.04983857 0.6581563 0.47173122
0.030079305 0.30279937 -0.8119999 -0.98198116 0.18313406 0.046635184 0.96875 1
-0.025500046 0.29112586 -0.8119999 0.84565735 0.5309419 0.054445073 0.59375 1
0.030079305 0.30279937 -0.8119999 -0.98198116 0.18313406 0.046635184 0.29682168 0.48538846
0.030668594 0.309117 -0.8119999 -0.9989652 4.2270239e-07 0.045481104 0.25 0.49
0.030079313 0.31543463 -0.8119999 -0.9819814 -0.18313345 0.04663521 0.20317869 0.48538852
0.028334104 0.32150942 -0.8119999 -0.9308907 -0.36188245 0.049835112 0.1581563 0.47173122
0.025500026 0.32710803 -0.8119999 -0.84566045 -0.53093714 0.05444536 0.11666341 0.4495529
0.021685993 0.33201528 -0.8119999 -0.7271009 -0.68393475 0.059645116 0.080294594 0.41970584
0.017038584 0.33604252 -0.8119999 -0.5775877 -0.8137645 0.064652 0.050447464 0.38333708
0.011736384 0.339035 -0.8119999 -0.4016088 -0.91322535 0.06877356 0.028269023 0.34184426
0.0059831627 0.34087783 -0.8119999 -0.20604175 -0.9759285 0.071487114 0.014611587 0.29682192
9.300761e-09 0.34150007 -0.8119999 1.3699042e-06 -0.9973735 0.072429895 0.010000005 0.25000024
-0.0059831436 0.34087783 -0.8119999 0.2060326 -0.9759305 0.071486406 0.0146114975 0.20317852
-0.011736369 0.33903506 -0.8119999 0.40160206 -0.9132283 0.06877408 0.028268844 0.15815616
-0.017038573 0.33604255 -0.8119999 0.5775946 -0.8137595 0.06465245 0.050447196 0.11666329
-0.021685995 0.33201528 -0.8119999 0.7271029 -0.6839326 0.059645243 0.08029427 0.080294475
-0.025500037 0.32710803 -0.8119999 0.8456579 -0.53094095 0.054445393 0.116663024 0.050447375
-0.030079348 0.31543455 -0.8119999 0.98198134 -0.18313311 0.046635404 0.20317823 0.014611557
-0.030668639 0.30911696 -0.8119999 0.99896526 2.109158e-08 0.04548115 0.24999993 0.010000005
-0.030079352 0.30279934 -0.8119999 0.98198116 0.1831342 0.04663551 0.29682162 0.014611527
-0.028334133 0.29672447 -0.8119999 0.9308911 0.3618812 0.049835138 0.341844 0.028268889
-0.025500046 0.29112586 -0.8119999 0.84565735 0.5309419 0.054445073 0.38333684 0.050447285
-0.021686006 0.2862186 -0.8119999 0.72709733 0.6839385 0.05964565 0.41970563 0.080294386
-0.017038591 0.28219143 -0.8119999 0.5775885 0.81376386 0.06465234 0.4495527 0.11666316
-0.0059831664 0.2773561 -0.8119999 0.20603275 0.9759304 0.0714863 0.48538846 0.20317835
-1.7746137e-08 0.27673388 -0.8119999 1.3699064e-06 0.9973735 0.072430015 0.49 0.25000003
0.005983132 0.2773561 -0.8119999 -0.20603597 0.97592974 0.07148673 0.48538846 0.29682168
0.011736353 0.27919888 -0.8119999 -0.4016051 0.91322696 0.068774015 0.47173107 0.34184402
0.017038548 0.28219143 -0.8119999 -0.5775929 0.81376064 0.06465241 0.4495527 0.38333684
0.021685967 0.28621864 -0.8119999 -0.72710407 0.68393135 0.059644863 0.41970563 0.41970563
0.025500005 0.29112592 -0.8119999 -0.8456592 0.5309389 0.05444518 0.38333684 0.4495527
0.030668594 0.309117 -0.8119999 -0.9989652 4.2270239e-07 0.045481104 0 1
0.030668572 0.309117 -0.2410382 -0.9989651 8.320972e-07 -0.045483116 0.75 0.49
0.030079281 0.30279937 -0.2410382 -0.9819812 0.18313417 -0.0466336 0.79682165 0.48538846
0.028334063 0.29672453 -0.2410382 -0.93089056 0.36188248 -0.049838677 0.841844 0.47173107
0.02549998 0.29112592 -0.2410382 -0.8456586 0.5309403 -0.0544414 0.88333684 0.4495527
0.021685943 0.28621864 -0.2410382 -0.72710145 0.68393403 -0.059646264 0.9197056 0.41970563
0.017038522 0.28219143 -0.2410382 -0.5775883 0.81376404 -0.0646514 0.9495527 0.38333684
0.011736326 0.27919888 -0.2410382 -0.40160322 0.9132275 -0.06877801 0.97173107 0.34184402
0.005983106 0.2773561 -0.2410382 -0.20603424 0.97593033 -0.07148266 0.98538846 0.29682168
-4.364792e-08 0.27673388 -0.2410382 -1.3563115e-06 0.99737346 -0.0724303 0.99 0.25000003
-0.005983193 0.2773561 -0.2410382 0.20603591 0.97592974 -0.0714861 0.98538846 0.20317835
-0.0117364125 0.27919888 -0.2410382 0.40160528 0.91322654 -0.068777956 0.97173107 0.15815601
-0.017038615 0.28219143 -0.2410382 0.5775871 0.81376517 -0.06464808 0.9495527 0.11666316
-0.021686032 0.2862186 -0.2410382 0.72710013 0.6839356 -0.059645586 0.9197056 0.080294386
-0.02550007 0.29112586 -0.2410382 0.84565794 0.530941 -0.054444306 0.88333684 0.050447285
-0.028334158 0.29672447 -0.2410382 0.9308904 0.36188278 -0.049838457 0.84184396 0.028268889
-0.030668663 0.30911696 -0.2410382 0.9989651 4.3835804e-08 -0.04548302 0.74999994 0.010000005
-0.030079372 0.31543455 -0.2410382 0.98198116 -0.18313481 -0.04663343 0.7031782 0.014611557
-0.028334148 0.32150942 -0.2410382 0.93089 -0.36188382 -0.049838506 0.65815586 0.028268963
-0.025500061 0.32710803 -0.2410382 0.8456575 -0.530942 -0.054441232 0.61666304 0.050447375
-0.021686021 0.33201528 -0.2410382 0.7271024 -0.683933 -0.05964614 0.58029425 0.080294475
-0.017038599 0.33604255 -0.2410382 0.5775901 -0.8137628 -0.06465118 0.5504472 0.11666329
-0.011736396 0.33903506 -0.2410382 0.4015989 -0.9132294 -0.06877764 0.5282688 0.15815616
-1.6601023e-08 0.34150007 -0.2410382 -1.3490611e-06 -0.9973736 -0.07243018 0.51 0.25000024
0.0059831366 0.34087783 -0.2410382 -0.20603417 -0.97593015 -0.07148611 0.5146116 0.29682192
0.011736357 0.339035 -0.2410382 -0.4016 -0.9132289 -0.06877834 0.52826905 0.34184426
0.017038558 0.33604252 -0.2410382 -0.5775894 -0.81376356 -0.06464803 0.55044746 0.38333708
0.021685967 0.33201528 -0.2410382 -0.7271046 -0.68393075 -0.05964629 0.5802946 0.41970584
0.025500001 0.32710803 -0.2410382 -0.8456585 -0.5309403 -0.054444022 0.6166634 0.4495529
0.028334081 0.32150942 -0.2410382 -0.93089014 -0.36188352 -0.049838673 0.6581563 0.47173122
-0.081047826 0.18466228 -0.78473 0.85321325 -0.4992947 -0.15077055 0.625 0
0.039535616 0.089712456 -0.98838705 0.8452688 0.5324938 -0.04439442 0.625 0
0.039535616 0.089712456 -0.98838705 0.8452688 0.5324938 -0.04439442 0.625 1
0.039535616 0.089712456 -0.98838705 0.8452688 0.5324938 -0.04439442 0.875 0.75
0.039535616 0.09198122 -0.6741899 0.71940184 0.6943797 0.017257176 0.375 1
-0.008011493 -0.033461597 -0.86447555 0.7089404 0.7051523 -0.012795678 0.875 0.75
-0.008011493 -0.033461597 -0.86447555 0.7089404 0.7051523 -0.012795678 0.625 0
-0.036921002 0.079209 -0.2588049 0.83611804 0.54698354 -0.041421216 0.625 1
-0.036921002 0.079209 -0.2588049 0.83611804 0.54698354 -0.041421216 0.875 0.75
3 0 1 2
3 3 4 5
3 6 7 8
3 9 5 10
3 9 1 3
3 2 11 12
3 13 11 14
3 15 14 7
3 10 11 9
3 2 16 0
3 17 18 19
3 20 19 1
3 3 19 21
3 8 22 6
3 23 24 18
3 25 26 22
3 21 27 4
3 21 18 28
3 29 30 31
3 26 32 33
3 28 31 27
3 18 29 28
3 34 35 36
3 29 36 37
3 38 36 24
3 32 39 33
3 40 41 42
3 43 42 39
3 37 44 30
3 37 35 45
3 46 47 48
3 45 49 44
3 45 48 50
3 51 48 35
3 52 53 54
3 41 55 56
3 50 54 49
3 48 52 50
3 57 58 59
3 47 60 52
3 59 61 62
3 56 63 64
3 65 66 58
3 63 67 64
3 60 68 53
3 60 58 69
3 70 62 61
3 59 71 57
3 64 72 56
3 73 61 47
3 74 75 66
3 76 77 67
3 69 78 68
3 69 66 79
3 80 81 82
3 83 82 77
3 79 84 78
3 79 75 85
3 86 87 88
3 85 88 84
3 85 89 86
3 90 89 75
3 91 92 93
3 86 93 94
3 95 93 89
3 96 97 81
3 98 99 100
3 101 102 97
3 94 100 87
3 94 92 98
3 103 104 105
3 98 106 103
3 107 106 92
3 108 109 102
3 110 111 104
3 112 104 106
3 113 114 109
3 103 115 99
3 116 117 118
3 114 119 120
3 116 121 105
3 104 116 105
3 122 123 124
3 118 125 116
3 105 126 115
3 119 122 124
3 127 128 123
3 121 129 126
3 121 130 131
3 132 130 125
3 133 134 135
3 131 135 129
3 131 136 133
3 137 136 130
3 138 139 140
3 116 140 141
3 142 140 111
3 119 143 120
3 144 145 146
3 147 146 143
3 141 148 117
3 141 139 149
3 150 151 152
3 149 152 148
3 149 153 150
3 154 153 139
3 155 151 156
3 153 156 150
3 157 155 153
3 145 158 159
3 36 160 35
3 161 162 163
3 164 165 166
3 167 163 168
3 48 169 47
3 35 170 48
3 47 171 61
3 172 173 174
3 173 175 176
3 176 177 178
3 177 179 178
3 180 181 179
3 182 183 181
3 184 185 183
3 186 187 185
3 188 189 187
3 189 190 191
3 190 192 191
3 192 193 194
3 193 195 194
3 196 197 195
3 198 199 197
3 200 201 199
3 202 203 201
3 204 205 203
3 206 207 205
3 208 209 207
3 210 211 209
3 212 213 211
3 214 215 213
3 216 217 215
3 218 219 217
3 220 221 219
3 222 223 221
3 224 225 223
3 226 227 225
3 228 229 227
3 230 231 232
3 233 234 229
3 235 236 234
3 237 238 239
3 240 241 242
3 241 243 244
3 244 245 246
3 246 247 248
3 248 249 250
3 250 251 252
3 252 253 254
3 254 255 256
3 256 257 258
3 258 259 260
3 260 261 262
3 262 263 264
3 264 265 266
3 266 267 268
3 268 269 270
3 269 271 270
3 272 273 271
3 274 275 273
3 276 277 275
3 278 279 277
3 280 281 279
3 282 283 281
3 284 285 283
3 286 287 285
3 288 289 287
3 290 291 289
3 292 293 291
3 294 295 293
3 296 297 295
3 298 299 297
3 300 301 302
3 303 304 299
3 305 306 304
3 307 308 309
3 310 311 312
3 311 313 314
3 314 315 316
3 316 317 318
3 318 319 320
3 320 321 322
3 322 323 324
3 324 325 326
3 326 327 328
3 328 329 330
3 330 331 332
3 332 333 334
3 333 335 334
3 335 336 337
3 337 338 339
3 338 340 339
3 341 342 340
3 343 344 342
3 345 346 344
3 347 348 346
3 349 350 348
3 351 352 350
3 353 354 352
3 355 356 354
3 357 358 356
3 359 360 358
3 361 362 360
3 363 364 362
3 365 366 364
3 367 368 366
3 369 370 371
3 372 373 368
3 374 375 373
3 376 377 378
3 379 380 381
3 382 383 384
3 385 386 383
3 387 388 386
3 383 389 390
3 391 387 385
3 392 393 394
3 390 395 396
3 382 397 392
3 398 399 388
3 400 394 393
3 401 402 399
3 403 404 405
3 396 406 407
3 408 409 410
3 411 408 394
3 381 412 413
3 394 410 392
3 405 414 415
3 416 417 408
3 418 419 420
3 421 422 423
3 419 424 421
3 423 418 420
3 413 425 418
3 423 426 427
3 428 429 430
3 421 431 419
3 423 432 421
3 430 431 428
3 433 427 429
3 428 432 433
3 430 427 426
3 420 431 426
3 434 435 436
3 435 437 436
3 438 439 437
3 440 441 439
3 434 442 443
3 444 440 438
3 443 445 446
3 441 447 439
3 437 442 436
3 439 448 437
3 449 450 451
3 447 452 448
3 453 451 447
3 448 445 442
3 454 455 456
3 452 456 445
3 446 456 457
3 451 454 452
3 458 459 460
3 457 455 458
3 450 461 454
3 462 463 450
3 464 465 466
3 463 467 461
3 468 466 463
3 461 459 455
3 469 470 471
3 467 469 459
3 459 471 460
3 467 465 472
3 473 474 470
3 472 475 476
3 477 475 465
3 472 473 469
3 478 479 480
3 476 480 481
3 482 480 475
3 476 483 473
3 484 485 486
3 481 487 483
3 483 484 474
3 481 479 488
3 489 490 491
3 479 491 488
3 492 489 479
3 488 485 487
3 493 494 495
3 496 495 489
3 491 497 485
3 486 497 498
3 499 500 501
3 490 502 497
3 498 502 499
3 495 503 490
3 504 505 506
3 494 504 503
3 507 508 494
3 503 500 502
3 509 510 511
3 510 512 511
3 513 514 512
3 515 516 514
3 512 517 518
3 510 519 513
3 520 521 522
3 515 519 520
3 523 524 510
3 515 522 525
3 526 527 528
3 524 529 519
3 520 529 526
3 530 531 524
3 528 532 533
3 534 535 531
3 526 536 521
3 531 527 529
3 533 537 538
3 539 540 535
3 528 538 536
3 535 532 527
3 541 542 543
3 540 544 532
3 533 544 541
3 545 546 540
3 547 548 549
3 550 549 546
3 541 551 537
3 546 542 544
3 552 553 554
3 543 554 551
3 549 555 542
3 543 555 552
3 556 557 558
3 548 559 555
3 552 559 556
3 560 561 548
3 558 562 563
3 564 565 561
3 556 563 553
3 561 557 559
3 566 567 568
3 565 568 557
3 558 568 567
3 569 570 565
3 571 572 573
3 574 575 572
3 576 577 575
3 578 579 577
3 575 580 581
3 582 578 576
3 0 20 1
3 3 21 4
3 6 15 7
3 9 3 5
3 9 2 1
3 2 9 11
3 13 12 11
3 15 13 14
3 10 583 11
3 2 12 16
3 17 23 18
3 20 17 19
3 3 1 19
3 8 25 22
3 23 38 24
3 25 584 26
3 21 28 27
3 21 19 18
3 29 37 30
3 26 584 32
3 28 29 31
3 18 24 29
3 34 51 35
3 29 24 36
3 38 34 36
3 32 43 39
3 40 585 41
3 43 40 42
3 37 45 44
3 37 36 35
3 46 73 47
3 45 50 49
3 45 35 48
3 51 46 48
3 52 60 53
3 41 585 55
3 50 52 54
3 48 47 52
3 57 65 58
3 47 59 60
3 59 47 61
3 56 55 63
3 65 74 66
3 63 76 67
3 60 69 68
3 60 59 58
3 70 71 62
3 59 62 71
3 64 586 72
3 73 70 61
3 74 90 75
3 76 83 77
3 69 79 78
3 69 58 66
3 80 96 81
3 83 80 82
3 79 85 84
3 79 66 75
3 86 94 87
3 85 86 88
3 85 75 89
3 90 95 89
3 91 107 92
3 86 89 93
3 95 91 93
3 96 101 97
3 98 103 99
3 101 108 102
3 94 98 100
3 94 93 92
3 103 106 104
3 98 92 106
3 107 112 106
3 108 113 109
3 110 142 111
3 112 110 104
3 113 587 114
3 103 105 115
3 116 141 117
3 114 587 119
3 116 125 121
3 104 111 116
3 122 127 123
3 118 132 125
3 105 121 126
3 119 587 122
3 127 588 128
3 121 131 129
3 121 125 130
3 132 137 130
3 133 136 134
3 131 133 135
3 131 130 136
3 137 589 136
3 138 154 139
3 116 111 140
3 142 138 140
3 119 147 143
3 144 590 145
3 147 144 146
3 141 149 148
3 141 140 139
3 150 156 151
3 149 150 152
3 149 139 153
3 154 157 153
3 155 591 151
3 153 155 156
3 157 592 155
3 145 590 158
3 36 593 160
3 161 164 162
3 166 162 164
3 164 594 165
3 168 595 167
3 167 161 163
3 48 170 169
3 35 160 170
3 47 169 171
3 172 596 173
3 173 596 175
3 176 175 177
3 177 180 179
3 180 182 181
3 182 184 183
3 184 186 185
3 186 188 187
3 188 597 189
3 189 597 190
3 190 598 192
3 192 598 193
3 193 196 195
3 196 198 197
3 198 200 199
3 200 202 201
3 202 204 203
3 204 206 205
3 206 208 207
3 208 210 209
3 210 212 211
3 212 214 213
3 214 216 215
3 216 218 217
3 218 220 219
3 220 222 221
3 222 224 223
3 224 226 225
3 226 228 227
3 228 233 229
3 232 599 600
3 600 601 602
3 602 603 604
3 604 605 606
3 606 607 608
3 608 609 610
3 610 611 612
3 612 613 230
3 230 614 615
3 615 616 617
3 617 618 619
3 619 620 231
3 231 621 622
3 622 623 624
3 624 625 626
3 626 627 232
3 232 600 602
3 602 604 606
3 606 608 610
3 610 612 230
3 230 615 617
3 617 619 231
3 231 622 624
3 624 626 232
3 232 602 606
3 606 610 230
3 230 617 231
3 231 624 232
3 232 606 230
3 233 235 234
3 235 628 236
3 239 629 630
3 630 631 632
3 632 633 634
3 634 635 636
3 636 637 638
3 638 639 640
3 640 641 642
3 642 643 237
3 237 644 645
3 645 646 647
3 647 648 649
3 649 650 238
3 238 651 652
3 652 653 654
3 654 655 656
3 656 657 239
3 239 630 632
3 632 634 636
3 636 638 640
3 640 642 237
3 237 645 647
3 647 649 238
3 238 652 654
3 654 656 239
3 239 632 636
3 636 640 237
3 237 647 238
3 238 654 239
3 239 636 237
3 240 658 241
3 241 658 243
3 244 243 245
3 246 245 247
3 248 247 249
3 250 249 251
3 252 251 253
3 254 253 255
3 256 255 257
3 258 257 259
3 260 259 261
3 262 261 263
3 264 263 265
3 266 265 267
3 268 267 269
3 269 272 271
3 272 274 273
3 274 276 275
3 276 278 277
3 278 280 279
3 280 282 281
3 282 284 283
3 284 286 285
3 286 288 287
3 288 290 289
3 290 292 291
3 292 294 293
3 294 296 295
3 296 298 297
3 298 303 299
3 302 659 660
3 660 661 662
3 662 663 664
3 664 665 666
3 666 667 668
3 668 669 670
3 670 671 672
3 672 673 300
3 300 674 675
3 675 676 677
3 677 678 679
3 679 680 301
3 301 681 682
3 682 683 684
3 684 685 686
3 686 687 302
3 302 660 662
3 662 664 666
3 666 668 670
3 670 672 300
3 300 675 677
3 677 679 301
3 301 682 684
3 684 686 302
3 302 662 666
3 666 670 300
3 300 677 301
3 301 684 302
3 302 666 300
3 303 305 304
3 305 688 306
3 309 689 690
3 690 691 692
3 692 693 694
3 694 695 696
3 696 697 698
3 698 699 700
3 700 701 702
3 702 703 307
3 307 704 705
3 705 706 707
3 707 708 709
3 709 710 308
3 308 711 712
3 712 713 714
3 714 715 716
3 716 717 309
3 309 690 692
3 692 694 696
3 696 698 700
3 700 702 307
3 307 705 707
3 707 709 308
3 308 712 714
3 714 716 309
3 309 692 696
3 696 700 307
3 307 707 308
3 308 714 309
3 309 696 307
3 310 718 311
3 311 718 313
3 314 313 315
3 316 315 317
3 318 317 319
3 320 319 321
3 322 321 323
3 324 323 325
3 326 325 327
3 328 327 329
3 330 329 331
3 332 331 333
3 333 719 335
3 335 719 336
3 337 336 338
3 338 341 340
3 341 343 342
3 343 345 344
3 345 347 346
3 347 349 348
3 349 351 350
3 351 353 352
3 353 355 354
3 355 357 356
3 357 359 358
3 359 361 360
3 361 363 362
3 363 365 364
3 365 367 366
3 367 372 368
3 371 720 721
3 721 722 723
3 723 724 725
3 725 726 727
3 727 728 729
3 729 730 731
3 731 732 733
3 733 734 369
3 369 735 736
3 736 737 738
3 738 739 740
3 740 741 370
3 370 742 743
3 743 744 745
3 745 746 747
3 747 748 371
3 371 721 723
3 723 725 727
3 727 729 731
3 731 733 369
3 369 736 738
3 738 740 370
3 370 743 745
3 745 747 371
3 371 723 727
3 727 731 369
3 369 738 370
3 370 745 371
3 371 727 369
3 372 374 373
3 374 749 375
3 378 750 751
3 751 752 753
3 753 754 755
3 755 756 757
3 757 758 759
3 759 760 761
3 761 762 763
3 763 764 376
3 376 765 766
3 766 767 768
3 768 769 770
3 770 771 377
3 377 772 773
3 773 774 775
3 775 776 777
3 777 778 378
3 378 751 753
3 753 755 757
3 757 759 761
3 761 763 376
3 376 766 768
3 768 770 377
3 377 773 775
3 775 777 378
3 378 753 757
3 757 761 376
3 376 768 377
3 377 775 378
3 378 757 376
3 379 391 380
3 382 385 383
3 385 387 386
3 387 398 388
3 383 386 389
3 391 379 387
3 392 397 393
3 390 389 395
3 382 384 397
3 398 401 399
3 400 411 394
3 401 403 402
3 403 401 404
3 396 395 406
3 408 417 409
3 411 416 408
3 381 380 412
3 394 408 410
3 405 404 414
3 416 779 417
3 418 425 419
3 421 424 422
3 419 425 424
3 423 422 418
3 413 412 425
3 423 420 426
3 428 433 429
3 421 432 431
3 423 427 432
3 430 426 431
3 433 432 427
3 428 431 432
3 430 429 427
3 420 419 431
3 434 780 435
3 435 438 437
3 438 440 439
3 440 781 441
3 434 436 442
3 444 782 440
3 443 442 445
3 441 453 447
3 437 448 442
3 439 447 448
3 449 462 450
3 447 451 452
3 453 449 451
3 448 452 445
3 454 461 455
3 452 454 456
3 446 445 456
3 451 450 454
3 458 455 459
3 457 456 455
3 450 463 461
3 462 468 463
3 464 477 465
3 463 466 467
3 468 464 466
3 461 467 459
3 469 473 470
3 467 472 469
3 459 469 471
3 467 466 465
3 473 483 474
3 472 465 475
3 477 482 475
3 472 476 473
3 478 492 479
3 476 475 480
3 482 478 480
3 476 481 483
3 484 487 485
3 481 488 487
3 483 487 484
3 481 480 479
3 489 495 490
3 479 489 491
3 492 496 489
3 488 491 485
3 493 507 494
3 496 493 495
3 491 490 497
3 486 485 497
3 499 502 500
3 490 503 502
3 498 497 502
3 495 494 503
3 504 508 505
3 494 508 504
3 507 783 508
3 503 504 500
3 509 523 510
3 510 513 512
3 513 515 514
3 515 525 516
3 512 514 517
3 510 524 519
3 520 526 521
3 515 513 519
3 523 530 524
3 515 520 522
3 526 529 527
3 524 531 529
3 520 519 529
3 530 534 531
3 528 527 532
3 534 539 535
3 526 528 536
3 531 535 527
3 533 541 537
3 539 545 540
3 528 533 538
3 535 540 532
3 541 544 542
3 540 546 544
3 533 532 544
3 545 550 546
3 547 560 548
3 550 547 549
3 541 543 551
3 546 549 542
3 552 556 553
3 543 552 554
3 549 548 555
3 543 542 555
3 556 559 557
3 548 561 559
3 552 555 559
3 560 564 561
3 558 567 562
3 564 569 565
3 556 558 563
3 561 565 557
3 566 784 567
3 565 570 568
3 558 557 568
3 569 785 570
3 571 574 572
3 574 576 575
3 576 578 577
3 578 786 579
3 575 577 580
3 582 787 578
