ply
format ascii 1.0
comment Created in Blender version 4.5.1 LTS
element vertex 332
property float x
property float y
property float z
property float nx
property float ny
property float nz
property float s
property float t
element face 314
property list uchar uint vertex_indices
end_header
0.09793404 0.5872404 -0.92317015 0.13095355 0.9841602 0.119498394 0.875 0.5
-0.09793404 0.5872404 -2.2307453 -0.13095355 0.9841602 -0.119498394 0.625 0.75
-0.09793404 0.5872404 -0.92317015 -0.13095315 0.98416054 0.119496025 0.625 0.5
0.09793404 0.33870572 -2.2307453 0.13095355 -0.9841602 -0.119498394 0.375 1
-0.09793404 0.33870572 -2.2307453 -0.13095315 -0.98416054 -0.119496025 0.375 0.75
0.09793404 0.5872404 -2.2307453 0.13095315 0.98416054 -0.119496025 0.625 0
0.09793404 0.33870572 -0.92317015 0.13095315 -0.98416054 0.119496025 0.375 0.25
0.09793404 0.33870572 -2.2307453 0.13095355 -0.9841602 -0.119498394 0.375 0
-0.09793404 0.33870572 -0.92317015 -0.13095355 -0.9841602 0.119498394 0.375 0.5
0.09793404 0.33870572 -2.2307453 0.13095355 -0.9841602 -0.119498394 0.125 0.75
0.09793404 0.33870572 -0.92317015 0.13095315 -0.98416054 0.119496025 0.125 0.5
0.09793404 0.5872404 -0.92317015 0.13095355 0.9841602 0.119498394 0.625 0.25
0.1185722 0.61741257 1.1218519 0.13095437 0.98416024 0.11949764 0.875 0.5
-0.1185722 0.61741257 -0.3227768 -0.13095437 0.98416024 -0.11949764 0.625 0.75
-0.1185722 0.61741257 1.1218519 -0.13095768 0.98416 0.11949595 0.625 0.5
0.1185722 0.39807576 -0.3227768 0.13095437 -0.98416024 -0.11949764 0.375 1
-0.1185722 0.39807576 -0.3227768 -0.13095768 -0.98416 -0.11949595 0.375 0.75
0.1185722 0.61741257 -0.3227768 0.13095768 0.98416 -0.11949595 0.625 0
0.1185722 0.39807576 1.1218519 0.13095768 -0.98416 0.11949595 0.375 0.25
0.1185722 0.39807576 -0.3227768 0.13095437 -0.98416024 -0.11949764 0.375 0
-0.1185722 0.39807576 1.1218519 -0.13095437 -0.98416024 0.11949764 0.375 0.5
0.1185722 0.39807576 -0.3227768 0.13095437 -0.98416024 -0.11949764 0.125 0.75
0.1185722 0.39807576 1.1218519 0.13095768 -0.98416 0.11949595 0.125 0.5
0.1185722 0.61741257 1.1218519 0.13095437 0.98416024 0.11949764 0.625 0.25
-0.1185722 0.18352908 1.3717477 -0.46178827 -0.7144973 0.52559024 0.625 0.5
0.11251177 0.49134606 0.64272714 0.0851376 0.99629235 -0.012380267 0.875 0.75
-0.12463262 0.49134606 0.64272714 -0.08541125 0.9962692 -0.012354582 0.625 0.75
0.11251177 0.31903884 0.53444624 0.6877676 -0.2544875 -0.67986166 0.375 1
-0.12463262 0.31903884 0.53444624 -0.69105726 -0.26321718 -0.6731691 0.375 0.75
0.11251177 0.31903884 0.53444624 0.6877676 -0.2544875 -0.67986166 0.375 0
0.1185722 0.18352908 1.3717477 0.4680222 -0.70878386 0.5278074 0.625 0.25
0.1185722 0.09246385 0.85284257 0.08880584 -0.99568737 -0.026834514 0.375 0.25
-0.1185722 0.09246385 0.85284257 -0.08838401 -0.99572676 -0.026767733 0.375 0.5
0.11251177 0.31903884 0.53444624 0.6877676 -0.2544875 -0.67986166 0.125 0.75
0.1185722 0.09246385 0.85284257 0.08880584 -0.99568737 -0.026834514 0.125 0.5
0.1185722 0.05213031 2.4653788 0.4401373 0.77966 0.4454319 0.875 0.5
-0.1185722 0.35585457 1.325181 -0.08634862 0.9961885 -0.012339829 0.625 0.75
-0.1185722 0.05213031 2.4653788 -0.44014186 0.7796584 0.4454302 0.625 0.5
0.1185722 0.10000214 0.8443954 0.6888275 -0.08393401 -0.72004974 0.375 1
-0.1185722 0.10000214 0.8443954 -0.6888321 -0.083925195 -0.7200464 0.375 0.75
0.1185722 0.10000214 0.8443954 0.6888275 -0.08393401 -0.72004974 0.375 0
0.1185722 0.05213031 2.4653788 0.4401373 0.77966 0.4454319 0.625 0.25
0.1185722 -0.6387317 2.414976 0.085249715 -0.99624944 0.014817039 0.375 0.25
-0.1185722 -0.6387317 2.414976 -0.08524827 -0.99624956 0.014816304 0.375 0.5
0.1185722 0.10000214 0.8443954 0.6888275 -0.08393401 -0.72004974 0.125 0.75
0.1185722 -0.6387317 2.414976 0.085249715 -0.99624944 0.014817039 0.125 0.5
0.044689193 0.620061 -0.5722686 0.13095011 0.9841613 0.11949349 0.875 0.5
-0.044689193 0.620061 -2.4223976 -0.13095011 0.9841613 -0.11949349 0.625 0.75
-0.044689193 0.620061 -0.5722686 -0.1309455 0.98416156 0.11949614 0.625 0.5
0.044689193 0.5406697 -2.4223976 0.13095011 -0.9841613 -0.11949349 0.375 1
-0.044689193 0.5406697 -2.4223976 -0.1309455 -0.98416156 -0.11949614 0.375 0.75
0.044689193 0.620061 -2.4223976 0.1309455 0.98416156 -0.11949614 0.625 0
0.044689193 0.5406697 -0.5722686 0.1309455 -0.98416156 0.11949614 0.375 0.25
0.044689193 0.5406697 -2.4223976 0.13095011 -0.9841613 -0.11949349 0.375 0
-0.044689193 0.5406697 -0.5722686 -0.13095011 -0.9841613 0.11949349 0.375 0.5
0.044689193 0.5406697 -2.4223976 0.13095011 -0.9841613 -0.11949349 0.125 0.75
0.044689193 0.5406697 -0.5722686 0.1309455 -0.98416156 0.11949614 0.125 0.5
0.044689193 0.620061 -0.5722686 0.13095011 0.9841613 0.11949349 0.625 0.25
0.1185722 0.61741257 -0.62050277 0.13094614 0.9841622 0.1194893 0.875 0.5
-0.1185722 0.61741257 -0.925704 -0.13094614 0.9841622 -0.1194893 0.625 0.75
-0.1185722 0.61741257 -0.62050277 -0.13094974 0.984161 0.11949608 0.625 0.5
0.1185722 0.42334598 -0.925704 0.13094614 -0.9841622 -0.1194893 0.375 1
-0.1185722 0.42334598 -0.925704 -0.13094974 -0.984161 -0.11949608 0.375 0.75
0.1185722 0.61741257 -0.925704 0.13094974 0.984161 -0.11949608 0.625 0
0.1185722 0.42334598 -0.62050277 0.13094974 -0.984161 0.11949608 0.375 0.25
0.1185722 0.42334598 -0.925704 0.13094614 -0.9841622 -0.1194893 0.375 0
-0.1185722 0.42334598 -0.62050277 -0.13094614 -0.9841622 0.1194893 0.375 0.5
0.1185722 0.42334598 -0.925704 0.13094614 -0.9841622 -0.1194893 0.125 0.75
0.1185722 0.42334598 -0.62050277 0.13094974 -0.984161 0.11949608 0.125 0.5
0.1185722 0.61741257 -0.62050277 0.13094614 0.9841622 0.1194893 0.625 0.25
0.1185722 0.61741257 -0.3209002 0.13094613 0.98416275 0.11948578 0.875 0.5
-0.1185722 0.61741257 -0.624104 -0.13094613 0.98416275 -0.11948578 0.625 0.75
-0.1185722 0.61741257 -0.3209002 -0.13094617 0.98416144 0.11949613 0.625 0.5
0.1185722 0.4905303 -0.624104 0.13094613 -0.98416275 -0.11948578 0.375 1
-0.1185722 0.4905303 -0.624104 -0.13094617 -0.98416144 -0.11949613 0.375 0.75
0.1185722 0.61741257 -0.624104 0.13094617 0.98416144 -0.11949613 0.625 0
0.1185722 0.4905303 -0.3209002 0.13094617 -0.98416144 0.11949613 0.375 0.25
0.1185722 0.4905303 -0.624104 0.13094613 -0.98416275 -0.11948578 0.375 0
-0.1185722 0.4905303 -0.3209002 -0.13094613 -0.98416275 0.11948578 0.375 0.5
0.1185722 0.4905303 -0.624104 0.13094613 -0.98416275 -0.11948578 0.125 0.75
0.1185722 0.4905303 -0.3209002 0.13094617 -0.98416144 0.11949613 0.125 0.5
0.1185722 0.61741257 -0.3209002 0.13094613 0.98416275 0.11948578 0.625 0.25
0.1185722 -0.23228428 0.5203388 0.6373864 -0.44017464 0.6324436 0.875 0.5
-0.1185722 0.34216183 0.22401452 -0.08499281 0.99632883 0.010244994 0.625 0.75
-0.1185722 -0.23228428 0.5203388 -0.6373775 -0.44019255 0.6324401 0.625 0.5
0.1185722 0.211301 -0.029668689 0.6373864 0.4401748 -0.63244355 0.375 1
-0.1185722 0.211301 -0.029668689 -0.6373775 0.44019246 -0.63244003 0.375 0.75
0.1185722 0.211301 -0.029668689 0.6373864 0.4401748 -0.63244355 0.375 0
0.1185722 -0.23228428 0.5203388 0.6373864 -0.44017464 0.6324436 0.625 0.25
0.1185722 -0.36314514 0.26665568 0.08499095 -0.9963293 -0.010223517 0.375 0.25
-0.1185722 -0.36314514 0.26665568 -0.08499289 -0.99632883 -0.010244958 0.375 0.5
0.1185722 0.211301 -0.029668689 0.6373864 0.4401748 -0.63244355 0.125 0.75
0.1185722 -0.36314514 0.26665568 0.08499095 -0.9963293 -0.010223517 0.125 0.5
0.1185722 0.49968565 0.3279482 0.13095866 0.9841592 0.11950158 0.875 0.5
-0.1185722 0.49968565 -0.3227768 -0.13095866 0.9841592 -0.11950158 0.625 0.75
-0.1185722 0.49968565 0.3279482 -0.13094549 0.98416156 0.11949614 0.625 0.5
0.1185722 0.28034884 -0.3227768 0.13095866 -0.9841592 -0.11950158 0.375 1
-0.1185722 0.28034884 -0.3227768 -0.13094549 -0.98416156 -0.11949614 0.375 0.75
0.1185722 0.49968565 -0.3227768 0.13094549 0.98416156 -0.11949614 0.625 0
0.1185722 0.28034884 0.3279482 0.13094549 -0.98416156 0.11949614 0.375 0.25
0.1185722 0.28034884 -0.3227768 0.13095866 -0.9841592 -0.11950158 0.375 0
-0.1185722 0.28034884 0.3279482 -0.13095866 -0.9841592 0.11950158 0.375 0.5
0.1185722 0.28034884 -0.3227768 0.13095866 -0.9841592 -0.11950158 0.125 0.75
0.1185722 0.28034884 0.3279482 0.13094549 -0.98416156 0.11949614 0.125 0.5
0.1185722 0.49968565 0.3279482 0.13095866 0.9841592 0.11950158 0.625 0.25
0.1185722 0.5352293 1.0279841 0.13095725 0.98415947 0.119500265 0.875 0.5
-0.1185722 0.5352293 -0.01123333 -0.13095725 0.98415947 -0.119500265 0.625 0.75
-0.1185722 0.5352293 1.0279841 -0.13095087 0.98416084 0.11949608 0.625 0.5
0.1185722 0.31589252 -0.01123333 0.13095725 -0.98415947 -0.119500265 0.375 1
-0.1185722 0.31589252 -0.01123333 -0.13095087 -0.98416084 -0.11949608 0.375 0.75
0.1185722 0.5352293 -0.01123333 0.13095087 0.98416084 -0.11949608 0.625 0
0.1185722 0.31589252 1.0279841 0.13095087 -0.98416084 0.11949608 0.375 0.25
0.1185722 0.31589252 -0.01123333 0.13095725 -0.98415947 -0.119500265 0.375 0
-0.1185722 0.31589252 1.0279841 -0.13095725 -0.98415947 0.119500265 0.375 0.5
0.1185722 0.31589252 -0.01123333 0.13095725 -0.98415947 -0.119500265 0.125 0.75
0.1185722 0.31589252 1.0279841 0.13095087 -0.98416084 0.11949608 0.125 0.5
0.1185722 0.5352293 1.0279841 0.13095725 0.98415947 0.119500265 0.625 0.25
0.1185722 0.30927056 -0.299919 0.13095048 0.98416114 0.119494095 0.875 0.5
-0.1185722 0.30927056 -0.3227768 -0.13095048 0.98416114 -0.11949409 0.625 0.75
-0.1185722 0.30927056 -0.299919 -0.13095364 0.9841605 0.119496 0.625 0.5
0.1185722 0.08993375 -0.3227768 0.13095048 -0.98416114 -0.11949409 0.375 1
-0.1185722 0.08993375 -0.3227768 -0.13095362 -0.9841604 -0.119495995 0.375 0.75
0.1185722 0.30927056 -0.3227768 0.13095362 0.9841604 -0.119495995 0.625 0
0.1185722 0.08993375 -0.299919 0.13095364 -0.9841605 0.119496 0.375 0.25
0.1185722 0.08993375 -0.3227768 0.13095048 -0.98416114 -0.11949409 0.375 0
-0.1185722 0.08993375 -0.299919 -0.13095048 -0.98416114 0.119494095 0.375 0.5
0.1185722 0.08993375 -0.3227768 0.13095048 -0.98416114 -0.11949409 0.125 0.75
0.1185722 0.08993375 -0.299919 0.13095364 -0.9841605 0.119496 0.125 0.5
0.1185722 0.30927056 -0.299919 0.13095048 0.98416114 0.119494095 0.625 0.25
0.1185722 0.30927056 0.2959926 0.1309482 0.98416173 0.11949203 0.875 0.5
-0.1185722 0.30927056 -0.051829696 -0.1309482 0.98416173 -0.11949203 0.625 0.75
-0.1185722 0.30927056 0.2959926 -0.13094968 0.984161 0.11949609 0.625 0.5
0.1185722 0.08993375 -0.051829696 0.1309482 -0.98416173 -0.11949203 0.375 1
-0.1185722 0.08993375 -0.051829696 -0.13094966 -0.984161 -0.119496085 0.375 0.75
0.1185722 0.30927056 -0.051829696 0.13094966 0.984161 -0.119496085 0.625 0
0.1185722 0.08993375 0.2959926 0.13094968 -0.984161 0.11949609 0.375 0.25
0.1185722 0.08993375 -0.051829696 0.1309482 -0.98416173 -0.11949203 0.375 0
-0.1185722 0.08993375 0.2959926 -0.1309482 -0.98416173 0.11949203 0.375 0.5
0.1185722 0.08993375 -0.051829696 0.1309482 -0.98416173 -0.11949203 0.125 0.75
0.1185722 0.08993375 0.2959926 0.13094968 -0.984161 0.11949609 0.125 0.5
0.1185722 0.30927056 0.2959926 0.1309482 0.98416173 0.11949203 0.625 0.25
0.1185722 0.100964785 0.054693222 0.13094993 0.984162 0.11948818 0.875 0.5
-0.1185722 0.100964785 -0.3227768 -0.13094993 0.984162 -0.11948818 0.625 0.75
-0.1185722 0.100964785 0.054693222 -0.13094617 0.98416144 0.11949613 0.625 0.5
0.1185722 0.08767715 -0.3227768 0.13094994 -0.984162 -0.11948818 0.375 1
-0.1185722 0.08767715 -0.3227768 -0.13094617 -0.9841614 -0.11949614 0.375 0.75
0.1185722 0.100964785 -0.3227768 0.13094617 0.9841614 -0.11949614 0.625 0
0.1185722 0.08767715 0.054693222 0.13094616 -0.98416144 0.11949613 0.375 0.25
0.1185722 0.08767715 -0.3227768 0.13094994 -0.984162 -0.11948818 0.375 0
-0.1185722 0.08767715 0.054693222 -0.13094994 -0.984162 0.11948818 0.375 0.5
0.1185722 0.08767715 -0.3227768 0.13094994 -0.984162 -0.11948818 0.125 0.75
0.1185722 0.08767715 0.054693222 0.13094616 -0.98416144 0.11949613 0.125 0.5
0.1185722 0.100964785 0.054693222 0.13094993 0.984162 0.11948818 0.625 0.25
0.06484563 0.1643422 -0.108040094 0.7130689 0.04219716 0.6998229 0.875 0.5
-0.06484563 0.17625406 -0.120702624 -0.08459895 0.9964147 -0.0008496485 0.625 0.75
-0.06484563 0.1643422 -0.108040094 -0.7130644 0.042178605 0.6998286 0.625 0.5
0.06484563 0.13326061 -0.16114724 0.71306896 -0.042199332 -0.6998227 0.375 1
-0.06484563 0.13326061 -0.16114724 -0.7130646 -0.042171236 -0.6998289 0.375 0.75
0.06484563 0.13326061 -0.16114724 0.71306896 -0.042199332 -0.6998227 0.375 0
0.06484563 0.1643422 -0.108040094 0.7130689 0.04219716 0.6998229 0.625 0.25
0.06484563 0.12134871 -0.14848459 0.0845975 -0.99641484 0.0008853358 0.375 0.25
-0.06484563 0.12134871 -0.14848459 -0.08459891 -0.9964148 0.0008497917 0.375 0.5
0.06484563 0.13326061 -0.16114724 0.71306896 -0.042199332 -0.6998227 0.125 0.75
0.06484563 0.12134871 -0.14848459 0.0845975 -0.99641484 0.0008853358 0.125 0.5
0.06484562 0.2831528 -0.18415332 -0.700563 -0.18651886 0.6887831 0.875 0.5
-0.06484562 0.3237466 -0.13088465 0.08535224 -0.9963138 0.008584561 0.625 0.75
-0.06484562 0.2831528 -0.18415332 0.70054764 -0.1865267 0.6887967 0.625 0.5
0.06484562 0.28878915 -0.04190862 -0.62551486 -0.43960765 -0.64457446 0.375 1
-0.06484562 0.28878915 -0.04190862 0.6255004 -0.439618 -0.64458156 0.375 0.75
0.06484562 0.28878915 -0.04190862 -0.62551486 -0.43960765 -0.64457446 0.375 0
0.06484562 0.2831528 -0.18415332 -0.700563 -0.18651886 0.6887831 0.625 0.25
0.06484562 0.21069413 -0.12893581 -0.08458826 0.9964127 0.0025545475 0.375 0.25
-0.06484562 0.21069413 -0.12893581 0.084590964 0.99641246 0.0025516509 0.375 0.5
0.06484562 0.28878915 -0.04190862 -0.62551486 -0.43960765 -0.64457446 0.125 0.75
0.06484562 0.21069413 -0.12893581 -0.08458826 0.9964127 0.0025545475 0.125 0.5
0.06484562 0.24700648 -0.107414246 0.13095412 0.9841606 0.11949444 0.875 0.5
-0.06484562 0.24700648 -0.1322788 -0.13095412 0.9841606 -0.11949444 0.625 0.75
-0.06484562 0.24700648 -0.107414246 -0.13095419 0.98416036 0.119495995 0.625 0.5
0.06484562 0.16532227 -0.1322788 0.13095412 -0.9841606 -0.11949444 0.375 1
-0.06484562 0.16532227 -0.1322788 -0.13095419 -0.98416036 -0.119495995 0.375 0.75
0.06484562 0.24700648 -0.1322788 0.13095419 0.98416036 -0.119495995 0.625 0
0.06484562 0.16532227 -0.107414246 0.13095419 -0.98416036 0.119495995 0.375 0.25
0.06484562 0.16532227 -0.1322788 0.13095412 -0.9841606 -0.11949444 0.375 0
-0.06484562 0.16532227 -0.107414246 -0.13095412 -0.9841606 0.11949444 0.375 0.5
0.06484562 0.16532227 -0.1322788 0.13095412 -0.9841606 -0.11949444 0.125 0.75
0.06484562 0.16532227 -0.107414246 0.13095419 -0.98416036 0.119495995 0.125 0.5
0.06484562 0.24700648 -0.107414246 0.13095412 0.9841606 0.11949444 0.625 0.25
0.0050600027 0.7211124 -2.4498506 0.69200593 0.34962037 -0.63158 0.621144 1
-0.015471094 0.6994309 -2.4498506 -0.73355466 0.1759379 -0.65646285 0.61243683 0.75
-0.0050600027 0.7211124 -2.4498506 -0.6920178 0.3496271 -0.6315633 0.62114406 0.75
0.0050600027 0.7211124 -2.3543277 0.6920198 0.34962 0.63156515 0.621144 0.25
0.015471094 0.6994309 -2.4498506 0.7335511 0.17593536 -0.6564675 0.61243683 0
0.0050600027 0.7211124 -2.4498506 0.69200593 0.34962037 -0.63158 0.621144 0
-0.015471094 0.62006104 -2.3543277 -0.13095893 -0.98415875 0.11950413 0.375 0.5
0.015471094 0.62006104 -2.4498506 0.13095893 -0.98415875 -0.11950413 0.125 0.75
0.015471094 0.62006104 -2.3543277 0.13095188 -0.9841607 0.11949603 0.125 0.5
-0.0023324324 0.726256 -2.3543277 -0.7178115 0.18650132 0.6707935 0.625 0.5
-0.002493471 0.74240553 -2.4498506 -0.13112347 0.98413146 -0.119548276 0.625 0.75
-0.0023324324 0.726256 -2.4498506 -0.71780133 0.18647914 -0.67081046 0.625 0.75
-0.015471094 0.6994309 -2.3543277 -0.7335507 0.17593797 0.65646714 0.61243683 0.5
-0.015471094 0.62006104 -2.4498506 -0.13095188 -0.9841607 -0.11949603 0.375 0.75
0.002493471 0.74240553 -2.3543277 0.13112347 0.98413146 0.119548276 0.875 0.5
-0.002493471 0.74240553 -2.3543277 -0.13112223 0.98413134 0.11955191 0.625 0.5
0.015471094 0.62006104 -2.3543277 0.13095188 -0.9841607 0.11949603 0.375 0.25
0.015471094 0.62006104 -2.4498506 0.13095893 -0.98415875 -0.11950413 0.375 0
0.015471094 0.62006104 -2.4498506 0.13095893 -0.98415875 -0.11950413 0.375 1
0.002493471 0.74240553 -2.4498506 0.13112223 0.98413134 -0.11955191 0.625 1
0.0023324324 0.726256 -2.4498506 0.71781373 0.18648554 -0.67079556 0.625 1
0.0023324324 0.726256 -2.3543277 0.7177986 0.18649931 0.67080784 0.625 0.25
0.0023324324 0.726256 -2.4498506 0.71781373 0.18648554 -0.67079556 0.625 0
0.002493471 0.74240553 -2.3543277 0.13112347 0.98413146 0.119548276 0.625 0.25
-0.0050600027 0.7211124 -2.4498506 -0.6920178 0.3496271 -0.6315633 0.621144 0.75
-0.0050600027 0.7211124 -2.3543277 -0.6920083 0.34961194 0.6315822 0.621144 0.5
0.015471094 0.6994309 -2.3543277 0.7335543 0.1759403 0.65646243 0.61243683 0.25
0.0050600027 0.7211124 -2.3543277 0.6920198 0.34962 0.63156515 0.62114406 0.25
0.058291655 0.66319263 0.8965709 0.73869294 0 0.674042 0.625 0.25
0 0.7252821 0.8965709 -2.3826085e-06 0.69956475 0.7145691 0.625 0.375
-0.058291655 0.74240553 0.8965709 -0.13095245 0.98416173 0.11948649 0.625 0.5
-0.058291655 0.66319263 0.8010478 -0.73869306 0 -0.67404205 0.625 0.75
0.058291655 0.62006104 0.8010478 0.13094829 -0.98416233 -0.11948607 0.375 1
-0.058291655 0.62006104 0.8010478 -0.13094671 -0.9841614 -0.11949612 0.375 0.75
0.058291655 0.66319263 0.8010478 0.7386711 0 -0.67406607 0.625 0
0.058291655 0.62006104 0.8965709 0.13094671 -0.9841614 0.11949612 0.375 0.25
0.058291655 0.62006104 0.8010478 0.13094829 -0.98416233 -0.11948607 0.375 0
-0.058291655 0.62006104 0.8965709 -0.13094829 -0.98416233 0.11948607 0.375 0.5
0.058291655 0.62006104 0.8010478 0.13094829 -0.98416233 -0.11948607 0.125 0.75
0.058291655 0.62006104 0.8965709 0.13094671 -0.9841614 0.11949612 0.125 0.5
-0.058291655 0.66319263 0.8965709 -0.7386711 0 0.67406607 0.625 0.5
0.058291655 0.74240553 0.82492876 0.13189526 0.9912636 0 0.875 0.6875
0.029145828 0.74240553 0.8010478 -0.10502866 0.9881193 -0.11220142 0.8125 0.75
0.029145828 0.74240553 0.82492876 -0.105696924 0.9943984 0 0.8125 0.6875
0 0.7252821 0.8010478 2.3866062e-06 0.69956475 -0.7145691 0.625 0.875
0.058291655 0.74240553 0.8010478 0.13095245 0.98416173 -0.11948649 0.625 1
0.058291655 0.74240553 0.84880924 0.13189526 0.9912636 0 0.625 0.125
0.058291655 0.74240553 0.8726902 0.13189526 0.9912636 0 0.625 0.1875
-0.058291655 0.74240553 0.84880924 -0.1318953 0.9912637 0 0.625 0.625
-0.058291655 0.74240553 0.82492876 -0.1318953 0.9912637 0 0.625 0.6875
0 0.7252821 0.82492876 7.428848e-08 1 0 0.75 0.6875
-0.029145828 0.74240553 0.8010478 0.105030164 0.988119 -0.11220352 0.6875 0.75
-0.029145828 0.74240553 0.82492876 0.10569677 0.99439836 0 0.6875 0.6875
0 0.7252821 0.8726902 -9.143229e-08 1 0 0.75 0.5625
-0.029145828 0.74240553 0.84880924 0.10569693 0.99439836 0 0.6875 0.625
-0.029145828 0.74240553 0.8726902 0.105697 0.9943984 0 0.6875 0.5625
0.058291655 0.74240553 0.8726902 0.13189526 0.9912636 0 0.875 0.5625
0.029145828 0.74240553 0.84880924 -0.10569694 0.99439836 0 0.8125 0.625
0.029145828 0.74240553 0.8726902 -0.10569684 0.9943984 0 0.8125 0.5625
0 0.7252821 0.84880924 2.2858089e-08 1 0 0.75 0.625
0.029145828 0.74240553 0.8965709 -0.10503018 0.988119 0.11220354 0.8125 0.5
0 0.7252821 0.8965709 -2.3826085e-06 0.69956475 0.7145691 0.75 0.5
0.058291655 0.74240553 0.8965709 0.13094772 0.98416173 0.11949227 0.875 0.5
-0.058291655 0.74240553 0.8726902 -0.1318953 0.9912637 0 0.625 0.5625
-0.029145828 0.74240553 0.8965709 0.10502866 0.9881193 0.11220142 0.6875 0.5
-0.058291655 0.74240553 0.8010478 -0.13094772 0.98416173 -0.11949227 0.625 0.75
0 0.7252821 0.8010478 2.3866062e-06 0.69956475 -0.7145691 0.75 0.75
0.058291655 0.74240553 0.84880924 0.13189526 0.9912636 0 0.875 0.625
0.052091394 0.64554167 -2.3314981 0.13094555 0.9841622 0.11949107 0.875 0.5
-0.052091394 0.64554167 -2.4585128 -0.13094555 0.9841622 -0.11949107 0.625 0.75
-0.052091394 0.64554167 -2.3314981 -0.13095315 0.98416054 0.119496025 0.625 0.5
0.052091394 0.515189 -2.4585128 0.13094553 -0.9841622 -0.11949107 0.375 1
-0.052091394 0.515189 -2.4585128 -0.13095315 -0.98416054 -0.119496025 0.375 0.75
0.052091394 0.64554167 -2.4585128 0.13095315 0.98416054 -0.119496025 0.625 0
0.052091394 0.515189 -2.3314981 0.13095315 -0.98416054 0.119496025 0.375 0.25
0.052091394 0.515189 -2.4585128 0.13094553 -0.9841622 -0.11949107 0.375 0
-0.052091394 0.515189 -2.3314981 -0.13094553 -0.9841622 0.11949107 0.375 0.5
0.052091394 0.515189 -2.4585128 0.13094553 -0.9841622 -0.11949107 0.125 0.75
0.052091394 0.515189 -2.3314981 0.13095315 -0.98416054 0.119496025 0.125 0.5
0.052091394 0.64554167 -2.3314981 0.13094555 0.9841622 0.11949107 0.625 0.25
-0.07537216 -0.7797735 -0.3286549 0.13095395 0.98416036 -0.11949599 0.625 0
-0.07537216 0.50092477 -0.57308674 0.13095395 -0.98416036 0.11949599 0.375 0.25
-0.07537216 0.50092477 -0.3286549 0.13095024 -0.984161 -0.11949538 0.375 0
-0.07537216 -0.7797735 -0.57308674 0.13095024 0.984161 0.11949538 0.625 0.25
0.07537216 0.50092477 -0.57308674 -0.13095024 -0.984161 0.11949538 0.375 0.5
0.07537216 -0.7797735 -0.57308674 -0.13095395 0.98416036 0.11949599 0.625 0.5
0.07537216 0.50092477 -0.3286549 -0.13095395 -0.98416036 -0.11949599 0.375 0.75
0.07537216 -0.7797735 -0.3286549 -0.13095024 0.984161 -0.11949538 0.625 0.75
-0.07537216 0.50092477 -0.3286549 0.13095024 -0.984161 -0.11949538 0.375 1
-0.07537216 0.50092477 -0.3286549 0.13095024 -0.984161 -0.11949538 0.125 0.75
-0.07537216 0.50092477 -0.57308674 0.13095395 -0.98416036 0.11949599 0.125 0.5
-0.07537216 -0.7797735 -0.57308674 0.13095024 0.984161 0.11949538 0.875 0.5
0.09793404 0.5872404 -2.2307453 0.13095315 0.98416054 -0.119496025 0.875 0.75
0.09793404 0.5872404 -2.2307453 0.13095315 0.98416054 -0.119496025 0.625 1
0.1185722 0.61741257 -0.3227768 0.13095768 0.98416 -0.11949595 0.875 0.75
0.1185722 0.61741257 -0.3227768 0.13095768 0.98416 -0.11949595 0.625 1
0.1185722 0.18352908 1.3717477 0.4680222 -0.70878386 0.5278074 0.875 0.5
0.11251177 0.49134606 0.64272714 0.0851376 0.99629235 -0.012380267 0.625 1
0.11251177 0.49134606 0.64272714 0.0851376 0.99629235 -0.012380267 0.625 0
0.1185722 0.35585457 1.325181 0.08634949 0.99618846 -0.012341033 0.875 0.75
0.1185722 0.35585457 1.325181 0.08634949 0.99618846 -0.012341033 0.625 1
0.1185722 0.35585457 1.325181 0.08634949 0.99618846 -0.012341033 0.625 0
0.044689193 0.620061 -2.4223976 0.1309455 0.98416156 -0.11949614 0.875 0.75
0.044689193 0.620061 -2.4223976 0.1309455 0.98416156 -0.11949614 0.625 1
0.1185722 0.61741257 -0.925704 0.13094974 0.984161 -0.11949608 0.875 0.75
0.1185722 0.61741257 -0.925704 0.13094974 0.984161 -0.11949608 0.625 1
0.1185722 0.61741257 -0.624104 0.13094617 0.98416144 -0.11949613 0.875 0.75
0.1185722 0.61741257 -0.624104 0.13094617 0.98416144 -0.11949613 0.625 1
0.1185722 0.34216183 0.22401452 0.084990844 0.99632925 0.010223541 0.875 0.75
0.1185722 0.34216183 0.22401452 0.084990844 0.99632925 0.010223541 0.625 1
0.1185722 0.34216183 0.22401452 0.084990844 0.99632925 0.010223541 0.625 0
0.1185722 0.49968565 -0.3227768 0.13094549 0.98416156 -0.11949614 0.875 0.75
0.1185722 0.49968565 -0.3227768 0.13094549 0.98416156 -0.11949614 0.625 1
0.1185722 0.5352293 -0.01123333 0.13095087 0.98416084 -0.11949608 0.875 0.75
0.1185722 0.5352293 -0.01123333 0.13095087 0.98416084 -0.11949608 0.625 1
0.1185722 0.30927056 -0.3227768 0.13095362 0.9841604 -0.119495995 0.875 0.75
0.1185722 0.30927056 -0.3227768 0.13095362 0.9841604 -0.119495995 0.625 1
0.1185722 0.30927056 -0.051829696 0.13094966 0.984161 -0.119496085 0.875 0.75
0.1185722 0.30927056 -0.051829696 0.13094966 0.984161 -0.119496085 0.625 1
0.1185722 0.100964785 -0.3227768 0.13094617 0.9841614 -0.11949614 0.875 0.75
0.1185722 0.100964785 -0.3227768 0.13094617 0.9841614 -0.11949614 0.625 1
0.06484563 0.17625406 -0.120702624 0.08459867 0.9964148 -0.00088508095 0.875 0.75
0.06484563 0.17625406 -0.120702624 0.08459867 0.9964148 -0.00088508095 0.625 1
0.06484563 0.17625406 -0.120702624 0.08459867 0.9964148 -0.00088508095 0.625 0
0.06484562 0.3237466 -0.13088465 -0.085348755 -0.99631417 0.008587029 0.875 0.75
0.06484562 0.3237466 -0.13088465 -0.085348755 -0.99631417 0.008587029 0.625 1
0.06484562 0.3237466 -0.13088465 -0.085348755 -0.99631417 0.008587029 0.625 0
0.06484562 0.24700648 -0.1322788 0.13095419 0.98416036 -0.119495995 0.875 0.75
0.06484562 0.24700648 -0.1322788 0.13095419 0.98416036 -0.119495995 0.625 1
0.015471094 0.6994309 -2.4498506 0.7335511 0.17593536 -0.6564675 0.61243683 1
0.002493471 0.74240553 -2.4498506 0.13112223 0.98413134 -0.11955191 0.875 0.75
0.002493471 0.74240553 -2.4498506 0.13112223 0.98413134 -0.11955191 0.625 0
0.058291655 0.74240553 0.8965709 0.13094772 0.98416173 0.11949227 0.625 0.25
0.029145828 0.74240553 0.8965709 -0.10503018 0.988119 0.11220354 0.625 0.3125
-0.029145828 0.74240553 0.8965709 0.10502866 0.9881193 0.11220142 0.625 0.4375
0.058291655 0.66319263 0.8010478 0.7386711 0 -0.67406607 0.625 1
0.058291655 0.74240553 0.8010478 0.13095245 0.98416173 -0.11948649 0.875 0.75
-0.029145828 0.74240553 0.8010478 0.105030164 0.988119 -0.11220352 0.625 0.8125
0.029145828 0.74240553 0.8010478 -0.10502866 0.9881193 -0.11220142 0.625 0.9375
0.058291655 0.74240553 0.8010478 0.13095245 0.98416173 -0.11948649 0.625 0
0.058291655 0.74240553 0.82492876 0.13189526 0.9912636 0 0.625 0.0625
0.052091394 0.64554167 -2.4585128 0.13095315 0.98416054 -0.119496025 0.875 0.75
0.052091394 0.64554167 -2.4585128 0.13095315 0.98416054 -0.119496025 0.625 1
-0.07537216 -0.7797735 -0.3286549 0.13095395 0.98416036 -0.11949599 0.625 1
-0.07537216 -0.7797735 -0.3286549 0.13095395 0.98416036 -0.11949599 0.875 0.75
3 0 1 2
3 1 3 4
3 5 6 7
3 8 9 10
3 2 4 8
3 11 8 6
3 12 13 14
3 13 15 16
3 17 18 19
3 20 21 22
3 14 16 20
3 23 20 18
3 24 25 26
3 26 27 28
3 29 30 31
3 32 33 34
3 24 28 32
3 30 32 31
3 35 36 37
3 36 38 39
3 40 41 42
3 43 44 45
3 37 39 43
3 41 43 42
3 46 47 48
3 47 49 50
3 51 52 53
3 54 55 56
3 48 50 54
3 57 54 52
3 58 59 60
3 59 61 62
3 63 64 65
3 66 67 68
3 60 62 66
3 69 66 64
3 70 71 72
3 71 73 74
3 75 76 77
3 78 79 80
3 72 74 78
3 81 78 76
3 82 83 84
3 83 85 86
3 87 88 89
3 90 91 92
3 84 86 90
3 88 90 89
3 93 94 95
3 94 96 97
3 98 99 100
3 101 102 103
3 95 97 101
3 104 101 99
3 105 106 107
3 106 108 109
3 110 111 112
3 113 114 115
3 107 109 113
3 116 113 111
3 117 118 119
3 118 120 121
3 122 123 124
3 125 126 127
3 119 121 125
3 128 125 123
3 129 130 131
3 130 132 133
3 134 135 136
3 137 138 139
3 131 133 137
3 140 137 135
3 141 142 143
3 142 144 145
3 146 147 148
3 149 150 151
3 143 145 149
3 152 149 147
3 153 154 155
3 154 156 157
3 158 159 160
3 161 162 163
3 155 157 161
3 159 161 160
3 164 165 166
3 165 167 168
3 169 170 171
3 172 173 174
3 166 168 172
3 170 172 171
3 175 176 177
3 176 178 179
3 180 181 182
3 183 184 185
3 177 179 183
3 186 183 181
3 187 188 189
3 190 191 192
3 193 194 195
3 196 197 198
3 199 200 193
3 201 197 202
3 191 203 204
3 188 205 200
3 198 206 207
3 208 202 196
3 209 210 208
3 211 199 212
3 213 193 203
3 207 189 198
3 198 212 196
3 208 192 209
3 196 214 208
3 212 213 214
3 215 216 217
3 218 219 220
3 221 222 223
3 224 225 226
3 227 220 224
3 215 224 222
3 228 229 230
3 218 231 232
3 221 233 234
3 227 235 236
3 237 238 239
3 240 241 242
3 243 244 245
3 245 246 240
3 247 240 248
3 249 245 247
3 242 235 250
3 251 250 217
3 248 242 251
3 239 252 236
3 241 236 235
3 246 239 241
3 230 253 237
3 244 237 246
3 254 230 244
3 255 256 257
3 256 258 259
3 260 261 262
3 263 264 265
3 257 259 263
3 266 263 261
3 267 268 269
3 270 271 268
3 272 273 271
3 274 275 273
3 271 276 277
3 278 274 272
3 0 279 1
3 1 280 3
3 5 11 6
3 8 4 9
3 2 1 4
3 11 2 8
3 12 281 13
3 13 282 15
3 17 23 18
3 20 16 21
3 14 13 16
3 23 14 20
3 24 283 25
3 26 284 27
3 29 285 30
3 32 28 33
3 24 26 28
3 30 24 32
3 35 286 36
3 36 287 38
3 40 288 41
3 43 39 44
3 37 36 39
3 41 37 43
3 46 289 47
3 47 290 49
3 51 57 52
3 54 50 55
3 48 47 50
3 57 48 54
3 58 291 59
3 59 292 61
3 63 69 64
3 66 62 67
3 60 59 62
3 69 60 66
3 70 293 71
3 71 294 73
3 75 81 76
3 78 74 79
3 72 71 74
3 81 72 78
3 82 295 83
3 83 296 85
3 87 297 88
3 90 86 91
3 84 83 86
3 88 84 90
3 93 298 94
3 94 299 96
3 98 104 99
3 101 97 102
3 95 94 97
3 104 95 101
3 105 300 106
3 106 301 108
3 110 116 111
3 113 109 114
3 107 106 109
3 116 107 113
3 117 302 118
3 118 303 120
3 122 128 123
3 125 121 126
3 119 118 121
3 128 119 125
3 129 304 130
3 130 305 132
3 134 140 135
3 137 133 138
3 131 130 133
3 140 131 137
3 141 306 142
3 142 307 144
3 146 152 147
3 149 145 150
3 143 142 145
3 152 143 149
3 153 308 154
3 154 309 156
3 158 310 159
3 161 157 162
3 155 154 157
3 159 155 161
3 164 311 165
3 165 312 167
3 169 313 170
3 172 168 173
3 166 165 168
3 170 166 172
3 175 314 176
3 176 315 178
3 180 186 181
3 183 179 184
3 177 176 179
3 186 177 183
3 187 316 188
3 190 213 191
3 193 200 194
3 196 202 197
3 199 188 200
3 201 317 197
3 191 213 203
3 188 316 205
3 198 197 206
3 208 210 202
3 209 318 210
3 211 188 199
3 213 199 193
3 207 187 189
3 198 211 212
3 208 190 192
3 196 212 214
3 212 199 213
3 217 227 215
3 215 319 320
3 216 321 217
3 215 320 216
3 218 322 219
3 221 215 222
3 224 220 225
3 227 218 220
3 215 227 224
3 228 323 229
3 232 322 218
3 218 252 324
3 231 325 232
3 218 324 231
3 319 215 221
3 221 326 327
3 221 327 233
3 234 319 221
3 252 218 227
3 227 217 250
3 227 250 235
3 236 252 227
3 237 253 238
3 240 246 241
3 243 254 244
3 245 244 246
3 247 245 240
3 249 243 245
3 242 241 235
3 251 242 250
3 248 240 242
3 239 238 252
3 241 239 236
3 246 237 239
3 230 229 253
3 244 230 237
3 254 228 230
3 255 328 256
3 256 329 258
3 260 266 261
3 263 259 264
3 257 256 259
3 266 257 263
3 267 270 268
3 270 272 271
3 272 274 273
3 274 330 275
3 271 273 276
3 278 331 274
