ply
format ascii 1.0
comment Created in Blender version 4.4.1
element vertex 299
property float x
property float y
property float z
property float nx
property float ny
property float nz
property float s
property float t
element face 392
property list uchar uint vertex_indices
end_header
-1.9691093e-08 0.49675375 -0.41048363 -1.7688544e-07 0.2548557 -0.96697915 0.37728083 0.78630286
0.16262665 0.38676494 -0.39261547 0.38205245 0.057360124 -0.9223588 0.34653565 0.7453093
-1.9691093e-08 0.38676494 -0.42496392 -5.919859e-07 0.0573601 -0.99835366 0.37728083 0.7453093
1.702826e-07 0.68725985 -0.3004948 3.1285933e-06 0.6990677 -0.71505547 0.37728077 0.86828995
0.08131332 0.75479454 -0.19630772 0.19594413 0.85897106 -0.4730483 0.34653565 0.9092835
0.11499439 0.68725985 -0.27762103 0.27364188 0.6990671 -0.6606249 0.34653565 0.86828995
1.702826e-07 -0.76365787 -0.3004948 3.0454903e-06 -0.6990677 -0.7150555 0.37728077 0.62232864
0.08131332 -0.83119255 -0.19630772 0.19594279 -0.858971 -0.4730489 0.34653565 0.58133507
-1.9691093e-08 -0.83119255 -0.21248195 -2.4511846e-06 -0.85897195 -0.51202285 0.37728083 0.58133507
0.15708528 -0.57315177 -0.3792374 0.37510738 -0.19801015 -0.9055863 0.34653565 0.7043158
-1.9691093e-08 -0.57315177 -0.41048363 7.2771684e-07 -0.19801022 -0.98020005 0.37728083 0.7043158
0.1408388 0.5992469 -0.34001496 0.33292353 0.49309787 -0.8037516 0.34653565 0.8272964
-1.9691093e-08 0.5992469 -0.36802953 -1.2727717e-06 0.4931002 -0.8699726 0.37728083 0.8272964
0.042090863 -0.87364656 -0.10161633 0.10481811 -0.96175677 -0.25305593 0.34653565 0.54034144
-1.9691093e-08 -0.87364656 -0.10998874 -6.5209616e-07 -0.9617566 -0.27390555 0.37728083 0.54034144
-1.9691093e-08 0.79724854 -0.10998874 -2.707026e-07 0.96175647 -0.2739062 0.37728083 0.95027715
-1.9691093e-08 0.8117289 3.0168106e-08 1.3186371e-07 1 -1.3276895e-08 0.36190826 0.99127066
0.042090863 0.79724854 -0.10161633 0.10481885 0.96175677 -0.25305548 0.34653565 0.95027715
0.1408388 -0.67564493 -0.34001496 0.33292225 -0.49309987 -0.8037509 0.34653565 0.66332215
-1.9691093e-08 -0.67564493 -0.36802953 -3.4588493e-06 -0.493099 -0.8699732 0.37728083 0.66332215
0.15708528 0.49675375 -0.3792374 0.37004828 0.2548557 -0.8933717 0.34653565 0.78630286
-1.9691093e-08 -0.8881269 3.0168106e-08 -6.698797e-08 -1 -1.9311848e-08 0.36190826 0.49934793
-1.9691093e-08 0.75479454 -0.21248195 -1.2461863e-06 0.8589728 -0.51202136 0.37728083 0.9092835
0.11499439 -0.76365787 -0.27762103 0.27363962 -0.6990683 -0.6606247 0.34653565 0.62232864
0.07777379 -0.87364656 -0.07777376 0.19368069 -0.9617565 -0.19368078 0.31579047 0.54034144
-1.9691093e-08 0.8117289 3.0168106e-08 1.3186371e-07 1 -1.3276895e-08 0.33116308 0.99127066
0.07777379 0.79724854 -0.07777376 0.19367985 0.9617568 -0.19367999 0.31579047 0.95027715
0.2602362 -0.67564493 -0.26023617 0.6151636 -0.4930988 -0.61516446 0.31579047 0.66332215
0.29025576 0.49675375 -0.2902557 0.6837586 0.25485635 -0.6837562 0.31579047 0.78630286
-1.9691093e-08 -0.8881269 3.0168106e-08 -6.698797e-08 -1 -1.9311848e-08 0.33116308 0.49934793
0.15024742 0.75479454 -0.15024741 0.36205694 0.85897124 -0.3620543 0.31579047 0.9092835
0.21248195 -0.76365787 -0.21248193 0.50561863 -0.6990678 -0.5056225 0.31579047 0.62232864
0.30049488 0.38676494 -0.30049485 0.7059421 0.05736008 -0.7059431 0.31579047 0.7453093
0.21248195 0.68725985 -0.21248193 0.5056216 0.6990677 -0.5056195 0.31579047 0.86828995
0.15024742 -0.83119255 -0.15024741 0.36205524 -0.8589721 -0.3620539 0.31579047 0.58133507
0.29025576 -0.57315177 -0.2902557 0.69310695 -0.19801009 -0.6931052 0.31579047 0.7043158
0.2602362 0.5992469 -0.26023617 0.61516273 0.49310002 -0.61516434 0.31579047 0.8272964
0.27762103 0.68725985 -0.114994355 0.66062564 0.6990678 -0.27363855 0.28504533 0.86828995
0.27762103 -0.76365787 -0.114994355 0.660624 -0.6990678 -0.27364242 0.28504533 0.62232864
0.19630773 -0.83119255 -0.081313275 0.47304645 -0.8589729 -0.19594029 0.28504533 0.58133507
0.3792374 -0.57315177 -0.15708521 0.9055872 -0.19801015 -0.37510508 0.28504533 0.7043158
0.34001496 0.5992469 -0.14083876 0.8037508 0.4930976 -0.33292553 0.28504533 0.82729644
0.10161635 -0.87364656 -0.04209083 0.25305662 -0.96175635 -0.10481933 0.28504533 0.54034144
-1.9691093e-08 0.8117289 3.0168106e-08 1.3186371e-07 1 -1.3276895e-08 0.3004179 0.99127066
0.10161635 0.79724854 -0.04209083 0.25305662 0.96175635 -0.10481934 0.28504533 0.95027715
0.34001496 -0.67564493 -0.14083876 0.8037503 -0.49309886 -0.33292493 0.28504533 0.66332215
0.3792374 0.49675375 -0.15708521 0.8933729 0.25485566 -0.37004545 0.28504533 0.78630286
-1.9691093e-08 -0.8881269 3.0168106e-08 -6.698797e-08 -1 -1.9311848e-08 0.3004179 0.49934793
0.19630773 0.75479454 -0.081313275 0.47304666 0.85897285 -0.19594027 0.28504533 0.9092835
0.3926155 0.38676494 -0.16262658 0.9223581 0.057360068 -0.3820542 0.28504533 0.7453093
-1.9691093e-08 -0.8881269 3.0168106e-08 -6.698797e-08 -1 -1.9311848e-08 0.26967272 0.49934793
0.10998874 -0.87364656 4.5999247e-08 0.2739043 -0.96175694 1.8047046e-09 0.25430015 0.54034144
0.21248195 0.75479454 6.1830384e-08 0.51202285 0.85897195 2.9179037e-06 0.25430015 0.9092835
0.30049485 -0.76365787 6.816284e-08 0.7150561 -0.69906706 1.4787219e-07 0.25430015 0.62232864
0.42496392 0.38676494 9.3492666e-08 0.99835366 0.05736018 -9.0999356e-07 0.25430015 0.7453093
0.30049485 0.68725985 6.816284e-08 0.71505547 0.6990678 1.5068579e-06 0.25430015 0.86828995
0.21248195 -0.83119255 6.1830384e-08 0.51202255 -0.8589721 4.364242e-08 0.25430015 0.58133507
0.41048357 -0.57315177 9.3492666e-08 0.98020005 -0.19801004 1.440338e-06 0.25430015 0.7043157
0.36802953 0.5992469 8.082775e-08 0.86997324 0.4930989 9.650314e-07 0.25430015 0.82729644
-1.9691093e-08 0.8117289 3.0168106e-08 1.3186371e-07 1 -1.3276895e-08 0.26967272 0.99127066
0.10998874 0.79724854 4.5999247e-08 0.2739056 0.9617566 4.6561107e-07 0.25430015 0.95027715
0.36802953 -0.67564493 8.082775e-08 0.86997384 -0.49309793 -1.701127e-06 0.25430015 0.66332215
0.41048357 0.49675375 9.3492666e-08 0.966979 0.25485614 1.0959586e-06 0.25430015 0.78630286
0.3400149 0.5992469 0.14083889 0.8037502 0.49309877 0.33292532 0.22355494 0.82729644
0.10161634 -0.87364656 0.04209093 0.25305554 -0.96175677 0.10481879 0.22355494 0.54034144
-1.9691093e-08 0.8117289 3.0168106e-08 1.3186371e-07 1 -1.3276895e-08 0.23892753 0.99127066
0.10161634 0.79724854 0.04209093 0.25305545 0.9617567 0.10481959 0.22355494 0.95027715
0.3400149 -0.67564493 0.14083889 0.80375165 -0.49309877 0.33292168 0.22355494 0.66332215
0.37923732 0.49675375 0.15708537 0.89337206 0.25485715 0.3700465 0.22355494 0.78630286
-1.9691093e-08 -0.8881269 3.0168106e-08 -6.698797e-08 -1 -1.9311848e-08 0.23892753 0.49934793
0.1963077 0.75479454 0.0813134 0.47304517 0.8589731 0.19594295 0.22355494 0.9092835
0.277621 -0.76365787 0.11499448 0.660624 -0.69906765 0.27364272 0.22355494 0.62232864
0.39261544 0.38676494 0.16262676 0.92235863 0.057360355 0.3820529 0.22355494 0.7453093
0.277621 0.68725985 0.11499448 0.66062397 0.69906807 0.27364177 0.22355494 0.86828995
0.1963077 -0.83119255 0.0813134 0.473048 -0.8589721 0.1959402 0.22355494 0.58133507
0.37923732 -0.57315177 0.15708537 0.90558624 -0.19801012 0.37510753 0.22355494 0.7043157
0.15024738 0.75479454 0.1502475 0.36205673 0.8589703 0.36205685 0.19280975 0.9092835
0.21248187 0.68725985 0.21248202 0.50561994 0.6990683 0.5056204 0.19280975 0.86828995
0.15024738 -0.83119255 0.1502475 0.36205652 -0.858972 0.36205277 0.19280975 0.58133507
0.29025564 -0.57315177 0.2902558 0.6931055 -0.19800963 0.69310683 0.19280978 0.7043157
0.26023608 0.5992469 0.26023626 0.615162 0.49309975 0.6151653 0.19280975 0.82729644
0.07777376 -0.87364656 0.07777385 0.1936809 -0.9617566 0.1936803 0.19280975 0.54034144
-1.9691093e-08 0.8117289 3.0168106e-08 1.3186371e-07 1 -1.3276895e-08 0.20818236 0.99127066
0.07777376 0.79724854 0.07777385 0.19368061 0.96175665 0.19368012 0.19280975 0.95027715
0.26023608 -0.67564493 0.26023626 0.615164 -0.49309865 0.61516434 0.19280975 0.66332215
0.29025564 0.49675375 0.2902558 0.68375856 0.25485635 0.6837562 0.19280978 0.78630286
-1.9691093e-08 -0.8881269 3.0168106e-08 -6.698797e-08 -1 -1.9311848e-08 0.20818236 0.49934793
0.21248187 -0.76365787 0.21248202 0.5056192 -0.69906884 0.5056205 0.19280975 0.62232864
0.3004948 0.38676494 0.300495 0.7059427 0.05736032 0.7059424 0.19280975 0.7453093
0.15708515 0.49675375 0.3792374 0.37004846 0.25485617 0.8933715 0.16206461 0.78630286
-1.9691093e-08 -0.8881269 3.0168106e-08 -6.698797e-08 -1 -1.9311848e-08 0.17743719 0.49934793
0.04209083 -0.87364656 0.101616405 0.104820594 -0.9617565 0.2530556 0.16206461 0.54034144
0.04209083 0.79724854 0.101616405 0.10481909 0.96175647 0.2530564 0.16206461 0.95027715
0.081313245 0.75479454 0.1963078 0.19594085 0.8589728 0.47304672 0.16206458 0.9092835
0.114994295 -0.76365787 0.2776211 0.27364093 -0.69906765 0.66062474 0.16206461 0.62232864
0.1626265 0.38676494 0.39261556 0.38205346 0.057360373 0.92235845 0.16206458 0.7453093
0.114994295 0.68725985 0.2776211 0.27364072 0.6990665 0.66062605 0.16206461 0.86828995
0.081313245 -0.83119255 0.1963078 0.19594498 -0.858972 0.47304618 0.16206458 0.58133507
0.15708515 -0.57315177 0.3792374 0.37510553 -0.19801061 0.9055869 0.16206461 0.7043157
0.1408387 0.5992469 0.34001502 0.33292264 0.4930978 0.8037519 0.16206461 0.82729644
-1.9691093e-08 0.8117289 3.0168106e-08 1.3186371e-07 1 -1.3276895e-08 0.17743719 0.99127066
0.1408387 -0.67564493 0.34001502 0.33292282 -0.4930998 0.80375063 0.16206461 0.66332215
-1.2101039e-07 0.5992469 0.36802953 -1.1102784e-06 0.493099 0.8699732 0.13131943 0.82729644
-4.8187147e-08 -0.87364656 0.10998878 1.16101994e-07 -0.9617566 0.27390552 0.13131943 0.54034144
-1.9691093e-08 0.8117289 3.0168106e-08 1.3186371e-07 1 -1.3276895e-08 0.14669202 0.99127066
-4.8187147e-08 0.79724854 0.10998878 -6.545024e-07 0.9617567 0.2739055 0.13131943 0.95027715
-1.2101039e-07 -0.67564493 0.36802953 1.6518901e-06 -0.49309802 0.8699739 0.13131943 0.66332215
-1.0834548e-07 0.49675375 0.41048357 1.7416587e-06 0.2548565 0.96697897 0.13131943 0.78630286
-1.9691093e-08 -0.8881269 3.0168106e-08 -6.698797e-08 -1 -1.9311848e-08 0.14669202 0.49934793
-9.568057e-08 0.75479454 0.212482 -2.8597149e-06 0.85897195 0.5120228 0.1313194 0.9092835
-1.1467794e-07 -0.76365787 0.30049485 -9.0434736e-07 -0.69906646 0.7150568 0.13131943 0.62232864
-1.7167004e-07 0.38676494 0.424964 1.5655806e-07 0.057360556 0.9983536 0.1313194 0.7453093
-1.1467794e-07 0.68725985 0.30049485 -1.5752958e-06 0.69906753 0.7150557 0.13131943 0.86828995
-9.568057e-08 -0.83119255 0.212482 2.2547986e-06 -0.858972 0.5120226 0.1313194 0.58133507
-1.0834548e-07 -0.57315177 0.41048357 -1.340961e-06 -0.19801022 0.98020005 0.13131943 0.7043157
-0.15708537 0.49675375 0.37923732 -0.37004566 0.25485682 0.89337236 0.100574255 0.78630286
-0.16262683 0.38676494 0.39261547 -0.3820535 0.05736037 0.92235833 0.100574255 0.7453093
-0.11499452 0.68725985 0.277621 -0.27364206 0.69906795 0.66062397 0.100574255 0.86828995
-0.081313424 -0.83119255 0.19630775 -0.19594035 -0.85897195 0.4730482 0.100574255 0.58133507
-0.15708537 -0.57315177 0.37923732 -0.37510756 -0.19801013 0.90558624 0.100574255 0.7043157
-0.14083892 0.5992469 0.3400149 -0.33292308 0.4931001 0.8037503 0.100574255 0.82729644
-0.04209092 -0.87364656 0.10161637 -0.104818635 -0.9617567 0.25305593 0.100574255 0.54034144
-1.9691093e-08 0.8117289 3.0168106e-08 1.3186371e-07 1 -1.3276895e-08 0.115946844 0.99127066
-0.04209092 0.79724854 0.10161637 -0.10481886 0.96175677 0.25305548 0.100574255 0.95027715
-0.14083892 -0.67564493 0.3400149 -0.3329217 -0.49309894 0.80375165 0.100574255 0.66332215
-1.9691093e-08 -0.8881269 3.0168106e-08 -6.698797e-08 -1 -1.9311848e-08 0.115946844 0.49934793
-0.081313424 0.75479454 0.19630775 -0.19594336 0.85897285 0.4730454 0.100574255 0.9092835
-0.11499452 -0.76365787 0.277621 -0.2736427 -0.6990675 0.6606242 0.100574255 0.62232864
-0.26023626 0.5992469 0.2602361 -0.6151638 0.49309757 0.61516523 0.06982909 0.82729644
-0.2902558 0.49675375 0.29025564 -0.68375653 0.2548558 0.6837584 0.06982909 0.78630286
-1.9691093e-08 -0.8881269 3.0168106e-08 -6.698797e-08 -1 -1.9311848e-08 0.08520168 0.49934793
-0.07777383 -0.87364656 0.077773795 -0.19368063 -0.96175647 0.1936809 0.06982909 0.54034144
-0.15024753 0.75479454 0.15024741 -0.36205646 0.85897106 0.36205506 0.06982906 0.9092835
-0.26023626 -0.67564493 0.2602361 -0.61516196 -0.49309868 0.6151662 0.06982909 0.66332215
-0.21248205 -0.76365787 0.21248187 -0.50562274 -0.6990676 0.5056186 0.06982906 0.62232864
-0.30049503 0.38676494 0.3004948 -0.7059427 0.05736029 0.7059425 0.06982906 0.7453093
-0.21248205 0.68725985 0.21248187 -0.5056228 0.699067 0.5056194 0.06982906 0.86828995
-0.15024753 -0.83119255 0.15024741 -0.36205274 -0.8589728 0.36205488 0.06982906 0.58133507
-0.2902558 -0.57315177 0.29025564 -0.69310707 -0.19801004 0.69310516 0.06982909 0.7043157
-1.9691093e-08 0.8117289 3.0168106e-08 1.3186371e-07 1 -1.3276895e-08 0.08520168 0.99127066
-0.07777383 0.79724854 0.077773795 -0.1936804 0.96175665 0.1936801 0.06982909 0.95027715
-0.3792374 -0.57315177 0.15708515 -0.9055873 -0.1980101 0.37510505 0.039083898 0.7043157
-0.340015 0.5992469 0.14083871 -0.80375093 0.49309886 0.33292338 0.039083898 0.82729644
-0.19630781 -0.83119255 0.08131327 -0.4730491 -0.85897106 0.19594212 0.039083898 0.58133507
-0.101616375 -0.87364656 0.042090867 -0.2530558 -0.9617567 0.10481858 0.039083898 0.54034144
-1.9691093e-08 0.8117289 3.0168106e-08 1.3186371e-07 1 -1.3276895e-08 0.054456502 0.99127066
-0.101616375 0.79724854 0.042090867 -0.25305545 0.9617568 0.10481859 0.039083898 0.95027715
-0.340015 -0.67564493 0.14083871 -0.80374944 -0.49309888 0.33292708 0.039083898 0.66332215
-0.3792374 0.49675375 0.15708515 -0.8933714 0.25485623 0.3700485 0.039083898 0.78630286
-1.9691093e-08 -0.8881269 3.0168106e-08 -6.698797e-08 -1 -1.9311848e-08 0.054456502 0.49934793
-0.19630781 0.75479454 0.08131327 -0.47304618 0.85897297 0.19594091 0.039083898 0.9092835
-0.2776211 -0.76365787 0.114994295 -0.66062665 -0.69906706 0.2736379 0.039083898 0.62232864
-0.3926156 0.38676494 0.16262649 -0.9223585 0.057360385 0.3820533 0.039083898 0.7453093
-0.2776211 0.68725985 0.114994295 -0.66062546 0.6990683 0.27363756 0.039083898 0.86828995
-0.41048354 0.49675375 -1.0914593e-07 -0.96697897 0.25485626 1.5734302e-06 0.008338749 0.78630286
-0.42496395 0.38676494 -1.851354e-07 -0.99835354 0.057360396 -2.2505218e-07 0.008338749 0.7453093
-0.21248198 0.75479454 -7.7483655e-08 -0.5120255 0.85897034 -2.5699757e-07 0.008338749 0.9092835
-0.30049485 0.68725985 -1.0914593e-07 -0.71505636 0.6990669 -2.445449e-06 0.008338749 0.86828995
-0.30049485 -0.76365787 -1.0914593e-07 -0.71505517 -0.69906807 -2.4234243e-06 0.008338749 0.62232864
-0.21248198 -0.83119255 -7.7483655e-08 -0.51202255 -0.858972 -1.7335736e-07 0.008338749 0.58133507
-0.41048354 -0.57315177 -1.0914593e-07 -0.98020005 -0.19801004 -1.440338e-06 0.008338749 0.7043157
-0.36802953 0.5992469 -8.381611e-08 -0.8699734 0.49309865 -1.0696584e-06 0.008338749 0.82729644
-0.109988764 -0.87364656 -1.0992861e-08 -0.27390492 -0.9617568 -1.0106345e-07 0.008338749 0.54034144
-1.9691093e-08 0.8117289 3.0168106e-08 1.3186371e-07 1 -1.3276895e-08 0.023711339 0.99127066
-0.109988764 0.79724854 -1.0992861e-08 -0.27390477 0.9617569 -1.2753246e-07 0.008338749 0.95027715
-0.36802953 -0.67564493 -8.381611e-08 -0.8699734 -0.49309862 2.786774e-06 0.008338749 0.66332215
-1.9691093e-08 -0.8881269 3.0168106e-08 -6.698797e-08 -1 -1.9311848e-08 0.023711339 0.49934793
-0.41048354 -0.57315177 -1.0914593e-07 -0.98020005 -0.19801004 -1.440338e-06 0.5002615 0.7043157
-0.34001487 -0.67564493 -0.14083888 -0.80375063 -0.49309984 -0.33292282 0.46951634 0.66332215
-0.36802953 -0.67564493 -8.381611e-08 -0.8699734 -0.49309862 2.786774e-06 0.5002615 0.66332215
-0.36802953 0.5992469 -8.381611e-08 -0.8699734 0.49309865 -1.0696584e-06 0.5002615 0.82729644
-0.3792373 0.49675375 -0.15708536 -0.8933727 0.2548563 -0.37004536 0.46951634 0.78630286
-0.41048354 0.49675375 -1.0914593e-07 -0.96697897 0.25485626 1.5734302e-06 0.5002615 0.78630286
-1.9691093e-08 -0.8881269 3.0168106e-08 -6.698797e-08 -1 -1.9311848e-08 0.48488885 0.49934793
-0.109988764 -0.87364656 -1.0992861e-08 -0.27390492 -0.9617568 -1.0106345e-07 0.5002615 0.54034144
-0.101616345 -0.87364656 -0.042090878 -0.2530556 -0.96175665 -0.104818866 0.46951634 0.54034144
-0.21248198 0.75479454 -7.7483655e-08 -0.5120255 0.85897034 -2.5699757e-07 0.5002615 0.9092835
-0.101616345 0.79724854 -0.042090878 -0.25305578 0.9617566 -0.10481948 0.46951634 0.95027715
-0.19630772 0.75479454 -0.0813134 -0.47304448 0.8589737 -0.1959416 0.46951628 0.9092835
-0.30049485 -0.76365787 -1.0914593e-07 -0.71505517 -0.69906807 -2.4234243e-06 0.5002615 0.62232864
-0.27762097 -0.76365787 -0.114994496 -0.6606238 -0.69906867 -0.2736407 0.46951628 0.62232864
-0.42496395 0.38676494 -1.851354e-07 -0.99835354 0.057360396 -2.2505218e-07 0.5002615 0.7453093
-0.3926154 0.38676494 -0.16262683 -0.9223584 0.05736032 -0.38205338 0.46951628 0.7453093
-0.27762097 0.68725985 -0.114994496 -0.6606239 0.6990681 -0.27364206 0.46951628 0.86828995
-0.30049485 0.68725985 -1.0914593e-07 -0.71505636 0.6990669 -2.445449e-06 0.5002615 0.86828995
-0.19630772 -0.83119255 -0.0813134 -0.4730482 -0.858972 -0.19594027 0.46951628 0.58133507
-0.21248198 -0.83119255 -7.7483655e-08 -0.51202255 -0.858972 -1.7335736e-07 0.5002615 0.58133507
-0.3792373 -0.57315177 -0.15708536 -0.90558624 -0.19801018 -0.37510768 0.46951634 0.7043157
-0.34001487 0.5992469 -0.14083888 -0.80375034 0.4930988 -0.33292523 0.46951634 0.82729644
-0.109988764 0.79724854 -1.0992861e-08 -0.27390477 0.9617569 -1.2753246e-07 0.5002615 0.95027715
-1.9691093e-08 0.8117289 3.0168106e-08 1.3186371e-07 1 -1.3276895e-08 0.48488885 0.99127066
-0.29025558 -0.57315177 -0.29025576 -0.69310534 -0.19800939 -0.69310695 0.43877113 0.7043157
-0.26023605 0.5992469 -0.26023623 -0.6151632 0.49309865 -0.61516505 0.43877113 0.82729644
-0.077773765 -0.87364656 -0.07777378 -0.1936807 -0.96175665 -0.1936802 0.43877113 0.54034144
-1.9691093e-08 0.8117289 3.0168106e-08 1.3186371e-07 1 -1.3276895e-08 0.45414376 0.99127066
-0.077773765 0.79724854 -0.07777378 -0.19367921 0.9617568 -0.19368088 0.43877113 0.95027715
-0.26023605 -0.67564493 -0.26023623 -0.6151646 -0.49309674 -0.6151651 0.43877113 0.66332215
-0.29025558 0.49675375 -0.29025576 -0.6837585 0.2548562 -0.68375635 0.43877113 0.78630286
-1.9691093e-08 -0.8881269 3.0168106e-08 -6.698797e-08 -1 -1.9311848e-08 0.45414376 0.49934793
-0.15024738 0.75479454 -0.1502475 -0.3620556 0.8589718 -0.3620542 0.43877113 0.9092835
-0.21248183 -0.76365787 -0.212482 -0.50562054 -0.6990665 -0.50562227 0.43877113 0.62232864
-0.30049473 0.38676494 -0.300495 -0.7059426 0.057360448 -0.7059426 0.43877113 0.7453093
-0.21248183 0.68725985 -0.212482 -0.50561845 0.69906753 -0.50562304 0.43877113 0.86828995
-0.15024738 -0.83119255 -0.1502475 -0.36205637 -0.858972 -0.36205298 0.43877113 0.58133507
-0.14083867 -0.67564493 -0.34001493 -0.33292526 -0.49309993 -0.80374956 0.40802598 0.66332215
-0.11499424 -0.76365787 -0.27762103 -0.27363685 -0.69906765 -0.6606264 0.40802595 0.62232864
-0.1570851 0.49675375 -0.37923732 -0.37004888 0.25485638 -0.89337116 0.40802598 0.78630286
-0.16262646 0.38676494 -0.39261556 -0.38205355 0.057360567 -0.92235833 0.40802595 0.7453093
-0.08131324 0.75479454 -0.19630776 -0.19594494 0.85897106 -0.4730481 0.40802595 0.9092835
-0.11499424 0.68725985 -0.27762103 -0.27363706 0.69906765 -0.66062635 0.40802595 0.86828995
-0.08131324 -0.83119255 -0.19630776 -0.1959451 -0.8589719 -0.47304645 0.40802595 0.58133507
-0.1570851 -0.57315177 -0.37923732 -0.37510583 -0.1980106 -0.9055868 0.40802598 0.7043157
-0.14083867 0.5992469 -0.34001493 -0.33292377 0.49309886 -0.80375075 0.40802598 0.82729644
-0.04209084 -0.87364656 -0.10161632 -0.1048195 -0.96175665 -0.25305545 0.40802598 0.54034144
-1.9691093e-08 0.8117289 3.0168106e-08 1.3186371e-07 1 -1.3276895e-08 0.42339858 0.99127066
-0.04209084 0.79724854 -0.10161632 -0.10481875 0.9617569 -0.25305504 0.40802598 0.95027715
-1.9691093e-08 -0.8881269 3.0168106e-08 -6.698797e-08 -1 -1.9311848e-08 0.42339858 0.49934793
-1.9691093e-08 0.8117289 3.0168106e-08 1.3186371e-07 1 -1.3276895e-08 0.3926534 0.99127066
-1.9691093e-08 -0.8881269 3.0168106e-08 -6.698797e-08 -1 -1.9311848e-08 0.3926534 0.49934793
-0.5488548 0.069185644 -0.069185644 -0.577344 0.5773534 -0.5773535 0.9149847 0.8570814
-0.5488548 -0.069185615 0.6933031 -0.70710105 -0.70711255 2.7332753e-08 0.8501861 0.50001144
-0.5488548 0.069185674 0.6933031 -0.70711255 0.70710105 -2.7637464e-08 0.9149847 0.50001144
-0.5488548 -0.069185644 -0.069185644 -0.5773425 -0.5773331 -0.5773753 0.8644923 0.86229885
-0.41048354 -0.069185615 0.6933031 0.7071126 -0.707101 4.012104e-08 0.5074224 0.92709744
-0.5488548 -0.069185615 0.6933031 -0.70710105 -0.70711255 2.7332753e-08 0.5074223 0.86229885
-0.41048354 -0.069185644 -0.069185644 0.577344 -0.5773535 -0.5773534 0.57550764 0.50001144
-0.41048354 0.069185674 0.6933031 0.707101 0.70711255 -1.7702137e-08 0.64030623 0.8570814
-0.41048354 -0.069185615 0.6933031 0.7071126 -0.707101 4.012104e-08 0.57550764 0.8570814
-0.41048354 0.069185644 -0.069185644 0.57734257 0.5773331 -0.5773753 0.9836544 0.8570814
-0.5488548 0.069185674 0.6933031 -0.70711255 0.70710105 -2.7637464e-08 0.91885567 0.50001144
-0.41048354 0.069185674 0.6933031 0.707101 0.70711255 -1.7702137e-08 0.9836544 0.50001144
-0.5488548 -0.069185644 -0.069185644 -0.5773425 -0.5773331 -0.5773753 0.93450844 0.92709756
-0.41048354 0.069185644 -0.069185644 0.57734257 0.5773331 -0.5773753 0.86970985 0.86229885
-0.41048354 -0.069185644 -0.069185644 0.577344 -0.5773535 -0.5773534 0.93450844 0.86229885
-0.5488548 -0.069185644 -0.069185644 -0.5773425 -0.5773331 -0.5773753 0.8501861 0.8570814
-0.41048354 -0.069185644 -0.069185644 0.577344 -0.5773535 -0.5773534 0.8644923 0.92709744
-0.41048354 0.069185644 -0.069185644 0.57734257 0.5773331 -0.5773753 0.64030623 0.50001144
-0.5488548 0.069185644 -0.069185644 -0.577344 0.5773534 -0.5773535 0.91885567 0.8570814
-0.5488548 0.069185644 -0.069185644 -0.577344 0.5773534 -0.5773535 0.86970973 0.9270975
0.41048363 0.069185644 -0.069185644 -0.577344 0.57735336 -0.5773535 0.5716367 0.8570814
0.41048363 -0.069185615 0.6933031 -0.70710105 -0.70711255 2.733275e-08 0.506838 0.50001144
0.41048363 0.069185674 0.6933031 -0.70711255 0.70710105 -2.7637464e-08 0.5716367 0.5000114
0.41048363 -0.069185644 -0.069185644 -0.57734257 -0.5773331 -0.5773753 0.77764547 0.8570814
0.54885495 -0.069185615 0.6933031 0.7071126 -0.707101 4.012104e-08 0.7128469 0.50001144
0.41048363 -0.069185615 0.6933031 -0.70710105 -0.70711255 2.733275e-08 0.77764547 0.50001144
0.54885495 -0.069185644 -0.069185644 0.577344 -0.5773534 -0.5773534 0.64417726 0.50001144
0.54885495 0.069185674 0.6933031 0.707101 0.70711255 -1.7702137e-08 0.7089759 0.8570814
0.54885495 -0.069185615 0.6933031 0.7071126 -0.707101 4.012104e-08 0.64417726 0.8570814
0.54885495 0.069185644 -0.069185644 0.57734257 0.57733303 -0.5773753 0.84631515 0.8570814
0.41048363 0.069185674 0.6933031 -0.70711255 0.70710105 -2.7637464e-08 0.78151643 0.50001144
0.54885495 0.069185674 0.6933031 0.707101 0.70711255 -1.7702137e-08 0.84631515 0.50001144
0.41048363 -0.069185644 -0.069185644 -0.57734257 -0.5773331 -0.5773753 0.6416527 0.9957671
0.54885495 0.069185644 -0.069185644 0.57734257 0.57733303 -0.5773753 0.5768541 0.9309684
0.54885495 -0.069185644 -0.069185644 0.577344 -0.5773534 -0.5773534 0.6416527 0.9309684
0.41048363 -0.069185644 -0.069185644 -0.57734257 -0.5773331 -0.5773753 0.506838 0.8570814
0.54885495 -0.069185644 -0.069185644 0.577344 -0.5773534 -0.5773534 0.7128469 0.8570814
0.54885495 0.069185644 -0.069185644 0.57734257 0.57733303 -0.5773753 0.7089759 0.50001144
0.41048363 0.069185644 -0.069185644 -0.577344 0.57735336 -0.5773535 0.78151643 0.8570814
0.41048363 0.069185644 -0.069185644 -0.577344 0.57735336 -0.5773535 0.5768541 0.9957671
-0.41048354 -0.06918569 0.7502683 0.57734877 -0.5773206 0.5773815 0.5716367 0.9957671
-0.5488548 0.069185585 0.7502683 -0.57733005 0.5773298 0.577391 0.506838 0.9309684
-0.5488548 -0.06918569 0.7502683 -0.57735026 -0.5773503 0.5773502 0.5716367 0.9309684
-0.41048354 0.0691856 0.6933031 0.70712405 0.70708954 1.6708839e-07 0.78555584 0.96235824
-0.5488548 0.069185585 0.7502683 -0.57733005 0.5773298 0.577391 0.85035455 0.9890348
-0.41048354 0.069185585 0.7502683 0.57733154 0.5773596 0.57735974 0.78555584 0.9890348
-0.41048354 -0.069185674 0.6933031 0.7070896 -0.70712394 -1.8941576e-07 0.7803384 0.9580661
-0.41048354 0.069185585 0.7502683 0.57733154 0.5773596 0.57735974 0.7155398 0.9313896
-0.41048354 -0.06918569 0.7502683 0.57734877 -0.5773206 0.5773815 0.7803384 0.9313896
-0.5488548 -0.069185674 0.6933031 -0.7071069 -0.70710665 -1.7153721e-07 0.9262612 0.9334093
-0.41048354 -0.06918569 0.7502683 0.57734877 -0.5773206 0.5773815 0.9910599 0.96008587
-0.5488548 -0.06918569 0.7502683 -0.57735026 -0.5773503 0.5773502 0.9262612 0.96008587
-0.5488548 0.069185585 0.7502683 -0.57733005 0.5773298 0.577391 0.78622913 0.9580661
-0.5488548 -0.069185674 0.6933031 -0.7071069 -0.70710665 -1.7153721e-07 0.8510277 0.9313896
-0.5488548 -0.06918569 0.7502683 -0.57735026 -0.5773503 0.5773502 0.8510277 0.9580661
-0.41048354 0.069185585 0.7502683 0.57733154 0.5773596 0.57735974 0.506838 0.99576706
-0.5488548 0.0691856 0.6933031 -0.70710677 0.7071068 1.8496762e-07 0.85035455 0.96235824
-0.41048354 0.0691856 0.6933031 0.70712405 0.70708954 1.6708839e-07 0.7155398 0.9580661
-0.41048354 -0.069185674 0.6933031 0.7070896 -0.70712394 -1.8941576e-07 0.9910599 0.9334093
-0.5488548 0.0691856 0.6933031 -0.70710677 0.7071068 1.8496762e-07 0.78622913 0.9313896
0.54885495 -0.06918569 0.7502683 0.57734877 -0.5773206 0.5773815 0.71166885 0.9309685
0.41048366 0.069185585 0.7502683 -0.57733005 0.5773298 0.577391 0.64687014 0.9957671
0.41048366 -0.06918569 0.7502683 -0.57735026 -0.5773503 0.5773502 0.64687014 0.9309685
0.54885495 0.0691856 0.6933031 0.70712405 0.70708954 1.6708839e-07 0.85557187 0.9637047
0.41048366 0.069185585 0.7502683 -0.57733005 0.5773298 0.577391 0.9203706 0.99038124
0.54885495 0.069185585 0.7502683 0.57733154 0.5773596 0.57735974 0.85557187 0.99038124
0.54885495 -0.069185674 0.6933031 0.7070896 -0.70712394 -1.8941576e-07 0.92104375 0.95941263
0.54885495 0.069185585 0.7502683 0.57733154 0.5773596 0.57735974 0.85624516 0.9327361
0.54885495 -0.06918569 0.7502683 0.57734877 -0.5773206 0.5773815 0.9210439 0.9327361
0.41048366 -0.069185674 0.6933031 -0.7071069 -0.70710665 -1.7153721e-07 0.965477 0.8636453
0.54885495 -0.06918569 0.7502683 0.57734877 -0.5773206 0.5773815 0.93880045 0.9284439
0.41048366 -0.06918569 0.7502683 -0.57735026 -0.5773503 0.5773502 0.93880045 0.8636453
0.41048366 0.069185585 0.7502683 -0.57733005 0.5773298 0.577391 0.96976924 0.8636453
0.41048366 -0.069185674 0.6933031 -0.7071069 -0.70710665 -1.7153721e-07 0.9964458 0.92844397
0.41048366 -0.06918569 0.7502683 -0.57735026 -0.5773503 0.5773502 0.96976924 0.92844397
0.54885495 0.069185585 0.7502683 0.57733154 0.5773596 0.57735974 0.71166885 0.9957671
0.41048366 0.0691856 0.6933031 -0.70710677 0.7071068 1.8496762e-07 0.9203706 0.9637047
0.54885495 0.0691856 0.6933031 0.70712405 0.70708954 1.6708839e-07 0.85624516 0.95941263
0.54885495 -0.069185674 0.6933031 0.7070896 -0.70712394 -1.8941576e-07 0.965477 0.92844397
0.41048366 0.0691856 0.6933031 -0.70710677 0.7071068 1.8496762e-07 0.9964458 0.8636453
3 0 1 2
3 3 4 5
3 6 7 8
3 2 9 10
3 3 11 12
3 8 13 14
3 15 16 17
3 10 18 19
3 0 11 20
3 21 14 13
3 15 4 22
3 6 18 23
3 7 24 13
3 17 25 26
3 9 27 18
3 11 28 20
3 29 13 24
3 17 30 4
3 18 31 23
3 20 32 1
3 4 33 5
3 7 31 34
3 1 35 9
3 5 36 11
3 30 37 33
3 34 38 39
3 32 40 35
3 33 41 36
3 34 42 24
3 26 43 44
3 35 45 27
3 28 41 46
3 47 24 42
3 30 44 48
3 27 38 31
3 28 49 32
3 50 42 51
3 44 52 48
3 45 53 38
3 46 54 49
3 48 55 37
3 39 53 56
3 49 57 40
3 37 58 41
3 42 56 51
3 44 59 60
3 40 61 45
3 41 62 46
3 55 63 58
3 56 64 51
3 60 65 66
3 57 67 61
3 58 68 62
3 69 51 64
3 60 70 52
3 53 67 71
3 62 72 54
3 52 73 55
3 53 74 56
3 54 75 57
3 73 76 77
3 71 78 74
3 72 79 75
3 73 80 63
3 74 81 64
3 66 82 83
3 75 84 67
3 63 85 68
3 86 64 81
3 66 76 70
3 71 84 87
3 72 85 88
3 80 89 85
3 90 81 91
3 76 92 93
3 84 94 87
3 88 89 95
3 76 96 77
3 87 97 78
3 88 98 79
3 80 96 99
3 78 91 81
3 83 100 92
3 84 98 101
3 96 102 99
3 97 103 91
3 92 104 105
3 98 106 101
3 99 107 89
3 108 91 103
3 92 109 93
3 101 110 94
3 95 107 111
3 93 112 96
3 94 113 97
3 95 114 98
3 111 115 116
3 109 117 112
3 110 118 113
3 111 119 114
3 112 120 102
3 113 121 103
3 105 122 123
3 114 124 106
3 102 115 107
3 125 103 121
3 105 126 109
3 110 124 127
3 115 128 129
3 130 121 131
3 123 132 126
3 127 133 134
3 116 129 135
3 117 132 136
3 127 137 118
3 116 138 119
3 117 128 120
3 118 131 121
3 123 139 140
3 119 133 124
3 135 141 138
3 136 142 128
3 131 143 144
3 140 145 146
3 138 147 133
3 128 148 129
3 149 131 144
3 140 150 132
3 134 147 151
3 135 148 152
3 132 153 136
3 134 143 137
3 152 154 155
3 153 156 157
3 143 158 159
3 152 160 141
3 153 161 142
3 144 159 162
3 146 163 164
3 141 165 147
3 142 154 148
3 166 144 162
3 146 156 150
3 151 165 158
3 167 168 169
3 170 171 172
3 173 174 175
3 176 177 178
3 179 168 180
3 181 171 182
3 176 183 184
3 179 185 186
3 181 187 167
3 184 188 170
3 186 175 174
3 189 190 177
3 182 191 187
3 183 192 188
3 185 193 175
3 177 194 195
3 187 196 168
3 188 197 171
3 198 175 193
3 177 199 178
3 168 200 180
3 182 197 201
3 183 199 202
3 180 203 185
3 200 204 205
3 201 206 207
3 202 208 209
3 200 210 203
3 201 211 191
3 202 212 192
3 203 213 193
3 195 214 215
3 196 211 204
3 192 206 197
3 216 193 213
3 195 208 199
3 215 217 15
3 211 19 204
3 212 0 206
3 218 213 14
3 208 15 22
3 205 19 6
3 207 0 2
3 209 22 3
3 205 8 210
3 207 10 211
3 209 12 212
3 210 14 213
3 0 20 1
3 3 22 4
3 6 23 7
3 2 1 9
3 3 5 11
3 8 7 13
3 10 9 18
3 0 12 11
3 15 17 4
3 6 19 18
3 7 34 24
3 9 35 27
3 11 36 28
3 17 26 30
3 18 27 31
3 20 28 32
3 4 30 33
3 7 23 31
3 1 32 35
3 5 33 36
3 30 48 37
3 34 31 38
3 32 49 40
3 33 37 41
3 34 39 42
3 35 40 45
3 28 36 41
3 30 26 44
3 27 45 38
3 28 46 49
3 44 60 52
3 45 61 53
3 46 62 54
3 48 52 55
3 39 38 53
3 49 54 57
3 37 55 58
3 42 39 56
3 40 57 61
3 41 58 62
3 55 73 63
3 56 74 64
3 57 75 67
3 58 63 68
3 60 66 70
3 53 61 67
3 62 68 72
3 52 70 73
3 53 71 74
3 54 72 75
3 73 70 76
3 71 87 78
3 72 88 79
3 73 77 80
3 74 78 81
3 75 79 84
3 63 80 85
3 66 83 76
3 71 67 84
3 72 68 85
3 80 99 89
3 76 83 92
3 84 101 94
3 88 85 89
3 76 93 96
3 87 94 97
3 88 95 98
3 80 77 96
3 78 97 91
3 84 79 98
3 96 112 102
3 97 113 103
3 98 114 106
3 99 102 107
3 92 105 109
3 101 106 110
3 95 89 107
3 93 109 112
3 94 110 113
3 95 111 114
3 111 107 115
3 109 126 117
3 110 127 118
3 111 116 119
3 112 117 120
3 113 118 121
3 114 119 124
3 102 120 115
3 105 123 126
3 110 106 124
3 115 120 128
3 123 140 132
3 127 124 133
3 116 115 129
3 117 126 132
3 127 134 137
3 116 135 138
3 117 136 128
3 118 137 131
3 119 138 133
3 135 152 141
3 136 153 142
3 131 137 143
3 138 141 147
3 128 142 148
3 140 146 150
3 134 133 147
3 135 129 148
3 132 150 153
3 134 151 143
3 152 148 154
3 153 150 156
3 143 151 158
3 152 155 160
3 153 157 161
3 144 143 159
3 141 160 165
3 142 161 154
3 146 164 156
3 151 147 165
3 167 187 168
3 170 188 171
3 176 189 177
3 179 169 168
3 181 172 171
3 176 178 183
3 179 180 185
3 181 182 187
3 184 183 188
3 186 185 175
3 182 201 191
3 183 202 192
3 185 203 193
3 187 191 196
3 188 192 197
3 177 195 199
3 168 196 200
3 182 171 197
3 183 178 199
3 180 200 203
3 200 196 204
3 201 197 206
3 202 199 208
3 200 205 210
3 201 207 211
3 202 209 212
3 203 210 213
3 196 191 211
3 192 212 206
3 195 215 208
3 211 10 19
3 212 12 0
3 208 215 15
3 205 204 19
3 207 206 0
3 209 208 22
3 205 6 8
3 207 2 10
3 209 3 12
3 210 8 14
3 219 220 221
3 222 223 224
3 225 226 227
3 228 229 230
3 231 232 233
3 219 234 220
3 222 235 223
3 225 236 226
3 228 237 229
3 231 238 232
3 239 240 241
3 242 243 244
3 245 246 247
3 248 249 250
3 251 252 253
3 239 254 240
3 242 255 243
3 245 256 246
3 248 257 249
3 251 258 252
3 259 260 261
3 262 263 264
3 265 266 267
3 268 269 270
3 271 272 273
3 259 274 260
3 262 275 263
3 265 276 266
3 268 277 269
3 271 278 272
3 279 280 281
3 282 283 284
3 285 286 287
3 288 289 290
3 291 292 293
3 279 294 280
3 282 295 283
3 285 296 286
3 288 297 289
3 291 298 292
