ply
format ascii 1.0
comment Created in Blender version 4.4.1
element vertex 14
property float x
property float y
property float z
property float nx
property float ny
property float nz
property float s
property float t
element face 12
property list uchar uint vertex_indices
end_header
-10.074936 -0.10000062 29.598864 0.57732844 -0.57736117 -0.57736117 0.375 0.5
-12.074936 -0.10000062 31.598864 -0.57732844 -0.57736117 0.57736117 0.125 0.75
-12.074936 -0.10000062 29.598864 -0.5773721 -0.57733935 -0.57733935 0.125 0.5
-12.074936 1.8999994 31.598864 -0.5773721 0.57733935 0.57733935 0.625 0
-12.074936 -0.10000062 29.598864 -0.5773721 -0.57733935 -0.57733935 0.375 0.25
-12.074936 -0.10000062 31.598864 -0.57732844 -0.57736117 0.57736117 0.375 0
-10.074936 1.8999994 31.598864 0.57732844 0.57736117 0.57736117 0.625 0.75
-12.074936 -0.10000062 31.598864 -0.57732844 -0.57736117 0.57736117 0.375 1
-10.074936 -0.10000062 31.598864 0.5773721 -0.57733935 0.57733935 0.375 0.75
-10.074936 1.8999994 29.598864 0.5773721 0.57733935 -0.57733935 0.625 0.5
-12.074936 1.8999994 29.598864 -0.57732844 0.57736117 -0.57736117 0.875 0.5
-12.074936 1.8999994 29.598864 -0.57732844 0.57736117 -0.57736117 0.625 0.25
-12.074936 1.8999994 31.598864 -0.5773721 0.57733935 0.57733935 0.625 1
-12.074936 1.8999994 31.598864 -0.5773721 0.57733935 0.57733935 0.875 0.75
3 0 1 2
3 3 4 5
3 6 7 8
3 9 8 0
3 10 6 9
3 11 0 4
3 0 8 1
3 3 11 4
3 6 12 7
3 9 6 8
3 10 13 6
3 11 9 0
