ply
format ascii 1.0
comment Created in Blender version 4.4.1
element vertex 14
property float x
property float y
property float z
property float nx
property float ny
property float nz
property float s
property float t
element face 12
property list uchar uint vertex_indices
end_header
41.412197 1.8999996 12.976722 -0.5773721 0.57733935 0.57733935 0.625 0
41.412197 -0.10000038 10.976722 -0.5773721 -0.57733935 -0.57733935 0.375 0.25
41.412197 -0.10000038 12.976722 -0.57732844 -0.57736117 0.57736117 0.375 0
41.412197 1.8999996 10.976722 -0.57732844 0.57736117 -0.57736117 0.625 0.25
43.412197 -0.10000038 10.976722 0.57732844 -0.57736117 -0.57736117 0.375 0.5
43.412197 1.8999996 10.976722 0.5773721 0.57733935 -0.57733935 0.625 0.5
43.412197 -0.10000038 12.976722 0.5773721 -0.57733935 0.57733935 0.375 0.75
43.412197 1.8999996 12.976722 0.57732844 0.57736117 0.57736117 0.625 0.75
41.412197 -0.10000038 12.976722 -0.57732844 -0.57736117 0.57736117 0.375 1
41.412197 -0.10000038 12.976722 -0.57732844 -0.57736117 0.57736117 0.125 0.75
41.412197 -0.10000038 10.976722 -0.5773721 -0.57733935 -0.57733935 0.125 0.5
41.412197 1.8999996 10.976722 -0.57732844 0.57736117 -0.57736117 0.875 0.5
41.412197 1.8999996 12.976722 -0.5773721 0.57733935 0.57733935 0.625 1
41.412197 1.8999996 12.976722 -0.5773721 0.57733935 0.57733935 0.875 0.75
3 0 1 2
3 3 4 1
3 5 6 4
3 7 8 6
3 4 9 10
3 11 7 5
3 0 3 1
3 3 5 4
3 5 7 6
3 7 12 8
3 4 6 9
3 11 13 7
