ply
format ascii 1.0
comment Created in Blender version 4.0.2
element vertex 196
property float x
property float y
property float z
property float nx
property float ny
property float nz
property float s
property float t
element face 168
property list uchar uint vertex_indices
end_header
-0.5 0.5 0.5 -0.5773503 0.5773503 0.5773503 0.625 0
-0.5 -0.5 -0.5 -0.5773503 -0.5773503 -0.5773503 0.375 0.25
-0.5 -0.5 0.5 -0.5773503 -0.5773503 0.5773503 0.375 0
-0.5 0.5 -0.5 -0.5773503 0.5773503 -0.5773503 0.625 0.25
0.5 -0.5 -0.5 0.5773503 -0.5773503 -0.5773503 0.375 0.5
0.5 0.5 -0.5 0.5773503 0.5773503 -0.5773503 0.625 0.5
0.5 -0.5 0.5 0.5773503 -0.5773503 0.5773503 0.375 0.75
0.5 0.5 0.5 0.5773503 0.5773503 0.5773503 0.625 0.75
-0.5 -0.5 0.5 -0.5773503 -0.5773503 0.5773503 0.375 1
-0.5 -0.5 0.5 -0.5773503 -0.5773503 0.5773503 0.125 0.75
-0.5 -0.5 -0.5 -0.5773503 -0.5773503 -0.5773503 0.125 0.5
-0.5 0.5 -0.5 -0.5773503 0.5773503 -0.5773503 0.875 0.5
-0.5 0.5 0.5 -0.5773503 0.5773503 0.5773503 0.625 1
-0.5 0.5 0.5 -0.5773503 0.5773503 0.5773503 0.875 0.75
-0.425 0.425 1.3499999 -0.57735026 0.5773503 0.5773503 0.625 0
-0.425 -0.425 0.5 -0.57735026 -0.5773503 -0.5773503 0.375 0.25
-0.425 -0.425 1.3499999 -0.5773503 -0.57735026 0.5773503 0.375 0
-0.425 0.425 0.5 -0.5773503 0.57735026 -0.5773503 0.625 0.25
0.425 -0.425 0.5 0.5773503 -0.57735026 -0.5773503 0.375 0.5
0.425 0.425 0.5 0.57735026 0.5773503 -0.5773503 0.625 0.5
0.425 -0.425 1.3499999 0.57735026 -0.5773503 0.5773503 0.375 0.75
0.425 0.425 1.3499999 0.5773503 0.57735026 0.5773503 0.625 0.75
-0.425 -0.425 1.3499999 -0.5773503 -0.57735026 0.5773503 0.375 1
-0.425 -0.425 1.3499999 -0.5773503 -0.57735026 0.5773503 0.125 0.75
-0.425 -0.425 0.5 -0.57735026 -0.5773503 -0.5773503 0.125 0.5
-0.425 0.425 0.5 -0.5773503 0.57735026 -0.5773503 0.875 0.5
-0.425 0.425 1.3499999 -0.57735026 0.5773503 0.5773503 0.625 1
-0.425 0.425 1.3499999 -0.57735026 0.5773503 0.5773503 0.875 0.75
-0.36124998 0.36125 2.0724998 -0.57735026 0.5773503 0.5773503 0.625 0
-0.36124998 -0.36125 1.3499999 -0.57735026 -0.5773503 -0.5773503 0.375 0.25
-0.36124998 -0.36125 2.0724998 -0.5773504 -0.5773503 0.57735026 0.375 0
-0.36124998 0.36125 1.3499999 -0.5773504 0.5773503 -0.57735026 0.625 0.25
0.36125004 -0.36125 1.3499999 0.5773504 -0.5773503 -0.57735026 0.375 0.5
0.36125004 0.36125 1.3499999 0.57735026 0.5773503 -0.5773503 0.625 0.5
0.36125004 -0.36125 2.0724998 0.57735026 -0.5773503 0.5773503 0.375 0.75
0.36125004 0.36125 2.0724998 0.5773504 0.5773503 0.57735026 0.625 0.75
-0.36124998 -0.36125 2.0724998 -0.5773504 -0.5773503 0.57735026 0.375 1
-0.36124998 -0.36125 2.0724998 -0.5773504 -0.5773503 0.57735026 0.125 0.75
-0.36124998 -0.36125 1.3499999 -0.57735026 -0.5773503 -0.5773503 0.125 0.5
-0.36124998 0.36125 1.3499999 -0.5773504 0.5773503 -0.57735026 0.875 0.5
-0.36124998 0.36125 2.0724998 -0.57735026 0.5773503 0.5773503 0.625 1
-0.36124998 0.36125 2.0724998 -0.57735026 0.5773503 0.5773503 0.875 0.75
0.3070625 -0.3070625 2.0724995 0.5773503 -0.5773503 -0.5773504 0.375 0.5
-0.3070625 -0.3070625 2.6866243 -0.5773503 -0.5773503 0.5773504 0.125 0.75
-0.3070625 -0.3070625 2.0724995 -0.5773503 -0.5773503 -0.5773504 0.125 0.5
-0.3070625 0.3070625 2.6866243 -0.5773503 0.5773503 0.5773504 0.625 0
-0.3070625 -0.3070625 2.0724995 -0.5773503 -0.5773503 -0.5773504 0.375 0.25
-0.3070625 -0.3070625 2.6866243 -0.5773503 -0.5773503 0.5773504 0.375 0
0.3070625 0.3070625 2.6866243 0.5773503 0.5773503 0.5773504 0.625 0.75
-0.3070625 -0.3070625 2.6866243 -0.5773503 -0.5773503 0.5773504 0.375 1
0.3070625 -0.3070625 2.6866243 0.5773503 -0.5773503 0.5773504 0.375 0.75
0.3070625 0.3070625 2.0724995 0.5773503 0.5773503 -0.5773504 0.625 0.5
-0.3070625 0.3070625 2.0724995 -0.5773503 0.5773503 -0.5773504 0.875 0.5
-0.3070625 0.3070625 2.0724995 -0.5773503 0.5773503 -0.5773504 0.625 0.25
-0.3070625 0.3070625 2.6866243 -0.5773503 0.5773503 0.5773504 0.625 1
-0.3070625 0.3070625 2.6866243 -0.5773503 0.5773503 0.5773504 0.875 0.75
0.26100314 -0.26100314 2.6866245 0.5773503 -0.5773503 -0.5773503 0.375 0.5
-0.26100314 -0.26100314 3.2086306 -0.5773503 -0.5773503 0.5773503 0.125 0.75
-0.26100314 -0.26100314 2.6866245 -0.57735026 -0.5773502 -0.5773502 0.125 0.5
-0.26100314 0.26100314 3.2086306 -0.57735026 0.5773502 0.5773502 0.625 0
-0.26100314 -0.26100314 2.6866245 -0.57735026 -0.5773502 -0.5773502 0.375 0.25
-0.26100314 -0.26100314 3.2086306 -0.5773503 -0.5773503 0.5773503 0.375 0
0.26100314 0.26100314 3.2086306 0.5773503 0.5773503 0.5773503 0.625 0.75
-0.26100314 -0.26100314 3.2086306 -0.5773503 -0.5773503 0.5773503 0.375 1
0.26100314 -0.26100314 3.2086306 0.57735026 -0.5773502 0.5773502 0.375 0.75
0.26100314 0.26100314 2.6866245 0.57735026 0.5773502 -0.5773502 0.625 0.5
-0.26100314 0.26100314 2.6866245 -0.5773503 0.5773503 -0.5773503 0.875 0.5
-0.26100314 0.26100314 2.6866245 -0.5773503 0.5773503 -0.5773503 0.625 0.25
-0.26100314 0.26100314 3.2086306 -0.57735026 0.5773502 0.5773502 0.625 1
-0.26100314 0.26100314 3.2086306 -0.57735026 0.5773502 0.5773502 0.875 0.75
-0.5 0.5 -0.5 -0.5773503 0.5773503 0.5773503 0.625 0
-0.5 -0.5 -1.5 -0.5773503 -0.5773503 -0.5773503 0.375 0.25
-0.5 -0.5 -0.5 -0.5773503 -0.5773503 0.5773503 0.375 0
-0.5 0.5 -1.5 -0.5773503 0.5773503 -0.5773503 0.625 0.25
0.5 -0.5 -1.5 0.5773503 -0.5773503 -0.5773503 0.375 0.5
0.5 0.5 -1.5 0.5773503 0.5773503 -0.5773503 0.625 0.5
0.5 -0.5 -0.5 0.5773503 -0.5773503 0.5773503 0.375 0.75
0.5 0.5 -0.5 0.5773503 0.5773503 0.5773503 0.625 0.75
-0.5 -0.5 -0.5 -0.5773503 -0.5773503 0.5773503 0.375 1
-0.5 -0.5 -0.5 -0.5773503 -0.5773503 0.5773503 0.125 0.75
-0.5 -0.5 -1.5 -0.5773503 -0.5773503 -0.5773503 0.125 0.5
-0.5 0.5 -1.5 -0.5773503 0.5773503 -0.5773503 0.875 0.5
-0.5 0.5 -0.5 -0.5773503 0.5773503 0.5773503 0.625 1
-0.5 0.5 -0.5 -0.5773503 0.5773503 0.5773503 0.875 0.75
-0.5 0.5 -1.5 -0.5773503 0.5773503 0.5773503 0.625 0
-0.5 -0.5 -2.5 -0.5773503 -0.5773503 -0.5773503 0.375 0.25
-0.5 -0.5 -1.5 -0.5773503 -0.5773503 0.5773503 0.375 0
-0.5 0.5 -2.5 -0.5773503 0.5773503 -0.5773503 0.625 0.25
0.5 -0.5 -2.5 0.5773503 -0.5773503 -0.5773503 0.375 0.5
0.5 0.5 -2.5 0.5773503 0.5773503 -0.5773503 0.625 0.5
0.5 -0.5 -1.5 0.5773503 -0.5773503 0.5773503 0.375 0.75
0.5 0.5 -1.5 0.5773503 0.5773503 0.5773503 0.625 0.75
-0.5 -0.5 -1.5 -0.5773503 -0.5773503 0.5773503 0.375 1
-0.5 -0.5 -1.5 -0.5773503 -0.5773503 0.5773503 0.125 0.75
-0.5 -0.5 -2.5 -0.5773503 -0.5773503 -0.5773503 0.125 0.5
-0.5 0.5 -2.5 -0.5773503 0.5773503 -0.5773503 0.875 0.5
-0.5 0.5 -1.5 -0.5773503 0.5773503 0.5773503 0.625 1
-0.5 0.5 -1.5 -0.5773503 0.5773503 0.5773503 0.875 0.75
-0.5 0.5 -2.5 -0.5773503 0.5773503 0.5773503 0.625 0
-0.5 -0.5 -3.5 -0.5773503 -0.5773503 -0.5773503 0.375 0.25
-0.5 -0.5 -2.5 -0.5773503 -0.5773503 0.5773503 0.375 0
-0.5 0.5 -3.5 -0.5773503 0.5773503 -0.5773503 0.625 0.25
0.5 -0.5 -3.5 0.5773503 -0.5773503 -0.5773503 0.375 0.5
0.5 0.5 -3.5 0.5773503 0.5773503 -0.5773503 0.625 0.5
0.5 -0.5 -2.5 0.5773503 -0.5773503 0.5773503 0.375 0.75
0.5 0.5 -2.5 0.5773503 0.5773503 0.5773503 0.625 0.75
-0.5 -0.5 -2.5 -0.5773503 -0.5773503 0.5773503 0.375 1
-0.5 -0.5 -2.5 -0.5773503 -0.5773503 0.5773503 0.125 0.75
-0.5 -0.5 -3.5 -0.5773503 -0.5773503 -0.5773503 0.125 0.5
-0.5 0.5 -3.5 -0.5773503 0.5773503 -0.5773503 0.875 0.5
-0.5 0.5 -2.5 -0.5773503 0.5773503 0.5773503 0.625 1
-0.5 0.5 -2.5 -0.5773503 0.5773503 0.5773503 0.875 0.75
-0.5 0.5 -3.5 -0.5773503 0.5773503 0.5773503 0.625 0
-0.5 -0.5 -4.5 -0.5773503 -0.5773503 -0.5773503 0.375 0.25
-0.5 -0.5 -3.5 -0.5773503 -0.5773503 0.5773503 0.375 0
-0.5 0.5 -4.5 -0.5773503 0.5773503 -0.5773503 0.625 0.25
0.5 -0.5 -4.5 0.5773503 -0.5773503 -0.5773503 0.375 0.5
0.5 0.5 -4.5 0.5773503 0.5773503 -0.5773503 0.625 0.5
0.5 -0.5 -3.5 0.5773503 -0.5773503 0.5773503 0.375 0.75
0.5 0.5 -3.5 0.5773503 0.5773503 0.5773503 0.625 0.75
-0.5 -0.5 -3.5 -0.5773503 -0.5773503 0.5773503 0.375 1
-0.5 -0.5 -3.5 -0.5773503 -0.5773503 0.5773503 0.125 0.75
-0.5 -0.5 -4.5 -0.5773503 -0.5773503 -0.5773503 0.125 0.5
-0.5 0.5 -4.5 -0.5773503 0.5773503 -0.5773503 0.875 0.5
-0.5 0.5 -3.5 -0.5773503 0.5773503 0.5773503 0.625 1
-0.5 0.5 -3.5 -0.5773503 0.5773503 0.5773503 0.875 0.75
-0.5 0.5 -4.5 -0.5773503 0.5773503 0.5773503 0.625 0
-0.5 -0.5 -5.5 -0.5773503 -0.5773503 -0.5773503 0.375 0.25
-0.5 -0.5 -4.5 -0.5773503 -0.5773503 0.5773503 0.375 0
-0.5 0.5 -5.5 -0.5773503 0.5773503 -0.5773503 0.625 0.25
0.5 -0.5 -5.5 0.5773503 -0.5773503 -0.5773503 0.375 0.5
0.5 0.5 -5.5 0.5773503 0.5773503 -0.5773503 0.625 0.5
0.5 -0.5 -4.5 0.5773503 -0.5773503 0.5773503 0.375 0.75
0.5 0.5 -4.5 0.5773503 0.5773503 0.5773503 0.625 0.75
-0.5 -0.5 -4.5 -0.5773503 -0.5773503 0.5773503 0.375 1
-0.5 -0.5 -4.5 -0.5773503 -0.5773503 0.5773503 0.125 0.75
-0.5 -0.5 -5.5 -0.5773503 -0.5773503 -0.5773503 0.125 0.5
-0.5 0.5 -5.5 -0.5773503 0.5773503 -0.5773503 0.875 0.5
-0.5 0.5 -4.5 -0.5773503 0.5773503 0.5773503 0.625 1
-0.5 0.5 -4.5 -0.5773503 0.5773503 0.5773503 0.875 0.75
-0.5 0.5 -5.5 -0.5773503 0.5773503 0.5773503 0.625 0
-0.5 -0.5 -6.5 -0.5773503 -0.5773503 -0.5773503 0.375 0.25
-0.5 -0.5 -5.5 -0.5773503 -0.5773503 0.5773503 0.375 0
-0.5 0.5 -6.5 -0.5773503 0.5773503 -0.5773503 0.625 0.25
0.5 -0.5 -6.5 0.5773503 -0.5773503 -0.5773503 0.375 0.5
0.5 0.5 -6.5 0.5773503 0.5773503 -0.5773503 0.625 0.5
0.5 -0.5 -5.5 0.5773503 -0.5773503 0.5773503 0.375 0.75
0.5 0.5 -5.5 0.5773503 0.5773503 0.5773503 0.625 0.75
-0.5 -0.5 -5.5 -0.5773503 -0.5773503 0.5773503 0.375 1
-0.5 -0.5 -5.5 -0.5773503 -0.5773503 0.5773503 0.125 0.75
-0.5 -0.5 -6.5 -0.5773503 -0.5773503 -0.5773503 0.125 0.5
-0.5 0.5 -6.5 -0.5773503 0.5773503 -0.5773503 0.875 0.5
-0.5 0.5 -5.5 -0.5773503 0.5773503 0.5773503 0.625 1
-0.5 0.5 -5.5 -0.5773503 0.5773503 0.5773503 0.875 0.75
-0.625 0.5625 -6.5 -0.57735026 0.5773503 0.5773503 0.625 0
-0.625 -0.5625 -8 -0.57735026 -0.5773503 -0.5773503 0.375 0.25
-0.625 -0.5625 -6.5 -0.5773503 -0.5773503 0.5773503 0.375 0
-0.625 0.5625 -8 -0.5773503 0.5773503 -0.5773503 0.625 0.25
0.625 -0.5625 -8 0.5773503 -0.5773503 -0.5773503 0.375 0.5
0.625 0.5625 -8 0.57735026 0.5773503 -0.5773503 0.625 0.5
0.625 -0.5625 -6.5 0.57735026 -0.5773503 0.5773503 0.375 0.75
0.625 0.5625 -6.5 0.5773503 0.5773503 0.5773503 0.625 0.75
-0.625 -0.5625 -6.5 -0.5773503 -0.5773503 0.5773503 0.375 1
-0.625 -0.5625 -6.5 -0.5773503 -0.5773503 0.5773503 0.125 0.75
-0.625 -0.5625 -8 -0.57735026 -0.5773503 -0.5773503 0.125 0.5
-0.625 0.5625 -8 -0.5773503 0.5773503 -0.5773503 0.875 0.5
-0.625 0.5625 -6.5 -0.57735026 0.5773503 0.5773503 0.625 1
-0.625 0.5625 -6.5 -0.57735026 0.5773503 0.5773503 0.875 0.75
0.20163268 0.3885306 -8 -0.57735026 0.5773503 0.5773503 0.625 0
0.20163268 0.21146941 -8.236082 -0.57735026 -0.5773503 -0.5773503 0.375 0.25
0.20163268 0.21146941 -8 -0.5773503 -0.5773503 0.5773503 0.375 0
0.20163268 0.3885306 -8.236082 -0.5773503 0.5773503 -0.5773503 0.625 0.25
0.39836735 0.21146941 -8.236082 0.5773503 -0.5773503 -0.5773503 0.375 0.5
0.39836735 0.3885306 -8.236082 0.57735026 0.5773503 -0.5773503 0.625 0.5
0.39836735 0.21146941 -8 0.57735026 -0.5773503 0.5773503 0.375 0.75
0.39836735 0.3885306 -8 0.5773503 0.5773503 0.5773503 0.625 0.75
0.20163268 0.21146941 -8 -0.5773503 -0.5773503 0.5773503 0.375 1
0.20163268 0.21146941 -8 -0.5773503 -0.5773503 0.5773503 0.125 0.75
0.20163268 0.21146941 -8.236082 -0.57735026 -0.5773503 -0.5773503 0.125 0.5
0.20163268 0.3885306 -8.236082 -0.5773503 0.5773503 -0.5773503 0.875 0.5
0.20163268 0.3885306 -8 -0.57735026 0.5773503 0.5773503 0.625 1
0.20163268 0.3885306 -8 -0.57735026 0.5773503 0.5773503 0.875 0.75
-0.39836735 0.3885306 -8 -0.57735026 0.5773503 0.5773503 0.625 0
-0.39836735 0.21146941 -8.236082 -0.57735026 -0.5773503 -0.5773503 0.375 0.25
-0.39836735 0.21146941 -8 -0.5773503 -0.5773503 0.5773503 0.375 0
-0.39836735 0.3885306 -8.236082 -0.5773503 0.5773503 -0.5773503 0.625 0.25
-0.20163268 0.21146941 -8.236082 0.5773503 -0.5773503 -0.5773503 0.375 0.5
-0.20163268 0.3885306 -8.236082 0.57735026 0.5773503 -0.5773503 0.625 0.5
-0.20163268 0.21146941 -8 0.57735026 -0.5773503 0.5773503 0.375 0.75
-0.20163268 0.3885306 -8 0.5773503 0.5773503 0.5773503 0.625 0.75
-0.39836735 0.21146941 -8 -0.5773503 -0.5773503 0.5773503 0.375 1
-0.39836735 0.21146941 -8 -0.5773503 -0.5773503 0.5773503 0.125 0.75
-0.39836735 0.21146941 -8.236082 -0.57735026 -0.5773503 -0.5773503 0.125 0.5
-0.39836735 0.3885306 -8.236082 -0.5773503 0.5773503 -0.5773503 0.875 0.5
-0.39836735 0.3885306 -8 -0.57735026 0.5773503 0.5773503 0.625 1
-0.39836735 0.3885306 -8 -0.57735026 0.5773503 0.5773503 0.875 0.75
3 0 1 2
3 3 4 1
3 5 6 4
3 7 8 6
3 4 9 10
3 11 7 5
3 0 3 1
3 3 5 4
3 5 7 6
3 7 12 8
3 4 6 9
3 11 13 7
3 14 15 16
3 17 18 15
3 19 20 18
3 21 22 20
3 18 23 24
3 25 21 19
3 14 17 15
3 17 19 18
3 19 21 20
3 21 26 22
3 18 20 23
3 25 27 21
3 28 29 30
3 31 32 29
3 33 34 32
3 35 36 34
3 32 37 38
3 39 35 33
3 28 31 29
3 31 33 32
3 33 35 34
3 35 40 36
3 32 34 37
3 39 41 35
3 42 43 44
3 45 46 47
3 48 49 50
3 51 50 42
3 52 48 51
3 53 42 46
3 42 50 43
3 45 53 46
3 48 54 49
3 51 48 50
3 52 55 48
3 53 51 42
3 56 57 58
3 59 60 61
3 62 63 64
3 65 64 56
3 66 62 65
3 67 56 60
3 56 64 57
3 59 67 60
3 62 68 63
3 65 62 64
3 66 69 62
3 67 65 56
3 70 71 72
3 73 74 71
3 75 76 74
3 77 78 76
3 74 79 80
3 81 77 75
3 70 73 71
3 73 75 74
3 75 77 76
3 77 82 78
3 74 76 79
3 81 83 77
3 84 85 86
3 87 88 85
3 89 90 88
3 91 92 90
3 88 93 94
3 95 91 89
3 84 87 85
3 87 89 88
3 89 91 90
3 91 96 92
3 88 90 93
3 95 97 91
3 98 99 100
3 101 102 99
3 103 104 102
3 105 106 104
3 102 107 108
3 109 105 103
3 98 101 99
3 101 103 102
3 103 105 104
3 105 110 106
3 102 104 107
3 109 111 105
3 112 113 114
3 115 116 113
3 117 118 116
3 119 120 118
3 116 121 122
3 123 119 117
3 112 115 113
3 115 117 116
3 117 119 118
3 119 124 120
3 116 118 121
3 123 125 119
3 126 127 128
3 129 130 127
3 131 132 130
3 133 134 132
3 130 135 136
3 137 133 131
3 126 129 127
3 129 131 130
3 131 133 132
3 133 138 134
3 130 132 135
3 137 139 133
3 140 141 142
3 143 144 141
3 145 146 144
3 147 148 146
3 144 149 150
3 151 147 145
3 140 143 141
3 143 145 144
3 145 147 146
3 147 152 148
3 144 146 149
3 151 153 147
3 154 155 156
3 157 158 155
3 159 160 158
3 161 162 160
3 158 163 164
3 165 161 159
3 154 157 155
3 157 159 158
3 159 161 160
3 161 166 162
3 158 160 163
3 165 167 161
3 168 169 170
3 171 172 169
3 173 174 172
3 175 176 174
3 172 177 178
3 179 175 173
3 168 171 169
3 171 173 172
3 173 175 174
3 175 180 176
3 172 174 177
3 179 181 175
3 182 183 184
3 185 186 183
3 187 188 186
3 189 190 188
3 186 191 192
3 193 189 187
3 182 185 183
3 185 187 186
3 187 189 188
3 189 194 190
3 186 188 191
3 193 195 189
