ply
format ascii 1.0
comment Created in Blender version 4.0.2
element vertex 215
property float x
property float y
property float z
property float nx
property float ny
property float nz
property float s
property float t
element face 190
property list uchar uint vertex_indices
end_header
-0.5 0.5 0.5 -0.5773503 0.5773503 0.5773503 0.625 0
-0.5 -0.5 -0.5 -0.5773503 -0.5773503 -0.5773503 0.375 0.25
-0.5 -0.5 0.5 -0.5773503 -0.5773503 0.5773503 0.375 0
-0.5 0.5 -0.5 -0.5773503 0.5773503 -0.5773503 0.625 0.25
0.5 -0.5 -0.5 0.5773503 -0.5773503 -0.5773503 0.375 0.5
0.5 0.5 -0.5 0.5773503 0.5773503 -0.5773503 0.625 0.5
0.5 -0.5 0.5 0.5773503 -0.5773503 0.5773503 0.375 0.75
0.5 0.5 0.5 0.5773503 0.5773503 0.5773503 0.625 0.75
-0.5 -0.5 0.5 -0.5773503 -0.5773503 0.5773503 0.375 1
-0.5 -0.5 0.5 -0.5773503 -0.5773503 0.5773503 0.125 0.75
-0.5 -0.5 -0.5 -0.5773503 -0.5773503 -0.5773503 0.125 0.5
-0.5 0.5 -0.5 -0.5773503 0.5773503 -0.5773503 0.875 0.5
-0.5 0.5 0.5 -0.5773503 0.5773503 0.5773503 0.625 1
-0.5 0.5 0.5 -0.5773503 0.5773503 0.5773503 0.875 0.75
-0.41735375 0.41735375 1.3499999 -0.5553364 0.5450752 0.628088 0.625 0
-0.49235374 -0.50764626 0.5 -0.59651196 -0.60559034 -0.5267199 0.375 0.25
-0.4097075 -0.425 1.3499999 -0.5450888 -0.5553377 0.628075 0.375 0
-0.5 0.5 0.5 -0.6055876 0.5965004 -0.5267361 0.625 0.25
0.5 -0.5 0.5 0.6055876 -0.5965004 -0.526736 0.375 0.5
0.49235374 0.50764626 0.5 0.59651196 0.60559034 -0.5267199 0.625 0.5
0.41735375 -0.41735375 1.3499999 0.5553364 -0.5450752 0.628088 0.375 0.75
-0.41735375 0.41735375 1.3499999 -0.5553364 0.5450752 0.628088 0.625 1
-0.4097075 -0.425 1.3499999 -0.5450888 -0.5553377 0.628075 0.375 1
-0.4097075 -0.425 1.3499999 -0.5450888 -0.5553377 0.628075 0.125 0.75
-0.49235374 -0.50764626 0.5 -0.59651196 -0.60559034 -0.5267199 0.125 0.5
-0.5 0.5 0.5 -0.6055876 0.5965004 -0.5267361 0.875 0.5
0.4097075 0.425 1.3499999 0.5450888 0.5553377 0.628075 0.625 0.75
-0.41735375 0.41735375 1.3499999 -0.5553364 0.5450752 0.628088 0.875 0.75
-0.36124998 -0.36125 2.0724998 -0.5580078 -0.5529888 0.61873317 0.375 0
-0.41735375 0.41735375 1.3499999 -0.6001873 0.59226906 -0.53758025 0.625 0.25
-0.4097075 -0.425 1.3499999 -0.58856344 -0.6038798 -0.53751487 0.375 0.25
0.41735375 -0.41735375 1.3499999 0.60018724 -0.59226906 -0.5375803 0.375 0.5
0.36125004 0.36125 2.0724998 0.5580078 0.5529888 0.61873317 0.625 0.75
0.36125004 -0.36125 2.0724998 0.5569867 -0.5539756 0.6187705 0.375 0.75
-0.36124998 -0.36125 2.0724998 -0.5580078 -0.5529888 0.61873317 0.375 1
-0.4097075 -0.425 1.3499999 -0.58856344 -0.6038798 -0.53751487 0.125 0.5
-0.36124998 -0.36125 2.0724998 -0.5580078 -0.5529888 0.61873317 0.125 0.75
0.4097075 0.425 1.3499999 0.58856344 0.6038798 -0.53751487 0.625 0.5
-0.36124998 0.36125 2.0724998 -0.55698663 0.5539756 0.61877054 0.875 0.75
-0.36124998 0.36125 2.0724998 -0.55698663 0.5539756 0.61877054 0.625 0
-0.36124998 0.36125 2.0724998 -0.55698663 0.5539756 0.61877054 0.625 1
-0.41735375 0.41735375 1.3499999 -0.6001873 0.59226906 -0.53758025 0.875 0.5
0.36125004 -0.36125 2.0724998 0.5990781 -0.59907806 -0.5312352 0.375 0.5
-0.3070625 -0.3070625 2.6866243 -0.5529352 -0.5529352 0.6233179 0.125 0.75
-0.36124998 -0.36125 2.0724998 -0.599078 -0.59907806 -0.53123534 0.125 0.5
-0.3070625 0.3070625 2.6866243 -0.5529352 0.5529352 0.62331796 0.625 0
-0.36124998 -0.36125 2.0724998 -0.599078 -0.59907806 -0.53123534 0.375 0.25
-0.3070625 -0.3070625 2.6866243 -0.5529352 -0.5529352 0.6233179 0.375 0
0.3070625 0.3070625 2.6866243 0.5529352 0.5529352 0.62331796 0.625 0.75
-0.3070625 -0.3070625 2.6866243 -0.5529352 -0.5529352 0.6233179 0.375 1
0.3070625 -0.3070625 2.6866243 0.5529352 -0.55293524 0.62331796 0.375 0.75
0.36125004 0.36125 2.0724998 0.599078 0.59907806 -0.5312353 0.625 0.5
-0.36124998 0.36125 2.0724998 -0.5990781 0.59907806 -0.5312353 0.875 0.5
-0.36124998 0.36125 2.0724998 -0.5990781 0.59907806 -0.5312353 0.625 0.25
-0.3070625 0.3070625 2.6866243 -0.5529352 0.5529352 0.62331796 0.625 1
-0.3070625 0.3070625 2.6866243 -0.5529352 0.5529352 0.62331796 0.875 0.75
0.3070625 -0.3070625 2.6866243 0.61820906 -0.5687451 -0.5425373 0.375 0.5
-0.07258278 -0.31866926 4.448166 -0.534257 -0.58680123 0.6084684 0.125 0.75
-0.3070625 -0.3070625 2.6866245 -0.6182088 -0.5687453 -0.54253715 0.125 0.5
-0.07258278 -0.1735037 4.448166 -0.54591423 0.4918198 0.6783 0.625 0
-0.3070625 -0.3070625 2.6866245 -0.6182088 -0.5687453 -0.54253715 0.375 0.25
-0.07258278 -0.31866926 4.448166 -0.534257 -0.58680123 0.6084684 0.375 0
0.07258278 -0.1735037 4.448166 0.5459141 0.4918198 0.6783001 0.625 0.75
-0.07258278 -0.31866926 4.448166 -0.534257 -0.58680123 0.6084684 0.375 1
0.07258278 -0.31866926 4.448166 0.53425694 -0.5868013 0.6084685 0.375 0.75
-0.3070625 0.3070625 2.6866245 -0.6004428 0.6453797 -0.47217944 0.875 0.5
0.3070625 0.3070625 2.6866245 0.60044295 0.6453794 -0.4721796 0.625 0.5
-0.3070625 0.3070625 2.6866245 -0.6004428 0.6453797 -0.47217944 0.625 0.25
-0.07258278 -0.1735037 4.448166 -0.54591423 0.4918198 0.6783 0.625 1
-0.07258278 -0.1735037 4.448166 -0.54591423 0.4918198 0.6783 0.875 0.75
-0.5 0.5 -0.5 -0.5773503 0.5773503 0.5773503 0.625 0
-0.5 -0.5 -1.5 -0.5773503 -0.5773503 -0.5773503 0.375 0.25
-0.5 -0.5 -0.5 -0.5773503 -0.5773503 0.5773503 0.375 0
-0.5 0.5 -1.5 -0.5773503 0.5773503 -0.5773503 0.625 0.25
0.5 -0.5 -1.5 0.5773503 -0.5773503 -0.5773503 0.375 0.5
0.5 0.5 -1.5 0.5773503 0.5773503 -0.5773503 0.625 0.5
0.5 -0.5 -0.5 0.5773503 -0.5773503 0.5773503 0.375 0.75
0.5 0.5 -0.5 0.5773503 0.5773503 0.5773503 0.625 0.75
-0.5 -0.5 -0.5 -0.5773503 -0.5773503 0.5773503 0.375 1
-0.5 -0.5 -0.5 -0.5773503 -0.5773503 0.5773503 0.125 0.75
-0.5 -0.5 -1.5 -0.5773503 -0.5773503 -0.5773503 0.125 0.5
-0.5 0.5 -1.5 -0.5773503 0.5773503 -0.5773503 0.875 0.5
-0.5 0.5 -0.5 -0.5773503 0.5773503 0.5773503 0.625 1
-0.5 0.5 -0.5 -0.5773503 0.5773503 0.5773503 0.875 0.75
-0.5 0.5 -1.5 -0.5773503 0.5773503 0.5773503 0.625 0
-0.5 -0.5 -2.5 -0.5773503 -0.5773503 -0.5773503 0.375 0.25
-0.5 -0.5 -1.5 -0.5773503 -0.5773503 0.5773503 0.375 0
-0.5 0.5 -2.5 -0.5773503 0.5773503 -0.5773503 0.625 0.25
0.5 -0.5 -2.5 0.5773503 -0.5773503 -0.5773503 0.375 0.5
0.5 0.5 -2.5 0.5773503 0.5773503 -0.5773503 0.625 0.5
0.5 -0.5 -1.5 0.5773503 -0.5773503 0.5773503 0.375 0.75
0.5 0.5 -1.5 0.5773503 0.5773503 0.5773503 0.625 0.75
-0.5 -0.5 -1.5 -0.5773503 -0.5773503 0.5773503 0.375 1
-0.5 -0.5 -1.5 -0.5773503 -0.5773503 0.5773503 0.125 0.75
-0.5 -0.5 -2.5 -0.5773503 -0.5773503 -0.5773503 0.125 0.5
-0.5 0.5 -2.5 -0.5773503 0.5773503 -0.5773503 0.875 0.5
-0.5 0.5 -1.5 -0.5773503 0.5773503 0.5773503 0.625 1
-0.5 0.5 -1.5 -0.5773503 0.5773503 0.5773503 0.875 0.75
-0.5 0.5 -2.5 -0.5773503 0.5773503 0.5773503 0.625 0
-0.5 -0.5 -3.5 -0.5773503 -0.5773503 -0.5773503 0.375 0.25
-0.5 -0.5 -2.5 -0.5773503 -0.5773503 0.5773503 0.375 0
-0.5 0.5 -3.5 -0.5773503 0.5773503 -0.5773503 0.625 0.25
0.5 -0.5 -3.5 0.5773503 -0.5773503 -0.5773503 0.375 0.5
0.5 0.5 -3.5 0.5773503 0.5773503 -0.5773503 0.625 0.5
0.5 -0.5 -2.5 0.5773503 -0.5773503 0.5773503 0.375 0.75
0.5 0.5 -2.5 0.5773503 0.5773503 0.5773503 0.625 0.75
-0.5 -0.5 -2.5 -0.5773503 -0.5773503 0.5773503 0.375 1
-0.5 -0.5 -2.5 -0.5773503 -0.5773503 0.5773503 0.125 0.75
-0.5 -0.5 -3.5 -0.5773503 -0.5773503 -0.5773503 0.125 0.5
-0.5 0.5 -3.5 -0.5773503 0.5773503 -0.5773503 0.875 0.5
-0.5 0.5 -2.5 -0.5773503 0.5773503 0.5773503 0.625 1
-0.5 0.5 -2.5 -0.5773503 0.5773503 0.5773503 0.875 0.75
-0.5 0.5 -3.5 -0.5773503 0.5773503 0.5773503 0.625 0
-0.5 -0.5 -4.5 -0.5773503 -0.5773503 -0.5773503 0.375 0.25
-0.5 -0.5 -3.5 -0.5773503 -0.5773503 0.5773503 0.375 0
-0.5 0.5 -4.5 -0.5773503 0.5773503 -0.5773503 0.625 0.25
0.5 -0.5 -4.5 0.5773503 -0.5773503 -0.5773503 0.375 0.5
0.5 0.5 -4.5 0.5773503 0.5773503 -0.5773503 0.625 0.5
0.5 -0.5 -3.5 0.5773503 -0.5773503 0.5773503 0.375 0.75
0.5 0.5 -3.5 0.5773503 0.5773503 0.5773503 0.625 0.75
-0.5 -0.5 -3.5 -0.5773503 -0.5773503 0.5773503 0.375 1
-0.5 -0.5 -3.5 -0.5773503 -0.5773503 0.5773503 0.125 0.75
-0.5 -0.5 -4.5 -0.5773503 -0.5773503 -0.5773503 0.125 0.5
-0.5 0.5 -4.5 -0.5773503 0.5773503 -0.5773503 0.875 0.5
-0.5 0.5 -3.5 -0.5773503 0.5773503 0.5773503 0.625 1
-0.5 0.5 -3.5 -0.5773503 0.5773503 0.5773503 0.875 0.75
-0.5 0.5 -4.5 -0.5773503 0.5773503 0.5773503 0.625 0
-0.5 -0.5 -5.5 -0.5773503 -0.5773503 -0.5773503 0.375 0.25
-0.5 -0.5 -4.5 -0.5773503 -0.5773503 0.5773503 0.375 0
-0.5 0.5 -5.5 -0.5773503 0.5773503 -0.5773503 0.625 0.25
0.5 -0.5 -5.5 0.5773503 -0.5773503 -0.5773503 0.375 0.5
0.5 0.5 -5.5 0.5773503 0.5773503 -0.5773503 0.625 0.5
0.5 -0.5 -4.5 0.5773503 -0.5773503 0.5773503 0.375 0.75
0.5 0.5 -4.5 0.5773503 0.5773503 0.5773503 0.625 0.75
-0.5 -0.5 -4.5 -0.5773503 -0.5773503 0.5773503 0.375 1
-0.5 -0.5 -4.5 -0.5773503 -0.5773503 0.5773503 0.125 0.75
-0.5 -0.5 -5.5 -0.5773503 -0.5773503 -0.5773503 0.125 0.5
-0.5 0.5 -5.5 -0.5773503 0.5773503 -0.5773503 0.875 0.5
-0.5 0.5 -4.5 -0.5773503 0.5773503 0.5773503 0.625 1
-0.5 0.5 -4.5 -0.5773503 0.5773503 0.5773503 0.875 0.75
-0.5 0.5 -5.5 -0.53952855 0.5633341 0.6257503 0.625 0
-0.625 -0.5 -6.5 -0.6154007 -0.57109135 -0.54326475 0.375 0.25
-0.5 -0.5 -5.5 -0.5371383 -0.5841729 0.6084607 0.375 0
-0.625 0.5625 -6.5 -0.61126953 0.589491 -0.52806234 0.625 0.25
0.625 -0.5 -6.5 0.6154007 -0.57109135 -0.5432648 0.375 0.5
0.5 0.5 -5.5 0.5395286 0.5633341 0.62575036 0.625 0.75
0.5 -0.5 -5.5 0.5371383 -0.5841729 0.60846066 0.375 0.75
-0.5 -0.5 -5.5 -0.5371383 -0.5841729 0.6084607 0.375 1
-0.5 -0.5 -5.5 -0.5371383 -0.5841729 0.6084607 0.125 0.75
-0.625 -0.5 -6.5 -0.6154007 -0.57109135 -0.54326475 0.125 0.5
-0.625 0.5625 -6.5 -0.61126953 0.589491 -0.52806234 0.875 0.5
0.625 0.5625 -6.5 0.61126953 0.589491 -0.52806234 0.625 0.5
-0.5 0.5 -5.5 -0.53952855 0.5633341 0.6257503 0.625 1
-0.5 0.5 -5.5 -0.53952855 0.5633341 0.6257503 0.875 0.75
1.0121324 0.94611293 -7.446464 0.57258034 -0.58936167 -0.56991637 0.375 0.5
0.7614413 2.196791 -8.241105 0.85174865 -0.37790152 -0.3629252 0.5 0.5
0.7614413 2.5423293 -7.8829794 0.5815868 0.7877703 0.20291594 0.625 0.5
0.7614413 2.5423293 -8.710466 0.57735026 0.5773503 -0.5773503 0.625 0.5
-1.0121324 0.94611293 -7.446464 -0.5654939 -0.5539111 -0.61106396 0.125 0.5
0.7614413 1.1717349 -7.8829794 0.36704102 -0.5586649 -0.74375695 0.375 0.5
-1.0121324 2.1766453 -7.446464 -0.9083849 0.41810074 -0.0053519425 0.875 0.5
-0.7614413 2.5423293 -7.8829794 -0.52996004 0.8272866 0.18638463 0.875 0.5
-1.0121324 2.1766453 -7.446464 -0.9083849 0.41810074 -0.0053519425 0.625 0.25
-0.7614413 2.196791 -8.241105 -0.83155996 -0.38156447 -0.4036294 0.5 0.25
-0.7614413 1.1717349 -7.8829794 -0.44140327 -0.51798475 -0.73270386 0.375 0.25
-0.7614413 2.5423293 -8.710466 -0.57735026 0.5773503 -0.5773503 0.625 0.25
0.7614413 2.196791 -8.710466 0.5773503 -0.57735026 -0.5773503 0.5 0.5
-0.7614413 2.196791 -8.710466 -0.5773503 -0.5773503 -0.5773503 0.5 0.25
-0.7614413 2.5423293 -8.710466 -0.57735026 0.5773503 -0.5773503 0.875 0.5
1.0121324 2.1766453 -7.446464 0.89435935 0.41563287 -0.16544095 0.625 0.5
-0.7614413 1.1717349 -7.8829794 -0.44140327 -0.51798475 -0.73270386 0.125 0.5
-1.0121324 0.94611293 -7.446464 -0.5654939 -0.5539111 -0.61106396 0.375 0.25
-0.7614413 2.5423293 -7.8829794 -0.52996004 0.8272866 0.18638463 0.625 0.25
0.20163268 2.7193906 -8.406671 -0.57735026 0.5773503 0.5773503 0.625 0
0.20163268 2.5423293 -8.642753 -0.57735026 -0.5773503 -0.5773503 0.375 0.25
0.20163268 2.5423293 -8.406671 -0.5773503 -0.5773503 0.57735026 0.375 0
0.20163268 2.7193906 -8.642753 -0.5773503 0.5773503 -0.57735026 0.625 0.25
0.39836735 2.5423293 -8.642753 0.5773503 -0.5773503 -0.57735026 0.375 0.5
0.39836735 2.7193906 -8.642753 0.57735026 0.5773503 -0.5773503 0.625 0.5
0.39836735 2.5423293 -8.406671 0.57735026 -0.5773503 0.5773503 0.375 0.75
0.39836735 2.7193906 -8.406671 0.5773503 0.5773503 0.57735026 0.625 0.75
0.20163268 2.5423293 -8.406671 -0.5773503 -0.5773503 0.57735026 0.375 1
0.20163268 2.5423293 -8.406671 -0.5773503 -0.5773503 0.57735026 0.125 0.75
0.20163268 2.5423293 -8.642753 -0.57735026 -0.5773503 -0.5773503 0.125 0.5
0.20163268 2.7193906 -8.642753 -0.5773503 0.5773503 -0.57735026 0.875 0.5
0.20163268 2.7193906 -8.406671 -0.57735026 0.5773503 0.5773503 0.625 1
0.20163268 2.7193906 -8.406671 -0.57735026 0.5773503 0.5773503 0.875 0.75
-0.39836735 2.7193906 -8.406671 -0.57735026 0.5773503 0.5773503 0.625 0
-0.39836735 2.5423293 -8.642753 -0.57735026 -0.5773503 -0.5773503 0.375 0.25
-0.39836735 2.5423293 -8.406671 -0.5773503 -0.5773503 0.57735026 0.375 0
-0.39836735 2.7193906 -8.642753 -0.5773503 0.5773503 -0.57735026 0.625 0.25
-0.20163268 2.5423293 -8.642753 0.5773503 -0.5773503 -0.57735026 0.375 0.5
-0.20163268 2.7193906 -8.642753 0.57735026 0.5773503 -0.5773503 0.625 0.5
-0.20163268 2.5423293 -8.406671 0.57735026 -0.5773503 0.5773503 0.375 0.75
-0.20163268 2.7193906 -8.406671 0.5773503 0.5773503 0.57735026 0.625 0.75
-0.39836735 2.5423293 -8.406671 -0.5773503 -0.5773503 0.57735026 0.375 1
-0.39836735 2.5423293 -8.406671 -0.5773503 -0.5773503 0.57735026 0.125 0.75
-0.39836735 2.5423293 -8.642753 -0.57735026 -0.5773503 -0.5773503 0.125 0.5
-0.39836735 2.7193906 -8.642753 -0.5773503 0.5773503 -0.57735026 0.875 0.5
-0.39836735 2.7193906 -8.406671 -0.57735026 0.5773503 0.5773503 0.625 1
-0.39836735 2.7193906 -8.406671 -0.57735026 0.5773503 0.5773503 0.875 0.75
-0.625 0.5625 -6.5 -0.4960362 0.18670374 0.8479916 0.625 0
-1.0121324 0.94611293 -7.446464 -0.776927 -0.24574234 -0.57965094 0.375 0.25
-0.625 -0.5 -6.5 -0.48498422 -0.8350569 0.25975037 0.375 0
1.0121324 0.94611293 -7.446464 0.776927 -0.24574237 -0.5796509 0.375 0.5
0.625 0.5625 -6.5 0.4960362 0.18670367 0.8479916 0.625 0.75
0.625 -0.5 -6.5 0.48498407 -0.83505696 0.25975043 0.375 0.75
-0.625 -0.5 -6.5 -0.48498422 -0.8350569 0.25975037 0.375 1
-0.625 -0.5 -6.5 -0.48498422 -0.8350569 0.25975037 0.125 0.75
-1.0121324 0.94611293 -7.446464 -0.776927 -0.24574234 -0.57965094 0.125 0.5
-1.0121324 2.1766453 -7.446464 -0.59074104 0.7813859 -0.20114923 0.875 0.5
1.0121324 2.1766453 -7.446464 0.59074116 0.78138584 -0.20114914 0.625 0.5
-1.0121324 2.1766453 -7.446464 -0.59074104 0.7813859 -0.20114923 0.625 0.25
-0.625 0.5625 -6.5 -0.4960362 0.18670374 0.8479916 0.625 1
-0.625 0.5625 -6.5 -0.4960362 0.18670374 0.8479916 0.875 0.75
3 0 1 2
3 3 4 1
3 5 6 4
3 7 8 6
3 4 9 10
3 11 7 5
3 0 3 1
3 3 5 4
3 5 7 6
3 7 12 8
3 4 6 9
3 11 13 7
3 14 15 16
3 17 18 15
3 19 20 18
3 20 21 22
3 18 23 24
3 25 26 19
3 14 17 15
3 17 19 18
3 19 26 20
3 20 26 21
3 18 20 23
3 25 27 26
3 28 29 30
3 29 31 30
3 31 32 33
3 32 34 33
3 35 33 36
3 37 38 32
3 28 39 29
3 29 37 31
3 31 37 32
3 32 40 34
3 35 31 33
3 37 41 38
3 42 43 44
3 45 46 47
3 48 49 50
3 51 50 42
3 52 48 51
3 53 42 46
3 42 50 43
3 45 53 46
3 48 54 49
3 51 48 50
3 52 55 48
3 53 51 42
3 56 57 58
3 59 60 61
3 62 63 64
3 56 62 64
3 65 62 66
3 67 56 60
3 56 64 57
3 59 67 60
3 62 68 63
3 56 66 62
3 65 69 62
3 67 66 56
3 70 71 72
3 73 74 71
3 75 76 74
3 77 78 76
3 74 79 80
3 81 77 75
3 70 73 71
3 73 75 74
3 75 77 76
3 77 82 78
3 74 76 79
3 81 83 77
3 84 85 86
3 87 88 85
3 89 90 88
3 91 92 90
3 88 93 94
3 95 91 89
3 84 87 85
3 87 89 88
3 89 91 90
3 91 96 92
3 88 90 93
3 95 97 91
3 98 99 100
3 101 102 99
3 103 104 102
3 105 106 104
3 102 107 108
3 109 105 103
3 98 101 99
3 101 103 102
3 103 105 104
3 105 110 106
3 102 104 107
3 109 111 105
3 112 113 114
3 115 116 113
3 117 118 116
3 119 120 118
3 116 121 122
3 123 119 117
3 112 115 113
3 115 117 116
3 117 119 118
3 119 124 120
3 116 118 121
3 123 125 119
3 126 127 128
3 129 130 127
3 131 132 130
3 133 134 132
3 130 135 136
3 137 133 131
3 126 129 127
3 129 131 130
3 131 133 132
3 133 138 134
3 130 132 135
3 137 139 133
3 140 141 142
3 143 144 141
3 144 145 146
3 145 147 146
3 144 148 149
3 150 145 151
3 140 143 141
3 143 151 144
3 144 151 145
3 145 152 147
3 144 146 148
3 150 153 145
3 154 155 156
3 155 157 156
3 158 159 154
3 160 156 161
3 162 163 164
3 163 159 164
3 165 166 167
3 163 166 155
3 163 165 167
3 156 168 161
3 156 169 154
3 154 159 155
3 155 166 157
3 158 170 159
3 160 169 156
3 164 171 162
3 162 172 163
3 163 155 159
3 165 157 166
3 163 167 166
3 163 172 165
3 156 157 168
3 173 174 175
3 176 177 174
3 178 179 177
3 180 181 179
3 177 182 183
3 184 180 178
3 173 176 174
3 176 178 177
3 178 180 179
3 180 185 181
3 177 179 182
3 184 186 180
3 187 188 189
3 190 191 188
3 192 193 191
3 194 195 193
3 191 196 197
3 198 194 192
3 187 190 188
3 190 192 191
3 192 194 193
3 194 199 195
3 191 193 196
3 198 200 194
3 201 202 203
3 204 205 206
3 205 207 206
3 204 208 209
3 210 205 211
3 210 204 209
3 201 212 202
3 204 211 205
3 205 213 207
3 204 206 208
3 210 214 205
3 210 211 204
