ply
format ascii 1.0
comment Created in Blender version 4.4.1
element vertex 14
property float x
property float y
property float z
property float nx
property float ny
property float nz
property float s
property float t
element face 12
property list uchar uint vertex_indices
end_header
-20 0 20 -0.5773523 0.57734925 0.57734925 0.625 0
-20 -0.5 -20 -0.5773523 -0.57734925 -0.57734925 0.375 0.25
-20 -0.5 20 -0.5773384 -0.5773711 0.57734144 0.375 0
-20 0 -20 -0.5773384 0.5773711 -0.57734144 0.625 0.25
20 -0.5 -20 0.5773384 -0.5773711 -0.57734144 0.375 0.5
20 0 -20 0.5773523 0.57734925 -0.57734925 0.625 0.5
20 -0.5 20 0.5773523 -0.57734925 0.57734925 0.375 0.75
20 0 20 0.5773384 0.5773711 0.57734144 0.625 0.75
-20 -0.5 20 -0.5773384 -0.5773711 0.57734144 0.375 1
-20 -0.5 20 -0.5773384 -0.5773711 0.57734144 0.125 0.75
-20 -0.5 -20 -0.5773523 -0.57734925 -0.57734925 0.125 0.5
-20 0 -20 -0.5773384 0.5773711 -0.57734144 0.875 0.5
-20 0 20 -0.5773523 0.57734925 0.57734925 0.625 1
-20 0 20 -0.5773523 0.57734925 0.57734925 0.875 0.75
3 0 1 2
3 3 4 1
3 5 6 4
3 7 8 6
3 4 9 10
3 11 7 5
3 0 3 1
3 3 5 4
3 5 7 6
3 7 12 8
3 4 6 9
3 11 13 7
