ply
format ascii 1.0
comment Created in Blender version 4.4.1
element vertex 24
property float x
property float y
property float z
property float nx
property float ny
property float nz
property float s
property float t
element face 12
property list uchar uint vertex_indices
end_header
-0.04604055 3.97208 8.5 0.40622786 0.7052892 -0.5809872 0.5846859 0.3874048
0.8277253 1.113829 8.645996 0.7096503 -0.408723 0.57388324 0.58669066 0.42756504
0.8277253 1.113829 8.5 0.70964396 -0.40873146 -0.573885 0.5846859 0.42756504
0.6060735 1.0621631 8.645996 -0.40621868 -0.7052928 0.5809892 0.71829367 0.98678744
0.8277253 1.113829 8.5 0.70964396 -0.40873146 -0.573885 0.7162889 0.98369837
0.8277253 1.113829 8.645996 0.7096503 -0.408723 0.57388324 0.71829367 0.98369837
-0.04604055 3.97208 8.645996 0.40621838 0.70529294 0.5809893 0.7889133 0.8098117
0.6060735 1.0621631 8.645996 -0.40621868 -0.7052928 0.5809892 0.7920314 0.8506413
0.8277253 1.113829 8.645996 0.7096503 -0.408723 0.57388324 0.78891337 0.8508526
-0.26769227 3.9204142 8.5 -0.70964485 0.4087306 -0.5738846 0.75930274 0.9867875
-0.04604055 3.97208 8.645996 0.40621838 0.70529294 0.5809893 0.757298 0.9836984
-0.04604055 3.97208 8.5 0.40622786 0.7052892 -0.5809872 0.75930274 0.9836984
0.6060735 1.0621631 8.5 -0.40622708 -0.7052896 -0.58098733 0.5866906 0.48303986
-0.26769227 3.9204142 8.645996 -0.7096517 0.40872204 0.5738822 0.58468586 0.44287962
-0.26769227 3.9204142 8.5 -0.70964485 0.4087306 -0.5738846 0.5866906 0.44287962
0.6060735 1.0621631 8.5 -0.40622708 -0.7052896 -0.58098733 0.8530858 0.58781195
-0.04604055 3.97208 8.5 0.40622786 0.7052892 -0.5809872 0.85620385 0.5469823
0.8277253 1.113829 8.5 0.70964396 -0.40873146 -0.573885 0.85620385 0.58802325
-0.04604055 3.97208 8.645996 0.40621838 0.70529294 0.5809893 0.58669066 0.3874048
0.6060735 1.0621631 8.5 -0.40622708 -0.7052896 -0.58098733 0.7162889 0.98678744
-0.26769227 3.9204142 8.645996 -0.7096517 0.40872204 0.5738822 0.7920314 0.80960035
-0.26769227 3.9204142 8.645996 -0.7096517 0.40872204 0.5738822 0.757298 0.9867875
0.6060735 1.0621631 8.645996 -0.40621868 -0.7052928 0.5809892 0.58468586 0.48303986
-0.26769227 3.9204142 8.5 -0.70964485 0.4087306 -0.5738846 0.8530858 0.546771
3 0 1 2
3 3 4 5
3 6 7 8
3 9 10 11
3 12 13 14
3 15 16 17
3 0 18 1
3 3 19 4
3 6 20 7
3 9 21 10
3 12 22 13
3 15 23 16
