ply
format ascii 1.0
comment Created in Blender version 4.4.1
element vertex 24
property float x
property float y
property float z
property float nx
property float ny
property float nz
property float s
property float t
element face 12
property list uchar uint vertex_indices
end_header
-0.4096398 3.9859297 8.5 0.996835 -0.07949848 0 0.6382386 0.84199756
-0.64502907 1.0343947 8.645996 0.996835 -0.07949953 0 0.64024335 0.8820779
-0.64502907 1.0343947 8.5 0.996835 -0.079499565 0 0.6382386 0.8820779
-0.87219673 1.0483134 8.645996 -0.061155763 -0.99812824 -0 0.63461435 0.9837945
-0.64502907 1.0343947 8.5 -0.061155874 -0.99812824 -0 0.6326096 0.980699
-0.64502907 1.0343947 8.645996 -0.06115604 -0.99812824 -0 0.63461435 0.980699
-0.6368073 3.9998486 8.645996 0 -1.7098571e-08 1 0.8745651 0.21431679
-0.64502907 1.0343947 8.645996 0 -3.367592e-07 1 0.87144053 0.2549169
-0.4096398 3.9859297 8.645996 0 0 1 0.87144053 0.21425933
-0.6368073 3.9998486 8.5 0.061157137 0.9981282 0 0.65193367 0.9837945
-0.4096398 3.9859297 8.645996 0.061156288 0.9981283 0 0.649929 0.980699
-0.4096398 3.9859297 8.5 0.061155144 0.9981283 0 0.65193367 0.980699
-0.87219673 1.0483134 8.5 -0.99683493 0.07949955 0 0.6583042 0.8820779
-0.6368073 3.9998486 8.645996 -0.996835 0.079499535 0 0.6562995 0.84199756
-0.6368073 3.9998486 8.5 -0.996835 0.07949954 0 0.6583042 0.84199756
-0.64502907 1.0343947 8.5 0 0 -1 0.8745652 0.048314895
-0.6368073 3.9998486 8.5 0 0 -1 0.87144053 0.007714764
-0.4096398 3.9859297 8.5 0 0 -1 0.8745652 0.007657296
-0.4096398 3.9859297 8.645996 0.99683505 -0.07949845 0 0.64024335 0.84199756
-0.87219673 1.0483134 8.5 -0.061155595 -0.99812824 -0 0.6326096 0.9837945
-0.87219673 1.0483134 8.645996 0 -3.5385779e-07 1 0.8745651 0.25497437
-0.6368073 3.9998486 8.645996 0.061158285 0.9981282 0 0.649929 0.9837945
-0.87219673 1.0483134 8.645996 -0.996835 0.07949956 0 0.6562995 0.8820779
-0.87219673 1.0483134 8.5 0 0 -1 0.87144053 0.04837236
3 0 1 2
3 3 4 5
3 6 7 8
3 9 10 11
3 12 13 14
3 15 16 17
3 0 18 1
3 3 19 4
3 6 20 7
3 9 21 10
3 12 22 13
3 15 23 16
