ply
format ascii 1.0
comment Created in Blender version 4.4.1
element vertex 24
property float x
property float y
property float z
property float nx
property float ny
property float nz
property float s
property float t
element face 12
property list uchar uint vertex_indices
end_header
6.637336 1.7128398 8.3 -0.9745757 -0.22405855 -0 0.8765677 0.51560307
6.68833 1.4910324 8.154004 -0.9745757 -0.22405855 -0 0.87857246 0.51869905
6.68833 1.4910324 8.3 -0.9745757 -0.22405857 -0 0.8765677 0.51869905
6.637336 1.7128398 8.154004 0 1.5707221e-07 -1 0.27273053 0.8908613
9.264358 2.0832741 8.154004 0 2.716236e-06 -1 0.27585575 0.8545658
6.68833 1.4910324 8.154004 0 0 -1 0.27585575 0.8908613
9.213363 2.3050814 8.154004 0.97457504 0.22406152 0 0.8942655 0.3851331
9.264358 2.0832741 8.3 0.9745751 0.22406116 0 0.8962702 0.3882291
9.264358 2.0832741 8.154004 0.9745752 0.22406067 0 0.8942655 0.3882291
9.264358 2.0832741 8.3 0 -9.207697e-08 1 0.11871331 0.85710204
6.637336 1.7128398 8.3 0 -1.5922769e-06 1 0.12183851 0.8933975
6.68833 1.4910324 8.3 0 -1.6843537e-06 1 0.11871331 0.8933975
9.264358 2.0832741 8.154004 0.22406135 -0.9745751 0 0.83502495 0.6142652
6.68833 1.4910324 8.3 0.2240593 -0.9745755 0 0.8370297 0.650158
6.68833 1.4910324 8.154004 0.22405921 -0.9745755 0 0.83502495 0.650158
6.637336 1.7128398 8.154004 -0.22406131 0.97457516 0 0.908921 0.7738794
9.213363 2.3050814 8.3 -0.2240592 0.9745756 0 0.90691626 0.7379867
9.213363 2.3050814 8.154004 -0.22405912 0.97457564 0 0.908921 0.7379867
6.637336 1.7128398 8.154004 -0.9745757 -0.22405857 -0 0.87857246 0.51560307
9.213363 2.3050814 8.154004 0 2.8733082e-06 -1 0.27273053 0.8545658
9.213363 2.3050814 8.3 0.9745749 0.224062 0 0.8962702 0.3851331
9.213363 2.3050814 8.3 0 0 1 0.12183851 0.85710204
9.264358 2.0832741 8.3 0.22406144 -0.9745751 0 0.8370297 0.6142652
6.637336 1.7128398 8.3 -0.22406135 0.9745751 0 0.90691626 0.7738794
3 0 1 2
3 3 4 5
3 6 7 8
3 9 10 11
3 12 13 14
3 15 16 17
3 0 18 1
3 3 19 4
3 6 20 7
3 9 21 10
3 12 22 13
3 15 23 16
