ply
format ascii 1.0
comment Created in Blender version 4.4.1
element vertex 24
property float x
property float y
property float z
property float nx
property float ny
property float nz
property float s
property float t
element face 12
property list uchar uint vertex_indices
end_header
9.257732 2.4006665 8.154004 -0.08620523 -0.9962775 -0 0.9127051 0.46020815
6.6243415 2.6285264 8.3 -0.08620523 -0.9962775 -0 0.91470987 0.49602142
6.6243415 2.6285264 8.154004 -0.08620522 -0.9962775 -0 0.9127051 0.49602142
6.643961 2.855273 8.3 -0.99627763 0.08620372 0 0.98921734 0.007657296
6.6243415 2.6285264 8.154004 -0.99627763 0.08620372 0 0.9912221 0.010734516
6.6243415 2.6285264 8.3 -0.9962776 0.08620371 0 0.98921734 0.010734516
9.277351 2.6274133 8.3 0 4.3330267e-08 1 0.29117027 0.8908612
6.6243415 2.6285264 8.3 0 7.493077e-07 1 0.2942955 0.85456574
9.257732 2.4006665 8.3 0 0 1 0.2942955 0.8908612
9.277351 2.6274133 8.154004 0.99627775 -0.08620183 0 0.98995894 0.0884443
9.257732 2.4006665 8.3 0.99627775 -0.086201884 0 0.9919637 0.09152151
9.257732 2.4006665 8.154004 0.9962777 -0.08620194 0 0.98995894 0.09152151
6.643961 2.855273 8.154004 0.08620508 0.99627745 0 0.91470987 0.4448935
9.277351 2.6274133 8.3 0.08620522 0.9962775 0 0.9127051 0.40908024
9.277351 2.6274133 8.154004 0.08620522 0.9962775 0 0.91470987 0.40908024
6.6243415 2.6285264 8.154004 0 -2.9789577e-08 -1 0.40184736 0.85973656
9.277351 2.6274133 8.154004 0 -5.1514866e-07 -1 0.40497252 0.89603204
9.257732 2.4006665 8.154004 0 -5.449382e-07 -1 0.40184736 0.89603204
9.257732 2.4006665 8.3 -0.08620522 -0.9962775 -0 0.91470987 0.46020815
6.643961 2.855273 8.154004 -0.9962776 0.08620371 0 0.9912221 0.007657296
6.643961 2.855273 8.3 0 7.9263805e-07 1 0.29117027 0.85456574
9.277351 2.6274133 8.3 0.9962778 -0.08620178 0 0.9919637 0.0884443
6.643961 2.855273 8.3 0.086205065 0.9962775 0 0.9127051 0.4448935
6.643961 2.855273 8.154004 0 0 -1 0.40497252 0.85973656
3 0 1 2
3 3 4 5
3 6 7 8
3 9 10 11
3 12 13 14
3 15 16 17
3 0 18 1
3 3 19 4
3 6 20 7
3 9 21 10
3 12 22 13
3 15 23 16
