ply
format ascii 1.0
comment Created in Blender version 4.4.1
element vertex 24
property float x
property float y
property float z
property float nx
property float ny
property float nz
property float s
property float t
element face 12
property list uchar uint vertex_indices
end_header
8.079433 3.97208 8.5 0.95631325 0.29234427 0 0.5846859 0.33192998
8.953199 1.113829 8.645996 0.95631325 0.29234427 0 0.5866906 0.37209025
8.953199 1.113829 8.5 0.95631313 0.29234427 0 0.5846859 0.37209025
8.731547 1.0621631 8.645996 0.22700916 -0.9738926 0 0.79276776 0.98678744
8.953199 1.113829 8.5 0.22700894 -0.9738927 0 0.7907631 0.98369837
8.953199 1.113829 8.645996 0.22700864 -0.97389275 0 0.79276776 0.98369837
8.079433 3.97208 8.645996 0 3.2675864e-08 1 0.77048075 0.8098117
8.731547 1.0621631 8.645996 0 6.699209e-07 1 0.7735988 0.85064137
8.953199 1.113829 8.645996 0 7.025964e-07 1 0.77048075 0.85085267
7.857782 3.9204142 8.5 -0.22700997 0.9738925 0 0.04015478 0.9865344
8.079433 3.97208 8.645996 -0.22700901 0.9738927 0 0.03815005 0.9834453
8.079433 3.97208 8.5 -0.22700779 0.973893 0 0.04015478 0.9834453
8.731547 1.0621631 8.5 -0.9563132 -0.29234424 -0 0.5866906 0.5385147
7.857782 3.9204142 8.645996 -0.9563132 -0.29234436 -0 0.58468586 0.49835446
7.857782 3.9204142 8.5 -0.95631313 -0.29234433 -0 0.5866906 0.49835446
8.731547 1.0621631 8.5 0 -3.267521e-08 -1 0.8530858 0.6443788
8.079433 3.97208 8.5 0 -6.6991373e-07 -1 0.85620385 0.6035492
8.953199 1.113829 8.5 0 0 -1 0.85620385 0.6445901
8.079433 3.97208 8.645996 0.95631313 0.29234427 0 0.5866906 0.33192998
8.731547 1.0621631 8.5 0.22700948 -0.9738926 0 0.7907631 0.98678744
7.857782 3.9204142 8.645996 0 0 1 0.7735988 0.80960035
7.857782 3.9204142 8.645996 -0.22701117 0.97389215 0 0.03815005 0.9865344
8.731547 1.0621631 8.645996 -0.95631325 -0.29234427 -0 0.58468586 0.5385147
7.857782 3.9204142 8.5 0 -7.0258926e-07 -1 0.8530858 0.6033378
3 0 1 2
3 3 4 5
3 6 7 8
3 9 10 11
3 12 13 14
3 15 16 17
3 0 18 1
3 3 19 4
3 6 20 7
3 9 21 10
3 12 22 13
3 15 23 16
