ply
format ascii 1.0
comment Created in Blender version 4.4.1
element vertex 24
property float x
property float y
property float z
property float nx
property float ny
property float nz
property float s
property float t
element face 12
property list uchar uint vertex_indices
end_header
17.251076 2.4006665 8.154004 -0.08620523 -0.9962775 -0 0.9127051 0.35795242
14.617684 2.6285264 8.3 -0.08620523 -0.9962775 -0 0.91470987 0.3937657
14.617684 2.6285264 8.154004 -0.08620522 -0.9962775 -0 0.9127051 0.3937657
14.637304 2.855273 8.3 -0.99627733 0.08620582 0 0.98921734 0.026049107
14.617684 2.6285264 8.154004 -0.99627733 0.08620606 0 0.9912221 0.029126327
14.617684 2.6285264 8.3 -0.99627733 0.08620639 0 0.98921734 0.029126327
17.270695 2.6274133 8.3 0 1.6248839e-08 1 0.09733183 0.89339757
14.617684 2.6285264 8.3 0 2.8099012e-07 1 0.100457035 0.8571021
17.251076 2.4006665 8.3 0 0 1 0.100457035 0.89339757
17.270695 2.6274133 8.154004 0.99627775 -0.08620183 0 0.98995894 0.06305216
17.251076 2.4006665 8.3 0.99627775 -0.086201884 0 0.9919637 0.06612938
17.251076 2.4006665 8.154004 0.9962777 -0.08620194 0 0.98995894 0.06612938
14.637304 2.855273 8.154004 0.08620508 0.99627745 0 0.92652315 0.043470517
17.270695 2.6274133 8.3 0.08620522 0.9962775 0 0.9245184 0.0076573035
17.270695 2.6274133 8.154004 0.08620522 0.9962775 0 0.92652315 0.0076573035
14.617684 2.6285264 8.154004 0 -2.9789593e-08 -1 0.30961013 0.8545658
17.270695 2.6274133 8.154004 0 -5.1514826e-07 -1 0.31273538 0.8908612
17.251076 2.4006665 8.154004 0 -5.4493773e-07 -1 0.30961013 0.8908613
17.251076 2.4006665 8.3 -0.08620522 -0.9962775 -0 0.91470987 0.35795242
14.637304 2.855273 8.154004 -0.9962774 0.0862055 0 0.9912221 0.026049107
14.637304 2.855273 8.3 0 2.97239e-07 1 0.097331844 0.8571021
17.270695 2.6274133 8.3 0.9962778 -0.08620178 0 0.9919637 0.06305216
14.637304 2.855273 8.3 0.086205065 0.9962775 0 0.9245184 0.043470517
14.637304 2.855273 8.154004 0 0 -1 0.31273538 0.8545658
3 0 1 2
3 3 4 5
3 6 7 8
3 9 10 11
3 12 13 14
3 15 16 17
3 0 18 1
3 3 19 4
3 6 20 7
3 9 21 10
3 12 22 13
3 15 23 16
