ply
format ascii 1.0
comment Created in Blender version 4.4.1
element vertex 24
property float x
property float y
property float z
property float nx
property float ny
property float nz
property float s
property float t
element face 12
property list uchar uint vertex_indices
end_header
17.900002 1.71284 0.65569425 0 -0.22405998 0.9745754 0.80978465 0.96893525
17.754005 1.4910325 0.6046994 0 -0.22405909 0.9745756 0.8117894 0.97203124
17.900002 1.4910325 0.6046994 0 -0.22405796 0.9745758 0.80978465 0.97203124
17.754005 1.4910325 0.6046994 -1 0 -1.2999115e-07 0.8930049 0.25055477
17.754005 2.3050814 -1.9203324 -1 0 -2.2479242e-06 0.8898797 0.21425933
17.754005 2.0832741 -1.9713273 -1 0 -2.3779164e-06 0.8930049 0.21425933
17.754005 2.3050814 -1.9203324 0 0.22406015 -0.97457534 0.9257279 0.88988763
17.900002 2.0832741 -1.9713273 0 0.22405978 -0.9745754 0.92773265 0.8929837
17.754005 2.0832741 -1.9713273 0 0.22405924 -0.9745755 0.9257279 0.8929837
17.900002 2.3050814 -1.9203324 1 0 1.2999173e-07 0.7920385 0.86616725
17.900002 1.4910325 0.6046994 1 0 2.2479185e-06 0.78891337 0.90246266
17.900002 2.0832741 -1.9713273 1 0 0 0.78891337 0.86616725
17.754005 2.0832741 -1.9713273 0 -0.974575 -0.22406182 0.5489358 0.86655116
17.900002 1.4910325 0.6046994 0 -0.974576 -0.22405747 0.55094045 0.9024439
17.754005 1.4910325 0.6046994 0 -0.974576 -0.22405729 0.5489358 0.9024439
17.754005 1.71284 0.65569425 0 0.974576 0.22405748 0.91032434 0.16761106
17.900002 2.3050814 -1.9203324 0 0.97457504 0.22406185 0.9083196 0.13171834
17.754005 2.3050814 -1.9203324 0 0.9745749 0.22406201 0.91032434 0.13171834
17.754005 1.71284 0.65569425 0 -0.2240611 0.97457516 0.8117894 0.96893525
17.754005 1.71284 0.65569425 -1 0 0 0.8898797 0.25055477
17.900002 2.3050814 -1.9203324 0 0.22406067 -0.9745752 0.92773265 0.88988763
17.900002 1.71284 0.65569425 1 0 2.3779091e-06 0.79203856 0.90246266
17.900002 2.0832741 -1.9713273 0 -0.9745749 -0.22406198 0.55094045 0.86655116
17.900002 1.71284 0.65569425 0 0.974576 0.22405729 0.9083196 0.16761106
3 0 1 2
3 3 4 5
3 6 7 8
3 9 10 11
3 12 13 14
3 15 16 17
3 0 18 1
3 3 19 4
3 6 20 7
3 9 21 10
3 12 22 13
3 15 23 16
