ply
format ascii 1.0
comment Created in Blender version 4.4.1
element vertex 24
property float x
property float y
property float z
property float nx
property float ny
property float nz
property float s
property float t
element face 12
property list uchar uint vertex_indices
end_header
18.1 3.97208 -0.7864044 0 0.29234672 -0.9563125 0.6743603 0.7703839
18.245996 1.1138291 -1.6601703 0 0.29234216 -0.95631385 0.676365 0.81054413
18.1 1.1138291 -1.6601703 0 0.29234198 -0.9563139 0.6743603 0.81054413
18.245996 1.0621632 -1.4385173 0 -0.9738928 -0.22700886 0.38653272 0.9859777
18.1 1.1138291 -1.6601703 0 -0.9738929 -0.22700796 0.38452798 0.9828885
18.245996 1.1138291 -1.6601703 0 -0.97389317 -0.22700678 0.38653272 0.9828885
18.245996 3.97208 -0.7864044 1 0 1.0751414e-05 0.8530078 0.2710375
18.245996 1.0621632 -1.4385173 1 0 1.1927249e-06 0.85612583 0.31186712
18.245996 1.1138291 -1.6601703 1 0 7.0259136e-07 0.8530078 0.31207845
18.1 3.9204142 -0.5647533 0 0.9738923 0.22701079 0.36761874 0.98653436
18.245996 3.97208 -0.7864044 0 0.97389257 0.22700989 0.36561394 0.9834453
18.1 3.97208 -0.7864044 0 0.97389275 0.22700866 0.36761874 0.9834453
18.1 1.0621632 -1.4385173 0 -0.2923461 0.9563126 0.8742757 0.70762527
18.245996 3.9204142 -0.5647533 0 -0.29234153 0.95631397 0.87227094 0.6674651
18.1 3.9204142 -0.5647533 0 -0.29234138 0.956314 0.8742757 0.6674651
18.1 1.0621632 -1.4385173 -1 0 -4.492889e-07 0.8530078 0.048698235
18.1 3.97208 -0.7864044 -1 0 -9.211419e-06 0.85612583 0.007868626
18.1 1.1138291 -1.6601703 -1 0 0 0.85612583 0.048909556
18.245996 3.97208 -0.7864044 0 0.29234686 -0.95631236 0.676365 0.7703839
18.1 1.0621632 -1.4385173 0 -0.97389245 -0.22701 0.38452798 0.9859777
18.245996 3.9204142 -0.5647533 1 0 1.1241549e-05 0.85612583 0.2708262
18.245996 3.9204142 -0.5647533 0 0.97389203 0.227012 0.36561394 0.98653436
18.245996 1.0621632 -1.4385173 0 -0.29234624 0.95631254 0.87227094 0.70762527
18.1 3.9204142 -0.5647533 -1 0 -9.660708e-06 0.8530078 0.0076573035
3 0 1 2
3 3 4 5
3 6 7 8
3 9 10 11
3 12 13 14
3 15 16 17
3 0 18 1
3 3 19 4
3 6 20 7
3 9 21 10
3 12 22 13
3 15 23 16
