ply
format ascii 1.0
comment Created in Blender version 4.4.1
element vertex 24
property float x
property float y
property float z
property float nx
property float ny
property float nz
property float s
property float t
element face 12
property list uchar uint vertex_indices
end_header
18.1 3.9859297 -0.4228046 0 -0.079498604 -0.99683505 0.88883775 0.6044299
18.245996 1.0343949 -0.18741488 0 -0.07949862 -0.99683505 0.8908425 0.64451015
18.1 1.0343949 -0.18741488 0 -0.07949862 -0.99683505 0.88883775 0.64451015
18.245996 1.0483135 0.039752245 0 -0.9981283 0.061156172 0.91041327 0.98467034
18.1 1.0343949 -0.18741488 0 -0.99812824 0.06115568 0.9084085 0.98157483
18.245996 1.0343949 -0.18741488 0 -0.9981283 0.061155032 0.91041327 0.98157483
18.245996 3.9998486 -0.19563746 1 0 3.4197214e-08 0.8616316 0.3319875
18.245996 1.0343949 -0.18741488 1 0 6.735199e-07 0.85850686 0.37258765
18.245996 3.9859297 -0.4228046 1 0 0 0.85850686 0.33193
18.1 3.9998486 -0.19563746 0 0.9981282 -0.061156828 0.97969073 0.8929832
18.245996 3.9859297 -0.4228046 0 0.9981282 -0.061156824 0.977686 0.88988775
18.1 3.9859297 -0.4228046 0 0.99812824 -0.061156824 0.97969073 0.88988775
18.1 1.0483135 0.039752245 0 0.07949866 0.99683505 0.891595 0.7075454
18.245996 3.9998486 -0.19563746 0 0.07949997 0.9968349 0.88959026 0.6674651
18.1 3.9998486 -0.19563746 0 0.07950001 0.9968349 0.891595 0.6674651
18.1 1.0343949 -0.18741488 -1 0 3.4197183e-07 0.8745652 0.115809135
18.1 3.9998486 -0.19563746 -1 0 6.7351975e-06 0.87144053 0.07520898
18.1 3.9859297 -0.4228046 -1 0 7.0771703e-06 0.8745652 0.07515151
18.245996 3.9859297 -0.4228046 0 -0.079498604 -0.99683505 0.8908425 0.6044299
18.1 1.0483135 0.039752245 0 -0.99812824 0.061156824 0.9084085 0.98467034
18.245996 1.0483135 0.039752245 1 0 7.0771705e-07 0.8616316 0.3726451
18.245996 3.9998486 -0.19563746 0 0.99812824 -0.061156835 0.977686 0.8929832
18.245996 1.0483135 0.039752245 0 0.07949862 0.99683505 0.88959026 0.7075454
18.1 1.0483135 0.039752245 -1 0 0 0.87144053 0.11586657
3 0 1 2
3 3 4 5
3 6 7 8
3 9 10 11
3 12 13 14
3 15 16 17
3 0 18 1
3 3 19 4
3 6 20 7
3 9 21 10
3 12 22 13
3 15 23 16
