ply
format ascii 1.0
comment Created in Blender version 4.4.1
element vertex 24
property float x
property float y
property float z
property float nx
property float ny
property float nz
property float s
property float t
element face 12
property list uchar uint vertex_indices
end_header
17.251871 1.7128398 -2.8000002 0.97457516 -0.22406082 0 0.0619515 0.79566014
17.200876 1.4910324 -2.654004 0.9745753 -0.2240606 0 0.06395624 0.7987562
17.200876 1.4910324 -2.8000002 0.97457534 -0.2240603 0 0.0619515 0.7987562
17.251871 1.7128398 -2.654004 0 -1.6248896e-08 1 0.8073532 0.90246266
14.624849 2.0832741 -2.654004 0 -2.8099035e-07 1 0.8104783 0.8661673
17.200876 1.4910324 -2.654004 0 0 1 0.8104783 0.90246266
14.675844 2.3050814 -2.654004 -0.9745753 0.22406076 0 0.9069096 0.71867245
14.624849 2.0832741 -2.8000002 -0.9745751 0.22406109 0 0.9089143 0.72176844
14.624849 2.0832741 -2.654004 -0.9745751 0.22406155 0 0.9069096 0.72176844
14.675844 2.3050814 -2.8000002 0 1.8957023e-08 -1 0.8973906 0.40354368
17.200876 1.4910324 -2.8000002 0 3.278221e-07 -1 0.8942655 0.4398391
14.624849 2.0832741 -2.8000002 0 0 -1 0.8942655 0.40354368
14.624849 2.0832741 -2.654004 -0.22405979 -0.9745754 -0 0.53050315 0.8676432
17.200876 1.4910324 -2.8000002 -0.22405972 -0.9745754 -0 0.5325079 0.9035359
17.200876 1.4910324 -2.654004 -0.22405973 -0.9745754 -0 0.53050315 0.9035359
17.251871 1.7128398 -2.654004 0.22405972 0.9745754 0 0.9092039 0.043549962
14.675844 2.3050814 -2.8000002 0.22405966 0.97457546 0 0.90719914 0.007657244
14.675844 2.3050814 -2.654004 0.22405969 0.97457546 0 0.9092039 0.007657244
17.251871 1.7128398 -2.654004 0.9745751 -0.2240611 0 0.06395624 0.79566014
14.675844 2.3050814 -2.654004 0 -2.9723924e-07 1 0.8073532 0.8661673
14.675844 2.3050814 -2.8000002 -0.97457534 0.2240603 0 0.9089143 0.71867245
17.251871 1.7128398 -2.8000002 0 3.4677913e-07 -1 0.8973906 0.43983912
14.624849 2.0832741 -2.8000002 -0.22405982 -0.9745754 -0 0.5325079 0.8676432
17.251871 1.7128398 -2.8000002 0.22405973 0.9745754 0 0.90719914 0.043549962
3 0 1 2
3 3 4 5
3 6 7 8
3 9 10 11
3 12 13 14
3 15 16 17
3 0 18 1
3 3 19 4
3 6 20 7
3 9 21 10
3 12 22 13
3 15 23 16
