ply
format ascii 1.0
comment Created in Blender version 4.4.1
element vertex 24
property float x
property float y
property float z
property float nx
property float ny
property float nz
property float s
property float t
element face 12
property list uchar uint vertex_indices
end_header
14.631474 2.4006665 -2.654004 -0.5254254 -0.6249742 0.57735205 0.92526 0.06305216
17.264866 2.6285264 -2.8000002 0.6249673 -0.5254336 -0.57735205 0.92726475 0.098865375
17.264866 2.6285264 -2.654004 0.62497574 -0.52542746 0.57734853 0.92526 0.098865375
17.245245 2.855273 -2.8000002 0.5254318 0.62497133 -0.5773493 0.98921734 0.04444093
17.264866 2.6285264 -2.654004 0.62497574 -0.52542746 0.57734853 0.9912221 0.047518145
17.264866 2.6285264 -2.8000002 0.6249673 -0.5254336 -0.57735205 0.98921734 0.047518145
14.611855 2.6274133 -2.8000002 -0.6249649 0.5254356 -0.57735276 0.8542101 0.8978061
17.264866 2.6285264 -2.8000002 0.6249673 -0.5254336 -0.57735205 0.85733527 0.8615107
14.631474 2.4006665 -2.8000002 -0.5254346 -0.6249696 -0.57734865 0.85733527 0.8978061
14.611855 2.6274133 -2.654004 -0.62497336 0.52542967 0.5773491 0.20592356 0.987234
14.631474 2.4006665 -2.8000002 -0.5254346 -0.6249696 -0.57734865 0.20792829 0.99031126
14.631474 2.4006665 -2.654004 -0.5254254 -0.6249742 0.57735205 0.20592356 0.99031126
17.245245 2.855273 -2.654004 0.52542263 0.624976 0.57735264 0.676365 0.9171468
14.611855 2.6274133 -2.8000002 -0.6249649 0.5254356 -0.57735276 0.6743603 0.88133353
14.611855 2.6274133 -2.654004 -0.62497336 0.52542967 0.5773491 0.676365 0.88133353
17.245245 2.855273 -2.654004 0.52542263 0.624976 0.57735264 0.89300495 0.13171831
14.631474 2.4006665 -2.654004 -0.5254254 -0.6249742 0.57735205 0.88987976 0.16801375
17.264866 2.6285264 -2.654004 0.62497574 -0.52542746 0.57734853 0.88987976 0.13171831
14.631474 2.4006665 -2.8000002 -0.5254346 -0.6249696 -0.57734865 0.92726475 0.06305216
17.245245 2.855273 -2.654004 0.52542263 0.624976 0.57735264 0.9912221 0.04444093
17.245245 2.855273 -2.8000002 0.5254318 0.62497133 -0.5773493 0.8542101 0.8615107
14.611855 2.6274133 -2.8000002 -0.6249649 0.5254356 -0.57735276 0.20792829 0.987234
17.245245 2.855273 -2.8000002 0.5254318 0.62497133 -0.5773493 0.6743603 0.9171468
14.611855 2.6274133 -2.654004 -0.62497336 0.52542967 0.5773491 0.89300495 0.16801375
3 0 1 2
3 3 4 5
3 6 7 8
3 9 10 11
3 12 13 14
3 15 16 17
3 0 18 1
3 3 19 4
3 6 20 7
3 9 21 10
3 12 22 13
3 15 23 16
