ply
format ascii 1.0
comment Created in Blender version 4.4.1
element vertex 24
property float x
property float y
property float z
property float nx
property float ny
property float nz
property float s
property float t
element face 12
property list uchar uint vertex_indices
end_header
15.8097725 3.97208 -3 -0.95631325 0.29234427 0 0.41990823 0.79910815
14.936007 1.113829 -3.145996 -0.95631325 0.29234427 0 0.42191297 0.8392683
14.936007 1.113829 -3 -0.95631313 0.29234427 0 0.41990823 0.8392683
15.15766 1.0621631 -3.145996 -0.22700807 -0.97389287 -0 0.88502115 0.9850668
14.936007 1.113829 -3 -0.22700766 -0.973893 -0 0.88301647 0.98197764
14.936007 1.113829 -3.145996 -0.22700705 -0.9738931 -0 0.88502115 0.98197764
15.8097725 3.97208 -3.145996 0 -6.454125e-07 -1 0.7098523 0.8098117
15.15766 1.0621631 -3.145996 0 4.6976325e-07 -1 0.7129703 0.85064137
14.936007 1.113829 -3.145996 0 5.2694526e-07 -1 0.7098522 0.85085267
16.031424 3.9204142 -3 0.22701076 0.9738923 0 0.7419834 0.9867875
15.8097725 3.97208 -3.145996 0.22700982 0.97389257 0 0.7399787 0.9836984
15.8097725 3.97208 -3 0.2270086 0.97389287 0 0.7419834 0.9836984
15.15766 1.0621631 -3 0.95631343 -0.2923433 0 0.676365 0.8660189
16.031424 3.9204142 -3.145996 0.95631313 -0.2923443 0 0.6743603 0.82585865
16.031424 3.9204142 -3 0.95631313 -0.29234433 0 0.676365 0.82585865
15.15766 1.0621631 -3 0 0 1 0.8073459 0.8506413
15.8097725 3.97208 -3 0 0 1 0.81046396 0.8098117
14.936007 1.113829 -3 0 0 1 0.810464 0.8508526
15.8097725 3.97208 -3.145996 -0.95631313 0.29234427 0 0.42191297 0.79910815
15.15766 1.0621631 -3 -0.22700869 -0.97389275 -0 0.88301647 0.9850668
16.031424 3.9204142 -3.145996 0 -7.0259455e-07 -1 0.7129703 0.80960035
16.031424 3.9204142 -3.145996 0.227012 0.97389203 0 0.7399787 0.9867875
15.15766 1.0621631 -3.145996 0.95631343 -0.29234323 0 0.6743603 0.8660189
16.031424 3.9204142 -3 0 0 1 0.8073459 0.80960035
3 0 1 2
3 3 4 5
3 6 7 8
3 9 10 11
3 12 13 14
3 15 16 17
3 0 18 1
3 3 19 4
3 6 20 7
3 9 21 10
3 12 22 13
3 15 23 16
