ply
format ascii 1.0
comment Created in Blender version 4.4.1
element vertex 24
property float x
property float y
property float z
property float nx
property float ny
property float nz
property float s
property float t
element face 12
property list uchar uint vertex_indices
end_header
16.173372 3.9859297 -3 -0.61704195 0.53575397 0.5763914 0.38378644 0.8447438
16.408762 1.0343947 -3.145996 -0.5348679 -0.6159999 -0.5783257 0.38579118 0.88482404
16.408762 1.0343947 -3 -0.53485936 -0.61600536 0.5783277 0.38378644 0.88482404
16.63593 1.0483134 -3.145996 0.61703444 -0.5357608 -0.57639295 0.6881672 0.9837945
16.408762 1.0343947 -3 -0.53485936 -0.61600536 0.5783277 0.6861625 0.980699
16.408762 1.0343947 -3.145996 -0.5348679 -0.6159999 -0.5783257 0.6881672 0.980699
16.40054 3.9998486 -3.145996 0.534867 0.6160005 -0.5783259 0.8573348 0.8055385
16.408762 1.0343947 -3.145996 -0.5348679 -0.6159999 -0.5783257 0.8542101 0.8461386
16.173372 3.9859297 -3.145996 -0.6170345 0.53576046 -0.5763932 0.8542101 0.80548096
16.40054 3.9998486 -3 0.534859 0.6160056 0.5783277 0.6708478 0.9837945
16.173372 3.9859297 -3.145996 -0.6170345 0.53576046 -0.5763932 0.6688431 0.980699
16.173372 3.9859297 -3 -0.61704195 0.53575397 0.5763914 0.6708478 0.980699
16.63593 1.0483134 -3 0.61704236 -0.5357539 0.576391 0.009662037 0.8889435
16.40054 3.9998486 -3.145996 0.534867 0.6160005 -0.5783259 0.0076573035 0.8488632
16.40054 3.9998486 -3 0.534859 0.6160056 0.5783277 0.009662037 0.8488632
16.408762 1.0343947 -3 -0.53485936 -0.61600536 0.5783277 0.8616314 0.50023097
16.40054 3.9998486 -3 0.534859 0.6160056 0.5783277 0.85850674 0.45963085
16.173372 3.9859297 -3 -0.61704195 0.53575397 0.5763914 0.8616314 0.45957336
16.173372 3.9859297 -3.145996 -0.6170345 0.53576046 -0.5763932 0.38579118 0.8447438
16.63593 1.0483134 -3 0.61704236 -0.5357539 0.576391 0.6861625 0.9837945
16.63593 1.0483134 -3.145996 0.61703444 -0.5357608 -0.57639295 0.8573348 0.84619606
16.40054 3.9998486 -3.145996 0.534867 0.6160005 -0.5783259 0.6688431 0.9837945
16.63593 1.0483134 -3.145996 0.61703444 -0.5357608 -0.57639295 0.0076573035 0.8889435
16.63593 1.0483134 -3 0.61704236 -0.5357539 0.576391 0.85850674 0.5002884
3 0 1 2
3 3 4 5
3 6 7 8
3 9 10 11
3 12 13 14
3 15 16 17
3 0 18 1
3 3 19 4
3 6 20 7
3 9 21 10
3 12 22 13
3 15 23 16
