ply
format ascii 1.0
comment Created in Blender version 4.4.1
element vertex 24
property float x
property float y
property float z
property float nx
property float ny
property float nz
property float s
property float t
element face 12
property list uchar uint vertex_indices
end_header
12.501692 1.7128398 -2.8000002 0.69203496 0.4333082 -0.5773489 0.92422897 0.71867245
12.450697 1.4910324 -2.654004 0.43331316 -0.6920318 0.57734895 0.9262337 0.72176844
12.450697 1.4910324 -2.8000002 0.43330365 -0.69203454 -0.57735276 0.92422897 0.72176844
12.501692 1.7128398 -2.654004 0.6920277 0.43331453 0.57735276 0.752048 0.9024626
9.87467 2.0832741 -2.654004 -0.69202757 -0.4333148 0.57735264 0.7551732 0.8661672
12.450697 1.4910324 -2.654004 0.43331316 -0.6920318 0.57734895 0.7551732 0.9024626
9.925665 2.3050814 -2.654004 -0.43331316 0.6920317 0.57734907 0.96036655 0.8898877
9.87467 2.0832741 -2.8000002 -0.692035 -0.43330792 -0.5773489 0.9623713 0.8929836
9.87467 2.0832741 -2.654004 -0.69202757 -0.4333148 0.57735264 0.96036655 0.8929836
9.925665 2.3050814 -2.8000002 -0.43330383 0.6920344 -0.5773528 0.4591553 0.85822314
12.450697 1.4910324 -2.8000002 0.43330365 -0.69203454 -0.57735276 0.45603007 0.8945186
9.87467 2.0832741 -2.8000002 -0.692035 -0.43330792 -0.5773489 0.45603007 0.85822314
9.87467 2.0832741 -2.654004 -0.69202757 -0.4333148 0.57735264 0.9079406 0.06305219
12.450697 1.4910324 -2.8000002 0.43330365 -0.69203454 -0.57735276 0.90994537 0.09894492
12.450697 1.4910324 -2.654004 0.43331316 -0.6920318 0.57734895 0.9079406 0.09894492
12.501692 1.7128398 -2.654004 0.6920277 0.43331453 0.57735276 0.50902593 0.90999854
9.925665 2.3050814 -2.8000002 -0.43330383 0.6920344 -0.5773528 0.5070212 0.8741059
9.925665 2.3050814 -2.654004 -0.43331316 0.6920317 0.57734907 0.50902593 0.8741059
12.501692 1.7128398 -2.654004 0.6920277 0.43331453 0.57735276 0.9262337 0.71867245
9.925665 2.3050814 -2.654004 -0.43331316 0.6920317 0.57734907 0.752048 0.8661672
9.925665 2.3050814 -2.8000002 -0.43330383 0.6920344 -0.5773528 0.9623713 0.8898877
12.501692 1.7128398 -2.8000002 0.69203496 0.4333082 -0.5773489 0.4591553 0.8945186
9.87467 2.0832741 -2.8000002 -0.692035 -0.43330792 -0.5773489 0.90994537 0.06305219
12.501692 1.7128398 -2.8000002 0.69203496 0.4333082 -0.5773489 0.5070212 0.90999854
3 0 1 2
3 3 4 5
3 6 7 8
3 9 10 11
3 12 13 14
3 15 16 17
3 0 18 1
3 3 19 4
3 6 20 7
3 9 21 10
3 12 22 13
3 15 23 16
