ply
format ascii 1.0
comment Created in Blender version 4.4.1
element vertex 24
property float x
property float y
property float z
property float nx
property float ny
property float nz
property float s
property float t
element face 12
property list uchar uint vertex_indices
end_header
9.881294 2.4006665 -2.654004 -0.5254254 -0.6249742 0.57735205 0.07889263 0.88292253
12.514687 2.6285264 -2.8000002 0.6249673 -0.5254336 -0.57735205 0.08089737 0.9187358
12.514687 2.6285264 -2.654004 0.62497574 -0.52542746 0.57734853 0.07889263 0.9187358
12.495066 2.855273 -2.8000002 0.5254318 0.62497133 -0.5773493 0.989959 0.10683609
12.514687 2.6285264 -2.654004 0.62497574 -0.52542746 0.57734853 0.99196374 0.1099133
12.514687 2.6285264 -2.8000002 0.6249673 -0.5254336 -0.57735205 0.989959 0.1099133
9.861675 2.6274133 -2.8000002 -0.6249649 0.5254356 -0.57735276 0.25429064 0.89086133
12.514687 2.6285264 -2.8000002 0.6249673 -0.5254336 -0.57735205 0.25741586 0.8545658
9.881294 2.4006665 -2.8000002 -0.5254346 -0.6249696 -0.57734865 0.25741586 0.89086133
9.861675 2.6274133 -2.654004 -0.62497336 0.52542967 0.5773491 0.99033785 0.13171834
9.881294 2.4006665 -2.8000002 -0.5254346 -0.6249696 -0.57734865 0.9923426 0.13479556
9.881294 2.4006665 -2.654004 -0.5254254 -0.6249742 0.57735205 0.99033785 0.13479556
12.495066 2.855273 -2.654004 0.52542263 0.624976 0.57735264 0.36836025 0.91989315
9.861675 2.6274133 -2.8000002 -0.6249649 0.5254356 -0.57735276 0.3663555 0.8840799
9.861675 2.6274133 -2.654004 -0.62497336 0.52542967 0.5773491 0.36836025 0.8840799
12.495066 2.855273 -2.654004 0.52542263 0.624976 0.57735264 0.44071546 0.8582231
9.881294 2.4006665 -2.654004 -0.5254254 -0.6249742 0.57735205 0.43759027 0.89451855
12.514687 2.6285264 -2.654004 0.62497574 -0.52542746 0.57734853 0.43759027 0.8582231
9.881294 2.4006665 -2.8000002 -0.5254346 -0.6249696 -0.57734865 0.08089737 0.88292253
12.495066 2.855273 -2.654004 0.52542263 0.624976 0.57735264 0.99196374 0.10683609
12.495066 2.855273 -2.8000002 0.5254318 0.62497133 -0.5773493 0.25429064 0.85456586
9.861675 2.6274133 -2.8000002 -0.6249649 0.5254356 -0.57735276 0.9923426 0.13171834
12.495066 2.855273 -2.8000002 0.5254318 0.62497133 -0.5773493 0.3663555 0.91989315
9.861675 2.6274133 -2.654004 -0.62497336 0.52542967 0.5773491 0.44071546 0.89451855
3 0 1 2
3 3 4 5
3 6 7 8
3 9 10 11
3 12 13 14
3 15 16 17
3 0 18 1
3 3 19 4
3 6 20 7
3 9 21 10
3 12 22 13
3 15 23 16
