ply
format ascii 1.0
comment Created in Blender version 4.4.1
element vertex 24
property float x
property float y
property float z
property float nx
property float ny
property float nz
property float s
property float t
element face 12
property list uchar uint vertex_indices
end_header
-2.1000001 1.71284 -3.962099 0 -0.22406079 0.9745753 0.061951503 0.7772496
-2.2459962 1.4910325 -4.013094 0 -0.22405979 0.9745754 0.0639563 0.78034556
-2.1000001 1.4910325 -4.013094 0 -0.22405857 0.9745757 0.061951503 0.78034556
-2.2459962 1.4910325 -4.013094 -1 0 3.8006954e-07 0.14027828 0.89339745
-2.2459962 2.3050814 -6.5381255 -1 0 1.15328696e-07 0.13715306 0.857102
-2.2459962 2.0832741 -6.5891204 -1 0 9.907985e-08 0.14027828 0.857102
-2.2459962 2.3050814 -6.5381255 0 0.22406076 -0.9745753 0.8097846 0.9505247
-2.1000001 2.0832741 -6.5891204 0 0.22405984 -0.9745754 0.81178933 0.9536207
-2.2459962 2.0832741 -6.5891204 0 0.22405857 -0.9745757 0.8097846 0.9536207
-2.1000001 2.3050814 -6.5381255 1 0 -5.416281e-09 0.15871812 0.85710204
-2.1000001 1.4910325 -4.013094 1 0 -9.3663274e-08 0.15559289 0.8933975
-2.1000001 2.0832741 -6.5891204 1 0 0 0.15559289 0.85710204
-2.2459962 2.0832741 -6.5891204 0 -0.9745754 -0.22405972 0.90839756 0.54677093
-2.1000001 1.4910325 -4.013094 0 -0.97457534 -0.22406015 0.9104023 0.58266366
-2.2459962 1.4910325 -4.013094 0 -0.9745754 -0.2240602 0.90839756 0.58266366
-2.2459962 1.71284 -3.962099 0 0.97457546 0.22405957 0.7735987 0.90206
-2.1000001 2.3050814 -6.5381255 0 0.9745755 0.22405972 0.7715939 0.86616725
-2.2459962 2.3050814 -6.5381255 0 0.97457546 0.22405972 0.7735987 0.86616725
-2.2459962 1.71284 -3.962099 0 -0.224062 0.9745749 0.0639563 0.7772496
-2.2459962 1.71284 -3.962099 -1 0 3.9631837e-07 0.13715306 0.89339745
-2.1000001 2.3050814 -6.5381255 0 0.224062 -0.9745749 0.81178933 0.9505247
-2.1000001 1.71284 -3.962099 1 0 -9.907955e-08 0.15871812 0.8933975
-2.1000001 2.0832741 -6.5891204 0 -0.97457546 -0.22405972 0.9104023 0.54677093
-2.1000001 1.71284 -3.962099 0 0.97457546 0.22405958 0.7715939 0.90206
3 0 1 2
3 3 4 5
3 6 7 8
3 9 10 11
3 12 13 14
3 15 16 17
3 0 18 1
3 3 19 4
3 6 20 7
3 9 21 10
3 12 22 13
3 15 23 16
