ply
format ascii 1.0
comment Created in Blender version 4.4.1
element vertex 24
property float x
property float y
property float z
property float nx
property float ny
property float nz
property float s
property float t
element face 12
property list uchar uint vertex_indices
end_header
-2.2459962 2.4006665 -6.582496 0 -0.99627745 0.08620509 0.56774503 0.8854006
-2.1000001 2.6285264 -3.9491043 0 -0.99627745 0.086205065 0.5697498 0.92121387
-2.2459962 2.6285264 -3.9491043 0 -0.9962775 0.086205065 0.56774503 0.92121387
-2.1000001 2.855273 -3.9687252 0 0.08620954 0.99627703 0.80978465 0.9873459
-2.2459962 2.6285264 -3.9491043 0 0.08620857 0.9962771 0.81178945 0.9904231
-2.1000001 2.6285264 -3.9491043 0 0.08620728 0.9962773 0.80978465 0.9904231
-2.1000001 2.6274133 -6.602115 1 0 0 0.19897132 0.8908613
-2.1000001 2.6285264 -3.9491043 1 0 0 0.2020965 0.8545658
-2.1000001 2.4006665 -6.582496 1 0 0 0.2020965 0.89086133
-2.2459962 2.6274133 -6.602115 0 -0.08620234 -0.99627775 0.9898778 0.601175
-2.1000001 2.4006665 -6.582496 0 -0.08620139 -0.99627775 0.9918826 0.6042522
-2.2459962 2.4006665 -6.582496 0 -0.08620016 -0.99627787 0.9898778 0.6042522
-2.2459962 2.855273 -3.9687252 0 0.9962775 -0.08620511 0.9276437 0.16753158
-2.1000001 2.6274133 -6.602115 0 0.99627745 -0.08620499 0.925639 0.13171837
-2.2459962 2.6274133 -6.602115 0 0.9962775 -0.08620499 0.9276437 0.13171837
-2.2459962 2.6285264 -3.9491043 -1 0 0 0.21741109 0.8545658
-2.2459962 2.6274133 -6.602115 -1 0 0 0.22053629 0.8908613
-2.2459962 2.4006665 -6.582496 -1 0 0 0.21741109 0.89086133
-2.1000001 2.4006665 -6.582496 0 -0.9962775 0.08620509 0.5697498 0.8854006
-2.2459962 2.855273 -3.9687252 0 0.08621083 0.9962769 0.81178945 0.9873459
-2.1000001 2.855273 -3.9687252 1 0 0 0.19897132 0.85456586
-2.1000001 2.6274133 -6.602115 0 -0.08620356 -0.9962776 0.9918826 0.601175
-2.1000001 2.855273 -3.9687252 0 0.9962775 -0.08620511 0.925639 0.16753158
-2.2459962 2.855273 -3.9687252 -1 0 0 0.22053629 0.85456586
3 0 1 2
3 3 4 5
3 6 7 8
3 9 10 11
3 12 13 14
3 15 16 17
3 0 18 1
3 3 19 4
3 6 20 7
3 9 21 10
3 12 22 13
3 15 23 16
