ply
format ascii 1.0
comment Created in Blender version 4.4.1
element vertex 24
property float x
property float y
property float z
property float nx
property float ny
property float nz
property float s
property float t
element face 12
property list uchar uint vertex_indices
end_header
-1.9000013 3.97208 -5.4041977 0 0.29234448 -0.95631313 0.3663555 0.77313024
-1.7540052 1.1138291 -6.2779636 0 0.29234427 -0.95631325 0.36836025 0.8132905
-1.9000013 1.1138291 -6.2779636 0 0.29234427 -0.95631325 0.3663555 0.8132905
-1.7540052 1.0621632 -6.0563107 0 -0.97389287 -0.22700857 0.989184 0.32051232
-1.9000013 1.1138291 -6.2779636 0 -0.97389287 -0.22700843 0.9871793 0.31742322
-1.7540052 1.1138291 -6.2779636 0 -0.9738929 -0.22700828 0.989184 0.31742322
-1.7540052 3.97208 -5.4041977 1 0 -4.2886356e-08 0.85300785 0.21447064
-1.7540052 1.0621632 -6.0563107 1 0 -8.7926486e-07 0.85612583 0.25530025
-1.7540052 1.1138291 -6.2779636 1 0 -9.221512e-07 0.8530078 0.25551158
-1.9000013 3.9204142 -5.1825466 0 0.97389257 0.22700958 0.98918396 0.338916
-1.7540052 3.97208 -5.4041977 0 0.97389257 0.22700968 0.9871792 0.33582693
-1.9000013 3.97208 -5.4041977 0 0.9738925 0.22700985 0.98918396 0.33582693
-1.9000013 1.0621632 -6.0563107 0 -0.29234403 0.9563133 0.87465405 0.8456412
-1.7540052 3.9204142 -5.1825466 0 -0.29234377 0.9563133 0.8726493 0.80548096
-1.9000013 3.9204142 -5.1825466 0 -0.29234377 0.9563134 0.87465405 0.80548096
-1.9000013 1.0621632 -6.0563107 -1 0 1.336769e-06 0.85300785 0.1878061
-1.9000013 3.97208 -5.4041977 -1 0 2.5454994e-09 0.8561259 0.1469765
-1.9000013 1.1138291 -6.2779636 -1 0 1.4051827e-06 0.8561259 0.18801743
-1.7540052 3.97208 -5.4041977 0 0.2923445 -0.95631313 0.36836025 0.77313024
-1.9000013 1.0621632 -6.0563107 0 -0.97389275 -0.22700869 0.9871793 0.32051232
-1.7540052 3.9204142 -5.1825466 1 0 0 0.85612583 0.21425933
-1.7540052 3.9204142 -5.1825466 0 0.97389257 0.22700942 0.9871792 0.338916
-1.7540052 1.0621632 -6.0563107 0 -0.29234397 0.95631325 0.8726493 0.8456412
-1.9000013 3.9204142 -5.1825466 -1 0 -6.586847e-08 0.85300785 0.14676517
3 0 1 2
3 3 4 5
3 6 7 8
3 9 10 11
3 12 13 14
3 15 16 17
3 0 18 1
3 3 19 4
3 6 20 7
3 9 21 10
3 12 22 13
3 15 23 16
