ply
format ascii 1.0
comment Created in Blender version 4.4.1
element vertex 24
property float x
property float y
property float z
property float nx
property float ny
property float nz
property float s
property float t
element face 12
property list uchar uint vertex_indices
end_header
-7.998581 1.7128398 -13.8 0.69203377 0.43331107 -0.57734805 0.94079584 0.644959
-8.049576 1.4910324 -13.654004 0.4333133 -0.6920318 0.5773488 0.9428006 0.64805496
-8.049576 1.4910324 -13.8 0.4333042 -0.6920337 -0.5773534 0.94079584 0.64805496
-7.998581 1.7128398 -13.654004 0.6920273 0.4333157 0.5773524 0.8899577 0.58306634
-10.625603 2.0832741 -13.654004 -0.69202673 -0.4333174 0.57735187 0.8930829 0.54677093
-8.049576 1.4910324 -13.654004 0.4333133 -0.6920318 0.5773488 0.8930829 0.58306634
-10.574608 2.3050814 -13.654004 -0.43331385 0.6920307 0.57734954 0.9430472 0.8898877
-10.625603 2.0832741 -13.8 -0.6920347 -0.43330848 -0.5773488 0.94505197 0.8929837
-10.625603 2.0832741 -13.654004 -0.69202673 -0.4333174 0.57735187 0.9430472 0.8929837
-10.574608 2.3050814 -13.8 -0.43330345 0.692035 -0.5773523 0.89309394 0.80548096
-8.049576 1.4910324 -13.8 0.4333042 -0.6920337 -0.5773534 0.88996875 0.84177643
-10.625603 2.0832741 -13.8 -0.6920347 -0.43330848 -0.5773488 0.88996875 0.80548096
-10.625603 2.0832741 -13.654004 -0.69202673 -0.4333174 0.57735187 0.90831953 0.21425939
-8.049576 1.4910324 -13.8 0.4333042 -0.6920337 -0.5773534 0.9103243 0.2501521
-8.049576 1.4910324 -13.654004 0.4333133 -0.6920318 0.5773488 0.90831953 0.2501521
-7.998581 1.7128398 -13.654004 0.6920273 0.4333157 0.5773524 0.91032434 0.3017621
-10.574608 2.3050814 -13.8 -0.43330345 0.692035 -0.5773523 0.9083196 0.26586938
-10.574608 2.3050814 -13.654004 -0.43331385 0.6920307 0.57734954 0.91032434 0.26586938
-7.998581 1.7128398 -13.654004 0.6920273 0.4333157 0.5773524 0.9428006 0.644959
-10.574608 2.3050814 -13.654004 -0.43331385 0.6920307 0.57734954 0.8899577 0.54677093
-10.574608 2.3050814 -13.8 -0.43330345 0.692035 -0.5773523 0.94505197 0.8898877
-7.998581 1.7128398 -13.8 0.69203377 0.43331107 -0.57734805 0.89309394 0.84177643
-10.625603 2.0832741 -13.8 -0.6920347 -0.43330848 -0.5773488 0.9103243 0.21425939
-7.998581 1.7128398 -13.8 0.69203377 0.43331107 -0.57734805 0.9083196 0.3017621
3 0 1 2
3 3 4 5
3 6 7 8
3 9 10 11
3 12 13 14
3 15 16 17
3 0 18 1
3 3 19 4
3 6 20 7
3 9 21 10
3 12 22 13
3 15 23 16
