ply
format ascii 1.0
comment Created in Blender version 4.4.1
element vertex 24
property float x
property float y
property float z
property float nx
property float ny
property float nz
property float s
property float t
element face 12
property list uchar uint vertex_indices
end_header
-9.44068 3.97208 -14 -0.40622747 0.70528924 0.5809875 0.5846859 0.6093041
-10.3144455 1.113829 -14.145996 -0.7096501 -0.4087225 -0.57388395 0.58669066 0.6494643
-10.3144455 1.113829 -14 -0.70964384 -0.4087312 0.5738855 0.5846859 0.6494643
-10.0927925 1.0621631 -14.145996 0.40621898 -0.705293 -0.58098876 0.32586804 0.98597777
-10.3144455 1.113829 -14 -0.70964384 -0.4087312 0.5738855 0.3238633 0.9828886
-10.3144455 1.113829 -14.145996 -0.7096501 -0.4087225 -0.57388395 0.32586804 0.9828886
-9.44068 3.97208 -14.145996 -0.40621865 0.70529264 -0.5809894 0.8538383 0.66658443
-10.0927925 1.0621631 -14.145996 0.40621898 -0.705293 -0.58098876 0.85695636 0.70741403
-10.3144455 1.113829 -14.145996 -0.7096501 -0.4087225 -0.57388395 0.8538383 0.7076253
-9.219028 3.9204142 -14 0.70964456 0.40873155 0.5738842 0.016032437 0.98840535
-9.44068 3.97208 -14.145996 -0.40621865 0.70529264 -0.5809894 0.014027704 0.9853163
-9.44068 3.97208 -14 -0.40622747 0.70528924 0.5809875 0.016032437 0.9853163
-10.0927925 1.0621631 -14 0.40622747 -0.70528996 0.5809865 0.8742823 0.778147
-9.219028 3.9204142 -14.145996 0.70965165 0.4087225 -0.573882 0.87227756 0.73798674
-9.219028 3.9204142 -14 0.70964456 0.40873155 0.5738842 0.8742823 0.73798674
-10.0927925 1.0621631 -14 0.40622747 -0.70528996 0.5809865 0.8530078 0.116192445
-9.44068 3.97208 -14 -0.40622747 0.70528924 0.5809875 0.8561259 0.07536283
-10.3144455 1.113829 -14 -0.70964384 -0.4087312 0.5738855 0.8561259 0.116403766
-9.44068 3.97208 -14.145996 -0.40621865 0.70529264 -0.5809894 0.58669066 0.6093041
-10.0927925 1.0621631 -14 0.40622747 -0.70528996 0.5809865 0.3238633 0.98597777
-9.219028 3.9204142 -14.145996 0.70965165 0.4087225 -0.573882 0.85695636 0.6663731
-9.219028 3.9204142 -14.145996 0.70965165 0.4087225 -0.573882 0.014027704 0.98840535
-10.0927925 1.0621631 -14.145996 0.40621898 -0.705293 -0.58098876 0.87227756 0.778147
-9.219028 3.9204142 -14 0.70964456 0.40873155 0.5738842 0.85300785 0.07515151
3 0 1 2
3 3 4 5
3 6 7 8
3 9 10 11
3 12 13 14
3 15 16 17
3 0 18 1
3 3 19 4
3 6 20 7
3 9 21 10
3 12 22 13
3 15 23 16
