ply
format ascii 1.0
comment Created in Blender version 4.4.1
element vertex 24
property float x
property float y
property float z
property float nx
property float ny
property float nz
property float s
property float t
element face 12
property list uchar uint vertex_indices
end_header
-10.6189785 2.4006665 -13.654004 -0.5254271 -0.62497145 0.57735354 0.6046235 0.88540053
-7.985586 2.6285264 -13.8 0.62496656 -0.52543473 -0.5773519 0.60662824 0.9212138
-7.985586 2.6285264 -13.654004 0.62497556 -0.52542734 0.5773489 0.6046235 0.9212138
-8.005207 2.855273 -13.8 0.52543265 0.6249704 -0.57734966 0.23598388 0.987234
-7.985586 2.6285264 -13.654004 0.62497556 -0.52542734 0.5773489 0.2379886 0.99031126
-7.985586 2.6285264 -13.8 0.62496656 -0.52543473 -0.5773519 0.23598388 0.99031126
-10.6385975 2.6274133 -13.8 -0.6249653 0.5254354 -0.57735264 0.23585086 0.89086133
-7.985586 2.6285264 -13.8 0.62496656 -0.52543473 -0.5773519 0.23897606 0.8545658
-10.6189785 2.4006665 -13.8 -0.52543503 -0.6249691 -0.57734877 0.23897606 0.89086133
-10.6385975 2.6274133 -13.654004 -0.62497246 0.5254322 0.5773477 0.99033785 0.17373027
-10.6189785 2.4006665 -13.8 -0.52543503 -0.6249691 -0.57734877 0.9923426 0.17680748
-10.6189785 2.4006665 -13.654004 -0.5254271 -0.62497145 0.57735354 0.99033785 0.17680748
-8.005207 2.855273 -13.654004 0.52542275 0.6249762 0.57735234 0.5870691 0.92121387
-10.6385975 2.6274133 -13.8 -0.6249653 0.5254354 -0.57735264 0.58506435 0.8854006
-10.6385975 2.6274133 -13.654004 -0.62497246 0.5254322 0.5773477 0.5870691 0.8854006
-8.005207 2.855273 -13.654004 0.52542275 0.6249762 0.57735234 0.89309394 0.85709095
-10.6189785 2.4006665 -13.654004 -0.5254271 -0.62497145 0.57735354 0.88996875 0.8933864
-7.985586 2.6285264 -13.654004 0.62497556 -0.52542734 0.5773489 0.88996875 0.85709095
-10.6189785 2.4006665 -13.8 -0.52543503 -0.6249691 -0.57734877 0.60662824 0.88540053
-8.005207 2.855273 -13.654004 0.52542275 0.6249762 0.57735234 0.2379886 0.987234
-8.005207 2.855273 -13.8 0.52543265 0.6249704 -0.57734966 0.23585086 0.85456586
-10.6385975 2.6274133 -13.8 -0.6249653 0.5254354 -0.57735264 0.9923426 0.17373027
-8.005207 2.855273 -13.8 0.52543265 0.6249704 -0.57734966 0.58506435 0.92121387
-10.6385975 2.6274133 -13.654004 -0.62497246 0.5254322 0.5773477 0.89309394 0.8933864
3 0 1 2
3 3 4 5
3 6 7 8
3 9 10 11
3 12 13 14
3 15 16 17
3 0 18 1
3 3 19 4
3 6 20 7
3 9 21 10
3 12 22 13
3 15 23 16
