ply
format ascii 1.0
comment Created in Blender version 4.4.1
element vertex 24
property float x
property float y
property float z
property float nx
property float ny
property float nz
property float s
property float t
element face 12
property list uchar uint vertex_indices
end_header
-12 1.3069533 -1.9763775 0 -1 0 0.74872035 0.6465927
-11.8 1.3069533 -0.70682013 0 -1 0 0.74597406 0.6291598
-12 1.3069533 -0.70682013 0 -1 0 0.74872035 0.6291598
-12 2.28668 -0.70682013 -1 0 0 0.7318958 0.31503427
-12 1.3069533 -1.9763775 -1 0 0 0.7453489 0.29760137
-12 1.3069533 -0.70682013 -1 0 0 0.7453489 0.31503427
-11.8 2.28668 -1.9763775 1 0 0 0.78943115 0.3150342
-11.8 1.3069533 -0.70682013 1 0 0 0.8028843 0.2976013
-11.8 1.3069533 -1.9763776 1 0 0 0.8028843 0.3150342
-11.8 2.28668 -0.70682013 0 0 1 0.6201777 0.6562026
-12 1.3069533 -0.70682013 0 0 1 0.62292403 0.6696557
-11.8 1.3069533 -0.70682013 0 0 1 0.6201777 0.6696557
-11.8 2.28668 -0.70682013 0 1 0 0.6048631 0.6507099
-12 2.28668 -1.9763775 0 1 0 0.60211676 0.66814286
-12 2.28668 -0.70682013 0 1 0 0.60211676 0.6507099
-12 1.3069533 -1.9763775 -5.196495e-07 4.2414776e-08 -1 0.8585068 0.52905613
-11.8 2.28668 -1.9763775 -7.639745e-08 -4.2414772e-08 -1 0.86125314 0.51560307
-11.8 1.3069533 -1.9763776 -5.96047e-07 5.7035717e-08 -1 0.86125314 0.52905613
-11.8 1.3069533 -1.9763776 0 -1 0 0.74597406 0.6465927
-12 2.28668 -1.9763775 -1 0 0 0.7318958 0.29760137
-11.8 2.28668 -0.70682013 1 0 0 0.78943115 0.2976013
-12 2.28668 -0.70682013 0 0 1 0.62292403 0.6562026
-11.8 2.28668 -1.9763775 0 1 0 0.6048631 0.66814286
-12 2.28668 -1.9763775 0 -5.7035706e-08 -1 0.8585068 0.51560307
3 0 1 2
3 3 4 5
3 6 7 8
3 9 10 11
3 12 13 14
3 15 16 17
3 0 18 1
3 3 19 4
3 6 20 7
3 9 21 10
3 12 22 13
3 15 23 16
