ply
format ascii 1.0
comment Created in Blender version 4.4.1
element vertex 24
property float x
property float y
property float z
property float nx
property float ny
property float nz
property float s
property float t
element face 12
property list uchar uint vertex_indices
end_header
-11.8 3.2664065 -0.70682013 0.577355 0.577355 0.5773407 0.88987976 0.18549167
-12 2.28668 -0.70682013 -0.577355 -0.577355 0.5773407 0.89262605 0.19894475
-11.8 2.28668 -0.70682013 0.577366 -0.5773403 0.5773446 0.88987976 0.19894475
-11.8 3.2664065 -1.9763775 0.5773662 0.57734036 -0.57734436 0.8942654 0.52925104
-11.8 2.28668 -0.70682013 0.577366 -0.5773403 0.5773446 0.9077185 0.5118182
-11.8 2.28668 -1.9763775 0.577355 -0.5773551 -0.5773407 0.9077185 0.52925104
-12 3.2664065 -0.70682013 -0.577366 0.57734025 0.57734454 0.92646945 0.9488274
-11.8 3.2664065 -1.9763775 0.5773662 0.57734036 -0.57734436 0.92921567 0.96626025
-12 3.2664065 -1.9763776 -0.5773549 0.5773551 -0.5773409 0.92646945 0.96626025
-12 3.2664065 -0.70682013 -0.577366 0.57734025 0.57734454 0.28207088 0.96413785
-12 2.28668 -1.9763775 -0.577366 -0.57734025 -0.57734454 0.29552397 0.946705
-12 2.28668 -0.70682013 -0.577355 -0.577355 0.5773407 0.29552397 0.96413785
-12 2.28668 -1.9763775 -0.577366 -0.57734025 -0.57734454 0.91115487 0.9662603
-11.8 2.28668 -0.70682013 0.577366 -0.5773403 0.5773446 0.9084086 0.9488274
-12 2.28668 -0.70682013 -0.577355 -0.577355 0.5773407 0.91115487 0.9488274
-11.8 2.28668 -1.9763775 0.577355 -0.5773551 -0.5773407 0.91068697 0.19894472
-12 3.2664065 -1.9763776 -0.5773549 0.5773551 -0.5773409 0.9079406 0.18549164
-11.8 3.2664065 -1.9763775 0.5773662 0.57734036 -0.57734436 0.91068697 0.18549164
-12 3.2664065 -0.70682013 -0.577366 0.57734025 0.57734454 0.89262605 0.18549167
-11.8 3.2664065 -0.70682013 0.577355 0.577355 0.5773407 0.8942654 0.5118182
-11.8 3.2664065 -0.70682013 0.577355 0.577355 0.5773407 0.92921567 0.9488274
-12 3.2664065 -1.9763776 -0.5773549 0.5773551 -0.5773409 0.28207088 0.946705
-11.8 2.28668 -1.9763775 0.577355 -0.5773551 -0.5773407 0.9084086 0.9662603
-12 2.28668 -1.9763775 -0.577366 -0.57734025 -0.57734454 0.9079406 0.19894472
3 0 1 2
3 3 4 5
3 6 7 8
3 9 10 11
3 12 13 14
3 15 16 17
3 0 18 1
3 3 19 4
3 6 20 7
3 9 21 10
3 12 22 13
3 15 23 16
