ply
format ascii 1.0
comment Created in Blender version 4.4.1
element vertex 24
property float x
property float y
property float z
property float nx
property float ny
property float nz
property float s
property float t
element face 12
property list uchar uint vertex_indices
end_header
9.400002 -0.09999998 8.5 0 1 0 0 2.9802322e-08
9.6 -0.09999998 -1.8999996 0 1 0 1 1
9.400002 -0.09999998 -1.8999996 0 1 0 2.9802322e-08 1
9.6 -0.09999998 -1.8999996 -1 0 0 0 2.9802322e-08
9.6 4 8.5 -1 0 0 1 1
9.6 4 -1.8999996 -1 0 0 2.9802322e-08 1
9.6 -0.09999998 8.5 0 0 -1 0 2.9802322e-08
9.400002 4 8.5 0 0 -1 1 1
9.6 4 8.5 0 0 -1 2.9802322e-08 1
9.400002 4 -1.8999996 0 -1 0 0 2.9802322e-08
9.6 4 8.5 0 -1 0 1 1
9.400002 4 8.5 0 -1 0 2.9802322e-08 1
9.400002 -0.09999998 -1.8999996 0 0 1 0 2.9802322e-08
9.6 4 -1.8999996 0 0 1 1 1
9.400002 4 -1.8999996 0 0 1 2.9802322e-08 1
9.400002 -0.09999998 8.5 1 0 0 0 2.9802322e-08
9.400002 4 -1.8999996 1 0 0 1 1
9.400002 4 8.5 1 0 0 2.9802322e-08 1
9.6 -0.09999998 8.5 0 1 0 1 0
9.6 -0.09999998 8.5 -1 0 0 1 0
9.400002 -0.09999998 8.5 0 0 -1 1 0
9.6 4 -1.8999996 0 -1 0 1 0
9.6 -0.09999998 -1.8999996 0 0 1 1 0
9.400002 -0.09999998 -1.8999996 1 0 0 1 0
3 0 1 2
3 3 4 5
3 6 7 8
3 9 10 11
3 12 13 14
3 15 16 17
3 0 18 1
3 3 19 4
3 6 20 7
3 9 21 10
3 12 22 13
3 15 23 16
