ply
format ascii 1.0
comment Created in Blender version 4.4.1
element vertex 56
property float x
property float y
property float z
property float nx
property float ny
property float nz
element face 88
property list uchar uint vertex_indices
end_header
5 -0.100000024 -5 -0.57735467 0.5773481 0.5773481
5 0.100000024 -5 -0.5773372 -0.5773699 0.57734376
5 -0.100000024 5 -0.5773372 0.5773699 -0.57734376
5 0.100000024 5 -0.57735467 -0.5773481 -0.5773481
-5 -0.100000024 -5 0.5773372 0.5773699 0.57734376
-5 0.100000024 -5 0.57735467 -0.5773481 0.5773481
-5 -0.100000024 5 0.57735467 0.5773481 -0.5773481
-5 0.100000024 5 0.5773372 -0.5773699 -0.57734376
5 0.099999905 4.8 -0.5773561 0.5773474 0.5773474
5 5.1 4.8 -0.5773542 -0.57736075 0.577336
5 0.099999905 5 -0.5773542 0.57736075 -0.577336
5 5.1 5 -0.5773561 -0.5773474 -0.5773474
-5 0.099999905 4.8 0.5773542 0.57736075 0.577336
-5 5.1 4.8 0.5773561 -0.5773474 0.5773474
-5 0.099999905 5 0.5773561 0.5773474 -0.5773474
-5 5.1 5 0.5773542 -0.57736075 -0.577336
5 0.099999905 -5 -0.5773561 0.5773474 0.5773474
5 5.1 -5 -0.5773542 -0.57736075 0.577336
5 0.099999905 -4.8 -0.5773542 0.57736075 -0.577336
5 5.1 -4.8 -0.5773561 -0.5773474 -0.5773474
-5 0.099999905 -5 0.5773542 0.57736075 0.577336
-5 5.1 -5 0.5773561 -0.5773474 0.5773474
-5 0.099999905 -4.8 0.5773561 0.5773474 -0.5773474
-5 5.1 -4.8 0.5773542 -0.57736075 -0.577336
4.8 0.100000024 -4.8 0.5773474 0.5773474 0.5773561
4.8 5.1 -4.8 0.57733834 -0.57735896 0.57735354
5 0.100000024 -4.8 -0.57733834 0.57735896 0.57735354
5 5.1 -4.8 -0.5773474 -0.5773474 0.5773561
4.8 0.100000024 4.8 0.57733834 0.57735896 -0.57735354
4.8 5.1 4.8 0.5773474 -0.5773474 -0.5773561
5 0.100000024 4.8 -0.5773474 0.5773474 -0.5773561
5 5.1 4.8 -0.57733834 -0.57735896 -0.57735354
-5 0.100000024 -4.8 0.5773474 0.5773474 0.5773561
-5 5.1 -4.8 0.57733834 -0.57735896 0.57735354
-4.8 0.100000024 -4.8 -0.57733834 0.57735896 0.57735354
-4.8 5.1 -4.8 -0.5773474 -0.5773474 0.5773561
-5 0.100000024 4.8 0.57733834 0.57735896 -0.57735354
-5 5.1 4.8 0.5773474 -0.5773474 -0.5773561
-4.8 0.100000024 4.8 -0.5773474 0.5773474 -0.5773561
-4.8 5.1 4.8 -0.57733834 -0.57735896 -0.57735354
-1.3123031 0.100000024 -4.8 -0.5773441 -0.57735395 -0.5773528
-1.3123031 5.1 -4.8 -0.5773461 0.5773551 -0.57734966
-1.1123033 0.100000024 -4.8 0.5773721 -0.57733935 -0.57733935
-1.1123033 5.1 -4.8 0.5773278 0.5773572 -0.5773659
-1.3123031 0.100000024 4.8 -0.5773721 -0.57733935 0.57733935
-1.3123031 5.1 4.8 -0.5773278 0.5773572 0.5773658
-1.1123033 0.100000024 4.8 0.5773441 -0.57735395 0.5773528
-1.1123033 5.1 4.8 0.5773461 0.5773551 0.57734966
-1.1123033 0.100000024 1 0.5773637 -0.5773436 -0.5773436
-1.1123033 0.100000024 -1 0.577347 -0.5773569 0.5773469
-1.1123033 3.8999999 1 0.9045354 -0.3015067 -0.30151182
-1.1123033 3.8999999 -1 0.9045308 -0.30151546 0.30151704
-1.3123031 0.100000024 1 -0.57734376 -0.5773536 -0.5773536
-1.3123031 0.100000024 -1 -0.57736045 -0.5773403 0.57735014
-1.3123031 3.8999999 1 -0.90453225 -0.30151594 -0.30151236
-1.3123031 3.8999999 -1 -0.90453684 -0.30150715 0.30150717
3 4 2 0
3 2 7 3
3 6 5 7
3 1 7 5
3 0 3 1
3 4 1 5
3 4 6 2
3 2 6 7
3 6 4 5
3 1 3 7
3 0 2 3
3 4 0 1
3 12 10 8
3 10 15 11
3 14 13 15
3 9 15 13
3 8 11 9
3 12 9 13
3 12 14 10
3 10 14 15
3 14 12 13
3 9 11 15
3 8 10 11
3 12 8 9
3 20 18 16
3 18 23 19
3 22 21 23
3 17 23 21
3 16 19 17
3 20 17 21
3 20 22 18
3 18 22 23
3 22 20 21
3 17 19 23
3 16 18 19
3 20 16 17
3 28 26 24
3 26 31 27
3 30 29 31
3 25 31 29
3 24 27 25
3 28 25 29
3 28 30 26
3 26 30 31
3 30 28 29
3 25 27 31
3 24 26 27
3 28 24 25
3 36 34 32
3 34 39 35
3 38 37 39
3 33 39 37
3 32 35 33
3 36 33 37
3 36 38 34
3 34 38 39
3 38 36 37
3 33 35 39
3 32 34 35
3 36 32 33
3 40 49 53
3 46 52 48
3 43 47 51
3 45 46 47
3 47 41 45
3 43 40 41
3 45 41 54
3 50 52 54
3 51 54 55
3 51 53 49
3 40 42 49
3 46 44 52
3 51 49 42
3 47 46 48
3 47 48 50
3 51 42 43
3 47 50 51
3 45 44 46
3 47 43 41
3 43 42 40
3 54 52 44
3 41 40 53
3 41 53 55
3 54 44 45
3 41 55 54
3 50 48 52
3 51 50 54
3 51 55 53
