ply
format ascii 1.0
comment Created in Blender version 4.0.2
element vertex 112
property float x
property float y
property float z
property float nx
property float ny
property float nz
element face 168
property list uchar uint vertex_indices
end_header
-0.5 -0.5 0.5 -0.5773503 -0.5773503 0.5773503
-0.5 0.5 0.5 -0.5773503 0.5773503 0.5773503
-0.5 -0.5 -0.5 -0.5773503 -0.5773503 -0.5773503
-0.5 0.5 -0.5 -0.5773503 0.5773503 -0.5773503
0.5 -0.5 0.5 0.5773503 -0.5773503 0.5773503
0.5 0.5 0.5 0.5773503 0.5773503 0.5773503
0.5 -0.5 -0.5 0.5773503 -0.5773503 -0.5773503
0.5 0.5 -0.5 0.5773503 0.5773503 -0.5773503
-0.425 -0.425 1.3499999 -0.5773503 -0.57735026 0.5773503
-0.425 0.425 1.3499999 -0.57735026 0.5773503 0.5773503
-0.425 -0.425 0.5 -0.57735026 -0.5773503 -0.5773503
-0.425 0.425 0.5 -0.5773503 0.57735026 -0.5773503
0.425 -0.425 1.3499999 0.57735026 -0.5773503 0.5773503
0.425 0.425 1.3499999 0.5773503 0.57735026 0.5773503
0.425 -0.425 0.5 0.5773503 -0.57735026 -0.5773503
0.425 0.425 0.5 0.57735026 0.5773503 -0.5773503
-0.36124998 -0.36125 2.0724998 -0.5773504 -0.5773503 0.57735026
-0.36124998 0.36125 2.0724998 -0.57735026 0.5773503 0.5773503
-0.36124998 -0.36125 1.3499999 -0.57735026 -0.5773503 -0.5773503
-0.36124998 0.36125 1.3499999 -0.5773504 0.5773503 -0.57735026
0.36125004 -0.36125 2.0724998 0.57735026 -0.5773503 0.5773503
0.36125004 0.36125 2.0724998 0.5773504 0.5773503 0.57735026
0.36125004 -0.36125 1.3499999 0.5773504 -0.5773503 -0.57735026
0.36125004 0.36125 1.3499999 0.57735026 0.5773503 -0.5773503
-0.3070625 -0.3070625 2.6866243 -0.5773503 -0.5773503 0.5773504
-0.3070625 -0.3070625 2.0724995 -0.5773503 -0.5773503 -0.5773504
-0.3070625 0.3070625 2.6866243 -0.5773503 0.5773503 0.5773504
0.3070625 -0.3070625 2.6866243 0.5773503 -0.5773503 0.5773504
0.3070625 -0.3070625 2.0724995 0.5773503 -0.5773503 -0.5773504
0.3070625 0.3070625 2.6866243 0.5773503 0.5773503 0.5773504
0.3070625 0.3070625 2.0724995 0.5773503 0.5773503 -0.5773504
-0.3070625 0.3070625 2.0724995 -0.5773503 0.5773503 -0.5773504
-0.26100314 -0.26100314 3.2086306 -0.5773503 -0.5773503 0.5773503
-0.26100314 -0.26100314 2.6866245 -0.57735026 -0.5773502 -0.5773502
-0.26100314 0.26100314 3.2086306 -0.57735026 0.5773502 0.5773502
0.26100314 -0.26100314 3.2086306 0.57735026 -0.5773502 0.5773502
0.26100314 -0.26100314 2.6866245 0.5773503 -0.5773503 -0.5773503
0.26100314 0.26100314 3.2086306 0.5773503 0.5773503 0.5773503
0.26100314 0.26100314 2.6866245 0.57735026 0.5773502 -0.5773502
-0.26100314 0.26100314 2.6866245 -0.5773503 0.5773503 -0.5773503
-0.5 -0.5 -0.5 -0.5773503 -0.5773503 0.5773503
-0.5 0.5 -0.5 -0.5773503 0.5773503 0.5773503
-0.5 -0.5 -1.5 -0.5773503 -0.5773503 -0.5773503
-0.5 0.5 -1.5 -0.5773503 0.5773503 -0.5773503
0.5 -0.5 -0.5 0.5773503 -0.5773503 0.5773503
0.5 0.5 -0.5 0.5773503 0.5773503 0.5773503
0.5 -0.5 -1.5 0.5773503 -0.5773503 -0.5773503
0.5 0.5 -1.5 0.5773503 0.5773503 -0.5773503
-0.5 -0.5 -1.5 -0.5773503 -0.5773503 0.5773503
-0.5 0.5 -1.5 -0.5773503 0.5773503 0.5773503
-0.5 -0.5 -2.5 -0.5773503 -0.5773503 -0.5773503
-0.5 0.5 -2.5 -0.5773503 0.5773503 -0.5773503
0.5 -0.5 -1.5 0.5773503 -0.5773503 0.5773503
0.5 0.5 -1.5 0.5773503 0.5773503 0.5773503
0.5 -0.5 -2.5 0.5773503 -0.5773503 -0.5773503
0.5 0.5 -2.5 0.5773503 0.5773503 -0.5773503
-0.5 -0.5 -2.5 -0.5773503 -0.5773503 0.5773503
-0.5 0.5 -2.5 -0.5773503 0.5773503 0.5773503
-0.5 -0.5 -3.5 -0.5773503 -0.5773503 -0.5773503
-0.5 0.5 -3.5 -0.5773503 0.5773503 -0.5773503
0.5 -0.5 -2.5 0.5773503 -0.5773503 0.5773503
0.5 0.5 -2.5 0.5773503 0.5773503 0.5773503
0.5 -0.5 -3.5 0.5773503 -0.5773503 -0.5773503
0.5 0.5 -3.5 0.5773503 0.5773503 -0.5773503
-0.5 -0.5 -3.5 -0.5773503 -0.5773503 0.5773503
-0.5 0.5 -3.5 -0.5773503 0.5773503 0.5773503
-0.5 -0.5 -4.5 -0.5773503 -0.5773503 -0.5773503
-0.5 0.5 -4.5 -0.5773503 0.5773503 -0.5773503
0.5 -0.5 -3.5 0.5773503 -0.5773503 0.5773503
0.5 0.5 -3.5 0.5773503 0.5773503 0.5773503
0.5 -0.5 -4.5 0.5773503 -0.5773503 -0.5773503
0.5 0.5 -4.5 0.5773503 0.5773503 -0.5773503
-0.5 -0.5 -4.5 -0.5773503 -0.5773503 0.5773503
-0.5 0.5 -4.5 -0.5773503 0.5773503 0.5773503
-0.5 -0.5 -5.5 -0.5773503 -0.5773503 -0.5773503
-0.5 0.5 -5.5 -0.5773503 0.5773503 -0.5773503
0.5 -0.5 -4.5 0.5773503 -0.5773503 0.5773503
0.5 0.5 -4.5 0.5773503 0.5773503 0.5773503
0.5 -0.5 -5.5 0.5773503 -0.5773503 -0.5773503
0.5 0.5 -5.5 0.5773503 0.5773503 -0.5773503
-0.5 -0.5 -5.5 -0.5773503 -0.5773503 0.5773503
-0.5 0.5 -5.5 -0.5773503 0.5773503 0.5773503
-0.5 -0.5 -6.5 -0.5773503 -0.5773503 -0.5773503
-0.5 0.5 -6.5 -0.5773503 0.5773503 -0.5773503
0.5 -0.5 -5.5 0.5773503 -0.5773503 0.5773503
0.5 0.5 -5.5 0.5773503 0.5773503 0.5773503
0.5 -0.5 -6.5 0.5773503 -0.5773503 -0.5773503
0.5 0.5 -6.5 0.5773503 0.5773503 -0.5773503
-0.625 -0.5625 -6.5 -0.5773503 -0.5773503 0.5773503
-0.625 0.5625 -6.5 -0.57735026 0.5773503 0.5773503
-0.625 -0.5625 -8 -0.57735026 -0.5773503 -0.5773503
-0.625 0.5625 -8 -0.5773503 0.5773503 -0.5773503
0.625 -0.5625 -6.5 0.57735026 -0.5773503 0.5773503
0.625 0.5625 -6.5 0.5773503 0.5773503 0.5773503
0.625 -0.5625 -8 0.5773503 -0.5773503 -0.5773503
0.625 0.5625 -8 0.57735026 0.5773503 -0.5773503
0.20163268 0.21146941 -8 -0.5773503 -0.5773503 0.5773503
0.20163268 0.3885306 -8 -0.57735026 0.5773503 0.5773503
0.20163268 0.21146941 -8.236082 -0.57735026 -0.5773503 -0.5773503
0.20163268 0.3885306 -8.236082 -0.5773503 0.5773503 -0.5773503
0.39836735 0.21146941 -8 0.57735026 -0.5773503 0.5773503
0.39836735 0.3885306 -8 0.5773503 0.5773503 0.5773503
0.39836735 0.21146941 -8.236082 0.5773503 -0.5773503 -0.5773503
0.39836735 0.3885306 -8.236082 0.57735026 0.5773503 -0.5773503
-0.39836735 0.21146941 -8 -0.5773503 -0.5773503 0.5773503
-0.39836735 0.3885306 -8 -0.57735026 0.5773503 0.5773503
-0.39836735 0.21146941 -8.236082 -0.57735026 -0.5773503 -0.5773503
-0.39836735 0.3885306 -8.236082 -0.5773503 0.5773503 -0.5773503
-0.20163268 0.21146941 -8 0.57735026 -0.5773503 0.5773503
-0.20163268 0.3885306 -8 0.5773503 0.5773503 0.5773503
-0.20163268 0.21146941 -8.236082 0.5773503 -0.5773503 -0.5773503
-0.20163268 0.3885306 -8.236082 0.57735026 0.5773503 -0.5773503
3 1 2 0
3 3 6 2
3 7 4 6
3 5 0 4
3 6 0 2
3 3 5 7
3 1 3 2
3 3 7 6
3 7 5 4
3 5 1 0
3 6 4 0
3 3 1 5
3 9 10 8
3 11 14 10
3 15 12 14
3 13 8 12
3 14 8 10
3 11 13 15
3 9 11 10
3 11 15 14
3 15 13 12
3 13 9 8
3 14 12 8
3 11 9 13
3 17 18 16
3 19 22 18
3 23 20 22
3 21 16 20
3 22 16 18
3 19 21 23
3 17 19 18
3 19 23 22
3 23 21 20
3 21 17 16
3 22 20 16
3 19 17 21
3 28 24 25
3 26 25 24
3 29 24 27
3 30 27 28
3 31 29 30
3 31 28 25
3 28 27 24
3 26 31 25
3 29 26 24
3 30 29 27
3 31 26 29
3 31 30 28
3 36 32 33
3 34 33 32
3 37 32 35
3 38 35 36
3 39 37 38
3 39 36 33
3 36 35 32
3 34 39 33
3 37 34 32
3 38 37 35
3 39 34 37
3 39 38 36
3 41 42 40
3 43 46 42
3 47 44 46
3 45 40 44
3 46 40 42
3 43 45 47
3 41 43 42
3 43 47 46
3 47 45 44
3 45 41 40
3 46 44 40
3 43 41 45
3 49 50 48
3 51 54 50
3 55 52 54
3 53 48 52
3 54 48 50
3 51 53 55
3 49 51 50
3 51 55 54
3 55 53 52
3 53 49 48
3 54 52 48
3 51 49 53
3 57 58 56
3 59 62 58
3 63 60 62
3 61 56 60
3 62 56 58
3 59 61 63
3 57 59 58
3 59 63 62
3 63 61 60
3 61 57 56
3 62 60 56
3 59 57 61
3 65 66 64
3 67 70 66
3 71 68 70
3 69 64 68
3 70 64 66
3 67 69 71
3 65 67 66
3 67 71 70
3 71 69 68
3 69 65 64
3 70 68 64
3 67 65 69
3 73 74 72
3 75 78 74
3 79 76 78
3 77 72 76
3 78 72 74
3 75 77 79
3 73 75 74
3 75 79 78
3 79 77 76
3 77 73 72
3 78 76 72
3 75 73 77
3 81 82 80
3 83 86 82
3 87 84 86
3 85 80 84
3 86 80 82
3 83 85 87
3 81 83 82
3 83 87 86
3 87 85 84
3 85 81 80
3 86 84 80
3 83 81 85
3 89 90 88
3 91 94 90
3 95 92 94
3 93 88 92
3 94 88 90
3 91 93 95
3 89 91 90
3 91 95 94
3 95 93 92
3 93 89 88
3 94 92 88
3 91 89 93
3 97 98 96
3 99 102 98
3 103 100 102
3 101 96 100
3 102 96 98
3 99 101 103
3 97 99 98
3 99 103 102
3 103 101 100
3 101 97 96
3 102 100 96
3 99 97 101
3 105 106 104
3 107 110 106
3 111 108 110
3 109 104 108
3 110 104 106
3 107 109 111
3 105 107 106
3 107 111 110
3 111 109 108
3 109 105 104
3 110 108 104
3 107 105 109
