ply
format ascii 1.0
comment Created in Blender version 4.0.2
element vertex 14
property float x
property float y
property float z
property float nx
property float ny
property float nz
property float s
property float t
element face 12
property list uchar uint vertex_indices
end_header
-0.625 0.5625 -6.5 -0.4960362 0.18670374 0.8479916 0.625 0
-1.0121324 0.94611293 -7.446464 -0.776927 -0.24574234 -0.57965094 0.375 0.25
-0.625 -0.5 -6.5 -0.48498422 -0.8350569 0.25975037 0.375 0
1.0121324 0.94611293 -7.446464 0.776927 -0.24574237 -0.5796509 0.375 0.5
0.625 0.5625 -6.5 0.4960362 0.18670367 0.8479916 0.625 0.75
0.625 -0.5 -6.5 0.48498407 -0.83505696 0.25975043 0.375 0.75
-0.625 -0.5 -6.5 -0.48498422 -0.8350569 0.25975037 0.375 1
-0.625 -0.5 -6.5 -0.48498422 -0.8350569 0.25975037 0.125 0.75
-1.0121324 0.94611293 -7.446464 -0.776927 -0.24574234 -0.57965094 0.125 0.5
-1.0121324 2.1766453 -7.446464 -0.59074104 0.7813859 -0.20114923 0.875 0.5
1.0121324 2.1766453 -7.446464 0.59074116 0.78138584 -0.20114914 0.625 0.5
-1.0121324 2.1766453 -7.446464 -0.59074104 0.7813859 -0.20114923 0.625 0.25
-0.625 0.5625 -6.5 -0.4960362 0.18670374 0.8479916 0.625 1
-0.625 0.5625 -6.5 -0.4960362 0.18670374 0.8479916 0.875 0.75
3 0 1 2
3 3 4 5
3 4 6 5
3 3 7 8
3 9 4 10
3 9 3 8
3 0 11 1
3 3 10 4
3 4 12 6
3 3 5 7
3 9 13 4
3 9 10 3
