ply
format ascii 1.0
comment Created in Blender version 4.0.2
element vertex 14
property float x
property float y
property float z
property float nx
property float ny
property float nz
property float s
property float t
element face 12
property list uchar uint vertex_indices
end_header
-0.41735375 0.41735375 1.3499999 -0.5553364 0.5450752 0.628088 0.625 0
-0.49235374 -0.50764626 0.5 -0.59651196 -0.60559034 -0.5267199 0.375 0.25
-0.4097075 -0.425 1.3499999 -0.5450888 -0.5553377 0.628075 0.375 0
-0.5 0.5 0.5 -0.6055876 0.5965004 -0.5267361 0.625 0.25
0.5 -0.5 0.5 0.6055876 -0.5965004 -0.526736 0.375 0.5
0.49235374 0.50764626 0.5 0.59651196 0.60559034 -0.5267199 0.625 0.5
0.41735375 -0.41735375 1.3499999 0.5553364 -0.5450752 0.628088 0.375 0.75
-0.41735375 0.41735375 1.3499999 -0.5553364 0.5450752 0.628088 0.625 1
-0.4097075 -0.425 1.3499999 -0.5450888 -0.5553377 0.628075 0.375 1
-0.4097075 -0.425 1.3499999 -0.5450888 -0.5553377 0.628075 0.125 0.75
-0.49235374 -0.50764626 0.5 -0.59651196 -0.60559034 -0.5267199 0.125 0.5
-0.5 0.5 0.5 -0.6055876 0.5965004 -0.5267361 0.875 0.5
0.4097075 0.425 1.3499999 0.5450888 0.5553377 0.628075 0.625 0.75
-0.41735375 0.41735375 1.3499999 -0.5553364 0.5450752 0.628088 0.875 0.75
3 0 1 2
3 3 4 1
3 5 6 4
3 6 7 8
3 4 9 10
3 11 12 5
3 0 3 1
3 3 5 4
3 5 12 6
3 6 12 7
3 4 6 9
3 11 13 12
