ply
format ascii 1.0
comment Created in Blender version 4.0.2
element vertex 14
property float x
property float y
property float z
property float nx
property float ny
property float nz
property float s
property float t
element face 12
property list uchar uint vertex_indices
end_header
-0.5 0.5 -5.5 -0.53952855 0.5633341 0.6257503 0.625 0
-0.625 -0.5 -6.5 -0.6154007 -0.57109135 -0.54326475 0.375 0.25
-0.5 -0.5 -5.5 -0.5371383 -0.5841729 0.6084607 0.375 0
-0.625 0.5625 -6.5 -0.61126953 0.589491 -0.52806234 0.625 0.25
0.625 -0.5 -6.5 0.6154007 -0.57109135 -0.5432648 0.375 0.5
0.5 0.5 -5.5 0.5395286 0.5633341 0.62575036 0.625 0.75
0.5 -0.5 -5.5 0.5371383 -0.5841729 0.60846066 0.375 0.75
-0.5 -0.5 -5.5 -0.5371383 -0.5841729 0.6084607 0.375 1
-0.5 -0.5 -5.5 -0.5371383 -0.5841729 0.6084607 0.125 0.75
-0.625 -0.5 -6.5 -0.6154007 -0.57109135 -0.54326475 0.125 0.5
-0.625 0.5625 -6.5 -0.61126953 0.589491 -0.52806234 0.875 0.5
0.625 0.5625 -6.5 0.61126953 0.589491 -0.52806234 0.625 0.5
-0.5 0.5 -5.5 -0.53952855 0.5633341 0.6257503 0.625 1
-0.5 0.5 -5.5 -0.53952855 0.5633341 0.6257503 0.875 0.75
3 0 1 2
3 3 4 1
3 4 5 6
3 5 7 6
3 4 8 9
3 10 5 11
3 0 3 1
3 3 11 4
3 4 11 5
3 5 12 7
3 4 6 8
3 10 13 5
