ply
format ascii 1.0
comment Created in Blender version 4.0.2
element vertex 14
property float x
property float y
property float z
property float nx
property float ny
property float nz
property float s
property float t
element face 12
property list uchar uint vertex_indices
end_header
-0.36124998 -0.36125 2.0724998 -0.5580078 -0.5529888 0.61873317 0.375 0
-0.41735375 0.41735375 1.3499999 -0.6001873 0.59226906 -0.53758025 0.625 0.25
-0.4097075 -0.425 1.3499999 -0.58856344 -0.6038798 -0.53751487 0.375 0.25
0.41735375 -0.41735375 1.3499999 0.60018724 -0.59226906 -0.5375803 0.375 0.5
0.36125004 0.36125 2.0724998 0.5580078 0.5529888 0.61873317 0.625 0.75
0.36125004 -0.36125 2.0724998 0.5569867 -0.5539756 0.6187705 0.375 0.75
-0.36124998 -0.36125 2.0724998 -0.5580078 -0.5529888 0.61873317 0.375 1
-0.4097075 -0.425 1.3499999 -0.58856344 -0.6038798 -0.53751487 0.125 0.5
-0.36124998 -0.36125 2.0724998 -0.5580078 -0.5529888 0.61873317 0.125 0.75
0.4097075 0.425 1.3499999 0.58856344 0.6038798 -0.53751487 0.625 0.5
-0.36124998 0.36125 2.0724998 -0.55698663 0.5539756 0.61877054 0.875 0.75
-0.36124998 0.36125 2.0724998 -0.55698663 0.5539756 0.61877054 0.625 0
-0.36124998 0.36125 2.0724998 -0.55698663 0.5539756 0.61877054 0.625 1
-0.41735375 0.41735375 1.3499999 -0.6001873 0.59226906 -0.53758025 0.875 0.5
3 0 1 2
3 1 3 2
3 3 4 5
3 4 6 5
3 7 5 8
3 9 10 4
3 0 11 1
3 1 9 3
3 3 9 4
3 4 12 6
3 7 3 5
3 9 13 10
