ply
format ascii 1.0
comment Created in Blender version 4.0.2
element vertex 14
property float x
property float y
property float z
property float nx
property float ny
property float nz
property float s
property float t
element face 12
property list uchar uint vertex_indices
end_header
0.3070625 -0.3070625 2.6866243 0.61820906 -0.5687451 -0.5425373 0.375 0.5
-0.07258278 -0.31866926 4.448166 -0.534257 -0.58680123 0.6084684 0.125 0.75
-0.3070625 -0.3070625 2.6866245 -0.6182088 -0.5687453 -0.54253715 0.125 0.5
-0.07258278 -0.1735037 4.448166 -0.54591423 0.4918198 0.6783 0.625 0
-0.3070625 -0.3070625 2.6866245 -0.6182088 -0.5687453 -0.54253715 0.375 0.25
-0.07258278 -0.31866926 4.448166 -0.534257 -0.58680123 0.6084684 0.375 0
0.07258278 -0.1735037 4.448166 0.5459141 0.4918198 0.6783001 0.625 0.75
-0.07258278 -0.31866926 4.448166 -0.534257 -0.58680123 0.6084684 0.375 1
0.07258278 -0.31866926 4.448166 0.53425694 -0.5868013 0.6084685 0.375 0.75
-0.3070625 0.3070625 2.6866245 -0.6004428 0.6453797 -0.47217944 0.875 0.5
0.3070625 0.3070625 2.6866245 0.60044295 0.6453794 -0.4721796 0.625 0.5
-0.3070625 0.3070625 2.6866245 -0.6004428 0.6453797 -0.47217944 0.625 0.25
-0.07258278 -0.1735037 4.448166 -0.54591423 0.4918198 0.6783 0.625 1
-0.07258278 -0.1735037 4.448166 -0.54591423 0.4918198 0.6783 0.875 0.75
3 0 1 2
3 3 4 5
3 6 7 8
3 0 6 8
3 9 6 10
3 11 0 4
3 0 8 1
3 3 11 4
3 6 12 7
3 0 10 6
3 9 13 6
3 11 10 0
