ply
format ascii 1.0
comment Created in Blender version 4.0.2
element vertex 14
property float x
property float y
property float z
property float nx
property float ny
property float nz
property float s
property float t
element face 12
property list uchar uint vertex_indices
end_header
0.36125004 -0.36125 2.0724998 0.5990781 -0.59907806 -0.5312352 0.375 0.5
-0.3070625 -0.3070625 2.6866243 -0.5529352 -0.5529352 0.6233179 0.125 0.75
-0.36124998 -0.36125 2.0724998 -0.599078 -0.59907806 -0.53123534 0.125 0.5
-0.3070625 0.3070625 2.6866243 -0.5529352 0.5529352 0.62331796 0.625 0
-0.36124998 -0.36125 2.0724998 -0.599078 -0.59907806 -0.53123534 0.375 0.25
-0.3070625 -0.3070625 2.6866243 -0.5529352 -0.5529352 0.6233179 0.375 0
0.3070625 0.3070625 2.6866243 0.5529352 0.5529352 0.62331796 0.625 0.75
-0.3070625 -0.3070625 2.6866243 -0.5529352 -0.5529352 0.6233179 0.375 1
0.3070625 -0.3070625 2.6866243 0.5529352 -0.55293524 0.62331796 0.375 0.75
0.36125004 0.36125 2.0724998 0.599078 0.59907806 -0.5312353 0.625 0.5
-0.36124998 0.36125 2.0724998 -0.5990781 0.59907806 -0.5312353 0.875 0.5
-0.36124998 0.36125 2.0724998 -0.5990781 0.59907806 -0.5312353 0.625 0.25
-0.3070625 0.3070625 2.6866243 -0.5529352 0.5529352 0.62331796 0.625 1
-0.3070625 0.3070625 2.6866243 -0.5529352 0.5529352 0.62331796 0.875 0.75
3 0 1 2
3 3 4 5
3 6 7 8
3 9 8 0
3 10 6 9
3 11 0 4
3 0 8 1
3 3 11 4
3 6 12 7
3 9 6 8
3 10 13 6
3 11 9 0
