ply
format ascii 1.0
comment Created in Blender version 4.0.2
element vertex 19
property float x
property float y
property float z
property float nx
property float ny
property float nz
property float s
property float t
element face 22
property list uchar uint vertex_indices
end_header
1.0121324 0.94611293 -7.446464 0.57258034 -0.58936167 -0.56991637 0.375 0.5
0.7614413 2.196791 -8.241105 0.85174865 -0.37790152 -0.3629252 0.5 0.5
0.7614413 2.5423293 -7.8829794 0.5815868 0.7877703 0.20291594 0.625 0.5
0.7614413 2.5423293 -8.710466 0.57735026 0.5773503 -0.5773503 0.625 0.5
-1.0121324 0.94611293 -7.446464 -0.5654939 -0.5539111 -0.61106396 0.125 0.5
0.7614413 1.1717349 -7.8829794 0.36704102 -0.5586649 -0.74375695 0.375 0.5
-1.0121324 2.1766453 -7.446464 -0.9083849 0.41810074 -0.0053519425 0.875 0.5
-0.7614413 2.5423293 -7.8829794 -0.52996004 0.8272866 0.18638463 0.875 0.5
-1.0121324 2.1766453 -7.446464 -0.9083849 0.41810074 -0.0053519425 0.625 0.25
-0.7614413 2.196791 -8.241105 -0.83155996 -0.38156447 -0.4036294 0.5 0.25
-0.7614413 1.1717349 -7.8829794 -0.44140327 -0.51798475 -0.73270386 0.375 0.25
-0.7614413 2.5423293 -8.710466 -0.57735026 0.5773503 -0.5773503 0.625 0.25
0.7614413 2.196791 -8.710466 0.5773503 -0.57735026 -0.5773503 0.5 0.5
-0.7614413 2.196791 -8.710466 -0.5773503 -0.5773503 -0.5773503 0.5 0.25
-0.7614413 2.5423293 -8.710466 -0.57735026 0.5773503 -0.5773503 0.875 0.5
1.0121324 2.1766453 -7.446464 0.89435935 0.41563287 -0.16544095 0.625 0.5
-0.7614413 1.1717349 -7.8829794 -0.44140327 -0.51798475 -0.73270386 0.125 0.5
-1.0121324 0.94611293 -7.446464 -0.5654939 -0.5539111 -0.61106396 0.375 0.25
-0.7614413 2.5423293 -7.8829794 -0.52996004 0.8272866 0.18638463 0.625 0.25
3 0 1 2
3 1 3 2
3 4 5 0
3 6 2 7
3 8 9 10
3 9 5 10
3 11 12 13
3 9 12 1
3 9 11 13
3 2 14 7
3 2 15 0
3 0 5 1
3 1 12 3
3 4 16 5
3 6 15 2
3 10 17 8
3 8 18 9
3 9 1 5
3 11 3 12
3 9 13 12
3 9 18 11
3 2 3 14
